<?xml version="1.0" encoding="utf-8" standalone="no"?>
<!DOCTYPE svg PUBLIC "-//W3C//DTD SVG 1.1//EN"
  "http://www.w3.org/Graphics/SVG/1.1/DTD/svg11.dtd">
<!-- Created with matplotlib (https://matplotlib.org/) -->
<svg height="345.6pt" version="1.1" viewBox="0 0 460.8 345.6" width="460.8pt" xmlns="http://www.w3.org/2000/svg" xmlns:xlink="http://www.w3.org/1999/xlink">
 <defs>
  <style type="text/css">
*{stroke-linecap:butt;stroke-linejoin:round;}
  </style>
 </defs>
 <g id="figure_1">
  <g id="patch_1">
   <path d="M 0 345.6 
L 460.8 345.6 
L 460.8 0 
L 0 0 
z
" style="fill:#ffffff;"/>
  </g>
  <g id="axes_1">
   <g id="patch_2">
    <path d="M 57.6 307.584 
L 414.72 307.584 
L 414.72 41.472 
L 57.6 41.472 
z
" style="fill:#ffffff;"/>
   </g>
   <g id="matplotlib.axis_1">
    <g id="xtick_1">
     <g id="line2d_1">
      <defs>
       <path d="M 0 0 
L 0 3.5 
" id="ma11457940a" style="stroke:#000000;stroke-width:0.8;"/>
      </defs>
      <g>
       <use style="stroke:#000000;stroke-width:0.8;" x="61.252293" xlink:href="#ma11457940a" y="307.584"/>
      </g>
     </g>
     <g id="text_1">
      <!-- −400 -->
      <defs>
       <path d="M 10.59375 35.5 
L 73.1875 35.5 
L 73.1875 27.203125 
L 10.59375 27.203125 
z
" id="DejaVuSans-8722"/>
       <path d="M 37.796875 64.3125 
L 12.890625 25.390625 
L 37.796875 25.390625 
z
M 35.203125 72.90625 
L 47.609375 72.90625 
L 47.609375 25.390625 
L 58.015625 25.390625 
L 58.015625 17.1875 
L 47.609375 17.1875 
L 47.609375 0 
L 37.796875 0 
L 37.796875 17.1875 
L 4.890625 17.1875 
L 4.890625 26.703125 
z
" id="DejaVuSans-52"/>
       <path d="M 31.78125 66.40625 
Q 24.171875 66.40625 20.328125 58.90625 
Q 16.5 51.421875 16.5 36.375 
Q 16.5 21.390625 20.328125 13.890625 
Q 24.171875 6.390625 31.78125 6.390625 
Q 39.453125 6.390625 43.28125 13.890625 
Q 47.125 21.390625 47.125 36.375 
Q 47.125 51.421875 43.28125 58.90625 
Q 39.453125 66.40625 31.78125 66.40625 
z
M 31.78125 74.21875 
Q 44.046875 74.21875 50.515625 64.515625 
Q 56.984375 54.828125 56.984375 36.375 
Q 56.984375 17.96875 50.515625 8.265625 
Q 44.046875 -1.421875 31.78125 -1.421875 
Q 19.53125 -1.421875 13.0625 8.265625 
Q 6.59375 17.96875 6.59375 36.375 
Q 6.59375 54.828125 13.0625 64.515625 
Q 19.53125 74.21875 31.78125 74.21875 
z
" id="DejaVuSans-48"/>
      </defs>
      <g transform="translate(47.518699 322.182437)scale(0.1 -0.1)">
       <use xlink:href="#DejaVuSans-8722"/>
       <use x="83.789062" xlink:href="#DejaVuSans-52"/>
       <use x="147.412109" xlink:href="#DejaVuSans-48"/>
       <use x="211.035156" xlink:href="#DejaVuSans-48"/>
      </g>
     </g>
    </g>
    <g id="xtick_2">
     <g id="line2d_2">
      <g>
       <use style="stroke:#000000;stroke-width:0.8;" x="112.3908" xlink:href="#ma11457940a" y="307.584"/>
      </g>
     </g>
     <g id="text_2">
      <!-- −200 -->
      <defs>
       <path d="M 19.1875 8.296875 
L 53.609375 8.296875 
L 53.609375 0 
L 7.328125 0 
L 7.328125 8.296875 
Q 12.9375 14.109375 22.625 23.890625 
Q 32.328125 33.6875 34.8125 36.53125 
Q 39.546875 41.84375 41.421875 45.53125 
Q 43.3125 49.21875 43.3125 52.78125 
Q 43.3125 58.59375 39.234375 62.25 
Q 35.15625 65.921875 28.609375 65.921875 
Q 23.96875 65.921875 18.8125 64.3125 
Q 13.671875 62.703125 7.8125 59.421875 
L 7.8125 69.390625 
Q 13.765625 71.78125 18.9375 73 
Q 24.125 74.21875 28.421875 74.21875 
Q 39.75 74.21875 46.484375 68.546875 
Q 53.21875 62.890625 53.21875 53.421875 
Q 53.21875 48.921875 51.53125 44.890625 
Q 49.859375 40.875 45.40625 35.40625 
Q 44.1875 33.984375 37.640625 27.21875 
Q 31.109375 20.453125 19.1875 8.296875 
z
" id="DejaVuSans-50"/>
      </defs>
      <g transform="translate(98.657207 322.182437)scale(0.1 -0.1)">
       <use xlink:href="#DejaVuSans-8722"/>
       <use x="83.789062" xlink:href="#DejaVuSans-50"/>
       <use x="147.412109" xlink:href="#DejaVuSans-48"/>
       <use x="211.035156" xlink:href="#DejaVuSans-48"/>
      </g>
     </g>
    </g>
    <g id="xtick_3">
     <g id="line2d_3">
      <g>
       <use style="stroke:#000000;stroke-width:0.8;" x="163.529308" xlink:href="#ma11457940a" y="307.584"/>
      </g>
     </g>
     <g id="text_3">
      <!-- 0 -->
      <g transform="translate(160.348058 322.182437)scale(0.1 -0.1)">
       <use xlink:href="#DejaVuSans-48"/>
      </g>
     </g>
    </g>
    <g id="xtick_4">
     <g id="line2d_4">
      <g>
       <use style="stroke:#000000;stroke-width:0.8;" x="214.667815" xlink:href="#ma11457940a" y="307.584"/>
      </g>
     </g>
     <g id="text_4">
      <!-- 200 -->
      <g transform="translate(205.124065 322.182437)scale(0.1 -0.1)">
       <use xlink:href="#DejaVuSans-50"/>
       <use x="63.623047" xlink:href="#DejaVuSans-48"/>
       <use x="127.246094" xlink:href="#DejaVuSans-48"/>
      </g>
     </g>
    </g>
    <g id="xtick_5">
     <g id="line2d_5">
      <g>
       <use style="stroke:#000000;stroke-width:0.8;" x="265.806322" xlink:href="#ma11457940a" y="307.584"/>
      </g>
     </g>
     <g id="text_5">
      <!-- 400 -->
      <g transform="translate(256.262572 322.182437)scale(0.1 -0.1)">
       <use xlink:href="#DejaVuSans-52"/>
       <use x="63.623047" xlink:href="#DejaVuSans-48"/>
       <use x="127.246094" xlink:href="#DejaVuSans-48"/>
      </g>
     </g>
    </g>
    <g id="xtick_6">
     <g id="line2d_6">
      <g>
       <use style="stroke:#000000;stroke-width:0.8;" x="316.944829" xlink:href="#ma11457940a" y="307.584"/>
      </g>
     </g>
     <g id="text_6">
      <!-- 600 -->
      <defs>
       <path d="M 33.015625 40.375 
Q 26.375 40.375 22.484375 35.828125 
Q 18.609375 31.296875 18.609375 23.390625 
Q 18.609375 15.53125 22.484375 10.953125 
Q 26.375 6.390625 33.015625 6.390625 
Q 39.65625 6.390625 43.53125 10.953125 
Q 47.40625 15.53125 47.40625 23.390625 
Q 47.40625 31.296875 43.53125 35.828125 
Q 39.65625 40.375 33.015625 40.375 
z
M 52.59375 71.296875 
L 52.59375 62.3125 
Q 48.875 64.0625 45.09375 64.984375 
Q 41.3125 65.921875 37.59375 65.921875 
Q 27.828125 65.921875 22.671875 59.328125 
Q 17.53125 52.734375 16.796875 39.40625 
Q 19.671875 43.65625 24.015625 45.921875 
Q 28.375 48.1875 33.59375 48.1875 
Q 44.578125 48.1875 50.953125 41.515625 
Q 57.328125 34.859375 57.328125 23.390625 
Q 57.328125 12.15625 50.6875 5.359375 
Q 44.046875 -1.421875 33.015625 -1.421875 
Q 20.359375 -1.421875 13.671875 8.265625 
Q 6.984375 17.96875 6.984375 36.375 
Q 6.984375 53.65625 15.1875 63.9375 
Q 23.390625 74.21875 37.203125 74.21875 
Q 40.921875 74.21875 44.703125 73.484375 
Q 48.484375 72.75 52.59375 71.296875 
z
" id="DejaVuSans-54"/>
      </defs>
      <g transform="translate(307.401079 322.182437)scale(0.1 -0.1)">
       <use xlink:href="#DejaVuSans-54"/>
       <use x="63.623047" xlink:href="#DejaVuSans-48"/>
       <use x="127.246094" xlink:href="#DejaVuSans-48"/>
      </g>
     </g>
    </g>
    <g id="xtick_7">
     <g id="line2d_7">
      <g>
       <use style="stroke:#000000;stroke-width:0.8;" x="368.083337" xlink:href="#ma11457940a" y="307.584"/>
      </g>
     </g>
     <g id="text_7">
      <!-- 800 -->
      <defs>
       <path d="M 31.78125 34.625 
Q 24.75 34.625 20.71875 30.859375 
Q 16.703125 27.09375 16.703125 20.515625 
Q 16.703125 13.921875 20.71875 10.15625 
Q 24.75 6.390625 31.78125 6.390625 
Q 38.8125 6.390625 42.859375 10.171875 
Q 46.921875 13.96875 46.921875 20.515625 
Q 46.921875 27.09375 42.890625 30.859375 
Q 38.875 34.625 31.78125 34.625 
z
M 21.921875 38.8125 
Q 15.578125 40.375 12.03125 44.71875 
Q 8.5 49.078125 8.5 55.328125 
Q 8.5 64.0625 14.71875 69.140625 
Q 20.953125 74.21875 31.78125 74.21875 
Q 42.671875 74.21875 48.875 69.140625 
Q 55.078125 64.0625 55.078125 55.328125 
Q 55.078125 49.078125 51.53125 44.71875 
Q 48 40.375 41.703125 38.8125 
Q 48.828125 37.15625 52.796875 32.3125 
Q 56.78125 27.484375 56.78125 20.515625 
Q 56.78125 9.90625 50.3125 4.234375 
Q 43.84375 -1.421875 31.78125 -1.421875 
Q 19.734375 -1.421875 13.25 4.234375 
Q 6.78125 9.90625 6.78125 20.515625 
Q 6.78125 27.484375 10.78125 32.3125 
Q 14.796875 37.15625 21.921875 38.8125 
z
M 18.3125 54.390625 
Q 18.3125 48.734375 21.84375 45.5625 
Q 25.390625 42.390625 31.78125 42.390625 
Q 38.140625 42.390625 41.71875 45.5625 
Q 45.3125 48.734375 45.3125 54.390625 
Q 45.3125 60.0625 41.71875 63.234375 
Q 38.140625 66.40625 31.78125 66.40625 
Q 25.390625 66.40625 21.84375 63.234375 
Q 18.3125 60.0625 18.3125 54.390625 
z
" id="DejaVuSans-56"/>
      </defs>
      <g transform="translate(358.539587 322.182437)scale(0.1 -0.1)">
       <use xlink:href="#DejaVuSans-56"/>
       <use x="63.623047" xlink:href="#DejaVuSans-48"/>
       <use x="127.246094" xlink:href="#DejaVuSans-48"/>
      </g>
     </g>
    </g>
   </g>
   <g id="matplotlib.axis_2">
    <g id="ytick_1">
     <g id="line2d_8">
      <defs>
       <path d="M 0 0 
L -3.5 0 
" id="m637f16b796" style="stroke:#000000;stroke-width:0.8;"/>
      </defs>
      <g>
       <use style="stroke:#000000;stroke-width:0.8;" x="57.6" xlink:href="#m637f16b796" y="288.83157"/>
      </g>
     </g>
     <g id="text_8">
      <!-- 0 -->
      <g transform="translate(44.2375 292.630789)scale(0.1 -0.1)">
       <use xlink:href="#DejaVuSans-48"/>
      </g>
     </g>
    </g>
    <g id="ytick_2">
     <g id="line2d_9">
      <g>
       <use style="stroke:#000000;stroke-width:0.8;" x="57.6" xlink:href="#m637f16b796" y="237.693063"/>
      </g>
     </g>
     <g id="text_9">
      <!-- 200 -->
      <g transform="translate(31.5125 241.492281)scale(0.1 -0.1)">
       <use xlink:href="#DejaVuSans-50"/>
       <use x="63.623047" xlink:href="#DejaVuSans-48"/>
       <use x="127.246094" xlink:href="#DejaVuSans-48"/>
      </g>
     </g>
    </g>
    <g id="ytick_3">
     <g id="line2d_10">
      <g>
       <use style="stroke:#000000;stroke-width:0.8;" x="57.6" xlink:href="#m637f16b796" y="186.554555"/>
      </g>
     </g>
     <g id="text_10">
      <!-- 400 -->
      <g transform="translate(31.5125 190.353774)scale(0.1 -0.1)">
       <use xlink:href="#DejaVuSans-52"/>
       <use x="63.623047" xlink:href="#DejaVuSans-48"/>
       <use x="127.246094" xlink:href="#DejaVuSans-48"/>
      </g>
     </g>
    </g>
    <g id="ytick_4">
     <g id="line2d_11">
      <g>
       <use style="stroke:#000000;stroke-width:0.8;" x="57.6" xlink:href="#m637f16b796" y="135.416048"/>
      </g>
     </g>
     <g id="text_11">
      <!-- 600 -->
      <g transform="translate(31.5125 139.215267)scale(0.1 -0.1)">
       <use xlink:href="#DejaVuSans-54"/>
       <use x="63.623047" xlink:href="#DejaVuSans-48"/>
       <use x="127.246094" xlink:href="#DejaVuSans-48"/>
      </g>
     </g>
    </g>
    <g id="ytick_5">
     <g id="line2d_12">
      <g>
       <use style="stroke:#000000;stroke-width:0.8;" x="57.6" xlink:href="#m637f16b796" y="84.277541"/>
      </g>
     </g>
     <g id="text_12">
      <!-- 800 -->
      <g transform="translate(31.5125 88.07676)scale(0.1 -0.1)">
       <use xlink:href="#DejaVuSans-56"/>
       <use x="63.623047" xlink:href="#DejaVuSans-48"/>
       <use x="127.246094" xlink:href="#DejaVuSans-48"/>
      </g>
     </g>
    </g>
   </g>
   <g id="line2d_13">
    <path clip-path="url(#p59c31482b4)" d="M 163.529308 288.83157 
L 163.445264 282.346953 
L 163.386104 274.696604 
L 163.565467 273.012283 
L 163.968958 271.481242 
L 164.594464 270.13221 
L 165.28156 269.158106 
L 166.114198 268.355306 
L 167.280537 267.58281 
L 168.388348 267.129999 
L 169.590272 266.903954 
L 171.08224 266.877801 
L 174.146465 267.138585 
L 180.124518 267.872008 
L 186.913091 268.705484 
L 193.839459 269.573673 
L 195.937288 270.153742 
L 197.927318 270.950657 
L 199.829236 271.9784 
L 201.38088 273.070506 
L 202.826131 274.357295 
L 204.121955 275.861212 
L 205.040735 277.235058 
L 206.063429 279.303833 
L 206.98924 281.778996 
L 208.752982 287.018611 
L 209.726761 289.080071 
L 210.720101 290.719778 
L 211.884985 292.190253 
L 212.996813 293.228643 
L 214.211174 294.100307 
L 215.549519 294.76445 
L 216.688962 295.125297 
L 218.153083 295.332423 
L 219.63252 295.274897 
L 221.101729 294.985734 
L 222.529721 294.471815 
L 223.875917 293.739389 
L 225.129143 292.816475 
L 226.512465 291.521105 
L 227.748738 290.046322 
L 229.033286 288.130291 
L 231.059317 284.59411 
L 235.730513 275.752701 
L 239.370399 268.658115 
L 240.266064 267.433053 
L 241.293053 266.362911 
L 242.447505 265.5009 
L 243.701575 264.872072 
L 245.026471 264.481686 
L 246.40248 264.320288 
L 247.764785 264.406883 
L 249.123969 264.752516 
L 250.330736 265.309061 
L 251.437629 266.070739 
L 252.227156 266.851647 
L 252.884491 267.782577 
L 253.392552 268.783376 
L 253.879237 270.359342 
L 254.428132 273.375185 
L 255.008324 277.34102 
L 255.391147 278.287092 
L 255.98241 279.036701 
L 256.751764 279.54893 
L 257.542237 279.785666 
L 258.661071 279.867835 
L 259.8482 279.726074 
L 261.024718 279.386366 
L 262.153064 278.865459 
L 263.173073 278.148553 
L 264.037339 277.241862 
L 265.024466 275.809572 
L 265.785483 274.2732 
L 266.220033 272.868673 
L 266.403441 271.636176 
L 266.422132 269.807054 
L 266.105278 263.917178 
L 265.586094 259.113267 
L 264.733564 253.778216 
L 264.049101 249.161738 
L 262.966805 240.332444 
L 262.784573 236.778266 
L 262.836862 233.206062 
L 263.089947 229.939769 
L 263.593968 226.31842 
L 264.393416 222.315707 
L 265.300486 219.400249 
L 267.2135 214.501486 
L 271.334267 204.766836 
L 272.98397 201.847159 
L 280.872059 189.097945 
L 283.702677 184.993823 
L 286.974673 180.579675 
L 290.292718 176.212011 
L 290.547797 175.406759 
L 290.542913 174.537966 
L 290.358047 173.760763 
L 289.939249 172.820096 
L 286.020377 165.698905 
L 282.328662 159.087743 
L 279.9879 155.156803 
L 279.595667 154.891701 
L 278.548683 154.664978 
L 277.469405 154.896738 
L 276.307666 155.456807 
L 274.627945 156.578786 
L 273.243702 157.749858 
L 272.049004 159.047548 
L 270.943927 160.604128 
L 269.893721 162.503924 
L 268.461894 165.748969 
L 267.038965 169.602103 
L 265.104293 174.821018 
L 262.636169 180.467349 
L 260.393337 184.792977 
L 258.464443 188.098903 
L 255.596084 192.464137 
L 251.376339 198.081933 
L 250.498573 198.975297 
L 249.785063 199.420662 
L 249.118165 199.597269 
L 248.534905 199.586863 
L 247.706129 199.296396 
L 247.040893 198.87031 
L 244.281434 196.836582 
L 243.126982 196.336243 
L 241.874114 196.014301 
L 240.544309 195.877684 
L 238.69266 195.933885 
L 231.652677 196.389018 
L 229.817828 196.165261 
L 228.231256 195.780393 
L 226.672452 195.18174 
L 225.172508 194.351046 
L 223.983257 193.462361 
L 222.738392 192.26214 
L 221.649321 190.907097 
L 220.771324 189.399048 
L 220.193407 187.98448 
L 219.739911 186.192229 
L 219.540394 184.523835 
L 219.526663 182.797092 
L 219.77645 180.170464 
L 220.465439 176.021955 
L 222.466258 165.69824 
L 224.447799 156.458457 
L 225.446457 151.419063 
L 226.469764 146.324133 
L 227.380771 142.861417 
L 228.449438 139.8602 
L 230.127037 135.10823 
L 230.963944 132.917431 
L 231.810107 131.320605 
L 232.875706 129.821019 
L 234.129034 128.451172 
L 235.534959 127.274194 
L 237.112966 126.291848 
L 239.114911 125.327171 
L 242.710868 123.904421 
L 247.73809 121.931037 
L 250.901979 120.333138 
L 256.715251 117.092183 
L 256.946371 116.609231 
L 257.052739 115.783344 
L 256.777563 114.494296 
L 256.318237 113.418188 
L 253.880976 109.109564 
L 244.538073 92.482132 
L 242.314008 88.67983 
L 240.705011 86.401405 
L 238.88466 84.258062 
L 236.435815 81.693466 
L 234.30472 79.824583 
L 232.084772 78.188534 
L 228.800146 76.104436 
L 226.91426 75.082023 
L 224.116728 73.769783 
L 220.655086 72.142198 
L 220.078269 72.041813 
L 219.033407 72.244833 
L 218.503996 72.548494 
L 217.733466 73.425161 
L 217.157365 74.569488 
L 216.571702 76.376288 
L 214.62629 83.722847 
L 212.593023 91.00336 
L 210.848612 96.578711 
L 209.87716 100.81009 
L 208.879473 106.142968 
L 207.841182 112.801125 
L 204.74426 133.492355 
L 203.287861 142.505953 
L 201.048633 158.106267 
L 198.233586 179.826251 
L 197.972115 184.75291 
L 197.974212 189.735795 
L 198.211648 194.525837 
L 198.492373 196.554349 
L 198.98724 198.455704 
L 199.736291 200.507995 
L 200.562715 202.18204 
L 201.490981 203.528773 
L 202.481279 204.603269 
L 203.641356 205.538721 
L 204.963976 206.294727 
L 206.438862 206.824138 
L 208.299434 207.226164 
L 217.959575 208.975331 
L 220.233756 209.72001 
L 222.046437 210.555741 
L 223.687804 211.55803 
L 225.297797 212.801898 
L 226.541205 214.019992 
L 227.359037 215.143607 
L 227.723041 216.076783 
L 227.785788 216.913102 
L 227.598033 217.623442 
L 227.161617 218.326264 
L 226.487381 218.974802 
L 222.497555 222.246644 
L 220.496301 224.328493 
L 218.212429 227.077597 
L 216.493869 229.242163 
L 215.677673 229.837722 
L 214.902745 230.11704 
L 214.066758 230.163244 
L 213.234326 229.958434 
L 212.272845 229.416698 
L 210.27379 228.196712 
L 208.703556 227.456559 
L 206.895682 226.862534 
L 204.444869 226.261018 
L 200.504596 225.518793 
L 194.526096 224.40001 
L 192.517477 223.781158 
L 191.063047 223.107433 
L 189.469648 222.099953 
L 188.019797 220.876158 
L 186.685995 219.448831 
L 185.516462 217.816796 
L 184.520302 216.001532 
L 183.824997 214.329047 
L 183.091727 211.972789 
L 182.653849 209.851794 
L 182.392153 207.369249 
L 182.393518 205.187962 
L 182.5078 202.402396 
L 182.65514 197.449605 
L 182.592654 194.39996 
L 182.316688 190.718089 
L 181.677443 186.187626 
L 180.413144 179.908814 
L 179.734612 175.975189 
L 179.428247 172.593655 
L 179.299273 167.710157 
L 179.450436 161.554486 
L 179.687537 155.428629 
L 180.036153 148.646614 
L 180.315456 142.980288 
L 180.612778 136.433612 
L 180.905587 130.051859 
L 181.361811 125.639628 
L 182.147925 118.653596 
L 182.609146 114.800513 
L 183.590167 109.015188 
L 185.061982 100.87051 
L 186.045309 96.491085 
L 187.272357 91.865734 
L 188.93173 86.44495 
L 190.363805 82.372815 
L 192.319239 77.352676 
L 193.674281 74.295999 
L 194.788896 72.400422 
L 198.101112 68.075229 
L 201.193688 64.789452 
L 202.812119 63.963692 
L 203.391416 63.956533 
L 204.050975 64.108005 
L 204.915727 64.464134 
L 207.71285 65.946307 
L 215.87003 70.114326 
L 216.518543 70.182494 
L 217.455273 69.983488 
L 218.319923 69.422371 
L 218.816963 68.887257 
L 219.595419 67.677601 
L 220.333757 65.982411 
L 222.099416 61.404133 
L 223.362998 58.116489 
L 224.056154 56.891185 
L 224.902215 55.824103 
L 225.729458 55.073646 
L 226.668335 54.462719 
L 227.700591 54.01045 
L 228.817917 53.704156 
L 230.521979 53.57071 
L 233.513275 53.649975 
L 235.84514 53.922594 
L 238.81956 54.489311 
L 241.177531 55.125884 
L 246.077086 56.775126 
L 254.893339 60.005955 
L 273.796151 67.59243 
L 277.069374 69.238528 
L 281.401189 71.442214 
L 290.754908 75.668991 
L 297.853086 78.755482 
L 302.877572 80.98957 
L 304.065443 81.889505 
L 304.980209 83.076916 
L 305.379575 83.894544 
L 305.872422 85.798866 
L 308.30301 97.073476 
L 308.969728 99.951423 
L 308.969728 99.951423 
" style="fill:none;stroke:#008000;stroke-linecap:square;stroke-width:1.5;"/>
   </g>
   <g id="line2d_14">
    <path clip-path="url(#p59c31482b4)" d="M 163.529308 288.83157 
L 163.452157 283.593374 
L 163.357077 276.95703 
L 163.480566 274.870288 
L 163.794411 273.379272 
L 164.329028 271.975762 
L 165.159422 270.698326 
L 165.955235 269.927862 
L 166.791488 269.357404 
L 167.792912 268.891532 
L 169.013521 268.560075 
L 170.487543 268.457833 
L 172.721495 268.61397 
L 177.893739 269.156475 
L 194.510209 271.233849 
L 196.546254 271.806275 
L 198.465771 272.592937 
L 200.324764 273.618909 
L 201.824213 274.707476 
L 203.239272 276.0065 
L 204.257611 277.24696 
L 205.262149 278.863777 
L 206.232989 280.940449 
L 207.544869 284.617902 
L 208.861371 288.206905 
L 209.809481 290.202581 
L 210.86475 291.903645 
L 211.824961 292.990014 
L 213.007349 293.991193 
L 214.157423 294.744097 
L 215.883858 295.327879 
L 217.120831 295.479367 
L 218.648527 295.419271 
L 220.08861 295.122806 
L 221.490295 294.619627 
L 222.80182 293.892468 
L 224.226241 292.765485 
L 225.457331 291.51709 
L 226.592417 290.024513 
L 227.757207 288.122393 
L 229.725861 284.346893 
L 237.568801 268.264361 
L 238.657532 266.882555 
L 239.728229 265.902702 
L 240.909473 265.155177 
L 242.138993 264.646313 
L 243.375886 264.365819 
L 244.678504 264.320336 
L 246.000001 264.517295 
L 247.229386 264.943884 
L 248.396266 265.597446 
L 249.313795 266.363309 
L 250.276329 267.496952 
L 250.963478 268.691634 
L 251.409213 269.932143 
L 251.942443 272.270538 
L 252.961217 277.390795 
L 253.297357 278.007308 
L 253.903725 278.653183 
L 254.490688 278.92794 
L 255.24622 278.989318 
L 256.414599 278.818287 
L 257.610376 278.433027 
L 258.779054 277.8468 
L 259.778929 277.047543 
L 260.614004 276.084467 
L 261.551272 274.62482 
L 262.268387 273.028363 
L 262.660101 271.583473 
L 262.812362 270.08558 
L 262.726143 267.964854 
L 262.365077 263.931444 
L 261.705749 258.664117 
L 260.660968 252.658256 
L 259.280634 243.707355 
L 258.72085 239.031032 
L 258.540086 235.223779 
L 258.602782 231.363961 
L 258.879686 228.094128 
L 259.413689 224.544316 
L 260.081208 221.667294 
L 261.116893 218.216793 
L 263.067293 212.901245 
L 265.764498 206.084106 
L 267.079377 203.486005 
L 270.028064 198.4892 
L 277.813614 185.898083 
L 281.652607 180.463475 
L 284.244407 176.960553 
L 284.558515 176.187006 
L 284.648909 175.305939 
L 284.474627 174.350719 
L 283.96145 173.276816 
L 280.775549 167.742935 
L 276.539398 160.440906 
L 273.858572 156.199857 
L 273.288682 155.883885 
L 272.596396 155.739072 
L 271.845491 155.812085 
L 271.05628 156.095567 
L 269.91018 156.744513 
L 268.32564 157.882929 
L 267.035712 159.090309 
L 265.923566 160.40377 
L 264.876675 161.987572 
L 263.792073 164.069678 
L 262.47509 167.14712 
L 258.071097 178.581591 
L 256.3865 182.090433 
L 254.315242 185.936488 
L 252.46407 189.005457 
L 249.715958 193.114814 
L 246.299411 197.686699 
L 245.502772 198.383718 
L 244.837722 198.669492 
L 244.170035 198.722459 
L 243.421625 198.532723 
L 242.525664 197.932794 
L 240.530883 196.455741 
L 239.219049 195.858345 
L 237.990729 195.527454 
L 236.622836 195.370319 
L 234.863419 195.413917 
L 231.369603 195.775495 
L 228.36448 195.992621 
L 226.529176 195.876431 
L 224.719129 195.540761 
L 223.128146 195.020452 
L 221.698047 194.325865 
L 220.240688 193.316146 
L 219.007085 192.253046 
L 217.860957 190.974127 
L 216.954905 189.638364 
L 216.255804 188.144549 
L 215.737074 186.432918 
L 215.443992 184.537449 
L 215.408504 182.603183 
L 215.612813 180.326553 
L 216.236021 176.208935 
L 218.082843 165.720046 
L 221.646619 146.89847 
L 222.565032 143.236653 
L 223.668496 140.018019 
L 225.448027 134.61053 
L 226.107346 132.970909 
L 226.98868 131.398972 
L 228.126233 129.855565 
L 229.401052 128.510361 
L 230.606461 127.518402 
L 232.176838 126.53573 
L 234.146855 125.560116 
L 238.100129 123.908419 
L 241.302859 122.587983 
L 244.264147 121.085448 
L 250.376421 117.566593 
L 250.644957 116.990354 
L 250.671721 116.330227 
L 250.475052 115.403874 
L 250.009784 114.233967 
L 248.573428 111.714417 
L 238.064494 93.754746 
L 235.641174 89.847561 
L 234.208319 87.976901 
L 232.203039 85.78602 
L 229.877534 83.557324 
L 227.74449 81.854133 
L 225.631539 80.442965 
L 222.023731 78.347477 
L 216.401371 75.535564 
L 215.579387 75.387161 
L 214.898079 75.467809 
L 214.371397 75.762128 
L 213.789595 76.345368 
L 213.253799 77.223817 
L 212.796063 78.446441 
L 212.220882 80.568267 
L 209.869354 89.914549 
L 208.699134 94.078777 
L 207.072711 99.51756 
L 206.131262 103.963005 
L 204.805061 111.901261 
L 202.929888 125.994015 
L 202.139145 132.023186 
L 200.37815 145.041897 
L 199.8055 149.24748 
L 195.972802 180.283853 
L 195.748731 185.07357 
L 195.843664 190.733196 
L 196.203311 195.965542 
L 196.595151 197.954681 
L 197.470476 200.569417 
L 198.326043 202.412122 
L 199.368695 203.995571 
L 200.32275 205.063186 
L 201.458201 206.00818 
L 202.624874 206.70763 
L 204.023467 207.245098 
L 205.817076 207.627429 
L 209.965867 208.20777 
L 213.608858 208.800747 
L 216.218327 209.43365 
L 218.189442 210.114858 
L 219.973762 210.959804 
L 221.59945 211.971308 
L 222.996575 213.050819 
L 224.241771 214.265643 
L 225.066766 215.393311 
L 225.387307 216.149181 
L 225.492097 216.94284 
L 225.374067 217.591888 
L 225.0158 218.264451 
L 224.37894 218.91668 
L 220.575157 222.154967 
L 218.779813 224.086902 
L 216.907909 226.416017 
L 215.414805 228.275469 
L 214.715477 228.742495 
L 213.960976 228.967524 
L 213.117172 228.976599 
L 212.333132 228.749901 
L 211.360856 228.189765 
L 209.308029 227.074381 
L 207.682319 226.408455 
L 205.088545 225.693975 
L 201.277157 224.96033 
L 194.09104 223.684344 
L 192.192142 223.095023 
L 190.770178 222.449733 
L 189.223909 221.476932 
L 187.80081 220.292997 
L 186.501003 218.896879 
L 185.339333 217.283202 
L 184.354047 215.529298 
L 183.658928 213.864848 
L 183.023599 211.942508 
L 182.516343 209.617204 
L 182.247099 207.197181 
L 182.118973 203.863799 
L 181.881473 192.817903 
L 181.510526 189.585161 
L 180.867093 186.040555 
L 178.939812 176.602435 
L 178.604039 173.265212 
L 178.369439 168.364409 
L 178.391108 160.077202 
L 178.603111 155.94527 
L 178.77434 150.861727 
L 179.075401 140.410963 
L 179.454155 129.320103 
L 180.196334 121.603209 
L 180.592735 116.453021 
L 182.060296 106.026344 
L 182.867548 101.631148 
L 184.134163 96.112333 
L 185.81212 90.106009 
L 187.62492 84.623948 
L 190.221001 77.741942 
L 191.192348 75.75852 
L 192.626713 73.428793 
L 194.3292 71.173219 
L 197.078696 68.008788 
L 198.25162 66.887783 
L 198.832456 66.658725 
L 199.358951 66.664323 
L 200.358822 66.928855 
L 201.741586 67.599906 
L 210.385983 72.017705 
L 211.443333 72.354422 
L 212.301067 72.378695 
L 213.086342 72.169103 
L 213.830324 71.693193 
L 214.448549 71.011816 
L 215.180924 69.813502 
L 215.790176 68.364685 
L 217.26775 64.431307 
L 218.67145 60.563898 
L 219.335816 59.356496 
L 220.146642 58.308824 
L 221.127253 57.397108 
L 222.317334 56.652462 
L 223.615473 56.154654 
L 224.832136 55.928698 
L 226.570835 55.849616 
L 229.180231 56.014773 
L 232.351976 56.439278 
L 234.990329 56.97886 
L 237.850412 57.775096 
L 247.710617 61.086175 
L 255.232056 63.997136 
L 262.021159 66.641998 
L 268.187494 69.022393 
L 271.535666 70.617108 
L 276.205648 72.94303 
L 289.961661 78.954134 
L 297.324816 82.161328 
L 298.316163 82.918967 
L 299.068853 83.796317 
L 299.616651 84.753547 
L 299.986671 85.858281 
L 300.626363 88.79699 
L 302.012 94.929138 
L 303.276828 100.241423 
L 303.276828 100.241423 
" style="fill:none;stroke:#0000ff;stroke-linecap:square;stroke-width:1.5;"/>
   </g>
   <g id="line2d_15">
    <path clip-path="url(#p59c31482b4)" d="M 163.529308 288.83157 
L 163.454427 283.593333 
L 163.373968 276.384296 
L 163.520801 274.617997 
L 163.870679 273.138319 
L 164.3383 271.978223 
L 165.031561 270.861771 
L 165.797112 270.061152 
L 166.794867 269.354125 
L 168.062838 268.797935 
L 169.253441 268.525756 
L 170.493151 268.454972 
L 172.727989 268.595858 
L 176.844839 269.005618 
L 192.993953 270.850312 
L 195.113484 271.287453 
L 196.851153 271.820783 
L 198.750245 272.638495 
L 200.341259 273.531588 
L 201.845619 274.613224 
L 203.267797 275.904129 
L 204.293584 277.138457 
L 205.304737 278.75098 
L 206.284008 280.823331 
L 207.605701 284.497098 
L 208.932323 288.081857 
L 209.892415 290.071292 
L 211.33708 292.43993 
L 212.527188 293.504125 
L 214.155459 294.653496 
L 215.59059 295.081468 
L 217.154892 295.199502 
L 218.676097 295.056127 
L 220.09376 294.669596 
L 221.460101 294.080188 
L 222.722409 293.271564 
L 223.846737 292.284029 
L 224.855258 291.198479 
L 225.915099 289.725819 
L 227.01245 287.780695 
L 228.747509 283.905192 
L 233.272084 272.691471 
L 235.440516 267.231688 
L 236.39015 265.695034 
L 237.331146 264.57943 
L 238.385942 263.680237 
L 239.574222 262.982172 
L 240.755289 262.538211 
L 242.054137 262.304356 
L 243.35819 262.312027 
L 244.631405 262.557895 
L 245.642008 262.92182 
L 247.067813 263.753975 
L 247.97035 264.58149 
L 248.673034 265.474192 
L 249.31869 266.645656 
L 249.859284 268.148448 
L 250.544244 270.76605 
L 251.359466 274.132453 
L 251.840729 275.142263 
L 252.48377 275.83618 
L 253.212498 276.223548 
L 253.970165 276.23735 
L 255.12403 275.985879 
L 256.290035 275.518963 
L 257.407307 274.841744 
L 258.342805 273.968208 
L 259.096711 272.940582 
L 259.921116 271.414102 
L 260.516155 269.767846 
L 260.799613 268.297349 
L 260.836152 266.791785 
L 260.589127 264.682932 
L 259.926903 260.685862 
L 258.741037 254.888668 
L 254.43456 236.4239 
L 253.999776 233.277798 
L 253.704004 229.444169 
L 253.667973 225.85107 
L 253.87881 222.264716 
L 254.269645 219.327855 
L 255.005306 215.786253 
L 256.093607 211.79133 
L 259.327149 201.525346 
L 260.663949 198.548741 
L 266.482193 186.916019 
L 268.6297 182.946607 
L 273.257213 175.246787 
L 274.898503 172.660013 
L 275.299727 171.74961 
L 275.402437 170.903581 
L 275.299686 170.142262 
L 274.992939 169.357482 
L 274.23454 168.172415 
L 263.293123 152.474669 
L 262.725215 152.171221 
L 262.042386 152.039963 
L 261.312145 152.120229 
L 260.386167 152.512488 
L 259.291684 153.245719 
L 257.796079 154.499281 
L 256.603449 155.803398 
L 255.489818 157.351481 
L 254.58405 159.021186 
L 253.668083 161.210946 
L 252.56189 164.528202 
L 249.679143 174.357876 
L 248.111278 178.654525 
L 246.199939 183.087278 
L 244.375902 186.751798 
L 241.705347 191.496485 
L 238.689161 196.174104 
L 238.086736 196.719573 
L 237.419281 197.025735 
L 236.738639 197.09241 
L 236.122667 196.969049 
L 235.315115 196.528722 
L 232.717676 194.97367 
L 231.291724 194.537799 
L 230.010822 194.370964 
L 228.459763 194.399719 
L 226.213864 194.727823 
L 220.443101 195.651376 
L 218.604706 195.623891 
L 217.006944 195.418027 
L 215.384926 194.99853 
L 213.719086 194.280751 
L 212.188834 193.346633 
L 210.892818 192.32841 
L 209.666588 191.080991 
L 208.782052 189.864231 
L 208.07539 188.54618 
L 207.525362 187.10602 
L 207.083676 185.239364 
L 206.898512 183.313619 
L 206.93692 180.744775 
L 207.27409 176.268177 
L 208.112535 167.507473 
L 210.404547 146.97438 
L 211.006743 143.520273 
L 211.863989 140.227962 
L 213.172607 134.949375 
L 213.775557 133.021283 
L 214.53672 131.387844 
L 215.560173 129.766325 
L 216.736077 128.333372 
L 217.868597 127.258172 
L 219.364339 126.163286 
L 221.507951 124.917599 
L 224.806366 123.272158 
L 228.694661 121.299523 
L 232.132496 119.2198 
L 235.589283 116.935714 
L 236.845807 116.011568 
L 237.117094 115.490984 
L 237.220847 115.029605 
L 237.169909 114.584711 
L 236.832044 113.663275 
L 236.189096 112.541739 
L 233.965477 109.555545 
L 225.474831 98.296336 
L 219.471877 90.464274 
L 217.851958 88.749711 
L 215.377528 86.589623 
L 212.819935 84.654402 
L 210.810275 83.390221 
L 208.262494 82.068566 
L 204.4601 80.410811 
L 198.591839 78.263276 
L 197.763126 78.2099 
L 197.025022 78.388942 
L 196.493169 78.822085 
L 196.015023 79.488121 
L 195.61466 80.445244 
L 195.275233 81.976227 
L 194.751001 85.65179 
L 193.023733 97.553998 
L 192.059941 102.820399 
L 191.67609 106.657516 
L 191.297248 112.731161 
L 191.117133 120.198006 
L 190.618844 157.389604 
L 190.676214 166.100424 
L 190.881155 185.287241 
L 191.250354 189.420326 
L 192.071052 195.020455 
L 193.051106 199.899964 
L 193.671064 201.853597 
L 194.492174 203.668584 
L 195.657462 205.706534 
L 196.639579 207.02818 
L 197.645094 208.047289 
L 198.778715 208.925259 
L 200.177694 209.696981 
L 201.596499 210.160242 
L 203.116531 210.385293 
L 205.90494 210.463599 
L 211.741326 210.537748 
L 214.427282 210.783599 
L 216.77385 211.23534 
L 218.660413 211.829242 
L 220.411 212.612127 
L 221.9429 213.4943 
L 223.343203 214.529457 
L 224.314052 215.536062 
L 224.733869 216.242342 
L 224.947166 217.014303 
L 224.921878 217.673399 
L 224.655057 218.387284 
L 224.223518 218.998517 
L 219.991628 223.900223 
L 218.378422 226.382714 
L 216.193649 229.873487 
L 215.582467 230.284588 
L 214.798194 230.537707 
L 213.966156 230.558418 
L 213.212028 230.360414 
L 209.31964 228.91244 
L 207.520333 228.56507 
L 205.371933 228.329523 
L 201.482564 228.124033 
L 195.009424 227.84004 
L 192.783896 227.47085 
L 191.290256 227.016595 
L 189.8808 226.3801 
L 188.505654 225.558286 
L 187.002319 224.40048 
L 185.630149 223.027574 
L 184.388401 221.451025 
L 183.442336 219.941721 
L 182.275952 217.579411 
L 181.476162 215.33823 
L 180.900981 212.972473 
L 180.350325 209.682653 
L 178.720462 198.755516 
L 177.864424 195.325397 
L 176.549633 191.326349 
L 173.655175 182.736899 
L 173.050466 180.107334 
L 172.142148 174.947234 
L 171.042004 165.808794 
L 170.235071 156.288191 
L 169.710355 150.785946 
L 168.732801 141.358981 
L 168.496153 138.691724 
L 168.342576 134.374635 
L 168.148029 128.320453 
L 167.902072 123.160962 
L 168.055997 112.951643 
L 168.297942 108.485727 
L 168.82004 103.164379 
L 169.71768 96.975128 
L 170.761069 91.591779 
L 172.673811 83.556967 
L 173.397678 81.469349 
L 174.54301 78.982098 
L 176.088513 76.334517 
L 178.912291 72.227737 
L 179.55676 71.645879 
L 180.129988 71.454675 
L 180.982351 71.493703 
L 182.066813 71.786852 
L 188.318016 74.045406 
L 192.56873 75.571515 
L 193.41547 75.62543 
L 194.230305 75.457358 
L 194.814458 75.152723 
L 195.350369 74.679917 
L 195.879753 73.928067 
L 196.463627 72.651505 
L 196.95263 70.916427 
L 197.982794 66.558395 
L 198.797823 63.047392 
L 199.302932 61.765644 
L 199.981597 60.628599 
L 200.843258 59.604667 
L 201.92954 58.71734 
L 203.155288 58.063591 
L 204.800764 57.549034 
L 206.535979 57.32148 
L 209.491113 57.204616 
L 212.431489 57.288135 
L 215.429324 57.593766 
L 218.32105 58.102112 
L 230.467584 60.723549 
L 248.910255 65.398131 
L 252.425956 66.572266 
L 257.56122 68.387586 
L 271.692839 72.622717 
L 279.375545 74.905926 
L 280.45005 75.537872 
L 281.478597 76.465855 
L 282.086199 77.36857 
L 282.642514 78.682674 
L 284.25859 83.469364 
L 286.925425 90.927521 
L 287.377547 92.138761 
L 287.377547 92.138761 
" style="fill:none;stroke:#ff0000;stroke-linecap:square;stroke-width:1.5;"/>
   </g>
   <g id="patch_3">
    <path d="M 57.6 307.584 
L 57.6 41.472 
" style="fill:none;stroke:#000000;stroke-linecap:square;stroke-linejoin:miter;stroke-width:0.8;"/>
   </g>
   <g id="patch_4">
    <path d="M 414.72 307.584 
L 414.72 41.472 
" style="fill:none;stroke:#000000;stroke-linecap:square;stroke-linejoin:miter;stroke-width:0.8;"/>
   </g>
   <g id="patch_5">
    <path d="M 57.6 307.584 
L 414.72 307.584 
" style="fill:none;stroke:#000000;stroke-linecap:square;stroke-linejoin:miter;stroke-width:0.8;"/>
   </g>
   <g id="patch_6">
    <path d="M 57.6 41.472 
L 414.72 41.472 
" style="fill:none;stroke:#000000;stroke-linecap:square;stroke-linejoin:miter;stroke-width:0.8;"/>
   </g>
  </g>
 </g>
 <defs>
  <clipPath id="p59c31482b4">
   <rect height="266.112" width="357.12" x="57.6" y="41.472"/>
  </clipPath>
 </defs>
</svg>
