<?xml version="1.0" encoding="utf-8" standalone="no"?>
<!DOCTYPE svg PUBLIC "-//W3C//DTD SVG 1.1//EN"
  "http://www.w3.org/Graphics/SVG/1.1/DTD/svg11.dtd">
<!-- Created with matplotlib (https://matplotlib.org/) -->
<svg height="345.6pt" version="1.1" viewBox="0 0 460.8 345.6" width="460.8pt" xmlns="http://www.w3.org/2000/svg" xmlns:xlink="http://www.w3.org/1999/xlink">
 <defs>
  <style type="text/css">
*{stroke-linecap:butt;stroke-linejoin:round;}
  </style>
 </defs>
 <g id="figure_1">
  <g id="patch_1">
   <path d="M 0 345.6 
L 460.8 345.6 
L 460.8 0 
L 0 0 
z
" style="fill:#ffffff;"/>
  </g>
  <g id="axes_1">
   <g id="patch_2">
    <path d="M 57.6 307.584 
L 414.72 307.584 
L 414.72 41.472 
L 57.6 41.472 
z
" style="fill:#ffffff;"/>
   </g>
   <g id="matplotlib.axis_1">
    <g id="xtick_1">
     <g id="line2d_1">
      <defs>
       <path d="M 0 0 
L 0 3.5 
" id="mfb063045aa" style="stroke:#000000;stroke-width:0.8;"/>
      </defs>
      <g>
       <use style="stroke:#000000;stroke-width:0.8;" x="63.273464" xlink:href="#mfb063045aa" y="307.584"/>
      </g>
     </g>
     <g id="text_1">
      <!-- −100 -->
      <defs>
       <path d="M 10.59375 35.5 
L 73.1875 35.5 
L 73.1875 27.203125 
L 10.59375 27.203125 
z
" id="DejaVuSans-8722"/>
       <path d="M 12.40625 8.296875 
L 28.515625 8.296875 
L 28.515625 63.921875 
L 10.984375 60.40625 
L 10.984375 69.390625 
L 28.421875 72.90625 
L 38.28125 72.90625 
L 38.28125 8.296875 
L 54.390625 8.296875 
L 54.390625 0 
L 12.40625 0 
z
" id="DejaVuSans-49"/>
       <path d="M 31.78125 66.40625 
Q 24.171875 66.40625 20.328125 58.90625 
Q 16.5 51.421875 16.5 36.375 
Q 16.5 21.390625 20.328125 13.890625 
Q 24.171875 6.390625 31.78125 6.390625 
Q 39.453125 6.390625 43.28125 13.890625 
Q 47.125 21.390625 47.125 36.375 
Q 47.125 51.421875 43.28125 58.90625 
Q 39.453125 66.40625 31.78125 66.40625 
z
M 31.78125 74.21875 
Q 44.046875 74.21875 50.515625 64.515625 
Q 56.984375 54.828125 56.984375 36.375 
Q 56.984375 17.96875 50.515625 8.265625 
Q 44.046875 -1.421875 31.78125 -1.421875 
Q 19.53125 -1.421875 13.0625 8.265625 
Q 6.59375 17.96875 6.59375 36.375 
Q 6.59375 54.828125 13.0625 64.515625 
Q 19.53125 74.21875 31.78125 74.21875 
z
" id="DejaVuSans-48"/>
      </defs>
      <g transform="translate(49.539871 322.182437)scale(0.1 -0.1)">
       <use xlink:href="#DejaVuSans-8722"/>
       <use x="83.789062" xlink:href="#DejaVuSans-49"/>
       <use x="147.412109" xlink:href="#DejaVuSans-48"/>
       <use x="211.035156" xlink:href="#DejaVuSans-48"/>
      </g>
     </g>
    </g>
    <g id="xtick_2">
     <g id="line2d_2">
      <g>
       <use style="stroke:#000000;stroke-width:0.8;" x="130.316226" xlink:href="#mfb063045aa" y="307.584"/>
      </g>
     </g>
     <g id="text_2">
      <!-- −80 -->
      <defs>
       <path d="M 31.78125 34.625 
Q 24.75 34.625 20.71875 30.859375 
Q 16.703125 27.09375 16.703125 20.515625 
Q 16.703125 13.921875 20.71875 10.15625 
Q 24.75 6.390625 31.78125 6.390625 
Q 38.8125 6.390625 42.859375 10.171875 
Q 46.921875 13.96875 46.921875 20.515625 
Q 46.921875 27.09375 42.890625 30.859375 
Q 38.875 34.625 31.78125 34.625 
z
M 21.921875 38.8125 
Q 15.578125 40.375 12.03125 44.71875 
Q 8.5 49.078125 8.5 55.328125 
Q 8.5 64.0625 14.71875 69.140625 
Q 20.953125 74.21875 31.78125 74.21875 
Q 42.671875 74.21875 48.875 69.140625 
Q 55.078125 64.0625 55.078125 55.328125 
Q 55.078125 49.078125 51.53125 44.71875 
Q 48 40.375 41.703125 38.8125 
Q 48.828125 37.15625 52.796875 32.3125 
Q 56.78125 27.484375 56.78125 20.515625 
Q 56.78125 9.90625 50.3125 4.234375 
Q 43.84375 -1.421875 31.78125 -1.421875 
Q 19.734375 -1.421875 13.25 4.234375 
Q 6.78125 9.90625 6.78125 20.515625 
Q 6.78125 27.484375 10.78125 32.3125 
Q 14.796875 37.15625 21.921875 38.8125 
z
M 18.3125 54.390625 
Q 18.3125 48.734375 21.84375 45.5625 
Q 25.390625 42.390625 31.78125 42.390625 
Q 38.140625 42.390625 41.71875 45.5625 
Q 45.3125 48.734375 45.3125 54.390625 
Q 45.3125 60.0625 41.71875 63.234375 
Q 38.140625 66.40625 31.78125 66.40625 
Q 25.390625 66.40625 21.84375 63.234375 
Q 18.3125 60.0625 18.3125 54.390625 
z
" id="DejaVuSans-56"/>
      </defs>
      <g transform="translate(119.763882 322.182437)scale(0.1 -0.1)">
       <use xlink:href="#DejaVuSans-8722"/>
       <use x="83.789062" xlink:href="#DejaVuSans-56"/>
       <use x="147.412109" xlink:href="#DejaVuSans-48"/>
      </g>
     </g>
    </g>
    <g id="xtick_3">
     <g id="line2d_3">
      <g>
       <use style="stroke:#000000;stroke-width:0.8;" x="197.358988" xlink:href="#mfb063045aa" y="307.584"/>
      </g>
     </g>
     <g id="text_3">
      <!-- −60 -->
      <defs>
       <path d="M 33.015625 40.375 
Q 26.375 40.375 22.484375 35.828125 
Q 18.609375 31.296875 18.609375 23.390625 
Q 18.609375 15.53125 22.484375 10.953125 
Q 26.375 6.390625 33.015625 6.390625 
Q 39.65625 6.390625 43.53125 10.953125 
Q 47.40625 15.53125 47.40625 23.390625 
Q 47.40625 31.296875 43.53125 35.828125 
Q 39.65625 40.375 33.015625 40.375 
z
M 52.59375 71.296875 
L 52.59375 62.3125 
Q 48.875 64.0625 45.09375 64.984375 
Q 41.3125 65.921875 37.59375 65.921875 
Q 27.828125 65.921875 22.671875 59.328125 
Q 17.53125 52.734375 16.796875 39.40625 
Q 19.671875 43.65625 24.015625 45.921875 
Q 28.375 48.1875 33.59375 48.1875 
Q 44.578125 48.1875 50.953125 41.515625 
Q 57.328125 34.859375 57.328125 23.390625 
Q 57.328125 12.15625 50.6875 5.359375 
Q 44.046875 -1.421875 33.015625 -1.421875 
Q 20.359375 -1.421875 13.671875 8.265625 
Q 6.984375 17.96875 6.984375 36.375 
Q 6.984375 53.65625 15.1875 63.9375 
Q 23.390625 74.21875 37.203125 74.21875 
Q 40.921875 74.21875 44.703125 73.484375 
Q 48.484375 72.75 52.59375 71.296875 
z
" id="DejaVuSans-54"/>
      </defs>
      <g transform="translate(186.806644 322.182437)scale(0.1 -0.1)">
       <use xlink:href="#DejaVuSans-8722"/>
       <use x="83.789062" xlink:href="#DejaVuSans-54"/>
       <use x="147.412109" xlink:href="#DejaVuSans-48"/>
      </g>
     </g>
    </g>
    <g id="xtick_4">
     <g id="line2d_4">
      <g>
       <use style="stroke:#000000;stroke-width:0.8;" x="264.401749" xlink:href="#mfb063045aa" y="307.584"/>
      </g>
     </g>
     <g id="text_4">
      <!-- −40 -->
      <defs>
       <path d="M 37.796875 64.3125 
L 12.890625 25.390625 
L 37.796875 25.390625 
z
M 35.203125 72.90625 
L 47.609375 72.90625 
L 47.609375 25.390625 
L 58.015625 25.390625 
L 58.015625 17.1875 
L 47.609375 17.1875 
L 47.609375 0 
L 37.796875 0 
L 37.796875 17.1875 
L 4.890625 17.1875 
L 4.890625 26.703125 
z
" id="DejaVuSans-52"/>
      </defs>
      <g transform="translate(253.849406 322.182437)scale(0.1 -0.1)">
       <use xlink:href="#DejaVuSans-8722"/>
       <use x="83.789062" xlink:href="#DejaVuSans-52"/>
       <use x="147.412109" xlink:href="#DejaVuSans-48"/>
      </g>
     </g>
    </g>
    <g id="xtick_5">
     <g id="line2d_5">
      <g>
       <use style="stroke:#000000;stroke-width:0.8;" x="331.444511" xlink:href="#mfb063045aa" y="307.584"/>
      </g>
     </g>
     <g id="text_5">
      <!-- −20 -->
      <defs>
       <path d="M 19.1875 8.296875 
L 53.609375 8.296875 
L 53.609375 0 
L 7.328125 0 
L 7.328125 8.296875 
Q 12.9375 14.109375 22.625 23.890625 
Q 32.328125 33.6875 34.8125 36.53125 
Q 39.546875 41.84375 41.421875 45.53125 
Q 43.3125 49.21875 43.3125 52.78125 
Q 43.3125 58.59375 39.234375 62.25 
Q 35.15625 65.921875 28.609375 65.921875 
Q 23.96875 65.921875 18.8125 64.3125 
Q 13.671875 62.703125 7.8125 59.421875 
L 7.8125 69.390625 
Q 13.765625 71.78125 18.9375 73 
Q 24.125 74.21875 28.421875 74.21875 
Q 39.75 74.21875 46.484375 68.546875 
Q 53.21875 62.890625 53.21875 53.421875 
Q 53.21875 48.921875 51.53125 44.890625 
Q 49.859375 40.875 45.40625 35.40625 
Q 44.1875 33.984375 37.640625 27.21875 
Q 31.109375 20.453125 19.1875 8.296875 
z
" id="DejaVuSans-50"/>
      </defs>
      <g transform="translate(320.892167 322.182437)scale(0.1 -0.1)">
       <use xlink:href="#DejaVuSans-8722"/>
       <use x="83.789062" xlink:href="#DejaVuSans-50"/>
       <use x="147.412109" xlink:href="#DejaVuSans-48"/>
      </g>
     </g>
    </g>
    <g id="xtick_6">
     <g id="line2d_6">
      <g>
       <use style="stroke:#000000;stroke-width:0.8;" x="398.487273" xlink:href="#mfb063045aa" y="307.584"/>
      </g>
     </g>
     <g id="text_6">
      <!-- 0 -->
      <g transform="translate(395.306023 322.182437)scale(0.1 -0.1)">
       <use xlink:href="#DejaVuSans-48"/>
      </g>
     </g>
    </g>
   </g>
   <g id="matplotlib.axis_2">
    <g id="ytick_1">
     <g id="line2d_7">
      <defs>
       <path d="M 0 0 
L -3.5 0 
" id="m354ee14e5e" style="stroke:#000000;stroke-width:0.8;"/>
      </defs>
      <g>
       <use style="stroke:#000000;stroke-width:0.8;" x="57.6" xlink:href="#m354ee14e5e" y="287.17274"/>
      </g>
     </g>
     <g id="text_7">
      <!-- −20 -->
      <g transform="translate(29.495313 290.971958)scale(0.1 -0.1)">
       <use xlink:href="#DejaVuSans-8722"/>
       <use x="83.789062" xlink:href="#DejaVuSans-50"/>
       <use x="147.412109" xlink:href="#DejaVuSans-48"/>
      </g>
     </g>
    </g>
    <g id="ytick_2">
     <g id="line2d_8">
      <g>
       <use style="stroke:#000000;stroke-width:0.8;" x="57.6" xlink:href="#m354ee14e5e" y="253.651359"/>
      </g>
     </g>
     <g id="text_8">
      <!-- −10 -->
      <g transform="translate(29.495313 257.450578)scale(0.1 -0.1)">
       <use xlink:href="#DejaVuSans-8722"/>
       <use x="83.789062" xlink:href="#DejaVuSans-49"/>
       <use x="147.412109" xlink:href="#DejaVuSans-48"/>
      </g>
     </g>
    </g>
    <g id="ytick_3">
     <g id="line2d_9">
      <g>
       <use style="stroke:#000000;stroke-width:0.8;" x="57.6" xlink:href="#m354ee14e5e" y="220.129978"/>
      </g>
     </g>
     <g id="text_9">
      <!-- 0 -->
      <g transform="translate(44.2375 223.929197)scale(0.1 -0.1)">
       <use xlink:href="#DejaVuSans-48"/>
      </g>
     </g>
    </g>
    <g id="ytick_4">
     <g id="line2d_10">
      <g>
       <use style="stroke:#000000;stroke-width:0.8;" x="57.6" xlink:href="#m354ee14e5e" y="186.608597"/>
      </g>
     </g>
     <g id="text_10">
      <!-- 10 -->
      <g transform="translate(37.875 190.407816)scale(0.1 -0.1)">
       <use xlink:href="#DejaVuSans-49"/>
       <use x="63.623047" xlink:href="#DejaVuSans-48"/>
      </g>
     </g>
    </g>
    <g id="ytick_5">
     <g id="line2d_11">
      <g>
       <use style="stroke:#000000;stroke-width:0.8;" x="57.6" xlink:href="#m354ee14e5e" y="153.087216"/>
      </g>
     </g>
     <g id="text_11">
      <!-- 20 -->
      <g transform="translate(37.875 156.886435)scale(0.1 -0.1)">
       <use xlink:href="#DejaVuSans-50"/>
       <use x="63.623047" xlink:href="#DejaVuSans-48"/>
      </g>
     </g>
    </g>
    <g id="ytick_6">
     <g id="line2d_12">
      <g>
       <use style="stroke:#000000;stroke-width:0.8;" x="57.6" xlink:href="#m354ee14e5e" y="119.565836"/>
      </g>
     </g>
     <g id="text_12">
      <!-- 30 -->
      <defs>
       <path d="M 40.578125 39.3125 
Q 47.65625 37.796875 51.625 33 
Q 55.609375 28.21875 55.609375 21.1875 
Q 55.609375 10.40625 48.1875 4.484375 
Q 40.765625 -1.421875 27.09375 -1.421875 
Q 22.515625 -1.421875 17.65625 -0.515625 
Q 12.796875 0.390625 7.625 2.203125 
L 7.625 11.71875 
Q 11.71875 9.328125 16.59375 8.109375 
Q 21.484375 6.890625 26.8125 6.890625 
Q 36.078125 6.890625 40.9375 10.546875 
Q 45.796875 14.203125 45.796875 21.1875 
Q 45.796875 27.640625 41.28125 31.265625 
Q 36.765625 34.90625 28.71875 34.90625 
L 20.21875 34.90625 
L 20.21875 43.015625 
L 29.109375 43.015625 
Q 36.375 43.015625 40.234375 45.921875 
Q 44.09375 48.828125 44.09375 54.296875 
Q 44.09375 59.90625 40.109375 62.90625 
Q 36.140625 65.921875 28.71875 65.921875 
Q 24.65625 65.921875 20.015625 65.03125 
Q 15.375 64.15625 9.8125 62.3125 
L 9.8125 71.09375 
Q 15.4375 72.65625 20.34375 73.4375 
Q 25.25 74.21875 29.59375 74.21875 
Q 40.828125 74.21875 47.359375 69.109375 
Q 53.90625 64.015625 53.90625 55.328125 
Q 53.90625 49.265625 50.4375 45.09375 
Q 46.96875 40.921875 40.578125 39.3125 
z
" id="DejaVuSans-51"/>
      </defs>
      <g transform="translate(37.875 123.365054)scale(0.1 -0.1)">
       <use xlink:href="#DejaVuSans-51"/>
       <use x="63.623047" xlink:href="#DejaVuSans-48"/>
      </g>
     </g>
    </g>
    <g id="ytick_7">
     <g id="line2d_13">
      <g>
       <use style="stroke:#000000;stroke-width:0.8;" x="57.6" xlink:href="#m354ee14e5e" y="86.044455"/>
      </g>
     </g>
     <g id="text_13">
      <!-- 40 -->
      <g transform="translate(37.875 89.843673)scale(0.1 -0.1)">
       <use xlink:href="#DejaVuSans-52"/>
       <use x="63.623047" xlink:href="#DejaVuSans-48"/>
      </g>
     </g>
    </g>
    <g id="ytick_8">
     <g id="line2d_14">
      <g>
       <use style="stroke:#000000;stroke-width:0.8;" x="57.6" xlink:href="#m354ee14e5e" y="52.523074"/>
      </g>
     </g>
     <g id="text_14">
      <!-- 50 -->
      <defs>
       <path d="M 10.796875 72.90625 
L 49.515625 72.90625 
L 49.515625 64.59375 
L 19.828125 64.59375 
L 19.828125 46.734375 
Q 21.96875 47.46875 24.109375 47.828125 
Q 26.265625 48.1875 28.421875 48.1875 
Q 40.625 48.1875 47.75 41.5 
Q 54.890625 34.8125 54.890625 23.390625 
Q 54.890625 11.625 47.5625 5.09375 
Q 40.234375 -1.421875 26.90625 -1.421875 
Q 22.3125 -1.421875 17.546875 -0.640625 
Q 12.796875 0.140625 7.71875 1.703125 
L 7.71875 11.625 
Q 12.109375 9.234375 16.796875 8.0625 
Q 21.484375 6.890625 26.703125 6.890625 
Q 35.15625 6.890625 40.078125 11.328125 
Q 45.015625 15.765625 45.015625 23.390625 
Q 45.015625 31 40.078125 35.4375 
Q 35.15625 39.890625 26.703125 39.890625 
Q 22.75 39.890625 18.8125 39.015625 
Q 14.890625 38.140625 10.796875 36.28125 
z
" id="DejaVuSans-53"/>
      </defs>
      <g transform="translate(37.875 56.322293)scale(0.1 -0.1)">
       <use xlink:href="#DejaVuSans-53"/>
       <use x="63.623047" xlink:href="#DejaVuSans-48"/>
      </g>
     </g>
    </g>
   </g>
   <g id="line2d_15">
    <path clip-path="url(#pc39175a715)" d="M 398.487273 220.129978 
L 398.319201 216.782856 
L 398.126892 213.437288 
L 397.869713 210.096123 
L 397.513482 206.76297 
L 397.101264 203.436317 
L 396.649056 200.114881 
L 396.107486 196.806854 
L 395.537022 193.503742 
L 394.880862 190.216612 
L 394.109692 186.955337 
L 393.169482 183.740066 
L 392.088243 180.570695 
L 390.927113 177.429157 
L 389.700217 174.310234 
L 388.342333 171.245713 
L 386.846549 168.246226 
L 385.27253 165.286833 
L 383.557993 162.406605 
L 381.686922 159.625584 
L 379.758147 156.884605 
L 377.784851 154.175367 
L 375.709672 151.5428 
L 373.415814 149.098642 
L 370.905747 146.877449 
L 368.303986 144.763979 
L 365.637259 142.733046 
L 362.931436 140.754327 
L 360.107545 138.9481 
L 357.173256 137.327367 
L 354.148312 135.882962 
L 351.046083 134.613204 
L 347.874365 133.52892 
L 344.649229 132.616894 
L 341.379136 131.881537 
L 338.081475 131.280572 
L 334.766809 130.781204 
L 331.43192 130.443168 
L 328.083872 130.28723 
L 324.73302 130.238268 
L 321.382173 130.265493 
L 318.032199 130.361591 
L 314.683775 130.511924 
L 311.340713 130.753 
L 308.001084 131.034907 
L 304.662947 131.331521 
L 301.326919 131.65515 
L 297.993064 132.003718 
L 294.662122 132.37957 
L 291.329238 132.73452 
L 287.994773 133.071098 
L 284.660377 133.40999 
L 281.326412 133.756719 
L 277.992896 134.106992 
L 274.659806 134.458861 
L 271.324835 134.789089 
L 267.988927 135.108188 
L 264.652905 135.429134 
L 261.315891 135.741093 
L 257.978638 136.045097 
L 254.641535 136.347856 
L 251.303649 136.644319 
L 247.962737 136.904829 
L 244.621573 137.165374 
L 241.281063 137.433781 
L 237.940531 137.70497 
L 234.598704 137.962445 
L 231.25604 138.206704 
L 227.913885 138.460464 
L 224.573418 138.736963 
L 221.233649 139.019521 
L 217.895401 139.316536 
L 214.55761 139.619369 
L 211.219296 139.915344 
L 207.880547 140.204189 
L 204.542221 140.497936 
L 201.203325 140.789273 
L 197.865108 141.087837 
L 194.526262 141.378558 
L 191.186679 141.66255 
L 187.84644 141.941067 
L 184.505292 142.210431 
L 181.164484 142.481048 
L 177.823962 142.751484 
L 174.483689 143.024215 
L 171.143098 143.291458 
L 167.803122 143.562872 
L 164.463229 143.840232 
L 161.124786 144.135321 
L 157.786312 144.429749 
L 154.445376 144.699543 
L 151.103251 144.954268 
L 147.761693 145.215492 
L 144.421343 145.493263 
L 141.08118 145.773461 
L 137.741156 146.054409 
L 134.401907 146.34387 
L 131.066436 146.674761 
L 127.731964 147.015028 
L 124.39884 147.36694 
L 121.064469 147.709393 
L 117.728248 148.03305 
L 114.393328 148.369605 
L 111.058098 148.704327 
L 107.721409 149.022529 
L 104.384674 149.340881 
L 101.049961 149.678034 
L 97.714864 150.010286 
L 94.379102 150.33458 
L 91.043357 150.660724 
L 87.708526 150.997657 
L 84.373753 151.335652 
L 81.038221 151.666988 
L 77.70222 151.994361 
L 74.364016 152.298982 
" style="fill:none;stroke:#008000;stroke-linecap:square;stroke-width:1.5;"/>
   </g>
   <g id="line2d_16">
    <path clip-path="url(#pc39175a715)" d="M 398.487273 220.129978 
L 398.1789 216.792516 
L 397.900099 213.452406 
L 397.662291 210.109043 
L 397.168726 206.793731 
L 396.697983 203.474939 
L 396.14866 200.168509 
L 395.570358 196.866645 
L 394.940216 193.574284 
L 394.282336 190.287809 
L 393.487994 187.032046 
L 392.440384 183.848283 
L 391.263303 180.711224 
L 390.001284 177.609248 
L 388.700072 174.520146 
L 387.326893 171.464434 
L 385.851516 168.454505 
L 384.279895 165.494071 
L 382.563947 162.614678 
L 380.711341 159.820993 
L 378.852385 157.031661 
L 376.913094 154.297479 
L 374.881653 151.631945 
L 372.697747 149.08982 
L 370.258118 146.791878 
L 367.730883 144.591872 
L 365.065521 142.55899 
L 362.46131 140.448345 
L 359.695538 138.554569 
L 356.846746 136.788087 
L 353.850159 135.285658 
L 350.813072 133.868616 
L 347.664695 132.719308 
L 344.462794 131.727395 
L 341.212802 130.906328 
L 337.929861 130.229514 
L 334.624783 129.670902 
L 331.299736 129.246344 
L 327.953012 129.060197 
L 324.602526 128.963795 
L 321.251722 128.926022 
L 317.900482 128.968022 
L 314.549237 129.043026 
L 311.202581 129.23232 
L 307.85938 129.473857 
L 304.515762 129.704475 
L 301.173548 129.956715 
L 297.833945 130.246108 
L 294.494809 130.540913 
L 291.158079 130.858918 
L 287.815949 131.11518 
L 284.475743 131.392488 
L 281.133731 131.652195 
L 277.795444 131.955241 
L 274.454826 132.230759 
L 271.111853 132.470489 
L 267.770772 132.735932 
L 264.42821 132.982114 
L 261.085044 133.224114 
L 257.743642 133.483208 
L 254.404688 133.770404 
L 251.062651 134.02212 
L 247.716817 134.218529 
L 244.370419 134.407342 
L 241.024778 134.609239 
L 237.678028 134.791939 
L 234.331737 134.986168 
L 230.987201 135.208532 
L 227.639569 135.377546 
L 224.29275 135.56492 
L 220.947928 135.781128 
L 217.602364 135.981292 
L 214.257926 136.200366 
L 210.914326 136.435734 
L 207.568874 136.638133 
L 204.225321 136.8721 
L 200.879528 137.070264 
L 197.536188 137.30686 
L 194.190683 137.5121 
L 190.846203 137.732063 
L 187.503536 137.979485 
L 184.15759 138.182346 
L 180.810193 138.35538 
L 177.46478 138.563623 
L 174.120288 138.783538 
L 170.77493 138.988399 
L 167.430193 139.192876 
L 164.085469 139.408734 
L 160.743689 139.667057 
L 157.397986 139.869486 
L 154.049902 140.033359 
L 150.702046 140.199058 
L 147.356319 140.404903 
L 144.011212 140.61984 
L 140.663761 140.794831 
L 137.320169 141.0332 
L 133.976038 141.262748 
L 130.634779 141.530314 
L 127.292456 141.784787 
L 123.951928 142.062623 
L 120.612284 142.350786 
L 117.269333 142.597337 
L 113.928195 142.867969 
L 110.585388 143.117493 
L 107.244807 143.393169 
L 103.904576 143.672447 
L 100.564008 143.9495 
L 97.222512 144.214623 
L 93.880963 144.475068 
L 90.536587 144.699468 
L 87.196728 144.983053 
L 83.859117 145.292094 
L 80.515919 145.53616 
L 77.177309 145.836804 
L 73.832727 146.060455 
" style="fill:none;stroke:#0000ff;stroke-linecap:square;stroke-width:1.5;"/>
   </g>
   <g id="line2d_17">
    <path clip-path="url(#pc39175a715)" d="M 398.487273 220.129978 
L 398.17883 216.79252 
L 397.899684 213.452437 
L 397.66122 210.10912 
L 397.16678 206.793939 
L 396.695034 203.47529 
L 396.144798 200.169014 
L 395.565562 196.867313 
L 394.934504 193.575129 
L 394.275532 190.288879 
L 393.479661 187.0335 
L 392.430323 183.85032 
L 391.251329 180.714013 
L 389.98824 177.612565 
L 388.686447 174.523732 
L 387.312587 171.468389 
L 385.836772 168.458693 
L 384.265101 165.498343 
L 382.548865 162.619154 
L 380.695414 159.826029 
L 378.835724 157.037174 
L 376.895758 154.303476 
L 374.863738 151.638407 
L 372.679211 149.096852 
L 370.238831 146.799764 
L 367.710911 144.600632 
L 365.044905 142.5686 
L 362.439847 140.458995 
L 359.673712 138.565665 
L 356.838382 136.779671 
L 353.85246 135.257168 
L 350.813661 133.844002 
L 347.663622 132.699096 
L 344.460312 131.711656 
L 341.20914 130.895224 
L 337.92521 130.223088 
L 334.619306 129.669203 
L 331.29365 129.24925 
L 327.946641 129.067527 
L 324.595998 128.975336 
L 321.245073 128.941901 
L 317.893831 128.98807 
L 314.542671 129.067422 
L 311.196252 129.261248 
L 307.853349 129.50731 
L 304.509995 129.742438 
L 301.168089 129.999304 
L 297.828908 130.293638 
L 294.490253 130.593735 
L 291.154007 130.917123 
L 287.812265 131.17877 
L 284.47246 131.46141 
L 281.13085 131.726446 
L 277.793025 132.034808 
L 274.45282 132.315642 
L 271.110166 132.560618 
L 267.769428 132.831127 
L 264.427174 133.082308 
L 261.084336 133.329349 
L 257.743253 133.593461 
L 254.404652 133.885664 
L 251.062926 134.1424 
L 247.717326 134.343839 
L 244.371158 134.537688 
L 241.025773 134.744669 
L 237.679255 134.932529 
L 234.333233 135.131941 
L 230.98899 135.359245 
L 227.641545 135.532817 
L 224.29495 135.724594 
L 220.950359 135.945186 
L 217.604992 136.149766 
L 214.260787 136.373335 
L 210.917466 136.613243 
L 207.572225 136.820167 
L 204.228931 137.058632 
L 200.883349 137.261353 
L 197.540284 137.502606 
L 194.195019 137.712554 
L 190.850787 137.937224 
L 187.508401 138.189211 
L 184.162708 138.396539 
L 180.815499 138.574194 
L 177.470322 138.787001 
L 174.126039 139.011092 
L 170.780852 139.219924 
L 167.43625 139.428289 
L 164.091717 139.648061 
L 160.75018 139.910258 
L 157.404662 140.116583 
L 154.056762 140.284533 
L 150.709075 140.45438 
L 147.363579 140.664357 
L 144.0187 140.883372 
L 140.671426 141.062344 
L 137.328059 141.304141 
L 133.984098 141.536576 
L 130.643032 141.806973 
L 127.300905 142.064418 
L 123.960611 142.345324 
L 120.621209 142.636567 
L 117.278458 142.886193 
L 113.937551 143.159915 
L 110.594964 143.412547 
L 107.254595 143.691225 
L 103.914569 143.973424 
L 100.574219 144.253385 
L 97.232923 144.521333 
L 93.891544 144.784495 
L 90.547325 145.01169 
L 87.207682 145.298168 
L 83.870318 145.610208 
L 80.527334 145.85737 
L 77.188997 146.161118 
L 73.844602 146.387851 
" style="fill:none;stroke:#ff0000;stroke-linecap:square;stroke-width:1.5;"/>
   </g>
   <g id="patch_3">
    <path d="M 57.6 307.584 
L 57.6 41.472 
" style="fill:none;stroke:#000000;stroke-linecap:square;stroke-linejoin:miter;stroke-width:0.8;"/>
   </g>
   <g id="patch_4">
    <path d="M 414.72 307.584 
L 414.72 41.472 
" style="fill:none;stroke:#000000;stroke-linecap:square;stroke-linejoin:miter;stroke-width:0.8;"/>
   </g>
   <g id="patch_5">
    <path d="M 57.6 307.584 
L 414.72 307.584 
" style="fill:none;stroke:#000000;stroke-linecap:square;stroke-linejoin:miter;stroke-width:0.8;"/>
   </g>
   <g id="patch_6">
    <path d="M 57.6 41.472 
L 414.72 41.472 
" style="fill:none;stroke:#000000;stroke-linecap:square;stroke-linejoin:miter;stroke-width:0.8;"/>
   </g>
  </g>
 </g>
 <defs>
  <clipPath id="pc39175a715">
   <rect height="266.112" width="357.12" x="57.6" y="41.472"/>
  </clipPath>
 </defs>
</svg>
