<?xml version="1.0" encoding="utf-8" standalone="no"?>
<!DOCTYPE svg PUBLIC "-//W3C//DTD SVG 1.1//EN"
  "http://www.w3.org/Graphics/SVG/1.1/DTD/svg11.dtd">
<!-- Created with matplotlib (https://matplotlib.org/) -->
<svg height="345.6pt" version="1.1" viewBox="0 0 460.8 345.6" width="460.8pt" xmlns="http://www.w3.org/2000/svg" xmlns:xlink="http://www.w3.org/1999/xlink">
 <defs>
  <style type="text/css">
*{stroke-linecap:butt;stroke-linejoin:round;}
  </style>
 </defs>
 <g id="figure_1">
  <g id="patch_1">
   <path d="M 0 345.6 
L 460.8 345.6 
L 460.8 0 
L 0 0 
z
" style="fill:#ffffff;"/>
  </g>
  <g id="axes_1">
   <g id="patch_2">
    <path d="M 57.6 307.584 
L 414.72 307.584 
L 414.72 41.472 
L 57.6 41.472 
z
" style="fill:#ffffff;"/>
   </g>
   <g id="matplotlib.axis_1">
    <g id="xtick_1">
     <g id="line2d_1">
      <defs>
       <path d="M 0 0 
L 0 3.5 
" id="m035fc6aebe" style="stroke:#000000;stroke-width:0.8;"/>
      </defs>
      <g>
       <use style="stroke:#000000;stroke-width:0.8;" x="73.832727" xlink:href="#m035fc6aebe" y="307.584"/>
      </g>
     </g>
     <g id="text_1">
      <!-- 0 -->
      <defs>
       <path d="M 31.78125 66.40625 
Q 24.171875 66.40625 20.328125 58.90625 
Q 16.5 51.421875 16.5 36.375 
Q 16.5 21.390625 20.328125 13.890625 
Q 24.171875 6.390625 31.78125 6.390625 
Q 39.453125 6.390625 43.28125 13.890625 
Q 47.125 21.390625 47.125 36.375 
Q 47.125 51.421875 43.28125 58.90625 
Q 39.453125 66.40625 31.78125 66.40625 
z
M 31.78125 74.21875 
Q 44.046875 74.21875 50.515625 64.515625 
Q 56.984375 54.828125 56.984375 36.375 
Q 56.984375 17.96875 50.515625 8.265625 
Q 44.046875 -1.421875 31.78125 -1.421875 
Q 19.53125 -1.421875 13.0625 8.265625 
Q 6.59375 17.96875 6.59375 36.375 
Q 6.59375 54.828125 13.0625 64.515625 
Q 19.53125 74.21875 31.78125 74.21875 
z
" id="DejaVuSans-48"/>
      </defs>
      <g transform="translate(70.651477 322.182437)scale(0.1 -0.1)">
       <use xlink:href="#DejaVuSans-48"/>
      </g>
     </g>
    </g>
    <g id="xtick_2">
     <g id="line2d_2">
      <g>
       <use style="stroke:#000000;stroke-width:0.8;" x="148.390324" xlink:href="#m035fc6aebe" y="307.584"/>
      </g>
     </g>
     <g id="text_2">
      <!-- 20 -->
      <defs>
       <path d="M 19.1875 8.296875 
L 53.609375 8.296875 
L 53.609375 0 
L 7.328125 0 
L 7.328125 8.296875 
Q 12.9375 14.109375 22.625 23.890625 
Q 32.328125 33.6875 34.8125 36.53125 
Q 39.546875 41.84375 41.421875 45.53125 
Q 43.3125 49.21875 43.3125 52.78125 
Q 43.3125 58.59375 39.234375 62.25 
Q 35.15625 65.921875 28.609375 65.921875 
Q 23.96875 65.921875 18.8125 64.3125 
Q 13.671875 62.703125 7.8125 59.421875 
L 7.8125 69.390625 
Q 13.765625 71.78125 18.9375 73 
Q 24.125 74.21875 28.421875 74.21875 
Q 39.75 74.21875 46.484375 68.546875 
Q 53.21875 62.890625 53.21875 53.421875 
Q 53.21875 48.921875 51.53125 44.890625 
Q 49.859375 40.875 45.40625 35.40625 
Q 44.1875 33.984375 37.640625 27.21875 
Q 31.109375 20.453125 19.1875 8.296875 
z
" id="DejaVuSans-50"/>
      </defs>
      <g transform="translate(142.027824 322.182437)scale(0.1 -0.1)">
       <use xlink:href="#DejaVuSans-50"/>
       <use x="63.623047" xlink:href="#DejaVuSans-48"/>
      </g>
     </g>
    </g>
    <g id="xtick_3">
     <g id="line2d_3">
      <g>
       <use style="stroke:#000000;stroke-width:0.8;" x="222.947921" xlink:href="#m035fc6aebe" y="307.584"/>
      </g>
     </g>
     <g id="text_3">
      <!-- 40 -->
      <defs>
       <path d="M 37.796875 64.3125 
L 12.890625 25.390625 
L 37.796875 25.390625 
z
M 35.203125 72.90625 
L 47.609375 72.90625 
L 47.609375 25.390625 
L 58.015625 25.390625 
L 58.015625 17.1875 
L 47.609375 17.1875 
L 47.609375 0 
L 37.796875 0 
L 37.796875 17.1875 
L 4.890625 17.1875 
L 4.890625 26.703125 
z
" id="DejaVuSans-52"/>
      </defs>
      <g transform="translate(216.585421 322.182437)scale(0.1 -0.1)">
       <use xlink:href="#DejaVuSans-52"/>
       <use x="63.623047" xlink:href="#DejaVuSans-48"/>
      </g>
     </g>
    </g>
    <g id="xtick_4">
     <g id="line2d_4">
      <g>
       <use style="stroke:#000000;stroke-width:0.8;" x="297.505517" xlink:href="#m035fc6aebe" y="307.584"/>
      </g>
     </g>
     <g id="text_4">
      <!-- 60 -->
      <defs>
       <path d="M 33.015625 40.375 
Q 26.375 40.375 22.484375 35.828125 
Q 18.609375 31.296875 18.609375 23.390625 
Q 18.609375 15.53125 22.484375 10.953125 
Q 26.375 6.390625 33.015625 6.390625 
Q 39.65625 6.390625 43.53125 10.953125 
Q 47.40625 15.53125 47.40625 23.390625 
Q 47.40625 31.296875 43.53125 35.828125 
Q 39.65625 40.375 33.015625 40.375 
z
M 52.59375 71.296875 
L 52.59375 62.3125 
Q 48.875 64.0625 45.09375 64.984375 
Q 41.3125 65.921875 37.59375 65.921875 
Q 27.828125 65.921875 22.671875 59.328125 
Q 17.53125 52.734375 16.796875 39.40625 
Q 19.671875 43.65625 24.015625 45.921875 
Q 28.375 48.1875 33.59375 48.1875 
Q 44.578125 48.1875 50.953125 41.515625 
Q 57.328125 34.859375 57.328125 23.390625 
Q 57.328125 12.15625 50.6875 5.359375 
Q 44.046875 -1.421875 33.015625 -1.421875 
Q 20.359375 -1.421875 13.671875 8.265625 
Q 6.984375 17.96875 6.984375 36.375 
Q 6.984375 53.65625 15.1875 63.9375 
Q 23.390625 74.21875 37.203125 74.21875 
Q 40.921875 74.21875 44.703125 73.484375 
Q 48.484375 72.75 52.59375 71.296875 
z
" id="DejaVuSans-54"/>
      </defs>
      <g transform="translate(291.143017 322.182437)scale(0.1 -0.1)">
       <use xlink:href="#DejaVuSans-54"/>
       <use x="63.623047" xlink:href="#DejaVuSans-48"/>
      </g>
     </g>
    </g>
    <g id="xtick_5">
     <g id="line2d_5">
      <g>
       <use style="stroke:#000000;stroke-width:0.8;" x="372.063114" xlink:href="#m035fc6aebe" y="307.584"/>
      </g>
     </g>
     <g id="text_5">
      <!-- 80 -->
      <defs>
       <path d="M 31.78125 34.625 
Q 24.75 34.625 20.71875 30.859375 
Q 16.703125 27.09375 16.703125 20.515625 
Q 16.703125 13.921875 20.71875 10.15625 
Q 24.75 6.390625 31.78125 6.390625 
Q 38.8125 6.390625 42.859375 10.171875 
Q 46.921875 13.96875 46.921875 20.515625 
Q 46.921875 27.09375 42.890625 30.859375 
Q 38.875 34.625 31.78125 34.625 
z
M 21.921875 38.8125 
Q 15.578125 40.375 12.03125 44.71875 
Q 8.5 49.078125 8.5 55.328125 
Q 8.5 64.0625 14.71875 69.140625 
Q 20.953125 74.21875 31.78125 74.21875 
Q 42.671875 74.21875 48.875 69.140625 
Q 55.078125 64.0625 55.078125 55.328125 
Q 55.078125 49.078125 51.53125 44.71875 
Q 48 40.375 41.703125 38.8125 
Q 48.828125 37.15625 52.796875 32.3125 
Q 56.78125 27.484375 56.78125 20.515625 
Q 56.78125 9.90625 50.3125 4.234375 
Q 43.84375 -1.421875 31.78125 -1.421875 
Q 19.734375 -1.421875 13.25 4.234375 
Q 6.78125 9.90625 6.78125 20.515625 
Q 6.78125 27.484375 10.78125 32.3125 
Q 14.796875 37.15625 21.921875 38.8125 
z
M 18.3125 54.390625 
Q 18.3125 48.734375 21.84375 45.5625 
Q 25.390625 42.390625 31.78125 42.390625 
Q 38.140625 42.390625 41.71875 45.5625 
Q 45.3125 48.734375 45.3125 54.390625 
Q 45.3125 60.0625 41.71875 63.234375 
Q 38.140625 66.40625 31.78125 66.40625 
Q 25.390625 66.40625 21.84375 63.234375 
Q 18.3125 60.0625 18.3125 54.390625 
z
" id="DejaVuSans-56"/>
      </defs>
      <g transform="translate(365.700614 322.182437)scale(0.1 -0.1)">
       <use xlink:href="#DejaVuSans-56"/>
       <use x="63.623047" xlink:href="#DejaVuSans-48"/>
      </g>
     </g>
    </g>
   </g>
   <g id="matplotlib.axis_2">
    <g id="ytick_1">
     <g id="line2d_6">
      <defs>
       <path d="M 0 0 
L -3.5 0 
" id="m63d66be260" style="stroke:#000000;stroke-width:0.8;"/>
      </defs>
      <g>
       <use style="stroke:#000000;stroke-width:0.8;" x="57.6" xlink:href="#m63d66be260" y="289.424224"/>
      </g>
     </g>
     <g id="text_6">
      <!-- −20 -->
      <defs>
       <path d="M 10.59375 35.5 
L 73.1875 35.5 
L 73.1875 27.203125 
L 10.59375 27.203125 
z
" id="DejaVuSans-8722"/>
      </defs>
      <g transform="translate(29.495313 293.223443)scale(0.1 -0.1)">
       <use xlink:href="#DejaVuSans-8722"/>
       <use x="83.789062" xlink:href="#DejaVuSans-50"/>
       <use x="147.412109" xlink:href="#DejaVuSans-48"/>
      </g>
     </g>
    </g>
    <g id="ytick_2">
     <g id="line2d_7">
      <g>
       <use style="stroke:#000000;stroke-width:0.8;" x="57.6" xlink:href="#m63d66be260" y="252.145426"/>
      </g>
     </g>
     <g id="text_7">
      <!-- −10 -->
      <defs>
       <path d="M 12.40625 8.296875 
L 28.515625 8.296875 
L 28.515625 63.921875 
L 10.984375 60.40625 
L 10.984375 69.390625 
L 28.421875 72.90625 
L 38.28125 72.90625 
L 38.28125 8.296875 
L 54.390625 8.296875 
L 54.390625 0 
L 12.40625 0 
z
" id="DejaVuSans-49"/>
      </defs>
      <g transform="translate(29.495313 255.944644)scale(0.1 -0.1)">
       <use xlink:href="#DejaVuSans-8722"/>
       <use x="83.789062" xlink:href="#DejaVuSans-49"/>
       <use x="147.412109" xlink:href="#DejaVuSans-48"/>
      </g>
     </g>
    </g>
    <g id="ytick_3">
     <g id="line2d_8">
      <g>
       <use style="stroke:#000000;stroke-width:0.8;" x="57.6" xlink:href="#m63d66be260" y="214.866627"/>
      </g>
     </g>
     <g id="text_8">
      <!-- 0 -->
      <g transform="translate(44.2375 218.665846)scale(0.1 -0.1)">
       <use xlink:href="#DejaVuSans-48"/>
      </g>
     </g>
    </g>
    <g id="ytick_4">
     <g id="line2d_9">
      <g>
       <use style="stroke:#000000;stroke-width:0.8;" x="57.6" xlink:href="#m63d66be260" y="177.587829"/>
      </g>
     </g>
     <g id="text_9">
      <!-- 10 -->
      <g transform="translate(37.875 181.387048)scale(0.1 -0.1)">
       <use xlink:href="#DejaVuSans-49"/>
       <use x="63.623047" xlink:href="#DejaVuSans-48"/>
      </g>
     </g>
    </g>
    <g id="ytick_5">
     <g id="line2d_10">
      <g>
       <use style="stroke:#000000;stroke-width:0.8;" x="57.6" xlink:href="#m63d66be260" y="140.309031"/>
      </g>
     </g>
     <g id="text_10">
      <!-- 20 -->
      <g transform="translate(37.875 144.108249)scale(0.1 -0.1)">
       <use xlink:href="#DejaVuSans-50"/>
       <use x="63.623047" xlink:href="#DejaVuSans-48"/>
      </g>
     </g>
    </g>
    <g id="ytick_6">
     <g id="line2d_11">
      <g>
       <use style="stroke:#000000;stroke-width:0.8;" x="57.6" xlink:href="#m63d66be260" y="103.030232"/>
      </g>
     </g>
     <g id="text_11">
      <!-- 30 -->
      <defs>
       <path d="M 40.578125 39.3125 
Q 47.65625 37.796875 51.625 33 
Q 55.609375 28.21875 55.609375 21.1875 
Q 55.609375 10.40625 48.1875 4.484375 
Q 40.765625 -1.421875 27.09375 -1.421875 
Q 22.515625 -1.421875 17.65625 -0.515625 
Q 12.796875 0.390625 7.625 2.203125 
L 7.625 11.71875 
Q 11.71875 9.328125 16.59375 8.109375 
Q 21.484375 6.890625 26.8125 6.890625 
Q 36.078125 6.890625 40.9375 10.546875 
Q 45.796875 14.203125 45.796875 21.1875 
Q 45.796875 27.640625 41.28125 31.265625 
Q 36.765625 34.90625 28.71875 34.90625 
L 20.21875 34.90625 
L 20.21875 43.015625 
L 29.109375 43.015625 
Q 36.375 43.015625 40.234375 45.921875 
Q 44.09375 48.828125 44.09375 54.296875 
Q 44.09375 59.90625 40.109375 62.90625 
Q 36.140625 65.921875 28.71875 65.921875 
Q 24.65625 65.921875 20.015625 65.03125 
Q 15.375 64.15625 9.8125 62.3125 
L 9.8125 71.09375 
Q 15.4375 72.65625 20.34375 73.4375 
Q 25.25 74.21875 29.59375 74.21875 
Q 40.828125 74.21875 47.359375 69.109375 
Q 53.90625 64.015625 53.90625 55.328125 
Q 53.90625 49.265625 50.4375 45.09375 
Q 46.96875 40.921875 40.578125 39.3125 
z
" id="DejaVuSans-51"/>
      </defs>
      <g transform="translate(37.875 106.829451)scale(0.1 -0.1)">
       <use xlink:href="#DejaVuSans-51"/>
       <use x="63.623047" xlink:href="#DejaVuSans-48"/>
      </g>
     </g>
    </g>
    <g id="ytick_7">
     <g id="line2d_12">
      <g>
       <use style="stroke:#000000;stroke-width:0.8;" x="57.6" xlink:href="#m63d66be260" y="65.751434"/>
      </g>
     </g>
     <g id="text_12">
      <!-- 40 -->
      <g transform="translate(37.875 69.550653)scale(0.1 -0.1)">
       <use xlink:href="#DejaVuSans-52"/>
       <use x="63.623047" xlink:href="#DejaVuSans-48"/>
      </g>
     </g>
    </g>
   </g>
   <g id="line2d_13">
    <path clip-path="url(#pc3853bd935)" d="M 73.832727 214.866627 
L 74.024887 211.136044 
L 74.378724 207.42705 
L 74.90606 203.732601 
L 75.568988 200.089888 
L 76.431673 196.470884 
L 77.454619 192.91817 
L 78.634531 189.419364 
L 79.988691 185.998102 
L 81.476737 182.63448 
L 83.110246 179.349651 
L 84.890707 176.155685 
L 86.817186 173.056214 
L 88.881023 170.062055 
L 91.098175 167.186816 
L 93.412014 164.426246 
L 95.877399 161.791641 
L 98.446587 159.275881 
L 101.105833 156.880084 
L 103.878149 154.642722 
L 106.731069 152.529984 
L 109.685608 150.566845 
L 112.735837 148.749615 
L 115.858571 147.061668 
L 119.083373 145.507888 
L 122.384112 144.093343 
L 125.735327 142.786982 
L 129.175601 141.59298 
L 132.689202 140.500711 
L 136.260139 139.527697 
L 139.857058 138.657945 
L 143.50956 137.9029 
L 147.24087 137.265246 
L 151.032347 136.734359 
L 154.882688 136.303416 
L 158.793942 135.980283 
L 162.756268 135.780842 
L 166.772947 135.683879 
L 170.845134 135.685445 
L 174.959781 135.777263 
L 179.117336 135.948559 
L 183.321378 136.180731 
L 187.54391 136.470798 
L 191.790152 136.805412 
L 196.058052 137.188936 
L 200.365618 137.630206 
L 204.736221 138.126983 
L 209.188764 138.680014 
L 213.728128 139.269317 
L 218.352675 139.895788 
L 223.037502 140.560543 
L 227.814668 141.254115 
L 232.665721 141.984146 
L 237.608852 142.740123 
L 242.636233 143.524208 
L 247.73273 144.326522 
L 252.903635 145.157355 
L 258.146599 146.000825 
L 263.474634 146.870316 
L 268.861756 147.743497 
L 274.333538 148.628832 
L 279.893559 149.52192 
L 285.527467 150.413554 
L 291.241561 151.317528 
L 297.021042 152.21755 
L 302.908408 153.132595 
L 308.859297 154.046895 
L 314.88288 154.976181 
L 320.964059 155.912849 
L 327.08095 156.844819 
L 333.261328 157.790358 
L 339.494417 158.722962 
L 345.779958 159.667607 
L 352.144269 160.61173 
L 358.552644 161.573486 
L 365.025138 162.53595 
L 371.556756 163.510939 
L 378.126734 164.485407 
L 384.749648 165.474824 
L 391.424865 166.478742 
L 398.178329 167.496043 
" style="fill:none;stroke:#008000;stroke-linecap:square;stroke-width:1.5;"/>
   </g>
   <g id="line2d_14">
    <path clip-path="url(#pc3853bd935)" d="M 73.832727 214.866627 
L 73.948911 211.133276 
L 74.322324 207.425521 
L 74.909697 203.739781 
L 75.690561 200.121487 
L 76.552451 196.502048 
L 77.545416 192.940076 
L 78.737376 189.444206 
L 80.004552 185.989263 
L 81.481565 182.620279 
L 83.097371 179.324556 
L 84.856962 176.117057 
L 86.790383 173.019861 
L 88.781088 169.977423 
L 90.979774 167.086466 
L 93.30655 164.337406 
L 95.730799 161.664495 
L 98.311626 159.160954 
L 101.051138 156.857724 
L 103.900495 154.722944 
L 106.706267 152.548915 
L 109.572743 150.457446 
L 112.636912 148.662857 
L 115.737196 146.934028 
L 118.885124 145.230202 
L 122.202335 143.852906 
L 125.558871 142.562481 
L 128.983995 141.324489 
L 132.482732 140.18489 
L 136.035159 139.14768 
L 139.614602 138.208583 
L 143.254002 137.392807 
L 146.980794 136.728672 
L 150.746904 136.040164 
L 154.581196 135.484513 
L 158.488338 135.122489 
L 162.444968 134.831233 
L 166.461455 134.738843 
L 170.531979 134.630252 
L 174.647608 134.625904 
L 178.807434 134.727433 
L 183.014542 134.891877 
L 187.241302 135.112683 
L 191.493533 135.360735 
L 195.763515 135.721126 
L 200.079745 136.069102 
L 204.458939 136.484654 
L 208.918288 136.981043 
L 213.473006 137.438418 
L 218.108408 137.980022 
L 222.804549 138.560194 
L 227.589314 139.199774 
L 232.450537 139.858783 
L 237.409074 140.506479 
L 242.446864 141.22099 
L 247.56649 141.861059 
L 252.745985 142.637339 
L 258.009123 143.345721 
L 263.353873 144.107863 
L 268.758429 144.867011 
L 274.245123 145.655604 
L 279.825743 146.410241 
L 285.478545 147.172613 
L 291.218195 147.897802 
L 297.017557 148.660195 
L 302.917129 149.493232 
L 308.884497 150.2931 
L 314.9153 151.17398 
L 321.015255 151.979932 
L 327.153842 152.7548 
L 333.35624 153.543374 
L 339.611787 154.310222 
L 345.915609 155.124149 
L 352.305398 155.877031 
L 358.740727 156.638462 
L 365.242982 157.373619 
L 371.781086 158.30447 
L 378.375618 159.096136 
L 385.02507 159.885479 
L 391.717281 160.768533 
L 398.487273 161.669201 
" style="fill:none;stroke:#0000ff;stroke-linecap:square;stroke-width:1.5;"/>
   </g>
   <g id="line2d_15">
    <path clip-path="url(#pc3853bd935)" d="M 73.832727 214.866627 
L 74.025255 211.134978 
L 74.369568 207.426045 
L 74.972767 203.742486 
L 74.700679 200.051577 
L 76.076338 196.593284 
L 76.920456 192.993783 
L 77.805091 189.420573 
L 78.384796 185.785691 
L 79.660355 182.334018 
L 81.127314 178.969423 
L 82.789772 175.711424 
L 84.667906 172.581844 
L 86.623031 169.518799 
L 88.806703 166.6182 
L 91.080257 163.827065 
L 93.441027 161.101292 
L 96.001268 158.578495 
L 98.89511 156.474014 
L 101.828195 154.458687 
L 104.669508 152.332972 
L 107.554951 150.267644 
L 110.643887 148.516212 
L 113.754724 146.808991 
L 116.858756 145.030362 
L 120.142453 143.578585 
L 123.483422 142.253328 
L 126.898684 140.990505 
L 130.39236 139.837697 
L 133.941604 138.792461 
L 137.519797 137.850551 
L 141.167109 137.073377 
L 144.893436 136.408764 
L 148.666515 135.760205 
L 152.509391 135.268671 
L 156.403358 134.79134 
L 160.346165 134.357376 
L 164.362908 134.284176 
L 168.433762 134.191513 
L 172.549342 134.189373 
L 176.706136 134.377258 
L 180.915046 134.491215 
L 185.14691 134.438884 
L 189.38835 134.830108 
L 193.651731 135.261579 
L 197.938454 135.873921 
L 202.326874 136.176726 
L 206.761436 136.860264 
L 211.329573 137.15497 
L 215.976062 137.591735 
L 220.678779 138.116509 
L 225.46742 138.726884 
L 230.330607 139.370681 
L 235.290279 140.009884 
L 240.328923 140.718847 
L 245.448908 141.3558 
L 250.62904 142.1285 
L 255.892424 142.835357 
L 261.199219 143.707403 
L 266.465503 145.126615 
L 271.984685 145.500502 
L 277.590649 146.005401 
L 283.258571 146.636407 
L 289.006662 147.290753 
L 294.810151 148.020979 
L 300.712144 148.836614 
L 306.680381 149.629587 
L 312.712235 150.503759 
L 318.812515 151.307238 
L 324.950483 152.085843 
L 330.8334 150.157224 
L 336.875132 151.893922 
L 343.18826 151.35918 
L 349.142979 153.740449 
L 355.188196 156.035558 
L 361.547218 157.56104 
L 368.006938 158.928706 
L 374.576647 159.904432 
L 381.214412 160.78776 
L 387.900408 161.717009 
L 394.667191 162.641278 
" style="fill:none;stroke:#ff0000;stroke-linecap:square;stroke-width:1.5;"/>
   </g>
   <g id="patch_3">
    <path d="M 57.6 307.584 
L 57.6 41.472 
" style="fill:none;stroke:#000000;stroke-linecap:square;stroke-linejoin:miter;stroke-width:0.8;"/>
   </g>
   <g id="patch_4">
    <path d="M 414.72 307.584 
L 414.72 41.472 
" style="fill:none;stroke:#000000;stroke-linecap:square;stroke-linejoin:miter;stroke-width:0.8;"/>
   </g>
   <g id="patch_5">
    <path d="M 57.6 307.584 
L 414.72 307.584 
" style="fill:none;stroke:#000000;stroke-linecap:square;stroke-linejoin:miter;stroke-width:0.8;"/>
   </g>
   <g id="patch_6">
    <path d="M 57.6 41.472 
L 414.72 41.472 
" style="fill:none;stroke:#000000;stroke-linecap:square;stroke-linejoin:miter;stroke-width:0.8;"/>
   </g>
  </g>
 </g>
 <defs>
  <clipPath id="pc3853bd935">
   <rect height="266.112" width="357.12" x="57.6" y="41.472"/>
  </clipPath>
 </defs>
</svg>
