<?xml version="1.0" encoding="utf-8" standalone="no"?>
<!DOCTYPE svg PUBLIC "-//W3C//DTD SVG 1.1//EN"
  "http://www.w3.org/Graphics/SVG/1.1/DTD/svg11.dtd">
<!-- Created with matplotlib (https://matplotlib.org/) -->
<svg height="345.6pt" version="1.1" viewBox="0 0 460.8 345.6" width="460.8pt" xmlns="http://www.w3.org/2000/svg" xmlns:xlink="http://www.w3.org/1999/xlink">
 <defs>
  <style type="text/css">
*{stroke-linecap:butt;stroke-linejoin:round;}
  </style>
 </defs>
 <g id="figure_1">
  <g id="patch_1">
   <path d="M 0 345.6 
L 460.8 345.6 
L 460.8 0 
L 0 0 
z
" style="fill:#ffffff;"/>
  </g>
  <g id="axes_1">
   <g id="patch_2">
    <path d="M 57.6 307.584 
L 414.72 307.584 
L 414.72 41.472 
L 57.6 41.472 
z
" style="fill:#ffffff;"/>
   </g>
   <g id="matplotlib.axis_1">
    <g id="xtick_1">
     <g id="line2d_1">
      <defs>
       <path d="M 0 0 
L 0 3.5 
" id="mfa95f21aef" style="stroke:#000000;stroke-width:0.8;"/>
      </defs>
      <g>
       <use style="stroke:#000000;stroke-width:0.8;" x="73.832727" xlink:href="#mfa95f21aef" y="307.584"/>
      </g>
     </g>
     <g id="text_1">
      <!-- 0 -->
      <defs>
       <path d="M 31.78125 66.40625 
Q 24.171875 66.40625 20.328125 58.90625 
Q 16.5 51.421875 16.5 36.375 
Q 16.5 21.390625 20.328125 13.890625 
Q 24.171875 6.390625 31.78125 6.390625 
Q 39.453125 6.390625 43.28125 13.890625 
Q 47.125 21.390625 47.125 36.375 
Q 47.125 51.421875 43.28125 58.90625 
Q 39.453125 66.40625 31.78125 66.40625 
z
M 31.78125 74.21875 
Q 44.046875 74.21875 50.515625 64.515625 
Q 56.984375 54.828125 56.984375 36.375 
Q 56.984375 17.96875 50.515625 8.265625 
Q 44.046875 -1.421875 31.78125 -1.421875 
Q 19.53125 -1.421875 13.0625 8.265625 
Q 6.59375 17.96875 6.59375 36.375 
Q 6.59375 54.828125 13.0625 64.515625 
Q 19.53125 74.21875 31.78125 74.21875 
z
" id="DejaVuSans-48"/>
      </defs>
      <g transform="translate(70.651477 322.182437)scale(0.1 -0.1)">
       <use xlink:href="#DejaVuSans-48"/>
      </g>
     </g>
    </g>
    <g id="xtick_2">
     <g id="line2d_2">
      <g>
       <use style="stroke:#000000;stroke-width:0.8;" x="131.106695" xlink:href="#mfa95f21aef" y="307.584"/>
      </g>
     </g>
     <g id="text_2">
      <!-- 20 -->
      <defs>
       <path d="M 19.1875 8.296875 
L 53.609375 8.296875 
L 53.609375 0 
L 7.328125 0 
L 7.328125 8.296875 
Q 12.9375 14.109375 22.625 23.890625 
Q 32.328125 33.6875 34.8125 36.53125 
Q 39.546875 41.84375 41.421875 45.53125 
Q 43.3125 49.21875 43.3125 52.78125 
Q 43.3125 58.59375 39.234375 62.25 
Q 35.15625 65.921875 28.609375 65.921875 
Q 23.96875 65.921875 18.8125 64.3125 
Q 13.671875 62.703125 7.8125 59.421875 
L 7.8125 69.390625 
Q 13.765625 71.78125 18.9375 73 
Q 24.125 74.21875 28.421875 74.21875 
Q 39.75 74.21875 46.484375 68.546875 
Q 53.21875 62.890625 53.21875 53.421875 
Q 53.21875 48.921875 51.53125 44.890625 
Q 49.859375 40.875 45.40625 35.40625 
Q 44.1875 33.984375 37.640625 27.21875 
Q 31.109375 20.453125 19.1875 8.296875 
z
" id="DejaVuSans-50"/>
      </defs>
      <g transform="translate(124.744195 322.182437)scale(0.1 -0.1)">
       <use xlink:href="#DejaVuSans-50"/>
       <use x="63.623047" xlink:href="#DejaVuSans-48"/>
      </g>
     </g>
    </g>
    <g id="xtick_3">
     <g id="line2d_3">
      <g>
       <use style="stroke:#000000;stroke-width:0.8;" x="188.380663" xlink:href="#mfa95f21aef" y="307.584"/>
      </g>
     </g>
     <g id="text_3">
      <!-- 40 -->
      <defs>
       <path d="M 37.796875 64.3125 
L 12.890625 25.390625 
L 37.796875 25.390625 
z
M 35.203125 72.90625 
L 47.609375 72.90625 
L 47.609375 25.390625 
L 58.015625 25.390625 
L 58.015625 17.1875 
L 47.609375 17.1875 
L 47.609375 0 
L 37.796875 0 
L 37.796875 17.1875 
L 4.890625 17.1875 
L 4.890625 26.703125 
z
" id="DejaVuSans-52"/>
      </defs>
      <g transform="translate(182.018163 322.182437)scale(0.1 -0.1)">
       <use xlink:href="#DejaVuSans-52"/>
       <use x="63.623047" xlink:href="#DejaVuSans-48"/>
      </g>
     </g>
    </g>
    <g id="xtick_4">
     <g id="line2d_4">
      <g>
       <use style="stroke:#000000;stroke-width:0.8;" x="245.654631" xlink:href="#mfa95f21aef" y="307.584"/>
      </g>
     </g>
     <g id="text_4">
      <!-- 60 -->
      <defs>
       <path d="M 33.015625 40.375 
Q 26.375 40.375 22.484375 35.828125 
Q 18.609375 31.296875 18.609375 23.390625 
Q 18.609375 15.53125 22.484375 10.953125 
Q 26.375 6.390625 33.015625 6.390625 
Q 39.65625 6.390625 43.53125 10.953125 
Q 47.40625 15.53125 47.40625 23.390625 
Q 47.40625 31.296875 43.53125 35.828125 
Q 39.65625 40.375 33.015625 40.375 
z
M 52.59375 71.296875 
L 52.59375 62.3125 
Q 48.875 64.0625 45.09375 64.984375 
Q 41.3125 65.921875 37.59375 65.921875 
Q 27.828125 65.921875 22.671875 59.328125 
Q 17.53125 52.734375 16.796875 39.40625 
Q 19.671875 43.65625 24.015625 45.921875 
Q 28.375 48.1875 33.59375 48.1875 
Q 44.578125 48.1875 50.953125 41.515625 
Q 57.328125 34.859375 57.328125 23.390625 
Q 57.328125 12.15625 50.6875 5.359375 
Q 44.046875 -1.421875 33.015625 -1.421875 
Q 20.359375 -1.421875 13.671875 8.265625 
Q 6.984375 17.96875 6.984375 36.375 
Q 6.984375 53.65625 15.1875 63.9375 
Q 23.390625 74.21875 37.203125 74.21875 
Q 40.921875 74.21875 44.703125 73.484375 
Q 48.484375 72.75 52.59375 71.296875 
z
" id="DejaVuSans-54"/>
      </defs>
      <g transform="translate(239.292131 322.182437)scale(0.1 -0.1)">
       <use xlink:href="#DejaVuSans-54"/>
       <use x="63.623047" xlink:href="#DejaVuSans-48"/>
      </g>
     </g>
    </g>
    <g id="xtick_5">
     <g id="line2d_5">
      <g>
       <use style="stroke:#000000;stroke-width:0.8;" x="302.928599" xlink:href="#mfa95f21aef" y="307.584"/>
      </g>
     </g>
     <g id="text_5">
      <!-- 80 -->
      <defs>
       <path d="M 31.78125 34.625 
Q 24.75 34.625 20.71875 30.859375 
Q 16.703125 27.09375 16.703125 20.515625 
Q 16.703125 13.921875 20.71875 10.15625 
Q 24.75 6.390625 31.78125 6.390625 
Q 38.8125 6.390625 42.859375 10.171875 
Q 46.921875 13.96875 46.921875 20.515625 
Q 46.921875 27.09375 42.890625 30.859375 
Q 38.875 34.625 31.78125 34.625 
z
M 21.921875 38.8125 
Q 15.578125 40.375 12.03125 44.71875 
Q 8.5 49.078125 8.5 55.328125 
Q 8.5 64.0625 14.71875 69.140625 
Q 20.953125 74.21875 31.78125 74.21875 
Q 42.671875 74.21875 48.875 69.140625 
Q 55.078125 64.0625 55.078125 55.328125 
Q 55.078125 49.078125 51.53125 44.71875 
Q 48 40.375 41.703125 38.8125 
Q 48.828125 37.15625 52.796875 32.3125 
Q 56.78125 27.484375 56.78125 20.515625 
Q 56.78125 9.90625 50.3125 4.234375 
Q 43.84375 -1.421875 31.78125 -1.421875 
Q 19.734375 -1.421875 13.25 4.234375 
Q 6.78125 9.90625 6.78125 20.515625 
Q 6.78125 27.484375 10.78125 32.3125 
Q 14.796875 37.15625 21.921875 38.8125 
z
M 18.3125 54.390625 
Q 18.3125 48.734375 21.84375 45.5625 
Q 25.390625 42.390625 31.78125 42.390625 
Q 38.140625 42.390625 41.71875 45.5625 
Q 45.3125 48.734375 45.3125 54.390625 
Q 45.3125 60.0625 41.71875 63.234375 
Q 38.140625 66.40625 31.78125 66.40625 
Q 25.390625 66.40625 21.84375 63.234375 
Q 18.3125 60.0625 18.3125 54.390625 
z
" id="DejaVuSans-56"/>
      </defs>
      <g transform="translate(296.566099 322.182437)scale(0.1 -0.1)">
       <use xlink:href="#DejaVuSans-56"/>
       <use x="63.623047" xlink:href="#DejaVuSans-48"/>
      </g>
     </g>
    </g>
    <g id="xtick_6">
     <g id="line2d_6">
      <g>
       <use style="stroke:#000000;stroke-width:0.8;" x="360.202566" xlink:href="#mfa95f21aef" y="307.584"/>
      </g>
     </g>
     <g id="text_6">
      <!-- 100 -->
      <defs>
       <path d="M 12.40625 8.296875 
L 28.515625 8.296875 
L 28.515625 63.921875 
L 10.984375 60.40625 
L 10.984375 69.390625 
L 28.421875 72.90625 
L 38.28125 72.90625 
L 38.28125 8.296875 
L 54.390625 8.296875 
L 54.390625 0 
L 12.40625 0 
z
" id="DejaVuSans-49"/>
      </defs>
      <g transform="translate(350.658816 322.182437)scale(0.1 -0.1)">
       <use xlink:href="#DejaVuSans-49"/>
       <use x="63.623047" xlink:href="#DejaVuSans-48"/>
       <use x="127.246094" xlink:href="#DejaVuSans-48"/>
      </g>
     </g>
    </g>
   </g>
   <g id="matplotlib.axis_2">
    <g id="ytick_1">
     <g id="line2d_7">
      <defs>
       <path d="M 0 0 
L -3.5 0 
" id="ma4acd36e67" style="stroke:#000000;stroke-width:0.8;"/>
      </defs>
      <g>
       <use style="stroke:#000000;stroke-width:0.8;" x="57.6" xlink:href="#ma4acd36e67" y="263.055673"/>
      </g>
     </g>
     <g id="text_7">
      <!-- −20 -->
      <defs>
       <path d="M 10.59375 35.5 
L 73.1875 35.5 
L 73.1875 27.203125 
L 10.59375 27.203125 
z
" id="DejaVuSans-8722"/>
      </defs>
      <g transform="translate(29.495313 266.854891)scale(0.1 -0.1)">
       <use xlink:href="#DejaVuSans-8722"/>
       <use x="83.789062" xlink:href="#DejaVuSans-50"/>
       <use x="147.412109" xlink:href="#DejaVuSans-48"/>
      </g>
     </g>
    </g>
    <g id="ytick_2">
     <g id="line2d_8">
      <g>
       <use style="stroke:#000000;stroke-width:0.8;" x="57.6" xlink:href="#ma4acd36e67" y="205.781705"/>
      </g>
     </g>
     <g id="text_8">
      <!-- 0 -->
      <g transform="translate(44.2375 209.580923)scale(0.1 -0.1)">
       <use xlink:href="#DejaVuSans-48"/>
      </g>
     </g>
    </g>
    <g id="ytick_3">
     <g id="line2d_9">
      <g>
       <use style="stroke:#000000;stroke-width:0.8;" x="57.6" xlink:href="#ma4acd36e67" y="148.507737"/>
      </g>
     </g>
     <g id="text_9">
      <!-- 20 -->
      <g transform="translate(37.875 152.306956)scale(0.1 -0.1)">
       <use xlink:href="#DejaVuSans-50"/>
       <use x="63.623047" xlink:href="#DejaVuSans-48"/>
      </g>
     </g>
    </g>
    <g id="ytick_4">
     <g id="line2d_10">
      <g>
       <use style="stroke:#000000;stroke-width:0.8;" x="57.6" xlink:href="#ma4acd36e67" y="91.233769"/>
      </g>
     </g>
     <g id="text_10">
      <!-- 40 -->
      <g transform="translate(37.875 95.032988)scale(0.1 -0.1)">
       <use xlink:href="#DejaVuSans-52"/>
       <use x="63.623047" xlink:href="#DejaVuSans-48"/>
      </g>
     </g>
    </g>
   </g>
   <g id="line2d_11">
    <path clip-path="url(#pac9f9f347f)" d="M 73.832727 205.781705 
L 73.979996 202.922635 
L 74.251864 200.072863 
L 74.656355 197.239048 
L 75.168837 194.42302 
L 75.832493 191.638949 
L 76.624325 188.8889 
L 77.538742 186.17737 
L 78.591951 183.516454 
L 79.7497 180.899446 
L 81.023822 178.33731 
L 82.417077 175.837952 
L 83.927607 173.407692 
L 85.551768 171.051402 
L 87.299354 168.785105 
L 89.137734 166.59179 
L 91.093297 164.502001 
L 93.138313 162.499512 
L 95.26476 160.58373 
L 97.492365 158.785971 
L 99.792652 157.082486 
L 102.176755 155.498372 
L 104.635942 154.033267 
L 107.154368 152.671969 
L 109.733289 151.429388 
L 112.364489 150.301778 
L 115.0319 149.261975 
L 117.736706 148.323229 
L 120.470799 147.473284 
L 123.233261 146.720565 
L 126.016437 146.04758 
L 128.820565 145.467911 
L 131.643081 144.985563 
L 134.478925 144.588485 
L 137.324721 144.269974 
L 140.178649 144.034193 
L 143.038718 143.890233 
L 145.901581 143.821124 
L 148.765278 143.822225 
L 151.628259 143.886112 
L 154.489518 144.003999 
L 157.348839 144.161908 
L 160.205776 144.358165 
L 163.060575 144.58313 
L 165.912712 144.839431 
L 168.761397 145.131251 
L 171.60665 145.454652 
L 174.448381 145.807611 
L 177.288134 146.17627 
L 180.125801 146.560678 
L 182.961 146.96298 
L 185.794894 147.374419 
L 188.626647 147.800567 
L 191.457382 148.233485 
L 194.286786 148.674767 
L 197.115525 149.12008 
L 199.942793 149.57435 
L 202.769998 150.029181 
L 205.59615 150.490385 
L 208.422856 150.948557 
L 211.249722 151.405944 
L 214.077111 151.860098 
L 216.905558 152.307735 
L 219.734018 152.755199 
L 222.563544 153.195833 
L 225.393229 153.635637 
L 228.223683 154.070511 
L 231.053866 154.507136 
L 233.884151 154.943077 
L 236.715135 155.374406 
L 239.545871 155.807482 
L 242.378035 156.231235 
L 245.209921 156.656835 
L 248.042603 157.077053 
L 250.874552 157.502066 
L 253.70708 157.923265 
L 256.539375 158.346048 
L 259.372072 158.766197 
L 262.204334 159.189318 
L 265.036184 159.615213 
L 267.867933 160.041771 
L 270.698705 160.474724 
L 273.52981 160.905469 
L 276.359542 161.345094 
L 279.188887 161.787238 
L 282.01634 162.241291 
L 284.842637 162.702596 
L 287.666727 163.177231 
L 290.488305 163.666581 
L 293.306921 164.172713 
L 296.123075 164.692364 
L 298.937017 165.223832 
L 301.748903 165.766095 
L 304.558502 166.320094 
L 307.364499 166.892065 
L 310.167121 167.480338 
L 312.965777 168.087202 
L 315.761557 168.707177 
L 318.552573 169.348269 
L 321.340636 170.002081 
L 324.125171 170.670747 
L 326.906547 171.352445 
L 329.682826 172.054601 
L 332.455623 172.770345 
L 335.225364 173.497823 
L 337.992856 174.233805 
L 340.758288 174.977501 
L 343.521637 175.728882 
L 346.28172 176.492214 
L 349.038265 177.268218 
L 351.791137 178.057132 
L 354.540211 178.859195 
L 357.285562 179.673924 
L 360.026945 180.501888 
L 362.764182 181.343445 
L 365.497485 182.197687 
L 368.227773 183.061511 
L 370.954553 183.936363 
L 373.678143 184.821109 
L 376.398255 185.716512 
L 379.115461 186.620692 
L 381.829344 187.534794 
L 384.538183 188.463739 
L 387.243098 189.404036 
L 389.945206 190.352351 
L 392.645045 191.307089 
L 395.342734 192.267877 
" style="fill:none;stroke:#008000;stroke-linecap:square;stroke-width:1.5;"/>
   </g>
   <g id="line2d_12">
    <path clip-path="url(#pac9f9f347f)" d="M 73.832727 205.781705 
L 73.937647 202.924009 
L 74.110419 200.065982 
L 74.48582 197.228879 
L 74.808099 194.384605 
L 75.46625 191.59854 
L 76.241735 188.842403 
L 77.172492 186.135167 
L 78.255503 183.486439 
L 79.433274 180.878491 
L 80.7072 178.315093 
L 82.085253 175.807315 
L 83.588419 173.371683 
L 85.229792 171.027321 
L 86.96912 168.754005 
L 88.786418 166.543184 
L 90.740948 164.451456 
L 92.740874 162.402712 
L 94.902886 160.52865 
L 97.067307 158.655834 
L 99.330459 156.904205 
L 101.684715 155.275529 
L 104.153266 153.825761 
L 106.658755 152.440751 
L 109.241997 151.20723 
L 111.864712 150.061567 
L 114.537325 149.033414 
L 117.240941 148.091083 
L 119.959506 147.193996 
L 122.718005 146.425657 
L 125.491166 145.713057 
L 128.286014 145.090241 
L 131.09679 144.544227 
L 133.927491 144.112159 
L 136.768274 143.752746 
L 139.618648 143.478992 
L 142.478527 143.3317 
L 145.341759 143.280869 
L 148.205352 143.274295 
L 151.068473 143.328156 
L 153.930421 143.425208 
L 156.790438 143.570199 
L 159.650967 143.702468 
L 162.50767 143.902426 
L 165.361842 144.135501 
L 168.216799 144.358895 
L 171.068531 144.620299 
L 173.92023 144.882028 
L 176.768799 145.175909 
L 179.609863 145.534846 
L 182.453065 145.876847 
L 185.294647 146.231926 
L 188.135808 146.590434 
L 190.974236 146.96993 
L 193.808924 147.376368 
L 196.642214 147.792125 
L 199.478009 148.190912 
L 202.31366 148.590548 
L 205.147951 148.999552 
L 207.982592 149.406227 
L 210.814326 149.832903 
L 213.651371 150.222366 
L 216.491148 150.591648 
L 219.324793 151.005437 
L 222.166161 151.362307 
L 225.003392 151.750523 
L 227.839657 152.145323 
L 230.677317 152.530603 
L 233.514668 152.918157 
L 236.352795 153.299996 
L 239.194244 153.656065 
L 242.036827 154.002272 
L 244.875048 154.383226 
L 247.716061 154.742652 
L 250.552913 155.133827 
L 253.39393 155.493182 
L 256.230096 155.889299 
L 259.075137 156.215043 
L 261.910093 156.619203 
L 264.745797 157.018633 
L 267.578498 157.438768 
L 270.41192 157.854015 
L 273.250269 158.234199 
L 276.086696 158.628391 
L 278.920818 159.037752 
L 281.755717 159.4428 
L 284.581773 159.905373 
L 287.407815 160.368228 
L 290.233702 160.831898 
L 293.057347 161.308256 
L 295.871157 161.840424 
L 298.693729 162.323718 
L 301.502293 162.882598 
L 304.313314 163.428113 
L 307.128431 163.953223 
L 309.935407 164.520355 
L 312.746284 165.0678 
L 315.544408 165.67689 
L 318.359435 166.202146 
L 321.16804 166.761072 
L 323.953576 167.425478 
L 326.767448 167.957111 
L 329.584833 168.469555 
L 332.372216 169.126227 
L 335.148594 169.828007 
L 337.928269 170.516587 
L 340.704976 171.216883 
L 343.478706 171.92904 
L 346.247361 172.660587 
L 349.022156 173.368405 
L 351.755225 174.223015 
L 354.526993 174.942378 
L 357.269777 175.765421 
L 360.007724 176.604705 
L 362.749653 177.430872 
L 365.470226 178.324879 
L 368.210549 179.156365 
L 370.93085 180.051189 
L 373.681032 180.849058 
L 376.401996 181.741651 
L 379.123457 182.63295 
L 381.834496 183.554814 
L 384.544301 184.480674 
L 387.255411 185.402721 
L 389.976728 186.294148 
L 392.697759 187.186693 
L 395.415431 188.089236 
" style="fill:none;stroke:#0000ff;stroke-linecap:square;stroke-width:1.5;"/>
   </g>
   <g id="line2d_13">
    <path clip-path="url(#pac9f9f347f)" d="M 73.832727 205.781705 
L 73.93927 202.924157 
L 74.112308 200.066109 
L 74.485118 197.228648 
L 74.811463 194.38485 
L 75.479206 191.601154 
L 76.272945 188.850303 
L 77.231982 186.153078 
L 78.344656 183.516916 
L 79.555529 180.924464 
L 80.865956 178.379789 
L 82.281002 175.893086 
L 83.821427 173.481224 
L 85.505454 171.167876 
L 87.292069 168.932118 
L 89.160505 166.765134 
L 91.162321 164.719314 
L 93.202154 162.710931 
L 95.394661 160.873943 
L 97.583554 159.030897 
L 99.868576 157.309357 
L 102.242017 155.710033 
L 104.726591 154.289379 
L 107.247527 152.934287 
L 109.844456 151.731883 
L 112.480121 150.619151 
L 115.16503 149.624742 
L 117.879861 148.717382 
L 120.608727 147.854961 
L 123.375948 147.120431 
L 126.156881 146.441387 
L 128.958373 145.851715 
L 131.77484 145.33905 
L 134.609996 144.940509 
L 137.45434 144.614753 
L 140.307311 144.374744 
L 143.168493 144.261212 
L 146.032093 144.244087 
L 148.895239 144.27135 
L 151.757595 144.358864 
L 154.617872 144.489729 
L 157.475937 144.668382 
L 160.334828 144.834248 
L 163.188921 145.067832 
L 166.040152 145.334475 
L 168.892255 145.59146 
L 171.740699 145.886187 
L 174.589021 146.180708 
L 177.433937 146.506566 
L 180.2709 146.896885 
L 183.110006 147.270372 
L 185.947465 147.656868 
L 188.784311 148.046855 
L 191.618336 148.457736 
L 194.448346 148.895504 
L 197.276919 149.342628 
L 200.108024 149.772925 
L 202.938994 150.204463 
L 205.768562 150.645212 
L 208.598644 151.082601 
L 211.425503 151.539856 
L 214.257955 151.959864 
L 217.093566 152.35869 
L 219.922715 152.801473 
L 222.76029 153.187008 
L 225.593574 153.60314 
L 228.425958 154.025474 
L 231.25961 154.438363 
L 234.092995 154.853477 
L 236.927194 155.262897 
L 239.764838 155.646673 
L 242.603597 156.020683 
L 245.437993 156.429148 
L 248.27521 156.815802 
L 251.108173 157.233828 
L 253.945739 157.619754 
L 256.778131 158.041197 
L 259.619991 158.39159 
L 262.451227 158.819364 
L 265.283542 159.241706 
L 268.112508 159.685411 
L 270.942313 160.124494 
L 273.777249 160.528695 
L 276.610227 160.94682 
L 279.440447 161.38036 
L 282.271751 161.80893 
L 285.093769 162.294414 
L 287.915984 162.779319 
L 290.736849 163.2715 
L 293.554187 163.781927 
L 296.360762 164.350271 
L 299.175291 164.877108 
L 301.973785 165.483262 
L 304.774011 166.079833 
L 307.579229 166.6544 
L 310.375899 167.269655 
L 313.178368 167.857695 
L 315.964366 168.518663 
L 318.763175 169.122341 
L 321.55082 169.776391 
L 324.350767 170.376331 
L 327.192926 170.725945 
L 330.037723 171.054068 
L 332.871606 171.465768 
L 335.698699 171.921368 
L 338.528125 172.362627 
L 341.376632 172.656238 
L 344.236581 172.794373 
L 347.0996 172.771183 
L 349.94917 172.49538 
L 352.806157 172.31004 
L 355.648158 171.963372 
L 358.499837 171.709849 
L 361.352113 171.472148 
L 364.203146 171.220699 
L 367.059777 171.042252 
L 369.912038 170.800669 
L 372.769215 170.628874 
L 375.619649 170.360728 
L 378.477435 170.191749 
L 381.334447 170.02082 
L 384.194247 169.883996 
L 387.053954 169.751393 
L 389.913452 169.61474 
L 392.771303 169.445798 
L 395.628841 169.277441 
L 398.487273 169.120054 
" style="fill:none;stroke:#ff0000;stroke-linecap:square;stroke-width:1.5;"/>
   </g>
   <g id="patch_3">
    <path d="M 57.6 307.584 
L 57.6 41.472 
" style="fill:none;stroke:#000000;stroke-linecap:square;stroke-linejoin:miter;stroke-width:0.8;"/>
   </g>
   <g id="patch_4">
    <path d="M 414.72 307.584 
L 414.72 41.472 
" style="fill:none;stroke:#000000;stroke-linecap:square;stroke-linejoin:miter;stroke-width:0.8;"/>
   </g>
   <g id="patch_5">
    <path d="M 57.6 307.584 
L 414.72 307.584 
" style="fill:none;stroke:#000000;stroke-linecap:square;stroke-linejoin:miter;stroke-width:0.8;"/>
   </g>
   <g id="patch_6">
    <path d="M 57.6 41.472 
L 414.72 41.472 
" style="fill:none;stroke:#000000;stroke-linecap:square;stroke-linejoin:miter;stroke-width:0.8;"/>
   </g>
  </g>
 </g>
 <defs>
  <clipPath id="pac9f9f347f">
   <rect height="266.112" width="357.12" x="57.6" y="41.472"/>
  </clipPath>
 </defs>
</svg>
