<?xml version="1.0" encoding="utf-8" standalone="no"?>
<!DOCTYPE svg PUBLIC "-//W3C//DTD SVG 1.1//EN"
  "http://www.w3.org/Graphics/SVG/1.1/DTD/svg11.dtd">
<!-- Created with matplotlib (https://matplotlib.org/) -->
<svg height="345.6pt" version="1.1" viewBox="0 0 460.8 345.6" width="460.8pt" xmlns="http://www.w3.org/2000/svg" xmlns:xlink="http://www.w3.org/1999/xlink">
 <defs>
  <style type="text/css">
*{stroke-linecap:butt;stroke-linejoin:round;}
  </style>
 </defs>
 <g id="figure_1">
  <g id="patch_1">
   <path d="M 0 345.6 
L 460.8 345.6 
L 460.8 0 
L 0 0 
z
" style="fill:#ffffff;"/>
  </g>
  <g id="axes_1">
   <g id="patch_2">
    <path d="M 57.6 307.584 
L 414.72 307.584 
L 414.72 41.472 
L 57.6 41.472 
z
" style="fill:#ffffff;"/>
   </g>
   <g id="matplotlib.axis_1">
    <g id="xtick_1">
     <g id="line2d_1">
      <defs>
       <path d="M 0 0 
L 0 3.5 
" id="mc6542accef" style="stroke:#000000;stroke-width:0.8;"/>
      </defs>
      <g>
       <use style="stroke:#000000;stroke-width:0.8;" x="73.832727" xlink:href="#mc6542accef" y="307.584"/>
      </g>
     </g>
     <g id="text_1">
      <!-- 0 -->
      <defs>
       <path d="M 31.78125 66.40625 
Q 24.171875 66.40625 20.328125 58.90625 
Q 16.5 51.421875 16.5 36.375 
Q 16.5 21.390625 20.328125 13.890625 
Q 24.171875 6.390625 31.78125 6.390625 
Q 39.453125 6.390625 43.28125 13.890625 
Q 47.125 21.390625 47.125 36.375 
Q 47.125 51.421875 43.28125 58.90625 
Q 39.453125 66.40625 31.78125 66.40625 
z
M 31.78125 74.21875 
Q 44.046875 74.21875 50.515625 64.515625 
Q 56.984375 54.828125 56.984375 36.375 
Q 56.984375 17.96875 50.515625 8.265625 
Q 44.046875 -1.421875 31.78125 -1.421875 
Q 19.53125 -1.421875 13.0625 8.265625 
Q 6.59375 17.96875 6.59375 36.375 
Q 6.59375 54.828125 13.0625 64.515625 
Q 19.53125 74.21875 31.78125 74.21875 
z
" id="DejaVuSans-48"/>
      </defs>
      <g transform="translate(70.651477 322.182437)scale(0.1 -0.1)">
       <use xlink:href="#DejaVuSans-48"/>
      </g>
     </g>
    </g>
    <g id="xtick_2">
     <g id="line2d_2">
      <g>
       <use style="stroke:#000000;stroke-width:0.8;" x="148.299712" xlink:href="#mc6542accef" y="307.584"/>
      </g>
     </g>
     <g id="text_2">
      <!-- 20 -->
      <defs>
       <path d="M 19.1875 8.296875 
L 53.609375 8.296875 
L 53.609375 0 
L 7.328125 0 
L 7.328125 8.296875 
Q 12.9375 14.109375 22.625 23.890625 
Q 32.328125 33.6875 34.8125 36.53125 
Q 39.546875 41.84375 41.421875 45.53125 
Q 43.3125 49.21875 43.3125 52.78125 
Q 43.3125 58.59375 39.234375 62.25 
Q 35.15625 65.921875 28.609375 65.921875 
Q 23.96875 65.921875 18.8125 64.3125 
Q 13.671875 62.703125 7.8125 59.421875 
L 7.8125 69.390625 
Q 13.765625 71.78125 18.9375 73 
Q 24.125 74.21875 28.421875 74.21875 
Q 39.75 74.21875 46.484375 68.546875 
Q 53.21875 62.890625 53.21875 53.421875 
Q 53.21875 48.921875 51.53125 44.890625 
Q 49.859375 40.875 45.40625 35.40625 
Q 44.1875 33.984375 37.640625 27.21875 
Q 31.109375 20.453125 19.1875 8.296875 
z
" id="DejaVuSans-50"/>
      </defs>
      <g transform="translate(141.937212 322.182437)scale(0.1 -0.1)">
       <use xlink:href="#DejaVuSans-50"/>
       <use x="63.623047" xlink:href="#DejaVuSans-48"/>
      </g>
     </g>
    </g>
    <g id="xtick_3">
     <g id="line2d_3">
      <g>
       <use style="stroke:#000000;stroke-width:0.8;" x="222.766698" xlink:href="#mc6542accef" y="307.584"/>
      </g>
     </g>
     <g id="text_3">
      <!-- 40 -->
      <defs>
       <path d="M 37.796875 64.3125 
L 12.890625 25.390625 
L 37.796875 25.390625 
z
M 35.203125 72.90625 
L 47.609375 72.90625 
L 47.609375 25.390625 
L 58.015625 25.390625 
L 58.015625 17.1875 
L 47.609375 17.1875 
L 47.609375 0 
L 37.796875 0 
L 37.796875 17.1875 
L 4.890625 17.1875 
L 4.890625 26.703125 
z
" id="DejaVuSans-52"/>
      </defs>
      <g transform="translate(216.404198 322.182437)scale(0.1 -0.1)">
       <use xlink:href="#DejaVuSans-52"/>
       <use x="63.623047" xlink:href="#DejaVuSans-48"/>
      </g>
     </g>
    </g>
    <g id="xtick_4">
     <g id="line2d_4">
      <g>
       <use style="stroke:#000000;stroke-width:0.8;" x="297.233683" xlink:href="#mc6542accef" y="307.584"/>
      </g>
     </g>
     <g id="text_4">
      <!-- 60 -->
      <defs>
       <path d="M 33.015625 40.375 
Q 26.375 40.375 22.484375 35.828125 
Q 18.609375 31.296875 18.609375 23.390625 
Q 18.609375 15.53125 22.484375 10.953125 
Q 26.375 6.390625 33.015625 6.390625 
Q 39.65625 6.390625 43.53125 10.953125 
Q 47.40625 15.53125 47.40625 23.390625 
Q 47.40625 31.296875 43.53125 35.828125 
Q 39.65625 40.375 33.015625 40.375 
z
M 52.59375 71.296875 
L 52.59375 62.3125 
Q 48.875 64.0625 45.09375 64.984375 
Q 41.3125 65.921875 37.59375 65.921875 
Q 27.828125 65.921875 22.671875 59.328125 
Q 17.53125 52.734375 16.796875 39.40625 
Q 19.671875 43.65625 24.015625 45.921875 
Q 28.375 48.1875 33.59375 48.1875 
Q 44.578125 48.1875 50.953125 41.515625 
Q 57.328125 34.859375 57.328125 23.390625 
Q 57.328125 12.15625 50.6875 5.359375 
Q 44.046875 -1.421875 33.015625 -1.421875 
Q 20.359375 -1.421875 13.671875 8.265625 
Q 6.984375 17.96875 6.984375 36.375 
Q 6.984375 53.65625 15.1875 63.9375 
Q 23.390625 74.21875 37.203125 74.21875 
Q 40.921875 74.21875 44.703125 73.484375 
Q 48.484375 72.75 52.59375 71.296875 
z
" id="DejaVuSans-54"/>
      </defs>
      <g transform="translate(290.871183 322.182437)scale(0.1 -0.1)">
       <use xlink:href="#DejaVuSans-54"/>
       <use x="63.623047" xlink:href="#DejaVuSans-48"/>
      </g>
     </g>
    </g>
    <g id="xtick_5">
     <g id="line2d_5">
      <g>
       <use style="stroke:#000000;stroke-width:0.8;" x="371.700668" xlink:href="#mc6542accef" y="307.584"/>
      </g>
     </g>
     <g id="text_5">
      <!-- 80 -->
      <defs>
       <path d="M 31.78125 34.625 
Q 24.75 34.625 20.71875 30.859375 
Q 16.703125 27.09375 16.703125 20.515625 
Q 16.703125 13.921875 20.71875 10.15625 
Q 24.75 6.390625 31.78125 6.390625 
Q 38.8125 6.390625 42.859375 10.171875 
Q 46.921875 13.96875 46.921875 20.515625 
Q 46.921875 27.09375 42.890625 30.859375 
Q 38.875 34.625 31.78125 34.625 
z
M 21.921875 38.8125 
Q 15.578125 40.375 12.03125 44.71875 
Q 8.5 49.078125 8.5 55.328125 
Q 8.5 64.0625 14.71875 69.140625 
Q 20.953125 74.21875 31.78125 74.21875 
Q 42.671875 74.21875 48.875 69.140625 
Q 55.078125 64.0625 55.078125 55.328125 
Q 55.078125 49.078125 51.53125 44.71875 
Q 48 40.375 41.703125 38.8125 
Q 48.828125 37.15625 52.796875 32.3125 
Q 56.78125 27.484375 56.78125 20.515625 
Q 56.78125 9.90625 50.3125 4.234375 
Q 43.84375 -1.421875 31.78125 -1.421875 
Q 19.734375 -1.421875 13.25 4.234375 
Q 6.78125 9.90625 6.78125 20.515625 
Q 6.78125 27.484375 10.78125 32.3125 
Q 14.796875 37.15625 21.921875 38.8125 
z
M 18.3125 54.390625 
Q 18.3125 48.734375 21.84375 45.5625 
Q 25.390625 42.390625 31.78125 42.390625 
Q 38.140625 42.390625 41.71875 45.5625 
Q 45.3125 48.734375 45.3125 54.390625 
Q 45.3125 60.0625 41.71875 63.234375 
Q 38.140625 66.40625 31.78125 66.40625 
Q 25.390625 66.40625 21.84375 63.234375 
Q 18.3125 60.0625 18.3125 54.390625 
z
" id="DejaVuSans-56"/>
      </defs>
      <g transform="translate(365.338168 322.182437)scale(0.1 -0.1)">
       <use xlink:href="#DejaVuSans-56"/>
       <use x="63.623047" xlink:href="#DejaVuSans-48"/>
      </g>
     </g>
    </g>
   </g>
   <g id="matplotlib.axis_2">
    <g id="ytick_1">
     <g id="line2d_6">
      <defs>
       <path d="M 0 0 
L -3.5 0 
" id="m018a6268ca" style="stroke:#000000;stroke-width:0.8;"/>
      </defs>
      <g>
       <use style="stroke:#000000;stroke-width:0.8;" x="57.6" xlink:href="#m018a6268ca" y="289.124334"/>
      </g>
     </g>
     <g id="text_6">
      <!-- −20 -->
      <defs>
       <path d="M 10.59375 35.5 
L 73.1875 35.5 
L 73.1875 27.203125 
L 10.59375 27.203125 
z
" id="DejaVuSans-8722"/>
      </defs>
      <g transform="translate(29.495313 292.923553)scale(0.1 -0.1)">
       <use xlink:href="#DejaVuSans-8722"/>
       <use x="83.789062" xlink:href="#DejaVuSans-50"/>
       <use x="147.412109" xlink:href="#DejaVuSans-48"/>
      </g>
     </g>
    </g>
    <g id="ytick_2">
     <g id="line2d_7">
      <g>
       <use style="stroke:#000000;stroke-width:0.8;" x="57.6" xlink:href="#m018a6268ca" y="251.890842"/>
      </g>
     </g>
     <g id="text_7">
      <!-- −10 -->
      <defs>
       <path d="M 12.40625 8.296875 
L 28.515625 8.296875 
L 28.515625 63.921875 
L 10.984375 60.40625 
L 10.984375 69.390625 
L 28.421875 72.90625 
L 38.28125 72.90625 
L 38.28125 8.296875 
L 54.390625 8.296875 
L 54.390625 0 
L 12.40625 0 
z
" id="DejaVuSans-49"/>
      </defs>
      <g transform="translate(29.495313 255.69006)scale(0.1 -0.1)">
       <use xlink:href="#DejaVuSans-8722"/>
       <use x="83.789062" xlink:href="#DejaVuSans-49"/>
       <use x="147.412109" xlink:href="#DejaVuSans-48"/>
      </g>
     </g>
    </g>
    <g id="ytick_3">
     <g id="line2d_8">
      <g>
       <use style="stroke:#000000;stroke-width:0.8;" x="57.6" xlink:href="#m018a6268ca" y="214.657349"/>
      </g>
     </g>
     <g id="text_8">
      <!-- 0 -->
      <g transform="translate(44.2375 218.456568)scale(0.1 -0.1)">
       <use xlink:href="#DejaVuSans-48"/>
      </g>
     </g>
    </g>
    <g id="ytick_4">
     <g id="line2d_9">
      <g>
       <use style="stroke:#000000;stroke-width:0.8;" x="57.6" xlink:href="#m018a6268ca" y="177.423856"/>
      </g>
     </g>
     <g id="text_9">
      <!-- 10 -->
      <g transform="translate(37.875 181.223075)scale(0.1 -0.1)">
       <use xlink:href="#DejaVuSans-49"/>
       <use x="63.623047" xlink:href="#DejaVuSans-48"/>
      </g>
     </g>
    </g>
    <g id="ytick_5">
     <g id="line2d_10">
      <g>
       <use style="stroke:#000000;stroke-width:0.8;" x="57.6" xlink:href="#m018a6268ca" y="140.190364"/>
      </g>
     </g>
     <g id="text_10">
      <!-- 20 -->
      <g transform="translate(37.875 143.989583)scale(0.1 -0.1)">
       <use xlink:href="#DejaVuSans-50"/>
       <use x="63.623047" xlink:href="#DejaVuSans-48"/>
      </g>
     </g>
    </g>
    <g id="ytick_6">
     <g id="line2d_11">
      <g>
       <use style="stroke:#000000;stroke-width:0.8;" x="57.6" xlink:href="#m018a6268ca" y="102.956871"/>
      </g>
     </g>
     <g id="text_11">
      <!-- 30 -->
      <defs>
       <path d="M 40.578125 39.3125 
Q 47.65625 37.796875 51.625 33 
Q 55.609375 28.21875 55.609375 21.1875 
Q 55.609375 10.40625 48.1875 4.484375 
Q 40.765625 -1.421875 27.09375 -1.421875 
Q 22.515625 -1.421875 17.65625 -0.515625 
Q 12.796875 0.390625 7.625 2.203125 
L 7.625 11.71875 
Q 11.71875 9.328125 16.59375 8.109375 
Q 21.484375 6.890625 26.8125 6.890625 
Q 36.078125 6.890625 40.9375 10.546875 
Q 45.796875 14.203125 45.796875 21.1875 
Q 45.796875 27.640625 41.28125 31.265625 
Q 36.765625 34.90625 28.71875 34.90625 
L 20.21875 34.90625 
L 20.21875 43.015625 
L 29.109375 43.015625 
Q 36.375 43.015625 40.234375 45.921875 
Q 44.09375 48.828125 44.09375 54.296875 
Q 44.09375 59.90625 40.109375 62.90625 
Q 36.140625 65.921875 28.71875 65.921875 
Q 24.65625 65.921875 20.015625 65.03125 
Q 15.375 64.15625 9.8125 62.3125 
L 9.8125 71.09375 
Q 15.4375 72.65625 20.34375 73.4375 
Q 25.25 74.21875 29.59375 74.21875 
Q 40.828125 74.21875 47.359375 69.109375 
Q 53.90625 64.015625 53.90625 55.328125 
Q 53.90625 49.265625 50.4375 45.09375 
Q 46.96875 40.921875 40.578125 39.3125 
z
" id="DejaVuSans-51"/>
      </defs>
      <g transform="translate(37.875 106.75609)scale(0.1 -0.1)">
       <use xlink:href="#DejaVuSans-51"/>
       <use x="63.623047" xlink:href="#DejaVuSans-48"/>
      </g>
     </g>
    </g>
    <g id="ytick_7">
     <g id="line2d_12">
      <g>
       <use style="stroke:#000000;stroke-width:0.8;" x="57.6" xlink:href="#m018a6268ca" y="65.723379"/>
      </g>
     </g>
     <g id="text_12">
      <!-- 40 -->
      <g transform="translate(37.875 69.522597)scale(0.1 -0.1)">
       <use xlink:href="#DejaVuSans-52"/>
       <use x="63.623047" xlink:href="#DejaVuSans-48"/>
      </g>
     </g>
    </g>
   </g>
   <g id="line2d_13">
    <path clip-path="url(#pd8a4c75c3f)" d="M 73.832727 214.657349 
L 74.024653 210.9313 
L 74.378061 207.226813 
L 74.904755 203.536854 
L 75.566878 199.898568 
L 76.428514 196.283963 
L 77.450218 192.735566 
L 78.628695 189.241012 
L 79.981209 185.823908 
L 81.467447 182.464375 
L 83.098971 179.183538 
L 84.877268 175.993454 
L 86.801406 172.897749 
L 88.862734 169.907229 
L 91.077192 167.035484 
L 93.388219 164.278269 
L 95.850608 161.646866 
L 98.416673 159.134164 
L 101.072687 156.741279 
L 103.841634 154.506636 
L 106.691087 152.396465 
L 109.642035 150.435711 
L 112.688558 148.62069 
L 115.807496 146.934795 
L 119.028379 145.382903 
L 122.325107 143.970078 
L 125.672249 142.665304 
L 129.108342 141.472752 
L 132.617673 140.381811 
L 136.184269 139.40998 
L 139.776817 138.541285 
L 143.42488 137.787158 
L 147.151655 137.150279 
L 150.938525 136.620036 
L 154.784186 136.189617 
L 158.690687 135.866877 
L 162.648197 135.667678 
L 166.659995 135.570834 
L 170.727232 135.572398 
L 174.836879 135.664104 
L 178.989382 135.835192 
L 183.188314 136.067082 
L 187.405715 136.356796 
L 191.646796 136.691003 
L 195.909509 137.074062 
L 200.211839 137.514795 
L 204.577131 138.010968 
L 209.024262 138.563327 
L 213.55811 139.151914 
L 218.177037 139.777623 
L 222.85617 140.441571 
L 227.62753 141.1343 
L 232.472687 141.863444 
L 237.409811 142.618502 
L 242.431083 143.401634 
L 247.521385 144.202973 
L 252.686006 145.032796 
L 257.922599 145.875241 
L 263.244158 146.743675 
L 268.624733 147.615795 
L 274.089865 148.500054 
L 279.643129 149.392057 
L 285.270189 150.282607 
L 290.977339 151.185482 
L 296.749796 152.084411 
L 302.630007 152.998344 
L 308.573664 153.911533 
L 314.589927 154.839689 
L 320.663715 155.775218 
L 326.773172 156.706056 
L 332.946038 157.650446 
L 339.171553 158.581916 
L 345.449455 159.525413 
L 351.806031 160.468389 
L 358.206617 161.428976 
L 364.671245 162.39027 
L 371.194926 163.364075 
L 377.756919 164.337359 
L 384.371784 165.325573 
L 391.038888 166.328271 
L 397.784145 167.344336 
" style="fill:none;stroke:#008000;stroke-linecap:square;stroke-width:1.5;"/>
   </g>
   <g id="line2d_14">
    <path clip-path="url(#pd8a4c75c3f)" d="M 73.832727 214.657349 
L 73.948769 210.928535 
L 74.321729 207.225286 
L 74.908388 203.544025 
L 75.688303 199.930129 
L 76.549146 196.315089 
L 77.540904 192.757446 
L 78.731415 189.265824 
L 79.997052 185.81508 
L 81.472269 182.45019 
L 83.086111 179.158472 
L 84.843564 175.954872 
L 86.774635 172.86144 
L 88.762921 169.822699 
L 90.958935 166.935256 
L 93.282883 164.189537 
L 95.704186 161.519875 
L 98.281876 159.019376 
L 101.018058 156.718945 
L 103.863953 154.58676 
L 106.666315 152.415373 
L 109.529307 150.326445 
L 112.589753 148.534037 
L 115.686268 146.80731 
L 118.830371 145.105555 
L 122.14355 143.729932 
L 125.496007 142.441076 
L 128.916968 141.204589 
L 132.411454 140.066374 
L 135.959563 139.030425 
L 139.534656 138.092469 
L 143.169633 137.277684 
L 146.891895 136.614357 
L 150.653428 135.926686 
L 154.483061 135.37171 
L 158.385454 135.010126 
L 162.337276 134.719223 
L 166.348882 134.626946 
L 170.414458 134.518487 
L 174.525086 134.514144 
L 178.679856 134.61555 
L 182.881851 134.779794 
L 187.103474 135.000332 
L 191.350538 135.248083 
L 195.61533 135.608035 
L 199.926314 135.955588 
L 204.300187 136.370635 
L 208.754116 136.866421 
L 213.303298 137.32324 
L 217.933066 137.864186 
L 222.6235 138.443653 
L 227.402451 139.082456 
L 232.257765 139.740664 
L 237.210276 140.387572 
L 242.241944 141.101215 
L 247.355347 141.740506 
L 252.528547 142.515843 
L 257.785289 143.223363 
L 263.123544 143.984579 
L 268.521532 144.742805 
L 274.001557 145.53044 
L 279.575395 146.284159 
L 285.221328 147.045605 
L 290.954002 147.769913 
L 296.746316 148.531379 
L 302.638718 149.363404 
L 308.598834 150.162299 
L 314.622307 151.042109 
L 320.714849 151.847082 
L 326.845975 152.621008 
L 333.040836 153.408623 
L 339.28878 154.17454 
L 345.584941 154.987477 
L 351.966964 155.739444 
L 358.394472 156.49995 
L 364.888825 157.234213 
L 371.418983 158.163934 
L 378.0055 158.954637 
L 384.646871 159.74302 
L 391.330949 160.625001 
L 398.092713 161.524575 
" style="fill:none;stroke:#0000ff;stroke-linecap:square;stroke-width:1.5;"/>
   </g>
   <g id="line2d_15">
    <path clip-path="url(#pd8a4c75c3f)" d="M 73.832727 214.657349 
L 74.102178 210.935023 
L 74.444865 207.228531 
L 75.014384 203.543412 
L 75.819114 199.952746 
L 76.560279 196.320325 
L 77.806492 192.859783 
L 79.26587 189.47003 
L 80.572894 186.033429 
L 82.044489 182.667254 
L 83.646295 179.370405 
L 85.39074 176.160843 
L 87.309416 173.061166 
L 89.283088 170.015308 
L 91.46649 167.120115 
L 93.77798 164.366822 
L 96.18656 161.688249 
L 98.750879 159.177269 
L 101.476715 156.868138 
L 104.314169 154.730025 
L 107.104577 152.547484 
L 109.957588 150.447454 
L 113.009388 148.644244 
L 116.097255 146.906468 
L 119.232824 145.194036 
L 122.538544 143.805442 
L 125.884227 142.506716 
L 129.298947 141.257799 
L 132.787505 140.107364 
L 136.335011 139.09441 
L 139.899328 138.116669 
L 143.528112 137.279262 
L 147.24599 136.599115 
L 151.003342 135.896279 
L 154.829357 135.327363 
L 158.728096 134.951714 
L 162.67794 134.647235 
L 166.687446 134.540437 
L 170.750934 134.417786 
L 174.860405 134.398651 
L 179.01441 134.485155 
L 183.216854 134.6346 
L 187.438523 134.840195 
L 191.685854 135.073115 
L 195.95143 135.417752 
L 200.263124 135.750119 
L 204.638091 136.149863 
L 209.093505 136.628978 
L 213.643604 137.069814 
L 218.274835 137.593687 
L 222.966891 138.156738 
L 227.747575 138.779666 
L 232.603733 139.42084 
L 237.558076 140.048892 
L 242.591898 140.745065 
L 247.706529 141.366278 
L 252.882373 142.123007 
L 258.140936 142.812617 
L 263.48074 143.554751 
L 268.880679 144.292968 
L 274.362246 145.062211 
L 279.937916 145.796075 
L 285.586226 146.537495 
L 291.320275 147.240911 
L 297.114454 147.98197 
L 303.009061 148.793037 
L 308.970368 149.571291 
L 314.996714 150.428365 
L 321.090981 151.212027 
L 327.222511 151.964601 
L 333.418732 152.729864 
L 339.668922 153.473499 
L 345.966696 154.26406 
L 352.350324 154.993456 
L 358.779239 155.731148 
L 365.275365 156.441993 
L 371.807703 157.348768 
L 378.395741 158.116486 
L 385.037427 158.880905 
L 391.72395 159.738895 
L 398.487273 160.614585 
" style="fill:none;stroke:#ff0000;stroke-linecap:square;stroke-width:1.5;"/>
   </g>
   <g id="patch_3">
    <path d="M 57.6 307.584 
L 57.6 41.472 
" style="fill:none;stroke:#000000;stroke-linecap:square;stroke-linejoin:miter;stroke-width:0.8;"/>
   </g>
   <g id="patch_4">
    <path d="M 414.72 307.584 
L 414.72 41.472 
" style="fill:none;stroke:#000000;stroke-linecap:square;stroke-linejoin:miter;stroke-width:0.8;"/>
   </g>
   <g id="patch_5">
    <path d="M 57.6 307.584 
L 414.72 307.584 
" style="fill:none;stroke:#000000;stroke-linecap:square;stroke-linejoin:miter;stroke-width:0.8;"/>
   </g>
   <g id="patch_6">
    <path d="M 57.6 41.472 
L 414.72 41.472 
" style="fill:none;stroke:#000000;stroke-linecap:square;stroke-linejoin:miter;stroke-width:0.8;"/>
   </g>
  </g>
 </g>
 <defs>
  <clipPath id="pd8a4c75c3f">
   <rect height="266.112" width="357.12" x="57.6" y="41.472"/>
  </clipPath>
 </defs>
</svg>
