<?xml version="1.0" encoding="utf-8" standalone="no"?>
<!DOCTYPE svg PUBLIC "-//W3C//DTD SVG 1.1//EN"
  "http://www.w3.org/Graphics/SVG/1.1/DTD/svg11.dtd">
<!-- Created with matplotlib (https://matplotlib.org/) -->
<svg height="345.6pt" version="1.1" viewBox="0 0 460.8 345.6" width="460.8pt" xmlns="http://www.w3.org/2000/svg" xmlns:xlink="http://www.w3.org/1999/xlink">
 <defs>
  <style type="text/css">
*{stroke-linecap:butt;stroke-linejoin:round;}
  </style>
 </defs>
 <g id="figure_1">
  <g id="patch_1">
   <path d="M 0 345.6 
L 460.8 345.6 
L 460.8 0 
L 0 0 
z
" style="fill:#ffffff;"/>
  </g>
  <g id="axes_1">
   <g id="patch_2">
    <path d="M 57.6 307.584 
L 414.72 307.584 
L 414.72 41.472 
L 57.6 41.472 
z
" style="fill:#ffffff;"/>
   </g>
   <g id="matplotlib.axis_1">
    <g id="xtick_1">
     <g id="line2d_1">
      <defs>
       <path d="M 0 0 
L 0 3.5 
" id="me8a1d46b5f" style="stroke:#000000;stroke-width:0.8;"/>
      </defs>
      <g>
       <use style="stroke:#000000;stroke-width:0.8;" x="73.832727" xlink:href="#me8a1d46b5f" y="307.584"/>
      </g>
     </g>
     <g id="text_1">
      <!-- 0 -->
      <defs>
       <path d="M 31.78125 66.40625 
Q 24.171875 66.40625 20.328125 58.90625 
Q 16.5 51.421875 16.5 36.375 
Q 16.5 21.390625 20.328125 13.890625 
Q 24.171875 6.390625 31.78125 6.390625 
Q 39.453125 6.390625 43.28125 13.890625 
Q 47.125 21.390625 47.125 36.375 
Q 47.125 51.421875 43.28125 58.90625 
Q 39.453125 66.40625 31.78125 66.40625 
z
M 31.78125 74.21875 
Q 44.046875 74.21875 50.515625 64.515625 
Q 56.984375 54.828125 56.984375 36.375 
Q 56.984375 17.96875 50.515625 8.265625 
Q 44.046875 -1.421875 31.78125 -1.421875 
Q 19.53125 -1.421875 13.0625 8.265625 
Q 6.59375 17.96875 6.59375 36.375 
Q 6.59375 54.828125 13.0625 64.515625 
Q 19.53125 74.21875 31.78125 74.21875 
z
" id="DejaVuSans-48"/>
      </defs>
      <g transform="translate(70.651477 322.182437)scale(0.1 -0.1)">
       <use xlink:href="#DejaVuSans-48"/>
      </g>
     </g>
    </g>
    <g id="xtick_2">
     <g id="line2d_2">
      <g>
       <use style="stroke:#000000;stroke-width:0.8;" x="135.13711" xlink:href="#me8a1d46b5f" y="307.584"/>
      </g>
     </g>
     <g id="text_2">
      <!-- 20 -->
      <defs>
       <path d="M 19.1875 8.296875 
L 53.609375 8.296875 
L 53.609375 0 
L 7.328125 0 
L 7.328125 8.296875 
Q 12.9375 14.109375 22.625 23.890625 
Q 32.328125 33.6875 34.8125 36.53125 
Q 39.546875 41.84375 41.421875 45.53125 
Q 43.3125 49.21875 43.3125 52.78125 
Q 43.3125 58.59375 39.234375 62.25 
Q 35.15625 65.921875 28.609375 65.921875 
Q 23.96875 65.921875 18.8125 64.3125 
Q 13.671875 62.703125 7.8125 59.421875 
L 7.8125 69.390625 
Q 13.765625 71.78125 18.9375 73 
Q 24.125 74.21875 28.421875 74.21875 
Q 39.75 74.21875 46.484375 68.546875 
Q 53.21875 62.890625 53.21875 53.421875 
Q 53.21875 48.921875 51.53125 44.890625 
Q 49.859375 40.875 45.40625 35.40625 
Q 44.1875 33.984375 37.640625 27.21875 
Q 31.109375 20.453125 19.1875 8.296875 
z
" id="DejaVuSans-50"/>
      </defs>
      <g transform="translate(128.77461 322.182437)scale(0.1 -0.1)">
       <use xlink:href="#DejaVuSans-50"/>
       <use x="63.623047" xlink:href="#DejaVuSans-48"/>
      </g>
     </g>
    </g>
    <g id="xtick_3">
     <g id="line2d_3">
      <g>
       <use style="stroke:#000000;stroke-width:0.8;" x="196.441492" xlink:href="#me8a1d46b5f" y="307.584"/>
      </g>
     </g>
     <g id="text_3">
      <!-- 40 -->
      <defs>
       <path d="M 37.796875 64.3125 
L 12.890625 25.390625 
L 37.796875 25.390625 
z
M 35.203125 72.90625 
L 47.609375 72.90625 
L 47.609375 25.390625 
L 58.015625 25.390625 
L 58.015625 17.1875 
L 47.609375 17.1875 
L 47.609375 0 
L 37.796875 0 
L 37.796875 17.1875 
L 4.890625 17.1875 
L 4.890625 26.703125 
z
" id="DejaVuSans-52"/>
      </defs>
      <g transform="translate(190.078992 322.182437)scale(0.1 -0.1)">
       <use xlink:href="#DejaVuSans-52"/>
       <use x="63.623047" xlink:href="#DejaVuSans-48"/>
      </g>
     </g>
    </g>
    <g id="xtick_4">
     <g id="line2d_4">
      <g>
       <use style="stroke:#000000;stroke-width:0.8;" x="257.745874" xlink:href="#me8a1d46b5f" y="307.584"/>
      </g>
     </g>
     <g id="text_4">
      <!-- 60 -->
      <defs>
       <path d="M 33.015625 40.375 
Q 26.375 40.375 22.484375 35.828125 
Q 18.609375 31.296875 18.609375 23.390625 
Q 18.609375 15.53125 22.484375 10.953125 
Q 26.375 6.390625 33.015625 6.390625 
Q 39.65625 6.390625 43.53125 10.953125 
Q 47.40625 15.53125 47.40625 23.390625 
Q 47.40625 31.296875 43.53125 35.828125 
Q 39.65625 40.375 33.015625 40.375 
z
M 52.59375 71.296875 
L 52.59375 62.3125 
Q 48.875 64.0625 45.09375 64.984375 
Q 41.3125 65.921875 37.59375 65.921875 
Q 27.828125 65.921875 22.671875 59.328125 
Q 17.53125 52.734375 16.796875 39.40625 
Q 19.671875 43.65625 24.015625 45.921875 
Q 28.375 48.1875 33.59375 48.1875 
Q 44.578125 48.1875 50.953125 41.515625 
Q 57.328125 34.859375 57.328125 23.390625 
Q 57.328125 12.15625 50.6875 5.359375 
Q 44.046875 -1.421875 33.015625 -1.421875 
Q 20.359375 -1.421875 13.671875 8.265625 
Q 6.984375 17.96875 6.984375 36.375 
Q 6.984375 53.65625 15.1875 63.9375 
Q 23.390625 74.21875 37.203125 74.21875 
Q 40.921875 74.21875 44.703125 73.484375 
Q 48.484375 72.75 52.59375 71.296875 
z
" id="DejaVuSans-54"/>
      </defs>
      <g transform="translate(251.383374 322.182437)scale(0.1 -0.1)">
       <use xlink:href="#DejaVuSans-54"/>
       <use x="63.623047" xlink:href="#DejaVuSans-48"/>
      </g>
     </g>
    </g>
    <g id="xtick_5">
     <g id="line2d_5">
      <g>
       <use style="stroke:#000000;stroke-width:0.8;" x="319.050256" xlink:href="#me8a1d46b5f" y="307.584"/>
      </g>
     </g>
     <g id="text_5">
      <!-- 80 -->
      <defs>
       <path d="M 31.78125 34.625 
Q 24.75 34.625 20.71875 30.859375 
Q 16.703125 27.09375 16.703125 20.515625 
Q 16.703125 13.921875 20.71875 10.15625 
Q 24.75 6.390625 31.78125 6.390625 
Q 38.8125 6.390625 42.859375 10.171875 
Q 46.921875 13.96875 46.921875 20.515625 
Q 46.921875 27.09375 42.890625 30.859375 
Q 38.875 34.625 31.78125 34.625 
z
M 21.921875 38.8125 
Q 15.578125 40.375 12.03125 44.71875 
Q 8.5 49.078125 8.5 55.328125 
Q 8.5 64.0625 14.71875 69.140625 
Q 20.953125 74.21875 31.78125 74.21875 
Q 42.671875 74.21875 48.875 69.140625 
Q 55.078125 64.0625 55.078125 55.328125 
Q 55.078125 49.078125 51.53125 44.71875 
Q 48 40.375 41.703125 38.8125 
Q 48.828125 37.15625 52.796875 32.3125 
Q 56.78125 27.484375 56.78125 20.515625 
Q 56.78125 9.90625 50.3125 4.234375 
Q 43.84375 -1.421875 31.78125 -1.421875 
Q 19.734375 -1.421875 13.25 4.234375 
Q 6.78125 9.90625 6.78125 20.515625 
Q 6.78125 27.484375 10.78125 32.3125 
Q 14.796875 37.15625 21.921875 38.8125 
z
M 18.3125 54.390625 
Q 18.3125 48.734375 21.84375 45.5625 
Q 25.390625 42.390625 31.78125 42.390625 
Q 38.140625 42.390625 41.71875 45.5625 
Q 45.3125 48.734375 45.3125 54.390625 
Q 45.3125 60.0625 41.71875 63.234375 
Q 38.140625 66.40625 31.78125 66.40625 
Q 25.390625 66.40625 21.84375 63.234375 
Q 18.3125 60.0625 18.3125 54.390625 
z
" id="DejaVuSans-56"/>
      </defs>
      <g transform="translate(312.687756 322.182437)scale(0.1 -0.1)">
       <use xlink:href="#DejaVuSans-56"/>
       <use x="63.623047" xlink:href="#DejaVuSans-48"/>
      </g>
     </g>
    </g>
    <g id="xtick_6">
     <g id="line2d_6">
      <g>
       <use style="stroke:#000000;stroke-width:0.8;" x="380.354638" xlink:href="#me8a1d46b5f" y="307.584"/>
      </g>
     </g>
     <g id="text_6">
      <!-- 100 -->
      <defs>
       <path d="M 12.40625 8.296875 
L 28.515625 8.296875 
L 28.515625 63.921875 
L 10.984375 60.40625 
L 10.984375 69.390625 
L 28.421875 72.90625 
L 38.28125 72.90625 
L 38.28125 8.296875 
L 54.390625 8.296875 
L 54.390625 0 
L 12.40625 0 
z
" id="DejaVuSans-49"/>
      </defs>
      <g transform="translate(370.810888 322.182437)scale(0.1 -0.1)">
       <use xlink:href="#DejaVuSans-49"/>
       <use x="63.623047" xlink:href="#DejaVuSans-48"/>
       <use x="127.246094" xlink:href="#DejaVuSans-48"/>
      </g>
     </g>
    </g>
   </g>
   <g id="matplotlib.axis_2">
    <g id="ytick_1">
     <g id="line2d_7">
      <defs>
       <path d="M 0 0 
L -3.5 0 
" id="m2d25707cea" style="stroke:#000000;stroke-width:0.8;"/>
      </defs>
      <g>
       <use style="stroke:#000000;stroke-width:0.8;" x="57.6" xlink:href="#m2d25707cea" y="299.652684"/>
      </g>
     </g>
     <g id="text_7">
      <!-- −30 -->
      <defs>
       <path d="M 10.59375 35.5 
L 73.1875 35.5 
L 73.1875 27.203125 
L 10.59375 27.203125 
z
" id="DejaVuSans-8722"/>
       <path d="M 40.578125 39.3125 
Q 47.65625 37.796875 51.625 33 
Q 55.609375 28.21875 55.609375 21.1875 
Q 55.609375 10.40625 48.1875 4.484375 
Q 40.765625 -1.421875 27.09375 -1.421875 
Q 22.515625 -1.421875 17.65625 -0.515625 
Q 12.796875 0.390625 7.625 2.203125 
L 7.625 11.71875 
Q 11.71875 9.328125 16.59375 8.109375 
Q 21.484375 6.890625 26.8125 6.890625 
Q 36.078125 6.890625 40.9375 10.546875 
Q 45.796875 14.203125 45.796875 21.1875 
Q 45.796875 27.640625 41.28125 31.265625 
Q 36.765625 34.90625 28.71875 34.90625 
L 20.21875 34.90625 
L 20.21875 43.015625 
L 29.109375 43.015625 
Q 36.375 43.015625 40.234375 45.921875 
Q 44.09375 48.828125 44.09375 54.296875 
Q 44.09375 59.90625 40.109375 62.90625 
Q 36.140625 65.921875 28.71875 65.921875 
Q 24.65625 65.921875 20.015625 65.03125 
Q 15.375 64.15625 9.8125 62.3125 
L 9.8125 71.09375 
Q 15.4375 72.65625 20.34375 73.4375 
Q 25.25 74.21875 29.59375 74.21875 
Q 40.828125 74.21875 47.359375 69.109375 
Q 53.90625 64.015625 53.90625 55.328125 
Q 53.90625 49.265625 50.4375 45.09375 
Q 46.96875 40.921875 40.578125 39.3125 
z
" id="DejaVuSans-51"/>
      </defs>
      <g transform="translate(29.495313 303.451903)scale(0.1 -0.1)">
       <use xlink:href="#DejaVuSans-8722"/>
       <use x="83.789062" xlink:href="#DejaVuSans-51"/>
       <use x="147.412109" xlink:href="#DejaVuSans-48"/>
      </g>
     </g>
    </g>
    <g id="ytick_2">
     <g id="line2d_8">
      <g>
       <use style="stroke:#000000;stroke-width:0.8;" x="57.6" xlink:href="#m2d25707cea" y="269.000493"/>
      </g>
     </g>
     <g id="text_8">
      <!-- −20 -->
      <g transform="translate(29.495313 272.799712)scale(0.1 -0.1)">
       <use xlink:href="#DejaVuSans-8722"/>
       <use x="83.789062" xlink:href="#DejaVuSans-50"/>
       <use x="147.412109" xlink:href="#DejaVuSans-48"/>
      </g>
     </g>
    </g>
    <g id="ytick_3">
     <g id="line2d_9">
      <g>
       <use style="stroke:#000000;stroke-width:0.8;" x="57.6" xlink:href="#m2d25707cea" y="238.348302"/>
      </g>
     </g>
     <g id="text_9">
      <!-- −10 -->
      <g transform="translate(29.495313 242.147521)scale(0.1 -0.1)">
       <use xlink:href="#DejaVuSans-8722"/>
       <use x="83.789062" xlink:href="#DejaVuSans-49"/>
       <use x="147.412109" xlink:href="#DejaVuSans-48"/>
      </g>
     </g>
    </g>
    <g id="ytick_4">
     <g id="line2d_10">
      <g>
       <use style="stroke:#000000;stroke-width:0.8;" x="57.6" xlink:href="#m2d25707cea" y="207.696111"/>
      </g>
     </g>
     <g id="text_10">
      <!-- 0 -->
      <g transform="translate(44.2375 211.495329)scale(0.1 -0.1)">
       <use xlink:href="#DejaVuSans-48"/>
      </g>
     </g>
    </g>
    <g id="ytick_5">
     <g id="line2d_11">
      <g>
       <use style="stroke:#000000;stroke-width:0.8;" x="57.6" xlink:href="#m2d25707cea" y="177.04392"/>
      </g>
     </g>
     <g id="text_11">
      <!-- 10 -->
      <g transform="translate(37.875 180.843138)scale(0.1 -0.1)">
       <use xlink:href="#DejaVuSans-49"/>
       <use x="63.623047" xlink:href="#DejaVuSans-48"/>
      </g>
     </g>
    </g>
    <g id="ytick_6">
     <g id="line2d_12">
      <g>
       <use style="stroke:#000000;stroke-width:0.8;" x="57.6" xlink:href="#m2d25707cea" y="146.391728"/>
      </g>
     </g>
     <g id="text_12">
      <!-- 20 -->
      <g transform="translate(37.875 150.190947)scale(0.1 -0.1)">
       <use xlink:href="#DejaVuSans-50"/>
       <use x="63.623047" xlink:href="#DejaVuSans-48"/>
      </g>
     </g>
    </g>
    <g id="ytick_7">
     <g id="line2d_13">
      <g>
       <use style="stroke:#000000;stroke-width:0.8;" x="57.6" xlink:href="#m2d25707cea" y="115.739537"/>
      </g>
     </g>
     <g id="text_13">
      <!-- 30 -->
      <g transform="translate(37.875 119.538756)scale(0.1 -0.1)">
       <use xlink:href="#DejaVuSans-51"/>
       <use x="63.623047" xlink:href="#DejaVuSans-48"/>
      </g>
     </g>
    </g>
    <g id="ytick_8">
     <g id="line2d_14">
      <g>
       <use style="stroke:#000000;stroke-width:0.8;" x="57.6" xlink:href="#m2d25707cea" y="85.087346"/>
      </g>
     </g>
     <g id="text_14">
      <!-- 40 -->
      <g transform="translate(37.875 88.886565)scale(0.1 -0.1)">
       <use xlink:href="#DejaVuSans-52"/>
       <use x="63.623047" xlink:href="#DejaVuSans-48"/>
      </g>
     </g>
    </g>
    <g id="ytick_9">
     <g id="line2d_15">
      <g>
       <use style="stroke:#000000;stroke-width:0.8;" x="57.6" xlink:href="#m2d25707cea" y="54.435155"/>
      </g>
     </g>
     <g id="text_15">
      <!-- 50 -->
      <defs>
       <path d="M 10.796875 72.90625 
L 49.515625 72.90625 
L 49.515625 64.59375 
L 19.828125 64.59375 
L 19.828125 46.734375 
Q 21.96875 47.46875 24.109375 47.828125 
Q 26.265625 48.1875 28.421875 48.1875 
Q 40.625 48.1875 47.75 41.5 
Q 54.890625 34.8125 54.890625 23.390625 
Q 54.890625 11.625 47.5625 5.09375 
Q 40.234375 -1.421875 26.90625 -1.421875 
Q 22.3125 -1.421875 17.546875 -0.640625 
Q 12.796875 0.140625 7.71875 1.703125 
L 7.71875 11.625 
Q 12.109375 9.234375 16.796875 8.0625 
Q 21.484375 6.890625 26.703125 6.890625 
Q 35.15625 6.890625 40.078125 11.328125 
Q 45.015625 15.765625 45.015625 23.390625 
Q 45.015625 31 40.078125 35.4375 
Q 35.15625 39.890625 26.703125 39.890625 
Q 22.75 39.890625 18.8125 39.015625 
Q 14.890625 38.140625 10.796875 36.28125 
z
" id="DejaVuSans-53"/>
      </defs>
      <g transform="translate(37.875 58.234374)scale(0.1 -0.1)">
       <use xlink:href="#DejaVuSans-53"/>
       <use x="63.623047" xlink:href="#DejaVuSans-48"/>
      </g>
     </g>
    </g>
   </g>
   <g id="line2d_16">
    <path clip-path="url(#p2843f150b8)" d="M 73.832727 207.696111 
L 73.990729 204.628669 
L 74.281669 201.578978 
L 74.715266 198.541247 
L 75.260354 195.546056 
L 75.969689 192.570359 
L 76.810799 189.649169 
L 77.780972 186.772304 
L 78.894419 183.959199 
L 80.117953 181.193488 
L 81.461092 178.492564 
L 82.925062 175.866351 
L 84.509094 173.317836 
L 86.206067 170.855913 
L 88.029103 168.49177 
L 89.931638 166.221914 
L 91.958781 164.055632 
L 94.071275 161.987068 
L 96.257818 160.017144 
L 98.537333 158.177491 
L 100.883123 156.440309 
L 103.312469 154.826133 
L 105.820496 153.331931 
L 108.388138 151.94403 
L 111.039706 150.666447 
L 113.753712 149.503349 
L 116.509221 148.429204 
L 119.337959 147.447445 
L 122.226989 146.549336 
L 125.163162 145.749283 
L 128.1207 145.034137 
L 131.123941 144.413307 
L 134.19198 143.889001 
L 137.309492 143.452483 
L 140.475403 143.098144 
L 143.6914 142.832451 
L 146.949391 142.668462 
L 150.252073 142.588735 
L 153.600396 142.590023 
L 156.983631 142.665519 
L 160.402147 142.806366 
L 163.858887 142.997268 
L 167.33083 143.235772 
L 170.822268 143.510907 
L 174.331515 143.826256 
L 177.873375 144.189086 
L 181.467069 144.597557 
L 185.128136 145.052283 
L 188.860592 145.536833 
L 192.663088 146.051943 
L 196.515149 146.598533 
L 200.443135 147.168817 
L 204.431874 147.769079 
L 208.496324 148.390675 
L 212.630048 149.035382 
L 216.820601 149.695079 
L 221.072336 150.378224 
L 225.383321 151.071761 
L 229.764255 151.786692 
L 234.193773 152.504659 
L 238.692901 153.232618 
L 243.264583 153.966952 
L 247.897018 154.700092 
L 252.595386 155.443377 
L 257.347518 156.183413 
L 262.188357 156.935801 
L 267.081428 157.687577 
L 272.03427 158.451675 
L 277.03447 159.221842 
L 282.064035 159.988147 
L 287.145801 160.765609 
L 292.270908 161.532435 
L 297.439143 162.309162 
L 302.672147 163.085459 
L 307.941381 163.876255 
L 313.263337 164.667633 
L 318.633908 165.469311 
L 324.036019 166.270559 
L 329.481657 167.084099 
L 334.970299 167.909563 
L 340.523281 168.74603 
L 346.108386 169.600246 
L 351.745753 170.457955 
L 357.414937 171.338716 
L 363.140889 172.233514 
L 368.902275 173.15872 
L 374.695846 174.10434 
L 380.516176 175.082544 
L 386.348061 176.093974 
L 392.216423 177.147742 
L 398.105322 178.234393 
" style="fill:none;stroke:#008000;stroke-linecap:square;stroke-width:1.5;"/>
   </g>
   <g id="line2d_17">
    <path clip-path="url(#p2843f150b8)" d="M 73.832727 207.696111 
L 73.928258 204.626393 
L 74.235295 201.577721 
L 74.718257 198.547151 
L 75.360316 195.572038 
L 76.068999 192.595984 
L 76.885456 189.667181 
L 77.865535 186.79273 
L 78.907461 183.951931 
L 80.121922 181.181811 
L 81.450506 178.471929 
L 82.897315 175.834589 
L 84.487055 173.287945 
L 86.123896 170.786325 
L 87.931748 168.409259 
L 89.844921 166.148866 
L 91.83824 163.951087 
L 93.960304 161.89257 
L 96.212846 159.998758 
L 98.555706 158.243453 
L 100.86273 156.455875 
L 103.219666 154.736181 
L 105.739155 153.260595 
L 108.288338 151.839079 
L 110.876697 150.438122 
L 113.604247 149.305651 
L 116.364131 148.24461 
L 119.180412 147.226681 
L 122.057221 146.289655 
L 124.978175 145.436817 
L 127.921343 144.664652 
L 130.913811 143.993887 
L 133.978135 143.447808 
L 137.074788 142.881688 
L 140.227504 142.424808 
L 143.44012 142.127137 
L 146.693427 141.887653 
L 149.995952 141.811687 
L 153.342907 141.722399 
L 156.72695 141.718823 
L 160.147333 141.802305 
L 163.606593 141.937517 
L 167.082012 142.119074 
L 170.578376 142.323033 
L 174.089334 142.619361 
L 177.638319 142.905481 
L 181.239076 143.247166 
L 184.90574 143.655318 
L 188.65082 144.03139 
L 192.462241 144.47672 
L 196.323605 144.953762 
L 200.25784 145.479652 
L 204.254941 146.021516 
L 208.332058 146.554079 
L 212.474341 147.14158 
L 216.683911 147.667871 
L 220.942709 148.306162 
L 225.270282 148.888622 
L 229.66496 149.515288 
L 234.108813 150.139491 
L 238.620202 150.787905 
L 243.208822 151.408399 
L 247.856793 152.035254 
L 252.576174 152.631535 
L 257.344653 153.258406 
L 262.195528 153.943364 
L 267.102149 154.601049 
L 272.060927 155.325346 
L 277.076566 155.988033 
L 282.123969 156.625162 
L 287.223842 157.273561 
L 292.367415 157.904096 
L 297.550681 158.57334 
L 302.804634 159.192391 
L 308.096031 159.818472 
L 313.442458 160.422948 
L 318.818361 161.188334 
L 324.240662 161.839274 
L 329.70812 162.488305 
L 335.210737 163.214389 
L 340.777307 163.954956 
L 346.382914 164.662056 
L 352.026211 165.479607 
L 357.712117 166.245312 
L 363.451523 167.04952 
L 369.22414 167.902124 
L 375.041251 168.688873 
L 380.874321 169.58801 
L 386.702086 170.622318 
L 392.575844 171.645583 
L 398.487273 172.60076 
" style="fill:none;stroke:#0000ff;stroke-linecap:square;stroke-width:1.5;"/>
   </g>
   <g id="line2d_18">
    <path clip-path="url(#p2843f150b8)" d="M 73.832727 207.696111 
L 73.991031 204.627792 
L 74.27414 201.578152 
L 74.770115 198.549376 
L 74.546394 195.514555 
L 75.677518 192.671002 
L 76.371587 189.711341 
L 77.098971 186.773298 
L 77.575629 183.784546 
L 78.624447 180.946436 
L 79.830642 178.179925 
L 81.197585 175.501061 
L 82.741865 172.927789 
L 84.349451 170.409225 
L 86.144958 168.024231 
L 88.01437 165.729243 
L 89.955494 163.487997 
L 92.060631 161.413648 
L 94.440069 159.683256 
L 96.851775 158.026169 
L 99.188021 156.278317 
L 101.560554 154.580118 
L 104.100406 153.140017 
L 106.658267 151.736269 
L 109.210532 150.273805 
L 111.910526 149.080093 
L 114.657611 147.990411 
L 117.465782 146.952065 
L 120.338429 146.004179 
L 123.256766 145.144741 
L 126.198906 144.370263 
L 129.19788 143.731239 
L 132.261822 143.184766 
L 135.364206 142.651494 
L 138.523979 142.247334 
L 141.725762 141.854852 
L 144.967703 141.498029 
L 148.270438 141.437841 
L 151.617665 141.361649 
L 155.001667 141.359889 
L 158.419558 141.514377 
L 161.8803 141.608077 
L 165.359916 141.565048 
L 168.847406 141.886729 
L 172.352936 142.241503 
L 175.87766 142.744996 
L 179.486003 142.993974 
L 183.132286 143.556008 
L 186.888399 143.798328 
L 190.708937 144.157454 
L 194.575709 144.588946 
L 198.51313 145.090821 
L 202.511846 145.620178 
L 206.589897 146.145758 
L 210.732881 146.728697 
L 214.942747 147.252426 
L 219.202069 147.887772 
L 223.529844 148.46898 
L 227.893313 149.186013 
L 232.223472 150.352948 
L 236.761576 150.660374 
L 241.371034 151.075523 
L 246.031437 151.594363 
L 250.757758 152.132394 
L 255.529631 152.732816 
L 260.382497 153.403465 
L 265.289832 154.055481 
L 270.249475 154.774262 
L 275.265381 155.434916 
L 280.312275 156.075117 
L 285.149457 154.489326 
L 290.117222 155.917312 
L 295.308141 155.477625 
L 300.20436 157.435604 
L 305.174991 159.322739 
L 310.403645 160.577054 
L 315.715098 161.701606 
L 321.116989 162.503889 
L 326.574837 163.230199 
L 332.072344 163.994266 
L 337.636276 164.754238 
L 343.240738 165.470662 
L 348.883507 166.292201 
L 354.569174 167.059469 
L 358.41019 163.117617 
L 358.589574 168.102341 
L 363.405373 168.773833 
L 362.332945 166.244392 
L 364.772289 171.146776 
L 359.342021 173.423324 
L 359.132015 170.110549 
" style="fill:none;stroke:#ff0000;stroke-linecap:square;stroke-width:1.5;"/>
   </g>
   <g id="patch_3">
    <path d="M 57.6 307.584 
L 57.6 41.472 
" style="fill:none;stroke:#000000;stroke-linecap:square;stroke-linejoin:miter;stroke-width:0.8;"/>
   </g>
   <g id="patch_4">
    <path d="M 414.72 307.584 
L 414.72 41.472 
" style="fill:none;stroke:#000000;stroke-linecap:square;stroke-linejoin:miter;stroke-width:0.8;"/>
   </g>
   <g id="patch_5">
    <path d="M 57.6 307.584 
L 414.72 307.584 
" style="fill:none;stroke:#000000;stroke-linecap:square;stroke-linejoin:miter;stroke-width:0.8;"/>
   </g>
   <g id="patch_6">
    <path d="M 57.6 41.472 
L 414.72 41.472 
" style="fill:none;stroke:#000000;stroke-linecap:square;stroke-linejoin:miter;stroke-width:0.8;"/>
   </g>
  </g>
 </g>
 <defs>
  <clipPath id="p2843f150b8">
   <rect height="266.112" width="357.12" x="57.6" y="41.472"/>
  </clipPath>
 </defs>
</svg>
