<?xml version="1.0" encoding="utf-8" standalone="no"?>
<!DOCTYPE svg PUBLIC "-//W3C//DTD SVG 1.1//EN"
  "http://www.w3.org/Graphics/SVG/1.1/DTD/svg11.dtd">
<!-- Created with matplotlib (https://matplotlib.org/) -->
<svg height="345.6pt" version="1.1" viewBox="0 0 460.8 345.6" width="460.8pt" xmlns="http://www.w3.org/2000/svg" xmlns:xlink="http://www.w3.org/1999/xlink">
 <defs>
  <style type="text/css">
*{stroke-linecap:butt;stroke-linejoin:round;}
  </style>
 </defs>
 <g id="figure_1">
  <g id="patch_1">
   <path d="M 0 345.6 
L 460.8 345.6 
L 460.8 0 
L 0 0 
z
" style="fill:#ffffff;"/>
  </g>
  <g id="axes_1">
   <g id="patch_2">
    <path d="M 57.6 307.584 
L 414.72 307.584 
L 414.72 41.472 
L 57.6 41.472 
z
" style="fill:#ffffff;"/>
   </g>
   <g id="matplotlib.axis_1">
    <g id="xtick_1">
     <g id="line2d_1">
      <defs>
       <path d="M 0 0 
L 0 3.5 
" id="m06fcfddb9f" style="stroke:#000000;stroke-width:0.8;"/>
      </defs>
      <g>
       <use style="stroke:#000000;stroke-width:0.8;" x="88.294582" xlink:href="#m06fcfddb9f" y="307.584"/>
      </g>
     </g>
     <g id="text_1">
      <!-- −60 -->
      <defs>
       <path d="M 10.59375 35.5 
L 73.1875 35.5 
L 73.1875 27.203125 
L 10.59375 27.203125 
z
" id="DejaVuSans-8722"/>
       <path d="M 33.015625 40.375 
Q 26.375 40.375 22.484375 35.828125 
Q 18.609375 31.296875 18.609375 23.390625 
Q 18.609375 15.53125 22.484375 10.953125 
Q 26.375 6.390625 33.015625 6.390625 
Q 39.65625 6.390625 43.53125 10.953125 
Q 47.40625 15.53125 47.40625 23.390625 
Q 47.40625 31.296875 43.53125 35.828125 
Q 39.65625 40.375 33.015625 40.375 
z
M 52.59375 71.296875 
L 52.59375 62.3125 
Q 48.875 64.0625 45.09375 64.984375 
Q 41.3125 65.921875 37.59375 65.921875 
Q 27.828125 65.921875 22.671875 59.328125 
Q 17.53125 52.734375 16.796875 39.40625 
Q 19.671875 43.65625 24.015625 45.921875 
Q 28.375 48.1875 33.59375 48.1875 
Q 44.578125 48.1875 50.953125 41.515625 
Q 57.328125 34.859375 57.328125 23.390625 
Q 57.328125 12.15625 50.6875 5.359375 
Q 44.046875 -1.421875 33.015625 -1.421875 
Q 20.359375 -1.421875 13.671875 8.265625 
Q 6.984375 17.96875 6.984375 36.375 
Q 6.984375 53.65625 15.1875 63.9375 
Q 23.390625 74.21875 37.203125 74.21875 
Q 40.921875 74.21875 44.703125 73.484375 
Q 48.484375 72.75 52.59375 71.296875 
z
" id="DejaVuSans-54"/>
       <path d="M 31.78125 66.40625 
Q 24.171875 66.40625 20.328125 58.90625 
Q 16.5 51.421875 16.5 36.375 
Q 16.5 21.390625 20.328125 13.890625 
Q 24.171875 6.390625 31.78125 6.390625 
Q 39.453125 6.390625 43.28125 13.890625 
Q 47.125 21.390625 47.125 36.375 
Q 47.125 51.421875 43.28125 58.90625 
Q 39.453125 66.40625 31.78125 66.40625 
z
M 31.78125 74.21875 
Q 44.046875 74.21875 50.515625 64.515625 
Q 56.984375 54.828125 56.984375 36.375 
Q 56.984375 17.96875 50.515625 8.265625 
Q 44.046875 -1.421875 31.78125 -1.421875 
Q 19.53125 -1.421875 13.0625 8.265625 
Q 6.59375 17.96875 6.59375 36.375 
Q 6.59375 54.828125 13.0625 64.515625 
Q 19.53125 74.21875 31.78125 74.21875 
z
" id="DejaVuSans-48"/>
      </defs>
      <g transform="translate(77.742238 322.182437)scale(0.1 -0.1)">
       <use xlink:href="#DejaVuSans-8722"/>
       <use x="83.789062" xlink:href="#DejaVuSans-54"/>
       <use x="147.412109" xlink:href="#DejaVuSans-48"/>
      </g>
     </g>
    </g>
    <g id="xtick_2">
     <g id="line2d_2">
      <g>
       <use style="stroke:#000000;stroke-width:0.8;" x="138.237445" xlink:href="#m06fcfddb9f" y="307.584"/>
      </g>
     </g>
     <g id="text_2">
      <!-- −40 -->
      <defs>
       <path d="M 37.796875 64.3125 
L 12.890625 25.390625 
L 37.796875 25.390625 
z
M 35.203125 72.90625 
L 47.609375 72.90625 
L 47.609375 25.390625 
L 58.015625 25.390625 
L 58.015625 17.1875 
L 47.609375 17.1875 
L 47.609375 0 
L 37.796875 0 
L 37.796875 17.1875 
L 4.890625 17.1875 
L 4.890625 26.703125 
z
" id="DejaVuSans-52"/>
      </defs>
      <g transform="translate(127.685101 322.182437)scale(0.1 -0.1)">
       <use xlink:href="#DejaVuSans-8722"/>
       <use x="83.789062" xlink:href="#DejaVuSans-52"/>
       <use x="147.412109" xlink:href="#DejaVuSans-48"/>
      </g>
     </g>
    </g>
    <g id="xtick_3">
     <g id="line2d_3">
      <g>
       <use style="stroke:#000000;stroke-width:0.8;" x="188.180308" xlink:href="#m06fcfddb9f" y="307.584"/>
      </g>
     </g>
     <g id="text_3">
      <!-- −20 -->
      <defs>
       <path d="M 19.1875 8.296875 
L 53.609375 8.296875 
L 53.609375 0 
L 7.328125 0 
L 7.328125 8.296875 
Q 12.9375 14.109375 22.625 23.890625 
Q 32.328125 33.6875 34.8125 36.53125 
Q 39.546875 41.84375 41.421875 45.53125 
Q 43.3125 49.21875 43.3125 52.78125 
Q 43.3125 58.59375 39.234375 62.25 
Q 35.15625 65.921875 28.609375 65.921875 
Q 23.96875 65.921875 18.8125 64.3125 
Q 13.671875 62.703125 7.8125 59.421875 
L 7.8125 69.390625 
Q 13.765625 71.78125 18.9375 73 
Q 24.125 74.21875 28.421875 74.21875 
Q 39.75 74.21875 46.484375 68.546875 
Q 53.21875 62.890625 53.21875 53.421875 
Q 53.21875 48.921875 51.53125 44.890625 
Q 49.859375 40.875 45.40625 35.40625 
Q 44.1875 33.984375 37.640625 27.21875 
Q 31.109375 20.453125 19.1875 8.296875 
z
" id="DejaVuSans-50"/>
      </defs>
      <g transform="translate(177.627964 322.182437)scale(0.1 -0.1)">
       <use xlink:href="#DejaVuSans-8722"/>
       <use x="83.789062" xlink:href="#DejaVuSans-50"/>
       <use x="147.412109" xlink:href="#DejaVuSans-48"/>
      </g>
     </g>
    </g>
    <g id="xtick_4">
     <g id="line2d_4">
      <g>
       <use style="stroke:#000000;stroke-width:0.8;" x="238.123171" xlink:href="#m06fcfddb9f" y="307.584"/>
      </g>
     </g>
     <g id="text_4">
      <!-- 0 -->
      <g transform="translate(234.941921 322.182437)scale(0.1 -0.1)">
       <use xlink:href="#DejaVuSans-48"/>
      </g>
     </g>
    </g>
    <g id="xtick_5">
     <g id="line2d_5">
      <g>
       <use style="stroke:#000000;stroke-width:0.8;" x="288.066034" xlink:href="#m06fcfddb9f" y="307.584"/>
      </g>
     </g>
     <g id="text_5">
      <!-- 20 -->
      <g transform="translate(281.703534 322.182437)scale(0.1 -0.1)">
       <use xlink:href="#DejaVuSans-50"/>
       <use x="63.623047" xlink:href="#DejaVuSans-48"/>
      </g>
     </g>
    </g>
    <g id="xtick_6">
     <g id="line2d_6">
      <g>
       <use style="stroke:#000000;stroke-width:0.8;" x="338.008897" xlink:href="#m06fcfddb9f" y="307.584"/>
      </g>
     </g>
     <g id="text_6">
      <!-- 40 -->
      <g transform="translate(331.646397 322.182437)scale(0.1 -0.1)">
       <use xlink:href="#DejaVuSans-52"/>
       <use x="63.623047" xlink:href="#DejaVuSans-48"/>
      </g>
     </g>
    </g>
    <g id="xtick_7">
     <g id="line2d_7">
      <g>
       <use style="stroke:#000000;stroke-width:0.8;" x="387.95176" xlink:href="#m06fcfddb9f" y="307.584"/>
      </g>
     </g>
     <g id="text_7">
      <!-- 60 -->
      <g transform="translate(381.58926 322.182437)scale(0.1 -0.1)">
       <use xlink:href="#DejaVuSans-54"/>
       <use x="63.623047" xlink:href="#DejaVuSans-48"/>
      </g>
     </g>
    </g>
   </g>
   <g id="matplotlib.axis_2">
    <g id="ytick_1">
     <g id="line2d_8">
      <defs>
       <path d="M 0 0 
L -3.5 0 
" id="mfa462143bc" style="stroke:#000000;stroke-width:0.8;"/>
      </defs>
      <g>
       <use style="stroke:#000000;stroke-width:0.8;" x="57.6" xlink:href="#mfa462143bc" y="292.541946"/>
      </g>
     </g>
     <g id="text_8">
      <!-- −40 -->
      <g transform="translate(29.495313 296.341164)scale(0.1 -0.1)">
       <use xlink:href="#DejaVuSans-8722"/>
       <use x="83.789062" xlink:href="#DejaVuSans-52"/>
       <use x="147.412109" xlink:href="#DejaVuSans-48"/>
      </g>
     </g>
    </g>
    <g id="ytick_2">
     <g id="line2d_9">
      <g>
       <use style="stroke:#000000;stroke-width:0.8;" x="57.6" xlink:href="#mfa462143bc" y="242.599083"/>
      </g>
     </g>
     <g id="text_9">
      <!-- −20 -->
      <g transform="translate(29.495313 246.398301)scale(0.1 -0.1)">
       <use xlink:href="#DejaVuSans-8722"/>
       <use x="83.789062" xlink:href="#DejaVuSans-50"/>
       <use x="147.412109" xlink:href="#DejaVuSans-48"/>
      </g>
     </g>
    </g>
    <g id="ytick_3">
     <g id="line2d_10">
      <g>
       <use style="stroke:#000000;stroke-width:0.8;" x="57.6" xlink:href="#mfa462143bc" y="192.65622"/>
      </g>
     </g>
     <g id="text_10">
      <!-- 0 -->
      <g transform="translate(44.2375 196.455438)scale(0.1 -0.1)">
       <use xlink:href="#DejaVuSans-48"/>
      </g>
     </g>
    </g>
    <g id="ytick_4">
     <g id="line2d_11">
      <g>
       <use style="stroke:#000000;stroke-width:0.8;" x="57.6" xlink:href="#mfa462143bc" y="142.713357"/>
      </g>
     </g>
     <g id="text_11">
      <!-- 20 -->
      <g transform="translate(37.875 146.512575)scale(0.1 -0.1)">
       <use xlink:href="#DejaVuSans-50"/>
       <use x="63.623047" xlink:href="#DejaVuSans-48"/>
      </g>
     </g>
    </g>
    <g id="ytick_5">
     <g id="line2d_12">
      <g>
       <use style="stroke:#000000;stroke-width:0.8;" x="57.6" xlink:href="#mfa462143bc" y="92.770494"/>
      </g>
     </g>
     <g id="text_12">
      <!-- 40 -->
      <g transform="translate(37.875 96.569713)scale(0.1 -0.1)">
       <use xlink:href="#DejaVuSans-52"/>
       <use x="63.623047" xlink:href="#DejaVuSans-48"/>
      </g>
     </g>
    </g>
    <g id="ytick_6">
     <g id="line2d_13">
      <g>
       <use style="stroke:#000000;stroke-width:0.8;" x="57.6" xlink:href="#mfa462143bc" y="42.827631"/>
      </g>
     </g>
     <g id="text_13">
      <!-- 60 -->
      <g transform="translate(37.875 46.62685)scale(0.1 -0.1)">
       <use xlink:href="#DejaVuSans-54"/>
       <use x="63.623047" xlink:href="#DejaVuSans-48"/>
      </g>
     </g>
    </g>
   </g>
   <g id="line2d_14">
    <path clip-path="url(#p8449beeca3)" d="M 238.123171 192.65622 
L 238.123171 192.65622 
L 238.111692 192.427624 
L 238.098172 192.192407 
L 238.079387 191.948362 
L 238.051673 191.689051 
L 238.016451 191.404802 
L 237.973342 191.088174 
L 237.916515 190.741062 
L 237.850858 190.360894 
L 237.769742 189.954528 
L 237.669676 189.53135 
L 237.542425 189.096185 
L 237.390362 188.650453 
L 237.220076 188.18973 
L 237.032858 187.713797 
L 236.818434 187.229878 
L 236.574708 186.741134 
L 236.313129 186.249327 
L 236.026836 185.768387 
L 235.704041 185.288609 
L 235.367242 184.809984 
L 235.019812 184.332979 
L 234.645962 183.858714 
L 234.216526 183.40114 
L 233.724284 182.965549 
L 233.205395 182.544044 
L 232.659834 182.128554 
L 232.091254 181.712762 
L 231.472914 181.317257 
L 230.808752 180.950412 
L 230.093577 180.608917 
L 229.338624 180.299911 
L 228.541745 180.02749 
L 227.69228 179.787272 
L 226.800288 179.586687 
L 225.859514 179.415241 
L 224.889988 179.269178 
L 223.886067 179.167417 
L 222.835434 179.118483 
L 221.744424 179.102541 
L 220.620468 179.111673 
L 219.460957 179.144935 
L 218.269857 179.198411 
L 217.035766 179.287404 
L 215.766231 179.394569 
L 214.449313 179.511585 
L 213.094255 179.64304 
L 211.705369 179.788254 
L 210.273183 179.949856 
L 208.808184 180.105878 
L 207.298136 180.258301 
L 205.749533 180.415693 
L 204.16165 180.580832 
L 202.534786 180.751776 
L 200.882252 180.926232 
L 199.18342 181.094449 
L 197.442262 181.261001 
L 195.659801 181.432485 
L 193.840782 181.602536 
L 191.996367 181.770551 
L 190.117417 181.941018 
L 188.20945 182.11048 
L 186.249767 182.263287 
L 184.273578 182.417391 
L 182.276587 182.577847 
L 180.278973 182.740017 
L 178.267898 182.894962 
L 176.220316 183.044586 
L 174.14921 183.201838 
L 172.045367 183.375979 
L 169.93231 183.554752 
L 167.821425 183.742565 
L 165.711963 183.933953 
L 163.615387 184.119836 
L 161.525203 184.300664 
L 159.423557 184.485592 
L 157.329553 184.668306 
L 155.23008 184.856078 
L 153.154729 185.036784 
L 151.072661 185.213839 
L 148.984175 185.387982 
L 146.893917 185.5565 
L 144.795567 185.726473 
L 142.695445 185.896491 
L 140.611779 186.066621 
L 138.532932 186.232926 
L 136.460203 186.401361 
L 134.39584 186.572794 
L 132.331202 186.755291 
L 130.267988 186.93725 
L 128.210941 187.103365 
L 126.154194 187.260123 
L 124.100593 187.420662 
L 122.047592 187.591382 
L 119.989721 187.764012 
L 117.952327 187.935388 
L 115.930116 188.110683 
L 113.926433 188.309455 
L 111.936235 188.512545 
L 109.948035 188.72246 
L 107.965178 188.926107 
L 105.984594 189.11825 
L 104.02169 189.316343 
L 102.068824 189.512331 
L 100.123474 189.697849 
L 98.188064 189.882503 
L 96.258621 190.077577 
L 94.351153 190.267605 
L 92.463837 190.451085 
L 90.597972 190.633515 
L 88.768041 190.818401 
L 86.954665 191.002196 
L 85.18444 191.178041 
L 83.4493 191.348316 
L 81.751518 191.503244 
L 80.090193 191.635286 
L 78.467175 191.751517 
L 76.881464 191.856665 
L 75.334634 191.942141 
L 73.832727 192.000053 
" style="fill:none;stroke:#008000;stroke-linecap:square;stroke-width:1.5;"/>
   </g>
   <g id="line2d_15">
    <path clip-path="url(#p8449beeca3)" d="M 238.123171 192.65622 
L 238.123171 192.65622 
L 238.099336 192.428559 
L 238.075339 192.194185 
L 238.054521 191.950296 
L 238.032411 191.690583 
L 238.023376 191.404451 
L 238.005988 191.085438 
L 237.997062 190.734284 
L 237.990399 190.348797 
L 237.993021 189.934483 
L 238.017214 189.50025 
L 238.066575 189.049284 
L 238.141198 188.583792 
L 238.204274 188.096247 
L 238.280005 187.590566 
L 238.398552 187.074737 
L 238.529655 186.544616 
L 238.678971 186.008256 
L 238.864138 185.480136 
L 239.075508 184.941905 
L 239.286186 184.396186 
L 239.509434 183.850348 
L 239.773435 183.307276 
L 240.100632 182.771838 
L 240.479465 182.234629 
L 240.882694 181.701482 
L 241.326398 181.178621 
L 241.788798 180.647341 
L 242.304883 180.125765 
L 242.879573 179.630395 
L 243.4844 179.118297 
L 244.144567 178.639573 
L 244.862485 178.199577 
L 245.634928 177.772479 
L 246.460905 177.380645 
L 247.33456 176.991826 
L 248.246607 176.632127 
L 249.205112 176.316803 
L 250.219876 176.040469 
L 251.279858 175.781516 
L 252.382173 175.560789 
L 253.521881 175.344534 
L 254.694916 175.131171 
L 255.919571 174.95432 
L 257.183051 174.790229 
L 258.493863 174.617972 
L 259.845871 174.457661 
L 261.232302 174.290241 
L 262.664697 174.130298 
L 264.128712 173.964148 
L 265.635672 173.782394 
L 267.179687 173.583714 
L 268.766681 173.409855 
L 270.392225 173.226117 
L 272.040721 173.016067 
L 273.737165 172.82411 
L 275.471846 172.600558 
L 277.250291 172.3903 
L 279.063134 172.162194 
L 280.901784 171.936904 
L 282.774507 171.70802 
L 284.678393 171.494496 
L 286.623687 171.210856 
L 288.584588 170.920062 
L 290.568935 170.641686 
L 292.555397 170.374129 
L 294.551935 170.086676 
L 296.585236 169.801816 
L 298.645866 169.539486 
L 300.73757 169.25329 
L 302.841557 168.987399 
L 304.944109 168.719327 
L 307.043273 168.434805 
L 309.128857 168.150269 
L 311.207005 167.860832 
L 313.300664 167.598133 
L 315.385174 167.326188 
L 317.47552 167.05375 
L 319.54017 166.776149 
L 321.613303 166.513209 
L 323.687755 166.215508 
L 325.764173 165.92218 
L 327.84989 165.636238 
L 329.930556 165.304145 
L 332.004027 165.036236 
L 334.068081 164.73751 
L 336.129542 164.46116 
L 338.183939 164.193562 
L 340.238414 163.919446 
L 342.292615 163.653242 
L 344.337417 163.373198 
L 346.378919 163.07738 
L 348.418554 162.789965 
L 350.456542 162.488574 
L 352.502027 162.203972 
L 354.52968 161.94094 
L 356.542199 161.675873 
L 358.541182 161.433218 
L 360.526446 161.185589 
L 362.51314 160.959685 
L 364.49536 160.749436 
L 366.470337 160.506065 
L 368.430594 160.282194 
L 370.379587 160.050901 
L 372.321695 159.833663 
L 374.252699 159.60701 
L 376.180128 159.391201 
L 378.08374 159.164335 
L 379.966455 158.939519 
L 381.829957 158.732514 
L 383.657095 158.52251 
L 385.466706 158.304352 
L 387.2341 158.101479 
L 388.964428 157.887655 
L 390.656302 157.677719 
L 392.304048 157.427945 
L 393.91264 157.182547 
L 395.483356 156.940937 
L 397.009701 156.675671 
L 398.487273 156.39978 
" style="fill:none;stroke:#0000ff;stroke-linecap:square;stroke-width:1.5;"/>
   </g>
   <g id="line2d_16">
    <path clip-path="url(#p8449beeca3)" d="M 238.123171 192.65622 
L 238.123171 192.65622 
L 238.064723 192.481553 
L 238.067539 192.245894 
L 238.05417 192.001417 
L 238.022614 191.742554 
L 237.99734 191.457294 
L 237.952559 191.140913 
L 237.889215 190.794923 
L 237.846704 190.411481 
L 237.759441 190.006409 
L 237.391851 189.77412 
L 237.255748 189.341492 
L 237.099405 188.897025 
L 236.932641 188.434855 
L 236.755389 187.955082 
L 236.543747 187.469987 
L 236.309436 186.976655 
L 236.055658 186.480743 
L 235.773074 185.997597 
L 235.461293 185.510556 
L 235.145192 185.017903 
L 234.814433 184.529108 
L 234.450053 184.047606 
L 234.016628 183.59383 
L 233.536822 183.144898 
L 233.037853 182.699984 
L 232.502277 182.271713 
L 231.946857 181.83851 
L 231.346593 181.416109 
L 230.696958 181.024117 
L 230.007402 180.633454 
L 229.262304 180.301748 
L 228.480817 179.987852 
L 227.642978 179.709635 
L 226.759543 179.474192 
L 225.824499 179.273687 
L 224.859499 179.100337 
L 223.85791 178.977915 
L 222.808574 178.907356 
L 221.717911 178.874226 
L 220.593837 178.868979 
L 219.433931 178.880839 
L 218.242142 178.91397 
L 217.006737 178.982333 
L 215.7358 179.069688 
L 214.416978 179.160702 
L 214.062788 177.848469 
L 212.671353 177.966972 
L 211.23636 178.101543 
L 209.768996 178.233847 
L 208.256397 178.358407 
L 206.704174 178.475482 
L 205.114193 178.618447 
L 203.48495 178.764566 
L 201.828372 178.895071 
L 200.127945 179.045547 
L 198.383978 179.175374 
L 196.599345 179.322709 
L 194.777697 179.462688 
L 192.931378 179.610358 
L 191.050716 179.757501 
L 189.140975 179.907171 
L 187.178707 180.022475 
L 185.199544 180.131629 
L 183.200019 180.259797 
L 181.200669 180.399646 
L 179.187196 180.51847 
L 177.137947 180.642074 
L 175.067115 180.804338 
L 172.960658 180.944992 
L 170.845697 181.098919 
L 168.731973 181.254179 
L 166.618012 181.388243 
L 164.517862 181.526231 
L 162.424288 181.662739 
L 160.320444 181.821885 
L 158.22385 181.972712 
L 156.12144 182.124705 
L 154.04303 182.263215 
L 151.958657 182.410968 
L 149.866849 182.536206 
L 147.774081 182.667909 
L 146.746959 180.83014 
L 144.652479 181.057216 
L 142.582789 181.350938 
L 140.515131 181.621652 
L 138.454487 181.901516 
L 136.482357 181.267907 
L 134.435195 181.590008 
L 132.391227 181.923935 
L 130.352495 182.244004 
L 128.302363 182.471275 
L 126.266446 182.782536 
L 124.229268 183.088202 
L 122.172956 183.267955 
L 120.155257 183.597599 
L 118.153132 183.93114 
L 116.171071 184.285658 
L 114.201067 184.63353 
L 112.234537 184.994319 
L 110.277102 185.370105 
L 108.317217 185.713496 
L 106.37726 186.072256 
L 104.44557 186.418485 
L 102.524556 186.776077 
L 100.611469 187.121823 
L 98.705528 187.479976 
L 96.794086 187.614229 
L 96.929455 189.504267 
L 95.063076 189.679897 
L 93.231698 189.844329 
L 91.415815 189.99831 
L 89.644209 190.157536 
L 87.918202 190.402074 
L 86.218732 190.534858 
L 84.555828 190.641204 
L 83.685818 189.288154 
L 82.107744 189.470053 
L 80.566361 189.619059 
L 79.063975 189.580336 
" style="fill:none;stroke:#ff0000;stroke-linecap:square;stroke-width:1.5;"/>
   </g>
   <g id="patch_3">
    <path d="M 57.6 307.584 
L 57.6 41.472 
" style="fill:none;stroke:#000000;stroke-linecap:square;stroke-linejoin:miter;stroke-width:0.8;"/>
   </g>
   <g id="patch_4">
    <path d="M 414.72 307.584 
L 414.72 41.472 
" style="fill:none;stroke:#000000;stroke-linecap:square;stroke-linejoin:miter;stroke-width:0.8;"/>
   </g>
   <g id="patch_5">
    <path d="M 57.6 307.584 
L 414.72 307.584 
" style="fill:none;stroke:#000000;stroke-linecap:square;stroke-linejoin:miter;stroke-width:0.8;"/>
   </g>
   <g id="patch_6">
    <path d="M 57.6 41.472 
L 414.72 41.472 
" style="fill:none;stroke:#000000;stroke-linecap:square;stroke-linejoin:miter;stroke-width:0.8;"/>
   </g>
  </g>
 </g>
 <defs>
  <clipPath id="p8449beeca3">
   <rect height="266.112" width="357.12" x="57.6" y="41.472"/>
  </clipPath>
 </defs>
</svg>
