<?xml version="1.0" encoding="utf-8" standalone="no"?>
<!DOCTYPE svg PUBLIC "-//W3C//DTD SVG 1.1//EN"
  "http://www.w3.org/Graphics/SVG/1.1/DTD/svg11.dtd">
<!-- Created with matplotlib (https://matplotlib.org/) -->
<svg height="345.6pt" version="1.1" viewBox="0 0 460.8 345.6" width="460.8pt" xmlns="http://www.w3.org/2000/svg" xmlns:xlink="http://www.w3.org/1999/xlink">
 <defs>
  <style type="text/css">
*{stroke-linecap:butt;stroke-linejoin:round;}
  </style>
 </defs>
 <g id="figure_1">
  <g id="patch_1">
   <path d="M 0 345.6 
L 460.8 345.6 
L 460.8 0 
L 0 0 
z
" style="fill:#ffffff;"/>
  </g>
  <g id="axes_1">
   <g id="patch_2">
    <path d="M 57.6 307.584 
L 414.72 307.584 
L 414.72 41.472 
L 57.6 41.472 
z
" style="fill:#ffffff;"/>
   </g>
   <g id="matplotlib.axis_1">
    <g id="xtick_1">
     <g id="line2d_1">
      <defs>
       <path d="M 0 0 
L 0 3.5 
" id="m21ffac65e0" style="stroke:#000000;stroke-width:0.8;"/>
      </defs>
      <g>
       <use style="stroke:#000000;stroke-width:0.8;" x="70.965911" xlink:href="#m21ffac65e0" y="307.584"/>
      </g>
     </g>
     <g id="text_1">
      <!-- −300 -->
      <defs>
       <path d="M 10.59375 35.5 
L 73.1875 35.5 
L 73.1875 27.203125 
L 10.59375 27.203125 
z
" id="DejaVuSans-8722"/>
       <path d="M 40.578125 39.3125 
Q 47.65625 37.796875 51.625 33 
Q 55.609375 28.21875 55.609375 21.1875 
Q 55.609375 10.40625 48.1875 4.484375 
Q 40.765625 -1.421875 27.09375 -1.421875 
Q 22.515625 -1.421875 17.65625 -0.515625 
Q 12.796875 0.390625 7.625 2.203125 
L 7.625 11.71875 
Q 11.71875 9.328125 16.59375 8.109375 
Q 21.484375 6.890625 26.8125 6.890625 
Q 36.078125 6.890625 40.9375 10.546875 
Q 45.796875 14.203125 45.796875 21.1875 
Q 45.796875 27.640625 41.28125 31.265625 
Q 36.765625 34.90625 28.71875 34.90625 
L 20.21875 34.90625 
L 20.21875 43.015625 
L 29.109375 43.015625 
Q 36.375 43.015625 40.234375 45.921875 
Q 44.09375 48.828125 44.09375 54.296875 
Q 44.09375 59.90625 40.109375 62.90625 
Q 36.140625 65.921875 28.71875 65.921875 
Q 24.65625 65.921875 20.015625 65.03125 
Q 15.375 64.15625 9.8125 62.3125 
L 9.8125 71.09375 
Q 15.4375 72.65625 20.34375 73.4375 
Q 25.25 74.21875 29.59375 74.21875 
Q 40.828125 74.21875 47.359375 69.109375 
Q 53.90625 64.015625 53.90625 55.328125 
Q 53.90625 49.265625 50.4375 45.09375 
Q 46.96875 40.921875 40.578125 39.3125 
z
" id="DejaVuSans-51"/>
       <path d="M 31.78125 66.40625 
Q 24.171875 66.40625 20.328125 58.90625 
Q 16.5 51.421875 16.5 36.375 
Q 16.5 21.390625 20.328125 13.890625 
Q 24.171875 6.390625 31.78125 6.390625 
Q 39.453125 6.390625 43.28125 13.890625 
Q 47.125 21.390625 47.125 36.375 
Q 47.125 51.421875 43.28125 58.90625 
Q 39.453125 66.40625 31.78125 66.40625 
z
M 31.78125 74.21875 
Q 44.046875 74.21875 50.515625 64.515625 
Q 56.984375 54.828125 56.984375 36.375 
Q 56.984375 17.96875 50.515625 8.265625 
Q 44.046875 -1.421875 31.78125 -1.421875 
Q 19.53125 -1.421875 13.0625 8.265625 
Q 6.59375 17.96875 6.59375 36.375 
Q 6.59375 54.828125 13.0625 64.515625 
Q 19.53125 74.21875 31.78125 74.21875 
z
" id="DejaVuSans-48"/>
      </defs>
      <g transform="translate(57.232317 322.182437)scale(0.1 -0.1)">
       <use xlink:href="#DejaVuSans-8722"/>
       <use x="83.789062" xlink:href="#DejaVuSans-51"/>
       <use x="147.412109" xlink:href="#DejaVuSans-48"/>
       <use x="211.035156" xlink:href="#DejaVuSans-48"/>
      </g>
     </g>
    </g>
    <g id="xtick_2">
     <g id="line2d_2">
      <g>
       <use style="stroke:#000000;stroke-width:0.8;" x="135.364127" xlink:href="#m21ffac65e0" y="307.584"/>
      </g>
     </g>
     <g id="text_2">
      <!-- −200 -->
      <defs>
       <path d="M 19.1875 8.296875 
L 53.609375 8.296875 
L 53.609375 0 
L 7.328125 0 
L 7.328125 8.296875 
Q 12.9375 14.109375 22.625 23.890625 
Q 32.328125 33.6875 34.8125 36.53125 
Q 39.546875 41.84375 41.421875 45.53125 
Q 43.3125 49.21875 43.3125 52.78125 
Q 43.3125 58.59375 39.234375 62.25 
Q 35.15625 65.921875 28.609375 65.921875 
Q 23.96875 65.921875 18.8125 64.3125 
Q 13.671875 62.703125 7.8125 59.421875 
L 7.8125 69.390625 
Q 13.765625 71.78125 18.9375 73 
Q 24.125 74.21875 28.421875 74.21875 
Q 39.75 74.21875 46.484375 68.546875 
Q 53.21875 62.890625 53.21875 53.421875 
Q 53.21875 48.921875 51.53125 44.890625 
Q 49.859375 40.875 45.40625 35.40625 
Q 44.1875 33.984375 37.640625 27.21875 
Q 31.109375 20.453125 19.1875 8.296875 
z
" id="DejaVuSans-50"/>
      </defs>
      <g transform="translate(121.630533 322.182437)scale(0.1 -0.1)">
       <use xlink:href="#DejaVuSans-8722"/>
       <use x="83.789062" xlink:href="#DejaVuSans-50"/>
       <use x="147.412109" xlink:href="#DejaVuSans-48"/>
       <use x="211.035156" xlink:href="#DejaVuSans-48"/>
      </g>
     </g>
    </g>
    <g id="xtick_3">
     <g id="line2d_3">
      <g>
       <use style="stroke:#000000;stroke-width:0.8;" x="199.762342" xlink:href="#m21ffac65e0" y="307.584"/>
      </g>
     </g>
     <g id="text_3">
      <!-- −100 -->
      <defs>
       <path d="M 12.40625 8.296875 
L 28.515625 8.296875 
L 28.515625 63.921875 
L 10.984375 60.40625 
L 10.984375 69.390625 
L 28.421875 72.90625 
L 38.28125 72.90625 
L 38.28125 8.296875 
L 54.390625 8.296875 
L 54.390625 0 
L 12.40625 0 
z
" id="DejaVuSans-49"/>
      </defs>
      <g transform="translate(186.028749 322.182437)scale(0.1 -0.1)">
       <use xlink:href="#DejaVuSans-8722"/>
       <use x="83.789062" xlink:href="#DejaVuSans-49"/>
       <use x="147.412109" xlink:href="#DejaVuSans-48"/>
       <use x="211.035156" xlink:href="#DejaVuSans-48"/>
      </g>
     </g>
    </g>
    <g id="xtick_4">
     <g id="line2d_4">
      <g>
       <use style="stroke:#000000;stroke-width:0.8;" x="264.160558" xlink:href="#m21ffac65e0" y="307.584"/>
      </g>
     </g>
     <g id="text_4">
      <!-- 0 -->
      <g transform="translate(260.979308 322.182437)scale(0.1 -0.1)">
       <use xlink:href="#DejaVuSans-48"/>
      </g>
     </g>
    </g>
    <g id="xtick_5">
     <g id="line2d_5">
      <g>
       <use style="stroke:#000000;stroke-width:0.8;" x="328.558774" xlink:href="#m21ffac65e0" y="307.584"/>
      </g>
     </g>
     <g id="text_5">
      <!-- 100 -->
      <g transform="translate(319.015024 322.182437)scale(0.1 -0.1)">
       <use xlink:href="#DejaVuSans-49"/>
       <use x="63.623047" xlink:href="#DejaVuSans-48"/>
       <use x="127.246094" xlink:href="#DejaVuSans-48"/>
      </g>
     </g>
    </g>
    <g id="xtick_6">
     <g id="line2d_6">
      <g>
       <use style="stroke:#000000;stroke-width:0.8;" x="392.95699" xlink:href="#m21ffac65e0" y="307.584"/>
      </g>
     </g>
     <g id="text_6">
      <!-- 200 -->
      <g transform="translate(383.41324 322.182437)scale(0.1 -0.1)">
       <use xlink:href="#DejaVuSans-50"/>
       <use x="63.623047" xlink:href="#DejaVuSans-48"/>
       <use x="127.246094" xlink:href="#DejaVuSans-48"/>
      </g>
     </g>
    </g>
   </g>
   <g id="matplotlib.axis_2">
    <g id="ytick_1">
     <g id="line2d_7">
      <defs>
       <path d="M 0 0 
L -3.5 0 
" id="m7a9494bd2a" style="stroke:#000000;stroke-width:0.8;"/>
      </defs>
      <g>
       <use style="stroke:#000000;stroke-width:0.8;" x="57.6" xlink:href="#m7a9494bd2a" y="295.488"/>
      </g>
     </g>
     <g id="text_7">
      <!-- 0 -->
      <g transform="translate(44.2375 299.287219)scale(0.1 -0.1)">
       <use xlink:href="#DejaVuSans-48"/>
      </g>
     </g>
    </g>
    <g id="ytick_2">
     <g id="line2d_8">
      <g>
       <use style="stroke:#000000;stroke-width:0.8;" x="57.6" xlink:href="#m7a9494bd2a" y="263.288892"/>
      </g>
     </g>
     <g id="text_8">
      <!-- 50 -->
      <defs>
       <path d="M 10.796875 72.90625 
L 49.515625 72.90625 
L 49.515625 64.59375 
L 19.828125 64.59375 
L 19.828125 46.734375 
Q 21.96875 47.46875 24.109375 47.828125 
Q 26.265625 48.1875 28.421875 48.1875 
Q 40.625 48.1875 47.75 41.5 
Q 54.890625 34.8125 54.890625 23.390625 
Q 54.890625 11.625 47.5625 5.09375 
Q 40.234375 -1.421875 26.90625 -1.421875 
Q 22.3125 -1.421875 17.546875 -0.640625 
Q 12.796875 0.140625 7.71875 1.703125 
L 7.71875 11.625 
Q 12.109375 9.234375 16.796875 8.0625 
Q 21.484375 6.890625 26.703125 6.890625 
Q 35.15625 6.890625 40.078125 11.328125 
Q 45.015625 15.765625 45.015625 23.390625 
Q 45.015625 31 40.078125 35.4375 
Q 35.15625 39.890625 26.703125 39.890625 
Q 22.75 39.890625 18.8125 39.015625 
Q 14.890625 38.140625 10.796875 36.28125 
z
" id="DejaVuSans-53"/>
      </defs>
      <g transform="translate(37.875 267.088111)scale(0.1 -0.1)">
       <use xlink:href="#DejaVuSans-53"/>
       <use x="63.623047" xlink:href="#DejaVuSans-48"/>
      </g>
     </g>
    </g>
    <g id="ytick_3">
     <g id="line2d_9">
      <g>
       <use style="stroke:#000000;stroke-width:0.8;" x="57.6" xlink:href="#m7a9494bd2a" y="231.089784"/>
      </g>
     </g>
     <g id="text_9">
      <!-- 100 -->
      <g transform="translate(31.5125 234.889003)scale(0.1 -0.1)">
       <use xlink:href="#DejaVuSans-49"/>
       <use x="63.623047" xlink:href="#DejaVuSans-48"/>
       <use x="127.246094" xlink:href="#DejaVuSans-48"/>
      </g>
     </g>
    </g>
    <g id="ytick_4">
     <g id="line2d_10">
      <g>
       <use style="stroke:#000000;stroke-width:0.8;" x="57.6" xlink:href="#m7a9494bd2a" y="198.890676"/>
      </g>
     </g>
     <g id="text_10">
      <!-- 150 -->
      <g transform="translate(31.5125 202.689895)scale(0.1 -0.1)">
       <use xlink:href="#DejaVuSans-49"/>
       <use x="63.623047" xlink:href="#DejaVuSans-53"/>
       <use x="127.246094" xlink:href="#DejaVuSans-48"/>
      </g>
     </g>
    </g>
    <g id="ytick_5">
     <g id="line2d_11">
      <g>
       <use style="stroke:#000000;stroke-width:0.8;" x="57.6" xlink:href="#m7a9494bd2a" y="166.691568"/>
      </g>
     </g>
     <g id="text_11">
      <!-- 200 -->
      <g transform="translate(31.5125 170.490787)scale(0.1 -0.1)">
       <use xlink:href="#DejaVuSans-50"/>
       <use x="63.623047" xlink:href="#DejaVuSans-48"/>
       <use x="127.246094" xlink:href="#DejaVuSans-48"/>
      </g>
     </g>
    </g>
    <g id="ytick_6">
     <g id="line2d_12">
      <g>
       <use style="stroke:#000000;stroke-width:0.8;" x="57.6" xlink:href="#m7a9494bd2a" y="134.49246"/>
      </g>
     </g>
     <g id="text_12">
      <!-- 250 -->
      <g transform="translate(31.5125 138.291679)scale(0.1 -0.1)">
       <use xlink:href="#DejaVuSans-50"/>
       <use x="63.623047" xlink:href="#DejaVuSans-53"/>
       <use x="127.246094" xlink:href="#DejaVuSans-48"/>
      </g>
     </g>
    </g>
    <g id="ytick_7">
     <g id="line2d_13">
      <g>
       <use style="stroke:#000000;stroke-width:0.8;" x="57.6" xlink:href="#m7a9494bd2a" y="102.293352"/>
      </g>
     </g>
     <g id="text_13">
      <!-- 300 -->
      <g transform="translate(31.5125 106.092571)scale(0.1 -0.1)">
       <use xlink:href="#DejaVuSans-51"/>
       <use x="63.623047" xlink:href="#DejaVuSans-48"/>
       <use x="127.246094" xlink:href="#DejaVuSans-48"/>
      </g>
     </g>
    </g>
    <g id="ytick_8">
     <g id="line2d_14">
      <g>
       <use style="stroke:#000000;stroke-width:0.8;" x="57.6" xlink:href="#m7a9494bd2a" y="70.094245"/>
      </g>
     </g>
     <g id="text_14">
      <!-- 350 -->
      <g transform="translate(31.5125 73.893463)scale(0.1 -0.1)">
       <use xlink:href="#DejaVuSans-51"/>
       <use x="63.623047" xlink:href="#DejaVuSans-53"/>
       <use x="127.246094" xlink:href="#DejaVuSans-48"/>
      </g>
     </g>
    </g>
   </g>
   <g id="line2d_15">
    <path clip-path="url(#p32d180f07c)" d="M 264.160558 295.488 
L 262.311469 263.574817 
L 261.127728 247.720367 
L 260.789177 243.238258 
L 260.835329 242.032027 
L 261.058305 240.92423 
L 261.500855 239.976726 
L 261.975484 239.399995 
L 262.755001 238.812329 
L 263.870752 238.335898 
L 265.875322 237.933956 
L 268.349419 237.762554 
L 280.568174 237.294546 
L 284.731435 237.140577 
L 287.771282 237.244618 
L 291.119738 237.587359 
L 295.607154 238.091829 
L 297.297813 238.008813 
L 298.26575 237.791887 
L 299.149101 237.423865 
L 299.896088 236.923226 
L 300.688798 236.012365 
L 301.105847 235.204425 
L 301.464642 234.021906 
L 309.139247 201.576201 
L 309.791221 197.450078 
L 310.199294 193.236503 
L 310.455869 187.930926 
L 310.450492 182.526306 
L 309.617539 168.042244 
L 309.24432 160.009789 
L 309.211303 154.039687 
L 309.229199 151.447015 
L 309.09943 143.916545 
L 308.930758 142.257131 
L 308.609604 141.040713 
L 308.218565 140.228716 
L 307.512323 139.326948 
L 306.877337 138.778661 
L 305.953609 138.237587 
L 304.646113 137.858733 
L 302.765627 137.743267 
L 298.949305 137.894023 
L 282.272254 138.816849 
L 274.272025 139.166081 
L 269.819738 139.599545 
L 264.941733 139.999072 
L 261.560089 140.07094 
L 259.114971 139.886826 
L 257.985909 139.581707 
L 257.252137 139.218243 
L 256.54366 138.63647 
L 256.079606 138.094494 
L 255.583824 137.081382 
L 255.255502 135.859425 
L 255.053124 133.992714 
L 254.856742 128.412673 
L 254.281106 112.276474 
L 253.605877 98.871147 
L 252.851182 83.280144 
L 252.042289 68.908586 
L 251.689921 61.949006 
L 251.46322 58.659931 
L 251.118574 57.28445 
L 250.491438 56.082199 
L 249.735319 55.209346 
L 248.466449 54.344606 
L 246.870198 53.928529 
L 245.780457 53.937674 
L 234.708749 54.915175 
L 220.685838 55.667668 
L 214.416936 56.044075 
L 209.412035 56.117167 
L 202.367785 56.177702 
L 198.196886 56.567053 
L 191.365395 57.311497 
L 185.678131 57.65738 
L 167.416535 58.154341 
L 148.921046 59.339333 
L 147.573384 59.624874 
L 146.629371 59.983122 
L 145.776738 60.484269 
L 145.284028 60.921017 
L 144.819073 61.375991 
L 144.009136 62.905255 
L 143.694744 64.373213 
L 143.609996 65.960307 
L 143.655268 68.534175 
L 144.036699 72.937404 
L 145.088579 83.334947 
L 145.617675 91.225146 
L 146.159071 102.753008 
L 146.490979 109.91467 
L 147.41548 125.595057 
L 148.551529 143.883186 
L 148.647611 148.529325 
L 148.785037 151.544836 
L 149.045721 152.657251 
L 149.517888 153.633013 
L 150.18016 154.540448 
L 151.119665 155.356502 
L 152.028517 155.853463 
L 153.4702 156.305346 
L 154.722939 156.500601 
L 156.511921 156.612396 
L 160.853198 156.698626 
L 168.551876 156.639508 
L 177.2296 156.075187 
L 185.384732 155.474093 
L 190.81215 155.402289 
L 192.648078 155.295517 
L 194.074241 155.005983 
L 195.089415 154.630928 
L 196.032011 154.149229 
L 197.112034 153.27425 
L 198.003756 152.201827 
L 198.518877 151.330776 
L 198.965994 150.043842 
L 199.47474 147.361849 
L 199.923299 145.483224 
L 200.27114 144.668265 
L 200.99486 143.632935 
L 201.582062 143.206361 
L 202.382364 142.829953 
L 203.262566 142.491927 
L 204.871826 142.196017 
L 207.240617 141.967983 
L 210.712621 141.760685 
L 225.387049 140.99454 
L 236.691796 140.276242 
L 248.019777 139.344335 
L 249.333571 139.467529 
L 250.817718 139.809548 
L 251.71181 140.191365 
L 252.686374 140.932073 
L 253.334748 141.704144 
L 253.748301 142.448394 
L 254.145547 143.697784 
L 254.39719 145.203865 
L 254.578458 147.909106 
L 254.917173 160.766082 
L 255.407875 168.795703 
L 256.06768 180.379269 
L 257.641372 211.26427 
L 258.817108 231.392771 
L 259.123177 232.514357 
L 259.562735 233.523734 
L 260.140958 234.419713 
L 260.838688 235.197895 
L 261.642249 235.83357 
L 262.566102 236.321663 
L 263.879265 236.716985 
L 266.285072 236.986903 
L 272.990751 237.33041 
L 275.587983 237.300426 
L 280.031035 236.953017 
L 283.328546 236.801803 
L 286.033039 236.887073 
L 296.187163 237.698987 
L 298.453993 238.05404 
L 300.644987 238.611664 
L 303.86211 239.708804 
L 306.011651 240.510033 
L 306.011651 240.510033 
" style="fill:none;stroke:#008000;stroke-linecap:square;stroke-width:1.5;"/>
   </g>
   <g id="line2d_16">
    <path clip-path="url(#p32d180f07c)" d="M 264.160558 295.488 
L 264.052577 291.613369 
L 263.552973 282.599691 
L 261.317399 251.629642 
L 260.510594 242.61707 
L 260.700979 241.187904 
L 261.083523 240.192948 
L 261.678486 239.38254 
L 262.44401 238.77636 
L 263.549695 238.276468 
L 265.82706 237.831548 
L 268.02496 237.666057 
L 286.437949 236.804489 
L 290.328628 237.093501 
L 295.631906 237.575362 
L 296.978069 237.474922 
L 297.943527 237.243991 
L 298.821648 236.86049 
L 299.547726 236.328054 
L 300.335897 235.410564 
L 300.76242 234.606262 
L 301.210864 233.119209 
L 301.692076 230.838034 
L 302.949064 225.73707 
L 307.722135 205.001695 
L 309.036606 197.815491 
L 309.436635 194.144098 
L 309.863147 186.713918 
L 309.864137 182.395554 
L 309.075418 169.314201 
L 308.581619 160.984629 
L 308.428733 146.813651 
L 308.104222 141.566579 
L 307.776013 140.351767 
L 307.388998 139.536842 
L 306.670593 138.643834 
L 306.020378 138.113738 
L 305.084884 137.593575 
L 304.062329 137.265321 
L 302.545338 137.147418 
L 297.633926 137.380708 
L 289.796077 137.697203 
L 275.460685 138.545722 
L 270.365229 138.998207 
L 265.153096 139.515128 
L 261.133043 139.678214 
L 259.19223 139.591523 
L 259.189903 139.577502 
L 259.142224 139.765801 
L 259.173851 140.873868 
L 259.430355 141.926082 
L 259.929786 142.832772 
L 260.524456 143.461286 
L 261.148084 143.830327 
L 262.145352 144.183623 
L 263.685162 144.430307 
L 284.604209 145.974032 
L 291.226966 146.617881 
L 325.781208 149.67062 
L 327.146173 150.014393 
L 327.75431 150.344748 
L 328.637568 151.117943 
L 329.240344 152.019571 
L 329.657872 153.123425 
L 329.792417 154.432141 
L 329.629822 155.884731 
L 327.849103 167.630539 
L 325.911897 182.099117 
L 325.174206 187.713742 
L 324.600578 194.086864 
L 324.327766 197.03286 
L 323.826776 200.384371 
L 321.628046 213.286366 
L 321.275011 216.307533 
L 320.648365 223.259274 
L 319.840019 230.10907 
L 318.828718 237.372078 
L 317.599289 246.732554 
L 316.987333 250.782767 
L 316.598095 252.483922 
L 316.104266 253.740023 
L 315.410298 254.822812 
L 314.754319 255.491404 
L 313.963362 256.036221 
L 313.104077 256.401124 
L 312.180541 256.599632 
L 310.517356 256.684195 
L 307.954219 256.564988 
L 304.183065 256.124455 
L 298.920914 255.429628 
L 289.90293 254.641683 
L 261.878143 252.672038 
L 243.598739 251.231342 
L 240.646321 251.157079 
L 239.177318 250.935243 
L 238.327071 250.570943 
L 237.403777 249.821735 
L 236.768323 248.982819 
L 236.376438 248.163087 
L 236.001218 246.787984 
L 235.897284 245.170137 
L 235.999269 242.474119 
L 236.59431 234.859461 
L 237.571382 226.280655 
L 239.230902 214.359427 
L 239.790998 207.550557 
L 240.19783 205.778982 
L 240.738447 204.466973 
L 241.475589 203.328362 
L 242.385786 202.372017 
L 243.14619 201.817577 
L 243.951454 201.40082 
L 245.936878 200.856578 
L 248.592912 199.997868 
L 249.227906 199.563876 
L 250.070561 198.757494 
L 250.598191 197.764587 
L 251.043749 196.42217 
L 251.430567 194.123304 
L 253.142512 177.534199 
L 253.92904 170.254824 
L 255.97751 151.924772 
L 255.894542 149.997982 
L 255.552346 148.653243 
L 255.052749 147.73076 
L 254.487218 147.070793 
L 253.709386 146.539026 
L 252.964509 146.249543 
L 251.431174 145.970723 
L 249.194446 145.842611 
L 241.951767 145.788673 
L 235.537817 145.432776 
L 226.180374 144.829982 
L 202.128685 143.818458 
L 179.885929 142.609271 
L 178.68237 142.192552 
L 177.893727 141.72316 
L 177.02142 140.895911 
L 176.368973 139.859391 
L 176.036621 138.946688 
L 175.811552 137.645996 
L 175.795448 135.605569 
L 176.26778 126.557397 
L 177.302008 116.71551 
L 177.298095 111.851142 
L 177.126739 102.747092 
L 176.656314 100.060154 
L 175.661626 95.804461 
L 175.661626 95.804461 
" style="fill:none;stroke:#0000ff;stroke-linecap:square;stroke-width:1.5;"/>
   </g>
   <g id="line2d_17">
    <path clip-path="url(#p32d180f07c)" d="M 264.160558 295.488 
L 264.052577 291.613369 
L 263.552973 282.599692 
L 261.317399 251.629642 
L 260.510595 242.61707 
L 260.700979 241.187904 
L 261.083523 240.192948 
L 261.678486 239.382541 
L 262.44401 238.77636 
L 263.549695 238.276469 
L 265.82706 237.831549 
L 268.02496 237.666058 
L 286.437948 236.804489 
L 290.328628 237.093501 
L 295.631906 237.575362 
L 296.978069 237.474922 
L 297.943526 237.243991 
L 298.821647 236.86049 
L 299.547725 236.328054 
L 300.335897 235.410564 
L 300.76242 234.606262 
L 301.210864 233.119209 
L 301.692076 230.838035 
L 302.949063 225.737071 
L 307.722135 205.001695 
L 309.036605 197.815492 
L 309.436634 194.144099 
L 309.863147 186.713919 
L 309.864137 182.395554 
L 309.075418 169.314201 
L 308.581619 160.984629 
L 308.428734 146.813651 
L 308.104222 141.56658 
L 307.776013 140.351767 
L 307.388998 139.536843 
L 306.670593 138.643834 
L 306.020379 138.113738 
L 305.084885 137.593576 
L 304.062329 137.265322 
L 302.545338 137.147419 
L 297.633926 137.380709 
L 289.796077 137.697204 
L 275.460685 138.545722 
L 270.365229 138.998208 
L 265.153096 139.515128 
L 261.133043 139.678215 
L 259.14923 139.597015 
L 258.842175 139.567091 
L 258.854553 139.566532 
L 257.699421 139.352156 
L 256.808352 138.966149 
L 256.081832 138.442657 
L 255.444217 137.730599 
L 255.043968 137.011934 
L 254.671463 135.824028 
L 254.451281 134.422342 
L 254.290834 130.565547 
L 253.929686 121.152277 
L 250.541773 58.288834 
L 250.108696 56.665233 
L 249.39408 55.483482 
L 248.587751 54.668072 
L 247.520172 54.002392 
L 246.595089 53.699745 
L 245.565294 53.568 
L 243.28393 53.736806 
L 237.521946 54.260977 
L 232.598669 54.514994 
L 218.000058 55.325179 
L 212.332315 55.609143 
L 206.386515 55.606883 
L 201.402442 55.673399 
L 195.1717 56.30814 
L 189.342423 56.871563 
L 184.703501 57.143721 
L 170.133051 57.304357 
L 163.984381 57.644438 
L 158.040013 57.995708 
L 147.581334 58.643625 
L 146.252708 58.983324 
L 145.04853 59.557028 
L 144.27194 60.170555 
L 143.621027 60.936115 
L 143.126297 61.849792 
L 142.789831 62.881981 
L 142.595208 64.411435 
L 142.535518 67.346387 
L 142.906921 72.738815 
L 143.799122 83.830354 
L 144.432129 99.07946 
L 144.847245 110.460773 
L 145.103673 117.333366 
L 145.466637 124.938891 
L 146.143 137.612311 
L 146.402331 148.285959 
L 146.476883 150.626324 
L 146.670747 151.751466 
L 147.081304 152.783617 
L 147.683558 153.715945 
L 148.513296 154.568392 
L 149.330032 155.129738 
L 150.348007 155.607117 
L 151.496459 155.912487 
L 153.669828 156.14575 
L 158.98397 156.297536 
L 164.432887 156.289168 
L 170.2349 156.15379 
L 183.420691 155.340974 
L 190.647217 155.342859 
L 192.073552 155.076431 
L 193.406185 154.567067 
L 194.302981 154.019753 
L 195.321417 153.078416 
L 195.957134 152.254464 
L 196.564219 151.032175 
L 197.243097 148.374717 
L 197.959595 145.882518 
L 198.370045 145.096967 
L 199.164753 144.111342 
L 199.967086 143.597603 
L 201.245638 143.134312 
L 202.816097 142.90811 
L 205.112981 142.789354 
L 215.137221 142.525623 
L 225.366587 142.361053 
L 245.258145 141.59182 
L 247.653556 141.796477 
L 248.92808 142.112949 
L 249.741248 142.44299 
L 250.621768 143.069013 
L 251.27342 143.737711 
L 251.835325 144.677864 
L 252.219518 145.857109 
L 252.464343 147.724377 
L 252.544715 150.434974 
L 252.441713 159.173295 
L 252.616977 166.173546 
L 253.03618 177.424392 
L 253.402583 202.961805 
L 253.440296 206.34685 
L 254.140702 206.790306 
L 251.02306 233.420736 
L 251.198325 234.945525 
L 251.505705 235.994409 
L 252.148653 237.240988 
L 253.038993 238.276802 
L 253.870561 238.909428 
L 255.103025 239.510041 
L 257.100686 240.044357 
L 265.026254 241.618411 
L 268.801015 242.040631 
L 274.306374 242.644336 
L 276.957699 243.177101 
L 288.48723 246.143351 
L 290.587891 247.003994 
L 293.090414 248.280039 
L 296.076433 249.999172 
L 296.076433 249.999172 
" style="fill:none;stroke:#ff0000;stroke-linecap:square;stroke-width:1.5;"/>
   </g>
   <g id="patch_3">
    <path d="M 57.6 307.584 
L 57.6 41.472 
" style="fill:none;stroke:#000000;stroke-linecap:square;stroke-linejoin:miter;stroke-width:0.8;"/>
   </g>
   <g id="patch_4">
    <path d="M 414.72 307.584 
L 414.72 41.472 
" style="fill:none;stroke:#000000;stroke-linecap:square;stroke-linejoin:miter;stroke-width:0.8;"/>
   </g>
   <g id="patch_5">
    <path d="M 57.6 307.584 
L 414.72 307.584 
" style="fill:none;stroke:#000000;stroke-linecap:square;stroke-linejoin:miter;stroke-width:0.8;"/>
   </g>
   <g id="patch_6">
    <path d="M 57.6 41.472 
L 414.72 41.472 
" style="fill:none;stroke:#000000;stroke-linecap:square;stroke-linejoin:miter;stroke-width:0.8;"/>
   </g>
  </g>
 </g>
 <defs>
  <clipPath id="p32d180f07c">
   <rect height="266.112" width="357.12" x="57.6" y="41.472"/>
  </clipPath>
 </defs>
</svg>
