<?xml version="1.0" encoding="utf-8" standalone="no"?>
<!DOCTYPE svg PUBLIC "-//W3C//DTD SVG 1.1//EN"
  "http://www.w3.org/Graphics/SVG/1.1/DTD/svg11.dtd">
<!-- Created with matplotlib (https://matplotlib.org/) -->
<svg height="345.6pt" version="1.1" viewBox="0 0 460.8 345.6" width="460.8pt" xmlns="http://www.w3.org/2000/svg" xmlns:xlink="http://www.w3.org/1999/xlink">
 <defs>
  <style type="text/css">
*{stroke-linecap:butt;stroke-linejoin:round;}
  </style>
 </defs>
 <g id="figure_1">
  <g id="patch_1">
   <path d="M 0 345.6 
L 460.8 345.6 
L 460.8 0 
L 0 0 
z
" style="fill:#ffffff;"/>
  </g>
  <g id="axes_1">
   <g id="patch_2">
    <path d="M 57.6 307.584 
L 414.72 307.584 
L 414.72 41.472 
L 57.6 41.472 
z
" style="fill:#ffffff;"/>
   </g>
   <g id="matplotlib.axis_1">
    <g id="xtick_1">
     <g id="line2d_1">
      <defs>
       <path d="M 0 0 
L 0 3.5 
" id="mb9b120c084" style="stroke:#000000;stroke-width:0.8;"/>
      </defs>
      <g>
       <use style="stroke:#000000;stroke-width:0.8;" x="98.514432" xlink:href="#mb9b120c084" y="307.584"/>
      </g>
     </g>
     <g id="text_1">
      <!-- −60 -->
      <defs>
       <path d="M 10.59375 35.5 
L 73.1875 35.5 
L 73.1875 27.203125 
L 10.59375 27.203125 
z
" id="DejaVuSans-8722"/>
       <path d="M 33.015625 40.375 
Q 26.375 40.375 22.484375 35.828125 
Q 18.609375 31.296875 18.609375 23.390625 
Q 18.609375 15.53125 22.484375 10.953125 
Q 26.375 6.390625 33.015625 6.390625 
Q 39.65625 6.390625 43.53125 10.953125 
Q 47.40625 15.53125 47.40625 23.390625 
Q 47.40625 31.296875 43.53125 35.828125 
Q 39.65625 40.375 33.015625 40.375 
z
M 52.59375 71.296875 
L 52.59375 62.3125 
Q 48.875 64.0625 45.09375 64.984375 
Q 41.3125 65.921875 37.59375 65.921875 
Q 27.828125 65.921875 22.671875 59.328125 
Q 17.53125 52.734375 16.796875 39.40625 
Q 19.671875 43.65625 24.015625 45.921875 
Q 28.375 48.1875 33.59375 48.1875 
Q 44.578125 48.1875 50.953125 41.515625 
Q 57.328125 34.859375 57.328125 23.390625 
Q 57.328125 12.15625 50.6875 5.359375 
Q 44.046875 -1.421875 33.015625 -1.421875 
Q 20.359375 -1.421875 13.671875 8.265625 
Q 6.984375 17.96875 6.984375 36.375 
Q 6.984375 53.65625 15.1875 63.9375 
Q 23.390625 74.21875 37.203125 74.21875 
Q 40.921875 74.21875 44.703125 73.484375 
Q 48.484375 72.75 52.59375 71.296875 
z
" id="DejaVuSans-54"/>
       <path d="M 31.78125 66.40625 
Q 24.171875 66.40625 20.328125 58.90625 
Q 16.5 51.421875 16.5 36.375 
Q 16.5 21.390625 20.328125 13.890625 
Q 24.171875 6.390625 31.78125 6.390625 
Q 39.453125 6.390625 43.28125 13.890625 
Q 47.125 21.390625 47.125 36.375 
Q 47.125 51.421875 43.28125 58.90625 
Q 39.453125 66.40625 31.78125 66.40625 
z
M 31.78125 74.21875 
Q 44.046875 74.21875 50.515625 64.515625 
Q 56.984375 54.828125 56.984375 36.375 
Q 56.984375 17.96875 50.515625 8.265625 
Q 44.046875 -1.421875 31.78125 -1.421875 
Q 19.53125 -1.421875 13.0625 8.265625 
Q 6.59375 17.96875 6.59375 36.375 
Q 6.59375 54.828125 13.0625 64.515625 
Q 19.53125 74.21875 31.78125 74.21875 
z
" id="DejaVuSans-48"/>
      </defs>
      <g transform="translate(87.962088 322.182437)scale(0.1 -0.1)">
       <use xlink:href="#DejaVuSans-8722"/>
       <use x="83.789062" xlink:href="#DejaVuSans-54"/>
       <use x="147.412109" xlink:href="#DejaVuSans-48"/>
      </g>
     </g>
    </g>
    <g id="xtick_2">
     <g id="line2d_2">
      <g>
       <use style="stroke:#000000;stroke-width:0.8;" x="148.509905" xlink:href="#mb9b120c084" y="307.584"/>
      </g>
     </g>
     <g id="text_2">
      <!-- −50 -->
      <defs>
       <path d="M 10.796875 72.90625 
L 49.515625 72.90625 
L 49.515625 64.59375 
L 19.828125 64.59375 
L 19.828125 46.734375 
Q 21.96875 47.46875 24.109375 47.828125 
Q 26.265625 48.1875 28.421875 48.1875 
Q 40.625 48.1875 47.75 41.5 
Q 54.890625 34.8125 54.890625 23.390625 
Q 54.890625 11.625 47.5625 5.09375 
Q 40.234375 -1.421875 26.90625 -1.421875 
Q 22.3125 -1.421875 17.546875 -0.640625 
Q 12.796875 0.140625 7.71875 1.703125 
L 7.71875 11.625 
Q 12.109375 9.234375 16.796875 8.0625 
Q 21.484375 6.890625 26.703125 6.890625 
Q 35.15625 6.890625 40.078125 11.328125 
Q 45.015625 15.765625 45.015625 23.390625 
Q 45.015625 31 40.078125 35.4375 
Q 35.15625 39.890625 26.703125 39.890625 
Q 22.75 39.890625 18.8125 39.015625 
Q 14.890625 38.140625 10.796875 36.28125 
z
" id="DejaVuSans-53"/>
      </defs>
      <g transform="translate(137.957562 322.182437)scale(0.1 -0.1)">
       <use xlink:href="#DejaVuSans-8722"/>
       <use x="83.789062" xlink:href="#DejaVuSans-53"/>
       <use x="147.412109" xlink:href="#DejaVuSans-48"/>
      </g>
     </g>
    </g>
    <g id="xtick_3">
     <g id="line2d_3">
      <g>
       <use style="stroke:#000000;stroke-width:0.8;" x="198.505379" xlink:href="#mb9b120c084" y="307.584"/>
      </g>
     </g>
     <g id="text_3">
      <!-- −40 -->
      <defs>
       <path d="M 37.796875 64.3125 
L 12.890625 25.390625 
L 37.796875 25.390625 
z
M 35.203125 72.90625 
L 47.609375 72.90625 
L 47.609375 25.390625 
L 58.015625 25.390625 
L 58.015625 17.1875 
L 47.609375 17.1875 
L 47.609375 0 
L 37.796875 0 
L 37.796875 17.1875 
L 4.890625 17.1875 
L 4.890625 26.703125 
z
" id="DejaVuSans-52"/>
      </defs>
      <g transform="translate(187.953035 322.182437)scale(0.1 -0.1)">
       <use xlink:href="#DejaVuSans-8722"/>
       <use x="83.789062" xlink:href="#DejaVuSans-52"/>
       <use x="147.412109" xlink:href="#DejaVuSans-48"/>
      </g>
     </g>
    </g>
    <g id="xtick_4">
     <g id="line2d_4">
      <g>
       <use style="stroke:#000000;stroke-width:0.8;" x="248.500852" xlink:href="#mb9b120c084" y="307.584"/>
      </g>
     </g>
     <g id="text_4">
      <!-- −30 -->
      <defs>
       <path d="M 40.578125 39.3125 
Q 47.65625 37.796875 51.625 33 
Q 55.609375 28.21875 55.609375 21.1875 
Q 55.609375 10.40625 48.1875 4.484375 
Q 40.765625 -1.421875 27.09375 -1.421875 
Q 22.515625 -1.421875 17.65625 -0.515625 
Q 12.796875 0.390625 7.625 2.203125 
L 7.625 11.71875 
Q 11.71875 9.328125 16.59375 8.109375 
Q 21.484375 6.890625 26.8125 6.890625 
Q 36.078125 6.890625 40.9375 10.546875 
Q 45.796875 14.203125 45.796875 21.1875 
Q 45.796875 27.640625 41.28125 31.265625 
Q 36.765625 34.90625 28.71875 34.90625 
L 20.21875 34.90625 
L 20.21875 43.015625 
L 29.109375 43.015625 
Q 36.375 43.015625 40.234375 45.921875 
Q 44.09375 48.828125 44.09375 54.296875 
Q 44.09375 59.90625 40.109375 62.90625 
Q 36.140625 65.921875 28.71875 65.921875 
Q 24.65625 65.921875 20.015625 65.03125 
Q 15.375 64.15625 9.8125 62.3125 
L 9.8125 71.09375 
Q 15.4375 72.65625 20.34375 73.4375 
Q 25.25 74.21875 29.59375 74.21875 
Q 40.828125 74.21875 47.359375 69.109375 
Q 53.90625 64.015625 53.90625 55.328125 
Q 53.90625 49.265625 50.4375 45.09375 
Q 46.96875 40.921875 40.578125 39.3125 
z
" id="DejaVuSans-51"/>
      </defs>
      <g transform="translate(237.948509 322.182437)scale(0.1 -0.1)">
       <use xlink:href="#DejaVuSans-8722"/>
       <use x="83.789062" xlink:href="#DejaVuSans-51"/>
       <use x="147.412109" xlink:href="#DejaVuSans-48"/>
      </g>
     </g>
    </g>
    <g id="xtick_5">
     <g id="line2d_5">
      <g>
       <use style="stroke:#000000;stroke-width:0.8;" x="298.496326" xlink:href="#mb9b120c084" y="307.584"/>
      </g>
     </g>
     <g id="text_5">
      <!-- −20 -->
      <defs>
       <path d="M 19.1875 8.296875 
L 53.609375 8.296875 
L 53.609375 0 
L 7.328125 0 
L 7.328125 8.296875 
Q 12.9375 14.109375 22.625 23.890625 
Q 32.328125 33.6875 34.8125 36.53125 
Q 39.546875 41.84375 41.421875 45.53125 
Q 43.3125 49.21875 43.3125 52.78125 
Q 43.3125 58.59375 39.234375 62.25 
Q 35.15625 65.921875 28.609375 65.921875 
Q 23.96875 65.921875 18.8125 64.3125 
Q 13.671875 62.703125 7.8125 59.421875 
L 7.8125 69.390625 
Q 13.765625 71.78125 18.9375 73 
Q 24.125 74.21875 28.421875 74.21875 
Q 39.75 74.21875 46.484375 68.546875 
Q 53.21875 62.890625 53.21875 53.421875 
Q 53.21875 48.921875 51.53125 44.890625 
Q 49.859375 40.875 45.40625 35.40625 
Q 44.1875 33.984375 37.640625 27.21875 
Q 31.109375 20.453125 19.1875 8.296875 
z
" id="DejaVuSans-50"/>
      </defs>
      <g transform="translate(287.943982 322.182437)scale(0.1 -0.1)">
       <use xlink:href="#DejaVuSans-8722"/>
       <use x="83.789062" xlink:href="#DejaVuSans-50"/>
       <use x="147.412109" xlink:href="#DejaVuSans-48"/>
      </g>
     </g>
    </g>
    <g id="xtick_6">
     <g id="line2d_6">
      <g>
       <use style="stroke:#000000;stroke-width:0.8;" x="348.491799" xlink:href="#mb9b120c084" y="307.584"/>
      </g>
     </g>
     <g id="text_6">
      <!-- −10 -->
      <defs>
       <path d="M 12.40625 8.296875 
L 28.515625 8.296875 
L 28.515625 63.921875 
L 10.984375 60.40625 
L 10.984375 69.390625 
L 28.421875 72.90625 
L 38.28125 72.90625 
L 38.28125 8.296875 
L 54.390625 8.296875 
L 54.390625 0 
L 12.40625 0 
z
" id="DejaVuSans-49"/>
      </defs>
      <g transform="translate(337.939455 322.182437)scale(0.1 -0.1)">
       <use xlink:href="#DejaVuSans-8722"/>
       <use x="83.789062" xlink:href="#DejaVuSans-49"/>
       <use x="147.412109" xlink:href="#DejaVuSans-48"/>
      </g>
     </g>
    </g>
    <g id="xtick_7">
     <g id="line2d_7">
      <g>
       <use style="stroke:#000000;stroke-width:0.8;" x="398.487273" xlink:href="#mb9b120c084" y="307.584"/>
      </g>
     </g>
     <g id="text_7">
      <!-- 0 -->
      <g transform="translate(395.306023 322.182437)scale(0.1 -0.1)">
       <use xlink:href="#DejaVuSans-48"/>
      </g>
     </g>
    </g>
   </g>
   <g id="matplotlib.axis_2">
    <g id="ytick_1">
     <g id="line2d_8">
      <defs>
       <path d="M 0 0 
L -3.5 0 
" id="m1be5c90bbc" style="stroke:#000000;stroke-width:0.8;"/>
      </defs>
      <g>
       <use style="stroke:#000000;stroke-width:0.8;" x="57.6" xlink:href="#m1be5c90bbc" y="292.583916"/>
      </g>
     </g>
     <g id="text_8">
      <!-- −10 -->
      <g transform="translate(29.495313 296.383135)scale(0.1 -0.1)">
       <use xlink:href="#DejaVuSans-8722"/>
       <use x="83.789062" xlink:href="#DejaVuSans-49"/>
       <use x="147.412109" xlink:href="#DejaVuSans-48"/>
      </g>
     </g>
    </g>
    <g id="ytick_2">
     <g id="line2d_9">
      <g>
       <use style="stroke:#000000;stroke-width:0.8;" x="57.6" xlink:href="#m1be5c90bbc" y="242.588443"/>
      </g>
     </g>
     <g id="text_9">
      <!-- 0 -->
      <g transform="translate(44.2375 246.387661)scale(0.1 -0.1)">
       <use xlink:href="#DejaVuSans-48"/>
      </g>
     </g>
    </g>
    <g id="ytick_3">
     <g id="line2d_10">
      <g>
       <use style="stroke:#000000;stroke-width:0.8;" x="57.6" xlink:href="#m1be5c90bbc" y="192.592969"/>
      </g>
     </g>
     <g id="text_10">
      <!-- 10 -->
      <g transform="translate(37.875 196.392188)scale(0.1 -0.1)">
       <use xlink:href="#DejaVuSans-49"/>
       <use x="63.623047" xlink:href="#DejaVuSans-48"/>
      </g>
     </g>
    </g>
    <g id="ytick_4">
     <g id="line2d_11">
      <g>
       <use style="stroke:#000000;stroke-width:0.8;" x="57.6" xlink:href="#m1be5c90bbc" y="142.597496"/>
      </g>
     </g>
     <g id="text_11">
      <!-- 20 -->
      <g transform="translate(37.875 146.396714)scale(0.1 -0.1)">
       <use xlink:href="#DejaVuSans-50"/>
       <use x="63.623047" xlink:href="#DejaVuSans-48"/>
      </g>
     </g>
    </g>
    <g id="ytick_5">
     <g id="line2d_12">
      <g>
       <use style="stroke:#000000;stroke-width:0.8;" x="57.6" xlink:href="#m1be5c90bbc" y="92.602022"/>
      </g>
     </g>
     <g id="text_12">
      <!-- 30 -->
      <g transform="translate(37.875 96.401241)scale(0.1 -0.1)">
       <use xlink:href="#DejaVuSans-51"/>
       <use x="63.623047" xlink:href="#DejaVuSans-48"/>
      </g>
     </g>
    </g>
    <g id="ytick_6">
     <g id="line2d_13">
      <g>
       <use style="stroke:#000000;stroke-width:0.8;" x="57.6" xlink:href="#m1be5c90bbc" y="42.606549"/>
      </g>
     </g>
     <g id="text_13">
      <!-- 40 -->
      <g transform="translate(37.875 46.405767)scale(0.1 -0.1)">
       <use xlink:href="#DejaVuSans-52"/>
       <use x="63.623047" xlink:href="#DejaVuSans-48"/>
      </g>
     </g>
    </g>
   </g>
   <g id="line2d_14">
    <path clip-path="url(#p90f548d6b2)" d="M 398.487273 242.588443 
L 398.236602 237.596377 
L 397.949784 232.606628 
L 397.566214 227.623447 
L 397.034913 222.652214 
L 396.42011 217.690677 
L 395.745664 212.73692 
L 394.937939 207.803163 
L 394.08712 202.876736 
L 393.108491 197.974144 
L 391.958328 193.110115 
L 390.556052 188.314698 
L 388.943437 183.587738 
L 387.211671 178.902291 
L 385.381816 174.250571 
L 383.356599 169.679991 
L 381.125712 165.206405 
L 378.778141 160.792617 
L 376.220994 156.4969 
L 373.430385 152.349145 
L 370.553712 148.261112 
L 367.610639 144.220418 
L 364.515613 140.294076 
L 361.094438 136.648736 
L 357.350797 133.335936 
L 353.470401 130.183801 
L 349.49311 127.154765 
L 345.457509 124.203605 
L 341.245817 121.509706 
L 336.86947 119.092464 
L 332.357916 116.938205 
L 327.731096 115.044424 
L 323.000637 113.427269 
L 318.190506 112.067028 
L 313.313325 110.970278 
L 308.395028 110.073969 
L 303.451368 109.329187 
L 298.477546 108.825023 
L 293.4841 108.592449 
L 288.486471 108.519424 
L 283.488849 108.560029 
L 278.492529 108.703355 
L 273.498522 108.927569 
L 268.512509 109.287122 
L 263.53162 109.707572 
L 258.552953 110.149957 
L 253.577434 110.632634 
L 248.605155 111.152506 
L 243.63722 111.71307 
L 238.66639 112.24246 
L 233.693201 112.74445 
L 228.720115 113.24989 
L 223.747672 113.76702 
L 218.775898 114.289435 
L 213.80476 114.81423 
L 208.830816 115.306747 
L 203.855477 115.782668 
L 198.879966 116.261343 
L 193.902975 116.726615 
L 188.925628 117.180022 
L 183.948504 117.631571 
L 178.970212 118.073731 
L 173.987409 118.462269 
L 169.004229 118.850858 
L 164.022024 119.251174 
L 159.039787 119.65564 
L 154.055618 120.03965 
L 149.070201 120.403952 
L 144.085543 120.782421 
L 139.103402 121.194807 
L 134.122303 121.616227 
L 129.143472 122.059211 
L 124.165322 122.510871 
L 119.186394 122.952303 
L 114.206814 123.383101 
L 109.227867 123.82121 
L 104.248071 124.255725 
L 99.269285 124.701017 
L 94.289563 125.134614 
L 89.30874 125.558173 
L 84.32694 125.973568 
L 79.343783 126.375312 
L 74.361134 126.778922 
" style="fill:none;stroke:#008000;stroke-linecap:square;stroke-width:1.5;"/>
   </g>
   <g id="line2d_15">
    <path clip-path="url(#p90f548d6b2)" d="M 398.487273 242.588443 
L 398.027351 237.610783 
L 397.611532 232.629176 
L 397.256853 227.642716 
L 396.520726 222.698092 
L 395.818637 217.74828 
L 394.999348 212.816903 
L 394.13684 207.892338 
L 393.197013 202.981945 
L 392.215818 198.080331 
L 391.031096 193.224522 
L 389.468638 188.476097 
L 387.713081 183.797331 
L 385.830842 179.170887 
L 383.890149 174.563645 
L 381.842121 170.006203 
L 379.64167 165.517043 
L 377.297675 161.101702 
L 374.738424 156.807232 
L 371.975354 152.640589 
L 369.202813 148.480439 
L 366.310457 144.402542 
L 363.280664 140.42703 
L 360.023477 136.635577 
L 356.384891 133.208312 
L 352.615646 129.927112 
L 348.640391 126.895169 
L 344.75634 123.747248 
L 340.631329 120.922774 
L 336.382497 118.288155 
L 331.913236 116.047356 
L 327.383572 113.933909 
L 322.687923 112.219773 
L 317.912447 110.740383 
L 313.065247 109.515803 
L 308.168904 108.506368 
L 303.239543 107.673227 
L 298.280401 107.04002 
L 293.288928 106.76239 
L 288.291845 106.618611 
L 283.294287 106.562275 
L 278.296079 106.624915 
L 273.297864 106.73678 
L 268.306494 107.019103 
L 263.320275 107.379344 
L 258.333435 107.723299 
L 253.348689 108.099502 
L 248.367836 108.531118 
L 243.387682 108.970804 
L 238.411115 109.445093 
L 233.426494 109.827296 
L 228.444743 110.240887 
L 223.460297 110.628227 
L 218.481408 111.080205 
L 213.499042 111.491126 
L 208.513165 111.848671 
L 203.530108 112.244566 
L 198.544843 112.611735 
L 193.558677 112.972665 
L 188.575142 113.359092 
L 183.595259 113.78743 
L 178.610776 114.162851 
L 173.620632 114.455786 
L 168.629645 114.737391 
L 163.639789 115.038511 
L 158.648276 115.310999 
L 153.65745 115.600682 
L 148.669241 115.932326 
L 143.676414 116.184403 
L 138.6848 116.463862 
L 133.696164 116.786325 
L 128.706422 117.08486 
L 123.718359 117.411598 
L 118.731545 117.762638 
L 113.74197 118.064505 
L 108.755226 118.413456 
L 103.765143 118.709007 
L 98.778717 119.061879 
L 93.789063 119.367984 
L 88.800937 119.696048 
L 83.815515 120.065065 
L 78.825204 120.367622 
L 73.832727 120.625694 
" style="fill:none;stroke:#0000ff;stroke-linecap:square;stroke-width:1.5;"/>
   </g>
   <g id="line2d_16">
    <path clip-path="url(#p90f548d6b2)" d="M 398.487273 242.588443 
L 398.027235 237.610791 
L 397.611067 232.629209 
L 397.255929 227.642779 
L 396.518948 222.698283 
L 395.815456 217.748671 
L 394.994996 212.817492 
L 394.131366 207.893123 
L 393.190414 202.982946 
L 392.207713 198.081639 
L 391.020376 193.226478 
L 389.454766 188.479107 
L 387.695791 183.801664 
L 385.810342 179.176574 
L 383.866962 174.570475 
L 381.816551 170.014128 
L 379.614094 165.525956 
L 377.268176 161.111652 
L 374.706878 156.818412 
L 371.941914 152.653026 
L 369.167578 148.494063 
L 366.273458 144.417424 
L 363.241989 140.443232 
L 359.982994 136.653392 
L 356.342507 133.22823 
L 352.571565 129.949118 
L 348.594813 126.919151 
L 344.708273 123.774353 
L 340.580984 120.953056 
L 336.411635 118.195951 
L 332.007306 115.831574 
L 327.470337 113.732886 
L 322.770024 112.030412 
L 317.990514 110.56393 
L 313.139927 109.352728 
L 308.241029 108.35512 
L 303.309755 107.532676 
L 298.348759 106.913779 
L 293.356439 106.650234 
L 288.359211 106.514308 
L 283.361365 106.467557 
L 278.363191 106.543371 
L 273.365255 106.668628 
L 268.373964 106.953432 
L 263.386904 107.300654 
L 258.401069 107.662672 
L 253.417413 108.05628 
L 248.43799 108.504287 
L 243.459387 108.96104 
L 238.484239 109.450368 
L 233.500914 109.848343 
L 228.520159 110.277143 
L 223.536914 110.680371 
L 218.559426 111.148011 
L 213.578332 111.574477 
L 208.593378 111.94766 
L 203.611394 112.359047 
L 198.627013 112.741884 
L 193.641861 113.118848 
L 188.65913 113.518384 
L 183.680157 113.959955 
L 178.696396 114.347909 
L 173.706778 114.653351 
L 168.716406 114.947705 
L 163.727238 115.261884 
L 158.736309 115.548186 
L 153.746159 115.851361 
L 148.758659 116.195307 
L 143.766284 116.459325 
L 138.775372 116.752037 
L 133.787424 117.087056 
L 128.798179 117.399155 
L 123.810768 117.739712 
L 118.824933 118.104498 
L 113.836116 118.420198 
L 108.850436 118.783833 
L 103.861029 119.094024 
L 98.875195 119.458738 
L 93.886125 119.776864 
L 88.898654 120.117416 
L 83.914027 120.498922 
L 78.92449 120.81449 
L 73.932629 121.085752 
" style="fill:none;stroke:#ff0000;stroke-linecap:square;stroke-width:1.5;"/>
   </g>
   <g id="patch_3">
    <path d="M 57.6 307.584 
L 57.6 41.472 
" style="fill:none;stroke:#000000;stroke-linecap:square;stroke-linejoin:miter;stroke-width:0.8;"/>
   </g>
   <g id="patch_4">
    <path d="M 414.72 307.584 
L 414.72 41.472 
" style="fill:none;stroke:#000000;stroke-linecap:square;stroke-linejoin:miter;stroke-width:0.8;"/>
   </g>
   <g id="patch_5">
    <path d="M 57.6 307.584 
L 414.72 307.584 
" style="fill:none;stroke:#000000;stroke-linecap:square;stroke-linejoin:miter;stroke-width:0.8;"/>
   </g>
   <g id="patch_6">
    <path d="M 57.6 41.472 
L 414.72 41.472 
" style="fill:none;stroke:#000000;stroke-linecap:square;stroke-linejoin:miter;stroke-width:0.8;"/>
   </g>
  </g>
 </g>
 <defs>
  <clipPath id="p90f548d6b2">
   <rect height="266.112" width="357.12" x="57.6" y="41.472"/>
  </clipPath>
 </defs>
</svg>
