<?xml version="1.0" encoding="utf-8" standalone="no"?>
<!DOCTYPE svg PUBLIC "-//W3C//DTD SVG 1.1//EN"
  "http://www.w3.org/Graphics/SVG/1.1/DTD/svg11.dtd">
<!-- Created with matplotlib (https://matplotlib.org/) -->
<svg height="345.6pt" version="1.1" viewBox="0 0 460.8 345.6" width="460.8pt" xmlns="http://www.w3.org/2000/svg" xmlns:xlink="http://www.w3.org/1999/xlink">
 <defs>
  <style type="text/css">
*{stroke-linecap:butt;stroke-linejoin:round;}
  </style>
 </defs>
 <g id="figure_1">
  <g id="patch_1">
   <path d="M 0 345.6 
L 460.8 345.6 
L 460.8 0 
L 0 0 
z
" style="fill:#ffffff;"/>
  </g>
  <g id="axes_1">
   <g id="patch_2">
    <path d="M 57.6 307.584 
L 414.72 307.584 
L 414.72 41.472 
L 57.6 41.472 
z
" style="fill:#ffffff;"/>
   </g>
   <g id="matplotlib.axis_1">
    <g id="xtick_1">
     <g id="line2d_1">
      <defs>
       <path d="M 0 0 
L 0 3.5 
" id="m7b641bc4d7" style="stroke:#000000;stroke-width:0.8;"/>
      </defs>
      <g>
       <use style="stroke:#000000;stroke-width:0.8;" x="100.829454" xlink:href="#m7b641bc4d7" y="307.584"/>
      </g>
     </g>
     <g id="text_1">
      <!-- −300 -->
      <defs>
       <path d="M 10.59375 35.5 
L 73.1875 35.5 
L 73.1875 27.203125 
L 10.59375 27.203125 
z
" id="DejaVuSans-8722"/>
       <path d="M 40.578125 39.3125 
Q 47.65625 37.796875 51.625 33 
Q 55.609375 28.21875 55.609375 21.1875 
Q 55.609375 10.40625 48.1875 4.484375 
Q 40.765625 -1.421875 27.09375 -1.421875 
Q 22.515625 -1.421875 17.65625 -0.515625 
Q 12.796875 0.390625 7.625 2.203125 
L 7.625 11.71875 
Q 11.71875 9.328125 16.59375 8.109375 
Q 21.484375 6.890625 26.8125 6.890625 
Q 36.078125 6.890625 40.9375 10.546875 
Q 45.796875 14.203125 45.796875 21.1875 
Q 45.796875 27.640625 41.28125 31.265625 
Q 36.765625 34.90625 28.71875 34.90625 
L 20.21875 34.90625 
L 20.21875 43.015625 
L 29.109375 43.015625 
Q 36.375 43.015625 40.234375 45.921875 
Q 44.09375 48.828125 44.09375 54.296875 
Q 44.09375 59.90625 40.109375 62.90625 
Q 36.140625 65.921875 28.71875 65.921875 
Q 24.65625 65.921875 20.015625 65.03125 
Q 15.375 64.15625 9.8125 62.3125 
L 9.8125 71.09375 
Q 15.4375 72.65625 20.34375 73.4375 
Q 25.25 74.21875 29.59375 74.21875 
Q 40.828125 74.21875 47.359375 69.109375 
Q 53.90625 64.015625 53.90625 55.328125 
Q 53.90625 49.265625 50.4375 45.09375 
Q 46.96875 40.921875 40.578125 39.3125 
z
" id="DejaVuSans-51"/>
       <path d="M 31.78125 66.40625 
Q 24.171875 66.40625 20.328125 58.90625 
Q 16.5 51.421875 16.5 36.375 
Q 16.5 21.390625 20.328125 13.890625 
Q 24.171875 6.390625 31.78125 6.390625 
Q 39.453125 6.390625 43.28125 13.890625 
Q 47.125 21.390625 47.125 36.375 
Q 47.125 51.421875 43.28125 58.90625 
Q 39.453125 66.40625 31.78125 66.40625 
z
M 31.78125 74.21875 
Q 44.046875 74.21875 50.515625 64.515625 
Q 56.984375 54.828125 56.984375 36.375 
Q 56.984375 17.96875 50.515625 8.265625 
Q 44.046875 -1.421875 31.78125 -1.421875 
Q 19.53125 -1.421875 13.0625 8.265625 
Q 6.59375 17.96875 6.59375 36.375 
Q 6.59375 54.828125 13.0625 64.515625 
Q 19.53125 74.21875 31.78125 74.21875 
z
" id="DejaVuSans-48"/>
      </defs>
      <g transform="translate(87.09586 322.182437)scale(0.1 -0.1)">
       <use xlink:href="#DejaVuSans-8722"/>
       <use x="83.789062" xlink:href="#DejaVuSans-51"/>
       <use x="147.412109" xlink:href="#DejaVuSans-48"/>
       <use x="211.035156" xlink:href="#DejaVuSans-48"/>
      </g>
     </g>
    </g>
    <g id="xtick_2">
     <g id="line2d_2">
      <g>
       <use style="stroke:#000000;stroke-width:0.8;" x="144.417056" xlink:href="#m7b641bc4d7" y="307.584"/>
      </g>
     </g>
     <g id="text_2">
      <!-- −200 -->
      <defs>
       <path d="M 19.1875 8.296875 
L 53.609375 8.296875 
L 53.609375 0 
L 7.328125 0 
L 7.328125 8.296875 
Q 12.9375 14.109375 22.625 23.890625 
Q 32.328125 33.6875 34.8125 36.53125 
Q 39.546875 41.84375 41.421875 45.53125 
Q 43.3125 49.21875 43.3125 52.78125 
Q 43.3125 58.59375 39.234375 62.25 
Q 35.15625 65.921875 28.609375 65.921875 
Q 23.96875 65.921875 18.8125 64.3125 
Q 13.671875 62.703125 7.8125 59.421875 
L 7.8125 69.390625 
Q 13.765625 71.78125 18.9375 73 
Q 24.125 74.21875 28.421875 74.21875 
Q 39.75 74.21875 46.484375 68.546875 
Q 53.21875 62.890625 53.21875 53.421875 
Q 53.21875 48.921875 51.53125 44.890625 
Q 49.859375 40.875 45.40625 35.40625 
Q 44.1875 33.984375 37.640625 27.21875 
Q 31.109375 20.453125 19.1875 8.296875 
z
" id="DejaVuSans-50"/>
      </defs>
      <g transform="translate(130.683462 322.182437)scale(0.1 -0.1)">
       <use xlink:href="#DejaVuSans-8722"/>
       <use x="83.789062" xlink:href="#DejaVuSans-50"/>
       <use x="147.412109" xlink:href="#DejaVuSans-48"/>
       <use x="211.035156" xlink:href="#DejaVuSans-48"/>
      </g>
     </g>
    </g>
    <g id="xtick_3">
     <g id="line2d_3">
      <g>
       <use style="stroke:#000000;stroke-width:0.8;" x="188.004657" xlink:href="#m7b641bc4d7" y="307.584"/>
      </g>
     </g>
     <g id="text_3">
      <!-- −100 -->
      <defs>
       <path d="M 12.40625 8.296875 
L 28.515625 8.296875 
L 28.515625 63.921875 
L 10.984375 60.40625 
L 10.984375 69.390625 
L 28.421875 72.90625 
L 38.28125 72.90625 
L 38.28125 8.296875 
L 54.390625 8.296875 
L 54.390625 0 
L 12.40625 0 
z
" id="DejaVuSans-49"/>
      </defs>
      <g transform="translate(174.271064 322.182437)scale(0.1 -0.1)">
       <use xlink:href="#DejaVuSans-8722"/>
       <use x="83.789062" xlink:href="#DejaVuSans-49"/>
       <use x="147.412109" xlink:href="#DejaVuSans-48"/>
       <use x="211.035156" xlink:href="#DejaVuSans-48"/>
      </g>
     </g>
    </g>
    <g id="xtick_4">
     <g id="line2d_4">
      <g>
       <use style="stroke:#000000;stroke-width:0.8;" x="231.592259" xlink:href="#m7b641bc4d7" y="307.584"/>
      </g>
     </g>
     <g id="text_4">
      <!-- 0 -->
      <g transform="translate(228.411009 322.182437)scale(0.1 -0.1)">
       <use xlink:href="#DejaVuSans-48"/>
      </g>
     </g>
    </g>
    <g id="xtick_5">
     <g id="line2d_5">
      <g>
       <use style="stroke:#000000;stroke-width:0.8;" x="275.179861" xlink:href="#m7b641bc4d7" y="307.584"/>
      </g>
     </g>
     <g id="text_5">
      <!-- 100 -->
      <g transform="translate(265.636111 322.182437)scale(0.1 -0.1)">
       <use xlink:href="#DejaVuSans-49"/>
       <use x="63.623047" xlink:href="#DejaVuSans-48"/>
       <use x="127.246094" xlink:href="#DejaVuSans-48"/>
      </g>
     </g>
    </g>
    <g id="xtick_6">
     <g id="line2d_6">
      <g>
       <use style="stroke:#000000;stroke-width:0.8;" x="318.767463" xlink:href="#m7b641bc4d7" y="307.584"/>
      </g>
     </g>
     <g id="text_6">
      <!-- 200 -->
      <g transform="translate(309.223713 322.182437)scale(0.1 -0.1)">
       <use xlink:href="#DejaVuSans-50"/>
       <use x="63.623047" xlink:href="#DejaVuSans-48"/>
       <use x="127.246094" xlink:href="#DejaVuSans-48"/>
      </g>
     </g>
    </g>
    <g id="xtick_7">
     <g id="line2d_7">
      <g>
       <use style="stroke:#000000;stroke-width:0.8;" x="362.355064" xlink:href="#m7b641bc4d7" y="307.584"/>
      </g>
     </g>
     <g id="text_7">
      <!-- 300 -->
      <g transform="translate(352.811314 322.182437)scale(0.1 -0.1)">
       <use xlink:href="#DejaVuSans-51"/>
       <use x="63.623047" xlink:href="#DejaVuSans-48"/>
       <use x="127.246094" xlink:href="#DejaVuSans-48"/>
      </g>
     </g>
    </g>
    <g id="xtick_8">
     <g id="line2d_8">
      <g>
       <use style="stroke:#000000;stroke-width:0.8;" x="405.942666" xlink:href="#m7b641bc4d7" y="307.584"/>
      </g>
     </g>
     <g id="text_8">
      <!-- 400 -->
      <defs>
       <path d="M 37.796875 64.3125 
L 12.890625 25.390625 
L 37.796875 25.390625 
z
M 35.203125 72.90625 
L 47.609375 72.90625 
L 47.609375 25.390625 
L 58.015625 25.390625 
L 58.015625 17.1875 
L 47.609375 17.1875 
L 47.609375 0 
L 37.796875 0 
L 37.796875 17.1875 
L 4.890625 17.1875 
L 4.890625 26.703125 
z
" id="DejaVuSans-52"/>
      </defs>
      <g transform="translate(396.398916 322.182437)scale(0.1 -0.1)">
       <use xlink:href="#DejaVuSans-52"/>
       <use x="63.623047" xlink:href="#DejaVuSans-48"/>
       <use x="127.246094" xlink:href="#DejaVuSans-48"/>
      </g>
     </g>
    </g>
   </g>
   <g id="matplotlib.axis_2">
    <g id="ytick_1">
     <g id="line2d_9">
      <defs>
       <path d="M 0 0 
L -3.5 0 
" id="m97bd51e0a7" style="stroke:#000000;stroke-width:0.8;"/>
      </defs>
      <g>
       <use style="stroke:#000000;stroke-width:0.8;" x="57.6" xlink:href="#m97bd51e0a7" y="287.814441"/>
      </g>
     </g>
     <g id="text_9">
      <!-- 0 -->
      <g transform="translate(44.2375 291.61366)scale(0.1 -0.1)">
       <use xlink:href="#DejaVuSans-48"/>
      </g>
     </g>
    </g>
    <g id="ytick_2">
     <g id="line2d_10">
      <g>
       <use style="stroke:#000000;stroke-width:0.8;" x="57.6" xlink:href="#m97bd51e0a7" y="244.226839"/>
      </g>
     </g>
     <g id="text_10">
      <!-- 100 -->
      <g transform="translate(31.5125 248.026058)scale(0.1 -0.1)">
       <use xlink:href="#DejaVuSans-49"/>
       <use x="63.623047" xlink:href="#DejaVuSans-48"/>
       <use x="127.246094" xlink:href="#DejaVuSans-48"/>
      </g>
     </g>
    </g>
    <g id="ytick_3">
     <g id="line2d_11">
      <g>
       <use style="stroke:#000000;stroke-width:0.8;" x="57.6" xlink:href="#m97bd51e0a7" y="200.639238"/>
      </g>
     </g>
     <g id="text_11">
      <!-- 200 -->
      <g transform="translate(31.5125 204.438456)scale(0.1 -0.1)">
       <use xlink:href="#DejaVuSans-50"/>
       <use x="63.623047" xlink:href="#DejaVuSans-48"/>
       <use x="127.246094" xlink:href="#DejaVuSans-48"/>
      </g>
     </g>
    </g>
    <g id="ytick_4">
     <g id="line2d_12">
      <g>
       <use style="stroke:#000000;stroke-width:0.8;" x="57.6" xlink:href="#m97bd51e0a7" y="157.051636"/>
      </g>
     </g>
     <g id="text_12">
      <!-- 300 -->
      <g transform="translate(31.5125 160.850855)scale(0.1 -0.1)">
       <use xlink:href="#DejaVuSans-51"/>
       <use x="63.623047" xlink:href="#DejaVuSans-48"/>
       <use x="127.246094" xlink:href="#DejaVuSans-48"/>
      </g>
     </g>
    </g>
    <g id="ytick_5">
     <g id="line2d_13">
      <g>
       <use style="stroke:#000000;stroke-width:0.8;" x="57.6" xlink:href="#m97bd51e0a7" y="113.464034"/>
      </g>
     </g>
     <g id="text_13">
      <!-- 400 -->
      <g transform="translate(31.5125 117.263253)scale(0.1 -0.1)">
       <use xlink:href="#DejaVuSans-52"/>
       <use x="63.623047" xlink:href="#DejaVuSans-48"/>
       <use x="127.246094" xlink:href="#DejaVuSans-48"/>
      </g>
     </g>
    </g>
    <g id="ytick_6">
     <g id="line2d_14">
      <g>
       <use style="stroke:#000000;stroke-width:0.8;" x="57.6" xlink:href="#m97bd51e0a7" y="69.876432"/>
      </g>
     </g>
     <g id="text_14">
      <!-- 500 -->
      <defs>
       <path d="M 10.796875 72.90625 
L 49.515625 72.90625 
L 49.515625 64.59375 
L 19.828125 64.59375 
L 19.828125 46.734375 
Q 21.96875 47.46875 24.109375 47.828125 
Q 26.265625 48.1875 28.421875 48.1875 
Q 40.625 48.1875 47.75 41.5 
Q 54.890625 34.8125 54.890625 23.390625 
Q 54.890625 11.625 47.5625 5.09375 
Q 40.234375 -1.421875 26.90625 -1.421875 
Q 22.3125 -1.421875 17.546875 -0.640625 
Q 12.796875 0.140625 7.71875 1.703125 
L 7.71875 11.625 
Q 12.109375 9.234375 16.796875 8.0625 
Q 21.484375 6.890625 26.703125 6.890625 
Q 35.15625 6.890625 40.078125 11.328125 
Q 45.015625 15.765625 45.015625 23.390625 
Q 45.015625 31 40.078125 35.4375 
Q 35.15625 39.890625 26.703125 39.890625 
Q 22.75 39.890625 18.8125 39.015625 
Q 14.890625 38.140625 10.796875 36.28125 
z
" id="DejaVuSans-53"/>
      </defs>
      <g transform="translate(31.5125 73.675651)scale(0.1 -0.1)">
       <use xlink:href="#DejaVuSans-53"/>
       <use x="63.623047" xlink:href="#DejaVuSans-48"/>
       <use x="127.246094" xlink:href="#DejaVuSans-48"/>
      </g>
     </g>
    </g>
   </g>
   <g id="line2d_15">
    <path clip-path="url(#pf57252a2ed)" d="M 231.592259 287.814441 
L 230.122697 262.83329 
L 229.399994 251.250847 
L 229.702151 250.392856 
L 230.113303 249.851563 
L 230.786918 249.375407 
L 231.723934 249.051778 
L 233.133852 248.815642 
L 234.91106 248.728768 
L 243.404538 248.386043 
L 246.208346 248.32995 
L 248.889402 248.508755 
L 253.567689 248.956779 
L 254.676183 248.763124 
L 255.451628 248.416214 
L 256.070381 247.879346 
L 256.513592 247.203315 
L 256.841336 246.211431 
L 262.160898 223.549093 
L 262.672882 219.683613 
L 262.927002 215.014988 
L 262.888366 210.616258 
L 262.195672 198.781961 
L 262.112084 195.56136 
L 262.081433 188.236594 
L 261.93052 184.32125 
L 261.677368 183.277588 
L 261.304223 182.559351 
L 260.799832 181.979418 
L 259.879671 181.380307 
L 258.793211 181.101041 
L 257.721902 181.045728 
L 254.840896 181.166117 
L 251.431178 181.416702 
L 234.512669 182.391365 
L 230.656407 182.627784 
L 228.610342 182.540391 
L 227.647306 182.380032 
L 226.916329 182.044059 
L 226.327239 181.543499 
L 225.859509 180.791656 
L 225.564918 179.77066 
L 225.413189 178.232628 
L 225.218418 172.487912 
L 224.646296 158.312612 
L 222.878221 126.956909 
L 222.529634 126.080798 
L 221.970797 125.334404 
L 221.516301 124.927601 
L 220.343777 124.389032 
L 219.151782 124.322343 
L 210.878193 125.018699 
L 201.386047 125.550119 
L 196.787672 125.783879 
L 191.603158 125.775859 
L 188.758753 125.91316 
L 184.644271 126.373053 
L 180.474725 126.750609 
L 177.195804 126.86677 
L 166.940513 127.127119 
L 153.360273 128.013952 
L 152.459666 128.237208 
L 151.285285 128.879733 
L 150.562646 129.746036 
L 150.083618 131.117913 
L 149.990777 133.023388 
L 150.096084 135.144143 
L 151.472842 151.643578 
L 153.677372 191.140182 
L 154.093808 191.959891 
L 154.593758 192.567415 
L 155.266881 193.081312 
L 156.169363 193.480618 
L 157.231549 193.710587 
L 159.359801 193.839693 
L 164.555399 193.873779 
L 169.241372 193.732642 
L 173.52102 193.383418 
L 178.273246 193.046747 
L 183.917274 192.792806 
L 185.062712 192.381383 
L 186.04169 191.723907 
L 186.814367 190.83193 
L 187.253338 190.027478 
L 187.565774 188.909761 
L 188.1136 186.284479 
L 188.44215 185.575396 
L 189.098087 184.825035 
L 190.060619 184.355422 
L 191.265511 184.089669 
L 193.337788 183.881102 
L 202.62553 183.387647 
L 211.95682 182.843673 
L 216.716918 182.384086 
L 220.832873 182.133675 
L 222.071319 182.302141 
L 223.070351 182.652716 
L 223.708949 183.091687 
L 224.264865 183.726628 
L 224.62683 184.432616 
L 224.865942 185.311952 
L 225.06047 186.970243 
L 225.135689 189.698478 
L 225.289919 195.676213 
L 225.839424 204.616031 
L 226.285464 213.75997 
L 226.842727 225.157606 
L 227.734589 241.226221 
L 227.975572 244.431915 
L 228.27153 245.428258 
L 228.733353 246.28978 
L 229.343868 247.007393 
L 230.088449 247.561827 
L 230.955085 247.920013 
L 231.858274 248.109719 
L 234.037668 248.27591 
L 239.326853 248.43048 
L 246.396535 248.150705 
L 254.04004 248.801843 
L 255.920308 249.214251 
L 258.095905 249.927771 
L 262.913904 251.7799 
L 265.562148 253.08436 
L 270.46757 255.753129 
L 272.499389 257.178483 
L 275.507334 259.704437 
L 282.009559 264.989007 
L 288.09818 269.469364 
L 302.892684 280.451963 
L 303.828117 280.739632 
L 305.110334 280.874375 
L 311.337433 281.073892 
L 318.806691 281.699043 
L 329.19475 282.579775 
L 335.428562 283.141885 
L 340.344677 283.544421 
L 345.621828 284.038738 
L 350.346113 284.838961 
L 350.994828 284.659733 
L 351.657839 284.212163 
L 352.893155 281.283653 
L 353.152458 279.23222 
L 353.389095 275.181981 
L 354.548045 259.469356 
L 355.7899 244.522978 
L 357.555241 233.294192 
L 358.224572 230.261802 
L 358.952616 227.218908 
L 358.923674 226.060872 
L 356.426889 222.879282 
L 355.060418 222.203413 
L 351.301336 220.349501 
L 345.861777 217.329228 
L 343.424054 215.67011 
L 339.914511 213.234696 
L 336.938175 211.444117 
L 331.648296 208.633806 
L 320.166712 202.336618 
L 319.017307 201.28049 
L 316.668676 199.506387 
L 314.968149 198.509844 
L 304.836604 192.817607 
L 301.352036 191.002968 
L 300.152723 190.612816 
L 298.939942 190.455421 
L 297.396026 190.50729 
L 291.456474 190.979082 
L 273.113638 191.995109 
L 267.141008 192.34089 
L 265.638713 192.140953 
L 264.701645 191.837279 
L 263.877199 191.306599 
L 263.351428 190.786686 
L 262.779332 189.929929 
L 262.287376 188.635202 
L 262.050534 187.172228 
L 261.921428 184.605354 
L 261.561664 175.397298 
L 260.691329 161.146635 
L 259.944974 151.808731 
L 258.857869 142.262784 
L 258.43625 132.092749 
L 258.453507 128.436359 
L 258.374844 125.225827 
L 257.663882 118.584732 
L 257.199456 104.516309 
L 256.550515 95.830433 
L 256.057801 92.645399 
L 257.611394 90.190109 
L 259.076469 89.866951 
L 261.305326 89.774458 
L 272.721524 89.123172 
L 287.541653 88.243879 
L 290.577748 87.75718 
L 293.522526 87.072549 
L 295.986228 86.300918 
L 298.696985 85.242785 
L 301.284737 84.05328 
L 303.996932 82.543841 
L 306.076496 81.176323 
L 308.449667 79.629791 
L 309.360735 79.2885 
L 310.61584 79.249795 
L 312.006285 79.777248 
L 313.332699 80.986368 
L 314.837386 82.776511 
L 326.144621 96.940653 
L 336.175392 109.240029 
L 337.931188 112.107091 
L 337.917501 113.314206 
L 337.5756 114.215729 
L 337.019161 115.006146 
L 336.074312 115.903441 
L 334.905685 116.684836 
L 333.484642 117.326402 
L 331.812491 117.830231 
L 329.520044 118.302982 
L 324.631826 118.917829 
L 318.839687 119.475096 
L 312.054623 119.920257 
L 302.071275 120.315422 
L 296.563677 120.493521 
L 295.605796 120.724448 
L 295.009168 121.025551 
L 294.507867 121.436059 
L 294.034593 122.112975 
L 293.752974 122.952646 
L 293.605343 124.115433 
L 293.540223 126.275547 
L 293.63241 130.7557 
L 294.136981 140.128473 
L 296.903355 187.292748 
L 296.7117 188.194052 
L 296.21393 189.16052 
L 295.536753 189.859927 
L 294.604414 190.397711 
L 293.444853 190.74907 
L 292.089453 190.930046 
L 289.121399 191.073929 
L 278.972854 191.363089 
L 266.02809 192.02318 
L 264.880799 191.744568 
L 264.013864 191.299015 
L 263.229753 190.585704 
L 262.724181 189.833469 
L 262.27165 188.767578 
L 261.98004 187.460473 
L 261.817593 184.884532 
L 261.602576 183.47565 
L 261.226729 182.466118 
L 260.710128 181.816837 
L 260.053743 181.298972 
L 258.873386 180.865363 
L 257.280974 180.798064 
L 247.308667 181.23808 
L 236.241483 181.975757 
L 229.579253 182.492183 
L 228.105325 182.408887 
L 227.329348 182.178309 
L 226.580413 181.713403 
L 225.988467 181.044508 
L 225.616055 180.270436 
L 225.375673 179.32319 
L 225.266844 177.862525 
L 224.618522 160.078826 
L 223.048754 125.779128 
L 222.682291 124.975721 
L 222.112596 124.311098 
L 220.942688 123.694377 
L 219.267098 123.697646 
L 212.37109 124.683118 
L 205.114643 125.146672 
L 193.146743 125.668895 
L 188.929059 125.766401 
L 177.5792 126.670233 
L 166.87949 126.93311 
L 158.612317 127.52163 
L 151.148812 128.047297 
L 143.867721 128.201771 
L 137.003022 128.073754 
L 133.041999 127.797845 
L 129.410629 127.410874 
L 127.495128 126.951678 
L 125.22343 126.424094 
L 123.640633 126.381335 
L 121.224485 126.36281 
L 119.608867 126.149928 
L 118.502657 126.079752 
L 117.739438 126.21361 
L 117.068582 126.474307 
L 116.375277 126.920034 
L 115.452658 128.054881 
L 114.799498 129.71814 
L 114.424906 131.391381 
L 114.215468 133.333078 
L 113.40731 145.064508 
L 113.361325 150.189582 
L 113.564574 155.19235 
L 113.99352 160.172583 
L 114.695149 165.769972 
L 115.569037 170.971107 
L 116.612307 175.736278 
L 117.725185 179.965715 
L 119.324676 185.17439 
L 120.962785 189.800996 
L 123.54936 196.304267 
L 125.733274 201.178974 
L 127.86109 205.418436 
L 130.633697 210.437069 
L 134.339123 216.470989 
L 137.740917 221.331355 
L 140.936804 225.538562 
L 143.98689 229.199572 
L 147.622793 233.204881 
L 151.140225 236.734126 
L 154.885185 240.196812 
L 197.180362 278.152995 
L 205.14339 285.298906 
L 212.800236 292.144082 
L 215.143244 293.984441 
L 216.588012 294.83113 
L 217.788231 295.275118 
L 219.010367 295.477844 
L 220.211292 295.42482 
L 221.343223 295.119615 
L 222.372644 294.605198 
L 227.737804 291.311662 
L 229.362348 290.408524 
L 230.0783 289.703581 
L 230.633589 288.87371 
L 231.038858 287.908187 
L 231.281552 286.933778 
L 231.390124 285.128493 
L 231.281971 281.509054 
L 230.913017 275.024961 
L 230.167704 263.851379 
L 229.436983 251.004568 
L 229.436983 251.004568 
" style="fill:none;stroke:#008000;stroke-linecap:square;stroke-width:1.5;"/>
   </g>
   <g id="line2d_16">
    <path clip-path="url(#pf57252a2ed)" d="M 231.592259 287.814441 
L 231.487234 284.443055 
L 230.986637 276.238038 
L 230.053072 262.405759 
L 229.294654 254.626604 
L 229.1218 252.029024 
L 229.306282 250.881878 
L 229.600934 250.238154 
L 230.030783 249.728364 
L 230.575245 249.348909 
L 231.343353 249.051298 
L 232.914967 248.766209 
L 234.945557 248.646366 
L 241.408444 248.300744 
L 245.289621 248.079225 
L 248.341943 248.190835 
L 253.579208 248.578443 
L 254.458088 248.392283 
L 255.22498 248.025831 
L 255.831913 247.473205 
L 256.27942 246.797917 
L 256.614415 245.807519 
L 257.099407 243.579055 
L 261.566636 224.14301 
L 262.16968 219.936822 
L 262.444568 215.985683 
L 262.53909 212.002725 
L 262.453761 209.788034 
L 261.660619 195.929245 
L 261.635398 190.450122 
L 261.498697 185.769149 
L 261.291463 183.416486 
L 261.036115 182.617477 
L 260.617488 181.936513 
L 260.080307 181.406664 
L 259.291679 180.94441 
L 258.405515 180.692973 
L 257.354404 180.647957 
L 253.947156 180.816774 
L 237.488133 181.722669 
L 229.707779 182.353843 
L 228.192582 182.457288 
L 228.253835 183.391598 
L 228.567775 184.24768 
L 229.012262 184.810537 
L 229.553281 185.165724 
L 230.423143 185.448449 
L 231.73684 185.607627 
L 251.027369 187.156844 
L 264.3674 188.267033 
L 267.862024 188.600127 
L 271.771876 188.985614 
L 273.924634 189.25547 
L 274.501823 189.484858 
L 275.233192 190.098309 
L 275.721025 190.875595 
L 275.961963 191.670452 
L 276.004443 192.583069 
L 275.636289 194.917726 
L 274.650321 201.66351 
L 273.44821 210.685425 
L 272.889033 214.867988 
L 271.736953 224.72286 
L 271.038146 228.522668 
L 270.137531 235.490885 
L 269.537093 241.472679 
L 267.426754 257.061783 
L 267.084336 258.707352 
L 266.642589 259.752188 
L 266.137332 260.456358 
L 265.494408 260.999253 
L 264.719429 261.35869 
L 263.880999 261.514099 
L 262.007439 261.533444 
L 258.379597 261.125944 
L 253.445225 260.525609 
L 248.319361 260.126654 
L 238.829871 259.490666 
L 231.830932 258.993798 
L 227.15166 258.557108 
L 219.954399 257.976578 
L 214.533105 257.612169 
L 213.848396 257.232268 
L 213.256402 256.634819 
L 212.78672 255.782817 
L 212.532754 254.852086 
L 212.461551 253.459424 
L 212.615269 250.650359 
L 213.235836 243.695877 
L 213.893581 239.039347 
L 214.691927 233.175916 
L 215.37321 227.095353 
L 215.851502 226.001742 
L 216.385527 225.265242 
L 217.188261 224.523408 
L 218.09807 224.07153 
L 219.818835 223.615289 
L 220.889325 223.259699 
L 221.48517 222.88869 
L 222.055517 222.342895 
L 222.469815 221.532601 
L 222.749664 220.588574 
L 223.028365 218.743358 
L 223.895563 210.663015 
L 224.465255 204.89694 
L 226.018315 191.535906 
L 226.016322 189.495781 
L 225.828149 188.593533 
L 225.500063 187.914826 
L 225.044908 187.359017 
L 224.352061 186.919972 
L 223.419988 186.671822 
L 221.733992 186.531977 
L 212.627409 186.282766 
L 205.885566 185.842335 
L 187.26173 185.033429 
L 176.608013 184.518752 
L 174.778793 184.384396 
L 173.929938 184.142882 
L 173.202997 183.739499 
L 172.489893 183.015286 
L 172.083768 182.279153 
L 171.851279 181.424136 
L 171.775418 180.298173 
L 171.854407 177.837102 
L 172.143741 173.114146 
L 172.802495 166.813199 
L 172.810316 161.594883 
L 172.724906 157.733786 
L 172.44031 155.898481 
L 171.508208 151.924806 
L 170.682969 148.947356 
L 168.55096 143.279427 
L 167.561319 141.178131 
L 166.22635 138.956733 
L 164.586013 136.423899 
L 161.712785 131.781581 
L 160.657191 129.979273 
L 158.336493 125.764684 
L 151.428375 113.530977 
L 149.719344 110.619886 
L 149.429424 109.467142 
L 149.350327 108.218099 
L 149.544465 95.432801 
L 149.364282 84.062797 
L 149.298143 79.415695 
L 149.119411 67.752423 
L 148.847558 65.345114 
L 148.633507 63.305948 
L 148.806613 62.55722 
L 149.263949 61.775734 
L 149.980537 61.161957 
L 150.776817 60.790417 
L 152.196159 60.400059 
L 154.309142 60.16649 
L 157.53202 59.893655 
L 182.881195 56.894581 
L 194.314987 54.423851 
L 197.112486 53.591184 
L 198.075039 53.601566 
L 198.887858 53.858093 
L 199.603095 54.33197 
L 200.172712 55.000379 
L 200.592075 55.781775 
L 201.399698 57.975655 
L 204.030189 64.673779 
L 205.173648 67.145751 
L 206.821887 70.178897 
L 208.061089 72.654145 
L 209.338689 75.598757 
L 214.108256 88.012527 
L 215.384974 91.096255 
L 216.192089 92.379316 
L 217.487328 94.588688 
L 218.744107 97.314963 
L 223.908101 110.296754 
L 224.067643 111.490127 
L 224.017073 112.955822 
L 223.314668 119.267314 
L 220.799444 144.041153 
L 220.901363 145.515664 
L 221.228537 146.627771 
L 221.715845 147.373723 
L 222.338636 147.970644 
L 223.138015 148.398942 
L 224.037992 148.654048 
L 225.541277 148.780613 
L 235.594795 148.867078 
L 253.960349 149.524693 
L 256.791544 149.848539 
L 260.36558 150.195749 
L 267.580066 150.347919 
L 271.682072 150.297461 
L 275.630566 150.14804 
L 277.939368 150.437352 
L 279.714956 150.601254 
L 282.018893 150.623325 
L 291.075861 150.592764 
L 297.800983 150.735619 
L 300.60767 151.012214 
L 302.872146 151.279956 
L 303.50298 151.086922 
L 304.038575 150.695124 
L 304.533456 150.032975 
L 304.885619 149.064138 
L 305.071256 147.59835 
L 305.435906 143.63442 
L 308.02725 118.862735 
L 308.923287 114.772432 
L 309.641078 112.275658 
L 310.875431 108.851546 
L 312.267295 105.61091 
L 313.826901 102.662682 
L 316.153157 98.543813 
L 316.360884 97.614281 
L 316.368292 96.6685 
L 316.162422 95.812765 
L 315.686122 94.934363 
L 314.734701 93.79481 
L 312.482287 91.583343 
L 302.284149 81.66828 
L 291.92876 71.339215 
L 290.999148 70.867289 
L 290.326964 70.718772 
L 289.542134 70.784616 
L 288.770779 71.124231 
L 288.081808 71.698427 
L 287.436816 72.453552 
L 286.722199 73.577849 
L 286.106545 74.971474 
L 285.587195 76.596812 
L 284.974846 79.235739 
L 284.098867 84.560046 
L 283.129146 91.783442 
L 282.22859 100.29441 
L 281.692706 106.063818 
L 281.160009 111.936099 
L 280.906183 112.890137 
L 280.504683 113.655467 
L 279.938472 114.263625 
L 279.295686 114.636173 
L 278.373264 114.885815 
L 276.181162 115.070468 
L 271.459745 115.07246 
L 264.330524 114.800627 
L 252.336508 114.410838 
L 230.815834 113.628519 
L 225.500479 113.440403 
L 224.748427 113.700353 
L 224.073684 114.145803 
L 223.450505 114.818232 
L 222.936434 115.740276 
L 222.584491 116.898476 
L 222.274981 118.840682 
L 221.904808 123.13366 
L 220.799576 134.634784 
L 219.957469 143.12565 
L 219.997555 144.709887 
L 220.263294 145.800933 
L 220.719069 146.616491 
L 221.384288 147.298092 
L 222.241345 147.762655 
L 223.120877 148.022149 
L 224.244284 148.118598 
L 226.582695 148.249797 
L 227.443408 148.552043 
L 227.978075 149.003185 
L 228.487001 149.786066 
L 228.781922 150.733134 
L 228.820592 151.828778 
L 228.491098 156.365041 
L 227.853671 163.84018 
L 226.123667 181.032521 
L 226.289116 182.093286 
L 226.723665 182.945531 
L 227.299434 183.506784 
L 227.95472 183.832215 
L 228.793691 183.99805 
L 231.521251 184.02021 
L 250.493033 184.334085 
L 271.261131 184.755665 
L 272.690368 184.837741 
L 273.396678 185.065818 
L 273.968563 185.504036 
L 274.411238 186.150289 
L 274.680573 186.967423 
L 274.702273 187.882959 
L 274.342027 189.95114 
L 273.493348 195.087945 
L 271.806242 214.592654 
L 271.503417 218.773389 
L 270.203834 230.046972 
L 269.65625 238.159911 
L 268.117217 252.090776 
L 267.681895 256.263977 
L 267.092102 265.943518 
L 266.982916 273.369918 
L 267.21482 278.36465 
L 267.742652 282.779396 
L 267.644733 286.038564 
L 267.589663 289.151338 
L 267.205734 290.154554 
L 266.744901 290.854104 
L 265.893156 291.641172 
L 264.992655 292.152335 
L 263.672034 292.651338 
L 261.798007 293.059943 
L 253.832291 294.159534 
L 249.934377 294.485699 
L 245.723751 294.608215 
L 239.952782 294.411179 
L 235.756791 294.055731 
L 231.913185 293.551306 
L 227.589429 292.737727 
L 222.812779 291.480329 
L 217.276208 289.649962 
L 213.111841 287.979655 
L 208.264328 285.787571 
L 204.713666 283.996031 
L 200.92993 281.805137 
L 197.647016 279.687051 
L 192.804415 276.174164 
L 189.254607 273.290198 
L 186.213659 270.60005 
L 183.617892 268.074926 
L 180.752214 265.03589 
L 177.605923 261.402412 
L 174.866522 257.885072 
L 132.244298 199.967759 
L 131.385056 198.303579 
L 131.003977 197.147209 
L 130.828566 195.950377 
L 130.864686 194.751601 
L 131.103804 193.598328 
L 131.546132 192.533921 
L 132.774643 190.39359 
L 134.343705 187.487843 
L 135.793774 184.740323 
L 136.640469 183.941295 
L 137.412222 183.473716 
L 138.41946 183.088403 
L 139.666298 182.875061 
L 141.68148 182.800613 
L 147.215558 182.77179 
L 156.431189 182.979492 
L 168.399536 183.003388 
L 168.399536 183.003388 
" style="fill:none;stroke:#0000ff;stroke-linecap:square;stroke-width:1.5;"/>
   </g>
   <g id="line2d_17">
    <path clip-path="url(#pf57252a2ed)" d="M 231.592259 287.814441 
L 231.487426 284.443046 
L 230.98853 276.237912 
L 230.060514 262.40523 
L 229.2801 254.359252 
L 229.152038 251.827886 
L 229.321308 250.880819 
L 229.616322 250.237253 
L 230.046441 249.727677 
L 230.591086 249.348471 
L 231.359327 249.05118 
L 232.931072 248.766712 
L 234.961739 248.647694 
L 241.424892 248.305588 
L 245.30627 248.086683 
L 248.358552 248.200557 
L 253.595598 248.592286 
L 254.474661 248.406928 
L 255.241911 248.041206 
L 255.849392 247.489176 
L 256.297587 246.814341 
L 256.633614 245.824293 
L 257.121065 243.596365 
L 261.610867 224.165573 
L 262.219761 219.960245 
L 262.500537 216.009537 
L 262.601376 212.026745 
L 262.519708 209.811921 
L 261.751418 195.951845 
L 261.735884 190.472712 
L 261.608027 185.791511 
L 261.405569 183.438444 
L 261.151899 182.638904 
L 260.73474 181.957055 
L 260.198707 181.426038 
L 259.411037 180.962074 
L 258.525359 180.708667 
L 257.474295 180.661275 
L 254.06647 180.822254 
L 237.604783 181.692176 
L 229.822876 182.307678 
L 226.997794 182.434568 
L 226.405653 182.791711 
L 225.858386 183.371545 
L 225.414971 184.249095 
L 225.025505 185.643109 
L 224.507328 188.600082 
L 223.357439 195.065459 
L 221.694799 203.997491 
L 215.320975 236.590486 
L 214.885252 237.416684 
L 214.301426 238.103736 
L 213.693893 238.551586 
L 212.967076 238.838494 
L 212.157044 238.898658 
L 210.615618 238.592872 
L 206.926681 237.828951 
L 202.282895 237.108895 
L 197.555043 236.293364 
L 193.922903 235.627226 
L 188.632872 235.052592 
L 186.325913 234.725994 
L 183.663357 234.120964 
L 176.896898 232.751332 
L 167.63678 231.625676 
L 155.092176 229.385861 
L 154.1976 228.931076 
L 153.614272 228.388885 
L 153.177836 227.669597 
L 152.93759 226.808309 
L 152.885367 225.809785 
L 153.133649 223.615747 
L 153.749017 220.438828 
L 155.332651 213.178122 
L 156.832628 205.053635 
L 160.16904 186.273951 
L 161.772729 177.787766 
L 163.12506 169.430198 
L 163.479111 167.491979 
L 163.836333 166.622426 
L 164.504538 165.743776 
L 165.294041 165.12835 
L 166.121752 164.774326 
L 167.073613 164.622918 
L 168.661771 164.64621 
L 173.111 165.028788 
L 178.823103 165.811645 
L 185.440412 166.974105 
L 189.861573 167.464323 
L 190.653982 167.769111 
L 191.357026 168.227606 
L 191.927667 168.850236 
L 192.456052 169.79644 
L 192.717332 170.869839 
L 192.856832 172.907805 
L 193.006215 174.175272 
L 193.304083 175.021324 
L 193.636813 175.548368 
L 194.290571 176.028109 
L 195.085433 176.344474 
L 196.677903 176.645912 
L 202.718621 177.463753 
L 209.603424 178.32386 
L 216.109884 179.318752 
L 219.972597 179.876229 
L 221.444016 179.911425 
L 222.579282 179.696325 
L 223.204327 179.381501 
L 223.858746 178.821973 
L 224.365342 178.057716 
L 224.748991 176.999009 
L 225.149222 175.061293 
L 227.981268 157.446975 
L 229.085176 150.577919 
L 231.789248 133.764419 
L 233.568734 122.971745 
L 234.315297 118.668987 
L 234.795383 117.479794 
L 235.323797 116.690802 
L 235.970411 116.055794 
L 236.709189 115.609843 
L 237.516453 115.361282 
L 238.533766 115.283826 
L 241.726007 115.395528 
L 244.627896 115.60873 
L 250.364337 116.331189 
L 257.686 116.178339 
L 259.343574 115.863536 
L 261.985477 115.066178 
L 266.071802 113.582945 
L 271.3466 111.001483 
L 273.34142 109.800786 
L 275.483122 108.19677 
L 277.948699 106.223289 
L 282.447791 102.763879 
L 284.209334 101.473419 
L 288.27199 98.656614 
L 300.106989 90.261658 
L 302.913651 88.201206 
L 303.962777 87.847525 
L 305.065603 87.742167 
L 307.480468 87.875493 
L 310.146629 87.877292 
L 313.61263 87.798372 
L 325.274206 87.46044 
L 342.350859 86.677748 
L 344.695768 86.31389 
L 345.239908 86.495513 
L 345.78037 86.913103 
L 346.234276 87.682551 
L 346.483254 88.608616 
L 346.646176 90.475054 
L 346.480588 93.697452 
L 346.230129 98.031302 
L 345.090126 127.32391 
L 345.548837 140.716372 
L 345.833651 143.304989 
L 345.763922 144.450927 
L 345.51387 145.411544 
L 345.066512 146.339215 
L 344.459249 147.118488 
L 343.546811 147.837362 
L 342.106045 148.571269 
L 337.013149 151.115421 
L 332.591572 153.627397 
L 329.652372 155.649231 
L 327.276011 157.168668 
L 324.476777 158.74423 
L 312.257429 164.930274 
L 309.853092 166.231676 
L 304.82387 169.807225 
L 300.956222 171.905369 
L 291.437922 176.833224 
L 290.343757 177.05655 
L 289.270212 177.053672 
L 285.191539 176.475521 
L 281.875745 176.098595 
L 276.94909 175.58802 
L 269.16688 174.679994 
L 261.587787 173.814532 
L 260.502347 174.010994 
L 259.68214 174.356069 
L 258.952711 174.946608 
L 258.331964 175.697492 
L 257.825136 176.661642 
L 257.38195 178.032507 
L 257.048684 179.870578 
L 255.604171 190.252509 
L 253.290389 205.22259 
L 251.826167 213.97242 
L 249.75565 224.68867 
L 248.533386 233.354245 
L 247.706643 240.364689 
L 246.707172 245.140919 
L 246.192732 249.279251 
L 245.432946 255.249998 
L 243.111835 269.403957 
L 242.509854 272.121973 
L 242.57705 272.875283 
L 242.832664 273.512757 
L 243.22422 273.998631 
L 243.849493 274.388247 
L 244.650043 274.596439 
L 245.849022 274.701517 
L 252.717659 275.486255 
L 258.861857 276.172826 
L 267.09178 277.052611 
L 270.440589 277.599211 
L 273.627466 278.472333 
L 276.035253 279.38077 
L 278.879751 280.780274 
L 281.00261 282.052605 
L 282.963263 283.458897 
L 285.540027 285.724518 
L 286.643807 286.614239 
L 287.527073 287.057654 
L 288.316345 287.172446 
L 289.067707 287.056993 
L 289.874736 286.677816 
L 290.776174 285.931131 
L 292.001757 284.626159 
L 297.99974 277.372599 
L 303.736847 270.596983 
L 314.519759 258.153237 
L 315.33992 256.855678 
L 315.755354 255.756429 
L 315.877287 254.773911 
L 315.763081 253.891815 
L 315.398517 253.029088 
L 314.716716 252.084843 
L 313.842294 251.247561 
L 312.713527 250.534169 
L 311.358347 249.945136 
L 309.471569 249.339873 
L 305.735275 248.567236 
L 299.501817 247.539907 
L 293.238142 246.750629 
L 284.359166 245.881509 
L 280.850926 245.538672 
L 279.98052 245.296806 
L 279.317472 244.87471 
L 278.922364 244.444702 
L 278.595163 243.746565 
L 278.426881 242.691503 
L 278.486214 240.985094 
L 279.006997 236.319283 
L 281.322114 221.353544 
L 287.792313 178.984033 
L 287.647294 178.110048 
L 287.324696 177.32485 
L 286.789761 176.610518 
L 286.184492 176.137011 
L 285.228995 175.730169 
L 283.831574 175.428959 
L 280.891041 175.11176 
L 276.516687 174.726713 
L 261.441866 173.122228 
L 260.426596 173.359679 
L 259.636484 173.80567 
L 258.890095 174.508055 
L 258.392177 175.263287 
L 257.851832 176.515236 
L 257.539525 177.82987 
L 256.676493 181.932746 
L 256.214475 182.62706 
L 255.648689 183.189789 
L 254.806961 183.647934 
L 254.063012 183.818918 
L 252.87043 183.791925 
L 248.913222 183.468058 
L 244.263765 183.022978 
L 227.848153 181.202345 
L 227.244407 181.357376 
L 226.447206 181.837166 
L 225.858474 182.464596 
L 225.369084 183.41547 
L 225.058131 184.693753 
L 224.686439 187.649165 
L 222.714936 202.098568 
L 219.933209 221.683291 
L 217.893206 236.193037 
L 217.581429 237.277011 
L 217.131728 238.03008 
L 216.560752 238.593515 
L 215.837741 238.976496 
L 215.039419 239.091839 
L 213.967978 238.919292 
L 210.589068 238.130999 
L 207.903365 237.72351 
L 193.871651 236.306771 
L 186.641574 235.731315 
L 181.956658 235.004388 
L 177.673642 234.63476 
L 168.795142 233.990123 
L 151.390359 232.044485 
L 148.375803 231.908796 
L 141.596414 231.818669 
L 135.846947 232.253655 
L 133.968727 232.703566 
L 132.196378 233.035463 
L 130.653926 232.984246 
L 128.8581 232.995303 
L 125.923874 233.019937 
L 125.233385 232.685577 
L 124.671017 232.214188 
L 124.161909 231.503717 
L 123.778843 230.563645 
L 123.476993 229.097081 
L 123.328723 227.375506 
L 123.365919 223.188158 
L 123.581789 216.238904 
L 123.929863 211.108958 
L 124.45052 206.608042 
L 125.183352 201.697268 
L 126.062791 196.728316 
L 127.397004 190.629275 
L 128.781123 185.451571 
L 130.628119 179.72293 
L 133.711209 171.567232 
L 136.284126 165.632772 
L 138.803636 160.34416 
L 140.737278 156.593045 
L 143.292842 152.080549 
L 146.6475 146.713164 
L 149.669282 142.279946 
L 154.031142 136.411428 
L 156.978497 132.832852 
L 160.807926 128.561826 
L 164.511727 124.743764 
L 168.869292 120.659456 
L 173.824742 116.246611 
L 207.892982 85.284846 
L 214.750654 79.126608 
L 224.674054 70.119521 
L 226.272231 68.945983 
L 227.608893 68.251349 
L 228.696218 67.956812 
L 229.77017 67.899277 
L 230.535741 68.020966 
L 231.480623 68.394956 
L 232.68655 69.288526 
L 235.815629 71.771829 
L 238.031256 73.353539 
L 238.542447 74.098512 
L 239.001306 75.22288 
L 239.255094 76.607649 
L 239.268863 78.078419 
L 239.006499 80.839048 
L 238.265894 87.040173 
L 236.39809 100.990244 
L 234.984711 112.203202 
L 234.984711 112.203202 
" style="fill:none;stroke:#ff0000;stroke-linecap:square;stroke-width:1.5;"/>
   </g>
   <g id="patch_3">
    <path d="M 57.6 307.584 
L 57.6 41.472 
" style="fill:none;stroke:#000000;stroke-linecap:square;stroke-linejoin:miter;stroke-width:0.8;"/>
   </g>
   <g id="patch_4">
    <path d="M 414.72 307.584 
L 414.72 41.472 
" style="fill:none;stroke:#000000;stroke-linecap:square;stroke-linejoin:miter;stroke-width:0.8;"/>
   </g>
   <g id="patch_5">
    <path d="M 57.6 307.584 
L 414.72 307.584 
" style="fill:none;stroke:#000000;stroke-linecap:square;stroke-linejoin:miter;stroke-width:0.8;"/>
   </g>
   <g id="patch_6">
    <path d="M 57.6 41.472 
L 414.72 41.472 
" style="fill:none;stroke:#000000;stroke-linecap:square;stroke-linejoin:miter;stroke-width:0.8;"/>
   </g>
  </g>
 </g>
 <defs>
  <clipPath id="pf57252a2ed">
   <rect height="266.112" width="357.12" x="57.6" y="41.472"/>
  </clipPath>
 </defs>
</svg>
