<?xml version="1.0" encoding="utf-8" standalone="no"?>
<!DOCTYPE svg PUBLIC "-//W3C//DTD SVG 1.1//EN"
  "http://www.w3.org/Graphics/SVG/1.1/DTD/svg11.dtd">
<!-- Created with matplotlib (https://matplotlib.org/) -->
<svg height="345.6pt" version="1.1" viewBox="0 0 460.8 345.6" width="460.8pt" xmlns="http://www.w3.org/2000/svg" xmlns:xlink="http://www.w3.org/1999/xlink">
 <defs>
  <style type="text/css">
*{stroke-linecap:butt;stroke-linejoin:round;}
  </style>
 </defs>
 <g id="figure_1">
  <g id="patch_1">
   <path d="M 0 345.6 
L 460.8 345.6 
L 460.8 0 
L 0 0 
z
" style="fill:#ffffff;"/>
  </g>
  <g id="axes_1">
   <g id="patch_2">
    <path d="M 57.6 307.584 
L 414.72 307.584 
L 414.72 41.472 
L 57.6 41.472 
z
" style="fill:#ffffff;"/>
   </g>
   <g id="matplotlib.axis_1">
    <g id="xtick_1">
     <g id="line2d_1">
      <defs>
       <path d="M 0 0 
L 0 3.5 
" id="m3129a72a71" style="stroke:#000000;stroke-width:0.8;"/>
      </defs>
      <g>
       <use style="stroke:#000000;stroke-width:0.8;" x="80.153387" xlink:href="#m3129a72a71" y="307.584"/>
      </g>
     </g>
     <g id="text_1">
      <!-- −1000 -->
      <defs>
       <path d="M 10.59375 35.5 
L 73.1875 35.5 
L 73.1875 27.203125 
L 10.59375 27.203125 
z
" id="DejaVuSans-8722"/>
       <path d="M 12.40625 8.296875 
L 28.515625 8.296875 
L 28.515625 63.921875 
L 10.984375 60.40625 
L 10.984375 69.390625 
L 28.421875 72.90625 
L 38.28125 72.90625 
L 38.28125 8.296875 
L 54.390625 8.296875 
L 54.390625 0 
L 12.40625 0 
z
" id="DejaVuSans-49"/>
       <path d="M 31.78125 66.40625 
Q 24.171875 66.40625 20.328125 58.90625 
Q 16.5 51.421875 16.5 36.375 
Q 16.5 21.390625 20.328125 13.890625 
Q 24.171875 6.390625 31.78125 6.390625 
Q 39.453125 6.390625 43.28125 13.890625 
Q 47.125 21.390625 47.125 36.375 
Q 47.125 51.421875 43.28125 58.90625 
Q 39.453125 66.40625 31.78125 66.40625 
z
M 31.78125 74.21875 
Q 44.046875 74.21875 50.515625 64.515625 
Q 56.984375 54.828125 56.984375 36.375 
Q 56.984375 17.96875 50.515625 8.265625 
Q 44.046875 -1.421875 31.78125 -1.421875 
Q 19.53125 -1.421875 13.0625 8.265625 
Q 6.59375 17.96875 6.59375 36.375 
Q 6.59375 54.828125 13.0625 64.515625 
Q 19.53125 74.21875 31.78125 74.21875 
z
" id="DejaVuSans-48"/>
      </defs>
      <g transform="translate(63.238543 322.182437)scale(0.1 -0.1)">
       <use xlink:href="#DejaVuSans-8722"/>
       <use x="83.789062" xlink:href="#DejaVuSans-49"/>
       <use x="147.412109" xlink:href="#DejaVuSans-48"/>
       <use x="211.035156" xlink:href="#DejaVuSans-48"/>
       <use x="274.658203" xlink:href="#DejaVuSans-48"/>
      </g>
     </g>
    </g>
    <g id="xtick_2">
     <g id="line2d_2">
      <g>
       <use style="stroke:#000000;stroke-width:0.8;" x="136.439282" xlink:href="#m3129a72a71" y="307.584"/>
      </g>
     </g>
     <g id="text_2">
      <!-- −500 -->
      <defs>
       <path d="M 10.796875 72.90625 
L 49.515625 72.90625 
L 49.515625 64.59375 
L 19.828125 64.59375 
L 19.828125 46.734375 
Q 21.96875 47.46875 24.109375 47.828125 
Q 26.265625 48.1875 28.421875 48.1875 
Q 40.625 48.1875 47.75 41.5 
Q 54.890625 34.8125 54.890625 23.390625 
Q 54.890625 11.625 47.5625 5.09375 
Q 40.234375 -1.421875 26.90625 -1.421875 
Q 22.3125 -1.421875 17.546875 -0.640625 
Q 12.796875 0.140625 7.71875 1.703125 
L 7.71875 11.625 
Q 12.109375 9.234375 16.796875 8.0625 
Q 21.484375 6.890625 26.703125 6.890625 
Q 35.15625 6.890625 40.078125 11.328125 
Q 45.015625 15.765625 45.015625 23.390625 
Q 45.015625 31 40.078125 35.4375 
Q 35.15625 39.890625 26.703125 39.890625 
Q 22.75 39.890625 18.8125 39.015625 
Q 14.890625 38.140625 10.796875 36.28125 
z
" id="DejaVuSans-53"/>
      </defs>
      <g transform="translate(122.705688 322.182437)scale(0.1 -0.1)">
       <use xlink:href="#DejaVuSans-8722"/>
       <use x="83.789062" xlink:href="#DejaVuSans-53"/>
       <use x="147.412109" xlink:href="#DejaVuSans-48"/>
       <use x="211.035156" xlink:href="#DejaVuSans-48"/>
      </g>
     </g>
    </g>
    <g id="xtick_3">
     <g id="line2d_3">
      <g>
       <use style="stroke:#000000;stroke-width:0.8;" x="192.725177" xlink:href="#m3129a72a71" y="307.584"/>
      </g>
     </g>
     <g id="text_3">
      <!-- 0 -->
      <g transform="translate(189.543927 322.182437)scale(0.1 -0.1)">
       <use xlink:href="#DejaVuSans-48"/>
      </g>
     </g>
    </g>
    <g id="xtick_4">
     <g id="line2d_4">
      <g>
       <use style="stroke:#000000;stroke-width:0.8;" x="249.011072" xlink:href="#m3129a72a71" y="307.584"/>
      </g>
     </g>
     <g id="text_4">
      <!-- 500 -->
      <g transform="translate(239.467322 322.182437)scale(0.1 -0.1)">
       <use xlink:href="#DejaVuSans-53"/>
       <use x="63.623047" xlink:href="#DejaVuSans-48"/>
       <use x="127.246094" xlink:href="#DejaVuSans-48"/>
      </g>
     </g>
    </g>
    <g id="xtick_5">
     <g id="line2d_5">
      <g>
       <use style="stroke:#000000;stroke-width:0.8;" x="305.296968" xlink:href="#m3129a72a71" y="307.584"/>
      </g>
     </g>
     <g id="text_5">
      <!-- 1000 -->
      <g transform="translate(292.571968 322.182437)scale(0.1 -0.1)">
       <use xlink:href="#DejaVuSans-49"/>
       <use x="63.623047" xlink:href="#DejaVuSans-48"/>
       <use x="127.246094" xlink:href="#DejaVuSans-48"/>
       <use x="190.869141" xlink:href="#DejaVuSans-48"/>
      </g>
     </g>
    </g>
    <g id="xtick_6">
     <g id="line2d_6">
      <g>
       <use style="stroke:#000000;stroke-width:0.8;" x="361.582863" xlink:href="#m3129a72a71" y="307.584"/>
      </g>
     </g>
     <g id="text_6">
      <!-- 1500 -->
      <g transform="translate(348.857863 322.182437)scale(0.1 -0.1)">
       <use xlink:href="#DejaVuSans-49"/>
       <use x="63.623047" xlink:href="#DejaVuSans-53"/>
       <use x="127.246094" xlink:href="#DejaVuSans-48"/>
       <use x="190.869141" xlink:href="#DejaVuSans-48"/>
      </g>
     </g>
    </g>
   </g>
   <g id="matplotlib.axis_2">
    <g id="ytick_1">
     <g id="line2d_7">
      <defs>
       <path d="M 0 0 
L -3.5 0 
" id="ma24e621a65" style="stroke:#000000;stroke-width:0.8;"/>
      </defs>
      <g>
       <use style="stroke:#000000;stroke-width:0.8;" x="57.6" xlink:href="#ma24e621a65" y="286.141647"/>
      </g>
     </g>
     <g id="text_7">
      <!-- −1500 -->
      <g transform="translate(16.770313 289.940866)scale(0.1 -0.1)">
       <use xlink:href="#DejaVuSans-8722"/>
       <use x="83.789062" xlink:href="#DejaVuSans-49"/>
       <use x="147.412109" xlink:href="#DejaVuSans-53"/>
       <use x="211.035156" xlink:href="#DejaVuSans-48"/>
       <use x="274.658203" xlink:href="#DejaVuSans-48"/>
      </g>
     </g>
    </g>
    <g id="ytick_2">
     <g id="line2d_8">
      <g>
       <use style="stroke:#000000;stroke-width:0.8;" x="57.6" xlink:href="#ma24e621a65" y="229.855752"/>
      </g>
     </g>
     <g id="text_8">
      <!-- −1000 -->
      <g transform="translate(16.770313 233.65497)scale(0.1 -0.1)">
       <use xlink:href="#DejaVuSans-8722"/>
       <use x="83.789062" xlink:href="#DejaVuSans-49"/>
       <use x="147.412109" xlink:href="#DejaVuSans-48"/>
       <use x="211.035156" xlink:href="#DejaVuSans-48"/>
       <use x="274.658203" xlink:href="#DejaVuSans-48"/>
      </g>
     </g>
    </g>
    <g id="ytick_3">
     <g id="line2d_9">
      <g>
       <use style="stroke:#000000;stroke-width:0.8;" x="57.6" xlink:href="#ma24e621a65" y="173.569856"/>
      </g>
     </g>
     <g id="text_9">
      <!-- −500 -->
      <g transform="translate(23.132812 177.369075)scale(0.1 -0.1)">
       <use xlink:href="#DejaVuSans-8722"/>
       <use x="83.789062" xlink:href="#DejaVuSans-53"/>
       <use x="147.412109" xlink:href="#DejaVuSans-48"/>
       <use x="211.035156" xlink:href="#DejaVuSans-48"/>
      </g>
     </g>
    </g>
    <g id="ytick_4">
     <g id="line2d_10">
      <g>
       <use style="stroke:#000000;stroke-width:0.8;" x="57.6" xlink:href="#ma24e621a65" y="117.283961"/>
      </g>
     </g>
     <g id="text_10">
      <!-- 0 -->
      <g transform="translate(44.2375 121.08318)scale(0.1 -0.1)">
       <use xlink:href="#DejaVuSans-48"/>
      </g>
     </g>
    </g>
    <g id="ytick_5">
     <g id="line2d_11">
      <g>
       <use style="stroke:#000000;stroke-width:0.8;" x="57.6" xlink:href="#ma24e621a65" y="60.998066"/>
      </g>
     </g>
     <g id="text_11">
      <!-- 500 -->
      <g transform="translate(31.5125 64.797285)scale(0.1 -0.1)">
       <use xlink:href="#DejaVuSans-53"/>
       <use x="63.623047" xlink:href="#DejaVuSans-48"/>
       <use x="127.246094" xlink:href="#DejaVuSans-48"/>
      </g>
     </g>
    </g>
   </g>
   <g id="line2d_12">
    <path clip-path="url(#pb36370c250)" d="M 192.725177 117.283961 
L 192.870179 116.515523 
L 193.246547 115.844161 
L 193.807836 115.342283 
L 194.502482 115.038314 
L 195.410425 114.895787 
L 196.678105 114.966634 
L 200.559212 115.560414 
L 205.954411 116.468161 
L 209.145101 117.288619 
L 212.466498 118.359903 
L 216.14853 119.764667 
L 220.345465 121.628235 
L 223.737242 123.369832 
L 227.720527 125.671962 
L 230.756307 127.657626 
L 234.209548 130.193887 
L 237.747465 133.079766 
L 242.937374 137.691923 
L 247.520363 141.56311 
L 264.211911 155.220636 
L 275.674331 164.304471 
L 285.861133 172.049321 
L 294.299593 178.170244 
L 303.003272 184.099074 
L 313.189601 190.740968 
L 320.982833 195.516343 
L 331.909502 201.850904 
L 340.780496 206.648377 
L 350.293263 211.53567 
L 358.912998 215.71375 
L 369.453882 220.559831 
L 375.029113 223.209591 
L 383.591323 227.464479 
L 390.017596 230.372355 
L 394.136148 232.287764 
L 395.675117 233.199708 
L 396.71877 234.084297 
L 397.464445 234.999506 
L 398.026742 236.035617 
L 398.399917 237.319273 
L 398.485246 238.654938 
L 398.289822 239.993529 
L 397.795407 241.266491 
L 397.011794 242.390746 
L 395.98514 243.298187 
L 394.757882 243.963824 
L 393.561694 244.354223 
L 391.918596 244.660869 
L 388.671575 244.9844 
L 384.781432 245.194009 
L 383.609672 245.064438 
L 382.506581 244.73449 
L 381.655088 244.264503 
L 380.921233 243.620367 
L 380.357924 242.847449 
L 379.907411 241.821808 
L 379.692849 240.86551 
L 379.706696 239.722569 
L 379.872289 238.909237 
L 380.094731 238.267015 
L 380.094731 238.267015 
" style="fill:none;stroke:#008000;stroke-linecap:square;stroke-width:1.5;"/>
   </g>
   <g id="line2d_13">
    <path clip-path="url(#pb36370c250)" d="M 192.725177 117.283961 
L 192.83729 116.621839 
L 193.176577 115.92843 
L 193.633142 115.467786 
L 194.287165 115.100574 
L 195.16356 114.886838 
L 196.278212 114.8831 
L 198.945604 115.216765 
L 206.422397 116.32321 
L 208.941187 116.936239 
L 217.971615 120.051096 
L 225.133785 123.431698 
L 229.731224 126.079036 
L 233.783232 128.806041 
L 234.031239 128.628881 
L 235.660744 130.01129 
L 236.219709 129.821168 
L 236.414275 130.05643 
L 236.708196 130.12133 
L 236.972417 130.004587 
L 236.921258 129.710368 
L 236.334746 129.617779 
L 236.106427 129.77526 
L 236.557207 129.548084 
L 236.487699 129.811938 
L 236.195755 129.755421 
L 236.404201 129.970607 
L 235.85582 130.113255 
L 235.742029 130.365515 
L 235.675437 130.077277 
L 235.412451 130.172654 
L 235.230231 129.937077 
L 220.839842 126.547293 
L 217.67751 125.844299 
L 215.088986 125.239492 
L 201.602616 122.25916 
L 196.155245 121.091452 
L 191.299294 119.99766 
L 189.298203 119.56053 
L 188.75601 119.335378 
L 170.964412 115.945727 
L 170.680157 115.939334 
L 171.247075 116.040449 
L 171.245048 116.059555 
L 172.37436 116.21793 
L 173.248673 116.31021 
L 171.840652 116.109399 
L 171.726863 115.85545 
L 168.064057 115.310509 
L 164.685981 114.830522 
L 158.033162 113.902645 
L 156.385247 113.676763 
L 153.635711 113.385059 
L 145.360345 112.672232 
L 135.109571 111.979037 
L 128.046242 111.683312 
L 128.257071 111.493002 
L 121.466389 111.373827 
L 110.985592 111.414515 
L 110.122279 111.424136 
L 110.252298 111.174398 
L 109.107357 111.166402 
L 108.885883 110.970105 
L 103.850155 111.012848 
L 104.011947 110.803537 
L 99.41352 110.840714 
L 96.517473 110.903624 
L 94.952658 110.911157 
L 91.356515 110.881534 
L 89.59824 110.817364 
L 88.851703 110.794226 
L 89.079947 110.741001 
L 90.454056 110.385519 
L 90.212914 110.379325 
L 89.248547 110.309205 
L 89.713076 110.278013 
L 91.332062 110.18635 
L 89.714181 110.166607 
L 84.464936 110.172749 
L 79.808661 109.987131 
L 78.4963 109.671362 
L 77.260763 109.128441 
L 76.276407 108.474587 
L 75.43522 107.667385 
L 74.67071 106.592674 
L 74.117385 105.412758 
L 73.874735 104.317461 
L 73.854778 103.219062 
L 74.072067 102.164495 
L 74.531237 101.199567 
L 75.300327 100.209529 
L 76.282961 99.350482 
L 78.289285 98.018669 
L 81.572934 96.092472 
L 83.173889 95.354511 
L 84.233407 95.10286 
L 85.341739 95.074293 
L 86.424838 95.292238 
L 87.314129 95.676163 
L 87.995097 95.999716 
L 88.123479 95.919909 
L 88.089403 96.058314 
L 88.390085 96.075144 
L 88.353657 96.213797 
L 88.797003 96.121542 
L 88.081006 96.674449 
L 88.273692 96.793852 
L 88.387201 97.254205 
L 88.381822 97.412284 
L 88.381822 97.412284 
" style="fill:none;stroke:#0000ff;stroke-linecap:square;stroke-width:1.5;"/>
   </g>
   <g id="line2d_14">
    <path clip-path="url(#pb36370c250)" d="M 192.725177 117.283961 
L 192.837287 116.62184 
L 193.176593 115.928441 
L 193.633169 115.467811 
L 194.287217 115.10065 
L 195.163623 114.886967 
L 196.278275 114.883261 
L 198.945682 115.216829 
L 206.422258 116.324572 
L 208.940816 116.938505 
L 217.969567 120.05801 
L 225.129352 123.443529 
L 229.724561 126.094642 
L 233.773969 128.825513 
L 234.022109 128.648616 
L 235.650259 130.032655 
L 235.940438 129.969216 
L 236.833069 130.780103 
L 236.671403 130.532047 
L 236.8843 130.747831 
L 237.091812 130.969246 
L 237.393968 130.988189 
L 236.801701 130.910642 
L 237.054439 130.744823 
L 237.255967 130.970715 
L 237.247492 130.668099 
L 237.808303 130.896041 
L 238.081593 130.770424 
L 237.945184 131.030472 
L 238.234074 131.118423 
L 238.211875 131.418069 
L 245.560152 140.524061 
L 254.04257 150.611162 
L 264.363832 162.610837 
L 267.431737 166.255182 
L 268.984719 168.060269 
L 269.267782 168.576061 
L 281.851502 182.468783 
L 280.175203 180.832655 
L 279.992648 180.577535 
L 281.032627 181.603543 
L 280.93137 181.878967 
L 284.463558 185.387932 
L 288.403069 189.255249 
L 295.258493 195.721432 
L 303.122844 202.494558 
L 309.99725 208.229737 
L 314.784249 212.060042 
L 314.480361 212.07374 
L 320.316064 216.56144 
L 325.420995 220.377057 
L 329.045509 223.049159 
L 329.52572 223.403563 
L 329.255573 223.509631 
L 330.199006 224.22954 
L 330.248231 224.517766 
L 334.449539 227.62502 
L 334.175102 227.682978 
L 338.02062 230.516948 
L 340.469047 232.271773 
L 341.774653 233.239871 
L 344.739251 235.50218 
L 346.152398 236.647354 
L 346.751812 237.131991 
L 346.516634 237.034827 
L 345.081699 236.474481 
L 345.277293 236.629532 
L 346.024439 237.286142 
L 345.817106 237.156294 
L 344.188931 236.092881 
L 345.333269 236.969692 
L 353.468069 243.128002 
L 354.380037 244.164884 
L 355.000775 245.173521 
L 355.431853 246.273777 
L 355.631157 247.424674 
L 355.613531 248.427061 
L 355.357124 249.741682 
L 354.904263 250.83603 
L 354.33867 251.691396 
L 353.634965 252.44024 
L 352.665612 253.142141 
L 351.56223 253.622342 
L 350.185555 253.928122 
L 348.729373 253.997064 
L 346.076413 253.800785 
L 342.101816 253.307448 
L 340.201148 252.917965 
L 339.119902 252.482651 
L 338.168615 251.850262 
L 337.490789 251.139577 
L 336.992173 250.321708 
L 336.719686 249.568132 
L 336.68275 249.257499 
L 336.516008 249.250882 
L 336.731359 249.284787 
L 336.617865 249.160023 
L 336.734246 249.052535 
L 336.268823 248.924902 
L 336.436579 248.902598 
L 336.436068 248.899919 
L 336.454688 248.732667 
L 336.939089 248.687906 
L 337.420353 248.605965 
L 337.406659 248.77001 
L 337.570761 248.728599 
L 337.705876 247.904181 
L 337.705876 247.904181 
" style="fill:none;stroke:#ff0000;stroke-linecap:square;stroke-width:1.5;"/>
   </g>
   <g id="patch_3">
    <path d="M 57.6 307.584 
L 57.6 41.472 
" style="fill:none;stroke:#000000;stroke-linecap:square;stroke-linejoin:miter;stroke-width:0.8;"/>
   </g>
   <g id="patch_4">
    <path d="M 414.72 307.584 
L 414.72 41.472 
" style="fill:none;stroke:#000000;stroke-linecap:square;stroke-linejoin:miter;stroke-width:0.8;"/>
   </g>
   <g id="patch_5">
    <path d="M 57.6 307.584 
L 414.72 307.584 
" style="fill:none;stroke:#000000;stroke-linecap:square;stroke-linejoin:miter;stroke-width:0.8;"/>
   </g>
   <g id="patch_6">
    <path d="M 57.6 41.472 
L 414.72 41.472 
" style="fill:none;stroke:#000000;stroke-linecap:square;stroke-linejoin:miter;stroke-width:0.8;"/>
   </g>
  </g>
 </g>
 <defs>
  <clipPath id="pb36370c250">
   <rect height="266.112" width="357.12" x="57.6" y="41.472"/>
  </clipPath>
 </defs>
</svg>
