<?xml version="1.0" encoding="utf-8" standalone="no"?>
<!DOCTYPE svg PUBLIC "-//W3C//DTD SVG 1.1//EN"
  "http://www.w3.org/Graphics/SVG/1.1/DTD/svg11.dtd">
<!-- Created with matplotlib (https://matplotlib.org/) -->
<svg height="345.6pt" version="1.1" viewBox="0 0 460.8 345.6" width="460.8pt" xmlns="http://www.w3.org/2000/svg" xmlns:xlink="http://www.w3.org/1999/xlink">
 <defs>
  <style type="text/css">
*{stroke-linecap:butt;stroke-linejoin:round;}
  </style>
 </defs>
 <g id="figure_1">
  <g id="patch_1">
   <path d="M 0 345.6 
L 460.8 345.6 
L 460.8 0 
L 0 0 
z
" style="fill:#ffffff;"/>
  </g>
  <g id="axes_1">
   <g id="patch_2">
    <path d="M 57.6 307.584 
L 414.72 307.584 
L 414.72 41.472 
L 57.6 41.472 
z
" style="fill:#ffffff;"/>
   </g>
   <g id="matplotlib.axis_1">
    <g id="xtick_1">
     <g id="line2d_1">
      <defs>
       <path d="M 0 0 
L 0 3.5 
" id="mcd890b50fe" style="stroke:#000000;stroke-width:0.8;"/>
      </defs>
      <g>
       <use style="stroke:#000000;stroke-width:0.8;" x="71.238782" xlink:href="#mcd890b50fe" y="307.584"/>
      </g>
     </g>
     <g id="text_1">
      <!-- −1000 -->
      <defs>
       <path d="M 10.59375 35.5 
L 73.1875 35.5 
L 73.1875 27.203125 
L 10.59375 27.203125 
z
" id="DejaVuSans-8722"/>
       <path d="M 12.40625 8.296875 
L 28.515625 8.296875 
L 28.515625 63.921875 
L 10.984375 60.40625 
L 10.984375 69.390625 
L 28.421875 72.90625 
L 38.28125 72.90625 
L 38.28125 8.296875 
L 54.390625 8.296875 
L 54.390625 0 
L 12.40625 0 
z
" id="DejaVuSans-49"/>
       <path d="M 31.78125 66.40625 
Q 24.171875 66.40625 20.328125 58.90625 
Q 16.5 51.421875 16.5 36.375 
Q 16.5 21.390625 20.328125 13.890625 
Q 24.171875 6.390625 31.78125 6.390625 
Q 39.453125 6.390625 43.28125 13.890625 
Q 47.125 21.390625 47.125 36.375 
Q 47.125 51.421875 43.28125 58.90625 
Q 39.453125 66.40625 31.78125 66.40625 
z
M 31.78125 74.21875 
Q 44.046875 74.21875 50.515625 64.515625 
Q 56.984375 54.828125 56.984375 36.375 
Q 56.984375 17.96875 50.515625 8.265625 
Q 44.046875 -1.421875 31.78125 -1.421875 
Q 19.53125 -1.421875 13.0625 8.265625 
Q 6.59375 17.96875 6.59375 36.375 
Q 6.59375 54.828125 13.0625 64.515625 
Q 19.53125 74.21875 31.78125 74.21875 
z
" id="DejaVuSans-48"/>
      </defs>
      <g transform="translate(54.323938 322.182437)scale(0.1 -0.1)">
       <use xlink:href="#DejaVuSans-8722"/>
       <use x="83.789062" xlink:href="#DejaVuSans-49"/>
       <use x="147.412109" xlink:href="#DejaVuSans-48"/>
       <use x="211.035156" xlink:href="#DejaVuSans-48"/>
       <use x="274.658203" xlink:href="#DejaVuSans-48"/>
      </g>
     </g>
    </g>
    <g id="xtick_2">
     <g id="line2d_2">
      <g>
       <use style="stroke:#000000;stroke-width:0.8;" x="129.248474" xlink:href="#mcd890b50fe" y="307.584"/>
      </g>
     </g>
     <g id="text_2">
      <!-- −500 -->
      <defs>
       <path d="M 10.796875 72.90625 
L 49.515625 72.90625 
L 49.515625 64.59375 
L 19.828125 64.59375 
L 19.828125 46.734375 
Q 21.96875 47.46875 24.109375 47.828125 
Q 26.265625 48.1875 28.421875 48.1875 
Q 40.625 48.1875 47.75 41.5 
Q 54.890625 34.8125 54.890625 23.390625 
Q 54.890625 11.625 47.5625 5.09375 
Q 40.234375 -1.421875 26.90625 -1.421875 
Q 22.3125 -1.421875 17.546875 -0.640625 
Q 12.796875 0.140625 7.71875 1.703125 
L 7.71875 11.625 
Q 12.109375 9.234375 16.796875 8.0625 
Q 21.484375 6.890625 26.703125 6.890625 
Q 35.15625 6.890625 40.078125 11.328125 
Q 45.015625 15.765625 45.015625 23.390625 
Q 45.015625 31 40.078125 35.4375 
Q 35.15625 39.890625 26.703125 39.890625 
Q 22.75 39.890625 18.8125 39.015625 
Q 14.890625 38.140625 10.796875 36.28125 
z
" id="DejaVuSans-53"/>
      </defs>
      <g transform="translate(115.51488 322.182437)scale(0.1 -0.1)">
       <use xlink:href="#DejaVuSans-8722"/>
       <use x="83.789062" xlink:href="#DejaVuSans-53"/>
       <use x="147.412109" xlink:href="#DejaVuSans-48"/>
       <use x="211.035156" xlink:href="#DejaVuSans-48"/>
      </g>
     </g>
    </g>
    <g id="xtick_3">
     <g id="line2d_3">
      <g>
       <use style="stroke:#000000;stroke-width:0.8;" x="187.258166" xlink:href="#mcd890b50fe" y="307.584"/>
      </g>
     </g>
     <g id="text_3">
      <!-- 0 -->
      <g transform="translate(184.076916 322.182437)scale(0.1 -0.1)">
       <use xlink:href="#DejaVuSans-48"/>
      </g>
     </g>
    </g>
    <g id="xtick_4">
     <g id="line2d_4">
      <g>
       <use style="stroke:#000000;stroke-width:0.8;" x="245.267859" xlink:href="#mcd890b50fe" y="307.584"/>
      </g>
     </g>
     <g id="text_4">
      <!-- 500 -->
      <g transform="translate(235.724109 322.182437)scale(0.1 -0.1)">
       <use xlink:href="#DejaVuSans-53"/>
       <use x="63.623047" xlink:href="#DejaVuSans-48"/>
       <use x="127.246094" xlink:href="#DejaVuSans-48"/>
      </g>
     </g>
    </g>
    <g id="xtick_5">
     <g id="line2d_5">
      <g>
       <use style="stroke:#000000;stroke-width:0.8;" x="303.277551" xlink:href="#mcd890b50fe" y="307.584"/>
      </g>
     </g>
     <g id="text_5">
      <!-- 1000 -->
      <g transform="translate(290.552551 322.182437)scale(0.1 -0.1)">
       <use xlink:href="#DejaVuSans-49"/>
       <use x="63.623047" xlink:href="#DejaVuSans-48"/>
       <use x="127.246094" xlink:href="#DejaVuSans-48"/>
       <use x="190.869141" xlink:href="#DejaVuSans-48"/>
      </g>
     </g>
    </g>
    <g id="xtick_6">
     <g id="line2d_6">
      <g>
       <use style="stroke:#000000;stroke-width:0.8;" x="361.287243" xlink:href="#mcd890b50fe" y="307.584"/>
      </g>
     </g>
     <g id="text_6">
      <!-- 1500 -->
      <g transform="translate(348.562243 322.182437)scale(0.1 -0.1)">
       <use xlink:href="#DejaVuSans-49"/>
       <use x="63.623047" xlink:href="#DejaVuSans-53"/>
       <use x="127.246094" xlink:href="#DejaVuSans-48"/>
       <use x="190.869141" xlink:href="#DejaVuSans-48"/>
      </g>
     </g>
    </g>
   </g>
   <g id="matplotlib.axis_2">
    <g id="ytick_1">
     <g id="line2d_7">
      <defs>
       <path d="M 0 0 
L -3.5 0 
" id="m1aa72358a1" style="stroke:#000000;stroke-width:0.8;"/>
      </defs>
      <g>
       <use style="stroke:#000000;stroke-width:0.8;" x="57.6" xlink:href="#m1aa72358a1" y="293.405261"/>
      </g>
     </g>
     <g id="text_7">
      <!-- −1500 -->
      <g transform="translate(16.770313 297.20448)scale(0.1 -0.1)">
       <use xlink:href="#DejaVuSans-8722"/>
       <use x="83.789062" xlink:href="#DejaVuSans-49"/>
       <use x="147.412109" xlink:href="#DejaVuSans-53"/>
       <use x="211.035156" xlink:href="#DejaVuSans-48"/>
       <use x="274.658203" xlink:href="#DejaVuSans-48"/>
      </g>
     </g>
    </g>
    <g id="ytick_2">
     <g id="line2d_8">
      <g>
       <use style="stroke:#000000;stroke-width:0.8;" x="57.6" xlink:href="#m1aa72358a1" y="235.395569"/>
      </g>
     </g>
     <g id="text_8">
      <!-- −1000 -->
      <g transform="translate(16.770313 239.194788)scale(0.1 -0.1)">
       <use xlink:href="#DejaVuSans-8722"/>
       <use x="83.789062" xlink:href="#DejaVuSans-49"/>
       <use x="147.412109" xlink:href="#DejaVuSans-48"/>
       <use x="211.035156" xlink:href="#DejaVuSans-48"/>
       <use x="274.658203" xlink:href="#DejaVuSans-48"/>
      </g>
     </g>
    </g>
    <g id="ytick_3">
     <g id="line2d_9">
      <g>
       <use style="stroke:#000000;stroke-width:0.8;" x="57.6" xlink:href="#m1aa72358a1" y="177.385877"/>
      </g>
     </g>
     <g id="text_9">
      <!-- −500 -->
      <g transform="translate(23.132812 181.185095)scale(0.1 -0.1)">
       <use xlink:href="#DejaVuSans-8722"/>
       <use x="83.789062" xlink:href="#DejaVuSans-53"/>
       <use x="147.412109" xlink:href="#DejaVuSans-48"/>
       <use x="211.035156" xlink:href="#DejaVuSans-48"/>
      </g>
     </g>
    </g>
    <g id="ytick_4">
     <g id="line2d_10">
      <g>
       <use style="stroke:#000000;stroke-width:0.8;" x="57.6" xlink:href="#m1aa72358a1" y="119.376184"/>
      </g>
     </g>
     <g id="text_10">
      <!-- 0 -->
      <g transform="translate(44.2375 123.175403)scale(0.1 -0.1)">
       <use xlink:href="#DejaVuSans-48"/>
      </g>
     </g>
    </g>
    <g id="ytick_5">
     <g id="line2d_11">
      <g>
       <use style="stroke:#000000;stroke-width:0.8;" x="57.6" xlink:href="#m1aa72358a1" y="61.366492"/>
      </g>
     </g>
     <g id="text_11">
      <!-- 500 -->
      <g transform="translate(31.5125 65.165711)scale(0.1 -0.1)">
       <use xlink:href="#DejaVuSans-53"/>
       <use x="63.623047" xlink:href="#DejaVuSans-48"/>
       <use x="127.246094" xlink:href="#DejaVuSans-48"/>
      </g>
     </g>
    </g>
   </g>
   <g id="line2d_12">
    <path clip-path="url(#pae956ac5c4)" d="M 187.258166 119.376184 
L 187.407609 118.584212 
L 187.795503 117.892289 
L 188.373983 117.375041 
L 189.089903 117.061762 
L 190.025652 116.91487 
L 191.332156 116.987887 
L 195.139779 117.570425 
L 201.122054 118.586292 
L 204.420972 119.451009 
L 207.853568 120.573304 
L 211.654096 122.039289 
L 215.975795 123.974263 
L 219.471877 125.786617 
L 223.587328 128.18207 
L 226.711254 130.247218 
L 230.26125 132.874971 
L 233.895349 135.858921 
L 246.589772 146.756402 
L 261.654135 159.053495 
L 272.991074 168.024939 
L 283.492127 176.000773 
L 292.440296 182.473112 
L 301.165407 188.404906 
L 310.664969 194.613823 
L 319.955222 200.30621 
L 331.791751 207.135506 
L 340.687886 211.918835 
L 351.604846 217.482487 
L 360.711903 221.841614 
L 378.449875 230.252649 
L 383.058861 232.502022 
L 390.592812 235.927993 
L 393.581239 237.288553 
L 393.581239 237.288553 
" style="fill:none;stroke:#008000;stroke-linecap:square;stroke-width:1.5;"/>
   </g>
   <g id="line2d_13">
    <path clip-path="url(#pae956ac5c4)" d="M 187.258166 119.376184 
L 187.373713 118.693784 
L 187.723391 117.979139 
L 188.193938 117.504388 
L 188.763529 117.166089 
L 189.651896 116.922941 
L 190.656132 116.887203 
L 192.50579 117.084179 
L 199.997328 118.127825 
L 203.730312 118.954974 
L 206.400012 119.756487 
L 210.962903 121.305557 
L 215.836522 123.341051 
L 220.659311 125.7122 
L 225.397551 128.440615 
L 229.573655 131.251137 
L 229.829257 131.068551 
L 231.508667 132.493297 
L 232.08475 132.297352 
L 232.285276 132.539819 
L 232.588198 132.606707 
L 232.86051 132.486389 
L 232.807784 132.183159 
L 232.203311 132.087734 
L 231.967999 132.250039 
L 232.432585 132.015905 
L 232.360948 132.287839 
L 232.060063 132.229592 
L 232.274893 132.451368 
L 231.709717 132.598385 
L 231.592441 132.85837 
L 231.52381 132.561305 
L 231.25277 132.659603 
L 231.064969 132.416811 
L 216.233863 128.923212 
L 213.268827 128.276306 
L 209.417644 127.367616 
L 199.654717 125.199024 
L 174.902501 119.875272 
L 164.538001 117.990377 
L 165.734037 118.165651 
L 165.616763 117.903924 
L 161.841782 117.342294 
L 158.360249 116.847607 
L 151.503683 115.891313 
L 149.805299 115.658513 
L 147.255309 115.388028 
L 141.303896 114.857319 
L 123.342467 113.700872 
L 120.598391 113.604011 
L 120.815677 113.407873 
L 114.119769 113.28041 
L 105.399665 113.303155 
L 102.125493 113.336898 
L 102.259494 113.079511 
L 101.079488 113.07127 
L 100.851232 112.868962 
L 95.661281 112.913014 
L 95.828028 112.697293 
L 91.088771 112.735608 
L 88.10403 112.800444 
L 86.491291 112.808208 
L 82.785014 112.777678 
L 80.972891 112.711543 
L 80.203491 112.687696 
L 80.438724 112.632841 
L 81.854917 112.266472 
L 81.606389 112.260089 
L 80.612488 112.187821 
L 81.091244 112.155673 
L 82.759812 112.061204 
L 81.329154 112.041028 
L 73.832727 112.036852 
L 73.832727 112.036852 
" style="fill:none;stroke:#0000ff;stroke-linecap:square;stroke-width:1.5;"/>
   </g>
   <g id="line2d_14">
    <path clip-path="url(#pae956ac5c4)" d="M 187.258166 119.376184 
L 187.381788 118.694717 
L 188.033568 117.639919 
L 188.54057 117.222692 
L 189.174337 116.990848 
L 190.126364 116.917762 
L 195.774346 116.831295 
L 198.10147 116.783491 
L 203.979918 116.758129 
L 204.47299 116.814305 
L 213.22863 116.65085 
L 221.008628 116.596307 
L 221.240186 116.766765 
L 232.888168 116.562624 
L 235.155011 116.618637 
L 235.142736 116.894063 
L 236.16184 116.980355 
L 236.271544 116.687543 
L 236.582191 116.709569 
L 236.74209 116.452037 
L 237.053104 116.476973 
L 237.55157 116.83814 
L 237.693423 117.022777 
L 238.083471 116.301 
L 253.36116 117.968116 
L 256.110944 118.307707 
L 256.103536 118.01949 
L 269.388347 119.683961 
L 269.082674 119.714049 
L 269.387713 119.755592 
L 271.824151 120.041898 
L 272.112572 119.948114 
L 273.611167 120.047251 
L 279.393772 120.724462 
L 279.626272 120.925165 
L 280.537647 121.059741 
L 280.745251 121.2863 
L 281.351398 121.372745 
L 281.465253 121.227453 
L 282.372647 121.363783 
L 282.622412 121.543165 
L 286.867802 122.150715 
L 287.025367 122.395469 
L 290.623981 123.015521 
L 290.721898 123.294288 
L 290.681598 123.569128 
L 295.497885 124.177859 
L 295.602215 123.889881 
L 297.724877 124.155874 
L 297.921969 124.391042 
L 299.13197 124.548209 
L 299.30229 124.389804 
L 299.52299 124.604522 
L 300.068266 124.673542 
L 300.270331 124.903147 
L 301.581802 125.158511 
L 301.843926 125.321347 
L 302.140263 125.357776 
L 302.463448 125.074848 
L 302.855935 125.042299 
L 302.557573 125.006751 
L 302.414285 124.745896 
L 302.599475 124.555146 
L 302.404973 124.139636 
L 302.599797 123.644288 
L 302.373964 122.854547 
L 302.824376 121.302814 
L 302.525857 121.298237 
L 302.714189 121.466306 
L 302.999568 120.91505 
L 303.155965 120.913485 
L 303.281023 120.356505 
L 303.990387 119.345753 
L 304.229347 119.195389 
L 304.52997 119.18654 
L 304.781532 119.347715 
L 305.0812 119.346731 
L 305.272255 119.112291 
L 307.981483 119.0629 
L 308.158721 118.847234 
L 313.553745 118.616615 
L 315.925178 118.523564 
L 326.76396 118.081884 
L 327.893996 117.982335 
L 332.019849 117.850638 
L 334.102827 117.705256 
L 334.236787 117.471214 
L 346.765949 116.253667 
L 353.544716 115.554647 
L 353.666274 115.725146 
L 355.539493 115.498654 
L 357.723515 115.226623 
L 357.572743 115.461277 
L 357.653021 115.279344 
L 359.200233 115.096465 
L 368.999303 113.799704 
L 368.720005 113.687189 
L 369.626457 113.569875 
L 369.910509 113.673768 
L 370.511838 113.598299 
L 370.386797 113.344505 
L 380.269169 112.233831 
L 380.480472 111.767447 
L 380.677381 111.915636 
L 381.506936 111.924551 
L 381.683545 112.116638 
L 382.517074 112.038557 
L 382.742635 112.184929 
L 383.019055 112.151072 
L 383.177057 112.656551 
L 383.42493 113.138166 
L 386.700744 112.791694 
L 386.545999 112.614417 
L 387.3511 112.529704 
L 387.510385 112.387723 
L 390.139983 112.166049 
L 390.397837 112.21747 
L 390.342001 112.452283 
L 390.099865 112.544824 
L 390.060448 112.776587 
L 389.413187 112.822415 
L 389.810217 112.756618 
L 389.651249 113.394205 
L 389.164841 113.518798 
L 389.66019 113.454544 
L 389.913686 113.453553 
L 390.059135 113.906942 
L 389.575887 114.334155 
L 389.524956 115.437826 
L 390.476479 115.295674 
L 396.260169 114.139285 
L 396.698978 114.115156 
L 397.271057 113.954353 
L 398.487273 113.745936 
L 398.487273 113.745936 
" style="fill:none;stroke:#ff0000;stroke-linecap:square;stroke-width:1.5;"/>
   </g>
   <g id="patch_3">
    <path d="M 57.6 307.584 
L 57.6 41.472 
" style="fill:none;stroke:#000000;stroke-linecap:square;stroke-linejoin:miter;stroke-width:0.8;"/>
   </g>
   <g id="patch_4">
    <path d="M 414.72 307.584 
L 414.72 41.472 
" style="fill:none;stroke:#000000;stroke-linecap:square;stroke-linejoin:miter;stroke-width:0.8;"/>
   </g>
   <g id="patch_5">
    <path d="M 57.6 307.584 
L 414.72 307.584 
" style="fill:none;stroke:#000000;stroke-linecap:square;stroke-linejoin:miter;stroke-width:0.8;"/>
   </g>
   <g id="patch_6">
    <path d="M 57.6 41.472 
L 414.72 41.472 
" style="fill:none;stroke:#000000;stroke-linecap:square;stroke-linejoin:miter;stroke-width:0.8;"/>
   </g>
  </g>
 </g>
 <defs>
  <clipPath id="pae956ac5c4">
   <rect height="266.112" width="357.12" x="57.6" y="41.472"/>
  </clipPath>
 </defs>
</svg>
