<?xml version="1.0" encoding="utf-8" standalone="no"?>
<!DOCTYPE svg PUBLIC "-//W3C//DTD SVG 1.1//EN"
  "http://www.w3.org/Graphics/SVG/1.1/DTD/svg11.dtd">
<!-- Created with matplotlib (https://matplotlib.org/) -->
<svg height="345.6pt" version="1.1" viewBox="0 0 460.8 345.6" width="460.8pt" xmlns="http://www.w3.org/2000/svg" xmlns:xlink="http://www.w3.org/1999/xlink">
 <defs>
  <style type="text/css">
*{stroke-linecap:butt;stroke-linejoin:round;}
  </style>
 </defs>
 <g id="figure_1">
  <g id="patch_1">
   <path d="M 0 345.6 
L 460.8 345.6 
L 460.8 0 
L 0 0 
z
" style="fill:#ffffff;"/>
  </g>
  <g id="axes_1">
   <g id="patch_2">
    <path d="M 57.6 307.584 
L 414.72 307.584 
L 414.72 41.472 
L 57.6 41.472 
z
" style="fill:#ffffff;"/>
   </g>
   <g id="matplotlib.axis_1">
    <g id="xtick_1">
     <g id="line2d_1">
      <defs>
       <path d="M 0 0 
L 0 3.5 
" id="m0d07cafc2c" style="stroke:#000000;stroke-width:0.8;"/>
      </defs>
      <g>
       <use style="stroke:#000000;stroke-width:0.8;" x="79.970166" xlink:href="#m0d07cafc2c" y="307.584"/>
      </g>
     </g>
     <g id="text_1">
      <!-- −1000 -->
      <defs>
       <path d="M 10.59375 35.5 
L 73.1875 35.5 
L 73.1875 27.203125 
L 10.59375 27.203125 
z
" id="DejaVuSans-8722"/>
       <path d="M 12.40625 8.296875 
L 28.515625 8.296875 
L 28.515625 63.921875 
L 10.984375 60.40625 
L 10.984375 69.390625 
L 28.421875 72.90625 
L 38.28125 72.90625 
L 38.28125 8.296875 
L 54.390625 8.296875 
L 54.390625 0 
L 12.40625 0 
z
" id="DejaVuSans-49"/>
       <path d="M 31.78125 66.40625 
Q 24.171875 66.40625 20.328125 58.90625 
Q 16.5 51.421875 16.5 36.375 
Q 16.5 21.390625 20.328125 13.890625 
Q 24.171875 6.390625 31.78125 6.390625 
Q 39.453125 6.390625 43.28125 13.890625 
Q 47.125 21.390625 47.125 36.375 
Q 47.125 51.421875 43.28125 58.90625 
Q 39.453125 66.40625 31.78125 66.40625 
z
M 31.78125 74.21875 
Q 44.046875 74.21875 50.515625 64.515625 
Q 56.984375 54.828125 56.984375 36.375 
Q 56.984375 17.96875 50.515625 8.265625 
Q 44.046875 -1.421875 31.78125 -1.421875 
Q 19.53125 -1.421875 13.0625 8.265625 
Q 6.59375 17.96875 6.59375 36.375 
Q 6.59375 54.828125 13.0625 64.515625 
Q 19.53125 74.21875 31.78125 74.21875 
z
" id="DejaVuSans-48"/>
      </defs>
      <g transform="translate(63.055322 322.182437)scale(0.1 -0.1)">
       <use xlink:href="#DejaVuSans-8722"/>
       <use x="83.789062" xlink:href="#DejaVuSans-49"/>
       <use x="147.412109" xlink:href="#DejaVuSans-48"/>
       <use x="211.035156" xlink:href="#DejaVuSans-48"/>
       <use x="274.658203" xlink:href="#DejaVuSans-48"/>
      </g>
     </g>
    </g>
    <g id="xtick_2">
     <g id="line2d_2">
      <g>
       <use style="stroke:#000000;stroke-width:0.8;" x="134.624465" xlink:href="#m0d07cafc2c" y="307.584"/>
      </g>
     </g>
     <g id="text_2">
      <!-- −500 -->
      <defs>
       <path d="M 10.796875 72.90625 
L 49.515625 72.90625 
L 49.515625 64.59375 
L 19.828125 64.59375 
L 19.828125 46.734375 
Q 21.96875 47.46875 24.109375 47.828125 
Q 26.265625 48.1875 28.421875 48.1875 
Q 40.625 48.1875 47.75 41.5 
Q 54.890625 34.8125 54.890625 23.390625 
Q 54.890625 11.625 47.5625 5.09375 
Q 40.234375 -1.421875 26.90625 -1.421875 
Q 22.3125 -1.421875 17.546875 -0.640625 
Q 12.796875 0.140625 7.71875 1.703125 
L 7.71875 11.625 
Q 12.109375 9.234375 16.796875 8.0625 
Q 21.484375 6.890625 26.703125 6.890625 
Q 35.15625 6.890625 40.078125 11.328125 
Q 45.015625 15.765625 45.015625 23.390625 
Q 45.015625 31 40.078125 35.4375 
Q 35.15625 39.890625 26.703125 39.890625 
Q 22.75 39.890625 18.8125 39.015625 
Q 14.890625 38.140625 10.796875 36.28125 
z
" id="DejaVuSans-53"/>
      </defs>
      <g transform="translate(120.890871 322.182437)scale(0.1 -0.1)">
       <use xlink:href="#DejaVuSans-8722"/>
       <use x="83.789062" xlink:href="#DejaVuSans-53"/>
       <use x="147.412109" xlink:href="#DejaVuSans-48"/>
       <use x="211.035156" xlink:href="#DejaVuSans-48"/>
      </g>
     </g>
    </g>
    <g id="xtick_3">
     <g id="line2d_3">
      <g>
       <use style="stroke:#000000;stroke-width:0.8;" x="189.278764" xlink:href="#m0d07cafc2c" y="307.584"/>
      </g>
     </g>
     <g id="text_3">
      <!-- 0 -->
      <g transform="translate(186.097514 322.182437)scale(0.1 -0.1)">
       <use xlink:href="#DejaVuSans-48"/>
      </g>
     </g>
    </g>
    <g id="xtick_4">
     <g id="line2d_4">
      <g>
       <use style="stroke:#000000;stroke-width:0.8;" x="243.933064" xlink:href="#m0d07cafc2c" y="307.584"/>
      </g>
     </g>
     <g id="text_4">
      <!-- 500 -->
      <g transform="translate(234.389314 322.182437)scale(0.1 -0.1)">
       <use xlink:href="#DejaVuSans-53"/>
       <use x="63.623047" xlink:href="#DejaVuSans-48"/>
       <use x="127.246094" xlink:href="#DejaVuSans-48"/>
      </g>
     </g>
    </g>
    <g id="xtick_5">
     <g id="line2d_5">
      <g>
       <use style="stroke:#000000;stroke-width:0.8;" x="298.587363" xlink:href="#m0d07cafc2c" y="307.584"/>
      </g>
     </g>
     <g id="text_5">
      <!-- 1000 -->
      <g transform="translate(285.862363 322.182437)scale(0.1 -0.1)">
       <use xlink:href="#DejaVuSans-49"/>
       <use x="63.623047" xlink:href="#DejaVuSans-48"/>
       <use x="127.246094" xlink:href="#DejaVuSans-48"/>
       <use x="190.869141" xlink:href="#DejaVuSans-48"/>
      </g>
     </g>
    </g>
    <g id="xtick_6">
     <g id="line2d_6">
      <g>
       <use style="stroke:#000000;stroke-width:0.8;" x="353.241662" xlink:href="#m0d07cafc2c" y="307.584"/>
      </g>
     </g>
     <g id="text_6">
      <!-- 1500 -->
      <g transform="translate(340.516662 322.182437)scale(0.1 -0.1)">
       <use xlink:href="#DejaVuSans-49"/>
       <use x="63.623047" xlink:href="#DejaVuSans-53"/>
       <use x="127.246094" xlink:href="#DejaVuSans-48"/>
       <use x="190.869141" xlink:href="#DejaVuSans-48"/>
      </g>
     </g>
    </g>
    <g id="xtick_7">
     <g id="line2d_7">
      <g>
       <use style="stroke:#000000;stroke-width:0.8;" x="407.895961" xlink:href="#m0d07cafc2c" y="307.584"/>
      </g>
     </g>
     <g id="text_7">
      <!-- 2000 -->
      <defs>
       <path d="M 19.1875 8.296875 
L 53.609375 8.296875 
L 53.609375 0 
L 7.328125 0 
L 7.328125 8.296875 
Q 12.9375 14.109375 22.625 23.890625 
Q 32.328125 33.6875 34.8125 36.53125 
Q 39.546875 41.84375 41.421875 45.53125 
Q 43.3125 49.21875 43.3125 52.78125 
Q 43.3125 58.59375 39.234375 62.25 
Q 35.15625 65.921875 28.609375 65.921875 
Q 23.96875 65.921875 18.8125 64.3125 
Q 13.671875 62.703125 7.8125 59.421875 
L 7.8125 69.390625 
Q 13.765625 71.78125 18.9375 73 
Q 24.125 74.21875 28.421875 74.21875 
Q 39.75 74.21875 46.484375 68.546875 
Q 53.21875 62.890625 53.21875 53.421875 
Q 53.21875 48.921875 51.53125 44.890625 
Q 49.859375 40.875 45.40625 35.40625 
Q 44.1875 33.984375 37.640625 27.21875 
Q 31.109375 20.453125 19.1875 8.296875 
z
" id="DejaVuSans-50"/>
      </defs>
      <g transform="translate(395.170961 322.182437)scale(0.1 -0.1)">
       <use xlink:href="#DejaVuSans-50"/>
       <use x="63.623047" xlink:href="#DejaVuSans-48"/>
       <use x="127.246094" xlink:href="#DejaVuSans-48"/>
       <use x="190.869141" xlink:href="#DejaVuSans-48"/>
      </g>
     </g>
    </g>
   </g>
   <g id="matplotlib.axis_2">
    <g id="ytick_1">
     <g id="line2d_8">
      <defs>
       <path d="M 0 0 
L -3.5 0 
" id="m63c40ba173" style="stroke:#000000;stroke-width:0.8;"/>
      </defs>
      <g>
       <use style="stroke:#000000;stroke-width:0.8;" x="57.6" xlink:href="#m63c40ba173" y="287.17849"/>
      </g>
     </g>
     <g id="text_8">
      <!-- −1500 -->
      <g transform="translate(16.770313 290.977709)scale(0.1 -0.1)">
       <use xlink:href="#DejaVuSans-8722"/>
       <use x="83.789062" xlink:href="#DejaVuSans-49"/>
       <use x="147.412109" xlink:href="#DejaVuSans-53"/>
       <use x="211.035156" xlink:href="#DejaVuSans-48"/>
       <use x="274.658203" xlink:href="#DejaVuSans-48"/>
      </g>
     </g>
    </g>
    <g id="ytick_2">
     <g id="line2d_9">
      <g>
       <use style="stroke:#000000;stroke-width:0.8;" x="57.6" xlink:href="#m63c40ba173" y="232.524191"/>
      </g>
     </g>
     <g id="text_9">
      <!-- −1000 -->
      <g transform="translate(16.770313 236.32341)scale(0.1 -0.1)">
       <use xlink:href="#DejaVuSans-8722"/>
       <use x="83.789062" xlink:href="#DejaVuSans-49"/>
       <use x="147.412109" xlink:href="#DejaVuSans-48"/>
       <use x="211.035156" xlink:href="#DejaVuSans-48"/>
       <use x="274.658203" xlink:href="#DejaVuSans-48"/>
      </g>
     </g>
    </g>
    <g id="ytick_3">
     <g id="line2d_10">
      <g>
       <use style="stroke:#000000;stroke-width:0.8;" x="57.6" xlink:href="#m63c40ba173" y="177.869892"/>
      </g>
     </g>
     <g id="text_10">
      <!-- −500 -->
      <g transform="translate(23.132812 181.66911)scale(0.1 -0.1)">
       <use xlink:href="#DejaVuSans-8722"/>
       <use x="83.789062" xlink:href="#DejaVuSans-53"/>
       <use x="147.412109" xlink:href="#DejaVuSans-48"/>
       <use x="211.035156" xlink:href="#DejaVuSans-48"/>
      </g>
     </g>
    </g>
    <g id="ytick_4">
     <g id="line2d_11">
      <g>
       <use style="stroke:#000000;stroke-width:0.8;" x="57.6" xlink:href="#m63c40ba173" y="123.215592"/>
      </g>
     </g>
     <g id="text_11">
      <!-- 0 -->
      <g transform="translate(44.2375 127.014811)scale(0.1 -0.1)">
       <use xlink:href="#DejaVuSans-48"/>
      </g>
     </g>
    </g>
    <g id="ytick_5">
     <g id="line2d_12">
      <g>
       <use style="stroke:#000000;stroke-width:0.8;" x="57.6" xlink:href="#m63c40ba173" y="68.561293"/>
      </g>
     </g>
     <g id="text_12">
      <!-- 500 -->
      <g transform="translate(31.5125 72.360512)scale(0.1 -0.1)">
       <use xlink:href="#DejaVuSans-53"/>
       <use x="63.623047" xlink:href="#DejaVuSans-48"/>
       <use x="127.246094" xlink:href="#DejaVuSans-48"/>
      </g>
     </g>
    </g>
   </g>
   <g id="line2d_13">
    <path clip-path="url(#pc6c83ec9ca)" d="M 189.278764 123.215592 
L 189.419562 122.46943 
L 189.78502 121.817529 
L 190.33004 121.330199 
L 191.004549 121.035041 
L 191.886173 120.896645 
L 193.117106 120.965438 
L 196.885709 121.542006 
L 202.124514 122.42344 
L 205.222713 123.220115 
L 208.682888 124.343468 
L 212.263586 125.724658 
L 216.33531 127.547709 
L 219.866294 129.386625 
L 223.753079 131.66594 
L 226.934396 133.800618 
L 230.262078 136.300434 
L 233.440881 138.938521 
L 244.505731 148.456513 
L 260.276393 161.323186 
L 272.113793 170.642849 
L 281.111093 177.423175 
L 289.309577 183.310482 
L 297.070903 188.567788 
L 305.312574 193.954014 
L 314.300365 199.464469 
L 325.452246 205.898745 
L 333.833811 210.405397 
L 344.381326 215.776155 
L 353.207339 219.991576 
L 369.63041 227.791412 
L 374.18355 230.000321 
L 381.048458 233.111736 
L 385.01155 234.968233 
L 386.345662 235.771214 
L 387.359062 236.630161 
L 388.17516 237.657225 
L 388.744548 238.828248 
L 389.036293 240.091637 
L 389.061653 241.229102 
L 388.884573 242.368098 
L 388.404489 243.60416 
L 387.643592 244.695825 
L 386.646698 245.576961 
L 385.455015 246.223303 
L 384.293502 246.602385 
L 382.698034 246.900142 
L 379.545137 247.214295 
L 375.76776 247.417828 
L 374.473874 247.258019 
L 373.406475 246.902766 
L 372.597919 246.417545 
L 371.920753 245.775357 
L 371.322288 244.863067 
L 370.945064 243.838408 
L 370.815424 243.058272 
L 370.85565 241.942122 
L 371.216915 240.691632 
L 371.216915 240.691632 
" style="fill:none;stroke:#008000;stroke-linecap:square;stroke-width:1.5;"/>
   </g>
   <g id="line2d_14">
    <path clip-path="url(#pc6c83ec9ca)" d="M 189.278764 123.215592 
L 189.387627 122.572664 
L 189.717079 121.899355 
L 190.24268 121.388317 
L 190.795474 121.095496 
L 191.646465 120.887956 
L 192.728805 120.884327 
L 195.318875 121.208319 
L 202.798344 122.328072 
L 205.02471 122.877949 
L 213.793368 125.902514 
L 220.989902 129.31921 
L 224.457921 131.297083 
L 227.906526 133.582336 
L 229.146643 134.403674 
L 229.38746 134.23165 
L 230.96973 135.573986 
L 231.512492 135.389375 
L 231.701418 135.617817 
L 231.986819 135.680836 
L 232.24338 135.567477 
L 232.193704 135.281787 
L 231.624194 135.191881 
L 231.402493 135.344798 
L 231.840207 135.124207 
L 231.772713 135.380412 
L 231.489233 135.325534 
L 231.691636 135.534482 
L 231.159151 135.672995 
L 231.048659 135.917943 
L 230.983997 135.63806 
L 230.728635 135.730672 
L 230.551696 135.501924 
L 216.298462 132.157919 
L 197.619773 127.991958 
L 191.22764 126.541849 
L 188.729615 126.002011 
L 185.95113 125.426169 
L 185.424654 125.207543 
L 168.148793 121.91615 
L 167.872777 121.909942 
L 168.423262 122.008126 
L 168.421293 122.026679 
L 169.51787 122.180463 
L 170.366838 122.270068 
L 168.999632 122.075078 
L 168.889142 121.82849 
L 165.332512 121.299346 
L 162.052358 120.833273 
L 155.326778 119.8822 
L 152.924443 119.604416 
L 149.725513 119.289014 
L 133.3333 118.064445 
L 126.474719 117.777293 
L 126.679437 117.592499 
L 120.085601 117.476779 
L 109.908618 117.516288 
L 109.07033 117.52563 
L 109.19658 117.283131 
L 108.084828 117.275367 
L 107.869774 117.08476 
L 102.98002 117.126264 
L 103.137122 116.923021 
L 98.671993 116.959119 
L 95.859895 117.020206 
L 94.340441 117.02752 
L 90.848542 116.998756 
L 89.141235 116.936446 
L 88.416338 116.913979 
L 88.637966 116.862297 
L 89.972243 116.517119 
L 89.738091 116.511105 
L 88.801679 116.443018 
L 89.252742 116.41273 
L 90.824797 116.323724 
L 89.253815 116.304553 
L 84.156734 116.310517 
L 79.635433 116.13028 
L 78.361114 115.823665 
L 77.161392 115.296481 
L 76.205571 114.661581 
L 75.388767 113.877778 
L 74.646419 112.83422 
L 74.109133 111.688508 
L 73.873517 110.62496 
L 73.854139 109.558401 
L 74.065129 108.534404 
L 74.510989 107.597447 
L 75.257785 106.636107 
L 76.211935 105.801962 
L 78.1601 104.508756 
L 81.348563 102.638395 
L 82.903111 101.921825 
L 84.080497 101.660225 
L 85.156917 101.665914 
L 86.214724 101.91311 
L 87.184343 102.389294 
L 87.584563 102.548328 
L 87.709224 102.470833 
L 87.676136 102.605227 
L 87.968101 102.621569 
L 87.93273 102.756202 
L 88.363223 102.666622 
L 88.368307 102.68501 
L 88.025741 102.968155 
L 87.698759 103.310738 
L 87.855083 103.319443 
L 87.965301 103.766452 
L 87.960078 103.919948 
L 87.960078 103.919948 
" style="fill:none;stroke:#0000ff;stroke-linecap:square;stroke-width:1.5;"/>
   </g>
   <g id="line2d_15">
    <path clip-path="url(#pc6c83ec9ca)" d="M 189.278764 123.215592 
L 189.395236 122.573543 
L 190.080301 121.503019 
L 190.579388 121.13833 
L 191.519759 120.904294 
L 192.220691 120.908369 
L 194.054145 120.920767 
L 194.054145 120.920767 
L 199.703755 120.768694 
L 200.332058 120.803626 
L 221.077034 120.596509 
L 221.295198 120.757107 
L 232.269438 120.564774 
L 234.405163 120.617547 
L 234.393598 120.877041 
L 235.353754 120.958342 
L 235.457113 120.682467 
L 235.749792 120.703219 
L 235.900442 120.460583 
L 236.457182 120.613943 
L 236.796748 120.99831 
L 237.164235 120.318282 
L 251.845608 121.924195 
L 254.148963 122.208918 
L 254.141984 121.937372 
L 266.658376 123.505567 
L 266.370384 123.533914 
L 266.657779 123.573054 
L 268.953289 123.8428 
L 269.225027 123.75444 
L 270.63694 123.847844 
L 276.085068 124.485883 
L 276.30412 124.674977 
L 277.162779 124.801768 
L 277.358375 125.015223 
L 277.929461 125.096668 
L 278.03673 124.95978 
L 278.891639 125.088224 
L 279.126957 125.257231 
L 283.126786 125.829639 
L 283.275236 126.060236 
L 286.6657 126.644423 
L 286.757953 126.907065 
L 286.719984 127.166008 
L 291.257687 127.739529 
L 291.355983 127.468208 
L 293.355866 127.718815 
L 293.541558 127.940381 
L 294.68157 128.088457 
L 294.842038 127.939215 
L 295.049972 128.141513 
L 295.563709 128.20654 
L 295.754086 128.422865 
L 296.989699 128.663458 
L 297.236661 128.816875 
L 297.515858 128.851197 
L 297.820349 128.584634 
L 298.190134 128.553968 
L 297.90903 128.520476 
L 297.77403 128.274709 
L 297.948508 128.094993 
L 297.765257 127.703517 
L 297.948811 127.23682 
L 297.736041 126.49276 
L 298.160401 125.030781 
L 297.879148 125.02647 
L 298.056586 125.184817 
L 299.258967 123.186921 
L 299.484105 123.045255 
L 299.767339 123.036917 
L 300.004351 123.18877 
L 300.286685 123.187843 
L 300.466689 122.966963 
L 303.01921 122.920428 
L 303.186197 122.717238 
L 308.269162 122.499958 
L 312.163137 122.404464 
L 327.629646 121.641313 
L 327.755856 121.420809 
L 341.038003 120.202588 
L 341.241424 120.00744 
L 341.821869 120.037555 
L 345.946977 119.6151 
L 346.061504 119.775737 
L 347.826373 119.562346 
L 349.884067 119.30605 
L 349.742015 119.527131 
L 349.81765 119.355721 
L 351.275369 119.18342 
L 360.507642 117.961666 
L 360.244498 117.855659 
L 361.09852 117.745131 
L 361.366141 117.843015 
L 361.932688 117.771911 
L 361.81488 117.532797 
L 371.125636 116.486366 
L 371.324718 116.046959 
L 371.510237 116.186577 
L 372.291808 116.194976 
L 372.458202 116.375953 
L 373.243518 116.302387 
L 373.456033 116.440294 
L 373.716463 116.408394 
L 373.865327 116.884636 
L 374.098862 117.338393 
L 377.185197 117.011962 
L 377.039403 116.844939 
L 377.797935 116.765126 
L 377.948007 116.631357 
L 380.425504 116.422506 
L 380.668442 116.470952 
L 380.615836 116.692183 
L 380.387706 116.779371 
L 380.350569 116.997728 
L 379.740747 117.040906 
L 380.114812 116.978914 
L 379.965039 117.579622 
L 379.506766 117.697009 
L 379.973463 117.636471 
L 380.212296 117.635537 
L 380.349332 118.062701 
L 379.894036 118.465203 
L 379.846051 119.505037 
L 380.742536 119.371106 
L 386.191686 118.281605 
L 386.605113 118.258872 
L 387.144102 118.10737 
L 390.447324 117.506857 
L 392.124105 117.379448 
L 393.437811 117.502397 
L 394.538204 117.807521 
L 395.555635 118.322594 
L 396.443563 119.017498 
L 397.459842 120.260246 
L 398.067533 121.390038 
L 398.38063 122.449328 
L 398.484656 123.527212 
L 398.305257 124.898178 
L 397.939 125.92948 
L 397.308074 127.053666 
L 396.114381 128.679945 
L 393.240653 132.192482 
L 392.096755 133.211613 
L 391.312254 133.660057 
L 389.857454 134.091729 
L 388.805798 134.06916 
L 388.197418 133.953879 
L 388.209434 133.885272 
L 388.315773 133.499311 
L 388.78198 133.019407 
L 388.488353 133.051071 
L 388.723546 133.281825 
L 388.312793 133.012642 
L 388.045071 132.816031 
L 388.045071 132.816031 
" style="fill:none;stroke:#ff0000;stroke-linecap:square;stroke-width:1.5;"/>
   </g>
   <g id="patch_3">
    <path d="M 57.6 307.584 
L 57.6 41.472 
" style="fill:none;stroke:#000000;stroke-linecap:square;stroke-linejoin:miter;stroke-width:0.8;"/>
   </g>
   <g id="patch_4">
    <path d="M 414.72 307.584 
L 414.72 41.472 
" style="fill:none;stroke:#000000;stroke-linecap:square;stroke-linejoin:miter;stroke-width:0.8;"/>
   </g>
   <g id="patch_5">
    <path d="M 57.6 307.584 
L 414.72 307.584 
" style="fill:none;stroke:#000000;stroke-linecap:square;stroke-linejoin:miter;stroke-width:0.8;"/>
   </g>
   <g id="patch_6">
    <path d="M 57.6 41.472 
L 414.72 41.472 
" style="fill:none;stroke:#000000;stroke-linecap:square;stroke-linejoin:miter;stroke-width:0.8;"/>
   </g>
  </g>
 </g>
 <defs>
  <clipPath id="pc6c83ec9ca">
   <rect height="266.112" width="357.12" x="57.6" y="41.472"/>
  </clipPath>
 </defs>
</svg>
