<?xml version="1.0" encoding="utf-8" standalone="no"?>
<!DOCTYPE svg PUBLIC "-//W3C//DTD SVG 1.1//EN"
  "http://www.w3.org/Graphics/SVG/1.1/DTD/svg11.dtd">
<!-- Created with matplotlib (https://matplotlib.org/) -->
<svg height="345.6pt" version="1.1" viewBox="0 0 460.8 345.6" width="460.8pt" xmlns="http://www.w3.org/2000/svg" xmlns:xlink="http://www.w3.org/1999/xlink">
 <defs>
  <style type="text/css">
*{stroke-linecap:butt;stroke-linejoin:round;}
  </style>
 </defs>
 <g id="figure_1">
  <g id="patch_1">
   <path d="M 0 345.6 
L 460.8 345.6 
L 460.8 0 
L 0 0 
z
" style="fill:#ffffff;"/>
  </g>
  <g id="axes_1">
   <g id="patch_2">
    <path d="M 57.6 307.584 
L 414.72 307.584 
L 414.72 41.472 
L 57.6 41.472 
z
" style="fill:#ffffff;"/>
   </g>
   <g id="matplotlib.axis_1">
    <g id="xtick_1">
     <g id="line2d_1">
      <defs>
       <path d="M 0 0 
L 0 3.5 
" id="m04cfd81149" style="stroke:#000000;stroke-width:0.8;"/>
      </defs>
      <g>
       <use style="stroke:#000000;stroke-width:0.8;" x="73.832727" xlink:href="#m04cfd81149" y="307.584"/>
      </g>
     </g>
     <g id="text_1">
      <!-- 0 -->
      <defs>
       <path d="M 31.78125 66.40625 
Q 24.171875 66.40625 20.328125 58.90625 
Q 16.5 51.421875 16.5 36.375 
Q 16.5 21.390625 20.328125 13.890625 
Q 24.171875 6.390625 31.78125 6.390625 
Q 39.453125 6.390625 43.28125 13.890625 
Q 47.125 21.390625 47.125 36.375 
Q 47.125 51.421875 43.28125 58.90625 
Q 39.453125 66.40625 31.78125 66.40625 
z
M 31.78125 74.21875 
Q 44.046875 74.21875 50.515625 64.515625 
Q 56.984375 54.828125 56.984375 36.375 
Q 56.984375 17.96875 50.515625 8.265625 
Q 44.046875 -1.421875 31.78125 -1.421875 
Q 19.53125 -1.421875 13.0625 8.265625 
Q 6.59375 17.96875 6.59375 36.375 
Q 6.59375 54.828125 13.0625 64.515625 
Q 19.53125 74.21875 31.78125 74.21875 
z
" id="DejaVuSans-48"/>
      </defs>
      <g transform="translate(70.651477 322.182437)scale(0.1 -0.1)">
       <use xlink:href="#DejaVuSans-48"/>
      </g>
     </g>
    </g>
    <g id="xtick_2">
     <g id="line2d_2">
      <g>
       <use style="stroke:#000000;stroke-width:0.8;" x="136.274064" xlink:href="#m04cfd81149" y="307.584"/>
      </g>
     </g>
     <g id="text_2">
      <!-- 20 -->
      <defs>
       <path d="M 19.1875 8.296875 
L 53.609375 8.296875 
L 53.609375 0 
L 7.328125 0 
L 7.328125 8.296875 
Q 12.9375 14.109375 22.625 23.890625 
Q 32.328125 33.6875 34.8125 36.53125 
Q 39.546875 41.84375 41.421875 45.53125 
Q 43.3125 49.21875 43.3125 52.78125 
Q 43.3125 58.59375 39.234375 62.25 
Q 35.15625 65.921875 28.609375 65.921875 
Q 23.96875 65.921875 18.8125 64.3125 
Q 13.671875 62.703125 7.8125 59.421875 
L 7.8125 69.390625 
Q 13.765625 71.78125 18.9375 73 
Q 24.125 74.21875 28.421875 74.21875 
Q 39.75 74.21875 46.484375 68.546875 
Q 53.21875 62.890625 53.21875 53.421875 
Q 53.21875 48.921875 51.53125 44.890625 
Q 49.859375 40.875 45.40625 35.40625 
Q 44.1875 33.984375 37.640625 27.21875 
Q 31.109375 20.453125 19.1875 8.296875 
z
" id="DejaVuSans-50"/>
      </defs>
      <g transform="translate(129.911564 322.182437)scale(0.1 -0.1)">
       <use xlink:href="#DejaVuSans-50"/>
       <use x="63.623047" xlink:href="#DejaVuSans-48"/>
      </g>
     </g>
    </g>
    <g id="xtick_3">
     <g id="line2d_3">
      <g>
       <use style="stroke:#000000;stroke-width:0.8;" x="198.715401" xlink:href="#m04cfd81149" y="307.584"/>
      </g>
     </g>
     <g id="text_3">
      <!-- 40 -->
      <defs>
       <path d="M 37.796875 64.3125 
L 12.890625 25.390625 
L 37.796875 25.390625 
z
M 35.203125 72.90625 
L 47.609375 72.90625 
L 47.609375 25.390625 
L 58.015625 25.390625 
L 58.015625 17.1875 
L 47.609375 17.1875 
L 47.609375 0 
L 37.796875 0 
L 37.796875 17.1875 
L 4.890625 17.1875 
L 4.890625 26.703125 
z
" id="DejaVuSans-52"/>
      </defs>
      <g transform="translate(192.352901 322.182437)scale(0.1 -0.1)">
       <use xlink:href="#DejaVuSans-52"/>
       <use x="63.623047" xlink:href="#DejaVuSans-48"/>
      </g>
     </g>
    </g>
    <g id="xtick_4">
     <g id="line2d_4">
      <g>
       <use style="stroke:#000000;stroke-width:0.8;" x="261.156738" xlink:href="#m04cfd81149" y="307.584"/>
      </g>
     </g>
     <g id="text_4">
      <!-- 60 -->
      <defs>
       <path d="M 33.015625 40.375 
Q 26.375 40.375 22.484375 35.828125 
Q 18.609375 31.296875 18.609375 23.390625 
Q 18.609375 15.53125 22.484375 10.953125 
Q 26.375 6.390625 33.015625 6.390625 
Q 39.65625 6.390625 43.53125 10.953125 
Q 47.40625 15.53125 47.40625 23.390625 
Q 47.40625 31.296875 43.53125 35.828125 
Q 39.65625 40.375 33.015625 40.375 
z
M 52.59375 71.296875 
L 52.59375 62.3125 
Q 48.875 64.0625 45.09375 64.984375 
Q 41.3125 65.921875 37.59375 65.921875 
Q 27.828125 65.921875 22.671875 59.328125 
Q 17.53125 52.734375 16.796875 39.40625 
Q 19.671875 43.65625 24.015625 45.921875 
Q 28.375 48.1875 33.59375 48.1875 
Q 44.578125 48.1875 50.953125 41.515625 
Q 57.328125 34.859375 57.328125 23.390625 
Q 57.328125 12.15625 50.6875 5.359375 
Q 44.046875 -1.421875 33.015625 -1.421875 
Q 20.359375 -1.421875 13.671875 8.265625 
Q 6.984375 17.96875 6.984375 36.375 
Q 6.984375 53.65625 15.1875 63.9375 
Q 23.390625 74.21875 37.203125 74.21875 
Q 40.921875 74.21875 44.703125 73.484375 
Q 48.484375 72.75 52.59375 71.296875 
z
" id="DejaVuSans-54"/>
      </defs>
      <g transform="translate(254.794238 322.182437)scale(0.1 -0.1)">
       <use xlink:href="#DejaVuSans-54"/>
       <use x="63.623047" xlink:href="#DejaVuSans-48"/>
      </g>
     </g>
    </g>
    <g id="xtick_5">
     <g id="line2d_5">
      <g>
       <use style="stroke:#000000;stroke-width:0.8;" x="323.598075" xlink:href="#m04cfd81149" y="307.584"/>
      </g>
     </g>
     <g id="text_5">
      <!-- 80 -->
      <defs>
       <path d="M 31.78125 34.625 
Q 24.75 34.625 20.71875 30.859375 
Q 16.703125 27.09375 16.703125 20.515625 
Q 16.703125 13.921875 20.71875 10.15625 
Q 24.75 6.390625 31.78125 6.390625 
Q 38.8125 6.390625 42.859375 10.171875 
Q 46.921875 13.96875 46.921875 20.515625 
Q 46.921875 27.09375 42.890625 30.859375 
Q 38.875 34.625 31.78125 34.625 
z
M 21.921875 38.8125 
Q 15.578125 40.375 12.03125 44.71875 
Q 8.5 49.078125 8.5 55.328125 
Q 8.5 64.0625 14.71875 69.140625 
Q 20.953125 74.21875 31.78125 74.21875 
Q 42.671875 74.21875 48.875 69.140625 
Q 55.078125 64.0625 55.078125 55.328125 
Q 55.078125 49.078125 51.53125 44.71875 
Q 48 40.375 41.703125 38.8125 
Q 48.828125 37.15625 52.796875 32.3125 
Q 56.78125 27.484375 56.78125 20.515625 
Q 56.78125 9.90625 50.3125 4.234375 
Q 43.84375 -1.421875 31.78125 -1.421875 
Q 19.734375 -1.421875 13.25 4.234375 
Q 6.78125 9.90625 6.78125 20.515625 
Q 6.78125 27.484375 10.78125 32.3125 
Q 14.796875 37.15625 21.921875 38.8125 
z
M 18.3125 54.390625 
Q 18.3125 48.734375 21.84375 45.5625 
Q 25.390625 42.390625 31.78125 42.390625 
Q 38.140625 42.390625 41.71875 45.5625 
Q 45.3125 48.734375 45.3125 54.390625 
Q 45.3125 60.0625 41.71875 63.234375 
Q 38.140625 66.40625 31.78125 66.40625 
Q 25.390625 66.40625 21.84375 63.234375 
Q 18.3125 60.0625 18.3125 54.390625 
z
" id="DejaVuSans-56"/>
      </defs>
      <g transform="translate(317.235575 322.182437)scale(0.1 -0.1)">
       <use xlink:href="#DejaVuSans-56"/>
       <use x="63.623047" xlink:href="#DejaVuSans-48"/>
      </g>
     </g>
    </g>
    <g id="xtick_6">
     <g id="line2d_6">
      <g>
       <use style="stroke:#000000;stroke-width:0.8;" x="386.039412" xlink:href="#m04cfd81149" y="307.584"/>
      </g>
     </g>
     <g id="text_6">
      <!-- 100 -->
      <defs>
       <path d="M 12.40625 8.296875 
L 28.515625 8.296875 
L 28.515625 63.921875 
L 10.984375 60.40625 
L 10.984375 69.390625 
L 28.421875 72.90625 
L 38.28125 72.90625 
L 38.28125 8.296875 
L 54.390625 8.296875 
L 54.390625 0 
L 12.40625 0 
z
" id="DejaVuSans-49"/>
      </defs>
      <g transform="translate(376.495662 322.182437)scale(0.1 -0.1)">
       <use xlink:href="#DejaVuSans-49"/>
       <use x="63.623047" xlink:href="#DejaVuSans-48"/>
       <use x="127.246094" xlink:href="#DejaVuSans-48"/>
      </g>
     </g>
    </g>
   </g>
   <g id="matplotlib.axis_2">
    <g id="ytick_1">
     <g id="line2d_7">
      <defs>
       <path d="M 0 0 
L -3.5 0 
" id="m1d8a155be8" style="stroke:#000000;stroke-width:0.8;"/>
      </defs>
      <g>
       <use style="stroke:#000000;stroke-width:0.8;" x="57.6" xlink:href="#m1d8a155be8" y="303.143362"/>
      </g>
     </g>
     <g id="text_7">
      <!-- −30 -->
      <defs>
       <path d="M 10.59375 35.5 
L 73.1875 35.5 
L 73.1875 27.203125 
L 10.59375 27.203125 
z
" id="DejaVuSans-8722"/>
       <path d="M 40.578125 39.3125 
Q 47.65625 37.796875 51.625 33 
Q 55.609375 28.21875 55.609375 21.1875 
Q 55.609375 10.40625 48.1875 4.484375 
Q 40.765625 -1.421875 27.09375 -1.421875 
Q 22.515625 -1.421875 17.65625 -0.515625 
Q 12.796875 0.390625 7.625 2.203125 
L 7.625 11.71875 
Q 11.71875 9.328125 16.59375 8.109375 
Q 21.484375 6.890625 26.8125 6.890625 
Q 36.078125 6.890625 40.9375 10.546875 
Q 45.796875 14.203125 45.796875 21.1875 
Q 45.796875 27.640625 41.28125 31.265625 
Q 36.765625 34.90625 28.71875 34.90625 
L 20.21875 34.90625 
L 20.21875 43.015625 
L 29.109375 43.015625 
Q 36.375 43.015625 40.234375 45.921875 
Q 44.09375 48.828125 44.09375 54.296875 
Q 44.09375 59.90625 40.109375 62.90625 
Q 36.140625 65.921875 28.71875 65.921875 
Q 24.65625 65.921875 20.015625 65.03125 
Q 15.375 64.15625 9.8125 62.3125 
L 9.8125 71.09375 
Q 15.4375 72.65625 20.34375 73.4375 
Q 25.25 74.21875 29.59375 74.21875 
Q 40.828125 74.21875 47.359375 69.109375 
Q 53.90625 64.015625 53.90625 55.328125 
Q 53.90625 49.265625 50.4375 45.09375 
Q 46.96875 40.921875 40.578125 39.3125 
z
" id="DejaVuSans-51"/>
      </defs>
      <g transform="translate(29.495313 306.942581)scale(0.1 -0.1)">
       <use xlink:href="#DejaVuSans-8722"/>
       <use x="83.789062" xlink:href="#DejaVuSans-51"/>
       <use x="147.412109" xlink:href="#DejaVuSans-48"/>
      </g>
     </g>
    </g>
    <g id="ytick_2">
     <g id="line2d_8">
      <g>
       <use style="stroke:#000000;stroke-width:0.8;" x="57.6" xlink:href="#m1d8a155be8" y="271.922694"/>
      </g>
     </g>
     <g id="text_8">
      <!-- −20 -->
      <g transform="translate(29.495313 275.721912)scale(0.1 -0.1)">
       <use xlink:href="#DejaVuSans-8722"/>
       <use x="83.789062" xlink:href="#DejaVuSans-50"/>
       <use x="147.412109" xlink:href="#DejaVuSans-48"/>
      </g>
     </g>
    </g>
    <g id="ytick_3">
     <g id="line2d_9">
      <g>
       <use style="stroke:#000000;stroke-width:0.8;" x="57.6" xlink:href="#m1d8a155be8" y="240.702025"/>
      </g>
     </g>
     <g id="text_9">
      <!-- −10 -->
      <g transform="translate(29.495313 244.501244)scale(0.1 -0.1)">
       <use xlink:href="#DejaVuSans-8722"/>
       <use x="83.789062" xlink:href="#DejaVuSans-49"/>
       <use x="147.412109" xlink:href="#DejaVuSans-48"/>
      </g>
     </g>
    </g>
    <g id="ytick_4">
     <g id="line2d_10">
      <g>
       <use style="stroke:#000000;stroke-width:0.8;" x="57.6" xlink:href="#m1d8a155be8" y="209.481357"/>
      </g>
     </g>
     <g id="text_10">
      <!-- 0 -->
      <g transform="translate(44.2375 213.280575)scale(0.1 -0.1)">
       <use xlink:href="#DejaVuSans-48"/>
      </g>
     </g>
    </g>
    <g id="ytick_5">
     <g id="line2d_11">
      <g>
       <use style="stroke:#000000;stroke-width:0.8;" x="57.6" xlink:href="#m1d8a155be8" y="178.260688"/>
      </g>
     </g>
     <g id="text_11">
      <!-- 10 -->
      <g transform="translate(37.875 182.059907)scale(0.1 -0.1)">
       <use xlink:href="#DejaVuSans-49"/>
       <use x="63.623047" xlink:href="#DejaVuSans-48"/>
      </g>
     </g>
    </g>
    <g id="ytick_6">
     <g id="line2d_12">
      <g>
       <use style="stroke:#000000;stroke-width:0.8;" x="57.6" xlink:href="#m1d8a155be8" y="147.04002"/>
      </g>
     </g>
     <g id="text_12">
      <!-- 20 -->
      <g transform="translate(37.875 150.839238)scale(0.1 -0.1)">
       <use xlink:href="#DejaVuSans-50"/>
       <use x="63.623047" xlink:href="#DejaVuSans-48"/>
      </g>
     </g>
    </g>
    <g id="ytick_7">
     <g id="line2d_13">
      <g>
       <use style="stroke:#000000;stroke-width:0.8;" x="57.6" xlink:href="#m1d8a155be8" y="115.819351"/>
      </g>
     </g>
     <g id="text_13">
      <!-- 30 -->
      <g transform="translate(37.875 119.61857)scale(0.1 -0.1)">
       <use xlink:href="#DejaVuSans-51"/>
       <use x="63.623047" xlink:href="#DejaVuSans-48"/>
      </g>
     </g>
    </g>
    <g id="ytick_8">
     <g id="line2d_14">
      <g>
       <use style="stroke:#000000;stroke-width:0.8;" x="57.6" xlink:href="#m1d8a155be8" y="84.598683"/>
      </g>
     </g>
     <g id="text_14">
      <!-- 40 -->
      <g transform="translate(37.875 88.397901)scale(0.1 -0.1)">
       <use xlink:href="#DejaVuSans-52"/>
       <use x="63.623047" xlink:href="#DejaVuSans-48"/>
      </g>
     </g>
    </g>
    <g id="ytick_9">
     <g id="line2d_15">
      <g>
       <use style="stroke:#000000;stroke-width:0.8;" x="57.6" xlink:href="#m1d8a155be8" y="53.378014"/>
      </g>
     </g>
     <g id="text_15">
      <!-- 50 -->
      <defs>
       <path d="M 10.796875 72.90625 
L 49.515625 72.90625 
L 49.515625 64.59375 
L 19.828125 64.59375 
L 19.828125 46.734375 
Q 21.96875 47.46875 24.109375 47.828125 
Q 26.265625 48.1875 28.421875 48.1875 
Q 40.625 48.1875 47.75 41.5 
Q 54.890625 34.8125 54.890625 23.390625 
Q 54.890625 11.625 47.5625 5.09375 
Q 40.234375 -1.421875 26.90625 -1.421875 
Q 22.3125 -1.421875 17.546875 -0.640625 
Q 12.796875 0.140625 7.71875 1.703125 
L 7.71875 11.625 
Q 12.109375 9.234375 16.796875 8.0625 
Q 21.484375 6.890625 26.703125 6.890625 
Q 35.15625 6.890625 40.078125 11.328125 
Q 45.015625 15.765625 45.015625 23.390625 
Q 45.015625 31 40.078125 35.4375 
Q 35.15625 39.890625 26.703125 39.890625 
Q 22.75 39.890625 18.8125 39.015625 
Q 14.890625 38.140625 10.796875 36.28125 
z
" id="DejaVuSans-53"/>
      </defs>
      <g transform="translate(37.875 57.177233)scale(0.1 -0.1)">
       <use xlink:href="#DejaVuSans-53"/>
       <use x="63.623047" xlink:href="#DejaVuSans-48"/>
      </g>
     </g>
    </g>
   </g>
   <g id="line2d_16">
    <path clip-path="url(#p4c962ebd3b)" d="M 73.832727 209.481357 
L 73.832727 209.481357 
L 73.993659 206.357026 
L 74.289995 203.250775 
L 74.731634 200.156707 
L 75.286831 197.105966 
L 76.009321 194.075082 
L 76.86603 191.099715 
L 77.854196 188.169496 
L 78.988293 185.304218 
L 80.234519 182.487215 
L 81.602568 179.736199 
L 83.093689 177.06128 
L 84.707098 174.4655 
L 86.435543 171.957918 
L 88.292389 169.54993 
L 90.230209 167.237977 
L 92.294948 165.031519 
L 94.44662 162.924592 
L 96.673715 160.918133 
L 98.995506 159.044362 
L 101.384802 157.274961 
L 103.859202 155.63085 
L 106.413743 154.108935 
L 109.029004 152.695295 
L 111.729748 151.394017 
L 114.494089 150.209349 
L 117.300702 149.115283 
L 120.181901 148.115316 
L 123.124512 147.20055 
L 126.11514 146.385659 
L 129.127528 145.65725 
L 132.186467 145.024906 
L 135.311406 144.490877 
L 138.486735 144.046263 
L 141.711362 143.685352 
L 144.987004 143.414731 
L 148.305417 143.247701 
L 151.669351 143.166496 
L 155.079771 143.167807 
L 158.525753 143.244704 
L 162.007669 143.388163 
L 165.528517 143.582605 
L 169.064851 143.825533 
L 172.621042 144.10577 
L 176.195371 144.426968 
L 179.802919 144.796527 
L 183.463262 145.212574 
L 187.192227 145.675733 
L 190.993905 146.169269 
L 194.866923 146.693932 
L 198.790424 147.250659 
L 202.791259 147.83152 
L 206.853974 148.442914 
L 210.993803 149.076038 
L 215.204191 149.732703 
L 219.472463 150.404634 
L 223.80305 151.100449 
L 228.193988 151.806848 
L 232.65617 152.535039 
L 237.167838 153.266321 
L 241.750408 154.00778 
L 246.406877 154.755734 
L 251.125225 155.50247 
L 255.910729 156.25954 
L 260.750994 157.013301 
L 265.681612 157.779643 
L 270.66543 158.545362 
L 275.710128 159.323631 
L 280.803062 160.108081 
L 285.925905 160.888598 
L 291.101917 161.680479 
L 296.322076 162.461527 
L 301.586161 163.252658 
L 306.916216 164.043353 
L 312.283174 164.848815 
L 317.703832 165.654871 
L 323.174005 166.471416 
L 328.676304 167.287524 
L 334.222937 168.116152 
L 339.813372 168.956925 
L 345.46934 169.808906 
L 351.158027 170.678963 
L 356.899945 171.55258 
L 362.67427 172.449675 
L 368.506415 173.361069 
L 374.374652 174.303434 
L 380.275671 175.266591 
L 386.203945 176.262937 
L 392.143989 177.293125 
L 398.121186 178.366436 
" style="fill:none;stroke:#008000;stroke-linecap:square;stroke-width:1.5;"/>
   </g>
   <g id="line2d_17">
    <path clip-path="url(#p4c962ebd3b)" d="M 73.832727 209.481357 
L 73.832727 209.481357 
L 73.93003 206.354707 
L 74.242761 203.249495 
L 74.73468 200.16272 
L 75.388646 197.13243 
L 76.110473 194.101182 
L 76.942072 191.118061 
L 77.940328 188.1903 
L 79.001577 185.296816 
L 80.238562 182.475321 
L 81.591786 179.715182 
L 83.065428 177.028929 
L 84.684651 174.435055 
L 86.351849 171.887039 
L 88.193229 169.465888 
L 90.141884 167.163574 
L 92.172172 164.925035 
L 94.333592 162.828341 
L 96.627909 160.899406 
L 99.01422 159.111547 
L 101.36403 157.290816 
L 103.764678 155.539229 
L 106.330894 154.036276 
L 108.927354 152.588397 
L 111.563717 151.161458 
L 114.341852 150.007984 
L 117.152921 148.927265 
L 120.021433 147.890458 
L 122.951595 146.936053 
L 125.926721 146.067399 
L 128.924473 145.280913 
L 131.97244 144.597708 
L 135.093595 144.041501 
L 138.247679 143.464881 
L 141.458866 142.999529 
L 144.731063 142.696337 
L 148.044706 142.452412 
L 151.408479 142.375036 
L 154.817507 142.284092 
L 158.264311 142.280451 
L 161.748129 142.36548 
L 165.271545 142.503201 
L 168.811419 142.688124 
L 172.372626 142.895866 
L 175.948699 143.197689 
L 179.563504 143.489116 
L 183.231041 143.837138 
L 186.965707 144.252859 
L 190.780243 144.635907 
L 194.662351 145.089495 
L 198.595329 145.575384 
L 202.602528 146.111027 
L 206.673759 146.662941 
L 210.826491 147.205381 
L 215.045596 147.803778 
L 219.333238 148.33983 
L 223.67102 148.989958 
L 228.078852 149.583221 
L 232.555034 150.221508 
L 237.081303 150.857289 
L 241.676361 151.517728 
L 246.350081 152.14973 
L 251.084254 152.78821 
L 255.891161 153.39555 
L 260.748076 154.034047 
L 265.688916 154.731708 
L 270.686535 155.401591 
L 275.737279 156.13932 
L 280.845939 156.814298 
L 285.986951 157.463243 
L 291.181406 158.123667 
L 296.420372 158.765896 
L 301.699768 159.447552 
L 307.05116 160.078084 
L 312.440693 160.715776 
L 317.886274 161.331463 
L 323.361879 162.111044 
L 328.884742 162.774056 
L 334.4536 163.435124 
L 340.058269 164.174674 
L 345.728078 164.928976 
L 351.437646 165.64919 
L 357.185604 166.481903 
L 362.976961 167.261809 
L 368.822811 168.080932 
L 374.702487 168.949348 
L 380.627482 169.750689 
L 386.568733 170.6665 
L 392.50458 171.719991 
L 398.487273 172.762234 
" style="fill:none;stroke:#0000ff;stroke-linecap:square;stroke-width:1.5;"/>
   </g>
   <g id="line2d_18">
    <path clip-path="url(#p4c962ebd3b)" d="M 73.832727 209.481357 
L 73.832727 209.481357 
L 73.977008 206.355453 
L 74.305555 203.252068 
L 75.013241 200.206596 
L 75.648959 197.171056 
L 76.3616 194.136474 
L 77.159376 191.143168 
L 78.593957 188.405911 
L 79.901559 185.618893 
L 81.093725 182.777297 
L 82.39182 179.990281 
L 83.810563 177.274107 
L 85.341022 174.62672 
L 87.030154 172.092371 
L 88.815027 169.629657 
L 90.680176 167.258801 
L 92.679757 164.991133 
L 94.698691 162.758675 
L 96.726183 160.566932 
L 98.899445 158.541464 
L 101.140486 156.625656 
L 103.404084 154.781355 
L 105.827647 153.107021 
L 108.342036 151.531156 
L 110.981091 150.1507 
L 113.799647 149.128524 
L 116.578476 148.008643 
L 119.47477 147.056544 
L 122.399713 146.085786 
L 125.396629 145.292252 
L 128.442704 144.719117 
L 131.493508 144.048956 
L 134.648777 143.738392 
L 137.839897 143.466177 
L 141.054388 143.032271 
L 144.340756 143.058666 
L 147.662737 143.07968 
L 151.015561 143.325514 
L 154.425288 143.338041 
L 157.859881 143.58255 
L 161.335582 143.81217 
L 164.845353 144.107062 
L 168.361669 144.535389 
L 171.910565 144.844654 
L 175.487033 145.090306 
L 179.096978 145.338882 
L 182.760365 145.623029 
L 186.510461 145.611949 
L 190.337029 145.561981 
L 194.233521 145.581349 
L 198.185985 145.554731 
L 201.942945 144.146789 
L 206.042496 144.038024 
L 210.226928 143.936672 
L 210.226928 143.936672 
L 214.543186 143.758282 
L 218.903298 143.285279 
L 223.337941 143.155285 
L 227.849548 143.088324 
L 232.408819 143.003859 
L 237.039281 142.90809 
L 241.744599 142.824943 
L 246.510568 142.705426 
L 251.344628 142.607728 
L 256.231682 142.513519 
L 261.211849 142.429569 
L 266.242846 142.315822 
L 271.336588 142.200947 
L 276.478725 142.108717 
L 281.645464 141.932426 
L 281.645464 141.932426 
L 286.911654 141.783793 
L 292.215434 141.55224 
L 297.586017 141.31717 
L 303.002044 140.998711 
L 308.469664 140.640747 
L 313.992922 140.517459 
L 319.540118 140.416506 
L 325.122164 139.879293 
L 330.758407 139.807746 
L 336.462181 140.168056 
L 342.198207 139.862621 
L 347.986727 139.660085 
L 353.81446 139.60299 
L 359.702027 139.574643 
L 365.624631 139.712308 
L 371.590792 139.593169 
L 377.468549 140.850461 
L 383.477001 140.71087 
L 389.536353 140.590897 
" style="fill:none;stroke:#ff0000;stroke-linecap:square;stroke-width:1.5;"/>
   </g>
   <g id="patch_3">
    <path d="M 57.6 307.584 
L 57.6 41.472 
" style="fill:none;stroke:#000000;stroke-linecap:square;stroke-linejoin:miter;stroke-width:0.8;"/>
   </g>
   <g id="patch_4">
    <path d="M 414.72 307.584 
L 414.72 41.472 
" style="fill:none;stroke:#000000;stroke-linecap:square;stroke-linejoin:miter;stroke-width:0.8;"/>
   </g>
   <g id="patch_5">
    <path d="M 57.6 307.584 
L 414.72 307.584 
" style="fill:none;stroke:#000000;stroke-linecap:square;stroke-linejoin:miter;stroke-width:0.8;"/>
   </g>
   <g id="patch_6">
    <path d="M 57.6 41.472 
L 414.72 41.472 
" style="fill:none;stroke:#000000;stroke-linecap:square;stroke-linejoin:miter;stroke-width:0.8;"/>
   </g>
  </g>
 </g>
 <defs>
  <clipPath id="p4c962ebd3b">
   <rect height="266.112" width="357.12" x="57.6" y="41.472"/>
  </clipPath>
 </defs>
</svg>
