<?xml version="1.0" encoding="utf-8" standalone="no"?>
<!DOCTYPE svg PUBLIC "-//W3C//DTD SVG 1.1//EN"
  "http://www.w3.org/Graphics/SVG/1.1/DTD/svg11.dtd">
<!-- Created with matplotlib (https://matplotlib.org/) -->
<svg height="345.6pt" version="1.1" viewBox="0 0 460.8 345.6" width="460.8pt" xmlns="http://www.w3.org/2000/svg" xmlns:xlink="http://www.w3.org/1999/xlink">
 <defs>
  <style type="text/css">
*{stroke-linecap:butt;stroke-linejoin:round;}
  </style>
 </defs>
 <g id="figure_1">
  <g id="patch_1">
   <path d="M 0 345.6 
L 460.8 345.6 
L 460.8 0 
L 0 0 
z
" style="fill:#ffffff;"/>
  </g>
  <g id="axes_1">
   <g id="patch_2">
    <path d="M 57.6 307.584 
L 414.72 307.584 
L 414.72 41.472 
L 57.6 41.472 
z
" style="fill:#ffffff;"/>
   </g>
   <g id="matplotlib.axis_1">
    <g id="xtick_1">
     <g id="line2d_1">
      <defs>
       <path d="M 0 0 
L 0 3.5 
" id="me5e8892997" style="stroke:#000000;stroke-width:0.8;"/>
      </defs>
      <g>
       <use style="stroke:#000000;stroke-width:0.8;" x="72.291888" xlink:href="#me5e8892997" y="307.584"/>
      </g>
     </g>
     <g id="text_1">
      <!-- −400 -->
      <defs>
       <path d="M 10.59375 35.5 
L 73.1875 35.5 
L 73.1875 27.203125 
L 10.59375 27.203125 
z
" id="DejaVuSans-8722"/>
       <path d="M 37.796875 64.3125 
L 12.890625 25.390625 
L 37.796875 25.390625 
z
M 35.203125 72.90625 
L 47.609375 72.90625 
L 47.609375 25.390625 
L 58.015625 25.390625 
L 58.015625 17.1875 
L 47.609375 17.1875 
L 47.609375 0 
L 37.796875 0 
L 37.796875 17.1875 
L 4.890625 17.1875 
L 4.890625 26.703125 
z
" id="DejaVuSans-52"/>
       <path d="M 31.78125 66.40625 
Q 24.171875 66.40625 20.328125 58.90625 
Q 16.5 51.421875 16.5 36.375 
Q 16.5 21.390625 20.328125 13.890625 
Q 24.171875 6.390625 31.78125 6.390625 
Q 39.453125 6.390625 43.28125 13.890625 
Q 47.125 21.390625 47.125 36.375 
Q 47.125 51.421875 43.28125 58.90625 
Q 39.453125 66.40625 31.78125 66.40625 
z
M 31.78125 74.21875 
Q 44.046875 74.21875 50.515625 64.515625 
Q 56.984375 54.828125 56.984375 36.375 
Q 56.984375 17.96875 50.515625 8.265625 
Q 44.046875 -1.421875 31.78125 -1.421875 
Q 19.53125 -1.421875 13.0625 8.265625 
Q 6.59375 17.96875 6.59375 36.375 
Q 6.59375 54.828125 13.0625 64.515625 
Q 19.53125 74.21875 31.78125 74.21875 
z
" id="DejaVuSans-48"/>
      </defs>
      <g transform="translate(58.558294 322.182437)scale(0.1 -0.1)">
       <use xlink:href="#DejaVuSans-8722"/>
       <use x="83.789062" xlink:href="#DejaVuSans-52"/>
       <use x="147.412109" xlink:href="#DejaVuSans-48"/>
       <use x="211.035156" xlink:href="#DejaVuSans-48"/>
      </g>
     </g>
    </g>
    <g id="xtick_2">
     <g id="line2d_2">
      <g>
       <use style="stroke:#000000;stroke-width:0.8;" x="123.123516" xlink:href="#me5e8892997" y="307.584"/>
      </g>
     </g>
     <g id="text_2">
      <!-- −200 -->
      <defs>
       <path d="M 19.1875 8.296875 
L 53.609375 8.296875 
L 53.609375 0 
L 7.328125 0 
L 7.328125 8.296875 
Q 12.9375 14.109375 22.625 23.890625 
Q 32.328125 33.6875 34.8125 36.53125 
Q 39.546875 41.84375 41.421875 45.53125 
Q 43.3125 49.21875 43.3125 52.78125 
Q 43.3125 58.59375 39.234375 62.25 
Q 35.15625 65.921875 28.609375 65.921875 
Q 23.96875 65.921875 18.8125 64.3125 
Q 13.671875 62.703125 7.8125 59.421875 
L 7.8125 69.390625 
Q 13.765625 71.78125 18.9375 73 
Q 24.125 74.21875 28.421875 74.21875 
Q 39.75 74.21875 46.484375 68.546875 
Q 53.21875 62.890625 53.21875 53.421875 
Q 53.21875 48.921875 51.53125 44.890625 
Q 49.859375 40.875 45.40625 35.40625 
Q 44.1875 33.984375 37.640625 27.21875 
Q 31.109375 20.453125 19.1875 8.296875 
z
" id="DejaVuSans-50"/>
      </defs>
      <g transform="translate(109.389922 322.182437)scale(0.1 -0.1)">
       <use xlink:href="#DejaVuSans-8722"/>
       <use x="83.789062" xlink:href="#DejaVuSans-50"/>
       <use x="147.412109" xlink:href="#DejaVuSans-48"/>
       <use x="211.035156" xlink:href="#DejaVuSans-48"/>
      </g>
     </g>
    </g>
    <g id="xtick_3">
     <g id="line2d_3">
      <g>
       <use style="stroke:#000000;stroke-width:0.8;" x="173.955143" xlink:href="#me5e8892997" y="307.584"/>
      </g>
     </g>
     <g id="text_3">
      <!-- 0 -->
      <g transform="translate(170.773893 322.182437)scale(0.1 -0.1)">
       <use xlink:href="#DejaVuSans-48"/>
      </g>
     </g>
    </g>
    <g id="xtick_4">
     <g id="line2d_4">
      <g>
       <use style="stroke:#000000;stroke-width:0.8;" x="224.78677" xlink:href="#me5e8892997" y="307.584"/>
      </g>
     </g>
     <g id="text_4">
      <!-- 200 -->
      <g transform="translate(215.24302 322.182437)scale(0.1 -0.1)">
       <use xlink:href="#DejaVuSans-50"/>
       <use x="63.623047" xlink:href="#DejaVuSans-48"/>
       <use x="127.246094" xlink:href="#DejaVuSans-48"/>
      </g>
     </g>
    </g>
    <g id="xtick_5">
     <g id="line2d_5">
      <g>
       <use style="stroke:#000000;stroke-width:0.8;" x="275.618398" xlink:href="#me5e8892997" y="307.584"/>
      </g>
     </g>
     <g id="text_5">
      <!-- 400 -->
      <g transform="translate(266.074648 322.182437)scale(0.1 -0.1)">
       <use xlink:href="#DejaVuSans-52"/>
       <use x="63.623047" xlink:href="#DejaVuSans-48"/>
       <use x="127.246094" xlink:href="#DejaVuSans-48"/>
      </g>
     </g>
    </g>
    <g id="xtick_6">
     <g id="line2d_6">
      <g>
       <use style="stroke:#000000;stroke-width:0.8;" x="326.450025" xlink:href="#me5e8892997" y="307.584"/>
      </g>
     </g>
     <g id="text_6">
      <!-- 600 -->
      <defs>
       <path d="M 33.015625 40.375 
Q 26.375 40.375 22.484375 35.828125 
Q 18.609375 31.296875 18.609375 23.390625 
Q 18.609375 15.53125 22.484375 10.953125 
Q 26.375 6.390625 33.015625 6.390625 
Q 39.65625 6.390625 43.53125 10.953125 
Q 47.40625 15.53125 47.40625 23.390625 
Q 47.40625 31.296875 43.53125 35.828125 
Q 39.65625 40.375 33.015625 40.375 
z
M 52.59375 71.296875 
L 52.59375 62.3125 
Q 48.875 64.0625 45.09375 64.984375 
Q 41.3125 65.921875 37.59375 65.921875 
Q 27.828125 65.921875 22.671875 59.328125 
Q 17.53125 52.734375 16.796875 39.40625 
Q 19.671875 43.65625 24.015625 45.921875 
Q 28.375 48.1875 33.59375 48.1875 
Q 44.578125 48.1875 50.953125 41.515625 
Q 57.328125 34.859375 57.328125 23.390625 
Q 57.328125 12.15625 50.6875 5.359375 
Q 44.046875 -1.421875 33.015625 -1.421875 
Q 20.359375 -1.421875 13.671875 8.265625 
Q 6.984375 17.96875 6.984375 36.375 
Q 6.984375 53.65625 15.1875 63.9375 
Q 23.390625 74.21875 37.203125 74.21875 
Q 40.921875 74.21875 44.703125 73.484375 
Q 48.484375 72.75 52.59375 71.296875 
z
" id="DejaVuSans-54"/>
      </defs>
      <g transform="translate(316.906275 322.182437)scale(0.1 -0.1)">
       <use xlink:href="#DejaVuSans-54"/>
       <use x="63.623047" xlink:href="#DejaVuSans-48"/>
       <use x="127.246094" xlink:href="#DejaVuSans-48"/>
      </g>
     </g>
    </g>
    <g id="xtick_7">
     <g id="line2d_7">
      <g>
       <use style="stroke:#000000;stroke-width:0.8;" x="377.281653" xlink:href="#me5e8892997" y="307.584"/>
      </g>
     </g>
     <g id="text_7">
      <!-- 800 -->
      <defs>
       <path d="M 31.78125 34.625 
Q 24.75 34.625 20.71875 30.859375 
Q 16.703125 27.09375 16.703125 20.515625 
Q 16.703125 13.921875 20.71875 10.15625 
Q 24.75 6.390625 31.78125 6.390625 
Q 38.8125 6.390625 42.859375 10.171875 
Q 46.921875 13.96875 46.921875 20.515625 
Q 46.921875 27.09375 42.890625 30.859375 
Q 38.875 34.625 31.78125 34.625 
z
M 21.921875 38.8125 
Q 15.578125 40.375 12.03125 44.71875 
Q 8.5 49.078125 8.5 55.328125 
Q 8.5 64.0625 14.71875 69.140625 
Q 20.953125 74.21875 31.78125 74.21875 
Q 42.671875 74.21875 48.875 69.140625 
Q 55.078125 64.0625 55.078125 55.328125 
Q 55.078125 49.078125 51.53125 44.71875 
Q 48 40.375 41.703125 38.8125 
Q 48.828125 37.15625 52.796875 32.3125 
Q 56.78125 27.484375 56.78125 20.515625 
Q 56.78125 9.90625 50.3125 4.234375 
Q 43.84375 -1.421875 31.78125 -1.421875 
Q 19.734375 -1.421875 13.25 4.234375 
Q 6.78125 9.90625 6.78125 20.515625 
Q 6.78125 27.484375 10.78125 32.3125 
Q 14.796875 37.15625 21.921875 38.8125 
z
M 18.3125 54.390625 
Q 18.3125 48.734375 21.84375 45.5625 
Q 25.390625 42.390625 31.78125 42.390625 
Q 38.140625 42.390625 41.71875 45.5625 
Q 45.3125 48.734375 45.3125 54.390625 
Q 45.3125 60.0625 41.71875 63.234375 
Q 38.140625 66.40625 31.78125 66.40625 
Q 25.390625 66.40625 21.84375 63.234375 
Q 18.3125 60.0625 18.3125 54.390625 
z
" id="DejaVuSans-56"/>
      </defs>
      <g transform="translate(367.737903 322.182437)scale(0.1 -0.1)">
       <use xlink:href="#DejaVuSans-56"/>
       <use x="63.623047" xlink:href="#DejaVuSans-48"/>
       <use x="127.246094" xlink:href="#DejaVuSans-48"/>
      </g>
     </g>
    </g>
   </g>
   <g id="matplotlib.axis_2">
    <g id="ytick_1">
     <g id="line2d_8">
      <defs>
       <path d="M 0 0 
L -3.5 0 
" id="m35cf706e7c" style="stroke:#000000;stroke-width:0.8;"/>
      </defs>
      <g>
       <use style="stroke:#000000;stroke-width:0.8;" x="57.6" xlink:href="#m35cf706e7c" y="289.016973"/>
      </g>
     </g>
     <g id="text_8">
      <!-- 0 -->
      <g transform="translate(44.2375 292.816192)scale(0.1 -0.1)">
       <use xlink:href="#DejaVuSans-48"/>
      </g>
     </g>
    </g>
    <g id="ytick_2">
     <g id="line2d_9">
      <g>
       <use style="stroke:#000000;stroke-width:0.8;" x="57.6" xlink:href="#m35cf706e7c" y="238.185346"/>
      </g>
     </g>
     <g id="text_9">
      <!-- 200 -->
      <g transform="translate(31.5125 241.984564)scale(0.1 -0.1)">
       <use xlink:href="#DejaVuSans-50"/>
       <use x="63.623047" xlink:href="#DejaVuSans-48"/>
       <use x="127.246094" xlink:href="#DejaVuSans-48"/>
      </g>
     </g>
    </g>
    <g id="ytick_3">
     <g id="line2d_10">
      <g>
       <use style="stroke:#000000;stroke-width:0.8;" x="57.6" xlink:href="#m35cf706e7c" y="187.353718"/>
      </g>
     </g>
     <g id="text_10">
      <!-- 400 -->
      <g transform="translate(31.5125 191.152937)scale(0.1 -0.1)">
       <use xlink:href="#DejaVuSans-52"/>
       <use x="63.623047" xlink:href="#DejaVuSans-48"/>
       <use x="127.246094" xlink:href="#DejaVuSans-48"/>
      </g>
     </g>
    </g>
    <g id="ytick_4">
     <g id="line2d_11">
      <g>
       <use style="stroke:#000000;stroke-width:0.8;" x="57.6" xlink:href="#m35cf706e7c" y="136.522091"/>
      </g>
     </g>
     <g id="text_11">
      <!-- 600 -->
      <g transform="translate(31.5125 140.32131)scale(0.1 -0.1)">
       <use xlink:href="#DejaVuSans-54"/>
       <use x="63.623047" xlink:href="#DejaVuSans-48"/>
       <use x="127.246094" xlink:href="#DejaVuSans-48"/>
      </g>
     </g>
    </g>
    <g id="ytick_5">
     <g id="line2d_12">
      <g>
       <use style="stroke:#000000;stroke-width:0.8;" x="57.6" xlink:href="#m35cf706e7c" y="85.690463"/>
      </g>
     </g>
     <g id="text_12">
      <!-- 800 -->
      <g transform="translate(31.5125 89.489682)scale(0.1 -0.1)">
       <use xlink:href="#DejaVuSans-56"/>
       <use x="63.623047" xlink:href="#DejaVuSans-48"/>
       <use x="127.246094" xlink:href="#DejaVuSans-48"/>
      </g>
     </g>
    </g>
   </g>
   <g id="line2d_13">
    <path clip-path="url(#pe8c89cce37)" d="M 173.955143 289.016973 
L 173.871604 282.57127 
L 173.812799 274.96683 
L 173.991085 273.292617 
L 174.392155 271.770763 
L 175.013907 270.429827 
L 175.69688 269.461569 
L 176.524522 268.663586 
L 177.683862 267.895726 
L 178.785025 267.445632 
L 179.979736 267.220943 
L 181.462751 267.194948 
L 184.508587 267.454167 
L 190.450766 268.183189 
L 197.198601 269.011663 
L 204.385014 269.944248 
L 206.457597 270.55191 
L 208.420079 271.374686 
L 210.300621 272.432157 
L 211.827755 273.550727 
L 213.241205 274.863215 
L 214.502338 276.388522 
L 215.376057 277.775799 
L 216.234019 279.546412 
L 217.154275 282.006722 
L 218.907432 287.214894 
L 219.875368 289.263983 
L 220.862747 290.89385 
L 222.02064 292.355501 
L 223.125796 293.38766 
L 224.332869 294.254093 
L 225.663184 294.914251 
L 226.795789 295.272931 
L 228.251124 295.478815 
L 229.721683 295.421634 
L 231.182075 295.134207 
L 232.601498 294.623372 
L 233.939615 293.895341 
L 235.18532 292.977964 
L 236.560341 291.690369 
L 237.789196 290.224436 
L 239.066035 288.319902 
L 241.079908 284.804942 
L 245.723072 276.01659 
L 249.341115 268.964578 
L 250.231406 267.746868 
L 251.252232 266.683147 
L 252.399756 265.826309 
L 253.6463 265.201255 
L 254.963246 264.813212 
L 256.330998 264.652782 
L 257.685127 264.738858 
L 259.036155 265.082416 
L 260.23568 265.635622 
L 261.335931 266.392728 
L 262.12072 267.16895 
L 262.77411 268.094294 
L 263.279122 269.089087 
L 263.762887 270.655596 
L 264.308488 273.653341 
L 264.885198 277.595377 
L 265.265724 278.535773 
L 265.853439 279.280883 
L 266.618175 279.790038 
L 267.403905 280.025353 
L 268.516025 280.107029 
L 269.69603 279.966119 
L 270.865488 279.628449 
L 271.987063 279.110668 
L 273.00095 278.398065 
L 273.86003 277.496815 
L 274.841233 276.07312 
L 275.597684 274.545967 
L 276.029626 273.149869 
L 276.211933 271.924768 
L 276.230512 270.106622 
L 275.91556 264.252091 
L 275.399492 259.477009 
L 274.552077 254.173973 
L 273.830243 249.276244 
L 272.795921 240.808888 
L 272.614782 237.276039 
L 272.666758 233.725271 
L 272.918324 230.478579 
L 273.41932 226.878962 
L 274.213971 222.900269 
L 275.115597 220.002306 
L 277.017132 215.132941 
L 281.11317 205.456708 
L 282.752973 202.554552 
L 290.593726 189.881845 
L 293.407358 185.802352 
L 296.659718 181.414693 
L 299.957852 177.073239 
L 300.2114 176.272819 
L 300.191169 175.252018 
L 299.971348 174.47742 
L 299.522327 173.543668 
L 292.041588 160.051733 
L 289.714872 156.144382 
L 289.324994 155.880871 
L 288.284292 155.655509 
L 287.211491 155.885878 
L 286.056723 156.442586 
L 284.387082 157.557832 
L 283.011146 158.721876 
L 281.823618 160.01178 
L 280.725172 161.559018 
L 279.681268 163.447413 
L 278.258034 166.672985 
L 276.843643 170.502996 
L 274.920581 175.690593 
L 272.467269 181.303041 
L 270.237896 185.602711 
L 268.320577 188.888798 
L 265.469431 193.227837 
L 261.275009 198.81192 
L 260.402509 199.699924 
L 259.693281 200.142616 
L 259.030386 200.318163 
L 258.450626 200.307819 
L 257.626823 200.019096 
L 256.96558 199.595566 
L 254.22268 197.574043 
L 253.075156 197.076706 
L 251.829806 196.756696 
L 250.507981 196.620899 
L 248.667444 196.676763 
L 241.669708 197.129165 
L 239.845869 196.906751 
L 238.268818 196.524192 
L 236.719368 195.929132 
L 235.228425 195.103422 
L 234.046311 194.22007 
L 232.808916 193.027052 
L 231.726381 191.680141 
L 230.853652 190.181141 
L 230.279204 188.775062 
L 229.828429 186.993566 
L 229.63011 185.335184 
L 229.616461 183.618803 
L 229.864748 181.007938 
L 230.549603 176.884323 
L 232.538416 166.62256 
L 234.508065 157.438225 
L 235.500731 152.429072 
L 236.517897 147.364717 
L 237.423437 143.92278 
L 238.485691 140.939573 
L 240.153222 136.21612 
L 240.985107 134.038467 
L 241.826193 132.451224 
L 242.885397 130.960637 
L 244.131204 129.59901 
L 245.528692 128.429095 
L 247.097229 127.452645 
L 249.08716 126.493757 
L 252.661539 125.079545 
L 257.658593 123.118003 
L 260.803495 121.529692 
L 266.581882 118.308187 
L 266.811615 117.828133 
L 266.917345 117.007202 
L 266.64382 115.725889 
L 266.18725 114.656239 
L 263.764615 110.37347 
L 254.477778 93.845819 
L 252.26706 90.066335 
L 250.667719 87.801582 
L 248.858291 85.671102 
L 246.424142 83.121895 
L 244.305836 81.264228 
L 242.099209 79.637997 
L 238.834294 77.566404 
L 236.959725 76.550128 
L 234.178981 75.245762 
L 230.738112 73.627944 
L 230.164757 73.528162 
L 229.126165 73.729963 
L 228.59993 74.031801 
L 227.834025 74.903208 
L 227.261381 76.040668 
L 226.679232 77.836625 
L 224.671256 85.418214 
L 222.72443 92.375921 
L 220.990487 97.917814 
L 220.024864 102.123801 
L 219.033164 107.424677 
L 218.001104 114.042879 
L 214.922766 134.609942 
L 213.475107 143.569449 
L 211.249317 159.076147 
L 208.451163 180.66579 
L 208.191261 185.562884 
L 208.193345 190.515868 
L 208.429356 195.277165 
L 208.708396 197.293503 
L 209.200294 199.183449 
L 209.94485 201.223424 
L 210.766315 202.887423 
L 211.68901 204.226074 
L 212.673365 205.294123 
L 213.82648 206.22396 
L 215.141164 206.97543 
L 216.607199 207.501664 
L 218.456606 207.901277 
L 228.058777 209.639948 
L 230.31931 210.380158 
L 232.121114 211.210874 
L 233.752631 212.207149 
L 235.352963 213.443552 
L 236.588909 214.654336 
L 237.401833 215.771208 
L 237.763653 216.698784 
L 237.826023 217.530085 
L 237.639395 218.236161 
L 237.205598 218.934766 
L 236.535408 219.579413 
L 232.569525 222.831621 
L 230.58028 224.900976 
L 228.310114 227.633583 
L 226.601866 229.785159 
L 225.790568 230.377144 
L 225.020291 230.654787 
L 224.189321 230.700713 
L 223.361884 230.497132 
L 222.406173 229.958647 
L 220.419114 228.745983 
L 218.858303 228.010271 
L 217.061278 227.419811 
L 214.625172 226.821904 
L 210.708545 226.084133 
L 204.765921 224.972064 
L 202.769356 224.356925 
L 201.323654 223.687244 
L 199.739816 222.68581 
L 198.298666 221.469358 
L 196.972868 220.050596 
L 195.810354 218.428356 
L 194.820171 216.623985 
L 194.129039 214.961537 
L 193.40017 212.619418 
L 192.964919 210.511151 
L 192.704793 208.043504 
L 192.70615 205.875306 
L 192.819746 203.106456 
L 192.966202 198.183387 
L 192.904091 195.152043 
L 192.593332 191.189285 
L 192.048142 187.287322 
L 190.916536 181.634692 
L 190.025455 176.531501 
L 189.74395 173.173436 
L 189.630473 168.622404 
L 189.780729 162.503673 
L 190.016407 156.414577 
L 190.362932 149.673261 
L 190.640559 144.040938 
L 190.936096 137.533549 
L 191.227148 131.190091 
L 191.680635 126.804338 
L 192.462031 119.860229 
L 192.920484 116.030269 
L 193.895618 110.279661 
L 195.3586 102.183859 
L 196.336027 97.830714 
L 197.555711 93.23312 
L 199.205126 87.844866 
L 200.628607 83.797168 
L 202.572307 78.807154 
L 203.919218 75.76882 
L 205.027144 73.884618 
L 208.319484 69.585381 
L 211.393501 66.319321 
L 213.00222 65.498517 
L 213.578041 65.491401 
L 214.233642 65.641964 
L 215.093205 65.995956 
L 217.873542 67.469234 
L 225.981771 71.612241 
L 226.626393 71.68 
L 227.557501 71.482188 
L 228.416962 70.924438 
L 228.91102 70.392536 
L 229.684804 69.190139 
L 230.418711 67.505121 
L 232.173775 62.954318 
L 233.429774 59.686403 
L 234.118771 58.468452 
L 234.959755 57.407774 
L 235.782033 56.661819 
L 236.715276 56.054559 
L 237.741338 55.605004 
L 238.851958 55.300548 
L 240.545795 55.167903 
L 243.51914 55.246692 
L 245.837012 55.517675 
L 248.793582 56.080992 
L 251.137403 56.713744 
L 256.007556 58.353089 
L 264.770903 61.56453 
L 283.560281 69.105479 
L 286.813861 70.741699 
L 291.119681 72.932161 
L 300.417268 77.133573 
L 307.472851 80.201542 
L 312.467185 82.422223 
L 313.647927 83.316758 
L 314.557204 84.497043 
L 314.954173 85.309765 
L 315.444063 87.202659 
L 317.860065 98.40961 
L 320.803496 112.135879 
L 321.445804 116.768776 
L 321.875636 121.426123 
L 322.094975 126.988933 
L 322.250138 132.652848 
L 322.742341 143.793058 
L 323.209128 146.305233 
L 325.737086 158.676153 
L 325.889962 160.075421 
L 325.705469 161.226249 
L 325.374403 161.990528 
L 324.829081 162.715184 
L 324.069987 163.327502 
L 322.93728 163.900272 
L 318.592777 165.820666 
L 310.970778 169.73859 
L 305.547069 172.711834 
L 302.873884 174.203565 
L 302.092628 174.377078 
L 301.443686 174.388338 
L 300.515119 174.139085 
L 299.917136 173.798208 
L 299.142208 172.986198 
L 298.310272 171.462266 
L 295.943907 166.995766 
L 290.847452 157.967585 
L 270.325707 121.887318 
L 270.325707 121.887318 
" style="fill:none;stroke:#008000;stroke-linecap:square;stroke-width:1.5;"/>
   </g>
   <g id="line2d_14">
    <path clip-path="url(#pe8c89cce37)" d="M 173.955143 289.016973 
L 173.824799 281.478465 
L 173.779853 275.853625 
L 173.951664 273.562784 
L 174.314252 272.012728 
L 174.776365 270.852881 
L 175.405608 269.827319 
L 176.336707 268.797544 
L 177.055935 268.231334 
L 178.08903 267.667035 
L 179.235782 267.309055 
L 180.449955 267.173519 
L 182.197096 267.239069 
L 188.219505 267.85216 
L 201.277097 269.319288 
L 203.772236 269.66926 
L 205.87693 270.185091 
L 207.875051 270.931457 
L 209.785669 271.896789 
L 211.350101 272.934363 
L 212.813029 274.169531 
L 213.922777 275.365968 
L 215.046686 276.989973 
L 215.955351 278.732104 
L 216.807923 280.863405 
L 219.56338 288.123725 
L 220.66281 290.08364 
L 221.572995 291.359273 
L 222.604308 292.490282 
L 223.76641 293.442226 
L 225.031736 294.216215 
L 226.604607 294.975593 
L 228.067304 295.191609 
L 229.535794 295.145542 
L 230.990119 294.865135 
L 232.40592 294.359987 
L 233.737067 293.630652 
L 235.200855 292.490899 
L 236.530462 291.155532 
L 237.701344 289.642129 
L 238.910374 287.692348 
L 240.8201 284.117364 
L 246.510734 272.501756 
L 248.080719 269.123734 
L 249.013847 267.556078 
L 250.123896 266.147595 
L 251.202689 265.174745 
L 252.394687 264.426772 
L 253.672308 263.910569 
L 255.0122 263.618497 
L 256.381274 263.57617 
L 257.74576 263.783722 
L 259.010886 264.22511 
L 260.154818 264.885741 
L 260.987392 265.581427 
L 261.892932 266.657541 
L 262.572266 267.874786 
L 263.02089 269.159503 
L 263.560308 271.595136 
L 264.608227 276.90203 
L 265.010633 277.570875 
L 265.547286 278.09921 
L 266.363875 278.539086 
L 267.404737 278.747775 
L 268.551784 278.71443 
L 269.726445 278.466996 
L 270.877521 278.0336 
L 271.957222 277.430271 
L 272.913145 276.622008 
L 273.700643 275.659294 
L 274.604201 274.195538 
L 275.186329 272.854568 
L 275.570957 271.439301 
L 275.723292 269.944832 
L 275.645861 267.818668 
L 275.275818 263.421418 
L 274.734198 258.976814 
L 273.426817 251.213323 
L 271.931167 241.304129 
L 271.567313 237.466647 
L 271.465351 233.921991 
L 271.609896 229.706985 
L 272.006832 226.103553 
L 272.530503 223.126237 
L 273.273933 220.147849 
L 274.373051 216.672314 
L 277.034478 209.600037 
L 279.016751 204.752664 
L 280.378882 202.123217 
L 283.442864 196.98822 
L 291.670822 183.84498 
L 294.810792 179.437558 
L 298.036817 174.833158 
L 298.160421 174.011032 
L 298.042667 173.094668 
L 297.684125 172.160788 
L 295.432101 168.14683 
L 287.501911 154.508928 
L 286.911192 154.103429 
L 286.278174 153.923959 
L 285.540226 153.939272 
L 284.755772 154.184372 
L 283.597154 154.801069 
L 281.943987 155.948 
L 280.595399 157.143218 
L 279.310801 158.596249 
L 278.342336 159.998518 
L 277.213757 162.086443 
L 276.026656 164.741318 
L 274.802919 168.038858 
L 272.600346 173.951475 
L 270.031315 179.76992 
L 267.663406 184.299166 
L 265.857486 187.372555 
L 262.718605 192.119354 
L 259.763817 196.137631 
L 258.560703 197.591267 
L 257.77273 198.247212 
L 257.153804 198.538779 
L 256.45794 198.644954 
L 255.744186 198.526829 
L 254.938308 198.104326 
L 253.576411 197.033023 
L 252.264977 196.134175 
L 251.138096 195.605861 
L 249.912848 195.255062 
L 248.385777 195.068208 
L 246.792759 195.09837 
L 243.014645 195.493781 
L 240.480341 195.703635 
L 238.648425 195.645983 
L 236.597798 195.321717 
L 234.807731 194.757434 
L 233.283149 194.017057 
L 231.866009 193.036975 
L 230.597869 191.874949 
L 229.483108 190.552672 
L 228.692466 189.294969 
L 227.954693 187.694308 
L 227.510182 186.199631 
L 227.212852 184.299767 
L 227.162202 182.300556 
L 227.360341 179.983129 
L 227.910594 176.153101 
L 229.980419 163.998311 
L 233.582845 145.104473 
L 234.355832 142.215558 
L 236.241957 136.724249 
L 238.128289 131.608176 
L 239.073112 130.060628 
L 240.049625 128.819167 
L 241.344964 127.515602 
L 242.574766 126.554866 
L 244.420238 125.470474 
L 246.473893 124.523507 
L 250.629832 122.836979 
L 253.660248 121.58102 
L 257.964317 119.371453 
L 261.985004 117.23361 
L 262.834078 116.692498 
L 263.189313 116.167973 
L 263.360269 115.418243 
L 263.282971 114.656322 
L 262.908457 113.479177 
L 262.25412 112.20894 
L 257.002149 103.274394 
L 247.853363 87.846225 
L 246.391696 85.900036 
L 244.528081 83.8184 
L 242.54127 81.821636 
L 240.414039 79.970721 
L 238.46595 78.539795 
L 235.962344 76.948865 
L 232.744595 75.125984 
L 226.872336 72.181972 
L 226.006263 72.020524 
L 225.253562 72.103648 
L 224.551921 72.42214 
L 223.951953 72.961265 
L 223.473013 73.662323 
L 223.017649 74.686713 
L 222.401988 76.749523 
L 219.876545 86.473752 
L 218.70862 90.586349 
L 216.974573 96.116814 
L 216.157107 99.668521 
L 215.049005 105.623262 
L 213.828238 113.858789 
L 212.00474 127.009829 
L 209.237748 146.913138 
L 205.12405 178.014934 
L 204.825025 183.568309 
L 204.823952 188.276407 
L 205.009628 192.869949 
L 205.324768 195.710139 
L 205.804857 197.605227 
L 206.623046 199.880502 
L 207.447444 201.543494 
L 208.373967 202.879503 
L 209.369266 203.936774 
L 210.521291 204.867854 
L 211.838765 205.61442 
L 213.308817 206.129067 
L 215.435563 206.565032 
L 224.790168 208.162559 
L 227.059871 208.886159 
L 228.870731 209.705166 
L 230.727448 210.842776 
L 232.301198 212.066594 
L 233.489913 213.270231 
L 234.181087 214.237966 
L 234.516227 215.03103 
L 234.622861 215.857426 
L 234.492697 216.565873 
L 234.115938 217.272043 
L 233.500613 217.929001 
L 231.792814 219.266274 
L 229.831854 220.966047 
L 228.053552 222.779928 
L 226.021194 225.164735 
L 223.018472 228.766823 
L 222.29027 229.128371 
L 221.47805 229.276586 
L 220.644156 229.180574 
L 219.821605 228.843296 
L 216.22116 226.883562 
L 214.732214 226.362349 
L 212.326326 225.738812 
L 208.409247 225.012545 
L 201.360962 223.774213 
L 199.36515 223.156979 
L 197.681491 222.356261 
L 196.117043 221.328354 
L 194.676579 220.078732 
L 193.368744 218.629902 
L 192.224847 216.971474 
L 191.245686 215.1408 
L 190.464766 213.169906 
L 189.856228 211.111147 
L 189.396315 208.685775 
L 189.175905 206.209736 
L 189.078259 202.202235 
L 188.955621 193.323366 
L 188.625825 189.980374 
L 188.230968 187.282459 
L 187.439507 183.426277 
L 186.001166 176.587063 
L 185.646039 173.831948 
L 185.410754 169.88899 
L 185.330544 165.333072 
L 185.3733 161.021069 
L 185.441419 157.824557 
L 185.844863 148.493719 
L 186.012614 143.176007 
L 186.211859 136.97428 
L 186.45919 129.730497 
L 186.999285 124.515834 
L 187.414555 119.796059 
L 187.795899 114.85134 
L 189.023278 106.277568 
L 189.789482 101.546945 
L 190.725599 97.181315 
L 191.872768 92.563263 
L 193.385865 87.450228 
L 195.355675 81.658516 
L 197.120818 76.990709 
L 198.476761 73.97309 
L 199.717449 71.882861 
L 201.632965 69.333671 
L 203.548732 67.104536 
L 205.795535 64.753979 
L 206.499593 64.379148 
L 207.220555 64.245784 
L 207.962891 64.317932 
L 208.802898 64.592773 
L 210.926827 65.689133 
L 219.722969 70.141411 
L 220.525413 70.25803 
L 221.316746 70.151703 
L 222.056233 69.801807 
L 222.712732 69.207743 
L 223.387645 68.252016 
L 224.054999 66.888959 
L 225.865117 62.192255 
L 227.346298 58.18784 
L 228.022806 56.966413 
L 228.854815 55.902135 
L 229.838532 55.002191 
L 230.97764 54.300515 
L 232.240916 53.833183 
L 233.640114 53.61364 
L 235.421401 53.577618 
L 238.793066 53.86416 
L 241.735616 54.333804 
L 244.684484 55.017461 
L 247.562784 55.899678 
L 254.327193 58.212813 
L 258.639673 59.803161 
L 279.431781 68.088523 
L 286.689815 71.646113 
L 306.763838 80.512741 
L 307.584928 81.176941 
L 308.396388 82.15888 
L 308.911396 83.166711 
L 309.316478 84.560987 
L 310.27878 89.135739 
L 312.412784 98.492656 
L 314.396881 107.086773 
L 315.119744 111.305897 
L 315.795447 116.646409 
L 316.119672 120.9211 
L 317.063911 141.344389 
L 317.534225 143.856658 
L 319.522356 153.427513 
L 320.30448 158.265232 
L 320.046048 159.391368 
L 319.636115 160.147797 
L 318.864153 160.952554 
L 317.996845 161.489807 
L 316.146636 162.294219 
L 313.339749 163.586347 
L 308.635719 166.047289 
L 302.111695 169.603871 
L 299.106847 171.396677 
L 297.677416 172.17375 
L 296.905356 172.389434 
L 296.104253 172.437271 
L 295.319337 172.264003 
L 294.572672 171.856448 
L 293.911637 171.198063 
L 293.250507 170.14759 
L 289.888738 164.002658 
L 280.049383 146.829969 
L 276.526062 140.682978 
L 267.730064 125.231027 
L 264.765436 120.034615 
L 264.765436 120.034615 
" style="fill:none;stroke:#0000ff;stroke-linecap:square;stroke-width:1.5;"/>
   </g>
   <g id="line2d_15">
    <path clip-path="url(#pe8c89cce37)" d="M 173.955143 289.016973 
L 173.91988 281.841886 
L 173.895434 274.679756 
L 174.140415 272.496703 
L 174.526948 271.024956 
L 175.012383 269.916612 
L 175.655356 268.940743 
L 176.442662 268.113689 
L 177.395819 267.433418 
L 178.480256 266.932751 
L 179.657404 266.607791 
L 182.633338 266.175396 
L 190.665777 264.99631 
L 191.240721 264.980837 
L 195.63295 264.395981 
L 204.648847 263.390485 
L 207.391956 263.435171 
L 209.824118 263.67535 
L 211.977852 264.122168 
L 213.495599 264.636175 
L 216.162231 265.934946 
L 217.57917 266.767021 
L 220.855916 268.950106 
L 222.7965 270.15509 
L 225.539075 271.850415 
L 228.938877 273.627567 
L 231.461018 274.732947 
L 233.889918 275.688834 
L 234.462862 275.783057 
L 234.666026 275.624039 
L 234.947496 275.693026 
L 234.977577 275.874505 
L 236.430709 276.026804 
L 237.879763 275.967171 
L 239.31236 275.69273 
L 240.720128 275.209816 
L 242.078639 274.561094 
L 243.348538 273.702945 
L 244.981293 272.262688 
L 245.497682 271.468413 
L 246.406134 270.153398 
L 247.539028 268.974057 
L 254.011778 262.504726 
L 260.621084 255.746581 
L 263.02003 253.376431 
L 264.684985 252.089536 
L 266.198054 251.230853 
L 267.485788 250.723377 
L 268.783086 250.424888 
L 270.076153 250.340047 
L 271.352951 250.463433 
L 272.561136 250.823965 
L 273.665805 251.399468 
L 274.623033 252.151972 
L 275.116555 252.726199 
L 275.764089 253.850567 
L 276.729876 256.780149 
L 277.172934 259.364877 
L 277.940104 263.951569 
L 278.309745 264.736693 
L 278.857348 265.319316 
L 279.56031 265.687262 
L 280.299593 265.756989 
L 281.298097 265.602527 
L 282.714774 265.127716 
L 283.892247 264.497713 
L 284.806316 263.783382 
L 285.934644 262.519945 
L 287.068475 260.954884 
L 288.046948 259.276099 
L 288.724819 257.686989 
L 289.291889 255.703934 
L 291.439923 246.675767 
L 292.854007 239.987387 
L 296.863281 221.269481 
L 298.402605 215.249137 
L 299.884977 210.056714 
L 301.679259 204.678042 
L 306.449305 191.437796 
L 310.777826 181.407642 
L 313.405671 175.405414 
L 319.484794 161.27514 
L 319.667517 160.173413 
L 319.58823 159.298409 
L 319.32023 158.612602 
L 318.655056 157.481297 
L 309.984273 143.035699 
L 309.439442 142.503299 
L 308.845761 142.321338 
L 308.280882 142.396471 
L 307.703489 142.735527 
L 307.006514 143.403265 
L 305.922512 144.81674 
L 304.882468 146.537676 
L 304.145058 148.19994 
L 303.563351 150.136524 
L 302.801393 153.642529 
L 301.844643 159.525568 
L 300.70959 165.516595 
L 297.604618 179.427773 
L 295.318753 188.288207 
L 294.676549 190.478056 
L 294.107688 191.745647 
L 293.645466 192.289785 
L 293.141292 192.568329 
L 292.566116 192.607056 
L 291.829601 192.428519 
L 290.092046 191.899927 
L 289.090551 191.766847 
L 288.033458 191.833366 
L 286.946186 192.09902 
L 285.476358 192.732521 
L 277.757707 196.555372 
L 275.483608 197.28348 
L 273.056711 197.780164 
L 270.105095 198.21186 
L 268.526509 198.241106 
L 266.954887 198.184263 
L 265.412862 197.932342 
L 264.118896 197.550219 
L 262.411361 196.789285 
L 261.174203 196.05092 
L 259.447068 194.725694 
L 249.29283 186.200123 
L 237.170039 175.715246 
L 234.306835 172.985325 
L 228.56397 167.134679 
L 227.817905 166.026591 
L 227.120344 164.619394 
L 226.614785 163.134987 
L 226.360884 161.82488 
L 226.308206 160.452262 
L 226.469806 158.508444 
L 226.737567 156.413591 
L 226.619459 156.183172 
L 227.486493 149.957662 
L 228.54117 141.028098 
L 228.403254 140.535232 
L 228.116436 140.159798 
L 227.575907 139.857888 
L 226.209764 139.814056 
L 224.297823 140.041416 
L 223.891814 140.165888 
L 220.270687 140.615219 
L 220.07452 140.481301 
L 209.149121 142.389684 
L 208.887668 142.317359 
L 200.28366 143.92536 
L 199.654832 144.120502 
L 197.70177 144.577095 
L 197.688284 144.907755 
L 195.41514 145.664184 
L 191.232832 147.316696 
L 188.720247 148.545194 
L 186.652888 149.770124 
L 183.765084 151.92785 
L 182.558586 152.896757 
L 179.37225 155.478699 
L 175.927268 158.536232 
L 175.587827 159.211696 
L 175.486835 160.257012 
L 175.688531 161.01346 
L 176.097291 161.717508 
L 176.833222 162.549989 
L 178.393078 163.590907 
L 182.301742 166.08327 
L 182.351899 166.353745 
L 191.070707 171.782239 
L 195.029296 174.185441 
L 202.267129 178.176214 
L 208.699934 181.514145 
L 219.245797 186.875163 
L 219.423115 187.120143 
L 220.496858 187.676257 
L 227.651625 191.240006 
L 227.767331 191.523916 
L 230.703896 192.714972 
L 233.381083 193.845969 
L 250.066625 201.819781 
L 251.758977 202.70185 
L 257.446529 205.427524 
L 259.347667 206.389143 
L 259.483656 206.603669 
L 263.287983 208.44051 
L 268.792563 210.886577 
L 273.743295 212.913814 
L 278.372644 214.725018 
L 281.25148 215.503622 
L 285.604154 216.314674 
L 287.266891 216.401752 
L 288.737873 216.349483 
L 289.211201 216.21649 
L 291.000476 216.098739 
L 293.10269 215.738767 
L 299.023655 214.599992 
L 304.12915 213.833692 
L 307.285925 213.550263 
L 312.416321 213.436361 
L 314.773685 213.673469 
L 315.429524 213.990669 
L 315.736741 214.414626 
L 315.737017 215.097109 
L 315.642645 215.571187 
L 315.570157 215.501942 
L 315.519704 215.673826 
L 315.370755 215.7648 
L 315.068422 218.93632 
L 315.113986 221.822788 
L 315.292904 226.67688 
L 314.869082 227.601561 
L 314.241034 228.366199 
L 313.252453 229.118752 
L 309.140524 232.007484 
L 302.954046 236.781398 
L 298.624301 240.087917 
L 295.623001 242.19407 
L 293.547698 243.397761 
L 289.928104 245.304592 
L 286.659714 247.021304 
L 282.025653 249.261288 
L 275.95087 251.996274 
L 266.831618 255.815112 
L 262.43019 257.51955 
L 254.262634 260.40447 
L 248.694358 262.148608 
L 242.371075 263.87975 
L 231.813104 266.467617 
L 224.572022 268.010412 
L 219.042344 269.030214 
L 212.282779 270.103999 
L 206.364721 270.863881 
L 198.72223 271.560503 
L 192.151189 271.881792 
L 182.186483 271.995627 
L 175.228403 271.665297 
L 167.671931 270.903113 
L 160.705466 270.011802 
L 157.146447 269.209089 
L 155.018364 268.467123 
L 154.714053 268.162792 
L 154.742948 267.930896 
L 155.120893 267.581807 
L 156.460564 266.815792 
L 157.30822 266.229498 
L 160.756174 263.801947 
L 160.867526 263.469955 
L 160.697747 263.035275 
L 160.278864 262.680023 
L 159.431938 262.293886 
L 155.391333 260.733976 
L 148.547682 257.978963 
L 147.550364 257.27675 
L 146.919883 256.601649 
L 146.595708 255.98869 
L 146.430038 255.255834 
L 146.578959 254.358974 
L 147.014735 253.424456 
L 148.096403 251.723546 
L 150.102482 249.055659 
L 152.738584 245.92272 
L 158.738584 239.44015 
L 159.559666 238.581269 
L 167.382072 229.660639 
L 169.15279 227.767354 
L 171.951478 224.46277 
L 174.987921 220.642266 
L 177.610681 217.247466 
L 177.812355 216.798656 
L 181.49335 212.292828 
L 181.81808 212.106681 
L 182.018444 212.092136 
L 182.855036 212.695603 
L 183.4002 212.465665 
L 183.784718 212.314415 
L 183.754819 212.505221 
L 183.507004 212.808293 
L 183.484 212.989439 
L 183.942648 213.008934 
L 184.763709 212.623077 
L 192.717075 208.48594 
L 199.712826 204.789655 
L 200.320594 204.670321 
L 205.979456 201.619581 
L 213.105636 198.053901 
L 220.514339 194.594967 
L 235.130632 187.195 
L 235.396572 187.04107 
L 235.700158 187.022319 
L 240.131704 184.360253 
L 242.153514 183.165932 
L 247.223514 180.173356 
L 248.392914 179.992163 
L 248.857535 179.985895 
L 249.191737 179.942263 
L 249.048139 180.022203 
L 248.907911 180.238134 
L 249.014506 180.331107 
L 249.330252 180.440345 
L 249.317729 181.108643 
L 249.11936 181.104278 
L 249.083681 181.260655 
L 253.707701 182.577799 
L 259.414997 183.940607 
L 260.834037 184.248126 
L 261.091779 184.112546 
L 267.177503 185.41338 
L 272.418557 186.64311 
L 273.179456 187.165798 
L 273.648288 187.774676 
L 273.957287 188.68055 
L 273.980027 189.554959 
L 273.689271 191.159959 
L 270.495402 207.510104 
L 270.371012 208.11211 
L 270.454192 208.395572 
L 268.92098 214.832544 
L 269.074395 215.123128 
L 269.003039 215.433752 
L 268.820578 215.721594 
L 266.345287 228.327972 
L 264.25396 238.89425 
L 263.791098 241.171611 
L 263.791098 241.171611 
" style="fill:none;stroke:#ff0000;stroke-linecap:square;stroke-width:1.5;"/>
   </g>
   <g id="patch_3">
    <path d="M 57.6 307.584 
L 57.6 41.472 
" style="fill:none;stroke:#000000;stroke-linecap:square;stroke-linejoin:miter;stroke-width:0.8;"/>
   </g>
   <g id="patch_4">
    <path d="M 414.72 307.584 
L 414.72 41.472 
" style="fill:none;stroke:#000000;stroke-linecap:square;stroke-linejoin:miter;stroke-width:0.8;"/>
   </g>
   <g id="patch_5">
    <path d="M 57.6 307.584 
L 414.72 307.584 
" style="fill:none;stroke:#000000;stroke-linecap:square;stroke-linejoin:miter;stroke-width:0.8;"/>
   </g>
   <g id="patch_6">
    <path d="M 57.6 41.472 
L 414.72 41.472 
" style="fill:none;stroke:#000000;stroke-linecap:square;stroke-linejoin:miter;stroke-width:0.8;"/>
   </g>
  </g>
 </g>
 <defs>
  <clipPath id="pe8c89cce37">
   <rect height="266.112" width="357.12" x="57.6" y="41.472"/>
  </clipPath>
 </defs>
</svg>
