<?xml version="1.0" encoding="utf-8" standalone="no"?>
<!DOCTYPE svg PUBLIC "-//W3C//DTD SVG 1.1//EN"
  "http://www.w3.org/Graphics/SVG/1.1/DTD/svg11.dtd">
<!-- Created with matplotlib (https://matplotlib.org/) -->
<svg height="345.6pt" version="1.1" viewBox="0 0 460.8 345.6" width="460.8pt" xmlns="http://www.w3.org/2000/svg" xmlns:xlink="http://www.w3.org/1999/xlink">
 <defs>
  <style type="text/css">
*{stroke-linecap:butt;stroke-linejoin:round;}
  </style>
 </defs>
 <g id="figure_1">
  <g id="patch_1">
   <path d="M 0 345.6 
L 460.8 345.6 
L 460.8 0 
L 0 0 
z
" style="fill:#ffffff;"/>
  </g>
  <g id="axes_1">
   <g id="patch_2">
    <path d="M 57.6 307.584 
L 414.72 307.584 
L 414.72 41.472 
L 57.6 41.472 
z
" style="fill:#ffffff;"/>
   </g>
   <g id="matplotlib.axis_1">
    <g id="xtick_1">
     <g id="line2d_1">
      <defs>
       <path d="M 0 0 
L 0 3.5 
" id="md2241a5cfa" style="stroke:#000000;stroke-width:0.8;"/>
      </defs>
      <g>
       <use style="stroke:#000000;stroke-width:0.8;" x="74.637793" xlink:href="#md2241a5cfa" y="307.584"/>
      </g>
     </g>
     <g id="text_1">
      <!-- 0 -->
      <defs>
       <path d="M 31.78125 66.40625 
Q 24.171875 66.40625 20.328125 58.90625 
Q 16.5 51.421875 16.5 36.375 
Q 16.5 21.390625 20.328125 13.890625 
Q 24.171875 6.390625 31.78125 6.390625 
Q 39.453125 6.390625 43.28125 13.890625 
Q 47.125 21.390625 47.125 36.375 
Q 47.125 51.421875 43.28125 58.90625 
Q 39.453125 66.40625 31.78125 66.40625 
z
M 31.78125 74.21875 
Q 44.046875 74.21875 50.515625 64.515625 
Q 56.984375 54.828125 56.984375 36.375 
Q 56.984375 17.96875 50.515625 8.265625 
Q 44.046875 -1.421875 31.78125 -1.421875 
Q 19.53125 -1.421875 13.0625 8.265625 
Q 6.59375 17.96875 6.59375 36.375 
Q 6.59375 54.828125 13.0625 64.515625 
Q 19.53125 74.21875 31.78125 74.21875 
z
" id="DejaVuSans-48"/>
      </defs>
      <g transform="translate(71.456543 322.182437)scale(0.1 -0.1)">
       <use xlink:href="#DejaVuSans-48"/>
      </g>
     </g>
    </g>
    <g id="xtick_2">
     <g id="line2d_2">
      <g>
       <use style="stroke:#000000;stroke-width:0.8;" x="143.723707" xlink:href="#md2241a5cfa" y="307.584"/>
      </g>
     </g>
     <g id="text_2">
      <!-- 100 -->
      <defs>
       <path d="M 12.40625 8.296875 
L 28.515625 8.296875 
L 28.515625 63.921875 
L 10.984375 60.40625 
L 10.984375 69.390625 
L 28.421875 72.90625 
L 38.28125 72.90625 
L 38.28125 8.296875 
L 54.390625 8.296875 
L 54.390625 0 
L 12.40625 0 
z
" id="DejaVuSans-49"/>
      </defs>
      <g transform="translate(134.179957 322.182437)scale(0.1 -0.1)">
       <use xlink:href="#DejaVuSans-49"/>
       <use x="63.623047" xlink:href="#DejaVuSans-48"/>
       <use x="127.246094" xlink:href="#DejaVuSans-48"/>
      </g>
     </g>
    </g>
    <g id="xtick_3">
     <g id="line2d_3">
      <g>
       <use style="stroke:#000000;stroke-width:0.8;" x="212.809621" xlink:href="#md2241a5cfa" y="307.584"/>
      </g>
     </g>
     <g id="text_3">
      <!-- 200 -->
      <defs>
       <path d="M 19.1875 8.296875 
L 53.609375 8.296875 
L 53.609375 0 
L 7.328125 0 
L 7.328125 8.296875 
Q 12.9375 14.109375 22.625 23.890625 
Q 32.328125 33.6875 34.8125 36.53125 
Q 39.546875 41.84375 41.421875 45.53125 
Q 43.3125 49.21875 43.3125 52.78125 
Q 43.3125 58.59375 39.234375 62.25 
Q 35.15625 65.921875 28.609375 65.921875 
Q 23.96875 65.921875 18.8125 64.3125 
Q 13.671875 62.703125 7.8125 59.421875 
L 7.8125 69.390625 
Q 13.765625 71.78125 18.9375 73 
Q 24.125 74.21875 28.421875 74.21875 
Q 39.75 74.21875 46.484375 68.546875 
Q 53.21875 62.890625 53.21875 53.421875 
Q 53.21875 48.921875 51.53125 44.890625 
Q 49.859375 40.875 45.40625 35.40625 
Q 44.1875 33.984375 37.640625 27.21875 
Q 31.109375 20.453125 19.1875 8.296875 
z
" id="DejaVuSans-50"/>
      </defs>
      <g transform="translate(203.265871 322.182437)scale(0.1 -0.1)">
       <use xlink:href="#DejaVuSans-50"/>
       <use x="63.623047" xlink:href="#DejaVuSans-48"/>
       <use x="127.246094" xlink:href="#DejaVuSans-48"/>
      </g>
     </g>
    </g>
    <g id="xtick_4">
     <g id="line2d_4">
      <g>
       <use style="stroke:#000000;stroke-width:0.8;" x="281.895535" xlink:href="#md2241a5cfa" y="307.584"/>
      </g>
     </g>
     <g id="text_4">
      <!-- 300 -->
      <defs>
       <path d="M 40.578125 39.3125 
Q 47.65625 37.796875 51.625 33 
Q 55.609375 28.21875 55.609375 21.1875 
Q 55.609375 10.40625 48.1875 4.484375 
Q 40.765625 -1.421875 27.09375 -1.421875 
Q 22.515625 -1.421875 17.65625 -0.515625 
Q 12.796875 0.390625 7.625 2.203125 
L 7.625 11.71875 
Q 11.71875 9.328125 16.59375 8.109375 
Q 21.484375 6.890625 26.8125 6.890625 
Q 36.078125 6.890625 40.9375 10.546875 
Q 45.796875 14.203125 45.796875 21.1875 
Q 45.796875 27.640625 41.28125 31.265625 
Q 36.765625 34.90625 28.71875 34.90625 
L 20.21875 34.90625 
L 20.21875 43.015625 
L 29.109375 43.015625 
Q 36.375 43.015625 40.234375 45.921875 
Q 44.09375 48.828125 44.09375 54.296875 
Q 44.09375 59.90625 40.109375 62.90625 
Q 36.140625 65.921875 28.71875 65.921875 
Q 24.65625 65.921875 20.015625 65.03125 
Q 15.375 64.15625 9.8125 62.3125 
L 9.8125 71.09375 
Q 15.4375 72.65625 20.34375 73.4375 
Q 25.25 74.21875 29.59375 74.21875 
Q 40.828125 74.21875 47.359375 69.109375 
Q 53.90625 64.015625 53.90625 55.328125 
Q 53.90625 49.265625 50.4375 45.09375 
Q 46.96875 40.921875 40.578125 39.3125 
z
" id="DejaVuSans-51"/>
      </defs>
      <g transform="translate(272.351785 322.182437)scale(0.1 -0.1)">
       <use xlink:href="#DejaVuSans-51"/>
       <use x="63.623047" xlink:href="#DejaVuSans-48"/>
       <use x="127.246094" xlink:href="#DejaVuSans-48"/>
      </g>
     </g>
    </g>
    <g id="xtick_5">
     <g id="line2d_5">
      <g>
       <use style="stroke:#000000;stroke-width:0.8;" x="350.981449" xlink:href="#md2241a5cfa" y="307.584"/>
      </g>
     </g>
     <g id="text_5">
      <!-- 400 -->
      <defs>
       <path d="M 37.796875 64.3125 
L 12.890625 25.390625 
L 37.796875 25.390625 
z
M 35.203125 72.90625 
L 47.609375 72.90625 
L 47.609375 25.390625 
L 58.015625 25.390625 
L 58.015625 17.1875 
L 47.609375 17.1875 
L 47.609375 0 
L 37.796875 0 
L 37.796875 17.1875 
L 4.890625 17.1875 
L 4.890625 26.703125 
z
" id="DejaVuSans-52"/>
      </defs>
      <g transform="translate(341.437699 322.182437)scale(0.1 -0.1)">
       <use xlink:href="#DejaVuSans-52"/>
       <use x="63.623047" xlink:href="#DejaVuSans-48"/>
       <use x="127.246094" xlink:href="#DejaVuSans-48"/>
      </g>
     </g>
    </g>
   </g>
   <g id="matplotlib.axis_2">
    <g id="ytick_1">
     <g id="line2d_6">
      <defs>
       <path d="M 0 0 
L -3.5 0 
" id="mc24c8bea64" style="stroke:#000000;stroke-width:0.8;"/>
      </defs>
      <g>
       <use style="stroke:#000000;stroke-width:0.8;" x="57.6" xlink:href="#mc24c8bea64" y="277.672809"/>
      </g>
     </g>
     <g id="text_6">
      <!-- −50 -->
      <defs>
       <path d="M 10.59375 35.5 
L 73.1875 35.5 
L 73.1875 27.203125 
L 10.59375 27.203125 
z
" id="DejaVuSans-8722"/>
       <path d="M 10.796875 72.90625 
L 49.515625 72.90625 
L 49.515625 64.59375 
L 19.828125 64.59375 
L 19.828125 46.734375 
Q 21.96875 47.46875 24.109375 47.828125 
Q 26.265625 48.1875 28.421875 48.1875 
Q 40.625 48.1875 47.75 41.5 
Q 54.890625 34.8125 54.890625 23.390625 
Q 54.890625 11.625 47.5625 5.09375 
Q 40.234375 -1.421875 26.90625 -1.421875 
Q 22.3125 -1.421875 17.546875 -0.640625 
Q 12.796875 0.140625 7.71875 1.703125 
L 7.71875 11.625 
Q 12.109375 9.234375 16.796875 8.0625 
Q 21.484375 6.890625 26.703125 6.890625 
Q 35.15625 6.890625 40.078125 11.328125 
Q 45.015625 15.765625 45.015625 23.390625 
Q 45.015625 31 40.078125 35.4375 
Q 35.15625 39.890625 26.703125 39.890625 
Q 22.75 39.890625 18.8125 39.015625 
Q 14.890625 38.140625 10.796875 36.28125 
z
" id="DejaVuSans-53"/>
      </defs>
      <g transform="translate(29.495313 281.472028)scale(0.1 -0.1)">
       <use xlink:href="#DejaVuSans-8722"/>
       <use x="83.789062" xlink:href="#DejaVuSans-53"/>
       <use x="147.412109" xlink:href="#DejaVuSans-48"/>
      </g>
     </g>
    </g>
    <g id="ytick_2">
     <g id="line2d_7">
      <g>
       <use style="stroke:#000000;stroke-width:0.8;" x="57.6" xlink:href="#mc24c8bea64" y="243.129852"/>
      </g>
     </g>
     <g id="text_7">
      <!-- 0 -->
      <g transform="translate(44.2375 246.929071)scale(0.1 -0.1)">
       <use xlink:href="#DejaVuSans-48"/>
      </g>
     </g>
    </g>
    <g id="ytick_3">
     <g id="line2d_8">
      <g>
       <use style="stroke:#000000;stroke-width:0.8;" x="57.6" xlink:href="#mc24c8bea64" y="208.586895"/>
      </g>
     </g>
     <g id="text_8">
      <!-- 50 -->
      <g transform="translate(37.875 212.386114)scale(0.1 -0.1)">
       <use xlink:href="#DejaVuSans-53"/>
       <use x="63.623047" xlink:href="#DejaVuSans-48"/>
      </g>
     </g>
    </g>
    <g id="ytick_4">
     <g id="line2d_9">
      <g>
       <use style="stroke:#000000;stroke-width:0.8;" x="57.6" xlink:href="#mc24c8bea64" y="174.043938"/>
      </g>
     </g>
     <g id="text_9">
      <!-- 100 -->
      <g transform="translate(31.5125 177.843157)scale(0.1 -0.1)">
       <use xlink:href="#DejaVuSans-49"/>
       <use x="63.623047" xlink:href="#DejaVuSans-48"/>
       <use x="127.246094" xlink:href="#DejaVuSans-48"/>
      </g>
     </g>
    </g>
    <g id="ytick_5">
     <g id="line2d_10">
      <g>
       <use style="stroke:#000000;stroke-width:0.8;" x="57.6" xlink:href="#mc24c8bea64" y="139.500981"/>
      </g>
     </g>
     <g id="text_10">
      <!-- 150 -->
      <g transform="translate(31.5125 143.3002)scale(0.1 -0.1)">
       <use xlink:href="#DejaVuSans-49"/>
       <use x="63.623047" xlink:href="#DejaVuSans-53"/>
       <use x="127.246094" xlink:href="#DejaVuSans-48"/>
      </g>
     </g>
    </g>
    <g id="ytick_6">
     <g id="line2d_11">
      <g>
       <use style="stroke:#000000;stroke-width:0.8;" x="57.6" xlink:href="#mc24c8bea64" y="104.958024"/>
      </g>
     </g>
     <g id="text_11">
      <!-- 200 -->
      <g transform="translate(31.5125 108.757243)scale(0.1 -0.1)">
       <use xlink:href="#DejaVuSans-50"/>
       <use x="63.623047" xlink:href="#DejaVuSans-48"/>
       <use x="127.246094" xlink:href="#DejaVuSans-48"/>
      </g>
     </g>
    </g>
    <g id="ytick_7">
     <g id="line2d_12">
      <g>
       <use style="stroke:#000000;stroke-width:0.8;" x="57.6" xlink:href="#mc24c8bea64" y="70.415067"/>
      </g>
     </g>
     <g id="text_12">
      <!-- 250 -->
      <g transform="translate(31.5125 74.214286)scale(0.1 -0.1)">
       <use xlink:href="#DejaVuSans-50"/>
       <use x="63.623047" xlink:href="#DejaVuSans-53"/>
       <use x="127.246094" xlink:href="#DejaVuSans-48"/>
      </g>
     </g>
    </g>
   </g>
   <g id="line2d_13">
    <path clip-path="url(#p740e991a00)" d="M 74.637793 243.129852 
L 74.313727 224.421129 
L 73.99136 216.800351 
L 73.840603 211.340691 
L 74.017577 209.117202 
L 74.300017 207.933822 
L 74.728263 206.959262 
L 75.447682 206.034326 
L 76.205856 205.419171 
L 77.239669 204.900874 
L 78.496612 204.57834 
L 80.309456 204.461529 
L 84.083965 204.52236 
L 94.012337 204.788769 
L 100.165681 204.588862 
L 105.528675 204.204143 
L 109.427262 203.722573 
L 114.80205 202.774299 
L 130.21976 199.481471 
L 133.26506 198.474543 
L 136.671721 197.119016 
L 139.551816 195.750154 
L 145.41265 192.674773 
L 149.601468 190.256801 
L 152.785085 188.11835 
L 155.143678 186.348887 
L 159.874405 182.349295 
L 163.469498 178.989944 
L 166.126335 176.29475 
L 177.158733 164.621026 
L 180.398655 161.735722 
L 183.36783 159.329804 
L 186.531965 157.060677 
L 192.217252 153.399883 
L 199.953631 148.787776 
L 203.622784 146.8542 
L 207.17601 145.266605 
L 211.270456 143.761085 
L 216.436286 142.145649 
L 221.363217 140.803378 
L 229.674944 138.795051 
L 235.393461 137.576375 
L 241.722076 136.462434 
L 246.709941 135.799209 
L 252.824113 135.255572 
L 258.219447 135.106001 
L 268.921339 135.020887 
L 274.675574 134.636216 
L 289.932231 133.463828 
L 300.686213 132.895182 
L 306.945328 132.365984 
L 324.988358 130.591443 
L 328.685352 129.932018 
L 333.516392 128.729716 
L 337.718197 127.509382 
L 342.861436 125.782994 
L 351.123352 123.007398 
L 385.21428 111.810366 
L 392.997015 108.882229 
L 395.983599 107.340922 
L 398.487273 106.520181 
L 398.487273 106.520181 
" style="fill:none;stroke:#008000;stroke-linecap:square;stroke-width:1.5;"/>
   </g>
   <g id="line2d_14">
    <path clip-path="url(#p740e991a00)" d="M 74.637793 243.129852 
L 74.420132 223.871929 
L 74.124885 217.728268 
L 73.915077 211.969002 
L 74.080226 209.298762 
L 74.339166 208.102744 
L 74.731044 207.123058 
L 75.265372 206.356505 
L 75.884168 205.733423 
L 76.785684 205.151495 
L 77.923256 204.678133 
L 78.91622 204.482349 
L 80.769997 204.355271 
L 85.562466 204.42079 
L 90.03627 204.517656 
L 97.665539 204.363111 
L 102.355933 204.075723 
L 107.267451 203.61151 
L 111.709208 202.944548 
L 116.840485 201.882255 
L 125.590628 200.022877 
L 128.644238 199.382459 
L 131.927847 198.400336 
L 136.190742 196.782649 
L 139.568909 195.215294 
L 145.457535 192.19394 
L 149.316268 190.00024 
L 152.065672 188.130605 
L 155.521127 185.477378 
L 160.262874 181.388586 
L 165.621075 176.198971 
L 169.12369 172.408724 
L 174.362238 166.714374 
L 177.918598 163.186371 
L 181.141669 160.251904 
L 185.139442 157.01758 
L 188.831201 154.493214 
L 193.324161 151.660528 
L 200.016744 147.742332 
L 204.117634 145.629022 
L 206.817621 144.459685 
L 211.976886 142.561641 
L 218.471639 140.595759 
L 230.572307 137.640576 
L 237.553812 136.261437 
L 242.58966 135.439951 
L 248.771466 134.708838 
L 253.631824 134.345162 
L 257.822431 134.247956 
L 268.524769 134.174369 
L 276.139564 133.609148 
L 285.631334 132.79631 
L 291.628706 132.513484 
L 300.278516 132.098519 
L 307.169568 131.514296 
L 315.894387 130.724203 
L 322.690338 129.966487 
L 326.400364 129.351264 
L 330.646956 128.398528 
L 336.087161 126.935985 
L 340.171766 125.667748 
L 367.853317 116.760839 
L 372.379636 115.320851 
L 383.110784 111.819511 
L 392.788958 108.15573 
L 395.394698 106.810756 
L 398.077054 105.926148 
L 398.077054 105.926148 
" style="fill:none;stroke:#0000ff;stroke-linecap:square;stroke-width:1.5;"/>
   </g>
   <g id="line2d_15">
    <path clip-path="url(#p740e991a00)" d="M 74.637793 243.129852 
L 74.63692 225.551479 
L 74.403169 217.737925 
L 74.351309 210.9962 
L 74.518411 209.244888 
L 74.921214 207.736054 
L 75.438003 206.753043 
L 76.180552 205.910617 
L 77.100954 205.274808 
L 78.263801 204.781482 
L 79.646277 204.542083 
L 80.783989 204.496308 
L 82.836406 204.633632 
L 86.0316 204.903746 
L 113.150014 206.702452 
L 114.190072 206.797762 
L 115.20861 206.925462 
L 122.885229 207.094746 
L 125.151974 207.197883 
L 128.592462 207.11262 
L 152.011998 204.474957 
L 172.435634 200.831159 
L 186.188353 198.179614 
L 191.909093 197.271359 
L 197.188769 196.66884 
L 204.677392 196.303069 
L 220.103746 196.533846 
L 230.997094 197.206792 
L 247.201384 198.826081 
L 256.224352 200.088689 
L 261.762552 201.235836 
L 269.457622 202.84133 
L 272.943269 203.432472 
L 276.780971 203.962474 
L 281.013308 204.508083 
L 290.892951 205.642506 
L 310.088817 207.004782 
L 313.31981 206.890536 
L 317.49645 206.441354 
L 325.222847 205.205582 
L 335.8536 202.903903 
L 344.341694 200.921071 
L 347.447791 200.15621 
L 352.38453 198.902413 
L 354.442804 198.370677 
L 354.577887 197.964038 
L 354.97026 197.824149 
L 355.528373 196.752246 
L 355.837711 196.688033 
L 356.425564 195.7365 
L 356.787961 195.293708 
L 356.909287 195.001752 
L 357.167889 194.957806 
L 357.470142 194.491832 
L 357.631723 194.283142 
L 357.902098 194.345593 
L 358.253679 194.158223 
L 358.585843 194.354098 
L 359.581361 194.194181 
L 359.715955 194.163442 
L 359.820375 194.264236 
L 362.189862 193.957911 
L 365.534251 193.304413 
L 366.92571 193.223057 
L 366.92571 193.223057 
" style="fill:none;stroke:#ff0000;stroke-linecap:square;stroke-width:1.5;"/>
   </g>
   <g id="patch_3">
    <path d="M 57.6 307.584 
L 57.6 41.472 
" style="fill:none;stroke:#000000;stroke-linecap:square;stroke-linejoin:miter;stroke-width:0.8;"/>
   </g>
   <g id="patch_4">
    <path d="M 414.72 307.584 
L 414.72 41.472 
" style="fill:none;stroke:#000000;stroke-linecap:square;stroke-linejoin:miter;stroke-width:0.8;"/>
   </g>
   <g id="patch_5">
    <path d="M 57.6 307.584 
L 414.72 307.584 
" style="fill:none;stroke:#000000;stroke-linecap:square;stroke-linejoin:miter;stroke-width:0.8;"/>
   </g>
   <g id="patch_6">
    <path d="M 57.6 41.472 
L 414.72 41.472 
" style="fill:none;stroke:#000000;stroke-linecap:square;stroke-linejoin:miter;stroke-width:0.8;"/>
   </g>
  </g>
 </g>
 <defs>
  <clipPath id="p740e991a00">
   <rect height="266.112" width="357.12" x="57.6" y="41.472"/>
  </clipPath>
 </defs>
</svg>
