<?xml version="1.0" encoding="utf-8" standalone="no"?>
<!DOCTYPE svg PUBLIC "-//W3C//DTD SVG 1.1//EN"
  "http://www.w3.org/Graphics/SVG/1.1/DTD/svg11.dtd">
<!-- Created with matplotlib (https://matplotlib.org/) -->
<svg height="345.6pt" version="1.1" viewBox="0 0 460.8 345.6" width="460.8pt" xmlns="http://www.w3.org/2000/svg" xmlns:xlink="http://www.w3.org/1999/xlink">
 <defs>
  <style type="text/css">
*{stroke-linecap:butt;stroke-linejoin:round;}
  </style>
 </defs>
 <g id="figure_1">
  <g id="patch_1">
   <path d="M 0 345.6 
L 460.8 345.6 
L 460.8 0 
L 0 0 
z
" style="fill:#ffffff;"/>
  </g>
  <g id="axes_1">
   <g id="patch_2">
    <path d="M 57.6 307.584 
L 414.72 307.584 
L 414.72 41.472 
L 57.6 41.472 
z
" style="fill:#ffffff;"/>
   </g>
   <g id="matplotlib.axis_1">
    <g id="xtick_1">
     <g id="line2d_1">
      <defs>
       <path d="M 0 0 
L 0 3.5 
" id="m5e583f2dcb" style="stroke:#000000;stroke-width:0.8;"/>
      </defs>
      <g>
       <use style="stroke:#000000;stroke-width:0.8;" x="100.756206" xlink:href="#m5e583f2dcb" y="307.584"/>
      </g>
     </g>
     <g id="text_1">
      <!-- −400 -->
      <defs>
       <path d="M 10.59375 35.5 
L 73.1875 35.5 
L 73.1875 27.203125 
L 10.59375 27.203125 
z
" id="DejaVuSans-8722"/>
       <path d="M 37.796875 64.3125 
L 12.890625 25.390625 
L 37.796875 25.390625 
z
M 35.203125 72.90625 
L 47.609375 72.90625 
L 47.609375 25.390625 
L 58.015625 25.390625 
L 58.015625 17.1875 
L 47.609375 17.1875 
L 47.609375 0 
L 37.796875 0 
L 37.796875 17.1875 
L 4.890625 17.1875 
L 4.890625 26.703125 
z
" id="DejaVuSans-52"/>
       <path d="M 31.78125 66.40625 
Q 24.171875 66.40625 20.328125 58.90625 
Q 16.5 51.421875 16.5 36.375 
Q 16.5 21.390625 20.328125 13.890625 
Q 24.171875 6.390625 31.78125 6.390625 
Q 39.453125 6.390625 43.28125 13.890625 
Q 47.125 21.390625 47.125 36.375 
Q 47.125 51.421875 43.28125 58.90625 
Q 39.453125 66.40625 31.78125 66.40625 
z
M 31.78125 74.21875 
Q 44.046875 74.21875 50.515625 64.515625 
Q 56.984375 54.828125 56.984375 36.375 
Q 56.984375 17.96875 50.515625 8.265625 
Q 44.046875 -1.421875 31.78125 -1.421875 
Q 19.53125 -1.421875 13.0625 8.265625 
Q 6.59375 17.96875 6.59375 36.375 
Q 6.59375 54.828125 13.0625 64.515625 
Q 19.53125 74.21875 31.78125 74.21875 
z
" id="DejaVuSans-48"/>
      </defs>
      <g transform="translate(87.022612 322.182437)scale(0.1 -0.1)">
       <use xlink:href="#DejaVuSans-8722"/>
       <use x="83.789062" xlink:href="#DejaVuSans-52"/>
       <use x="147.412109" xlink:href="#DejaVuSans-48"/>
       <use x="211.035156" xlink:href="#DejaVuSans-48"/>
      </g>
     </g>
    </g>
    <g id="xtick_2">
     <g id="line2d_2">
      <g>
       <use style="stroke:#000000;stroke-width:0.8;" x="170.768029" xlink:href="#m5e583f2dcb" y="307.584"/>
      </g>
     </g>
     <g id="text_2">
      <!-- −200 -->
      <defs>
       <path d="M 19.1875 8.296875 
L 53.609375 8.296875 
L 53.609375 0 
L 7.328125 0 
L 7.328125 8.296875 
Q 12.9375 14.109375 22.625 23.890625 
Q 32.328125 33.6875 34.8125 36.53125 
Q 39.546875 41.84375 41.421875 45.53125 
Q 43.3125 49.21875 43.3125 52.78125 
Q 43.3125 58.59375 39.234375 62.25 
Q 35.15625 65.921875 28.609375 65.921875 
Q 23.96875 65.921875 18.8125 64.3125 
Q 13.671875 62.703125 7.8125 59.421875 
L 7.8125 69.390625 
Q 13.765625 71.78125 18.9375 73 
Q 24.125 74.21875 28.421875 74.21875 
Q 39.75 74.21875 46.484375 68.546875 
Q 53.21875 62.890625 53.21875 53.421875 
Q 53.21875 48.921875 51.53125 44.890625 
Q 49.859375 40.875 45.40625 35.40625 
Q 44.1875 33.984375 37.640625 27.21875 
Q 31.109375 20.453125 19.1875 8.296875 
z
" id="DejaVuSans-50"/>
      </defs>
      <g transform="translate(157.034436 322.182437)scale(0.1 -0.1)">
       <use xlink:href="#DejaVuSans-8722"/>
       <use x="83.789062" xlink:href="#DejaVuSans-50"/>
       <use x="147.412109" xlink:href="#DejaVuSans-48"/>
       <use x="211.035156" xlink:href="#DejaVuSans-48"/>
      </g>
     </g>
    </g>
    <g id="xtick_3">
     <g id="line2d_3">
      <g>
       <use style="stroke:#000000;stroke-width:0.8;" x="240.779853" xlink:href="#m5e583f2dcb" y="307.584"/>
      </g>
     </g>
     <g id="text_3">
      <!-- 0 -->
      <g transform="translate(237.598603 322.182437)scale(0.1 -0.1)">
       <use xlink:href="#DejaVuSans-48"/>
      </g>
     </g>
    </g>
    <g id="xtick_4">
     <g id="line2d_4">
      <g>
       <use style="stroke:#000000;stroke-width:0.8;" x="310.791677" xlink:href="#m5e583f2dcb" y="307.584"/>
      </g>
     </g>
     <g id="text_4">
      <!-- 200 -->
      <g transform="translate(301.247927 322.182437)scale(0.1 -0.1)">
       <use xlink:href="#DejaVuSans-50"/>
       <use x="63.623047" xlink:href="#DejaVuSans-48"/>
       <use x="127.246094" xlink:href="#DejaVuSans-48"/>
      </g>
     </g>
    </g>
    <g id="xtick_5">
     <g id="line2d_5">
      <g>
       <use style="stroke:#000000;stroke-width:0.8;" x="380.803501" xlink:href="#m5e583f2dcb" y="307.584"/>
      </g>
     </g>
     <g id="text_5">
      <!-- 400 -->
      <g transform="translate(371.259751 322.182437)scale(0.1 -0.1)">
       <use xlink:href="#DejaVuSans-52"/>
       <use x="63.623047" xlink:href="#DejaVuSans-48"/>
       <use x="127.246094" xlink:href="#DejaVuSans-48"/>
      </g>
     </g>
    </g>
   </g>
   <g id="matplotlib.axis_2">
    <g id="ytick_1">
     <g id="line2d_6">
      <defs>
       <path d="M 0 0 
L -3.5 0 
" id="m519941f412" style="stroke:#000000;stroke-width:0.8;"/>
      </defs>
      <g>
       <use style="stroke:#000000;stroke-width:0.8;" x="57.6" xlink:href="#m519941f412" y="287.820001"/>
      </g>
     </g>
     <g id="text_6">
      <!-- −300 -->
      <defs>
       <path d="M 40.578125 39.3125 
Q 47.65625 37.796875 51.625 33 
Q 55.609375 28.21875 55.609375 21.1875 
Q 55.609375 10.40625 48.1875 4.484375 
Q 40.765625 -1.421875 27.09375 -1.421875 
Q 22.515625 -1.421875 17.65625 -0.515625 
Q 12.796875 0.390625 7.625 2.203125 
L 7.625 11.71875 
Q 11.71875 9.328125 16.59375 8.109375 
Q 21.484375 6.890625 26.8125 6.890625 
Q 36.078125 6.890625 40.9375 10.546875 
Q 45.796875 14.203125 45.796875 21.1875 
Q 45.796875 27.640625 41.28125 31.265625 
Q 36.765625 34.90625 28.71875 34.90625 
L 20.21875 34.90625 
L 20.21875 43.015625 
L 29.109375 43.015625 
Q 36.375 43.015625 40.234375 45.921875 
Q 44.09375 48.828125 44.09375 54.296875 
Q 44.09375 59.90625 40.109375 62.90625 
Q 36.140625 65.921875 28.71875 65.921875 
Q 24.65625 65.921875 20.015625 65.03125 
Q 15.375 64.15625 9.8125 62.3125 
L 9.8125 71.09375 
Q 15.4375 72.65625 20.34375 73.4375 
Q 25.25 74.21875 29.59375 74.21875 
Q 40.828125 74.21875 47.359375 69.109375 
Q 53.90625 64.015625 53.90625 55.328125 
Q 53.90625 49.265625 50.4375 45.09375 
Q 46.96875 40.921875 40.578125 39.3125 
z
" id="DejaVuSans-51"/>
      </defs>
      <g transform="translate(23.132812 291.61922)scale(0.1 -0.1)">
       <use xlink:href="#DejaVuSans-8722"/>
       <use x="83.789062" xlink:href="#DejaVuSans-51"/>
       <use x="147.412109" xlink:href="#DejaVuSans-48"/>
       <use x="211.035156" xlink:href="#DejaVuSans-48"/>
      </g>
     </g>
    </g>
    <g id="ytick_2">
     <g id="line2d_7">
      <g>
       <use style="stroke:#000000;stroke-width:0.8;" x="57.6" xlink:href="#m519941f412" y="252.81409"/>
      </g>
     </g>
     <g id="text_7">
      <!-- −200 -->
      <g transform="translate(23.132812 256.613308)scale(0.1 -0.1)">
       <use xlink:href="#DejaVuSans-8722"/>
       <use x="83.789062" xlink:href="#DejaVuSans-50"/>
       <use x="147.412109" xlink:href="#DejaVuSans-48"/>
       <use x="211.035156" xlink:href="#DejaVuSans-48"/>
      </g>
     </g>
    </g>
    <g id="ytick_3">
     <g id="line2d_8">
      <g>
       <use style="stroke:#000000;stroke-width:0.8;" x="57.6" xlink:href="#m519941f412" y="217.808178"/>
      </g>
     </g>
     <g id="text_8">
      <!-- −100 -->
      <defs>
       <path d="M 12.40625 8.296875 
L 28.515625 8.296875 
L 28.515625 63.921875 
L 10.984375 60.40625 
L 10.984375 69.390625 
L 28.421875 72.90625 
L 38.28125 72.90625 
L 38.28125 8.296875 
L 54.390625 8.296875 
L 54.390625 0 
L 12.40625 0 
z
" id="DejaVuSans-49"/>
      </defs>
      <g transform="translate(23.132812 221.607396)scale(0.1 -0.1)">
       <use xlink:href="#DejaVuSans-8722"/>
       <use x="83.789062" xlink:href="#DejaVuSans-49"/>
       <use x="147.412109" xlink:href="#DejaVuSans-48"/>
       <use x="211.035156" xlink:href="#DejaVuSans-48"/>
      </g>
     </g>
    </g>
    <g id="ytick_4">
     <g id="line2d_9">
      <g>
       <use style="stroke:#000000;stroke-width:0.8;" x="57.6" xlink:href="#m519941f412" y="182.802266"/>
      </g>
     </g>
     <g id="text_9">
      <!-- 0 -->
      <g transform="translate(44.2375 186.601484)scale(0.1 -0.1)">
       <use xlink:href="#DejaVuSans-48"/>
      </g>
     </g>
    </g>
    <g id="ytick_5">
     <g id="line2d_10">
      <g>
       <use style="stroke:#000000;stroke-width:0.8;" x="57.6" xlink:href="#m519941f412" y="147.796354"/>
      </g>
     </g>
     <g id="text_10">
      <!-- 100 -->
      <g transform="translate(31.5125 151.595572)scale(0.1 -0.1)">
       <use xlink:href="#DejaVuSans-49"/>
       <use x="63.623047" xlink:href="#DejaVuSans-48"/>
       <use x="127.246094" xlink:href="#DejaVuSans-48"/>
      </g>
     </g>
    </g>
    <g id="ytick_6">
     <g id="line2d_11">
      <g>
       <use style="stroke:#000000;stroke-width:0.8;" x="57.6" xlink:href="#m519941f412" y="112.790442"/>
      </g>
     </g>
     <g id="text_11">
      <!-- 200 -->
      <g transform="translate(31.5125 116.58966)scale(0.1 -0.1)">
       <use xlink:href="#DejaVuSans-50"/>
       <use x="63.623047" xlink:href="#DejaVuSans-48"/>
       <use x="127.246094" xlink:href="#DejaVuSans-48"/>
      </g>
     </g>
    </g>
    <g id="ytick_7">
     <g id="line2d_12">
      <g>
       <use style="stroke:#000000;stroke-width:0.8;" x="57.6" xlink:href="#m519941f412" y="77.78453"/>
      </g>
     </g>
     <g id="text_12">
      <!-- 300 -->
      <g transform="translate(31.5125 81.583749)scale(0.1 -0.1)">
       <use xlink:href="#DejaVuSans-51"/>
       <use x="63.623047" xlink:href="#DejaVuSans-48"/>
       <use x="127.246094" xlink:href="#DejaVuSans-48"/>
      </g>
     </g>
    </g>
    <g id="ytick_8">
     <g id="line2d_13">
      <g>
       <use style="stroke:#000000;stroke-width:0.8;" x="57.6" xlink:href="#m519941f412" y="42.778618"/>
      </g>
     </g>
     <g id="text_13">
      <!-- 400 -->
      <g transform="translate(31.5125 46.577837)scale(0.1 -0.1)">
       <use xlink:href="#DejaVuSans-52"/>
       <use x="63.623047" xlink:href="#DejaVuSans-48"/>
       <use x="127.246094" xlink:href="#DejaVuSans-48"/>
      </g>
     </g>
    </g>
   </g>
   <g id="line2d_14">
    <path clip-path="url(#p2a0d3c6b28)" d="M 240.779853 182.802266 
L 240.69829 179.177866 
L 240.512499 169.052997 
L 240.131449 155.85469 
L 239.714394 147.789353 
L 239.67476 146.284483 
L 239.879927 145.365403 
L 240.252402 144.717829 
L 240.799381 144.22351 
L 241.400893 143.949939 
L 242.104413 143.818142 
L 243.737034 143.776905 
L 261.579876 144.444363 
L 269.300602 145.328822 
L 275.260274 146.056665 
L 281.427773 146.82802 
L 285.283394 147.512281 
L 287.458452 148.148982 
L 291.046208 149.244366 
L 293.296283 149.755148 
L 294.679471 149.852048 
L 296.396966 149.929337 
L 298.13851 150.268212 
L 300.71491 150.925035 
L 305.27191 152.225109 
L 306.090313 152.254948 
L 307.119382 152.050916 
L 307.883841 151.635711 
L 308.50026 151.057333 
L 309.173739 150.054603 
L 309.887895 148.506925 
L 310.921549 145.489184 
L 314.402817 134.909767 
L 315.218 131.633844 
L 315.221815 130.738778 
L 315.034359 130.052452 
L 314.677228 129.470374 
L 314.18382 129.029824 
L 313.712956 128.810022 
L 312.94013 128.638528 
L 311.544164 128.536206 
L 305.411164 128.437174 
L 293.66486 127.010053 
L 285.863617 126.047391 
L 255.070443 123.230395 
L 242.066097 122.43079 
L 240.932229 122.084931 
L 240.226413 121.658769 
L 239.735277 121.156155 
L 239.259914 120.303411 
L 239.016564 119.483922 
L 238.898498 118.275343 
L 238.693804 103.063419 
L 239.017654 102.301725 
L 239.513673 101.678585 
L 240.06598 101.247487 
L 240.944503 100.895188 
L 242.46658 100.705806 
L 244.613018 100.764686 
L 250.556206 100.927183 
L 257.043033 101.047008 
L 270.36838 101.599157 
L 282.210925 102.935262 
L 294.13786 103.95796 
L 296.708904 104.565978 
L 300.251887 105.389527 
L 305.92127 106.315188 
L 310.523182 106.987792 
L 315.256821 107.676918 
L 316.914526 108.184504 
L 317.852615 108.714213 
L 318.687471 109.512733 
L 319.302595 110.465664 
L 319.696411 111.437288 
L 319.907462 112.54554 
L 319.908267 113.733851 
L 319.640122 115.515687 
L 319.115838 117.376461 
L 315.54331 127.611035 
L 314.979995 128.237396 
L 314.301195 128.679765 
L 313.509606 128.943185 
L 312.230105 129.046102 
L 310.264698 128.941819 
L 300.274501 127.81911 
L 290.148971 126.48857 
L 286.271926 126.080576 
L 269.846526 124.406419 
L 264.757534 123.843768 
L 258.67657 123.37756 
L 251.116042 122.990219 
L 247.04825 122.748293 
L 240.52773 121.890824 
L 233.33656 121.653554 
L 224.24019 121.407147 
L 209.233191 121.09717 
L 203.8706 121.258442 
L 190.533873 122.069774 
L 170.574657 123.511877 
L 167.559493 123.93895 
L 164.272122 124.375228 
L 162.370461 124.372883 
L 160.553934 124.129277 
L 158.367815 123.799591 
L 157.662691 123.892917 
L 156.967474 124.188682 
L 156.246177 124.761728 
L 155.445977 125.630645 
L 154.970632 126.535583 
L 154.595298 127.845889 
L 154.288996 129.425146 
L 153.989556 132.451757 
L 153.53868 138.759613 
L 153.229963 146.912524 
L 152.907908 156.609271 
L 152.172329 173.674908 
L 152.26807 176.037646 
L 152.515352 177.69462 
L 152.943159 179.330476 
L 153.573336 180.94176 
L 154.415473 182.503466 
L 155.663644 184.322215 
L 160.668754 191.194282 
L 166.275756 199.933714 
L 167.385128 201.203162 
L 168.165725 201.81566 
L 169.093172 202.21339 
L 170.071307 202.346056 
L 171.110352 202.265056 
L 172.482899 201.941857 
L 173.887231 201.376248 
L 175.406908 200.465405 
L 181.906386 196.19279 
L 185.214654 194.340582 
L 190.847071 191.573697 
L 200.456403 187.003983 
L 204.149702 185.646411 
L 209.017887 184.096053 
L 212.464257 183.296945 
L 218.157216 182.211855 
L 224.762541 181.193218 
L 231.425927 180.449596 
L 238.181007 179.696165 
L 238.889839 179.291215 
L 239.486836 178.687695 
L 239.956215 177.911103 
L 240.403905 176.619844 
L 240.615545 175.279702 
L 240.655165 173.403059 
L 240.398391 162.889608 
L 238.838508 103.51447 
L 238.719104 99.868744 
L 238.497102 95.447603 
L 237.790595 76.022647 
L 237.887659 71.680724 
L 238.216525 66.968508 
L 238.921944 57.069291 
L 239.081476 53.568 
L 239.081476 53.568 
" style="fill:none;stroke:#008000;stroke-linecap:square;stroke-width:1.5;"/>
   </g>
   <g id="line2d_15">
    <path clip-path="url(#p2a0d3c6b28)" d="M 240.779853 182.802266 
L 239.823253 145.609832 
L 240.133986 144.910445 
L 240.616186 144.362471 
L 241.293562 143.985938 
L 241.973191 143.824084 
L 243.549892 143.757975 
L 252.223677 143.932445 
L 257.798638 144.136781 
L 262.104099 144.457116 
L 271.676072 145.640658 
L 283.531072 147.182585 
L 286.034187 147.723276 
L 292.719411 149.615807 
L 294.118697 149.790284 
L 296.965692 149.951482 
L 298.823605 150.361202 
L 301.302305 151.054343 
L 305.007134 152.144996 
L 306.104436 152.232941 
L 307.009344 152.069749 
L 307.764654 151.696643 
L 308.385089 151.162327 
L 308.975716 150.403322 
L 309.513679 149.414819 
L 310.297796 147.461868 
L 314.873974 133.423505 
L 315.313341 131.328103 
L 315.232615 130.457402 
L 314.904006 129.685208 
L 314.359484 129.096052 
L 313.786683 128.789983 
L 312.880609 128.575999 
L 311.439578 128.460225 
L 307.016895 128.434184 
L 303.955173 128.095433 
L 282.567938 125.339631 
L 267.314813 123.642441 
L 259.664841 122.870003 
L 251.953031 122.300075 
L 242.374602 121.560453 
L 241.092789 121.179537 
L 240.297248 120.687582 
L 239.73265 120.048164 
L 239.338864 119.27195 
L 239.088292 118.222675 
L 239.047669 116.702992 
L 238.980339 110.652726 
L 238.794231 102.184414 
L 239.177983 101.310186 
L 239.698447 100.6898 
L 240.144521 100.347405 
L 241.016637 99.9834 
L 242.326772 99.792682 
L 243.920059 99.76783 
L 249.185949 99.907887 
L 264.50899 100.123751 
L 270.192091 100.350783 
L 274.078666 100.840953 
L 277.396309 101.208101 
L 284.714072 101.735435 
L 291.643625 102.125631 
L 294.870248 102.6242 
L 304.336628 104.488151 
L 316.623994 106.256848 
L 317.631349 106.693226 
L 318.367139 107.224286 
L 319.070539 107.999319 
L 319.567631 108.835276 
L 319.949665 109.832328 
L 320.125255 110.955601 
L 320.112085 112.164031 
L 319.840148 113.964048 
L 319.323063 115.844171 
L 317.399208 121.936591 
L 316.478461 125.078796 
L 315.977029 126.018353 
L 315.397413 126.634891 
L 314.707916 127.052225 
L 313.911083 127.296059 
L 312.800299 127.396674 
L 310.833709 127.350844 
L 303.470582 126.78615 
L 286.030547 125.257206 
L 281.183104 124.978813 
L 271.825086 124.3259 
L 265.996988 123.828667 
L 257.106196 123.504372 
L 249.337618 123.414617 
L 246.961907 123.310856 
L 239.873439 122.675227 
L 235.766716 122.667846 
L 225.742258 122.768294 
L 208.092139 123.093334 
L 201.565467 123.577717 
L 191.358832 124.56269 
L 168.938829 127.017371 
L 164.533452 127.735808 
L 162.662852 127.768005 
L 160.700645 127.527002 
L 158.862618 127.334428 
L 158.161497 127.454687 
L 157.473612 127.767996 
L 156.680629 128.411052 
L 155.887365 129.306183 
L 155.484833 130.117235 
L 155.054263 131.841953 
L 154.826753 133.563182 
L 154.516906 138.668099 
L 154.262094 148.522094 
L 154.115248 162.144075 
L 153.988084 171.371881 
L 153.951108 179.340609 
L 154.259608 181.328616 
L 154.842528 183.276023 
L 155.710759 185.178923 
L 156.662931 186.697814 
L 158.239066 188.787662 
L 161.818202 193.393079 
L 163.51068 195.93461 
L 167.917568 202.572847 
L 169.35853 204.289912 
L 170.287298 205.074143 
L 171.227709 205.501526 
L 172.175526 205.645356 
L 173.338402 205.562372 
L 174.491394 205.288931 
L 175.865144 204.762945 
L 177.107507 204.069897 
L 181.071432 201.355165 
L 185.51724 198.519712 
L 188.106762 197.083502 
L 203.617819 189.533105 
L 207.688534 188.044202 
L 210.684806 187.10113 
L 213.742679 186.357661 
L 222.061237 184.750357 
L 226.799494 184.029717 
L 234.563957 183.120156 
L 239.562269 182.61704 
L 240.10387 182.466527 
L 240.079599 182.598927 
L 239.758235 183.988081 
L 238.791211 186.986863 
L 236.682744 192.267117 
L 228.80359 211.810614 
L 224.058365 223.571121 
L 216.463819 242.207115 
L 209.22562 259.76031 
L 203.436597 273.597861 
L 200.252109 281.456811 
L 194.629318 295.488 
L 194.629318 295.488 
" style="fill:none;stroke:#0000ff;stroke-linecap:square;stroke-width:1.5;"/>
   </g>
   <g id="line2d_16">
    <path clip-path="url(#p2a0d3c6b28)" d="M 240.779853 182.802266 
L 240.605888 165.670859 
L 240.427929 145.381065 
L 240.735778 144.703628 
L 241.213865 144.145964 
L 241.787389 143.822814 
L 242.643145 143.674398 
L 243.910111 143.731554 
L 254.691944 145.205535 
L 261.467288 146.33233 
L 269.558922 148.050463 
L 286.025131 151.839146 
L 288.996192 152.781579 
L 293.616243 153.971306 
L 294.731353 154.199378 
L 296.291603 154.702203 
L 297.525856 155.284319 
L 297.570683 155.445584 
L 303.649213 158.423799 
L 304.793252 158.722188 
L 305.557823 158.718315 
L 306.217531 158.521008 
L 306.887944 158.101101 
L 307.532936 157.420398 
L 308.269043 156.294463 
L 309.498285 153.917657 
L 314.749419 143.362423 
L 316.143298 140.063598 
L 316.255086 139.228032 
L 316.147518 138.412213 
L 315.804477 137.70628 
L 315.363357 137.258206 
L 314.695301 136.902382 
L 313.384533 136.507229 
L 306.878035 134.74827 
L 286.19436 129.065939 
L 276.516872 126.629778 
L 275.903374 126.401878 
L 267.54063 124.390234 
L 267.262829 124.594452 
L 264.361403 123.912106 
L 263.411732 123.686193 
L 249.73935 121.076061 
L 248.565953 120.656862 
L 247.8099 120.163895 
L 247.305715 119.594061 
L 246.928086 118.780424 
L 246.719706 117.691116 
L 246.690708 115.909789 
L 246.658046 108.177148 
L 246.640282 101.983843 
L 246.970177 101.133857 
L 247.423897 100.509535 
L 247.985416 100.124692 
L 248.728286 99.905522 
L 249.422979 99.821817 
L 250.64278 99.915667 
L 253.870616 100.554412 
L 257.903988 101.29125 
L 258.169777 101.219353 
L 265.666221 102.873856 
L 275.724754 105.289443 
L 283.185831 107.510961 
L 288.503043 109.033827 
L 295.812726 111.27279 
L 297.794451 112.034211 
L 297.910158 111.726974 
L 304.224617 114.665964 
L 304.422557 114.90208 
L 313.834985 119.203987 
L 315.893594 120.34153 
L 316.668359 121.063859 
L 317.175649 121.826366 
L 317.591891 122.808975 
L 317.823843 124.003748 
L 317.806963 124.885364 
L 317.19705 126.641403 
L 315.327999 131.418931 
L 311.540658 139.876832 
L 310.883146 140.492785 
L 310.256069 140.797637 
L 309.575511 140.891917 
L 308.676051 140.781074 
L 304.211799 139.949919 
L 284.420459 136.24553 
L 278.325438 135.188424 
L 275.851011 134.702912 
L 268.314641 133.391278 
L 266.917699 133.354659 
L 266.566386 133.557864 
L 258.983346 132.408791 
L 257.182054 132.02914 
L 251.538198 131.096767 
L 251.151663 131.22015 
L 250.919698 131.286992 
L 250.661122 131.436467 
L 244.98383 130.819903 
L 230.772961 129.1529 
L 230.506175 129.395208 
L 229.834033 129.379919 
L 218.932435 128.222672 
L 218.791124 127.889822 
L 201.725572 127.059979 
L 195.652786 126.910103 
L 187.410445 126.969291 
L 178.909925 127.246687 
L 175.518596 127.146979 
L 174.650324 127.350205 
L 173.935115 127.762638 
L 173.208024 128.482439 
L 172.637138 129.332692 
L 172.337551 130.24501 
L 172.177727 131.913897 
L 172.189832 133.683067 
L 172.641626 142.022987 
L 173.548674 155.278064 
L 173.698759 158.61986 
L 174.077499 165.907296 
L 174.367996 170.79291 
L 174.88476 178.400139 
L 175.1357 179.652423 
L 175.914991 181.770494 
L 176.620035 183.249393 
L 177.699802 184.960023 
L 180.476672 188.655275 
L 182.397058 191.267566 
L 188.624122 199.952221 
L 189.638607 201.027287 
L 190.46418 201.683977 
L 190.46418 201.683977 
L 191.238213 202.026267 
L 192.164116 202.167592 
L 193.298929 202.100191 
L 194.791937 201.793188 
L 196.543983 201.121776 
L 202.454786 198.240774 
L 207.722681 195.847437 
L 219.945673 190.6358 
L 223.269521 189.280702 
L 230.702405 186.697265 
L 235.228763 185.397525 
L 250.614544 181.320574 
L 259.322897 178.964975 
L 260.08251 178.628371 
L 260.578592 178.299135 
L 261.12373 177.702224 
L 261.565371 176.965213 
L 261.80272 176.189239 
L 261.370859 165.344462 
L 260.390326 150.841208 
L 260.100742 147.157415 
L 259.238541 136.819527 
L 256.059031 106.294484 
L 255.593463 103.079845 
L 253.541473 89.220893 
L 251.719511 76.747199 
L 249.789477 59.07375 
L 249.789477 59.07375 
" style="fill:none;stroke:#ff0000;stroke-linecap:square;stroke-width:1.5;"/>
   </g>
   <g id="patch_3">
    <path d="M 57.6 307.584 
L 57.6 41.472 
" style="fill:none;stroke:#000000;stroke-linecap:square;stroke-linejoin:miter;stroke-width:0.8;"/>
   </g>
   <g id="patch_4">
    <path d="M 414.72 307.584 
L 414.72 41.472 
" style="fill:none;stroke:#000000;stroke-linecap:square;stroke-linejoin:miter;stroke-width:0.8;"/>
   </g>
   <g id="patch_5">
    <path d="M 57.6 307.584 
L 414.72 307.584 
" style="fill:none;stroke:#000000;stroke-linecap:square;stroke-linejoin:miter;stroke-width:0.8;"/>
   </g>
   <g id="patch_6">
    <path d="M 57.6 41.472 
L 414.72 41.472 
" style="fill:none;stroke:#000000;stroke-linecap:square;stroke-linejoin:miter;stroke-width:0.8;"/>
   </g>
  </g>
 </g>
 <defs>
  <clipPath id="p2a0d3c6b28">
   <rect height="266.112" width="357.12" x="57.6" y="41.472"/>
  </clipPath>
 </defs>
</svg>
