<?xml version="1.0" encoding="utf-8" standalone="no"?>
<!DOCTYPE svg PUBLIC "-//W3C//DTD SVG 1.1//EN"
  "http://www.w3.org/Graphics/SVG/1.1/DTD/svg11.dtd">
<!-- Created with matplotlib (https://matplotlib.org/) -->
<svg height="345.6pt" version="1.1" viewBox="0 0 460.8 345.6" width="460.8pt" xmlns="http://www.w3.org/2000/svg" xmlns:xlink="http://www.w3.org/1999/xlink">
 <defs>
  <style type="text/css">
*{stroke-linecap:butt;stroke-linejoin:round;}
  </style>
 </defs>
 <g id="figure_1">
  <g id="patch_1">
   <path d="M 0 345.6 
L 460.8 345.6 
L 460.8 0 
L 0 0 
z
" style="fill:#ffffff;"/>
  </g>
  <g id="axes_1">
   <g id="patch_2">
    <path d="M 57.6 307.584 
L 414.72 307.584 
L 414.72 41.472 
L 57.6 41.472 
z
" style="fill:#ffffff;"/>
   </g>
   <g id="matplotlib.axis_1">
    <g id="xtick_1">
     <g id="line2d_1">
      <defs>
       <path d="M 0 0 
L 0 3.5 
" id="m6133dec66b" style="stroke:#000000;stroke-width:0.8;"/>
      </defs>
      <g>
       <use style="stroke:#000000;stroke-width:0.8;" x="98.936258" xlink:href="#m6133dec66b" y="307.584"/>
      </g>
     </g>
     <g id="text_1">
      <!-- −300 -->
      <defs>
       <path d="M 10.59375 35.5 
L 73.1875 35.5 
L 73.1875 27.203125 
L 10.59375 27.203125 
z
" id="DejaVuSans-8722"/>
       <path d="M 40.578125 39.3125 
Q 47.65625 37.796875 51.625 33 
Q 55.609375 28.21875 55.609375 21.1875 
Q 55.609375 10.40625 48.1875 4.484375 
Q 40.765625 -1.421875 27.09375 -1.421875 
Q 22.515625 -1.421875 17.65625 -0.515625 
Q 12.796875 0.390625 7.625 2.203125 
L 7.625 11.71875 
Q 11.71875 9.328125 16.59375 8.109375 
Q 21.484375 6.890625 26.8125 6.890625 
Q 36.078125 6.890625 40.9375 10.546875 
Q 45.796875 14.203125 45.796875 21.1875 
Q 45.796875 27.640625 41.28125 31.265625 
Q 36.765625 34.90625 28.71875 34.90625 
L 20.21875 34.90625 
L 20.21875 43.015625 
L 29.109375 43.015625 
Q 36.375 43.015625 40.234375 45.921875 
Q 44.09375 48.828125 44.09375 54.296875 
Q 44.09375 59.90625 40.109375 62.90625 
Q 36.140625 65.921875 28.71875 65.921875 
Q 24.65625 65.921875 20.015625 65.03125 
Q 15.375 64.15625 9.8125 62.3125 
L 9.8125 71.09375 
Q 15.4375 72.65625 20.34375 73.4375 
Q 25.25 74.21875 29.59375 74.21875 
Q 40.828125 74.21875 47.359375 69.109375 
Q 53.90625 64.015625 53.90625 55.328125 
Q 53.90625 49.265625 50.4375 45.09375 
Q 46.96875 40.921875 40.578125 39.3125 
z
" id="DejaVuSans-51"/>
       <path d="M 31.78125 66.40625 
Q 24.171875 66.40625 20.328125 58.90625 
Q 16.5 51.421875 16.5 36.375 
Q 16.5 21.390625 20.328125 13.890625 
Q 24.171875 6.390625 31.78125 6.390625 
Q 39.453125 6.390625 43.28125 13.890625 
Q 47.125 21.390625 47.125 36.375 
Q 47.125 51.421875 43.28125 58.90625 
Q 39.453125 66.40625 31.78125 66.40625 
z
M 31.78125 74.21875 
Q 44.046875 74.21875 50.515625 64.515625 
Q 56.984375 54.828125 56.984375 36.375 
Q 56.984375 17.96875 50.515625 8.265625 
Q 44.046875 -1.421875 31.78125 -1.421875 
Q 19.53125 -1.421875 13.0625 8.265625 
Q 6.59375 17.96875 6.59375 36.375 
Q 6.59375 54.828125 13.0625 64.515625 
Q 19.53125 74.21875 31.78125 74.21875 
z
" id="DejaVuSans-48"/>
      </defs>
      <g transform="translate(85.202664 322.182437)scale(0.1 -0.1)">
       <use xlink:href="#DejaVuSans-8722"/>
       <use x="83.789062" xlink:href="#DejaVuSans-51"/>
       <use x="147.412109" xlink:href="#DejaVuSans-48"/>
       <use x="211.035156" xlink:href="#DejaVuSans-48"/>
      </g>
     </g>
    </g>
    <g id="xtick_2">
     <g id="line2d_2">
      <g>
       <use style="stroke:#000000;stroke-width:0.8;" x="151.850813" xlink:href="#m6133dec66b" y="307.584"/>
      </g>
     </g>
     <g id="text_2">
      <!-- −200 -->
      <defs>
       <path d="M 19.1875 8.296875 
L 53.609375 8.296875 
L 53.609375 0 
L 7.328125 0 
L 7.328125 8.296875 
Q 12.9375 14.109375 22.625 23.890625 
Q 32.328125 33.6875 34.8125 36.53125 
Q 39.546875 41.84375 41.421875 45.53125 
Q 43.3125 49.21875 43.3125 52.78125 
Q 43.3125 58.59375 39.234375 62.25 
Q 35.15625 65.921875 28.609375 65.921875 
Q 23.96875 65.921875 18.8125 64.3125 
Q 13.671875 62.703125 7.8125 59.421875 
L 7.8125 69.390625 
Q 13.765625 71.78125 18.9375 73 
Q 24.125 74.21875 28.421875 74.21875 
Q 39.75 74.21875 46.484375 68.546875 
Q 53.21875 62.890625 53.21875 53.421875 
Q 53.21875 48.921875 51.53125 44.890625 
Q 49.859375 40.875 45.40625 35.40625 
Q 44.1875 33.984375 37.640625 27.21875 
Q 31.109375 20.453125 19.1875 8.296875 
z
" id="DejaVuSans-50"/>
      </defs>
      <g transform="translate(138.11722 322.182437)scale(0.1 -0.1)">
       <use xlink:href="#DejaVuSans-8722"/>
       <use x="83.789062" xlink:href="#DejaVuSans-50"/>
       <use x="147.412109" xlink:href="#DejaVuSans-48"/>
       <use x="211.035156" xlink:href="#DejaVuSans-48"/>
      </g>
     </g>
    </g>
    <g id="xtick_3">
     <g id="line2d_3">
      <g>
       <use style="stroke:#000000;stroke-width:0.8;" x="204.765369" xlink:href="#m6133dec66b" y="307.584"/>
      </g>
     </g>
     <g id="text_3">
      <!-- −100 -->
      <defs>
       <path d="M 12.40625 8.296875 
L 28.515625 8.296875 
L 28.515625 63.921875 
L 10.984375 60.40625 
L 10.984375 69.390625 
L 28.421875 72.90625 
L 38.28125 72.90625 
L 38.28125 8.296875 
L 54.390625 8.296875 
L 54.390625 0 
L 12.40625 0 
z
" id="DejaVuSans-49"/>
      </defs>
      <g transform="translate(191.031775 322.182437)scale(0.1 -0.1)">
       <use xlink:href="#DejaVuSans-8722"/>
       <use x="83.789062" xlink:href="#DejaVuSans-49"/>
       <use x="147.412109" xlink:href="#DejaVuSans-48"/>
       <use x="211.035156" xlink:href="#DejaVuSans-48"/>
      </g>
     </g>
    </g>
    <g id="xtick_4">
     <g id="line2d_4">
      <g>
       <use style="stroke:#000000;stroke-width:0.8;" x="257.679924" xlink:href="#m6133dec66b" y="307.584"/>
      </g>
     </g>
     <g id="text_4">
      <!-- 0 -->
      <g transform="translate(254.498674 322.182437)scale(0.1 -0.1)">
       <use xlink:href="#DejaVuSans-48"/>
      </g>
     </g>
    </g>
    <g id="xtick_5">
     <g id="line2d_5">
      <g>
       <use style="stroke:#000000;stroke-width:0.8;" x="310.594479" xlink:href="#m6133dec66b" y="307.584"/>
      </g>
     </g>
     <g id="text_5">
      <!-- 100 -->
      <g transform="translate(301.050729 322.182437)scale(0.1 -0.1)">
       <use xlink:href="#DejaVuSans-49"/>
       <use x="63.623047" xlink:href="#DejaVuSans-48"/>
       <use x="127.246094" xlink:href="#DejaVuSans-48"/>
      </g>
     </g>
    </g>
    <g id="xtick_6">
     <g id="line2d_6">
      <g>
       <use style="stroke:#000000;stroke-width:0.8;" x="363.509035" xlink:href="#m6133dec66b" y="307.584"/>
      </g>
     </g>
     <g id="text_6">
      <!-- 200 -->
      <g transform="translate(353.965285 322.182437)scale(0.1 -0.1)">
       <use xlink:href="#DejaVuSans-50"/>
       <use x="63.623047" xlink:href="#DejaVuSans-48"/>
       <use x="127.246094" xlink:href="#DejaVuSans-48"/>
      </g>
     </g>
    </g>
   </g>
   <g id="matplotlib.axis_2">
    <g id="ytick_1">
     <g id="line2d_7">
      <defs>
       <path d="M 0 0 
L -3.5 0 
" id="mab44982d0a" style="stroke:#000000;stroke-width:0.8;"/>
      </defs>
      <g>
       <use style="stroke:#000000;stroke-width:0.8;" x="57.6" xlink:href="#mab44982d0a" y="265.49058"/>
      </g>
     </g>
     <g id="text_7">
      <!-- −100 -->
      <g transform="translate(23.132812 269.289799)scale(0.1 -0.1)">
       <use xlink:href="#DejaVuSans-8722"/>
       <use x="83.789062" xlink:href="#DejaVuSans-49"/>
       <use x="147.412109" xlink:href="#DejaVuSans-48"/>
       <use x="211.035156" xlink:href="#DejaVuSans-48"/>
      </g>
     </g>
    </g>
    <g id="ytick_2">
     <g id="line2d_8">
      <g>
       <use style="stroke:#000000;stroke-width:0.8;" x="57.6" xlink:href="#mab44982d0a" y="212.576025"/>
      </g>
     </g>
     <g id="text_8">
      <!-- 0 -->
      <g transform="translate(44.2375 216.375243)scale(0.1 -0.1)">
       <use xlink:href="#DejaVuSans-48"/>
      </g>
     </g>
    </g>
    <g id="ytick_3">
     <g id="line2d_9">
      <g>
       <use style="stroke:#000000;stroke-width:0.8;" x="57.6" xlink:href="#mab44982d0a" y="159.661469"/>
      </g>
     </g>
     <g id="text_9">
      <!-- 100 -->
      <g transform="translate(31.5125 163.460688)scale(0.1 -0.1)">
       <use xlink:href="#DejaVuSans-49"/>
       <use x="63.623047" xlink:href="#DejaVuSans-48"/>
       <use x="127.246094" xlink:href="#DejaVuSans-48"/>
      </g>
     </g>
    </g>
    <g id="ytick_4">
     <g id="line2d_10">
      <g>
       <use style="stroke:#000000;stroke-width:0.8;" x="57.6" xlink:href="#mab44982d0a" y="106.746914"/>
      </g>
     </g>
     <g id="text_10">
      <!-- 200 -->
      <g transform="translate(31.5125 110.546133)scale(0.1 -0.1)">
       <use xlink:href="#DejaVuSans-50"/>
       <use x="63.623047" xlink:href="#DejaVuSans-48"/>
       <use x="127.246094" xlink:href="#DejaVuSans-48"/>
      </g>
     </g>
    </g>
    <g id="ytick_5">
     <g id="line2d_11">
      <g>
       <use style="stroke:#000000;stroke-width:0.8;" x="57.6" xlink:href="#mab44982d0a" y="53.832359"/>
      </g>
     </g>
     <g id="text_11">
      <!-- 300 -->
      <g transform="translate(31.5125 57.631577)scale(0.1 -0.1)">
       <use xlink:href="#DejaVuSans-51"/>
       <use x="63.623047" xlink:href="#DejaVuSans-48"/>
       <use x="127.246094" xlink:href="#DejaVuSans-48"/>
      </g>
     </g>
    </g>
   </g>
   <g id="line2d_12">
    <path clip-path="url(#p67a2da00a6)" d="M 257.679924 212.576025 
L 257.290546 188.555129 
L 256.97317 168.974891 
L 257.147541 162.252896 
L 257.556066 150.885061 
L 257.461189 141.67269 
L 257.002476 114.899248 
L 256.803673 102.667519 
L 256.641092 93.468959 
L 256.334099 83.805332 
L 256.409006 74.856105 
L 256.687412 69.053707 
L 256.929038 62.825928 
L 256.862068 59.11466 
L 256.651797 57.569502 
L 256.230387 56.231134 
L 255.579767 55.121675 
L 255.075123 54.573321 
L 254.077039 53.935542 
L 253.432352 53.73653 
L 252.080881 53.711026 
L 250.875218 54.131961 
L 249.681275 54.995632 
L 248.73529 56.014238 
L 247.887906 57.351388 
L 247.341203 58.552655 
L 246.772906 60.410855 
L 246.506174 61.965485 
L 246.364898 64.2506 
L 246.457149 66.722979 
L 247.204562 77.024702 
L 247.341478 83.48049 
L 247.581737 99.862254 
L 247.885059 119.049178 
L 247.784675 128.710211 
L 247.612353 147.495831 
L 247.779103 153.274418 
L 248.698408 171.711288 
L 248.884012 184.142288 
L 249.481734 231.000867 
L 249.89469 275.504024 
L 250.011536 291.733395 
L 250.360031 292.979903 
L 250.757414 293.759652 
L 251.280808 294.417062 
L 251.911671 294.927 
L 252.86137 295.337511 
L 253.605814 295.473607 
L 254.376384 295.449267 
L 255.151132 295.251789 
L 256.13354 294.710474 
L 256.804781 294.106507 
L 257.388324 293.340833 
L 257.851093 292.413347 
L 258.162988 291.33299 
L 258.393475 289.704492 
L 258.4571 287.390168 
L 258.395222 270.767537 
L 257.684663 217.684787 
L 257.362441 187.197617 
L 257.030618 174.530311 
L 256.937725 167.832794 
L 256.882074 157.614628 
L 256.644843 151.100529 
L 256.798393 146.715447 
L 257.252262 136.475634 
L 257.163204 128.234615 
L 256.77721 105.175458 
L 256.547755 90.653164 
L 256.364499 83.2855 
L 256.446142 73.653728 
L 256.714539 62.961601 
L 256.714539 62.961601 
" style="fill:none;stroke:#008000;stroke-linecap:square;stroke-width:1.5;"/>
   </g>
   <g id="line2d_13">
    <path clip-path="url(#p67a2da00a6)" d="M 257.679924 212.576025 
L 257.602853 165.298369 
L 258.289878 146.310582 
L 258.224041 125.583402 
L 257.966298 76.168786 
L 258.25786 69.941087 
L 258.69588 62.403253 
L 258.658468 58.462231 
L 258.310548 56.721879 
L 257.733941 55.528526 
L 257.139906 54.729956 
L 256.39662 54.094482 
L 255.560715 53.725124 
L 254.688912 53.57046 
L 253.750384 53.652948 
L 252.774357 53.984054 
L 252.029563 54.419729 
L 251.054642 55.252039 
L 250.337385 56.091701 
L 249.477586 57.469944 
L 248.753102 59.163275 
L 248.322098 60.610151 
L 247.972348 62.7677 
L 247.855795 65.153481 
L 247.963195 68.359663 
L 248.166659 74.604045 
L 248.147456 78.876323 
L 247.295007 112.678502 
L 246.803638 123.843219 
L 245.866124 140.703306 
L 245.674401 143.98734 
L 245.526864 146.73605 
L 245.407947 174.521836 
L 244.7149 194.510765 
L 243.658769 221.644452 
L 243.114506 235.901687 
L 241.749129 267.712431 
L 240.689736 287.614791 
L 240.56802 289.412886 
L 240.620538 290.982778 
L 240.878486 292.308472 
L 241.342568 293.388998 
L 242.242161 294.43525 
L 243.139846 294.98581 
L 244.116758 295.250133 
L 245.14965 295.226991 
L 246.197656 294.951972 
L 246.958207 294.534799 
L 247.868851 293.679619 
L 248.443966 292.846097 
L 248.863555 291.844815 
L 249.235102 290.287249 
L 249.486914 288.042348 
L 250.715434 267.244613 
L 251.323144 255.360055 
L 252.405781 232.798274 
L 252.674359 227.521213 
L 253.288675 217.224951 
L 253.82749 207.872639 
L 255.387101 175.492622 
L 255.813983 167.573034 
L 256.351885 158.524265 
L 256.574494 151.4367 
L 257.340537 144.48276 
L 258.060464 137.600222 
L 258.481188 130.173336 
L 258.93857 119.552116 
L 259.385605 110.668563 
L 261.20702 74.577785 
L 262.147468 63.470514 
L 262.147468 63.470514 
" style="fill:none;stroke:#0000ff;stroke-linecap:square;stroke-width:1.5;"/>
   </g>
   <g id="line2d_14">
    <path clip-path="url(#p67a2da00a6)" d="M 257.679924 212.576025 
L 257.693768 176.46139 
L 257.686189 174.570662 
L 257.864775 163.473077 
L 257.945725 162.25351 
L 257.988436 150.230099 
L 257.83593 136.294799 
L 257.809384 131.601338 
L 257.273825 93.937918 
L 257.132018 93.49944 
L 256.919638 79.60491 
L 256.851192 78.371782 
L 256.862573 73.131309 
L 257.205714 72.858113 
L 257.133805 71.9701 
L 256.80868 71.670778 
L 256.63647 67.166562 
L 256.592557 64.927982 
L 256.777968 64.528173 
L 256.476826 58.583883 
L 256.2137 57.137772 
L 255.730744 55.903373 
L 255.182954 55.072223 
L 254.481083 54.394095 
L 253.683615 53.951618 
L 252.8198 53.769694 
L 252.12885 53.766614 
L 251.142971 53.991997 
L 250.155713 54.52752 
L 249.190355 55.369815 
L 248.302585 56.562744 
L 247.970025 57.310058 
L 247.88704 57.725643 
L 248.386839 56.987528 
L 248.710681 56.652831 
L 249.106643 56.47723 
L 249.448617 56.687244 
L 249.444088 58.207655 
L 249.352374 58.734748 
L 250.754246 59.312191 
L 250.198924 64.277748 
L 249.089094 72.536923 
L 242.014908 120.983285 
L 240.556555 130.117948 
L 240.420716 131.406891 
L 240.711058 132.10446 
L 240.268047 132.715374 
L 240.507526 133.415043 
L 240.366405 133.768743 
L 240.455843 134.505366 
L 240.34413 135.598275 
L 240.37723 137.063222 
L 240.437495 137.417249 
L 238.447904 147.771388 
L 237.042279 154.788705 
L 234.55277 167.539213 
L 234.718263 168.237519 
L 226.028435 208.325077 
L 224.735491 214.113434 
L 224.743841 214.820744 
L 219.602948 238.046732 
L 215.878871 254.052515 
L 213.489089 264.604615 
L 210.333385 278.688854 
L 210.172532 280.468875 
L 210.281327 281.671879 
L 210.473132 282.190239 
L 210.896608 282.875161 
L 211.62829 283.587739 
L 212.267909 283.961238 
L 212.984902 284.188644 
L 213.763501 284.220436 
L 214.844633 284.015247 
L 215.661969 283.658718 
L 216.429729 283.095811 
L 217.135102 282.347006 
L 217.696816 281.379784 
L 218.126617 280.246058 
L 218.554453 278.514897 
L 220.233169 269.25476 
L 234.612346 187.215223 
L 237.559426 169.136744 
L 237.911869 166.545379 
L 246.577309 115.043056 
L 246.914262 114.373717 
L 248.027448 107.011965 
L 248.513575 104.122667 
L 248.51612 103.393779 
L 252.052867 82.45267 
L 253.197145 75.791459 
L 252.863436 75.61846 
L 254.496632 66.377416 
L 254.158061 66.063282 
L 254.295633 64.636742 
L 254.580778 62.694401 
L 255.127702 59.298836 
L 255.417337 57.383519 
L 255.417337 57.383519 
" style="fill:none;stroke:#ff0000;stroke-linecap:square;stroke-width:1.5;"/>
   </g>
   <g id="patch_3">
    <path d="M 57.6 307.584 
L 57.6 41.472 
" style="fill:none;stroke:#000000;stroke-linecap:square;stroke-linejoin:miter;stroke-width:0.8;"/>
   </g>
   <g id="patch_4">
    <path d="M 414.72 307.584 
L 414.72 41.472 
" style="fill:none;stroke:#000000;stroke-linecap:square;stroke-linejoin:miter;stroke-width:0.8;"/>
   </g>
   <g id="patch_5">
    <path d="M 57.6 307.584 
L 414.72 307.584 
" style="fill:none;stroke:#000000;stroke-linecap:square;stroke-linejoin:miter;stroke-width:0.8;"/>
   </g>
   <g id="patch_6">
    <path d="M 57.6 41.472 
L 414.72 41.472 
" style="fill:none;stroke:#000000;stroke-linecap:square;stroke-linejoin:miter;stroke-width:0.8;"/>
   </g>
  </g>
 </g>
 <defs>
  <clipPath id="p67a2da00a6">
   <rect height="266.112" width="357.12" x="57.6" y="41.472"/>
  </clipPath>
 </defs>
</svg>
