<?xml version="1.0" encoding="utf-8" standalone="no"?>
<!DOCTYPE svg PUBLIC "-//W3C//DTD SVG 1.1//EN"
  "http://www.w3.org/Graphics/SVG/1.1/DTD/svg11.dtd">
<!-- Created with matplotlib (https://matplotlib.org/) -->
<svg height="345.6pt" version="1.1" viewBox="0 0 460.8 345.6" width="460.8pt" xmlns="http://www.w3.org/2000/svg" xmlns:xlink="http://www.w3.org/1999/xlink">
 <defs>
  <style type="text/css">
*{stroke-linecap:butt;stroke-linejoin:round;}
  </style>
 </defs>
 <g id="figure_1">
  <g id="patch_1">
   <path d="M 0 345.6 
L 460.8 345.6 
L 460.8 0 
L 0 0 
z
" style="fill:#ffffff;"/>
  </g>
  <g id="axes_1">
   <g id="patch_2">
    <path d="M 57.6 307.584 
L 414.72 307.584 
L 414.72 41.472 
L 57.6 41.472 
z
" style="fill:#ffffff;"/>
   </g>
   <g id="matplotlib.axis_1">
    <g id="xtick_1">
     <g id="line2d_1">
      <defs>
       <path d="M 0 0 
L 0 3.5 
" id="mb04936e734" style="stroke:#000000;stroke-width:0.8;"/>
      </defs>
      <g>
       <use style="stroke:#000000;stroke-width:0.8;" x="82.576869" xlink:href="#mb04936e734" y="307.584"/>
      </g>
     </g>
     <g id="text_1">
      <!-- −300 -->
      <defs>
       <path d="M 10.59375 35.5 
L 73.1875 35.5 
L 73.1875 27.203125 
L 10.59375 27.203125 
z
" id="DejaVuSans-8722"/>
       <path d="M 40.578125 39.3125 
Q 47.65625 37.796875 51.625 33 
Q 55.609375 28.21875 55.609375 21.1875 
Q 55.609375 10.40625 48.1875 4.484375 
Q 40.765625 -1.421875 27.09375 -1.421875 
Q 22.515625 -1.421875 17.65625 -0.515625 
Q 12.796875 0.390625 7.625 2.203125 
L 7.625 11.71875 
Q 11.71875 9.328125 16.59375 8.109375 
Q 21.484375 6.890625 26.8125 6.890625 
Q 36.078125 6.890625 40.9375 10.546875 
Q 45.796875 14.203125 45.796875 21.1875 
Q 45.796875 27.640625 41.28125 31.265625 
Q 36.765625 34.90625 28.71875 34.90625 
L 20.21875 34.90625 
L 20.21875 43.015625 
L 29.109375 43.015625 
Q 36.375 43.015625 40.234375 45.921875 
Q 44.09375 48.828125 44.09375 54.296875 
Q 44.09375 59.90625 40.109375 62.90625 
Q 36.140625 65.921875 28.71875 65.921875 
Q 24.65625 65.921875 20.015625 65.03125 
Q 15.375 64.15625 9.8125 62.3125 
L 9.8125 71.09375 
Q 15.4375 72.65625 20.34375 73.4375 
Q 25.25 74.21875 29.59375 74.21875 
Q 40.828125 74.21875 47.359375 69.109375 
Q 53.90625 64.015625 53.90625 55.328125 
Q 53.90625 49.265625 50.4375 45.09375 
Q 46.96875 40.921875 40.578125 39.3125 
z
" id="DejaVuSans-51"/>
       <path d="M 31.78125 66.40625 
Q 24.171875 66.40625 20.328125 58.90625 
Q 16.5 51.421875 16.5 36.375 
Q 16.5 21.390625 20.328125 13.890625 
Q 24.171875 6.390625 31.78125 6.390625 
Q 39.453125 6.390625 43.28125 13.890625 
Q 47.125 21.390625 47.125 36.375 
Q 47.125 51.421875 43.28125 58.90625 
Q 39.453125 66.40625 31.78125 66.40625 
z
M 31.78125 74.21875 
Q 44.046875 74.21875 50.515625 64.515625 
Q 56.984375 54.828125 56.984375 36.375 
Q 56.984375 17.96875 50.515625 8.265625 
Q 44.046875 -1.421875 31.78125 -1.421875 
Q 19.53125 -1.421875 13.0625 8.265625 
Q 6.59375 17.96875 6.59375 36.375 
Q 6.59375 54.828125 13.0625 64.515625 
Q 19.53125 74.21875 31.78125 74.21875 
z
" id="DejaVuSans-48"/>
      </defs>
      <g transform="translate(68.843275 322.182437)scale(0.1 -0.1)">
       <use xlink:href="#DejaVuSans-8722"/>
       <use x="83.789062" xlink:href="#DejaVuSans-51"/>
       <use x="147.412109" xlink:href="#DejaVuSans-48"/>
       <use x="211.035156" xlink:href="#DejaVuSans-48"/>
      </g>
     </g>
    </g>
    <g id="xtick_2">
     <g id="line2d_2">
      <g>
       <use style="stroke:#000000;stroke-width:0.8;" x="135.490865" xlink:href="#mb04936e734" y="307.584"/>
      </g>
     </g>
     <g id="text_2">
      <!-- −200 -->
      <defs>
       <path d="M 19.1875 8.296875 
L 53.609375 8.296875 
L 53.609375 0 
L 7.328125 0 
L 7.328125 8.296875 
Q 12.9375 14.109375 22.625 23.890625 
Q 32.328125 33.6875 34.8125 36.53125 
Q 39.546875 41.84375 41.421875 45.53125 
Q 43.3125 49.21875 43.3125 52.78125 
Q 43.3125 58.59375 39.234375 62.25 
Q 35.15625 65.921875 28.609375 65.921875 
Q 23.96875 65.921875 18.8125 64.3125 
Q 13.671875 62.703125 7.8125 59.421875 
L 7.8125 69.390625 
Q 13.765625 71.78125 18.9375 73 
Q 24.125 74.21875 28.421875 74.21875 
Q 39.75 74.21875 46.484375 68.546875 
Q 53.21875 62.890625 53.21875 53.421875 
Q 53.21875 48.921875 51.53125 44.890625 
Q 49.859375 40.875 45.40625 35.40625 
Q 44.1875 33.984375 37.640625 27.21875 
Q 31.109375 20.453125 19.1875 8.296875 
z
" id="DejaVuSans-50"/>
      </defs>
      <g transform="translate(121.757271 322.182437)scale(0.1 -0.1)">
       <use xlink:href="#DejaVuSans-8722"/>
       <use x="83.789062" xlink:href="#DejaVuSans-50"/>
       <use x="147.412109" xlink:href="#DejaVuSans-48"/>
       <use x="211.035156" xlink:href="#DejaVuSans-48"/>
      </g>
     </g>
    </g>
    <g id="xtick_3">
     <g id="line2d_3">
      <g>
       <use style="stroke:#000000;stroke-width:0.8;" x="188.404861" xlink:href="#mb04936e734" y="307.584"/>
      </g>
     </g>
     <g id="text_3">
      <!-- −100 -->
      <defs>
       <path d="M 12.40625 8.296875 
L 28.515625 8.296875 
L 28.515625 63.921875 
L 10.984375 60.40625 
L 10.984375 69.390625 
L 28.421875 72.90625 
L 38.28125 72.90625 
L 38.28125 8.296875 
L 54.390625 8.296875 
L 54.390625 0 
L 12.40625 0 
z
" id="DejaVuSans-49"/>
      </defs>
      <g transform="translate(174.671267 322.182437)scale(0.1 -0.1)">
       <use xlink:href="#DejaVuSans-8722"/>
       <use x="83.789062" xlink:href="#DejaVuSans-49"/>
       <use x="147.412109" xlink:href="#DejaVuSans-48"/>
       <use x="211.035156" xlink:href="#DejaVuSans-48"/>
      </g>
     </g>
    </g>
    <g id="xtick_4">
     <g id="line2d_4">
      <g>
       <use style="stroke:#000000;stroke-width:0.8;" x="241.318857" xlink:href="#mb04936e734" y="307.584"/>
      </g>
     </g>
     <g id="text_4">
      <!-- 0 -->
      <g transform="translate(238.137607 322.182437)scale(0.1 -0.1)">
       <use xlink:href="#DejaVuSans-48"/>
      </g>
     </g>
    </g>
    <g id="xtick_5">
     <g id="line2d_5">
      <g>
       <use style="stroke:#000000;stroke-width:0.8;" x="294.232853" xlink:href="#mb04936e734" y="307.584"/>
      </g>
     </g>
     <g id="text_5">
      <!-- 100 -->
      <g transform="translate(284.689103 322.182437)scale(0.1 -0.1)">
       <use xlink:href="#DejaVuSans-49"/>
       <use x="63.623047" xlink:href="#DejaVuSans-48"/>
       <use x="127.246094" xlink:href="#DejaVuSans-48"/>
      </g>
     </g>
    </g>
    <g id="xtick_6">
     <g id="line2d_6">
      <g>
       <use style="stroke:#000000;stroke-width:0.8;" x="347.146849" xlink:href="#mb04936e734" y="307.584"/>
      </g>
     </g>
     <g id="text_6">
      <!-- 200 -->
      <g transform="translate(337.603099 322.182437)scale(0.1 -0.1)">
       <use xlink:href="#DejaVuSans-50"/>
       <use x="63.623047" xlink:href="#DejaVuSans-48"/>
       <use x="127.246094" xlink:href="#DejaVuSans-48"/>
      </g>
     </g>
    </g>
    <g id="xtick_7">
     <g id="line2d_7">
      <g>
       <use style="stroke:#000000;stroke-width:0.8;" x="400.060845" xlink:href="#mb04936e734" y="307.584"/>
      </g>
     </g>
     <g id="text_7">
      <!-- 300 -->
      <g transform="translate(390.517095 322.182437)scale(0.1 -0.1)">
       <use xlink:href="#DejaVuSans-51"/>
       <use x="63.623047" xlink:href="#DejaVuSans-48"/>
       <use x="127.246094" xlink:href="#DejaVuSans-48"/>
      </g>
     </g>
    </g>
   </g>
   <g id="matplotlib.axis_2">
    <g id="ytick_1">
     <g id="line2d_8">
      <defs>
       <path d="M 0 0 
L -3.5 0 
" id="mfb27609195" style="stroke:#000000;stroke-width:0.8;"/>
      </defs>
      <g>
       <use style="stroke:#000000;stroke-width:0.8;" x="57.6" xlink:href="#mfb27609195" y="265.490897"/>
      </g>
     </g>
     <g id="text_8">
      <!-- −100 -->
      <g transform="translate(23.132812 269.290116)scale(0.1 -0.1)">
       <use xlink:href="#DejaVuSans-8722"/>
       <use x="83.789062" xlink:href="#DejaVuSans-49"/>
       <use x="147.412109" xlink:href="#DejaVuSans-48"/>
       <use x="211.035156" xlink:href="#DejaVuSans-48"/>
      </g>
     </g>
    </g>
    <g id="ytick_2">
     <g id="line2d_9">
      <g>
       <use style="stroke:#000000;stroke-width:0.8;" x="57.6" xlink:href="#mfb27609195" y="212.576901"/>
      </g>
     </g>
     <g id="text_9">
      <!-- 0 -->
      <g transform="translate(44.2375 216.37612)scale(0.1 -0.1)">
       <use xlink:href="#DejaVuSans-48"/>
      </g>
     </g>
    </g>
    <g id="ytick_3">
     <g id="line2d_10">
      <g>
       <use style="stroke:#000000;stroke-width:0.8;" x="57.6" xlink:href="#mfb27609195" y="159.662905"/>
      </g>
     </g>
     <g id="text_10">
      <!-- 100 -->
      <g transform="translate(31.5125 163.462124)scale(0.1 -0.1)">
       <use xlink:href="#DejaVuSans-49"/>
       <use x="63.623047" xlink:href="#DejaVuSans-48"/>
       <use x="127.246094" xlink:href="#DejaVuSans-48"/>
      </g>
     </g>
    </g>
    <g id="ytick_4">
     <g id="line2d_11">
      <g>
       <use style="stroke:#000000;stroke-width:0.8;" x="57.6" xlink:href="#mfb27609195" y="106.748909"/>
      </g>
     </g>
     <g id="text_11">
      <!-- 200 -->
      <g transform="translate(31.5125 110.548128)scale(0.1 -0.1)">
       <use xlink:href="#DejaVuSans-50"/>
       <use x="63.623047" xlink:href="#DejaVuSans-48"/>
       <use x="127.246094" xlink:href="#DejaVuSans-48"/>
      </g>
     </g>
    </g>
    <g id="ytick_5">
     <g id="line2d_12">
      <g>
       <use style="stroke:#000000;stroke-width:0.8;" x="57.6" xlink:href="#mfb27609195" y="53.834913"/>
      </g>
     </g>
     <g id="text_12">
      <!-- 300 -->
      <g transform="translate(31.5125 57.634132)scale(0.1 -0.1)">
       <use xlink:href="#DejaVuSans-51"/>
       <use x="63.623047" xlink:href="#DejaVuSans-48"/>
       <use x="127.246094" xlink:href="#DejaVuSans-48"/>
      </g>
     </g>
    </g>
   </g>
   <g id="line2d_13">
    <path clip-path="url(#pea79b04a07)" d="M 241.318857 212.576901 
L 240.929483 188.556259 
L 240.61211 168.976229 
L 240.786479 162.254304 
L 241.195 150.886589 
L 241.100124 141.674316 
L 240.641416 114.901157 
L 240.442615 102.669557 
L 240.280035 93.471094 
L 239.973046 83.80757 
L 240.047952 74.858437 
L 240.326355 69.0561 
L 240.567979 62.828387 
L 240.501009 59.117158 
L 240.290741 57.572017 
L 239.869335 56.233663 
L 239.218722 55.124215 
L 238.714084 54.575867 
L 237.716009 53.938095 
L 237.07133 53.739086 
L 235.719873 53.713581 
L 234.514223 54.134512 
L 233.320292 54.998174 
L 232.374317 56.016769 
L 231.526942 57.353905 
L 230.980245 58.555159 
L 230.411954 60.41334 
L 230.145225 61.967953 
L 230.00395 64.253044 
L 230.0962 66.725397 
L 230.843605 77.027011 
L 230.98052 83.482731 
L 231.220776 99.864322 
L 231.524095 119.051043 
L 231.423712 128.711974 
L 231.251392 147.497395 
L 231.41814 153.275921 
L 232.337436 171.712596 
L 232.523037 184.143465 
L 233.120754 231.001549 
L 233.533705 275.504236 
L 233.65055 291.733434 
L 233.999041 292.97993 
L 234.39642 293.75967 
L 234.919808 294.417074 
L 235.550665 294.927006 
L 236.500353 295.337513 
L 237.24479 295.473607 
L 238.015351 295.449267 
L 238.790091 295.251792 
L 239.772489 294.710482 
L 240.443723 294.106521 
L 241.02726 293.340856 
L 241.490024 292.413379 
L 241.801915 291.333034 
L 242.0324 289.704553 
L 242.096025 287.390254 
L 242.034147 270.767798 
L 241.323596 217.685609 
L 241.001377 187.198761 
L 240.669558 174.53159 
L 240.576666 167.834143 
L 240.521015 157.616086 
L 240.283787 151.102055 
L 240.437335 146.71702 
L 240.891199 136.477315 
L 240.802142 128.236383 
L 240.416152 105.177469 
L 240.1867 90.655329 
L 240.003446 83.287743 
L 240.085088 73.656072 
L 240.353482 62.964059 
L 240.353482 62.964059 
" style="fill:none;stroke:#008000;stroke-linecap:square;stroke-width:1.5;"/>
   </g>
   <g id="line2d_14">
    <path clip-path="url(#pea79b04a07)" d="M 241.318857 212.576901 
L 241.241787 165.299745 
L 241.928804 146.312159 
L 241.862968 125.585198 
L 241.605228 76.171104 
L 241.896786 69.943471 
L 242.334802 62.405717 
L 242.29739 58.464736 
L 241.949474 56.724402 
L 241.372873 55.531062 
L 240.778845 54.732501 
L 240.035566 54.097034 
L 239.19967 53.727679 
L 238.327876 53.573017 
L 237.389358 53.655504 
L 236.413341 53.986607 
L 235.668556 54.422277 
L 234.693645 55.254579 
L 233.976395 56.094232 
L 233.116605 57.47246 
L 232.392129 59.165773 
L 231.96113 60.612633 
L 231.611383 62.770159 
L 231.494832 65.155915 
L 231.60223 68.362064 
L 231.805692 74.60638 
L 231.78649 78.878613 
L 230.934049 112.680434 
L 230.442686 123.845033 
L 229.505182 140.704942 
L 229.31346 143.988942 
L 229.165925 146.737622 
L 229.047009 174.523114 
L 228.35397 194.511832 
L 227.29785 221.645232 
L 226.753593 235.902316 
L 225.38823 267.712725 
L 224.328848 287.614875 
L 224.207134 289.41295 
L 224.259651 290.982826 
L 224.517597 292.308505 
L 224.981673 293.38902 
L 225.881257 294.435261 
L 226.778933 294.985816 
L 227.755834 295.250135 
L 228.788715 295.226994 
L 229.83671 294.951978 
L 230.597253 294.534809 
L 231.507888 293.679638 
L 232.082997 292.846125 
L 232.502581 291.844854 
L 232.874124 290.287304 
L 233.125933 288.042426 
L 234.354441 267.244911 
L 234.962144 255.360479 
L 236.044769 232.798937 
L 236.313345 227.521931 
L 236.927654 217.225778 
L 237.466463 207.873565 
L 239.026058 175.49389 
L 239.452935 167.574386 
L 239.990831 158.525713 
L 240.213438 151.438222 
L 240.979473 144.484356 
L 241.699393 137.601891 
L 242.120112 130.175083 
L 242.577489 119.553975 
L 243.02452 110.670516 
L 244.845915 74.58012 
L 245.786354 63.472966 
L 245.786354 63.472966 
" style="fill:none;stroke:#0000ff;stroke-linecap:square;stroke-width:1.5;"/>
   </g>
   <g id="line2d_15">
    <path clip-path="url(#pea79b04a07)" d="M 241.318857 212.576901 
L 241.241847 165.908189 
L 241.449323 161.639188 
L 241.90924 151.531134 
L 241.953942 144.330597 
L 241.827448 100.869117 
L 241.8065 94.884242 
L 241.606527 82.673521 
L 241.85414 72.181176 
L 242.447121 62.408511 
L 242.413975 58.467576 
L 242.06811 56.726879 
L 241.492982 55.532864 
L 240.899961 54.73356 
L 240.1575 54.097125 
L 239.322098 53.726653 
L 238.450507 53.570781 
L 237.511839 53.651915 
L 236.535291 53.981557 
L 235.789798 54.416071 
L 234.813547 55.246832 
L 234.094948 56.085338 
L 233.232952 57.462183 
L 232.50575 59.154311 
L 232.072451 60.600464 
L 231.71933 62.757411 
L 231.599047 65.142959 
L 231.701309 68.349253 
L 231.894942 74.593839 
L 231.8693 78.866004 
L 230.964448 112.666296 
L 230.456537 123.830139 
L 229.494749 140.688686 
L 229.297684 143.972366 
L 229.145446 146.720788 
L 228.975671 174.505962 
L 228.250701 194.493566 
L 227.159513 221.625708 
L 226.600555 235.88231 
L 225.17719 268.375733 
L 224.20288 286.600717 
L 224.03737 290.589218 
L 224.241441 291.977733 
L 224.651507 293.114599 
L 224.793714 293.368182 
L 224.654563 293.120398 
L 225.069793 293.448842 
L 225.657029 294.008275 
L 226.575295 294.485597 
L 227.564125 294.699153 
L 228.873722 294.559708 
L 229.649633 294.282917 
L 230.404344 293.799004 
L 231.289419 292.896447 
L 231.824043 292.010375 
L 232.217049 290.956937 
L 232.560549 289.349035 
L 232.890939 286.047785 
L 233.227026 281.652034 
L 234.690722 259.642092 
L 236.871716 224.076495 
L 238.082279 207.421961 
L 240.056909 175.066352 
L 240.586401 167.153353 
L 241.243013 158.113024 
L 241.558783 151.029533 
L 242.415612 144.086448 
L 243.224617 137.214035 
L 243.743382 129.79385 
L 244.343191 119.180648 
L 244.909907 110.304687 
L 246.25728 86.561562 
L 246.840158 78.556389 
L 247.815461 68.543528 
L 248.315158 63.15263 
L 248.315158 63.15263 
" style="fill:none;stroke:#ff0000;stroke-linecap:square;stroke-width:1.5;"/>
   </g>
   <g id="patch_3">
    <path d="M 57.6 307.584 
L 57.6 41.472 
" style="fill:none;stroke:#000000;stroke-linecap:square;stroke-linejoin:miter;stroke-width:0.8;"/>
   </g>
   <g id="patch_4">
    <path d="M 414.72 307.584 
L 414.72 41.472 
" style="fill:none;stroke:#000000;stroke-linecap:square;stroke-linejoin:miter;stroke-width:0.8;"/>
   </g>
   <g id="patch_5">
    <path d="M 57.6 307.584 
L 414.72 307.584 
" style="fill:none;stroke:#000000;stroke-linecap:square;stroke-linejoin:miter;stroke-width:0.8;"/>
   </g>
   <g id="patch_6">
    <path d="M 57.6 41.472 
L 414.72 41.472 
" style="fill:none;stroke:#000000;stroke-linecap:square;stroke-linejoin:miter;stroke-width:0.8;"/>
   </g>
  </g>
 </g>
 <defs>
  <clipPath id="pea79b04a07">
   <rect height="266.112" width="357.12" x="57.6" y="41.472"/>
  </clipPath>
 </defs>
</svg>
