<?xml version="1.0" encoding="utf-8" standalone="no"?>
<!DOCTYPE svg PUBLIC "-//W3C//DTD SVG 1.1//EN"
  "http://www.w3.org/Graphics/SVG/1.1/DTD/svg11.dtd">
<!-- Created with matplotlib (https://matplotlib.org/) -->
<svg height="345.6pt" version="1.1" viewBox="0 0 460.8 345.6" width="460.8pt" xmlns="http://www.w3.org/2000/svg" xmlns:xlink="http://www.w3.org/1999/xlink">
 <defs>
  <style type="text/css">
*{stroke-linecap:butt;stroke-linejoin:round;}
  </style>
 </defs>
 <g id="figure_1">
  <g id="patch_1">
   <path d="M 0 345.6 
L 460.8 345.6 
L 460.8 0 
L 0 0 
z
" style="fill:#ffffff;"/>
  </g>
  <g id="axes_1">
   <g id="patch_2">
    <path d="M 57.6 307.584 
L 414.72 307.584 
L 414.72 41.472 
L 57.6 41.472 
z
" style="fill:#ffffff;"/>
   </g>
   <g id="matplotlib.axis_1">
    <g id="xtick_1">
     <g id="line2d_1">
      <defs>
       <path d="M 0 0 
L 0 3.5 
" id="m1e4913653b" style="stroke:#000000;stroke-width:0.8;"/>
      </defs>
      <g>
       <use style="stroke:#000000;stroke-width:0.8;" x="79.20653" xlink:href="#m1e4913653b" y="307.584"/>
      </g>
     </g>
     <g id="text_1">
      <!-- −200 -->
      <defs>
       <path d="M 10.59375 35.5 
L 73.1875 35.5 
L 73.1875 27.203125 
L 10.59375 27.203125 
z
" id="DejaVuSans-8722"/>
       <path d="M 19.1875 8.296875 
L 53.609375 8.296875 
L 53.609375 0 
L 7.328125 0 
L 7.328125 8.296875 
Q 12.9375 14.109375 22.625 23.890625 
Q 32.328125 33.6875 34.8125 36.53125 
Q 39.546875 41.84375 41.421875 45.53125 
Q 43.3125 49.21875 43.3125 52.78125 
Q 43.3125 58.59375 39.234375 62.25 
Q 35.15625 65.921875 28.609375 65.921875 
Q 23.96875 65.921875 18.8125 64.3125 
Q 13.671875 62.703125 7.8125 59.421875 
L 7.8125 69.390625 
Q 13.765625 71.78125 18.9375 73 
Q 24.125 74.21875 28.421875 74.21875 
Q 39.75 74.21875 46.484375 68.546875 
Q 53.21875 62.890625 53.21875 53.421875 
Q 53.21875 48.921875 51.53125 44.890625 
Q 49.859375 40.875 45.40625 35.40625 
Q 44.1875 33.984375 37.640625 27.21875 
Q 31.109375 20.453125 19.1875 8.296875 
z
" id="DejaVuSans-50"/>
       <path d="M 31.78125 66.40625 
Q 24.171875 66.40625 20.328125 58.90625 
Q 16.5 51.421875 16.5 36.375 
Q 16.5 21.390625 20.328125 13.890625 
Q 24.171875 6.390625 31.78125 6.390625 
Q 39.453125 6.390625 43.28125 13.890625 
Q 47.125 21.390625 47.125 36.375 
Q 47.125 51.421875 43.28125 58.90625 
Q 39.453125 66.40625 31.78125 66.40625 
z
M 31.78125 74.21875 
Q 44.046875 74.21875 50.515625 64.515625 
Q 56.984375 54.828125 56.984375 36.375 
Q 56.984375 17.96875 50.515625 8.265625 
Q 44.046875 -1.421875 31.78125 -1.421875 
Q 19.53125 -1.421875 13.0625 8.265625 
Q 6.59375 17.96875 6.59375 36.375 
Q 6.59375 54.828125 13.0625 64.515625 
Q 19.53125 74.21875 31.78125 74.21875 
z
" id="DejaVuSans-48"/>
      </defs>
      <g transform="translate(65.472936 322.182437)scale(0.1 -0.1)">
       <use xlink:href="#DejaVuSans-8722"/>
       <use x="83.789062" xlink:href="#DejaVuSans-50"/>
       <use x="147.412109" xlink:href="#DejaVuSans-48"/>
       <use x="211.035156" xlink:href="#DejaVuSans-48"/>
      </g>
     </g>
    </g>
    <g id="xtick_2">
     <g id="line2d_2">
      <g>
       <use style="stroke:#000000;stroke-width:0.8;" x="119.915911" xlink:href="#m1e4913653b" y="307.584"/>
      </g>
     </g>
     <g id="text_2">
      <!-- −150 -->
      <defs>
       <path d="M 12.40625 8.296875 
L 28.515625 8.296875 
L 28.515625 63.921875 
L 10.984375 60.40625 
L 10.984375 69.390625 
L 28.421875 72.90625 
L 38.28125 72.90625 
L 38.28125 8.296875 
L 54.390625 8.296875 
L 54.390625 0 
L 12.40625 0 
z
" id="DejaVuSans-49"/>
       <path d="M 10.796875 72.90625 
L 49.515625 72.90625 
L 49.515625 64.59375 
L 19.828125 64.59375 
L 19.828125 46.734375 
Q 21.96875 47.46875 24.109375 47.828125 
Q 26.265625 48.1875 28.421875 48.1875 
Q 40.625 48.1875 47.75 41.5 
Q 54.890625 34.8125 54.890625 23.390625 
Q 54.890625 11.625 47.5625 5.09375 
Q 40.234375 -1.421875 26.90625 -1.421875 
Q 22.3125 -1.421875 17.546875 -0.640625 
Q 12.796875 0.140625 7.71875 1.703125 
L 7.71875 11.625 
Q 12.109375 9.234375 16.796875 8.0625 
Q 21.484375 6.890625 26.703125 6.890625 
Q 35.15625 6.890625 40.078125 11.328125 
Q 45.015625 15.765625 45.015625 23.390625 
Q 45.015625 31 40.078125 35.4375 
Q 35.15625 39.890625 26.703125 39.890625 
Q 22.75 39.890625 18.8125 39.015625 
Q 14.890625 38.140625 10.796875 36.28125 
z
" id="DejaVuSans-53"/>
      </defs>
      <g transform="translate(106.182318 322.182437)scale(0.1 -0.1)">
       <use xlink:href="#DejaVuSans-8722"/>
       <use x="83.789062" xlink:href="#DejaVuSans-49"/>
       <use x="147.412109" xlink:href="#DejaVuSans-53"/>
       <use x="211.035156" xlink:href="#DejaVuSans-48"/>
      </g>
     </g>
    </g>
    <g id="xtick_3">
     <g id="line2d_3">
      <g>
       <use style="stroke:#000000;stroke-width:0.8;" x="160.625293" xlink:href="#m1e4913653b" y="307.584"/>
      </g>
     </g>
     <g id="text_3">
      <!-- −100 -->
      <g transform="translate(146.891699 322.182437)scale(0.1 -0.1)">
       <use xlink:href="#DejaVuSans-8722"/>
       <use x="83.789062" xlink:href="#DejaVuSans-49"/>
       <use x="147.412109" xlink:href="#DejaVuSans-48"/>
       <use x="211.035156" xlink:href="#DejaVuSans-48"/>
      </g>
     </g>
    </g>
    <g id="xtick_4">
     <g id="line2d_4">
      <g>
       <use style="stroke:#000000;stroke-width:0.8;" x="201.334675" xlink:href="#m1e4913653b" y="307.584"/>
      </g>
     </g>
     <g id="text_4">
      <!-- −50 -->
      <g transform="translate(190.782331 322.182437)scale(0.1 -0.1)">
       <use xlink:href="#DejaVuSans-8722"/>
       <use x="83.789062" xlink:href="#DejaVuSans-53"/>
       <use x="147.412109" xlink:href="#DejaVuSans-48"/>
      </g>
     </g>
    </g>
    <g id="xtick_5">
     <g id="line2d_5">
      <g>
       <use style="stroke:#000000;stroke-width:0.8;" x="242.044056" xlink:href="#m1e4913653b" y="307.584"/>
      </g>
     </g>
     <g id="text_5">
      <!-- 0 -->
      <g transform="translate(238.862806 322.182437)scale(0.1 -0.1)">
       <use xlink:href="#DejaVuSans-48"/>
      </g>
     </g>
    </g>
    <g id="xtick_6">
     <g id="line2d_6">
      <g>
       <use style="stroke:#000000;stroke-width:0.8;" x="282.753438" xlink:href="#m1e4913653b" y="307.584"/>
      </g>
     </g>
     <g id="text_6">
      <!-- 50 -->
      <g transform="translate(276.390938 322.182437)scale(0.1 -0.1)">
       <use xlink:href="#DejaVuSans-53"/>
       <use x="63.623047" xlink:href="#DejaVuSans-48"/>
      </g>
     </g>
    </g>
    <g id="xtick_7">
     <g id="line2d_7">
      <g>
       <use style="stroke:#000000;stroke-width:0.8;" x="323.462819" xlink:href="#m1e4913653b" y="307.584"/>
      </g>
     </g>
     <g id="text_7">
      <!-- 100 -->
      <g transform="translate(313.919069 322.182437)scale(0.1 -0.1)">
       <use xlink:href="#DejaVuSans-49"/>
       <use x="63.623047" xlink:href="#DejaVuSans-48"/>
       <use x="127.246094" xlink:href="#DejaVuSans-48"/>
      </g>
     </g>
    </g>
    <g id="xtick_8">
     <g id="line2d_8">
      <g>
       <use style="stroke:#000000;stroke-width:0.8;" x="364.172201" xlink:href="#m1e4913653b" y="307.584"/>
      </g>
     </g>
     <g id="text_8">
      <!-- 150 -->
      <g transform="translate(354.628451 322.182437)scale(0.1 -0.1)">
       <use xlink:href="#DejaVuSans-49"/>
       <use x="63.623047" xlink:href="#DejaVuSans-53"/>
       <use x="127.246094" xlink:href="#DejaVuSans-48"/>
      </g>
     </g>
    </g>
    <g id="xtick_9">
     <g id="line2d_9">
      <g>
       <use style="stroke:#000000;stroke-width:0.8;" x="404.881582" xlink:href="#m1e4913653b" y="307.584"/>
      </g>
     </g>
     <g id="text_9">
      <!-- 200 -->
      <g transform="translate(395.337832 322.182437)scale(0.1 -0.1)">
       <use xlink:href="#DejaVuSans-50"/>
       <use x="63.623047" xlink:href="#DejaVuSans-48"/>
       <use x="127.246094" xlink:href="#DejaVuSans-48"/>
      </g>
     </g>
    </g>
   </g>
   <g id="matplotlib.axis_2">
    <g id="ytick_1">
     <g id="line2d_10">
      <defs>
       <path d="M 0 0 
L -3.5 0 
" id="m1758b86c45" style="stroke:#000000;stroke-width:0.8;"/>
      </defs>
      <g>
       <use style="stroke:#000000;stroke-width:0.8;" x="57.6" xlink:href="#m1758b86c45" y="290.714046"/>
      </g>
     </g>
     <g id="text_10">
      <!-- −150 -->
      <g transform="translate(23.132812 294.513264)scale(0.1 -0.1)">
       <use xlink:href="#DejaVuSans-8722"/>
       <use x="83.789062" xlink:href="#DejaVuSans-49"/>
       <use x="147.412109" xlink:href="#DejaVuSans-53"/>
       <use x="211.035156" xlink:href="#DejaVuSans-48"/>
      </g>
     </g>
    </g>
    <g id="ytick_2">
     <g id="line2d_11">
      <g>
       <use style="stroke:#000000;stroke-width:0.8;" x="57.6" xlink:href="#m1758b86c45" y="250.004664"/>
      </g>
     </g>
     <g id="text_11">
      <!-- −100 -->
      <g transform="translate(23.132812 253.803883)scale(0.1 -0.1)">
       <use xlink:href="#DejaVuSans-8722"/>
       <use x="83.789062" xlink:href="#DejaVuSans-49"/>
       <use x="147.412109" xlink:href="#DejaVuSans-48"/>
       <use x="211.035156" xlink:href="#DejaVuSans-48"/>
      </g>
     </g>
    </g>
    <g id="ytick_3">
     <g id="line2d_12">
      <g>
       <use style="stroke:#000000;stroke-width:0.8;" x="57.6" xlink:href="#m1758b86c45" y="209.295282"/>
      </g>
     </g>
     <g id="text_12">
      <!-- −50 -->
      <g transform="translate(29.495313 213.094501)scale(0.1 -0.1)">
       <use xlink:href="#DejaVuSans-8722"/>
       <use x="83.789062" xlink:href="#DejaVuSans-53"/>
       <use x="147.412109" xlink:href="#DejaVuSans-48"/>
      </g>
     </g>
    </g>
    <g id="ytick_4">
     <g id="line2d_13">
      <g>
       <use style="stroke:#000000;stroke-width:0.8;" x="57.6" xlink:href="#m1758b86c45" y="168.585901"/>
      </g>
     </g>
     <g id="text_13">
      <!-- 0 -->
      <g transform="translate(44.2375 172.38512)scale(0.1 -0.1)">
       <use xlink:href="#DejaVuSans-48"/>
      </g>
     </g>
    </g>
    <g id="ytick_5">
     <g id="line2d_14">
      <g>
       <use style="stroke:#000000;stroke-width:0.8;" x="57.6" xlink:href="#m1758b86c45" y="127.876519"/>
      </g>
     </g>
     <g id="text_14">
      <!-- 50 -->
      <g transform="translate(37.875 131.675738)scale(0.1 -0.1)">
       <use xlink:href="#DejaVuSans-53"/>
       <use x="63.623047" xlink:href="#DejaVuSans-48"/>
      </g>
     </g>
    </g>
    <g id="ytick_6">
     <g id="line2d_15">
      <g>
       <use style="stroke:#000000;stroke-width:0.8;" x="57.6" xlink:href="#m1758b86c45" y="87.167138"/>
      </g>
     </g>
     <g id="text_15">
      <!-- 100 -->
      <g transform="translate(31.5125 90.966356)scale(0.1 -0.1)">
       <use xlink:href="#DejaVuSans-49"/>
       <use x="63.623047" xlink:href="#DejaVuSans-48"/>
       <use x="127.246094" xlink:href="#DejaVuSans-48"/>
      </g>
     </g>
    </g>
    <g id="ytick_7">
     <g id="line2d_16">
      <g>
       <use style="stroke:#000000;stroke-width:0.8;" x="57.6" xlink:href="#m1758b86c45" y="46.457756"/>
      </g>
     </g>
     <g id="text_16">
      <!-- 150 -->
      <g transform="translate(31.5125 50.256975)scale(0.1 -0.1)">
       <use xlink:href="#DejaVuSans-49"/>
       <use x="63.623047" xlink:href="#DejaVuSans-53"/>
       <use x="127.246094" xlink:href="#DejaVuSans-48"/>
      </g>
     </g>
    </g>
   </g>
   <g id="line2d_17">
    <path clip-path="url(#pb3b76004d5)" d="M 242.044056 168.585901 
L 241.896195 167.567044 
L 241.539183 166.657301 
L 241.032213 165.872128 
L 240.440627 165.28885 
L 239.659207 164.76925 
L 238.643089 164.390011 
L 237.402082 164.187908 
L 235.57093 164.198014 
L 231.488708 164.594906 
L 223.184092 165.352746 
L 207.550834 166.661917 
L 187.544754 168.370451 
L 185.902464 168.174833 
L 184.830709 167.856734 
L 183.869177 167.353579 
L 183.009412 166.715757 
L 182.071549 165.691965 
L 181.467104 164.744148 
L 180.812611 163.197529 
L 180.298525 161.360471 
L 179.76445 158.741151 
L 179.3183 155.195087 
L 178.845102 149.552099 
L 176.403525 117.025132 
L 175.751564 111.169145 
L 174.780629 105.62346 
L 174.086045 102.628072 
L 173.059965 99.133261 
L 171.795711 95.69892 
L 170.047202 91.746316 
L 167.84629 87.240822 
L 165.19931 82.355045 
L 161.566917 76.252464 
L 159.737503 73.460452 
L 158.527946 71.956891 
L 157.553282 71.189682 
L 156.610371 70.732435 
L 155.462692 70.432651 
L 154.41296 70.359537 
L 152.887335 70.576925 
L 151.177704 71.234463 
L 149.697674 72.147818 
L 147.240537 74.001317 
L 141.923077 78.396057 
L 120.865824 96.227857 
L 110.552754 104.896179 
L 102.994568 111.211727 
L 94.560806 118.219798 
L 92.254131 120.356927 
L 90.971948 121.804031 
L 90.234701 122.937592 
L 89.692778 124.092509 
L 89.277461 125.648006 
L 89.18733 127.222393 
L 89.367754 128.727573 
L 89.868317 130.115698 
L 90.605238 131.442197 
L 91.74738 133.045406 
L 94.581161 136.480488 
L 99.421343 142.29036 
L 106.415459 150.748141 
L 113.73354 160.099534 
L 114.856794 161.919757 
L 115.785049 163.819441 
L 116.725436 166.419935 
L 117.378333 169.143554 
L 117.85219 171.992796 
L 118.711239 179.727537 
L 120.485517 196.652878 
L 121.303287 207.343341 
L 122.402278 221.314011 
L 122.704504 226.027612 
L 122.749203 230.667065 
L 122.747819 235.369926 
L 122.695711 235.573546 
L 122.759462 235.91763 
L 123.368148 237.214843 
L 123.884669 237.871257 
L 125.010935 238.872464 
L 126.019632 239.491898 
L 127.738545 240.172787 
L 129.272067 240.510251 
L 131.628163 240.729056 
L 135.016894 240.805231 
L 142.262838 240.53431 
L 150.707104 239.859267 
L 171.768037 238.208144 
L 180.023435 237.535364 
L 204.661567 235.412117 
L 225.630734 233.868296 
L 233.320793 233.255489 
L 236.12303 232.858271 
L 238.475759 232.294911 
L 240.101726 231.688666 
L 241.552549 230.898237 
L 242.467872 230.12348 
L 243.243392 229.250468 
L 244.023916 227.914777 
L 244.417936 226.809924 
L 244.757573 225.261559 
L 244.993921 222.733938 
L 245.027258 219.819008 
L 244.721578 213.337838 
L 244.276546 207.733833 
L 241.896097 174.177407 
L 241.698769 171.660347 
L 241.6907 167.371038 
L 241.728326 166.102091 
L 241.498988 164.300933 
L 241.119172 162.920366 
L 241.119172 162.920366 
" style="fill:none;stroke:#008000;stroke-linecap:square;stroke-width:1.5;"/>
   </g>
   <g id="line2d_18">
    <path clip-path="url(#pb3b76004d5)" d="M 242.044056 168.585901 
L 242.025603 167.409868 
L 242.285647 166.246156 
L 242.81232 165.187966 
L 243.407493 164.500376 
L 244.241393 163.872347 
L 245.344778 163.361283 
L 246.69317 163.011976 
L 249.126691 162.652304 
L 264.515293 160.688566 
L 286.428767 157.810284 
L 293.350973 156.941017 
L 295.668083 156.456331 
L 297.148834 155.878984 
L 298.075798 155.273137 
L 298.875679 154.559606 
L 299.530091 153.719037 
L 300.193832 152.494538 
L 300.545138 151.385908 
L 300.828873 149.669399 
L 300.927853 146.652056 
L 300.755231 143.208411 
L 300.257411 138.224419 
L 295.867009 104.680298 
L 295.24684 98.150816 
L 295.028254 91.297159 
L 295.161565 88.257434 
L 295.46434 85.222034 
L 296.157423 80.997023 
L 297.098699 76.760052 
L 298.505941 71.300851 
L 299.712224 67.197075 
L 301.911456 60.618715 
L 303.604317 56.532736 
L 304.36431 55.495436 
L 304.986668 54.873896 
L 305.864127 54.280724 
L 306.922077 53.842598 
L 308.037801 53.610836 
L 309.326398 53.594266 
L 310.804752 53.848957 
L 312.449416 54.416803 
L 315.752022 55.95062 
L 325.912071 61.216925 
L 364.321389 81.853669 
L 376.447537 88.30564 
L 379.097064 89.906486 
L 380.578997 91.090091 
L 381.488712 92.060174 
L 382.223682 93.072609 
L 382.897849 94.519134 
L 383.200924 95.661353 
L 383.351291 97.169002 
L 383.248791 98.266903 
L 382.982727 99.358309 
L 382.284291 101.160532 
L 380.79577 104.168636 
L 372.870975 119.62418 
L 367.842189 129.72784 
L 366.356967 133.040009 
L 365.442628 135.732014 
L 364.96849 137.776933 
L 364.71396 139.833971 
L 364.626408 142.630676 
L 364.764332 145.514195 
L 366.4594 162.557302 
L 367.552817 171.840119 
L 371.16762 198.096246 
L 372.335274 203.880102 
L 372.750996 206.116221 
L 372.553133 206.204709 
L 372.890466 207.576981 
L 372.913003 207.689386 
L 372.836322 207.392802 
L 372.777928 207.475678 
L 372.25189 206.976825 
L 371.750878 206.283794 
L 370.865711 205.480901 
L 369.71636 204.806994 
L 368.58599 204.405342 
L 367.260319 204.178931 
L 365.763624 204.150393 
L 362.912036 204.421491 
L 359.678505 204.958165 
L 350.36331 206.936459 
L 341.626382 208.979195 
L 328.763586 211.937965 
L 319.688654 214.067123 
L 306.122657 217.413063 
L 291.395792 220.829569 
L 271.057177 225.609199 
L 268.815774 226.413203 
L 267.297188 227.134735 
L 265.945921 227.972699 
L 265.051523 228.728518 
L 264.320964 229.625881 
L 263.62836 230.989657 
L 263.253794 232.090313 
L 262.95001 234.031563 
L 262.932543 236.094475 
L 263.088336 238.8327 
L 263.421529 242.02524 
L 264.514653 249.878358 
L 266.419504 262.031922 
L 268.193472 273.097123 
L 269.313991 280.10633 
L 269.612153 282.1025 
L 270.672953 288.20438 
L 271.305655 293.336823 
L 271.754987 294.712422 
L 272.054802 295.488 
L 272.054802 295.488 
" style="fill:none;stroke:#0000ff;stroke-linecap:square;stroke-width:1.5;"/>
   </g>
   <g id="line2d_19">
    <path clip-path="url(#pb3b76004d5)" d="M 242.044056 168.585901 
L 241.716428 168.492598 
L 241.570982 167.420401 
L 241.489015 167.565293 
L 241.084124 166.551026 
L 240.636818 165.880804 
L 239.576844 164.94751 
L 238.833323 164.585812 
L 237.93421 164.354718 
L 236.543369 164.281421 
L 234.536018 164.463721 
L 226.048116 165.823236 
L 216.067604 167.351165 
L 206.000626 168.907463 
L 196.970978 170.329144 
L 195.733014 170.540579 
L 195.211931 170.858479 
L 189.187951 171.720129 
L 187.002711 171.88766 
L 185.504724 171.752389 
L 184.459197 171.471221 
L 183.484409 171.032616 
L 182.626667 170.452275 
L 181.852166 169.697502 
L 181.178397 168.703791 
L 180.619623 167.505412 
L 180.016702 165.639412 
L 179.401232 162.978365 
L 178.734164 158.76839 
L 177.910851 151.951382 
L 177.307841 147.081475 
L 173.503418 117.117062 
L 172.233379 111.063214 
L 171.271866 107.569851 
L 169.08496 101.394361 
L 167.706317 98.064772 
L 161.752396 84.659575 
L 161.316831 83.749402 
L 160.983601 83.473557 
L 158.300655 78.307202 
L 157.607436 77.194507 
L 156.572801 76.016599 
L 155.817193 75.438044 
L 154.377369 74.838864 
L 153.166695 74.609956 
L 151.842353 74.533365 
L 151.108149 74.614123 
L 149.584079 75.210677 
L 147.084706 76.581931 
L 138.85738 81.625306 
L 124.135054 90.940104 
L 121.729879 92.55838 
L 116.22261 96.074314 
L 115.776892 96.637421 
L 114.591243 97.465356 
L 105.800675 103.172208 
L 91.802665 112.518389 
L 90.652373 113.681409 
L 89.778046 114.901719 
L 89.330128 115.869524 
L 89.000172 117.238142 
L 88.984525 118.265132 
L 89.149974 119.269887 
L 89.493505 120.236225 
L 90.022676 121.192477 
L 91.169187 122.715366 
L 97.605377 130.201778 
L 99.316035 132.145009 
L 100.675572 133.646761 
L 101.649464 134.666494 
L 114.496915 149.705615 
L 115.635023 151.439818 
L 116.951318 153.799566 
L 118.056251 156.268518 
L 121.364924 164.328021 
L 121.81871 164.979748 
L 122.105647 165.717886 
L 122.802811 167.165481 
L 130.32025 187.267474 
L 133.308099 195.379442 
L 134.882224 199.685405 
L 138.426531 210.02112 
L 139.568599 213.600206 
L 139.907791 213.552543 
L 139.564183 213.635751 
L 139.617446 213.892451 
L 139.876392 214.010428 
L 140.038301 214.496853 
L 140.402726 214.631852 
L 140.47011 214.798742 
L 140.731206 214.856567 
L 141.076163 215.546392 
L 141.152162 215.609052 
L 141.058836 215.651058 
L 140.973209 215.680903 
L 141.031485 215.749608 
L 141.090075 215.887535 
L 141.137087 215.86923 
L 141.461659 215.99907 
L 142.015618 216.863223 
L 142.9647 217.818788 
L 143.914471 218.459974 
L 144.896289 218.909905 
L 146.080774 219.237818 
L 147.423124 219.376122 
L 148.87876 219.29448 
L 150.976419 218.875758 
L 153.80538 218.036706 
L 161.816404 215.236911 
L 162.62009 215.731116 
L 165.634063 214.521506 
L 166.448135 214.347499 
L 186.219781 206.321969 
L 194.509504 202.884786 
L 215.629404 194.294964 
L 216.839216 193.701055 
L 218.710753 192.944249 
L 224.121709 190.745259 
L 224.851281 190.741748 
L 232.276824 187.373119 
L 233.669438 186.374751 
L 234.521208 185.473938 
L 234.847089 184.966025 
L 235.238558 183.133505 
L 235.215731 181.071002 
L 234.983583 179.977382 
L 233.043013 175.080491 
L 223.167674 151.821663 
L 217.492672 139.575266 
L 217.150379 138.693727 
L 215.401106 135.188446 
L 211.720741 128.263909 
L 211.068589 128.41685 
L 211.204069 128.670979 
L 210.727546 128.834421 
L 210.076222 127.913621 
L 210.076222 127.913621 
" style="fill:none;stroke:#ff0000;stroke-linecap:square;stroke-width:1.5;"/>
   </g>
   <g id="patch_3">
    <path d="M 57.6 307.584 
L 57.6 41.472 
" style="fill:none;stroke:#000000;stroke-linecap:square;stroke-linejoin:miter;stroke-width:0.8;"/>
   </g>
   <g id="patch_4">
    <path d="M 414.72 307.584 
L 414.72 41.472 
" style="fill:none;stroke:#000000;stroke-linecap:square;stroke-linejoin:miter;stroke-width:0.8;"/>
   </g>
   <g id="patch_5">
    <path d="M 57.6 307.584 
L 414.72 307.584 
" style="fill:none;stroke:#000000;stroke-linecap:square;stroke-linejoin:miter;stroke-width:0.8;"/>
   </g>
   <g id="patch_6">
    <path d="M 57.6 41.472 
L 414.72 41.472 
" style="fill:none;stroke:#000000;stroke-linecap:square;stroke-linejoin:miter;stroke-width:0.8;"/>
   </g>
  </g>
 </g>
 <defs>
  <clipPath id="pb3b76004d5">
   <rect height="266.112" width="357.12" x="57.6" y="41.472"/>
  </clipPath>
 </defs>
</svg>
