<?xml version="1.0" encoding="utf-8" standalone="no"?>
<!DOCTYPE svg PUBLIC "-//W3C//DTD SVG 1.1//EN"
  "http://www.w3.org/Graphics/SVG/1.1/DTD/svg11.dtd">
<!-- Created with matplotlib (https://matplotlib.org/) -->
<svg height="345.6pt" version="1.1" viewBox="0 0 460.8 345.6" width="460.8pt" xmlns="http://www.w3.org/2000/svg" xmlns:xlink="http://www.w3.org/1999/xlink">
 <defs>
  <style type="text/css">
*{stroke-linecap:butt;stroke-linejoin:round;}
  </style>
 </defs>
 <g id="figure_1">
  <g id="patch_1">
   <path d="M 0 345.6 
L 460.8 345.6 
L 460.8 0 
L 0 0 
z
" style="fill:#ffffff;"/>
  </g>
  <g id="axes_1">
   <g id="patch_2">
    <path d="M 57.6 307.584 
L 414.72 307.584 
L 414.72 41.472 
L 57.6 41.472 
z
" style="fill:#ffffff;"/>
   </g>
   <g id="matplotlib.axis_1">
    <g id="xtick_1">
     <g id="line2d_1">
      <defs>
       <path d="M 0 0 
L 0 3.5 
" id="m6255fe637d" style="stroke:#000000;stroke-width:0.8;"/>
      </defs>
      <g>
       <use style="stroke:#000000;stroke-width:0.8;" x="92.746129" xlink:href="#m6255fe637d" y="307.584"/>
      </g>
     </g>
     <g id="text_1">
      <!-- −400 -->
      <defs>
       <path d="M 10.59375 35.5 
L 73.1875 35.5 
L 73.1875 27.203125 
L 10.59375 27.203125 
z
" id="DejaVuSans-8722"/>
       <path d="M 37.796875 64.3125 
L 12.890625 25.390625 
L 37.796875 25.390625 
z
M 35.203125 72.90625 
L 47.609375 72.90625 
L 47.609375 25.390625 
L 58.015625 25.390625 
L 58.015625 17.1875 
L 47.609375 17.1875 
L 47.609375 0 
L 37.796875 0 
L 37.796875 17.1875 
L 4.890625 17.1875 
L 4.890625 26.703125 
z
" id="DejaVuSans-52"/>
       <path d="M 31.78125 66.40625 
Q 24.171875 66.40625 20.328125 58.90625 
Q 16.5 51.421875 16.5 36.375 
Q 16.5 21.390625 20.328125 13.890625 
Q 24.171875 6.390625 31.78125 6.390625 
Q 39.453125 6.390625 43.28125 13.890625 
Q 47.125 21.390625 47.125 36.375 
Q 47.125 51.421875 43.28125 58.90625 
Q 39.453125 66.40625 31.78125 66.40625 
z
M 31.78125 74.21875 
Q 44.046875 74.21875 50.515625 64.515625 
Q 56.984375 54.828125 56.984375 36.375 
Q 56.984375 17.96875 50.515625 8.265625 
Q 44.046875 -1.421875 31.78125 -1.421875 
Q 19.53125 -1.421875 13.0625 8.265625 
Q 6.59375 17.96875 6.59375 36.375 
Q 6.59375 54.828125 13.0625 64.515625 
Q 19.53125 74.21875 31.78125 74.21875 
z
" id="DejaVuSans-48"/>
      </defs>
      <g transform="translate(79.012535 322.182437)scale(0.1 -0.1)">
       <use xlink:href="#DejaVuSans-8722"/>
       <use x="83.789062" xlink:href="#DejaVuSans-52"/>
       <use x="147.412109" xlink:href="#DejaVuSans-48"/>
       <use x="211.035156" xlink:href="#DejaVuSans-48"/>
      </g>
     </g>
    </g>
    <g id="xtick_2">
     <g id="line2d_2">
      <g>
       <use style="stroke:#000000;stroke-width:0.8;" x="166.878518" xlink:href="#m6255fe637d" y="307.584"/>
      </g>
     </g>
     <g id="text_2">
      <!-- −200 -->
      <defs>
       <path d="M 19.1875 8.296875 
L 53.609375 8.296875 
L 53.609375 0 
L 7.328125 0 
L 7.328125 8.296875 
Q 12.9375 14.109375 22.625 23.890625 
Q 32.328125 33.6875 34.8125 36.53125 
Q 39.546875 41.84375 41.421875 45.53125 
Q 43.3125 49.21875 43.3125 52.78125 
Q 43.3125 58.59375 39.234375 62.25 
Q 35.15625 65.921875 28.609375 65.921875 
Q 23.96875 65.921875 18.8125 64.3125 
Q 13.671875 62.703125 7.8125 59.421875 
L 7.8125 69.390625 
Q 13.765625 71.78125 18.9375 73 
Q 24.125 74.21875 28.421875 74.21875 
Q 39.75 74.21875 46.484375 68.546875 
Q 53.21875 62.890625 53.21875 53.421875 
Q 53.21875 48.921875 51.53125 44.890625 
Q 49.859375 40.875 45.40625 35.40625 
Q 44.1875 33.984375 37.640625 27.21875 
Q 31.109375 20.453125 19.1875 8.296875 
z
" id="DejaVuSans-50"/>
      </defs>
      <g transform="translate(153.144924 322.182437)scale(0.1 -0.1)">
       <use xlink:href="#DejaVuSans-8722"/>
       <use x="83.789062" xlink:href="#DejaVuSans-50"/>
       <use x="147.412109" xlink:href="#DejaVuSans-48"/>
       <use x="211.035156" xlink:href="#DejaVuSans-48"/>
      </g>
     </g>
    </g>
    <g id="xtick_3">
     <g id="line2d_3">
      <g>
       <use style="stroke:#000000;stroke-width:0.8;" x="241.010907" xlink:href="#m6255fe637d" y="307.584"/>
      </g>
     </g>
     <g id="text_3">
      <!-- 0 -->
      <g transform="translate(237.829657 322.182437)scale(0.1 -0.1)">
       <use xlink:href="#DejaVuSans-48"/>
      </g>
     </g>
    </g>
    <g id="xtick_4">
     <g id="line2d_4">
      <g>
       <use style="stroke:#000000;stroke-width:0.8;" x="315.143296" xlink:href="#m6255fe637d" y="307.584"/>
      </g>
     </g>
     <g id="text_4">
      <!-- 200 -->
      <g transform="translate(305.599546 322.182437)scale(0.1 -0.1)">
       <use xlink:href="#DejaVuSans-50"/>
       <use x="63.623047" xlink:href="#DejaVuSans-48"/>
       <use x="127.246094" xlink:href="#DejaVuSans-48"/>
      </g>
     </g>
    </g>
    <g id="xtick_5">
     <g id="line2d_5">
      <g>
       <use style="stroke:#000000;stroke-width:0.8;" x="389.275685" xlink:href="#m6255fe637d" y="307.584"/>
      </g>
     </g>
     <g id="text_5">
      <!-- 400 -->
      <g transform="translate(379.731935 322.182437)scale(0.1 -0.1)">
       <use xlink:href="#DejaVuSans-52"/>
       <use x="63.623047" xlink:href="#DejaVuSans-48"/>
       <use x="127.246094" xlink:href="#DejaVuSans-48"/>
      </g>
     </g>
    </g>
   </g>
   <g id="matplotlib.axis_2">
    <g id="ytick_1">
     <g id="line2d_6">
      <defs>
       <path d="M 0 0 
L -3.5 0 
" id="mc392629b4b" style="stroke:#000000;stroke-width:0.8;"/>
      </defs>
      <g>
       <use style="stroke:#000000;stroke-width:0.8;" x="57.6" xlink:href="#mc392629b4b" y="286.769933"/>
      </g>
     </g>
     <g id="text_6">
      <!-- −100 -->
      <defs>
       <path d="M 12.40625 8.296875 
L 28.515625 8.296875 
L 28.515625 63.921875 
L 10.984375 60.40625 
L 10.984375 69.390625 
L 28.421875 72.90625 
L 38.28125 72.90625 
L 38.28125 8.296875 
L 54.390625 8.296875 
L 54.390625 0 
L 12.40625 0 
z
" id="DejaVuSans-49"/>
      </defs>
      <g transform="translate(23.132812 290.569152)scale(0.1 -0.1)">
       <use xlink:href="#DejaVuSans-8722"/>
       <use x="83.789062" xlink:href="#DejaVuSans-49"/>
       <use x="147.412109" xlink:href="#DejaVuSans-48"/>
       <use x="211.035156" xlink:href="#DejaVuSans-48"/>
      </g>
     </g>
    </g>
    <g id="ytick_2">
     <g id="line2d_7">
      <g>
       <use style="stroke:#000000;stroke-width:0.8;" x="57.6" xlink:href="#mc392629b4b" y="249.703738"/>
      </g>
     </g>
     <g id="text_7">
      <!-- 0 -->
      <g transform="translate(44.2375 253.502957)scale(0.1 -0.1)">
       <use xlink:href="#DejaVuSans-48"/>
      </g>
     </g>
    </g>
    <g id="ytick_3">
     <g id="line2d_8">
      <g>
       <use style="stroke:#000000;stroke-width:0.8;" x="57.6" xlink:href="#mc392629b4b" y="212.637544"/>
      </g>
     </g>
     <g id="text_8">
      <!-- 100 -->
      <g transform="translate(31.5125 216.436763)scale(0.1 -0.1)">
       <use xlink:href="#DejaVuSans-49"/>
       <use x="63.623047" xlink:href="#DejaVuSans-48"/>
       <use x="127.246094" xlink:href="#DejaVuSans-48"/>
      </g>
     </g>
    </g>
    <g id="ytick_4">
     <g id="line2d_9">
      <g>
       <use style="stroke:#000000;stroke-width:0.8;" x="57.6" xlink:href="#mc392629b4b" y="175.57135"/>
      </g>
     </g>
     <g id="text_9">
      <!-- 200 -->
      <g transform="translate(31.5125 179.370568)scale(0.1 -0.1)">
       <use xlink:href="#DejaVuSans-50"/>
       <use x="63.623047" xlink:href="#DejaVuSans-48"/>
       <use x="127.246094" xlink:href="#DejaVuSans-48"/>
      </g>
     </g>
    </g>
    <g id="ytick_5">
     <g id="line2d_10">
      <g>
       <use style="stroke:#000000;stroke-width:0.8;" x="57.6" xlink:href="#mc392629b4b" y="138.505155"/>
      </g>
     </g>
     <g id="text_10">
      <!-- 300 -->
      <defs>
       <path d="M 40.578125 39.3125 
Q 47.65625 37.796875 51.625 33 
Q 55.609375 28.21875 55.609375 21.1875 
Q 55.609375 10.40625 48.1875 4.484375 
Q 40.765625 -1.421875 27.09375 -1.421875 
Q 22.515625 -1.421875 17.65625 -0.515625 
Q 12.796875 0.390625 7.625 2.203125 
L 7.625 11.71875 
Q 11.71875 9.328125 16.59375 8.109375 
Q 21.484375 6.890625 26.8125 6.890625 
Q 36.078125 6.890625 40.9375 10.546875 
Q 45.796875 14.203125 45.796875 21.1875 
Q 45.796875 27.640625 41.28125 31.265625 
Q 36.765625 34.90625 28.71875 34.90625 
L 20.21875 34.90625 
L 20.21875 43.015625 
L 29.109375 43.015625 
Q 36.375 43.015625 40.234375 45.921875 
Q 44.09375 48.828125 44.09375 54.296875 
Q 44.09375 59.90625 40.109375 62.90625 
Q 36.140625 65.921875 28.71875 65.921875 
Q 24.65625 65.921875 20.015625 65.03125 
Q 15.375 64.15625 9.8125 62.3125 
L 9.8125 71.09375 
Q 15.4375 72.65625 20.34375 73.4375 
Q 25.25 74.21875 29.59375 74.21875 
Q 40.828125 74.21875 47.359375 69.109375 
Q 53.90625 64.015625 53.90625 55.328125 
Q 53.90625 49.265625 50.4375 45.09375 
Q 46.96875 40.921875 40.578125 39.3125 
z
" id="DejaVuSans-51"/>
      </defs>
      <g transform="translate(31.5125 142.304374)scale(0.1 -0.1)">
       <use xlink:href="#DejaVuSans-51"/>
       <use x="63.623047" xlink:href="#DejaVuSans-48"/>
       <use x="127.246094" xlink:href="#DejaVuSans-48"/>
      </g>
     </g>
    </g>
    <g id="ytick_6">
     <g id="line2d_11">
      <g>
       <use style="stroke:#000000;stroke-width:0.8;" x="57.6" xlink:href="#mc392629b4b" y="101.438961"/>
      </g>
     </g>
     <g id="text_11">
      <!-- 400 -->
      <g transform="translate(31.5125 105.238179)scale(0.1 -0.1)">
       <use xlink:href="#DejaVuSans-52"/>
       <use x="63.623047" xlink:href="#DejaVuSans-48"/>
       <use x="127.246094" xlink:href="#DejaVuSans-48"/>
      </g>
     </g>
    </g>
    <g id="ytick_7">
     <g id="line2d_12">
      <g>
       <use style="stroke:#000000;stroke-width:0.8;" x="57.6" xlink:href="#mc392629b4b" y="64.372766"/>
      </g>
     </g>
     <g id="text_12">
      <!-- 500 -->
      <defs>
       <path d="M 10.796875 72.90625 
L 49.515625 72.90625 
L 49.515625 64.59375 
L 19.828125 64.59375 
L 19.828125 46.734375 
Q 21.96875 47.46875 24.109375 47.828125 
Q 26.265625 48.1875 28.421875 48.1875 
Q 40.625 48.1875 47.75 41.5 
Q 54.890625 34.8125 54.890625 23.390625 
Q 54.890625 11.625 47.5625 5.09375 
Q 40.234375 -1.421875 26.90625 -1.421875 
Q 22.3125 -1.421875 17.546875 -0.640625 
Q 12.796875 0.140625 7.71875 1.703125 
L 7.71875 11.625 
Q 12.109375 9.234375 16.796875 8.0625 
Q 21.484375 6.890625 26.703125 6.890625 
Q 35.15625 6.890625 40.078125 11.328125 
Q 45.015625 15.765625 45.015625 23.390625 
Q 45.015625 31 40.078125 35.4375 
Q 35.15625 39.890625 26.703125 39.890625 
Q 22.75 39.890625 18.8125 39.015625 
Q 14.890625 38.140625 10.796875 36.28125 
z
" id="DejaVuSans-53"/>
      </defs>
      <g transform="translate(31.5125 68.171985)scale(0.1 -0.1)">
       <use xlink:href="#DejaVuSans-53"/>
       <use x="63.623047" xlink:href="#DejaVuSans-48"/>
       <use x="127.246094" xlink:href="#DejaVuSans-48"/>
      </g>
     </g>
    </g>
   </g>
   <g id="line2d_13">
    <path clip-path="url(#p889e3e17b2)" d="M 241.010907 249.703738 
L 240.944777 244.571294 
L 240.645874 244.08116 
L 240.201515 243.67755 
L 239.537384 243.294011 
L 238.828723 243.047439 
L 237.454857 242.908196 
L 234.175767 243.038873 
L 228.014821 243.397911 
L 222.273104 244.020727 
L 217.25009 244.558206 
L 209.72692 244.828044 
L 196.524208 245.132839 
L 187.196019 245.432345 
L 171.527249 245.715846 
L 167.801577 245.802473 
L 162.514752 245.869215 
L 157.8774 245.899664 
L 140.907755 246.260168 
L 124.912098 246.788969 
L 111.560818 247.149416 
L 103.05294 247.281581 
L 101.908744 247.001596 
L 100.951695 246.503507 
L 100.163149 245.796394 
L 99.531355 244.886638 
L 99.043379 243.775175 
L 98.639543 242.173919 
L 98.388864 240.302117 
L 97.80155 231.721319 
L 97.764818 225.734476 
L 98.035475 224.366567 
L 98.552511 223.174121 
L 99.448624 221.786815 
L 100.603569 220.79542 
L 101.876534 220.279637 
L 103.374712 220.006466 
L 105.933317 219.810742 
L 109.117229 219.814189 
L 114.743285 219.881854 
L 127.139628 219.382831 
L 137.369602 218.899863 
L 147.290999 218.800232 
L 152.633831 218.36641 
L 155.223683 218.417687 
L 161.025136 218.670275 
L 161.758602 218.455776 
L 162.385502 218.100085 
L 163.129309 217.38536 
L 163.659134 216.423444 
L 164.047847 215.114292 
L 164.198336 213.786674 
L 164.196445 211.624747 
L 164.104076 207.033765 
L 164.092623 198.167161 
L 163.839312 197.011993 
L 163.432548 196.154689 
L 162.852721 195.407435 
L 162.064917 194.755551 
L 161.262285 194.342449 
L 159.816296 194.004627 
L 158.154099 193.885423 
L 147.831387 193.642787 
L 143.896106 193.917077 
L 137.754312 194.341003 
L 101.494603 195.307282 
L 100.080936 195.025097 
L 99.122701 194.588679 
L 98.329743 193.937575 
L 97.62682 192.98742 
L 97.192367 191.916096 
L 96.906846 190.344007 
L 96.791348 188.177043 
L 96.587225 175.615458 
L 96.774075 174.394572 
L 97.10604 173.480112 
L 97.76997 172.497116 
L 98.697366 171.701602 
L 100.101026 171.026812 
L 101.177465 170.716568 
L 103.325377 170.372742 
L 107.200833 170.041852 
L 111.393279 169.877055 
L 116.375531 169.899851 
L 124.283678 170.135073 
L 129.212111 169.861895 
L 136.826952 169.486971 
L 147.059298 169.284849 
L 152.937811 169.085766 
L 157.806752 169.002997 
L 159.232837 169.138511 
L 160.549725 169.523481 
L 161.323667 170.020464 
L 161.81598 170.577013 
L 162.151244 171.229156 
L 162.425941 172.261894 
L 162.531839 173.577003 
L 162.636514 181.80833 
L 162.920627 188.584808 
L 163.507088 195.710896 
L 163.767552 198.496457 
L 163.720923 200.994089 
L 163.552198 207.54009 
L 163.968414 217.830547 
L 164.494346 223.64686 
L 164.287183 225.681857 
L 164.060783 228.564721 
L 164.060449 231.685528 
L 164.338853 242.048161 
L 164.669595 243.08657 
L 165.158572 243.834551 
L 165.845446 244.44753 
L 166.716316 244.938957 
L 168.366429 245.533336 
L 169.754299 245.793244 
L 171.464199 245.803782 
L 174.768688 245.646636 
L 180.090355 245.166128 
L 184.22331 244.729907 
L 186.584093 244.704076 
L 191.909578 244.796934 
L 209.940021 244.5841 
L 227.37312 243.838432 
L 230.752085 243.6377 
L 236.253568 243.466128 
L 236.829191 243.203369 
L 237.386473 242.783398 
L 238.055445 241.905182 
L 238.533311 241.012943 
L 238.942384 239.830505 
L 239.196685 238.342587 
L 239.242327 236.248039 
L 239.010617 231.523026 
L 238.543963 222.367502 
L 238.598338 220.156418 
L 238.82118 219.310934 
L 239.250488 218.563524 
L 239.801645 218.08193 
L 240.441233 217.800602 
L 241.708383 217.625008 
L 243.715518 217.50137 
L 245.724529 217.47327 
L 248.219889 217.454214 
L 250.611807 217.236736 
L 255.892083 217.191637 
L 278.236004 216.770317 
L 281.230285 216.654889 
L 281.692834 216.229254 
L 282.067944 215.520983 
L 282.276479 214.610852 
L 282.273513 213.114927 
L 282.007823 208.234933 
L 281.349231 194.645687 
L 281.671188 189.623663 
L 281.625485 185.184059 
L 281.615514 172.582925 
L 281.671225 168.723592 
L 281.552057 164.699649 
L 281.210418 162.780399 
L 280.924119 160.635601 
L 280.786158 157.306093 
L 280.532662 145.108312 
L 280.806359 144.28244 
L 281.251524 143.634264 
L 281.940177 142.649156 
L 282.012901 142.188015 
L 281.898033 141.641215 
L 280.974973 139.906554 
L 280.618063 138.720806 
L 280.379653 137.09979 
L 280.095467 133.134004 
L 279.958174 115.969984 
L 280.336249 115.193744 
L 280.825263 114.657618 
L 281.514694 114.180428 
L 282.708411 113.591409 
L 283.823288 113.2461 
L 285.42603 113.054172 
L 288.617318 113.023221 
L 295.17544 112.919102 
L 355.970411 111.006672 
L 363.968147 110.898105 
L 365.74258 110.586934 
L 367.770249 109.918816 
L 369.698952 108.972998 
L 371.861505 107.675274 
L 374.616153 106.146997 
L 376.203401 105.545747 
L 377.853255 105.163149 
L 379.568382 104.993646 
L 381.701541 104.969219 
L 384.690522 105.178421 
L 391.119135 105.92486 
L 392.334869 106.235623 
L 393.339214 106.666777 
L 394.629674 107.696957 
L 395.43212 109.090498 
L 395.728464 110.495678 
L 395.797481 112.204021 
L 395.863978 127.851886 
L 395.657334 129.740483 
L 395.237782 131.28466 
L 394.508616 133.054682 
L 393.410641 134.96689 
L 391.859495 137.261065 
L 387.814313 142.818548 
L 385.567434 146.453778 
L 376.826744 161.329146 
L 362.19857 185.329433 
L 360.173273 188.710574 
L 358.492877 191.42482 
L 356.527739 194.545312 
L 353.901339 198.52422 
L 349.72498 204.870582 
L 336.754555 225.653542 
L 335.468803 227.668775 
L 334.755353 229.16404 
L 334.284353 230.713444 
L 334.058768 232.276537 
L 334.002798 234.616648 
L 333.914766 236.203419 
L 333.605819 237.415012 
L 333.066951 238.475365 
L 332.314433 239.3301 
L 331.563768 239.852382 
L 330.56969 240.247415 
L 329.575018 240.369474 
L 328.903898 240.266037 
L 328.420258 240.060953 
L 327.771637 239.45994 
L 327.270502 238.352646 
L 327.032537 237.063632 
L 326.887794 235.007055 
L 325.789189 210.988247 
L 325.334609 199.42693 
L 324.434123 173.111896 
L 324.252202 168.394482 
L 324.0473 166.236414 
L 323.29493 154.639032 
L 323.023383 144.953413 
L 323.071421 143.282765 
L 322.862738 142.089938 
L 322.43555 141.226852 
L 321.919181 140.598691 
L 320.867984 139.839501 
L 319.508025 139.46276 
L 318.531924 139.407198 
L 307.177585 139.765591 
L 300.87989 139.929201 
L 290.429299 140.1771 
L 286.211315 140.472184 
L 280.996175 141.16636 
L 277.454637 141.519489 
L 273.387764 141.664826 
L 244.028356 142.380574 
L 242.048871 142.185495 
L 239.591955 141.700928 
L 238.323706 141.258321 
L 237.747537 140.872499 
L 237.254055 140.29927 
L 236.816022 139.606058 
L 236.744732 139.449305 
L 236.744732 139.449305 
" style="fill:none;stroke:#008000;stroke-linecap:square;stroke-width:1.5;"/>
   </g>
   <g id="line2d_14">
    <path clip-path="url(#p889e3e17b2)" d="M 241.010907 249.703738 
L 240.955912 242.801024 
L 240.653106 242.171323 
L 240.101151 241.556761 
L 239.384658 241.085772 
L 238.404572 240.771458 
L 237.17088 240.666767 
L 227.877557 240.960959 
L 217.445737 241.686901 
L 207.255967 241.707022 
L 156.338309 241.154317 
L 148.929862 240.974224 
L 136.909092 240.979472 
L 119.424234 240.902824 
L 105.361966 240.648711 
L 102.932951 240.508264 
L 101.74677 240.225648 
L 100.958927 239.848182 
L 100.135937 239.181487 
L 99.477015 238.321473 
L 98.902098 237.039578 
L 98.56962 235.751345 
L 98.29278 233.631489 
L 98.143508 228.858244 
L 98.203869 221.205553 
L 98.418968 218.147523 
L 98.766603 216.837663 
L 99.280644 215.681542 
L 99.796508 214.902204 
L 100.619486 214.148756 
L 101.569069 213.622191 
L 102.691872 213.266411 
L 104.223943 213.037833 
L 107.13627 212.923979 
L 110.366878 213.028078 
L 115.006089 213.175215 
L 133.138269 212.862782 
L 136.931042 212.8333 
L 142.367933 213.022193 
L 145.605951 213.1188 
L 148.912158 212.957571 
L 152.940256 212.746715 
L 155.857637 212.871036 
L 161.506912 213.269681 
L 162.402723 213.05527 
L 163.167364 212.650649 
L 163.814773 212.042048 
L 164.388942 211.106734 
L 164.827462 209.813319 
L 165.036068 208.493081 
L 165.098277 206.332863 
L 165.186205 201.742764 
L 165.427095 196.610297 
L 165.4175 192.876823 
L 165.191082 191.716611 
L 164.814545 190.845197 
L 164.283188 190.06335 
L 163.526448 189.373264 
L 162.740812 188.926318 
L 161.814367 188.626109 
L 160.222574 188.396684 
L 150.139694 187.68961 
L 146.541087 187.755498 
L 137.09972 187.9672 
L 131.470122 187.883317 
L 118.484186 187.728344 
L 111.148489 187.704213 
L 104.458727 187.733199 
L 102.492929 187.508171 
L 101.356958 187.187127 
L 100.449071 186.667754 
L 99.704452 185.954293 
L 99.058325 184.939084 
L 98.747789 184.040888 
L 98.545995 182.739824 
L 98.476121 180.289459 
L 98.589523 168.525011 
L 98.752467 166.985534 
L 99.019276 166.039847 
L 99.599436 165.011705 
L 100.244409 164.298373 
L 101.047782 163.709236 
L 102.241026 163.169922 
L 103.610988 162.809469 
L 105.807176 162.512259 
L 110.101389 162.191263 
L 115.476246 162.098866 
L 118.535815 162.200731 
L 125.69015 162.609158 
L 128.7191 162.544422 
L 141.930512 162.210574 
L 149.462666 162.204049 
L 160.767038 162.18223 
L 162.167408 162.486656 
L 163.169521 162.928261 
L 163.790416 163.441473 
L 164.230484 164.122149 
L 164.533892 165.073119 
L 164.681666 166.296864 
L 164.660786 168.065153 
L 164.628627 172.208363 
L 164.825232 181.237822 
L 165.187786 187.324945 
L 165.594715 191.703527 
L 165.515207 193.868811 
L 165.230819 201.479596 
L 165.512193 210.568025 
L 165.782591 213.094707 
L 166.02604 215.766848 
L 165.952935 217.432556 
L 165.463654 222.806527 
L 165.30977 233.42658 
L 165.457752 235.503381 
L 165.724106 236.418715 
L 166.146258 237.089906 
L 166.808948 237.728878 
L 167.673519 238.233146 
L 169.309109 238.868054 
L 170.471327 239.129243 
L 171.976138 239.225027 
L 175.179878 239.157814 
L 181.045829 238.743415 
L 186.76138 238.373324 
L 191.208246 238.544282 
L 197.288549 238.683497 
L 211.866999 238.772824 
L 233.708479 238.342537 
L 237.18593 238.32801 
L 237.888789 238.065832 
L 238.659117 237.453842 
L 239.314526 236.456399 
L 239.765226 235.443005 
L 240.128241 234.143592 
L 240.339079 232.550199 
L 240.367882 229.960838 
L 240.141338 217.222714 
L 240.191234 215.010754 
L 240.395304 214.159189 
L 240.814688 213.40594 
L 241.352112 212.908142 
L 242.045331 212.558454 
L 243.018791 212.374378 
L 244.134771 212.310421 
L 246.935536 212.240299 
L 249.541174 212.260146 
L 252.154538 212.063862 
L 280.699351 211.676982 
L 282.747363 211.580642 
L 283.189628 211.254233 
L 283.613254 210.63994 
L 283.897346 209.825083 
L 283.9805 208.815092 
L 284.010066 203.816186 
L 283.885202 199.835909 
L 283.707258 193.914871 
L 283.724152 186.754589 
L 283.731294 182.20684 
L 283.607313 166.299627 
L 283.531571 161.695219 
L 283.346214 158.90765 
L 282.913935 155.810478 
L 282.805588 152.835635 
L 282.634904 144.81601 
L 282.639228 140.544554 
L 282.909662 139.362411 
L 283.286546 138.664898 
L 284.22122 137.23825 
L 284.207259 136.611875 
L 283.937257 136.003657 
L 283.045858 134.085044 
L 282.797568 132.86377 
L 282.487603 129.858135 
L 282.398405 127.034528 
L 282.331468 120.674852 
L 282.0873 111.659051 
L 282.25978 110.722822 
L 282.565494 110.059172 
L 283.044736 109.513666 
L 283.711971 109.003276 
L 285.09921 108.306692 
L 286.249695 107.984357 
L 287.606732 107.814282 
L 291.148161 107.735916 
L 297.362081 107.574642 
L 335.663906 106.386894 
L 342.806211 106.187931 
L 365.888473 105.552453 
L 367.681247 105.280831 
L 369.401077 104.785119 
L 371.051484 104.091877 
L 373.25893 102.863484 
L 376.343781 101.101007 
L 377.918956 100.439045 
L 379.557972 99.978076 
L 381.244089 99.727275 
L 383.356773 99.666262 
L 385.924688 99.812544 
L 392.458334 100.472102 
L 394.444963 100.856531 
L 395.503402 101.258976 
L 396.3418 101.76952 
L 397.023854 102.411747 
L 397.643484 103.377547 
L 397.980915 104.256486 
L 398.189059 105.441477 
L 398.255905 107.639481 
L 398.399965 116.613548 
L 398.487273 118.934113 
L 398.384792 122.237115 
L 398.102241 124.76037 
L 397.69633 126.313344 
L 397.102854 127.786055 
L 395.883014 129.991547 
L 394.545045 132.051145 
L 391.024935 137.226371 
L 387.703931 143.094304 
L 384.585223 148.793654 
L 380.755228 154.947642 
L 376.948792 161.127318 
L 374.960255 164.259646 
L 369.331869 173.038789 
L 365.194297 179.933911 
L 360.468393 187.776727 
L 345.462156 211.635083 
L 343.195035 215.215669 
L 338.614752 222.48781 
L 337.883838 223.989706 
L 337.377142 225.537323 
L 337.108976 227.104011 
L 337.018682 229.202074 
L 336.902822 231.343736 
L 336.58136 232.552641 
L 336.172229 233.427675 
L 335.601152 234.159839 
L 334.938859 234.762011 
L 334.151116 235.209411 
L 333.197525 235.493373 
L 332.288336 235.501805 
L 331.52935 235.273459 
L 330.911181 234.820302 
L 330.525895 234.251742 
L 330.182327 233.346879 
L 330.007349 232.222885 
L 329.837111 229.102167 
L 327.717564 161.06076 
L 327.581941 156.6931 
L 327.041193 142.384264 
L 327.12219 140.459766 
L 327.23745 138.126765 
L 327.087295 137.219843 
L 326.671689 136.352482 
L 326.066196 135.607569 
L 325.287612 135.021253 
L 324.407827 134.666812 
L 323.541911 134.508591 
L 321.968766 134.487335 
L 317.545935 134.579929 
L 310.965345 134.753191 
L 289.630815 135.75623 
L 280.091094 136.836929 
L 261.553814 137.447513 
L 247.799522 137.781772 
L 245.676317 137.51272 
L 243.363087 137.01431 
L 242.339449 136.6076 
L 242.022486 136.398276 
L 242.120531 136.353921 
L 242.153558 136.299081 
L 242.105963 136.263612 
" style="fill:none;stroke:#0000ff;stroke-linecap:square;stroke-width:1.5;"/>
   </g>
   <g id="line2d_15">
    <path clip-path="url(#p889e3e17b2)" d="M 241.010907 249.703738 
L 240.94948 249.090686 
L 240.813523 247.961208 
L 240.87514 245.175787 
L 240.967264 244.633336 
L 241.158184 244.038399 
L 241.085229 243.176666 
L 240.851864 242.45842 
L 240.494053 241.897503 
L 239.913965 241.363609 
L 239.251744 241.007332 
L 238.411017 240.786329 
L 237.399602 240.765318 
L 234.000869 241.107131 
L 229.422165 241.732911 
L 219.919508 243.086306 
L 218.237764 243.341298 
L 213.437366 243.980322 
L 212.126132 244.193264 
L 211.70786 244.056635 
L 209.093568 244.533833 
L 208.663602 244.418347 
L 189.542384 247.469922 
L 189.210957 247.797888 
L 181.046047 249.023796 
L 180.64015 249.220985 
L 176.208367 249.789693 
L 175.91506 250.111331 
L 158.118931 252.28104 
L 157.318197 252.465415 
L 137.525905 254.700784 
L 133.914919 255.101855 
L 115.081817 257.153569 
L 113.752221 257.255879 
L 112.892265 257.350958 
L 112.537615 257.119291 
L 111.314332 257.249451 
L 104.039579 258.160772 
L 102.931866 258.023441 
L 101.950668 257.628322 
L 101.243145 257.128859 
L 100.467383 256.294959 
L 99.805912 255.21965 
L 99.150377 253.623234 
L 98.021622 250.022367 
L 97.227057 247.444911 
L 96.99368 247.13669 
L 96.888562 246.771277 
L 96.638518 246.484692 
L 94.723322 238.824672 
L 94.453423 236.894289 
L 94.611198 235.137434 
L 94.996426 233.81481 
L 95.442294 233.076782 
L 96.056414 232.44976 
L 96.618877 232.055712 
L 97.877441 231.216292 
L 100.390103 229.880124 
L 107.142318 226.714908 
L 129.711903 216.077421 
L 138.460882 212.264746 
L 143.055775 210.240171 
L 146.577322 208.924298 
L 150.301388 207.472018 
L 151.062602 206.980064 
L 151.620698 206.362031 
L 151.999719 205.58686 
L 152.113883 204.942497 
L 152.041938 203.976746 
L 151.584535 202.945272 
L 150.834302 201.256585 
L 147.766426 194.875914 
L 145.687167 190.604754 
L 144.733755 189.101603 
L 143.964701 188.404331 
L 143.155268 187.953526 
L 142.141276 187.663777 
L 141.212135 187.613986 
L 139.951692 187.803328 
L 132.876323 189.762603 
L 128.353127 191.143044 
L 111.579384 196.903415 
L 100.63452 200.986405 
L 99.761333 201.39176 
L 94.423022 203.357573 
L 85.651592 206.709123 
L 83.988506 207.179229 
L 82.938775 207.311362 
L 81.989735 207.221741 
L 81.040106 206.881126 
L 80.432669 206.446336 
L 79.775955 205.65425 
L 76.309199 198.958436 
L 74.058479 194.353326 
L 73.840816 193.397722 
L 73.88511 192.599877 
L 74.173474 191.568672 
L 74.560798 190.961175 
L 74.902083 190.592468 
L 74.767791 190.850695 
L 74.953663 190.66948 
L 75.451013 190.612131 
L 79.842644 186.918942 
L 84.550275 183.292639 
L 90.011604 179.384266 
L 96.826341 174.464291 
L 101.218605 171.340616 
L 109.358201 165.830688 
L 110.598987 164.897158 
L 113.2647 163.146289 
L 120.393915 158.758527 
L 122.214448 157.8392 
L 123.732114 157.33436 
L 124.777357 157.223403 
L 125.546071 157.349485 
L 125.811945 157.542647 
L 125.96354 157.709778 
L 125.825823 157.822385 
L 125.949701 157.901665 
L 125.6297 158.122011 
L 128.040136 159.423121 
L 139.487107 165.286957 
L 140.113283 165.542952 
L 142.129009 166.759677 
L 154.299882 174.587424 
L 158.199076 177.106815 
L 165.301208 182.330261 
L 171.767212 186.836102 
L 172.782511 187.100177 
L 173.864557 187.158593 
L 175.240039 187.007168 
L 176.818149 186.637754 
L 180.974211 184.872416 
L 183.828065 183.593178 
L 184.301668 183.282849 
L 188.00273 181.788044 
L 194.364001 179.635922 
L 194.792827 179.698731 
L 197.551027 178.720262 
L 197.815999 178.936032 
L 198.877967 178.548449 
L 199.715702 178.461425 
L 200.506332 178.274732 
L 210.010957 174.510841 
L 210.703181 174.322341 
L 220.18465 170.493173 
L 225.578688 168.275621 
L 225.759558 167.877702 
L 225.765595 167.514146 
L 225.6306 167.078498 
L 225.34333 166.735825 
L 225.158948 166.870823 
L 224.980654 166.814838 
L 224.282329 167.071697 
L 223.792738 167.306648 
L 224.270284 168.211363 
L 223.686599 168.486175 
L 223.829269 168.740767 
L 223.536541 168.916034 
L 214.255995 157.634455 
L 213.970204 157.011386 
L 214.04957 156.456033 
L 214.324851 155.956216 
L 214.765628 155.537219 
L 215.602265 155.103157 
L 218.162607 154.038222 
L 220.00889 153.294795 
L 222.966573 152.128718 
L 230.629882 149.49285 
L 238.463631 147.037218 
L 241.409811 146.097863 
L 241.413555 145.854029 
L 241.202693 145.528003 
L 240.689284 145.134947 
L 238.163791 143.788914 
L 225.765423 137.695304 
L 217.253819 133.972137 
L 209.841415 131.089659 
L 200.677631 127.918701 
L 185.679857 124.128032 
L 183.875264 123.616443 
L 183.178522 123.319 
L 182.309527 123.208978 
L 180.5067 123.186905 
L 177.792791 123.03245 
L 166.576996 122.496702 
L 159.567714 122.234579 
L 159.099193 121.990533 
L 159.226342 121.889046 
L 160.773167 121.401327 
L 166.188779 120.024286 
L 169.009029 119.419688 
L 181.455358 116.828548 
L 181.542869 116.941085 
L 182.761842 116.703713 
L 185.826769 116.104503 
L 192.511149 115.130748 
L 195.805867 115.191989 
L 197.091787 115.296079 
L 197.204496 115.619945 
L 199.396906 115.716646 
L 205.51782 115.312672 
L 220.153591 114.084573 
L 225.950664 113.697807 
L 227.23684 113.490583 
L 239.127815 112.774125 
L 244.842414 112.708322 
L 265.888903 112.869505 
L 273.821273 113.148483 
L 283.57479 113.680861 
L 305.564168 115.511007 
L 306.963974 115.666491 
L 314.846078 116.446906 
L 322.530901 117.082787 
L 324.880824 117.51651 
L 328.076068 118.379889 
L 331.488299 119.301291 
L 333.111278 119.491221 
L 333.810292 119.378841 
L 333.989736 119.213998 
L 334.073772 118.790243 
L 333.79935 118.417194 
L 333.08075 117.883241 
L 331.555664 117.081136 
L 328.72575 115.965019 
L 315.338672 111.141326 
L 309.672507 109.338159 
L 298.589919 106.232592 
L 290.374628 104.168134 
L 281.470399 102.1394 
L 277.145863 101.217377 
L 275.827065 100.963852 
L 275.504934 101.029137 
L 267.202828 99.319165 
L 262.316086 98.38307 
L 253.796021 97.002307 
L 241.464979 95.472692 
L 237.854686 95.082431 
L 236.769798 94.781898 
L 236.973563 94.627053 
L 236.959242 94.598687 
L 237.148851 94.27415 
L 238.911899 92.522884 
L 240.107535 91.6506 
L 241.15308 91.274983 
L 241.936547 91.028901 
L 241.701957 90.980221 
L 242.105672 90.953973 
L 243.950545 90.958078 
L 243.927223 90.991941 
L 243.631216 91.06477 
L 242.74465 91.152338 
L 242.15563 91.133509 
L 242.15563 91.133509 
" style="fill:none;stroke:#ff0000;stroke-linecap:square;stroke-width:1.5;"/>
   </g>
   <g id="patch_3">
    <path d="M 57.6 307.584 
L 57.6 41.472 
" style="fill:none;stroke:#000000;stroke-linecap:square;stroke-linejoin:miter;stroke-width:0.8;"/>
   </g>
   <g id="patch_4">
    <path d="M 414.72 307.584 
L 414.72 41.472 
" style="fill:none;stroke:#000000;stroke-linecap:square;stroke-linejoin:miter;stroke-width:0.8;"/>
   </g>
   <g id="patch_5">
    <path d="M 57.6 307.584 
L 414.72 307.584 
" style="fill:none;stroke:#000000;stroke-linecap:square;stroke-linejoin:miter;stroke-width:0.8;"/>
   </g>
   <g id="patch_6">
    <path d="M 57.6 41.472 
L 414.72 41.472 
" style="fill:none;stroke:#000000;stroke-linecap:square;stroke-linejoin:miter;stroke-width:0.8;"/>
   </g>
  </g>
 </g>
 <defs>
  <clipPath id="p889e3e17b2">
   <rect height="266.112" width="357.12" x="57.6" y="41.472"/>
  </clipPath>
 </defs>
</svg>
