<?xml version="1.0" encoding="utf-8" standalone="no"?>
<!DOCTYPE svg PUBLIC "-//W3C//DTD SVG 1.1//EN"
  "http://www.w3.org/Graphics/SVG/1.1/DTD/svg11.dtd">
<!-- Created with matplotlib (https://matplotlib.org/) -->
<svg height="345.6pt" version="1.1" viewBox="0 0 460.8 345.6" width="460.8pt" xmlns="http://www.w3.org/2000/svg" xmlns:xlink="http://www.w3.org/1999/xlink">
 <defs>
  <style type="text/css">
*{stroke-linecap:butt;stroke-linejoin:round;}
  </style>
 </defs>
 <g id="figure_1">
  <g id="patch_1">
   <path d="M 0 345.6 
L 460.8 345.6 
L 460.8 0 
L 0 0 
z
" style="fill:#ffffff;"/>
  </g>
  <g id="axes_1">
   <g id="patch_2">
    <path d="M 57.6 307.584 
L 414.72 307.584 
L 414.72 41.472 
L 57.6 41.472 
z
" style="fill:#ffffff;"/>
   </g>
   <g id="matplotlib.axis_1">
    <g id="xtick_1">
     <g id="line2d_1">
      <defs>
       <path d="M 0 0 
L 0 3.5 
" id="m9ffd8444a4" style="stroke:#000000;stroke-width:0.8;"/>
      </defs>
      <g>
       <use style="stroke:#000000;stroke-width:0.8;" x="96.80961" xlink:href="#m9ffd8444a4" y="307.584"/>
      </g>
     </g>
     <g id="text_1">
      <!-- −200 -->
      <defs>
       <path d="M 10.59375 35.5 
L 73.1875 35.5 
L 73.1875 27.203125 
L 10.59375 27.203125 
z
" id="DejaVuSans-8722"/>
       <path d="M 19.1875 8.296875 
L 53.609375 8.296875 
L 53.609375 0 
L 7.328125 0 
L 7.328125 8.296875 
Q 12.9375 14.109375 22.625 23.890625 
Q 32.328125 33.6875 34.8125 36.53125 
Q 39.546875 41.84375 41.421875 45.53125 
Q 43.3125 49.21875 43.3125 52.78125 
Q 43.3125 58.59375 39.234375 62.25 
Q 35.15625 65.921875 28.609375 65.921875 
Q 23.96875 65.921875 18.8125 64.3125 
Q 13.671875 62.703125 7.8125 59.421875 
L 7.8125 69.390625 
Q 13.765625 71.78125 18.9375 73 
Q 24.125 74.21875 28.421875 74.21875 
Q 39.75 74.21875 46.484375 68.546875 
Q 53.21875 62.890625 53.21875 53.421875 
Q 53.21875 48.921875 51.53125 44.890625 
Q 49.859375 40.875 45.40625 35.40625 
Q 44.1875 33.984375 37.640625 27.21875 
Q 31.109375 20.453125 19.1875 8.296875 
z
" id="DejaVuSans-50"/>
       <path d="M 31.78125 66.40625 
Q 24.171875 66.40625 20.328125 58.90625 
Q 16.5 51.421875 16.5 36.375 
Q 16.5 21.390625 20.328125 13.890625 
Q 24.171875 6.390625 31.78125 6.390625 
Q 39.453125 6.390625 43.28125 13.890625 
Q 47.125 21.390625 47.125 36.375 
Q 47.125 51.421875 43.28125 58.90625 
Q 39.453125 66.40625 31.78125 66.40625 
z
M 31.78125 74.21875 
Q 44.046875 74.21875 50.515625 64.515625 
Q 56.984375 54.828125 56.984375 36.375 
Q 56.984375 17.96875 50.515625 8.265625 
Q 44.046875 -1.421875 31.78125 -1.421875 
Q 19.53125 -1.421875 13.0625 8.265625 
Q 6.59375 17.96875 6.59375 36.375 
Q 6.59375 54.828125 13.0625 64.515625 
Q 19.53125 74.21875 31.78125 74.21875 
z
" id="DejaVuSans-48"/>
      </defs>
      <g transform="translate(83.076017 322.182437)scale(0.1 -0.1)">
       <use xlink:href="#DejaVuSans-8722"/>
       <use x="83.789062" xlink:href="#DejaVuSans-50"/>
       <use x="147.412109" xlink:href="#DejaVuSans-48"/>
       <use x="211.035156" xlink:href="#DejaVuSans-48"/>
      </g>
     </g>
    </g>
    <g id="xtick_2">
     <g id="line2d_2">
      <g>
       <use style="stroke:#000000;stroke-width:0.8;" x="139.300065" xlink:href="#m9ffd8444a4" y="307.584"/>
      </g>
     </g>
     <g id="text_2">
      <!-- −100 -->
      <defs>
       <path d="M 12.40625 8.296875 
L 28.515625 8.296875 
L 28.515625 63.921875 
L 10.984375 60.40625 
L 10.984375 69.390625 
L 28.421875 72.90625 
L 38.28125 72.90625 
L 38.28125 8.296875 
L 54.390625 8.296875 
L 54.390625 0 
L 12.40625 0 
z
" id="DejaVuSans-49"/>
      </defs>
      <g transform="translate(125.566472 322.182437)scale(0.1 -0.1)">
       <use xlink:href="#DejaVuSans-8722"/>
       <use x="83.789062" xlink:href="#DejaVuSans-49"/>
       <use x="147.412109" xlink:href="#DejaVuSans-48"/>
       <use x="211.035156" xlink:href="#DejaVuSans-48"/>
      </g>
     </g>
    </g>
    <g id="xtick_3">
     <g id="line2d_3">
      <g>
       <use style="stroke:#000000;stroke-width:0.8;" x="181.79052" xlink:href="#m9ffd8444a4" y="307.584"/>
      </g>
     </g>
     <g id="text_3">
      <!-- 0 -->
      <g transform="translate(178.60927 322.182437)scale(0.1 -0.1)">
       <use xlink:href="#DejaVuSans-48"/>
      </g>
     </g>
    </g>
    <g id="xtick_4">
     <g id="line2d_4">
      <g>
       <use style="stroke:#000000;stroke-width:0.8;" x="224.280975" xlink:href="#m9ffd8444a4" y="307.584"/>
      </g>
     </g>
     <g id="text_4">
      <!-- 100 -->
      <g transform="translate(214.737225 322.182437)scale(0.1 -0.1)">
       <use xlink:href="#DejaVuSans-49"/>
       <use x="63.623047" xlink:href="#DejaVuSans-48"/>
       <use x="127.246094" xlink:href="#DejaVuSans-48"/>
      </g>
     </g>
    </g>
    <g id="xtick_5">
     <g id="line2d_5">
      <g>
       <use style="stroke:#000000;stroke-width:0.8;" x="266.77143" xlink:href="#m9ffd8444a4" y="307.584"/>
      </g>
     </g>
     <g id="text_5">
      <!-- 200 -->
      <g transform="translate(257.22768 322.182437)scale(0.1 -0.1)">
       <use xlink:href="#DejaVuSans-50"/>
       <use x="63.623047" xlink:href="#DejaVuSans-48"/>
       <use x="127.246094" xlink:href="#DejaVuSans-48"/>
      </g>
     </g>
    </g>
    <g id="xtick_6">
     <g id="line2d_6">
      <g>
       <use style="stroke:#000000;stroke-width:0.8;" x="309.261885" xlink:href="#m9ffd8444a4" y="307.584"/>
      </g>
     </g>
     <g id="text_6">
      <!-- 300 -->
      <defs>
       <path d="M 40.578125 39.3125 
Q 47.65625 37.796875 51.625 33 
Q 55.609375 28.21875 55.609375 21.1875 
Q 55.609375 10.40625 48.1875 4.484375 
Q 40.765625 -1.421875 27.09375 -1.421875 
Q 22.515625 -1.421875 17.65625 -0.515625 
Q 12.796875 0.390625 7.625 2.203125 
L 7.625 11.71875 
Q 11.71875 9.328125 16.59375 8.109375 
Q 21.484375 6.890625 26.8125 6.890625 
Q 36.078125 6.890625 40.9375 10.546875 
Q 45.796875 14.203125 45.796875 21.1875 
Q 45.796875 27.640625 41.28125 31.265625 
Q 36.765625 34.90625 28.71875 34.90625 
L 20.21875 34.90625 
L 20.21875 43.015625 
L 29.109375 43.015625 
Q 36.375 43.015625 40.234375 45.921875 
Q 44.09375 48.828125 44.09375 54.296875 
Q 44.09375 59.90625 40.109375 62.90625 
Q 36.140625 65.921875 28.71875 65.921875 
Q 24.65625 65.921875 20.015625 65.03125 
Q 15.375 64.15625 9.8125 62.3125 
L 9.8125 71.09375 
Q 15.4375 72.65625 20.34375 73.4375 
Q 25.25 74.21875 29.59375 74.21875 
Q 40.828125 74.21875 47.359375 69.109375 
Q 53.90625 64.015625 53.90625 55.328125 
Q 53.90625 49.265625 50.4375 45.09375 
Q 46.96875 40.921875 40.578125 39.3125 
z
" id="DejaVuSans-51"/>
      </defs>
      <g transform="translate(299.718135 322.182437)scale(0.1 -0.1)">
       <use xlink:href="#DejaVuSans-51"/>
       <use x="63.623047" xlink:href="#DejaVuSans-48"/>
       <use x="127.246094" xlink:href="#DejaVuSans-48"/>
      </g>
     </g>
    </g>
    <g id="xtick_7">
     <g id="line2d_7">
      <g>
       <use style="stroke:#000000;stroke-width:0.8;" x="351.75234" xlink:href="#m9ffd8444a4" y="307.584"/>
      </g>
     </g>
     <g id="text_7">
      <!-- 400 -->
      <defs>
       <path d="M 37.796875 64.3125 
L 12.890625 25.390625 
L 37.796875 25.390625 
z
M 35.203125 72.90625 
L 47.609375 72.90625 
L 47.609375 25.390625 
L 58.015625 25.390625 
L 58.015625 17.1875 
L 47.609375 17.1875 
L 47.609375 0 
L 37.796875 0 
L 37.796875 17.1875 
L 4.890625 17.1875 
L 4.890625 26.703125 
z
" id="DejaVuSans-52"/>
      </defs>
      <g transform="translate(342.20859 322.182437)scale(0.1 -0.1)">
       <use xlink:href="#DejaVuSans-52"/>
       <use x="63.623047" xlink:href="#DejaVuSans-48"/>
       <use x="127.246094" xlink:href="#DejaVuSans-48"/>
      </g>
     </g>
    </g>
    <g id="xtick_8">
     <g id="line2d_8">
      <g>
       <use style="stroke:#000000;stroke-width:0.8;" x="394.242795" xlink:href="#m9ffd8444a4" y="307.584"/>
      </g>
     </g>
     <g id="text_8">
      <!-- 500 -->
      <defs>
       <path d="M 10.796875 72.90625 
L 49.515625 72.90625 
L 49.515625 64.59375 
L 19.828125 64.59375 
L 19.828125 46.734375 
Q 21.96875 47.46875 24.109375 47.828125 
Q 26.265625 48.1875 28.421875 48.1875 
Q 40.625 48.1875 47.75 41.5 
Q 54.890625 34.8125 54.890625 23.390625 
Q 54.890625 11.625 47.5625 5.09375 
Q 40.234375 -1.421875 26.90625 -1.421875 
Q 22.3125 -1.421875 17.546875 -0.640625 
Q 12.796875 0.140625 7.71875 1.703125 
L 7.71875 11.625 
Q 12.109375 9.234375 16.796875 8.0625 
Q 21.484375 6.890625 26.703125 6.890625 
Q 35.15625 6.890625 40.078125 11.328125 
Q 45.015625 15.765625 45.015625 23.390625 
Q 45.015625 31 40.078125 35.4375 
Q 35.15625 39.890625 26.703125 39.890625 
Q 22.75 39.890625 18.8125 39.015625 
Q 14.890625 38.140625 10.796875 36.28125 
z
" id="DejaVuSans-53"/>
      </defs>
      <g transform="translate(384.699045 322.182437)scale(0.1 -0.1)">
       <use xlink:href="#DejaVuSans-53"/>
       <use x="63.623047" xlink:href="#DejaVuSans-48"/>
       <use x="127.246094" xlink:href="#DejaVuSans-48"/>
      </g>
     </g>
    </g>
   </g>
   <g id="matplotlib.axis_2">
    <g id="ytick_1">
     <g id="line2d_9">
      <defs>
       <path d="M 0 0 
L -3.5 0 
" id="m559f666039" style="stroke:#000000;stroke-width:0.8;"/>
      </defs>
      <g>
       <use style="stroke:#000000;stroke-width:0.8;" x="57.6" xlink:href="#m559f666039" y="278.563478"/>
      </g>
     </g>
     <g id="text_9">
      <!-- 0 -->
      <g transform="translate(44.2375 282.362697)scale(0.1 -0.1)">
       <use xlink:href="#DejaVuSans-48"/>
      </g>
     </g>
    </g>
    <g id="ytick_2">
     <g id="line2d_10">
      <g>
       <use style="stroke:#000000;stroke-width:0.8;" x="57.6" xlink:href="#m559f666039" y="236.073023"/>
      </g>
     </g>
     <g id="text_10">
      <!-- 100 -->
      <g transform="translate(31.5125 239.872242)scale(0.1 -0.1)">
       <use xlink:href="#DejaVuSans-49"/>
       <use x="63.623047" xlink:href="#DejaVuSans-48"/>
       <use x="127.246094" xlink:href="#DejaVuSans-48"/>
      </g>
     </g>
    </g>
    <g id="ytick_3">
     <g id="line2d_11">
      <g>
       <use style="stroke:#000000;stroke-width:0.8;" x="57.6" xlink:href="#m559f666039" y="193.582568"/>
      </g>
     </g>
     <g id="text_11">
      <!-- 200 -->
      <g transform="translate(31.5125 197.381787)scale(0.1 -0.1)">
       <use xlink:href="#DejaVuSans-50"/>
       <use x="63.623047" xlink:href="#DejaVuSans-48"/>
       <use x="127.246094" xlink:href="#DejaVuSans-48"/>
      </g>
     </g>
    </g>
    <g id="ytick_4">
     <g id="line2d_12">
      <g>
       <use style="stroke:#000000;stroke-width:0.8;" x="57.6" xlink:href="#m559f666039" y="151.092113"/>
      </g>
     </g>
     <g id="text_12">
      <!-- 300 -->
      <g transform="translate(31.5125 154.891332)scale(0.1 -0.1)">
       <use xlink:href="#DejaVuSans-51"/>
       <use x="63.623047" xlink:href="#DejaVuSans-48"/>
       <use x="127.246094" xlink:href="#DejaVuSans-48"/>
      </g>
     </g>
    </g>
    <g id="ytick_5">
     <g id="line2d_13">
      <g>
       <use style="stroke:#000000;stroke-width:0.8;" x="57.6" xlink:href="#m559f666039" y="108.601659"/>
      </g>
     </g>
     <g id="text_13">
      <!-- 400 -->
      <g transform="translate(31.5125 112.400877)scale(0.1 -0.1)">
       <use xlink:href="#DejaVuSans-52"/>
       <use x="63.623047" xlink:href="#DejaVuSans-48"/>
       <use x="127.246094" xlink:href="#DejaVuSans-48"/>
      </g>
     </g>
    </g>
    <g id="ytick_6">
     <g id="line2d_14">
      <g>
       <use style="stroke:#000000;stroke-width:0.8;" x="57.6" xlink:href="#m559f666039" y="66.111204"/>
      </g>
     </g>
     <g id="text_14">
      <!-- 500 -->
      <g transform="translate(31.5125 69.910422)scale(0.1 -0.1)">
       <use xlink:href="#DejaVuSans-53"/>
       <use x="63.623047" xlink:href="#DejaVuSans-48"/>
       <use x="127.246094" xlink:href="#DejaVuSans-48"/>
      </g>
     </g>
    </g>
   </g>
   <g id="line2d_15">
    <path clip-path="url(#p7f4e672736)" d="M 181.79052 278.563478 
L 181.791971 277.34166 
L 181.566311 275.95974 
L 180.9096 273.289962 
L 180.003275 270.574831 
L 178.861369 267.77731 
L 177.352707 264.757454 
L 174.357882 259.464133 
L 172.843322 257.192131 
L 170.113068 253.551621 
L 167.700409 250.736509 
L 165.697184 248.708839 
L 162.815001 246.054142 
L 159.314897 243.127888 
L 156.771749 241.309424 
L 154.057778 239.648544 
L 150.717008 237.888097 
L 145.477374 235.412892 
L 139.791722 232.793228 
L 137.787235 231.620151 
L 135.554277 230.087265 
L 133.230134 228.214584 
L 130.928766 226.054836 
L 129.488594 224.409436 
L 128.24817 222.667455 
L 126.986501 220.491816 
L 125.424255 217.35959 
L 124.452158 214.998905 
L 123.813612 212.823649 
L 123.402474 210.464961 
L 123.238036 207.932317 
L 123.322252 205.284057 
L 123.678619 202.543253 
L 124.304971 199.721844 
L 125.191322 196.866443 
L 126.113323 194.582199 
L 127.264644 192.347031 
L 128.680001 190.226545 
L 130.329608 188.248487 
L 132.162646 186.415406 
L 134.141597 184.732359 
L 136.195245 183.265249 
L 138.30991 182.040844 
L 140.452598 181.0676 
L 143.107159 180.1671 
L 145.706117 179.563523 
L 148.24304 179.231885 
L 151.148835 179.106155 
L 161.467875 178.844712 
L 165.095515 178.388662 
L 169.051487 177.630589 
L 173.113906 176.697796 
L 175.899032 175.816672 
L 178.979408 174.571914 
L 181.883289 173.14211 
L 184.61928 171.525858 
L 187.972184 169.259247 
L 195.841 163.86024 
L 198.090143 162.000943 
L 200.248055 159.888785 
L 201.979528 157.860545 
L 203.585617 155.649725 
L 205.859833 152.093528 
L 209.114279 146.717296 
L 210.370331 144.126696 
L 211.561198 141.038532 
L 212.90433 137.04222 
L 214.758031 131.202077 
L 215.600893 128.5392 
L 215.953742 126.620373 
L 216.028946 125.063948 
L 215.87137 123.096895 
L 215.033735 116.277134 
L 214.333445 111.106811 
L 213.635973 107.873967 
L 212.548039 103.816723 
L 203.515826 72.429279 
L 203.371244 70.768285 
L 203.451606 69.092121 
L 203.753934 67.405463 
L 204.359325 65.377308 
L 205.214883 63.374266 
L 206.306548 61.438826 
L 207.195155 60.237323 
L 208.463525 58.909794 
L 210.166283 57.486534 
L 211.742101 56.433918 
L 213.466853 55.569704 
L 215.340159 54.903114 
L 216.936687 54.548828 
L 218.601871 54.354477 
L 220.323393 54.322354 
L 222.516665 54.525756 
L 224.732691 54.996593 
L 226.945466 55.70886 
L 229.128669 56.649514 
L 237.267588 60.645699 
L 271.640964 78.070865 
L 276.232652 80.490866 
L 278.64611 81.410317 
L 280.717137 81.946844 
L 282.822369 82.251798 
L 284.553005 82.297687 
L 286.323285 82.129553 
L 288.08188 81.754235 
L 290.262023 80.986092 
L 291.956372 80.144314 
L 293.585839 79.134061 
L 295.522511 77.661511 
L 298.137841 75.371276 
L 305.012924 69.139243 
L 306.859517 67.897885 
L 308.34851 67.142489 
L 309.560635 66.775669 
L 311.124326 66.600991 
L 312.648162 66.785357 
L 314.725987 67.425646 
L 316.467841 68.208617 
L 317.788784 69.102829 
L 318.873523 70.238556 
L 319.792549 71.76065 
L 320.458077 73.406772 
L 320.723685 74.5623 
L 320.822518 76.387053 
L 320.5697 78.300653 
L 319.992042 80.655304 
L 317.28506 89.560538 
L 315.896557 94.115473 
L 315.220619 97.054962 
L 314.864676 99.597209 
L 314.728069 102.15165 
L 314.781565 104.708641 
L 315.060132 107.679743 
L 315.617267 111.002072 
L 316.530217 114.934691 
L 318.04377 120.888368 
L 318.008757 121.958703 
L 317.680179 123.281303 
L 317.188522 124.306768 
L 316.337905 125.48745 
L 314.783987 127.108631 
L 309.046671 132.684484 
L 305.992712 135.974307 
L 304.584408 137.747901 
L 303.084623 140.02522 
L 301.510946 142.857761 
L 298.750256 148.505337 
L 295.32867 155.512311 
L 293.4381 158.825334 
L 290.476472 163.533361 
L 279.381747 180.399735 
L 269.536836 194.861616 
L 266.968713 199.094175 
L 264.601485 203.421361 
L 262.130962 208.356797 
L 258.442621 216.16786 
L 253.977809 225.593517 
L 252.45767 228.220872 
L 250.428709 231.246405 
L 247.85349 234.596013 
L 244.728572 238.311289 
L 241.83289 241.444594 
L 228.840243 254.894944 
L 213.611877 270.161063 
L 197.212711 287.19329 
L 193.515506 291.473204 
L 191.651879 293.591379 
L 190.41748 294.633755 
L 189.470249 295.153443 
L 188.520537 295.438384 
L 187.59362 295.477063 
L 186.740246 295.314962 
L 185.950206 294.977456 
L 185.227331 294.450634 
L 184.448859 293.555228 
L 183.967097 292.658259 
L 183.540306 291.347751 
L 183.195672 289.574263 
L 182.268409 283.047334 
L 181.75065 279.779557 
L 181.075604 276.824875 
L 180.61128 275.364599 
L 180.61128 275.364599 
" style="fill:none;stroke:#008000;stroke-linecap:square;stroke-width:1.5;"/>
   </g>
   <g id="line2d_16">
    <path clip-path="url(#p7f4e672736)" d="M 181.79052 278.563478 
L 181.74344 277.186367 
L 181.49634 275.766237 
L 180.789654 273.045014 
L 179.598258 269.685926 
L 178.342132 266.80488 
L 176.291846 262.96795 
L 173.54573 258.329224 
L 171.732494 255.725459 
L 169.238079 252.448892 
L 167.084857 249.987024 
L 164.005312 246.916297 
L 160.248069 243.585018 
L 158.202258 242.003649 
L 156.042222 240.512488 
L 153.281932 238.885023 
L 149.934717 237.138 
L 144.34124 234.424298 
L 140.483406 232.52813 
L 138.073039 231.127979 
L 135.51469 229.300126 
L 133.874108 227.944526 
L 131.604211 225.69637 
L 130.168699 224.023054 
L 128.93694 222.271387 
L 127.845713 220.427711 
L 126.027212 216.612438 
L 125.109804 214.229844 
L 124.499282 212.046504 
L 124.087662 209.687879 
L 123.971473 207.675271 
L 124.180471 203.419898 
L 124.647411 200.647888 
L 125.226267 198.380843 
L 125.950491 196.091619 
L 127.458364 192.694754 
L 128.744467 190.51067 
L 129.859116 188.950373 
L 132.070897 186.601948 
L 134.487364 184.422718 
L 136.532506 182.913502 
L 138.640074 181.629935 
L 140.775612 180.589652 
L 142.908847 179.772845 
L 145.516826 179.028778 
L 148.080694 178.590515 
L 150.563719 178.384973 
L 154.713947 178.324243 
L 160.243964 178.195711 
L 163.920222 177.840384 
L 167.491285 177.274791 
L 173.535441 175.952596 
L 176.715249 174.945855 
L 179.417738 173.860642 
L 182.34889 172.45547 
L 185.105616 170.871583 
L 190.235312 167.589586 
L 197.041534 162.810732 
L 198.961474 161.203266 
L 201.104736 159.076271 
L 202.833115 157.045824 
L 204.949318 154.059729 
L 209.017616 147.594851 
L 210.418327 145.052097 
L 211.58545 142.437492 
L 213.192195 138.01559 
L 214.996108 131.919651 
L 215.874285 128.815759 
L 216.43308 126.924661 
L 216.742776 125.003239 
L 216.786251 123.438622 
L 216.530428 120.645872 
L 215.972034 114.010777 
L 215.630109 110.693635 
L 214.955731 106.969718 
L 214.115312 103.333939 
L 212.29609 96.460887 
L 210.415471 89.290391 
L 207.608131 78.372452 
L 206.028479 72.243767 
L 205.781551 70.261905 
L 205.825537 68.585893 
L 206.165203 66.577712 
L 206.777457 64.564271 
L 207.644812 62.574385 
L 208.742948 60.654263 
L 209.882302 59.179967 
L 211.18748 57.891569 
L 212.620292 56.733083 
L 214.517673 55.496005 
L 216.265323 54.684781 
L 218.151466 54.06289 
L 219.753281 53.742971 
L 221.420708 53.581714 
L 223.575643 53.632743 
L 225.326673 53.852385 
L 227.973477 54.503092 
L 230.156304 55.324245 
L 232.312597 56.347424 
L 245.167082 63.156008 
L 270.529233 76.702705 
L 279.564999 81.638324 
L 281.586275 82.340944 
L 283.659465 82.828932 
L 285.780575 83.103316 
L 287.530567 83.104396 
L 289.30677 82.888782 
L 291.51845 82.323438 
L 293.252419 81.643004 
L 294.945526 80.763455 
L 296.959074 79.4375 
L 299.282518 77.618388 
L 303.007002 74.370317 
L 306.479917 71.380688 
L 308.436631 70.003002 
L 310.253849 68.984424 
L 311.464538 68.533647 
L 313.015365 68.2722 
L 313.942352 68.25358 
L 315.461954 68.494324 
L 317.241418 69.067879 
L 318.978508 69.862609 
L 320.310232 70.738912 
L 321.401336 71.870344 
L 322.295188 73.407596 
L 322.926748 75.068259 
L 323.208267 76.53693 
L 323.245533 77.748528 
L 323.080233 79.322664 
L 322.545763 81.625854 
L 321.078994 86.352511 
L 317.545048 97.368615 
L 317.036443 99.887228 
L 316.772525 102.007302 
L 316.62752 104.992391 
L 316.74177 107.969727 
L 317.128425 111.339412 
L 317.88227 115.391805 
L 318.693647 118.558194 
L 319.438318 121.395657 
L 319.586254 122.760894 
L 319.496029 123.840075 
L 319.213438 124.887741 
L 318.72303 125.914124 
L 317.857922 127.085672 
L 316.526576 128.447993 
L 308.562566 136.074809 
L 306.42124 138.410169 
L 305.063438 140.225684 
L 303.822478 142.133851 
L 302.235021 144.993102 
L 297.940028 153.379642 
L 295.703171 157.6174 
L 293.97579 160.416189 
L 286.99501 170.773972 
L 276.853716 185.313986 
L 270.70345 193.973439 
L 267.639198 198.637633 
L 265.456065 202.374145 
L 263.3992 206.148039 
L 252.416253 227.429675 
L 250.370733 230.443939 
L 248.123588 233.299591 
L 245.358942 236.504819 
L 241.621564 240.511664 
L 224.654994 257.145405 
L 214.070351 267.192566 
L 204.997483 276.035157 
L 191.469223 289.823403 
L 189.005435 292.47571 
L 187.997831 293.240279 
L 187.032988 293.718049 
L 186.077525 293.964945 
L 185.150944 294.000285 
L 184.093286 293.777221 
L 183.139361 293.263745 
L 182.458467 292.647302 
L 181.897632 291.856439 
L 181.378064 290.658882 
L 180.976777 288.979011 
L 180.151839 283.303597 
L 179.543061 278.876008 
L 178.914731 275.57594 
L 178.439978 273.800993 
L 178.439978 273.800993 
" style="fill:none;stroke:#0000ff;stroke-linecap:square;stroke-width:1.5;"/>
   </g>
   <g id="line2d_17">
    <path clip-path="url(#p7f4e672736)" d="M 181.79052 278.563478 
L 181.782585 277.651014 
L 181.613505 276.88415 
L 181.19805 275.868427 
L 180.765312 273.358929 
L 179.504797 266.898057 
L 176.208733 255.60602 
L 173.941826 249.72876 
L 171.738956 245.11193 
L 168.853674 239.461725 
L 165.746043 234.12075 
L 161.303556 226.94537 
L 158.698274 222.773874 
L 154.945657 216.522283 
L 152.278828 211.491414 
L 151.166122 208.918082 
L 150.455772 206.738001 
L 149.884166 204.225362 
L 149.511256 201.850865 
L 149.264709 198.888273 
L 149.375367 197.000349 
L 149.756398 195.122678 
L 150.349461 193.25522 
L 151.198108 191.510341 
L 152.248136 189.859386 
L 153.472716 188.335844 
L 155.483304 186.335561 
L 156.854959 185.394467 
L 159.245231 184.401625 
L 159.707013 184.340989 
L 160.923904 183.714846 
L 166.288621 182.273426 
L 169.874187 181.604522 
L 172.892693 181.612941 
L 175.017168 181.809137 
L 178.58835 182.437022 
L 185.248033 183.686192 
L 195.413573 185.285649 
L 199.936759 185.670774 
L 203.07584 185.795605 
L 211.428725 185.618535 
L 215.841184 185.263896 
L 217.949243 184.876105 
L 220.124026 184.412867 
L 222.225538 183.761266 
L 225.317306 182.799109 
L 225.569234 182.556733 
L 228.372962 181.591641 
L 234.43539 178.865333 
L 238.274991 176.854404 
L 238.329051 176.485634 
L 240.865554 174.875576 
L 241.706417 173.878824 
L 242.830172 171.94056 
L 243.110918 171.431084 
L 243.102159 171.031466 
L 245.379876 167.046943 
L 246.695229 164.474135 
L 253.405038 150.982631 
L 255.493005 146.927474 
L 258.461924 141.29852 
L 259.284121 140.362708 
L 260.096658 139.767198 
L 260.983335 139.370221 
L 262.701532 138.995398 
L 264.148188 139.02493 
L 265.475187 139.327889 
L 266.839102 139.911087 
L 268.715004 140.999787 
L 270.460148 142.2991 
L 272.037501 143.670378 
L 274.814637 146.565084 
L 277.108719 149.690163 
L 279.322025 153.193881 
L 287.385942 166.265618 
L 297.235176 182.922266 
L 302.307608 191.98687 
L 308.168964 203.064916 
L 309.428442 205.84252 
L 310.913753 209.949779 
L 311.593169 212.439283 
L 311.984589 214.8607 
L 312.308232 218.722745 
L 312.079824 220.980255 
L 311.916404 222.563246 
L 311.916638 224.491048 
L 312.210227 227.20431 
L 312.691427 230.020272 
L 313.180421 231.743597 
L 313.965772 233.731082 
L 314.788729 235.196588 
L 315.571322 236.179435 
L 316.11742 236.687327 
L 318.410372 238.871917 
L 318.90229 239.276435 
L 323.543448 243.966063 
L 324.515395 245.513643 
L 325.502865 247.559478 
L 326.229914 249.536475 
L 327.28762 253.171339 
L 328.653769 260.61553 
L 328.968239 261.17419 
L 329.358942 261.432205 
L 329.789421 261.404266 
L 330.439329 261.090669 
L 333.687062 259.37159 
L 334.333519 259.236203 
L 335.286705 259.399781 
L 338.553928 260.638767 
L 339.824059 260.959571 
L 340.125854 260.751838 
L 341.750881 261.237565 
L 342.754061 261.543208 
L 343.221512 261.575284 
L 344.997241 261.862224 
L 345.760673 262.186068 
L 346.254568 262.510279 
L 346.492329 262.536916 
L 347.335564 263.28176 
L 348.840319 264.582453 
L 348.806681 264.363934 
L 348.920199 264.406832 
L 349.031863 264.502403 
L 349.038612 264.457796 
L 349.025106 264.214609 
L 349.008876 264.214279 
L 348.909037 264.018966 
L 348.775734 263.921358 
L 348.744085 264.007028 
L 348.669291 263.917759 
L 348.415526 263.56117 
L 348.206176 263.477683 
L 347.392271 263.134022 
L 347.533475 263.595781 
L 347.435164 263.583387 
L 347.216172 263.434991 
L 347.075515 263.123103 
L 346.958458 262.371225 
L 346.888088 259.772022 
L 346.726691 247.042762 
L 346.704456 246.340121 
L 346.682436 243.270379 
L 346.682436 243.270379 
" style="fill:none;stroke:#ff0000;stroke-linecap:square;stroke-width:1.5;"/>
   </g>
   <g id="patch_3">
    <path d="M 57.6 307.584 
L 57.6 41.472 
" style="fill:none;stroke:#000000;stroke-linecap:square;stroke-linejoin:miter;stroke-width:0.8;"/>
   </g>
   <g id="patch_4">
    <path d="M 414.72 307.584 
L 414.72 41.472 
" style="fill:none;stroke:#000000;stroke-linecap:square;stroke-linejoin:miter;stroke-width:0.8;"/>
   </g>
   <g id="patch_5">
    <path d="M 57.6 307.584 
L 414.72 307.584 
" style="fill:none;stroke:#000000;stroke-linecap:square;stroke-linejoin:miter;stroke-width:0.8;"/>
   </g>
   <g id="patch_6">
    <path d="M 57.6 41.472 
L 414.72 41.472 
" style="fill:none;stroke:#000000;stroke-linecap:square;stroke-linejoin:miter;stroke-width:0.8;"/>
   </g>
  </g>
 </g>
 <defs>
  <clipPath id="p7f4e672736">
   <rect height="266.112" width="357.12" x="57.6" y="41.472"/>
  </clipPath>
 </defs>
</svg>
