<?xml version="1.0" encoding="utf-8" standalone="no"?>
<!DOCTYPE svg PUBLIC "-//W3C//DTD SVG 1.1//EN"
  "http://www.w3.org/Graphics/SVG/1.1/DTD/svg11.dtd">
<!-- Created with matplotlib (https://matplotlib.org/) -->
<svg height="345.6pt" version="1.1" viewBox="0 0 460.8 345.6" width="460.8pt" xmlns="http://www.w3.org/2000/svg" xmlns:xlink="http://www.w3.org/1999/xlink">
 <defs>
  <style type="text/css">
*{stroke-linecap:butt;stroke-linejoin:round;}
  </style>
 </defs>
 <g id="figure_1">
  <g id="patch_1">
   <path d="M 0 345.6 
L 460.8 345.6 
L 460.8 0 
L 0 0 
z
" style="fill:#ffffff;"/>
  </g>
  <g id="axes_1">
   <g id="patch_2">
    <path d="M 57.6 307.584 
L 414.72 307.584 
L 414.72 41.472 
L 57.6 41.472 
z
" style="fill:#ffffff;"/>
   </g>
   <g id="matplotlib.axis_1">
    <g id="xtick_1">
     <g id="line2d_1">
      <defs>
       <path d="M 0 0 
L 0 3.5 
" id="meb478d8710" style="stroke:#000000;stroke-width:0.8;"/>
      </defs>
      <g>
       <use style="stroke:#000000;stroke-width:0.8;" x="81.543517" xlink:href="#meb478d8710" y="307.584"/>
      </g>
     </g>
     <g id="text_1">
      <!-- −600 -->
      <defs>
       <path d="M 10.59375 35.5 
L 73.1875 35.5 
L 73.1875 27.203125 
L 10.59375 27.203125 
z
" id="DejaVuSans-8722"/>
       <path d="M 33.015625 40.375 
Q 26.375 40.375 22.484375 35.828125 
Q 18.609375 31.296875 18.609375 23.390625 
Q 18.609375 15.53125 22.484375 10.953125 
Q 26.375 6.390625 33.015625 6.390625 
Q 39.65625 6.390625 43.53125 10.953125 
Q 47.40625 15.53125 47.40625 23.390625 
Q 47.40625 31.296875 43.53125 35.828125 
Q 39.65625 40.375 33.015625 40.375 
z
M 52.59375 71.296875 
L 52.59375 62.3125 
Q 48.875 64.0625 45.09375 64.984375 
Q 41.3125 65.921875 37.59375 65.921875 
Q 27.828125 65.921875 22.671875 59.328125 
Q 17.53125 52.734375 16.796875 39.40625 
Q 19.671875 43.65625 24.015625 45.921875 
Q 28.375 48.1875 33.59375 48.1875 
Q 44.578125 48.1875 50.953125 41.515625 
Q 57.328125 34.859375 57.328125 23.390625 
Q 57.328125 12.15625 50.6875 5.359375 
Q 44.046875 -1.421875 33.015625 -1.421875 
Q 20.359375 -1.421875 13.671875 8.265625 
Q 6.984375 17.96875 6.984375 36.375 
Q 6.984375 53.65625 15.1875 63.9375 
Q 23.390625 74.21875 37.203125 74.21875 
Q 40.921875 74.21875 44.703125 73.484375 
Q 48.484375 72.75 52.59375 71.296875 
z
" id="DejaVuSans-54"/>
       <path d="M 31.78125 66.40625 
Q 24.171875 66.40625 20.328125 58.90625 
Q 16.5 51.421875 16.5 36.375 
Q 16.5 21.390625 20.328125 13.890625 
Q 24.171875 6.390625 31.78125 6.390625 
Q 39.453125 6.390625 43.28125 13.890625 
Q 47.125 21.390625 47.125 36.375 
Q 47.125 51.421875 43.28125 58.90625 
Q 39.453125 66.40625 31.78125 66.40625 
z
M 31.78125 74.21875 
Q 44.046875 74.21875 50.515625 64.515625 
Q 56.984375 54.828125 56.984375 36.375 
Q 56.984375 17.96875 50.515625 8.265625 
Q 44.046875 -1.421875 31.78125 -1.421875 
Q 19.53125 -1.421875 13.0625 8.265625 
Q 6.59375 17.96875 6.59375 36.375 
Q 6.59375 54.828125 13.0625 64.515625 
Q 19.53125 74.21875 31.78125 74.21875 
z
" id="DejaVuSans-48"/>
      </defs>
      <g transform="translate(67.809923 322.182437)scale(0.1 -0.1)">
       <use xlink:href="#DejaVuSans-8722"/>
       <use x="83.789062" xlink:href="#DejaVuSans-54"/>
       <use x="147.412109" xlink:href="#DejaVuSans-48"/>
       <use x="211.035156" xlink:href="#DejaVuSans-48"/>
      </g>
     </g>
    </g>
    <g id="xtick_2">
     <g id="line2d_2">
      <g>
       <use style="stroke:#000000;stroke-width:0.8;" x="131.42239" xlink:href="#meb478d8710" y="307.584"/>
      </g>
     </g>
     <g id="text_2">
      <!-- −400 -->
      <defs>
       <path d="M 37.796875 64.3125 
L 12.890625 25.390625 
L 37.796875 25.390625 
z
M 35.203125 72.90625 
L 47.609375 72.90625 
L 47.609375 25.390625 
L 58.015625 25.390625 
L 58.015625 17.1875 
L 47.609375 17.1875 
L 47.609375 0 
L 37.796875 0 
L 37.796875 17.1875 
L 4.890625 17.1875 
L 4.890625 26.703125 
z
" id="DejaVuSans-52"/>
      </defs>
      <g transform="translate(117.688797 322.182437)scale(0.1 -0.1)">
       <use xlink:href="#DejaVuSans-8722"/>
       <use x="83.789062" xlink:href="#DejaVuSans-52"/>
       <use x="147.412109" xlink:href="#DejaVuSans-48"/>
       <use x="211.035156" xlink:href="#DejaVuSans-48"/>
      </g>
     </g>
    </g>
    <g id="xtick_3">
     <g id="line2d_3">
      <g>
       <use style="stroke:#000000;stroke-width:0.8;" x="181.301264" xlink:href="#meb478d8710" y="307.584"/>
      </g>
     </g>
     <g id="text_3">
      <!-- −200 -->
      <defs>
       <path d="M 19.1875 8.296875 
L 53.609375 8.296875 
L 53.609375 0 
L 7.328125 0 
L 7.328125 8.296875 
Q 12.9375 14.109375 22.625 23.890625 
Q 32.328125 33.6875 34.8125 36.53125 
Q 39.546875 41.84375 41.421875 45.53125 
Q 43.3125 49.21875 43.3125 52.78125 
Q 43.3125 58.59375 39.234375 62.25 
Q 35.15625 65.921875 28.609375 65.921875 
Q 23.96875 65.921875 18.8125 64.3125 
Q 13.671875 62.703125 7.8125 59.421875 
L 7.8125 69.390625 
Q 13.765625 71.78125 18.9375 73 
Q 24.125 74.21875 28.421875 74.21875 
Q 39.75 74.21875 46.484375 68.546875 
Q 53.21875 62.890625 53.21875 53.421875 
Q 53.21875 48.921875 51.53125 44.890625 
Q 49.859375 40.875 45.40625 35.40625 
Q 44.1875 33.984375 37.640625 27.21875 
Q 31.109375 20.453125 19.1875 8.296875 
z
" id="DejaVuSans-50"/>
      </defs>
      <g transform="translate(167.56767 322.182437)scale(0.1 -0.1)">
       <use xlink:href="#DejaVuSans-8722"/>
       <use x="83.789062" xlink:href="#DejaVuSans-50"/>
       <use x="147.412109" xlink:href="#DejaVuSans-48"/>
       <use x="211.035156" xlink:href="#DejaVuSans-48"/>
      </g>
     </g>
    </g>
    <g id="xtick_4">
     <g id="line2d_4">
      <g>
       <use style="stroke:#000000;stroke-width:0.8;" x="231.180138" xlink:href="#meb478d8710" y="307.584"/>
      </g>
     </g>
     <g id="text_4">
      <!-- 0 -->
      <g transform="translate(227.998888 322.182437)scale(0.1 -0.1)">
       <use xlink:href="#DejaVuSans-48"/>
      </g>
     </g>
    </g>
    <g id="xtick_5">
     <g id="line2d_5">
      <g>
       <use style="stroke:#000000;stroke-width:0.8;" x="281.059012" xlink:href="#meb478d8710" y="307.584"/>
      </g>
     </g>
     <g id="text_5">
      <!-- 200 -->
      <g transform="translate(271.515262 322.182437)scale(0.1 -0.1)">
       <use xlink:href="#DejaVuSans-50"/>
       <use x="63.623047" xlink:href="#DejaVuSans-48"/>
       <use x="127.246094" xlink:href="#DejaVuSans-48"/>
      </g>
     </g>
    </g>
    <g id="xtick_6">
     <g id="line2d_6">
      <g>
       <use style="stroke:#000000;stroke-width:0.8;" x="330.937885" xlink:href="#meb478d8710" y="307.584"/>
      </g>
     </g>
     <g id="text_6">
      <!-- 400 -->
      <g transform="translate(321.394135 322.182437)scale(0.1 -0.1)">
       <use xlink:href="#DejaVuSans-52"/>
       <use x="63.623047" xlink:href="#DejaVuSans-48"/>
       <use x="127.246094" xlink:href="#DejaVuSans-48"/>
      </g>
     </g>
    </g>
    <g id="xtick_7">
     <g id="line2d_7">
      <g>
       <use style="stroke:#000000;stroke-width:0.8;" x="380.816759" xlink:href="#meb478d8710" y="307.584"/>
      </g>
     </g>
     <g id="text_7">
      <!-- 600 -->
      <g transform="translate(371.273009 322.182437)scale(0.1 -0.1)">
       <use xlink:href="#DejaVuSans-54"/>
       <use x="63.623047" xlink:href="#DejaVuSans-48"/>
       <use x="127.246094" xlink:href="#DejaVuSans-48"/>
      </g>
     </g>
    </g>
   </g>
   <g id="matplotlib.axis_2">
    <g id="ytick_1">
     <g id="line2d_8">
      <defs>
       <path d="M 0 0 
L -3.5 0 
" id="m65305176d6" style="stroke:#000000;stroke-width:0.8;"/>
      </defs>
      <g>
       <use style="stroke:#000000;stroke-width:0.8;" x="57.6" xlink:href="#m65305176d6" y="301.52672"/>
      </g>
     </g>
     <g id="text_8">
      <!-- −400 -->
      <g transform="translate(23.132812 305.325938)scale(0.1 -0.1)">
       <use xlink:href="#DejaVuSans-8722"/>
       <use x="83.789062" xlink:href="#DejaVuSans-52"/>
       <use x="147.412109" xlink:href="#DejaVuSans-48"/>
       <use x="211.035156" xlink:href="#DejaVuSans-48"/>
      </g>
     </g>
    </g>
    <g id="ytick_2">
     <g id="line2d_9">
      <g>
       <use style="stroke:#000000;stroke-width:0.8;" x="57.6" xlink:href="#m65305176d6" y="251.647846"/>
      </g>
     </g>
     <g id="text_9">
      <!-- −200 -->
      <g transform="translate(23.132812 255.447065)scale(0.1 -0.1)">
       <use xlink:href="#DejaVuSans-8722"/>
       <use x="83.789062" xlink:href="#DejaVuSans-50"/>
       <use x="147.412109" xlink:href="#DejaVuSans-48"/>
       <use x="211.035156" xlink:href="#DejaVuSans-48"/>
      </g>
     </g>
    </g>
    <g id="ytick_3">
     <g id="line2d_10">
      <g>
       <use style="stroke:#000000;stroke-width:0.8;" x="57.6" xlink:href="#m65305176d6" y="201.768972"/>
      </g>
     </g>
     <g id="text_10">
      <!-- 0 -->
      <g transform="translate(44.2375 205.568191)scale(0.1 -0.1)">
       <use xlink:href="#DejaVuSans-48"/>
      </g>
     </g>
    </g>
    <g id="ytick_4">
     <g id="line2d_11">
      <g>
       <use style="stroke:#000000;stroke-width:0.8;" x="57.6" xlink:href="#m65305176d6" y="151.890098"/>
      </g>
     </g>
     <g id="text_11">
      <!-- 200 -->
      <g transform="translate(31.5125 155.689317)scale(0.1 -0.1)">
       <use xlink:href="#DejaVuSans-50"/>
       <use x="63.623047" xlink:href="#DejaVuSans-48"/>
       <use x="127.246094" xlink:href="#DejaVuSans-48"/>
      </g>
     </g>
    </g>
    <g id="ytick_5">
     <g id="line2d_12">
      <g>
       <use style="stroke:#000000;stroke-width:0.8;" x="57.6" xlink:href="#m65305176d6" y="102.011225"/>
      </g>
     </g>
     <g id="text_12">
      <!-- 400 -->
      <g transform="translate(31.5125 105.810444)scale(0.1 -0.1)">
       <use xlink:href="#DejaVuSans-52"/>
       <use x="63.623047" xlink:href="#DejaVuSans-48"/>
       <use x="127.246094" xlink:href="#DejaVuSans-48"/>
      </g>
     </g>
    </g>
    <g id="ytick_6">
     <g id="line2d_13">
      <g>
       <use style="stroke:#000000;stroke-width:0.8;" x="57.6" xlink:href="#m65305176d6" y="52.132351"/>
      </g>
     </g>
     <g id="text_13">
      <!-- 600 -->
      <g transform="translate(31.5125 55.93157)scale(0.1 -0.1)">
       <use xlink:href="#DejaVuSans-54"/>
       <use x="63.623047" xlink:href="#DejaVuSans-48"/>
       <use x="127.246094" xlink:href="#DejaVuSans-48"/>
      </g>
     </g>
    </g>
   </g>
   <g id="line2d_14">
    <path clip-path="url(#pc0d950f45d)" d="M 231.180138 201.768972 
L 231.312772 201.364944 
L 231.720364 200.928579 
L 232.375783 200.573919 
L 233.880074 200.113746 
L 235.837012 199.737067 
L 237.082879 199.721168 
L 238.116197 199.903868 
L 239.487487 200.398435 
L 240.913711 201.183887 
L 244.049117 203.050492 
L 249.832799 206.501425 
L 252.614297 208.22976 
L 254.475824 209.09994 
L 257.442986 210.137044 
L 260.038732 210.801585 
L 264.342057 211.631504 
L 267.356038 212.069842 
L 269.059052 212.061904 
L 274.489191 211.769898 
L 276.580737 211.189505 
L 278.264598 210.575504 
L 282.975532 208.54794 
L 287.146977 207.077496 
L 290.037034 205.797237 
L 293.979211 203.7866 
L 296.439935 202.356943 
L 299.65408 200.20604 
L 304.08108 197.545987 
L 306.719847 195.568881 
L 308.700861 193.778354 
L 310.815351 191.536443 
L 313.440476 188.771066 
L 315.679165 186.82386 
L 319.075766 184.202384 
L 328.268842 177.556196 
L 330.894042 176.261016 
L 332.591819 175.637455 
L 334.020649 175.385342 
L 339.573115 174.829667 
L 340.830412 174.932392 
L 342.277822 175.09804 
L 343.059699 174.996088 
L 343.893773 174.68023 
L 346.035123 173.55788 
L 350.697326 170.663783 
L 353.457174 169.02217 
L 354.980949 168.401577 
L 356.314037 168.084721 
L 357.970988 167.961845 
L 360.521793 168.076317 
L 367.050689 168.626381 
L 371.879886 169.279395 
L 391.585732 172.230155 
L 397.062158 173.088794 
L 397.795877 173.492364 
L 398.158247 173.871968 
L 398.453754 174.836525 
L 398.446821 175.388136 
L 397.917856 176.51692 
L 397.085552 177.502449 
L 396.041138 178.446835 
L 394.599564 179.346942 
L 389.462389 182.567142 
L 385.722371 185.199966 
L 381.957888 188.198806 
L 378.878616 191.502366 
L 370.301594 201.012912 
L 367.37141 204.277321 
L 367.17147 204.511041 
L 367.17147 204.511041 
" style="fill:none;stroke:#008000;stroke-linecap:square;stroke-width:1.5;"/>
   </g>
   <g id="line2d_15">
    <path clip-path="url(#pc0d950f45d)" d="M 231.180138 201.768972 
L 231.141523 201.346472 
L 230.845049 200.830278 
L 230.287331 200.338832 
L 228.923887 199.559088 
L 227.102291 198.756647 
L 225.89225 198.460771 
L 224.631729 198.417491 
L 222.991422 198.660121 
L 220.436676 199.4589 
L 209.9322 202.746045 
L 208.151005 203.238733 
L 206.13964 203.558332 
L 203.236822 203.798135 
L 199.892715 203.762149 
L 193.598743 203.299132 
L 191.763318 202.839288 
L 186.719875 201.375795 
L 185.080787 200.500135 
L 183.303355 199.374444 
L 178.851177 196.155024 
L 174.61546 193.434166 
L 171.313266 190.891576 
L 167.21987 187.276456 
L 165.276109 185.210743 
L 160.472311 180.628022 
L 158.983359 178.774849 
L 157.31834 176.396896 
L 155.511011 173.361935 
L 153.911165 170.716988 
L 152.00683 168.148778 
L 149.432952 165.056404 
L 141.92192 156.529462 
L 139.799255 154.834576 
L 138.266509 153.822645 
L 137.144957 153.291359 
L 134.812042 152.501208 
L 130.332916 151.234376 
L 128.186622 150.982653 
L 127.190307 150.48056 
L 126.032732 149.591578 
L 123.24328 146.943361 
L 119.167677 143.011151 
L 117.832231 142.056877 
L 116.618933 141.420922 
L 115.314373 140.97967 
L 113.391233 140.571138 
L 108.378361 139.787782 
L 102.394015 139.072265 
L 95.065386 138.600597 
L 86.880806 137.958439 
L 75.404157 137.030387 
L 74.663986 137.338685 
L 74.214281 137.77393 
L 73.922191 138.344612 
L 73.853735 139.175621 
L 73.979142 139.775745 
L 74.588442 141.055841 
L 75.467855 142.384297 
L 76.488672 143.449069 
L 79.12999 146.129926 
L 82.264784 149.547077 
L 85.105323 152.906959 
L 86.720893 155.045243 
L 88.466573 158.076865 
L 92.513951 165.471514 
L 97.304445 174.317825 
L 97.304445 174.317825 
" style="fill:none;stroke:#0000ff;stroke-linecap:square;stroke-width:1.5;"/>
   </g>
   <g id="line2d_16">
    <path clip-path="url(#pc0d950f45d)" d="M 231.180138 201.768972 
L 231.274852 201.287869 
L 231.668138 200.807952 
L 232.237601 200.486273 
L 233.391927 200.118998 
L 236.083941 199.460274 
L 237.334088 199.35694 
L 238.793587 199.47384 
L 240.376709 199.889286 
L 250.037392 202.982036 
L 254.646265 204.399424 
L 257.251463 204.838972 
L 261.338326 205.294099 
L 267.141946 205.733048 
L 269.380394 205.738562 
L 275.1038 205.539807 
L 277.282535 205.139758 
L 279.422615 204.607381 
L 284.540798 203.207675 
L 288.87034 202.130027 
L 291.937176 201.132161 
L 296.633026 199.33701 
L 303.463833 196.257166 
L 305.822427 194.83508 
L 309.253953 192.531714 
L 323.07076 182.531164 
L 327.633366 179.741617 
L 330.453255 178.256878 
L 332.874184 177.33766 
L 336.58142 176.202426 
L 337.669604 175.866654 
L 338.284524 175.660358 
L 338.774842 175.427464 
L 339.238081 174.989309 
L 339.97883 173.907138 
L 341.768051 170.767854 
L 341.986209 170.564425 
L 342.119368 170.548923 
L 343.859117 167.299122 
L 346.336269 163.355358 
L 350.893578 154.430165 
L 351.7936 152.562445 
L 351.835344 152.587315 
L 351.959383 152.810568 
L 352.093798 153.463062 
L 352.178753 165.673483 
L 351.962575 171.922079 
L 351.633322 174.974436 
L 351.361668 179.602952 
L 350.509 188.57344 
L 349.492862 195.281041 
L 349.370952 195.824108 
L 349.370952 195.824108 
" style="fill:none;stroke:#ff0000;stroke-linecap:square;stroke-width:1.5;"/>
   </g>
   <g id="patch_3">
    <path d="M 57.6 307.584 
L 57.6 41.472 
" style="fill:none;stroke:#000000;stroke-linecap:square;stroke-linejoin:miter;stroke-width:0.8;"/>
   </g>
   <g id="patch_4">
    <path d="M 414.72 307.584 
L 414.72 41.472 
" style="fill:none;stroke:#000000;stroke-linecap:square;stroke-linejoin:miter;stroke-width:0.8;"/>
   </g>
   <g id="patch_5">
    <path d="M 57.6 307.584 
L 414.72 307.584 
" style="fill:none;stroke:#000000;stroke-linecap:square;stroke-linejoin:miter;stroke-width:0.8;"/>
   </g>
   <g id="patch_6">
    <path d="M 57.6 41.472 
L 414.72 41.472 
" style="fill:none;stroke:#000000;stroke-linecap:square;stroke-linejoin:miter;stroke-width:0.8;"/>
   </g>
  </g>
 </g>
 <defs>
  <clipPath id="pc0d950f45d">
   <rect height="266.112" width="357.12" x="57.6" y="41.472"/>
  </clipPath>
 </defs>
</svg>
