<?xml version="1.0" encoding="utf-8" standalone="no"?>
<!DOCTYPE svg PUBLIC "-//W3C//DTD SVG 1.1//EN"
  "http://www.w3.org/Graphics/SVG/1.1/DTD/svg11.dtd">
<!-- Created with matplotlib (https://matplotlib.org/) -->
<svg height="345.6pt" version="1.1" viewBox="0 0 460.8 345.6" width="460.8pt" xmlns="http://www.w3.org/2000/svg" xmlns:xlink="http://www.w3.org/1999/xlink">
 <defs>
  <style type="text/css">
*{stroke-linecap:butt;stroke-linejoin:round;}
  </style>
 </defs>
 <g id="figure_1">
  <g id="patch_1">
   <path d="M 0 345.6 
L 460.8 345.6 
L 460.8 0 
L 0 0 
z
" style="fill:#ffffff;"/>
  </g>
  <g id="axes_1">
   <g id="patch_2">
    <path d="M 57.6 307.584 
L 414.72 307.584 
L 414.72 41.472 
L 57.6 41.472 
z
" style="fill:#ffffff;"/>
   </g>
   <g id="matplotlib.axis_1">
    <g id="xtick_1">
     <g id="line2d_1">
      <defs>
       <path d="M 0 0 
L 0 3.5 
" id="m84e8420256" style="stroke:#000000;stroke-width:0.8;"/>
      </defs>
      <g>
       <use style="stroke:#000000;stroke-width:0.8;" x="108.684972" xlink:href="#m84e8420256" y="307.584"/>
      </g>
     </g>
     <g id="text_1">
      <!-- −200 -->
      <defs>
       <path d="M 10.59375 35.5 
L 73.1875 35.5 
L 73.1875 27.203125 
L 10.59375 27.203125 
z
" id="DejaVuSans-8722"/>
       <path d="M 19.1875 8.296875 
L 53.609375 8.296875 
L 53.609375 0 
L 7.328125 0 
L 7.328125 8.296875 
Q 12.9375 14.109375 22.625 23.890625 
Q 32.328125 33.6875 34.8125 36.53125 
Q 39.546875 41.84375 41.421875 45.53125 
Q 43.3125 49.21875 43.3125 52.78125 
Q 43.3125 58.59375 39.234375 62.25 
Q 35.15625 65.921875 28.609375 65.921875 
Q 23.96875 65.921875 18.8125 64.3125 
Q 13.671875 62.703125 7.8125 59.421875 
L 7.8125 69.390625 
Q 13.765625 71.78125 18.9375 73 
Q 24.125 74.21875 28.421875 74.21875 
Q 39.75 74.21875 46.484375 68.546875 
Q 53.21875 62.890625 53.21875 53.421875 
Q 53.21875 48.921875 51.53125 44.890625 
Q 49.859375 40.875 45.40625 35.40625 
Q 44.1875 33.984375 37.640625 27.21875 
Q 31.109375 20.453125 19.1875 8.296875 
z
" id="DejaVuSans-50"/>
       <path d="M 31.78125 66.40625 
Q 24.171875 66.40625 20.328125 58.90625 
Q 16.5 51.421875 16.5 36.375 
Q 16.5 21.390625 20.328125 13.890625 
Q 24.171875 6.390625 31.78125 6.390625 
Q 39.453125 6.390625 43.28125 13.890625 
Q 47.125 21.390625 47.125 36.375 
Q 47.125 51.421875 43.28125 58.90625 
Q 39.453125 66.40625 31.78125 66.40625 
z
M 31.78125 74.21875 
Q 44.046875 74.21875 50.515625 64.515625 
Q 56.984375 54.828125 56.984375 36.375 
Q 56.984375 17.96875 50.515625 8.265625 
Q 44.046875 -1.421875 31.78125 -1.421875 
Q 19.53125 -1.421875 13.0625 8.265625 
Q 6.59375 17.96875 6.59375 36.375 
Q 6.59375 54.828125 13.0625 64.515625 
Q 19.53125 74.21875 31.78125 74.21875 
z
" id="DejaVuSans-48"/>
      </defs>
      <g transform="translate(94.951378 322.182437)scale(0.1 -0.1)">
       <use xlink:href="#DejaVuSans-8722"/>
       <use x="83.789062" xlink:href="#DejaVuSans-50"/>
       <use x="147.412109" xlink:href="#DejaVuSans-48"/>
       <use x="211.035156" xlink:href="#DejaVuSans-48"/>
      </g>
     </g>
    </g>
    <g id="xtick_2">
     <g id="line2d_2">
      <g>
       <use style="stroke:#000000;stroke-width:0.8;" x="159.823479" xlink:href="#m84e8420256" y="307.584"/>
      </g>
     </g>
     <g id="text_2">
      <!-- 0 -->
      <g transform="translate(156.642229 322.182437)scale(0.1 -0.1)">
       <use xlink:href="#DejaVuSans-48"/>
      </g>
     </g>
    </g>
    <g id="xtick_3">
     <g id="line2d_3">
      <g>
       <use style="stroke:#000000;stroke-width:0.8;" x="210.961986" xlink:href="#m84e8420256" y="307.584"/>
      </g>
     </g>
     <g id="text_3">
      <!-- 200 -->
      <g transform="translate(201.418236 322.182437)scale(0.1 -0.1)">
       <use xlink:href="#DejaVuSans-50"/>
       <use x="63.623047" xlink:href="#DejaVuSans-48"/>
       <use x="127.246094" xlink:href="#DejaVuSans-48"/>
      </g>
     </g>
    </g>
    <g id="xtick_4">
     <g id="line2d_4">
      <g>
       <use style="stroke:#000000;stroke-width:0.8;" x="262.100494" xlink:href="#m84e8420256" y="307.584"/>
      </g>
     </g>
     <g id="text_4">
      <!-- 400 -->
      <defs>
       <path d="M 37.796875 64.3125 
L 12.890625 25.390625 
L 37.796875 25.390625 
z
M 35.203125 72.90625 
L 47.609375 72.90625 
L 47.609375 25.390625 
L 58.015625 25.390625 
L 58.015625 17.1875 
L 47.609375 17.1875 
L 47.609375 0 
L 37.796875 0 
L 37.796875 17.1875 
L 4.890625 17.1875 
L 4.890625 26.703125 
z
" id="DejaVuSans-52"/>
      </defs>
      <g transform="translate(252.556744 322.182437)scale(0.1 -0.1)">
       <use xlink:href="#DejaVuSans-52"/>
       <use x="63.623047" xlink:href="#DejaVuSans-48"/>
       <use x="127.246094" xlink:href="#DejaVuSans-48"/>
      </g>
     </g>
    </g>
    <g id="xtick_5">
     <g id="line2d_5">
      <g>
       <use style="stroke:#000000;stroke-width:0.8;" x="313.239001" xlink:href="#m84e8420256" y="307.584"/>
      </g>
     </g>
     <g id="text_5">
      <!-- 600 -->
      <defs>
       <path d="M 33.015625 40.375 
Q 26.375 40.375 22.484375 35.828125 
Q 18.609375 31.296875 18.609375 23.390625 
Q 18.609375 15.53125 22.484375 10.953125 
Q 26.375 6.390625 33.015625 6.390625 
Q 39.65625 6.390625 43.53125 10.953125 
Q 47.40625 15.53125 47.40625 23.390625 
Q 47.40625 31.296875 43.53125 35.828125 
Q 39.65625 40.375 33.015625 40.375 
z
M 52.59375 71.296875 
L 52.59375 62.3125 
Q 48.875 64.0625 45.09375 64.984375 
Q 41.3125 65.921875 37.59375 65.921875 
Q 27.828125 65.921875 22.671875 59.328125 
Q 17.53125 52.734375 16.796875 39.40625 
Q 19.671875 43.65625 24.015625 45.921875 
Q 28.375 48.1875 33.59375 48.1875 
Q 44.578125 48.1875 50.953125 41.515625 
Q 57.328125 34.859375 57.328125 23.390625 
Q 57.328125 12.15625 50.6875 5.359375 
Q 44.046875 -1.421875 33.015625 -1.421875 
Q 20.359375 -1.421875 13.671875 8.265625 
Q 6.984375 17.96875 6.984375 36.375 
Q 6.984375 53.65625 15.1875 63.9375 
Q 23.390625 74.21875 37.203125 74.21875 
Q 40.921875 74.21875 44.703125 73.484375 
Q 48.484375 72.75 52.59375 71.296875 
z
" id="DejaVuSans-54"/>
      </defs>
      <g transform="translate(303.695251 322.182437)scale(0.1 -0.1)">
       <use xlink:href="#DejaVuSans-54"/>
       <use x="63.623047" xlink:href="#DejaVuSans-48"/>
       <use x="127.246094" xlink:href="#DejaVuSans-48"/>
      </g>
     </g>
    </g>
    <g id="xtick_6">
     <g id="line2d_6">
      <g>
       <use style="stroke:#000000;stroke-width:0.8;" x="364.377508" xlink:href="#m84e8420256" y="307.584"/>
      </g>
     </g>
     <g id="text_6">
      <!-- 800 -->
      <defs>
       <path d="M 31.78125 34.625 
Q 24.75 34.625 20.71875 30.859375 
Q 16.703125 27.09375 16.703125 20.515625 
Q 16.703125 13.921875 20.71875 10.15625 
Q 24.75 6.390625 31.78125 6.390625 
Q 38.8125 6.390625 42.859375 10.171875 
Q 46.921875 13.96875 46.921875 20.515625 
Q 46.921875 27.09375 42.890625 30.859375 
Q 38.875 34.625 31.78125 34.625 
z
M 21.921875 38.8125 
Q 15.578125 40.375 12.03125 44.71875 
Q 8.5 49.078125 8.5 55.328125 
Q 8.5 64.0625 14.71875 69.140625 
Q 20.953125 74.21875 31.78125 74.21875 
Q 42.671875 74.21875 48.875 69.140625 
Q 55.078125 64.0625 55.078125 55.328125 
Q 55.078125 49.078125 51.53125 44.71875 
Q 48 40.375 41.703125 38.8125 
Q 48.828125 37.15625 52.796875 32.3125 
Q 56.78125 27.484375 56.78125 20.515625 
Q 56.78125 9.90625 50.3125 4.234375 
Q 43.84375 -1.421875 31.78125 -1.421875 
Q 19.734375 -1.421875 13.25 4.234375 
Q 6.78125 9.90625 6.78125 20.515625 
Q 6.78125 27.484375 10.78125 32.3125 
Q 14.796875 37.15625 21.921875 38.8125 
z
M 18.3125 54.390625 
Q 18.3125 48.734375 21.84375 45.5625 
Q 25.390625 42.390625 31.78125 42.390625 
Q 38.140625 42.390625 41.71875 45.5625 
Q 45.3125 48.734375 45.3125 54.390625 
Q 45.3125 60.0625 41.71875 63.234375 
Q 38.140625 66.40625 31.78125 66.40625 
Q 25.390625 66.40625 21.84375 63.234375 
Q 18.3125 60.0625 18.3125 54.390625 
z
" id="DejaVuSans-56"/>
      </defs>
      <g transform="translate(354.833758 322.182437)scale(0.1 -0.1)">
       <use xlink:href="#DejaVuSans-56"/>
       <use x="63.623047" xlink:href="#DejaVuSans-48"/>
       <use x="127.246094" xlink:href="#DejaVuSans-48"/>
      </g>
     </g>
    </g>
   </g>
   <g id="matplotlib.axis_2">
    <g id="ytick_1">
     <g id="line2d_7">
      <defs>
       <path d="M 0 0 
L -3.5 0 
" id="m4bfac82750" style="stroke:#000000;stroke-width:0.8;"/>
      </defs>
      <g>
       <use style="stroke:#000000;stroke-width:0.8;" x="57.6" xlink:href="#m4bfac82750" y="288.83157"/>
      </g>
     </g>
     <g id="text_7">
      <!-- 0 -->
      <g transform="translate(44.2375 292.630789)scale(0.1 -0.1)">
       <use xlink:href="#DejaVuSans-48"/>
      </g>
     </g>
    </g>
    <g id="ytick_2">
     <g id="line2d_8">
      <g>
       <use style="stroke:#000000;stroke-width:0.8;" x="57.6" xlink:href="#m4bfac82750" y="237.693063"/>
      </g>
     </g>
     <g id="text_8">
      <!-- 200 -->
      <g transform="translate(31.5125 241.492281)scale(0.1 -0.1)">
       <use xlink:href="#DejaVuSans-50"/>
       <use x="63.623047" xlink:href="#DejaVuSans-48"/>
       <use x="127.246094" xlink:href="#DejaVuSans-48"/>
      </g>
     </g>
    </g>
    <g id="ytick_3">
     <g id="line2d_9">
      <g>
       <use style="stroke:#000000;stroke-width:0.8;" x="57.6" xlink:href="#m4bfac82750" y="186.554555"/>
      </g>
     </g>
     <g id="text_9">
      <!-- 400 -->
      <g transform="translate(31.5125 190.353774)scale(0.1 -0.1)">
       <use xlink:href="#DejaVuSans-52"/>
       <use x="63.623047" xlink:href="#DejaVuSans-48"/>
       <use x="127.246094" xlink:href="#DejaVuSans-48"/>
      </g>
     </g>
    </g>
    <g id="ytick_4">
     <g id="line2d_10">
      <g>
       <use style="stroke:#000000;stroke-width:0.8;" x="57.6" xlink:href="#m4bfac82750" y="135.416048"/>
      </g>
     </g>
     <g id="text_10">
      <!-- 600 -->
      <g transform="translate(31.5125 139.215267)scale(0.1 -0.1)">
       <use xlink:href="#DejaVuSans-54"/>
       <use x="63.623047" xlink:href="#DejaVuSans-48"/>
       <use x="127.246094" xlink:href="#DejaVuSans-48"/>
      </g>
     </g>
    </g>
    <g id="ytick_5">
     <g id="line2d_11">
      <g>
       <use style="stroke:#000000;stroke-width:0.8;" x="57.6" xlink:href="#m4bfac82750" y="84.277541"/>
      </g>
     </g>
     <g id="text_11">
      <!-- 800 -->
      <g transform="translate(31.5125 88.07676)scale(0.1 -0.1)">
       <use xlink:href="#DejaVuSans-56"/>
       <use x="63.623047" xlink:href="#DejaVuSans-48"/>
       <use x="127.246094" xlink:href="#DejaVuSans-48"/>
      </g>
     </g>
    </g>
   </g>
   <g id="line2d_12">
    <path clip-path="url(#p0bdc9042d5)" d="M 159.823479 288.83157 
L 159.739435 282.346953 
L 159.680275 274.696604 
L 159.859638 273.012283 
L 160.26313 271.481242 
L 160.888635 270.13221 
L 161.575731 269.158106 
L 162.408369 268.355306 
L 163.574708 267.58281 
L 164.682519 267.129999 
L 165.884443 266.903954 
L 167.376412 266.877801 
L 170.440636 267.138585 
L 176.418689 267.872008 
L 183.207262 268.705484 
L 190.13363 269.573673 
L 192.23146 270.153742 
L 194.221489 270.950657 
L 196.123407 271.9784 
L 197.675051 273.070506 
L 199.120302 274.357295 
L 200.416127 275.861212 
L 201.334907 277.235058 
L 202.3576 279.303833 
L 203.283412 281.778996 
L 205.047153 287.018611 
L 206.020933 289.080071 
L 207.014272 290.719778 
L 208.179157 292.190253 
L 209.290984 293.228643 
L 210.505345 294.100307 
L 211.843691 294.76445 
L 212.983133 295.125297 
L 214.447255 295.332423 
L 215.926692 295.274897 
L 217.395901 294.985734 
L 218.823893 294.471815 
L 220.170088 293.739389 
L 221.423314 292.816475 
L 222.806636 291.521105 
L 224.04291 290.046322 
L 225.327458 288.130291 
L 227.353489 284.59411 
L 232.024685 275.752701 
L 235.66457 268.658115 
L 236.560235 267.433053 
L 237.587224 266.362911 
L 238.741676 265.5009 
L 239.995746 264.872072 
L 241.320642 264.481686 
L 242.696652 264.320288 
L 244.058956 264.406883 
L 245.418141 264.752516 
L 246.624907 265.309061 
L 247.7318 266.070739 
L 248.521328 266.851647 
L 249.178662 267.782577 
L 249.686723 268.783376 
L 250.173408 270.359342 
L 250.722303 273.375185 
L 251.302495 277.34102 
L 251.685318 278.287092 
L 252.276582 279.036701 
L 253.045935 279.54893 
L 253.836408 279.785666 
L 254.955242 279.867835 
L 256.142372 279.726074 
L 257.31889 279.386366 
L 258.447235 278.865459 
L 259.467244 278.148553 
L 260.33151 277.241862 
L 261.318637 275.809572 
L 262.079655 274.2732 
L 262.514204 272.868673 
L 262.697612 271.636176 
L 262.716303 269.807054 
L 262.399449 263.917178 
L 261.880266 259.113267 
L 261.027735 253.778216 
L 260.343272 249.161738 
L 259.260977 240.332444 
L 259.078745 236.778266 
L 259.131034 233.206062 
L 259.384118 229.939769 
L 259.888139 226.31842 
L 260.687588 222.315707 
L 261.594657 219.400249 
L 263.507672 214.501486 
L 267.628438 204.766836 
L 269.278141 201.847159 
L 277.16623 189.097945 
L 279.996849 184.993823 
L 283.268844 180.579675 
L 286.586889 176.212011 
L 286.841968 175.406759 
L 286.837084 174.537966 
L 286.652219 173.760763 
L 286.23342 172.820096 
L 282.314548 165.698905 
L 278.622834 159.087743 
L 276.282071 155.156803 
L 275.889839 154.891701 
L 274.842854 154.664978 
L 273.763576 154.896738 
L 272.601837 155.456807 
L 270.922116 156.578786 
L 269.537873 157.749858 
L 268.343176 159.047548 
L 267.238098 160.604128 
L 266.187892 162.503924 
L 264.756065 165.748969 
L 263.333136 169.602103 
L 261.398464 174.821018 
L 258.930341 180.467349 
L 256.687508 184.792977 
L 254.758615 188.098903 
L 251.890256 192.464137 
L 247.670511 198.081933 
L 246.792744 198.975297 
L 246.079234 199.420662 
L 245.412337 199.597269 
L 244.829076 199.586863 
L 244.0003 199.296396 
L 243.335065 198.87031 
L 240.575605 196.836582 
L 239.421154 196.336243 
L 238.168286 196.014301 
L 236.83848 195.877684 
L 234.986831 195.933885 
L 227.946849 196.389018 
L 226.111999 196.165261 
L 224.525427 195.780393 
L 222.966623 195.18174 
L 221.466679 194.351046 
L 220.277428 193.462361 
L 219.032563 192.26214 
L 217.943492 190.907097 
L 217.065495 189.399048 
L 216.487579 187.98448 
L 216.034082 186.192229 
L 215.834566 184.523835 
L 215.820835 182.797092 
L 216.070621 180.170464 
L 216.75961 176.021955 
L 218.76043 165.69824 
L 220.74197 156.458457 
L 221.740628 151.419063 
L 222.763936 146.324133 
L 223.674942 142.861417 
L 224.743609 139.8602 
L 226.421208 135.10823 
L 227.258115 132.917431 
L 228.104279 131.320605 
L 229.169877 129.821019 
L 230.423205 128.451172 
L 231.829131 127.274194 
L 233.407137 126.291848 
L 235.409082 125.327171 
L 239.00504 123.904421 
L 244.032262 121.931037 
L 247.19615 120.333138 
L 253.009422 117.092183 
L 253.240543 116.609231 
L 253.346911 115.783344 
L 253.071734 114.494296 
L 252.612408 113.418188 
L 250.175147 109.109564 
L 240.832244 92.482132 
L 238.608179 88.67983 
L 236.999183 86.401405 
L 235.178831 84.258062 
L 232.729987 81.693466 
L 230.598892 79.824583 
L 228.378944 78.188534 
L 225.094317 76.104436 
L 223.208431 75.082023 
L 220.410899 73.769783 
L 216.949257 72.142198 
L 216.37244 72.041813 
L 215.327578 72.244833 
L 214.798167 72.548494 
L 214.027637 73.425161 
L 213.451537 74.569488 
L 212.865873 76.376288 
L 210.920462 83.722847 
L 208.887195 91.00336 
L 207.142784 96.578711 
L 206.171331 100.81009 
L 205.173644 106.142968 
L 204.135354 112.801125 
L 201.038431 133.492355 
L 199.582032 142.505953 
L 197.342805 158.106267 
L 194.527758 179.826251 
L 194.266286 184.75291 
L 194.268383 189.735795 
L 194.505819 194.525837 
L 194.786544 196.554349 
L 195.281411 198.455704 
L 196.030463 200.507995 
L 196.856886 202.18204 
L 197.785153 203.528773 
L 198.77545 204.603269 
L 199.935527 205.538721 
L 201.258148 206.294727 
L 202.733033 206.824138 
L 204.593606 207.226164 
L 214.253746 208.975331 
L 216.527927 209.72001 
L 218.340608 210.555741 
L 219.981975 211.55803 
L 221.591969 212.801898 
L 222.835376 214.019992 
L 223.653209 215.143607 
L 224.017212 216.076783 
L 224.079959 216.913102 
L 223.892204 217.623442 
L 223.455788 218.326264 
L 222.781553 218.974802 
L 218.791726 222.246644 
L 216.790472 224.328493 
L 214.506601 227.077597 
L 212.78804 229.242163 
L 211.971844 229.837722 
L 211.196917 230.11704 
L 210.36093 230.163244 
L 209.528497 229.958434 
L 208.567017 229.416698 
L 206.567961 228.196712 
L 204.997728 227.456559 
L 203.189854 226.862534 
L 200.739041 226.261018 
L 196.798768 225.518793 
L 190.820267 224.40001 
L 188.811649 223.781158 
L 187.357218 223.107433 
L 185.763819 222.099953 
L 184.313968 220.876158 
L 182.980166 219.448831 
L 181.810634 217.816796 
L 180.814473 216.001532 
L 180.119169 214.329047 
L 179.385899 211.972789 
L 178.94802 209.851794 
L 178.686324 207.369249 
L 178.687689 205.187962 
L 178.801971 202.402396 
L 178.949311 197.449605 
L 178.886825 194.39996 
L 178.610859 190.718089 
L 177.971615 186.187626 
L 176.707315 179.908814 
L 176.028784 175.975189 
L 175.722418 172.593655 
L 175.593444 167.710157 
L 175.744607 161.554486 
L 175.981708 155.428629 
L 176.330324 148.646614 
L 176.609628 142.980288 
L 176.906949 136.433612 
L 177.199758 130.051859 
L 177.655983 125.639628 
L 178.442097 118.653596 
L 178.903317 114.800513 
L 179.884338 109.015188 
L 181.356153 100.87051 
L 182.33948 96.491085 
L 183.566528 91.865734 
L 185.225901 86.44495 
L 186.657976 82.372815 
L 188.61341 77.352676 
L 189.968453 74.295999 
L 191.083068 72.400422 
L 194.395283 68.075229 
L 197.487859 64.789452 
L 199.10629 63.963692 
L 199.685587 63.956533 
L 200.345146 64.108005 
L 201.209899 64.464134 
L 204.007021 65.946307 
L 212.164201 70.114326 
L 212.812714 70.182494 
L 213.749444 69.983488 
L 214.614094 69.422371 
L 215.111135 68.887257 
L 215.889591 67.677601 
L 216.627928 65.982411 
L 218.393588 61.404133 
L 219.657169 58.116489 
L 220.350326 56.891185 
L 221.196387 55.824103 
L 222.023629 55.073646 
L 222.962506 54.462719 
L 223.994763 54.01045 
L 225.112088 53.704156 
L 226.816151 53.57071 
L 229.807447 53.649975 
L 232.139311 53.922594 
L 235.113732 54.489311 
L 237.471703 55.125884 
L 242.371257 56.775126 
L 251.18751 60.005955 
L 270.090323 67.59243 
L 273.363545 69.238528 
L 277.69536 71.442214 
L 287.049079 75.668991 
L 294.147257 78.755482 
L 299.171743 80.98957 
L 300.359614 81.889505 
L 301.27438 83.076916 
L 301.673746 83.894544 
L 302.166593 85.798866 
L 304.597181 97.073476 
L 307.558382 110.882613 
L 308.204568 115.543479 
L 308.636995 120.228943 
L 308.857658 125.825337 
L 309.013758 131.523446 
L 309.508932 142.730911 
L 309.978537 145.258253 
L 312.164709 156.033982 
L 312.673307 158.943788 
L 312.603503 159.784122 
L 312.379158 160.581346 
L 311.959771 161.341034 
L 311.32481 162.033424 
L 310.492377 162.586078 
L 309.081057 163.215184 
L 305.823636 164.654043 
L 300.796312 167.195754 
L 293.473047 171.089569 
L 289.210218 173.418314 
L 288.40719 173.519696 
L 287.761796 173.469581 
L 286.841917 173.10642 
L 286.011019 172.396643 
L 285.660055 171.930976 
L 285.035372 170.781127 
L 283.000034 166.89575 
L 278.570724 159.043432 
L 254.8983 117.544708 
L 242.637791 96.192564 
L 238.558447 89.157029 
L 236.78164 86.576555 
L 235.00652 84.382354 
L 233.508034 82.825826 
L 230.635533 80.210909 
L 228.738064 78.716105 
L 225.894072 76.828736 
L 222.417472 74.850033 
L 214.066068 70.468972 
L 206.113954 66.382723 
L 201.752913 63.923498 
L 199.819212 62.56935 
L 197.73606 60.803921 
L 190.87923 54.560675 
L 190.87923 54.560675 
" style="fill:none;stroke:#008000;stroke-linecap:square;stroke-width:1.5;"/>
   </g>
   <g id="line2d_13">
    <path clip-path="url(#p0bdc9042d5)" d="M 159.823479 288.83157 
L 159.746328 283.593374 
L 159.651248 276.95703 
L 159.774737 274.870288 
L 160.088582 273.379272 
L 160.6232 271.975762 
L 161.453593 270.698326 
L 162.249406 269.927862 
L 163.085659 269.357404 
L 164.087083 268.891532 
L 165.307693 268.560075 
L 166.781714 268.457833 
L 169.015666 268.61397 
L 174.187911 269.156475 
L 190.80438 271.233849 
L 192.840426 271.806275 
L 194.759943 272.592937 
L 196.618936 273.618909 
L 198.118385 274.707476 
L 199.533443 276.0065 
L 200.551782 277.24696 
L 201.55632 278.863777 
L 202.52716 280.940449 
L 203.839041 284.617902 
L 205.155543 288.206905 
L 206.103653 290.202581 
L 207.158922 291.903645 
L 208.119133 292.990014 
L 209.30152 293.991193 
L 210.451594 294.744097 
L 212.178029 295.327879 
L 213.415003 295.479367 
L 214.942698 295.419271 
L 216.382781 295.122806 
L 217.784466 294.619627 
L 219.095992 293.892468 
L 220.520413 292.765485 
L 221.751502 291.51709 
L 222.886589 290.024513 
L 224.051378 288.122393 
L 226.020032 284.346893 
L 233.862972 268.264361 
L 234.951703 266.882555 
L 236.0224 265.902702 
L 237.203644 265.155177 
L 238.433164 264.646313 
L 239.670058 264.365819 
L 240.972675 264.320336 
L 242.294173 264.517295 
L 243.523558 264.943884 
L 244.690437 265.597446 
L 245.607967 266.363309 
L 246.5705 267.496952 
L 247.25765 268.691634 
L 247.703385 269.932143 
L 248.236615 272.270538 
L 249.255388 277.390795 
L 249.591529 278.007308 
L 250.197896 278.653183 
L 250.784859 278.92794 
L 251.540391 278.989318 
L 252.70877 278.818287 
L 253.904547 278.433027 
L 255.073225 277.8468 
L 256.0731 277.047543 
L 256.908175 276.084467 
L 257.845444 274.62482 
L 258.562558 273.028363 
L 258.954273 271.583473 
L 259.106533 270.08558 
L 259.020314 267.964854 
L 258.659249 263.931444 
L 257.999921 258.664117 
L 256.955139 252.658256 
L 255.574805 243.707355 
L 255.015022 239.031032 
L 254.834257 235.223779 
L 254.896953 231.363961 
L 255.173857 228.094128 
L 255.70786 224.544316 
L 256.375379 221.667294 
L 257.411064 218.216793 
L 259.361464 212.901245 
L 262.058669 206.084106 
L 263.373549 203.486005 
L 266.322236 198.4892 
L 274.107786 185.898083 
L 277.946779 180.463475 
L 280.538579 176.960553 
L 280.852687 176.187006 
L 280.943081 175.305939 
L 280.768798 174.350719 
L 280.255621 173.276816 
L 277.069721 167.742935 
L 272.833569 160.440906 
L 270.152743 156.199857 
L 269.582853 155.883885 
L 268.890568 155.739072 
L 268.139663 155.812085 
L 267.350452 156.095567 
L 266.204352 156.744513 
L 264.619811 157.882929 
L 263.329883 159.090309 
L 262.217737 160.40377 
L 261.170847 161.987572 
L 260.086244 164.069678 
L 258.769261 167.14712 
L 254.365268 178.581591 
L 252.680671 182.090433 
L 250.609413 185.936488 
L 248.758241 189.005457 
L 246.010129 193.114814 
L 242.593583 197.686699 
L 241.796944 198.383718 
L 241.131893 198.669492 
L 240.464206 198.722459 
L 239.715796 198.532723 
L 238.819835 197.932794 
L 236.825054 196.455741 
L 235.51322 195.858345 
L 234.2849 195.527454 
L 232.917008 195.370319 
L 231.157591 195.413917 
L 227.663774 195.775495 
L 224.658651 195.992621 
L 222.823348 195.876431 
L 221.013301 195.540761 
L 219.422317 195.020452 
L 217.992219 194.325865 
L 216.534859 193.316146 
L 215.301256 192.253046 
L 214.155128 190.974127 
L 213.249076 189.638364 
L 212.549975 188.144549 
L 212.031245 186.432918 
L 211.738163 184.537449 
L 211.702675 182.603183 
L 211.906984 180.326553 
L 212.530193 176.208935 
L 214.377014 165.720046 
L 217.94079 146.89847 
L 218.859203 143.236653 
L 219.962668 140.018019 
L 221.742198 134.61053 
L 222.401517 132.970909 
L 223.282852 131.398972 
L 224.420404 129.855565 
L 225.695224 128.510361 
L 226.900632 127.518402 
L 228.47101 126.53573 
L 230.441026 125.560116 
L 234.394301 123.908419 
L 237.59703 122.587983 
L 240.558318 121.085448 
L 246.670592 117.566593 
L 246.939128 116.990354 
L 246.965892 116.330227 
L 246.769224 115.403874 
L 246.303956 114.233967 
L 244.867599 111.714417 
L 234.358666 93.754746 
L 231.935345 89.847561 
L 230.50249 87.976901 
L 228.49721 85.78602 
L 226.171706 83.557324 
L 224.038662 81.854133 
L 221.925711 80.442965 
L 218.317903 78.347477 
L 212.695543 75.535564 
L 211.873558 75.387161 
L 211.192251 75.467809 
L 210.665569 75.762128 
L 210.083766 76.345368 
L 209.547971 77.223817 
L 209.090234 78.446441 
L 208.515054 80.568267 
L 206.163526 89.914549 
L 204.993306 94.078777 
L 203.366882 99.51756 
L 202.425433 103.963005 
L 201.099232 111.901261 
L 199.224059 125.994015 
L 198.433317 132.023186 
L 196.672321 145.041897 
L 196.099671 149.24748 
L 192.266973 180.283853 
L 192.042902 185.07357 
L 192.137836 190.733196 
L 192.497482 195.965542 
L 192.889322 197.954681 
L 193.764648 200.569417 
L 194.620215 202.412122 
L 195.662866 203.995571 
L 196.616921 205.063186 
L 197.752372 206.00818 
L 198.919046 206.70763 
L 200.317638 207.245098 
L 202.111247 207.627429 
L 206.260039 208.20777 
L 209.903029 208.800747 
L 212.512498 209.43365 
L 214.483613 210.114858 
L 216.267933 210.959804 
L 217.893621 211.971308 
L 219.290746 213.050819 
L 220.535942 214.265643 
L 221.360937 215.393311 
L 221.681478 216.149181 
L 221.786268 216.94284 
L 221.668238 217.591888 
L 221.309972 218.264451 
L 220.673112 218.91668 
L 216.869329 222.154967 
L 215.073985 224.086902 
L 213.20208 226.416017 
L 211.708976 228.275469 
L 211.009649 228.742495 
L 210.255147 228.967524 
L 209.411343 228.976599 
L 208.627304 228.749901 
L 207.655027 228.189765 
L 205.602201 227.074381 
L 203.97649 226.408455 
L 201.382716 225.693975 
L 197.571329 224.96033 
L 190.385212 223.684344 
L 188.486314 223.095023 
L 187.06435 222.449733 
L 185.51808 221.476932 
L 184.094981 220.292997 
L 182.795175 218.896879 
L 181.633505 217.283202 
L 180.648219 215.529298 
L 179.953099 213.864848 
L 179.317771 211.942508 
L 178.810515 209.617204 
L 178.54127 207.197181 
L 178.413144 203.863799 
L 178.175645 192.817903 
L 177.804697 189.585161 
L 177.161265 186.040555 
L 175.233984 176.602435 
L 174.89821 173.265212 
L 174.66361 168.364409 
L 174.68528 160.077202 
L 174.897282 155.94527 
L 175.068511 150.861727 
L 175.369572 140.410963 
L 175.748326 129.320103 
L 176.490505 121.603209 
L 176.886906 116.453021 
L 178.354467 106.026344 
L 179.161719 101.631148 
L 180.428334 96.112333 
L 182.106291 90.106009 
L 183.919092 84.623948 
L 186.515173 77.741942 
L 187.486519 75.75852 
L 188.920884 73.428793 
L 190.623371 71.173219 
L 193.372867 68.008788 
L 194.545791 66.887783 
L 195.126627 66.658725 
L 195.653122 66.664323 
L 196.652993 66.928855 
L 198.035758 67.599906 
L 206.680154 72.017705 
L 207.737504 72.354422 
L 208.595238 72.378695 
L 209.380513 72.169103 
L 210.124495 71.693193 
L 210.74272 71.011816 
L 211.475095 69.813502 
L 212.084347 68.364685 
L 213.561921 64.431307 
L 214.965622 60.563898 
L 215.629987 59.356496 
L 216.440814 58.308824 
L 217.421425 57.397108 
L 218.611505 56.652462 
L 219.909644 56.154654 
L 221.126308 55.928698 
L 222.865006 55.849616 
L 225.474402 56.014773 
L 228.646147 56.439278 
L 231.284501 56.97886 
L 234.144583 57.775096 
L 244.004789 61.086175 
L 251.526227 63.997136 
L 258.31533 66.641998 
L 264.481666 69.022393 
L 267.829837 70.617108 
L 272.49982 72.94303 
L 286.255832 78.954134 
L 293.618988 82.161328 
L 294.610335 82.918967 
L 295.363024 83.796317 
L 295.910822 84.753547 
L 296.280842 85.858281 
L 296.920535 88.79699 
L 298.306171 94.929138 
L 301.743644 109.838472 
L 302.512147 114.720165 
L 303.124763 120.355019 
L 303.381129 125.209971 
L 303.579868 131.019015 
L 304.08321 140.265492 
L 304.455279 142.975163 
L 305.446652 147.441184 
L 306.62473 152.860733 
L 307.479845 157.064164 
L 307.698659 158.503334 
L 307.656555 159.488414 
L 307.420117 160.325018 
L 306.966905 161.071005 
L 306.292128 161.686785 
L 305.291376 162.24691 
L 300.569571 164.452429 
L 293.320172 168.356418 
L 288.523277 171.120647 
L 286.554044 172.244208 
L 285.950639 172.402988 
L 284.773979 172.469936 
L 283.97918 172.259093 
L 283.203713 171.790246 
L 282.577302 171.125934 
L 281.91031 170.035422 
L 278.578448 164.135393 
L 268.992299 147.782346 
L 265.029523 140.991012 
L 243.338377 104.430451 
L 239.003488 97.029025 
L 235.726956 91.686025 
L 233.909869 89.061171 
L 232.026843 86.71827 
L 229.909729 84.506285 
L 227.990107 82.849198 
L 226.243333 81.573863 
L 223.684336 79.990455 
L 220.141772 78.108151 
L 212.722947 74.42285 
L 206.131227 71.185689 
L 201.64566 68.832346 
L 199.593684 67.585197 
L 197.253706 65.876803 
L 195.320399 64.24313 
L 189.709717 59.163653 
L 189.709717 59.163653 
" style="fill:none;stroke:#0000ff;stroke-linecap:square;stroke-width:1.5;"/>
   </g>
   <g id="line2d_14">
    <path clip-path="url(#p0bdc9042d5)" d="M 159.823479 288.83157 
L 159.745443 283.593359 
L 159.673697 276.103201 
L 159.850571 274.369799 
L 160.242009 272.889994 
L 160.735723 271.76867 
L 161.313936 270.858026 
L 162.080604 270.058402 
L 163.077741 269.350991 
L 164.080091 268.886696 
L 165.300132 268.553266 
L 166.773954 268.449202 
L 169.00814 268.601288 
L 174.1812 269.136013 
L 190.802397 271.173412 
L 192.83927 271.743506 
L 194.75947 272.529077 
L 196.619231 273.554041 
L 198.122117 274.637932 
L 199.541577 275.932359 
L 200.566406 277.167604 
L 201.57588 278.781205 
L 202.557075 280.852966 
L 203.882564 284.525688 
L 205.209002 288.111125 
L 206.16785 290.101539 
L 207.229086 291.798925 
L 207.963288 292.650707 
L 209.139829 293.688075 
L 210.541 294.616568 
L 212.28696 295.131413 
L 213.528663 295.228793 
L 215.05183 295.103169 
L 216.477338 294.744822 
L 217.854602 294.178904 
L 219.132649 293.394381 
L 220.506814 292.206409 
L 221.683076 290.905897 
L 222.754371 289.366447 
L 223.834553 287.41435 
L 225.639805 283.556902 
L 232.796204 267.152051 
L 233.826095 265.725514 
L 234.855509 264.701965 
L 236.003576 263.904394 
L 237.210646 263.34469 
L 238.435345 263.015767 
L 239.734319 262.914525 
L 241.062327 263.054815 
L 242.306811 263.432474 
L 243.499946 264.035044 
L 244.449057 264.759848 
L 245.460378 265.848325 
L 246.193849 267.013783 
L 246.691727 268.233027 
L 247.324265 270.544504 
L 248.553102 275.614225 
L 248.917883 276.213879 
L 249.552318 276.831719 
L 250.149844 277.084222 
L 250.907308 277.112971 
L 252.067454 276.892866 
L 253.245878 276.457559 
L 254.388364 275.821926 
L 255.351323 274.978565 
L 256.140232 273.977163 
L 257.011503 272.476863 
L 257.658065 270.850431 
L 257.984441 269.389185 
L 258.065637 267.885713 
L 257.885022 265.77054 
L 257.344554 261.756292 
L 256.45678 256.521051 
L 255.146026 250.56528 
L 253.366527 241.680929 
L 252.594909 237.032878 
L 252.248715 233.235455 
L 252.143952 229.374939 
L 252.278549 226.095011 
L 252.655119 222.524004 
L 253.194709 219.619611 
L 253.996365 216.439641 
L 255.122367 212.785646 
L 257.949562 204.394493 
L 259.096367 201.74591 
L 260.720092 198.580599 
L 268.262483 184.888956 
L 272.554474 178.094398 
L 275.602129 173.378549 
L 275.730889 172.53588 
L 275.612441 171.620157 
L 275.287162 170.820344 
L 274.236041 169.116292 
L 270.198842 162.766472 
L 264.303055 153.769565 
L 263.66164 153.379001 
L 262.983076 153.225245 
L 262.250167 153.280581 
L 261.472507 153.560733 
L 260.359817 154.218304 
L 258.658271 155.540986 
L 257.422328 156.803691 
L 256.261508 158.316314 
L 255.302722 159.956023 
L 254.314387 162.114071 
L 253.098652 165.392793 
L 250.108651 174.542229 
L 247.772574 180.241714 
L 245.761762 184.403198 
L 243.895088 187.783815 
L 241.322577 191.971804 
L 238.232323 196.452101 
L 237.525612 197.068066 
L 236.847307 197.350904 
L 236.163685 197.393705 
L 235.551929 197.248175 
L 234.629951 196.689333 
L 232.5697 195.304384 
L 231.231991 194.766505 
L 229.989705 194.492218 
L 228.615995 194.395937 
L 226.859964 194.51701 
L 223.385082 195.034542 
L 220.391712 195.386424 
L 218.552277 195.353391 
L 216.728108 195.097995 
L 215.114083 194.650324 
L 213.65378 194.019197 
L 212.147102 193.082184 
L 210.863928 192.077814 
L 209.659141 190.852644 
L 208.692119 189.559494 
L 207.922068 188.100445 
L 207.325677 186.414045 
L 206.948586 184.533193 
L 206.824685 182.602493 
L 206.948713 180.036256 
L 207.433652 175.572833 
L 208.563537 166.843965 
L 211.766649 145.038954 
L 212.364352 142.449955 
L 214.890564 133.717621 
L 215.526865 132.094256 
L 216.409206 130.486267 
L 217.532696 128.937578 
L 218.788772 127.58968 
L 219.998515 126.599584 
L 221.817783 125.443621 
L 224.816265 123.938566 
L 232.029278 120.436174 
L 234.839522 118.716288 
L 238.909165 116.111154 
L 239.151371 115.523436 
L 239.147707 114.863162 
L 238.907965 113.947621 
L 238.390659 112.800979 
L 236.979581 110.561846 
L 223.172843 89.370629 
L 221.676989 87.539884 
L 219.64646 85.48643 
L 217.206684 83.30921 
L 215.010633 81.675174 
L 212.549746 80.175001 
L 208.85296 78.250685 
L 203.11267 75.704353 
L 202.285356 75.593608 
L 201.608836 75.7057 
L 201.097226 76.025815 
L 200.54138 76.633918 
L 200.044904 77.535202 
L 199.639657 78.775832 
L 199.009774 81.630686 
L 195.772058 96.084607 
L 194.863756 99.740398 
L 194.191708 103.536479 
L 193.371048 109.563939 
L 192.630045 116.993238 
L 187.043066 180.86003 
L 186.997754 185.671617 
L 187.19076 189.89227 
L 187.697646 195.522508 
L 188.102212 197.865902 
L 188.598772 199.529839 
L 189.430226 201.619896 
L 190.389599 203.417726 
L 191.358662 204.751059 
L 192.537992 205.938235 
L 193.738485 206.807015 
L 194.964062 207.424526 
L 196.374948 207.853647 
L 198.221377 208.142272 
L 202.123364 208.519203 
L 205.789719 208.964856 
L 208.424937 209.493341 
L 210.423926 210.094267 
L 212.242966 210.86701 
L 213.910405 211.811916 
L 215.351337 212.834688 
L 216.645955 213.998627 
L 217.515879 215.09319 
L 217.866847 215.835922 
L 218.004436 216.624906 
L 217.913482 217.278572 
L 217.584398 217.966326 
L 216.976643 218.645618 
L 213.306799 222.035416 
L 211.591305 224.039315 
L 209.816235 226.443973 
L 208.522463 228.234513 
L 207.840617 228.787422 
L 207.126806 229.077096 
L 206.289351 229.162351 
L 205.471916 229.007916 
L 204.49486 228.520075 
L 202.523444 227.512774 
L 200.327203 226.721902 
L 197.446821 226.090376 
L 193.310607 225.502112 
L 187.671607 224.767726 
L 185.450208 224.242872 
L 183.993302 223.719737 
L 182.426822 222.89885 
L 180.89741 221.809759 
L 179.499971 220.525752 
L 178.253885 219.037094 
L 177.154966 217.357865 
L 176.344458 215.771595 
L 175.393298 213.314755 
L 174.795433 211.011689 
L 174.430778 208.604623 
L 174.171912 205.279327 
L 173.54186 194.55111 
L 172.951146 190.760682 
L 171.998753 186.660332 
L 169.864113 177.851283 
L 169.451673 174.848 
L 169.026152 169.960447 
L 168.720184 161.678742 
L 168.766468 157.541603 
L 168.732276 152.149166 
L 168.511788 133.239167 
L 168.844952 127.805089 
L 169.046788 123.70429 
L 169.309187 117.448626 
L 169.761678 113.089934 
L 170.935521 103.416686 
L 171.9177 98.161062 
L 173.350658 92.073538 
L 174.771532 87.092883 
L 176.427379 81.906589 
L 177.668339 78.447153 
L 178.63442 76.416155 
L 179.861826 74.337899 
L 181.763121 71.705565 
L 184.712161 68.146478 
L 185.331601 67.689409 
L 185.919032 67.546753 
L 186.765668 67.654829 
L 187.822664 68.037667 
L 193.867166 70.811869 
L 197.977804 72.691004 
L 198.817871 72.816328 
L 199.644923 72.717654 
L 200.400513 72.380463 
L 201.076277 71.787677 
L 201.73371 70.844784 
L 202.281153 69.708879 
L 203.54183 66.103171 
L 205.647182 59.886299 
L 206.350475 58.785323 
L 207.243462 57.777418 
L 208.346568 56.920064 
L 209.592975 56.296582 
L 210.745422 55.95807 
L 212.19918 55.767097 
L 214.23109 55.73852 
L 217.275227 55.930593 
L 220.823943 56.422746 
L 223.733836 57.072934 
L 230.494083 58.986044 
L 236.427801 60.897192 
L 255.003501 67.367498 
L 258.403046 68.845645 
L 263.363573 71.097086 
L 277.080694 76.544194 
L 284.540991 79.484856 
L 285.557292 80.20695 
L 286.337664 81.058411 
L 286.918272 81.995289 
L 287.32531 83.086243 
L 288.066031 85.999364 
L 289.661684 92.076637 
L 293.68378 107.168206 
L 294.608739 112.04637 
L 295.395712 117.630367 
L 295.838268 123.067393 
L 296.303568 129.268275 
L 297.163105 138.137588 
L 297.636246 140.514198 
L 298.712719 144.617455 
L 299.858322 149.089616 
L 301.031881 154.031463 
L 301.250224 155.275297 
L 301.217992 156.415128 
L 301.000977 157.175062 
L 300.498126 157.987766 
L 299.797491 158.616402 
L 298.774431 159.19404 
L 295.00937 161.082299 
L 290.080419 163.919409 
L 282.84589 168.314523 
L 280.586869 169.725438 
L 279.988854 169.903107 
L 278.814977 170.005719 
L 278.013936 169.820168 
L 277.223393 169.376757 
L 276.576165 168.732652 
L 275.874768 167.664048 
L 272.357287 161.874166 
L 261.905946 145.274503 
L 237.286205 106.410911 
L 232.070973 98.160186 
L 227.724373 91.36695 
L 225.6419 88.477971 
L 223.939284 86.433614 
L 222.048884 84.481634 
L 219.992004 82.683616 
L 217.780004 81.102582 
L 215.096291 79.529742 
L 211.687421 77.830945 
L 203.09429 73.855679 
L 197.784595 71.432385 
L 191.426526 68.255849 
L 189.314218 66.898773 
L 186.60536 64.854971 
L 180.457095 59.597172 
L 180.457095 59.597172 
" style="fill:none;stroke:#ff0000;stroke-linecap:square;stroke-width:1.5;"/>
   </g>
   <g id="patch_3">
    <path d="M 57.6 307.584 
L 57.6 41.472 
" style="fill:none;stroke:#000000;stroke-linecap:square;stroke-linejoin:miter;stroke-width:0.8;"/>
   </g>
   <g id="patch_4">
    <path d="M 414.72 307.584 
L 414.72 41.472 
" style="fill:none;stroke:#000000;stroke-linecap:square;stroke-linejoin:miter;stroke-width:0.8;"/>
   </g>
   <g id="patch_5">
    <path d="M 57.6 307.584 
L 414.72 307.584 
" style="fill:none;stroke:#000000;stroke-linecap:square;stroke-linejoin:miter;stroke-width:0.8;"/>
   </g>
   <g id="patch_6">
    <path d="M 57.6 41.472 
L 414.72 41.472 
" style="fill:none;stroke:#000000;stroke-linecap:square;stroke-linejoin:miter;stroke-width:0.8;"/>
   </g>
  </g>
 </g>
 <defs>
  <clipPath id="p0bdc9042d5">
   <rect height="266.112" width="357.12" x="57.6" y="41.472"/>
  </clipPath>
 </defs>
</svg>
