<?xml version="1.0" encoding="utf-8" standalone="no"?>
<!DOCTYPE svg PUBLIC "-//W3C//DTD SVG 1.1//EN"
  "http://www.w3.org/Graphics/SVG/1.1/DTD/svg11.dtd">
<!-- Created with matplotlib (https://matplotlib.org/) -->
<svg height="345.6pt" version="1.1" viewBox="0 0 460.8 345.6" width="460.8pt" xmlns="http://www.w3.org/2000/svg" xmlns:xlink="http://www.w3.org/1999/xlink">
 <defs>
  <style type="text/css">
*{stroke-linecap:butt;stroke-linejoin:round;}
  </style>
 </defs>
 <g id="figure_1">
  <g id="patch_1">
   <path d="M 0 345.6 
L 460.8 345.6 
L 460.8 0 
L 0 0 
z
" style="fill:#ffffff;"/>
  </g>
  <g id="axes_1">
   <g id="patch_2">
    <path d="M 57.6 307.584 
L 414.72 307.584 
L 414.72 41.472 
L 57.6 41.472 
z
" style="fill:#ffffff;"/>
   </g>
   <g id="matplotlib.axis_1">
    <g id="xtick_1">
     <g id="line2d_1">
      <defs>
       <path d="M 0 0 
L 0 3.5 
" id="mab0deaaac1" style="stroke:#000000;stroke-width:0.8;"/>
      </defs>
      <g>
       <use style="stroke:#000000;stroke-width:0.8;" x="111.411973" xlink:href="#mab0deaaac1" y="307.584"/>
      </g>
     </g>
     <g id="text_1">
      <!-- −200 -->
      <defs>
       <path d="M 10.59375 35.5 
L 73.1875 35.5 
L 73.1875 27.203125 
L 10.59375 27.203125 
z
" id="DejaVuSans-8722"/>
       <path d="M 19.1875 8.296875 
L 53.609375 8.296875 
L 53.609375 0 
L 7.328125 0 
L 7.328125 8.296875 
Q 12.9375 14.109375 22.625 23.890625 
Q 32.328125 33.6875 34.8125 36.53125 
Q 39.546875 41.84375 41.421875 45.53125 
Q 43.3125 49.21875 43.3125 52.78125 
Q 43.3125 58.59375 39.234375 62.25 
Q 35.15625 65.921875 28.609375 65.921875 
Q 23.96875 65.921875 18.8125 64.3125 
Q 13.671875 62.703125 7.8125 59.421875 
L 7.8125 69.390625 
Q 13.765625 71.78125 18.9375 73 
Q 24.125 74.21875 28.421875 74.21875 
Q 39.75 74.21875 46.484375 68.546875 
Q 53.21875 62.890625 53.21875 53.421875 
Q 53.21875 48.921875 51.53125 44.890625 
Q 49.859375 40.875 45.40625 35.40625 
Q 44.1875 33.984375 37.640625 27.21875 
Q 31.109375 20.453125 19.1875 8.296875 
z
" id="DejaVuSans-50"/>
       <path d="M 31.78125 66.40625 
Q 24.171875 66.40625 20.328125 58.90625 
Q 16.5 51.421875 16.5 36.375 
Q 16.5 21.390625 20.328125 13.890625 
Q 24.171875 6.390625 31.78125 6.390625 
Q 39.453125 6.390625 43.28125 13.890625 
Q 47.125 21.390625 47.125 36.375 
Q 47.125 51.421875 43.28125 58.90625 
Q 39.453125 66.40625 31.78125 66.40625 
z
M 31.78125 74.21875 
Q 44.046875 74.21875 50.515625 64.515625 
Q 56.984375 54.828125 56.984375 36.375 
Q 56.984375 17.96875 50.515625 8.265625 
Q 44.046875 -1.421875 31.78125 -1.421875 
Q 19.53125 -1.421875 13.0625 8.265625 
Q 6.59375 17.96875 6.59375 36.375 
Q 6.59375 54.828125 13.0625 64.515625 
Q 19.53125 74.21875 31.78125 74.21875 
z
" id="DejaVuSans-48"/>
      </defs>
      <g transform="translate(97.678379 322.182437)scale(0.1 -0.1)">
       <use xlink:href="#DejaVuSans-8722"/>
       <use x="83.789062" xlink:href="#DejaVuSans-50"/>
       <use x="147.412109" xlink:href="#DejaVuSans-48"/>
       <use x="211.035156" xlink:href="#DejaVuSans-48"/>
      </g>
     </g>
    </g>
    <g id="xtick_2">
     <g id="line2d_2">
      <g>
       <use style="stroke:#000000;stroke-width:0.8;" x="169.191099" xlink:href="#mab0deaaac1" y="307.584"/>
      </g>
     </g>
     <g id="text_2">
      <!-- −150 -->
      <defs>
       <path d="M 12.40625 8.296875 
L 28.515625 8.296875 
L 28.515625 63.921875 
L 10.984375 60.40625 
L 10.984375 69.390625 
L 28.421875 72.90625 
L 38.28125 72.90625 
L 38.28125 8.296875 
L 54.390625 8.296875 
L 54.390625 0 
L 12.40625 0 
z
" id="DejaVuSans-49"/>
       <path d="M 10.796875 72.90625 
L 49.515625 72.90625 
L 49.515625 64.59375 
L 19.828125 64.59375 
L 19.828125 46.734375 
Q 21.96875 47.46875 24.109375 47.828125 
Q 26.265625 48.1875 28.421875 48.1875 
Q 40.625 48.1875 47.75 41.5 
Q 54.890625 34.8125 54.890625 23.390625 
Q 54.890625 11.625 47.5625 5.09375 
Q 40.234375 -1.421875 26.90625 -1.421875 
Q 22.3125 -1.421875 17.546875 -0.640625 
Q 12.796875 0.140625 7.71875 1.703125 
L 7.71875 11.625 
Q 12.109375 9.234375 16.796875 8.0625 
Q 21.484375 6.890625 26.703125 6.890625 
Q 35.15625 6.890625 40.078125 11.328125 
Q 45.015625 15.765625 45.015625 23.390625 
Q 45.015625 31 40.078125 35.4375 
Q 35.15625 39.890625 26.703125 39.890625 
Q 22.75 39.890625 18.8125 39.015625 
Q 14.890625 38.140625 10.796875 36.28125 
z
" id="DejaVuSans-53"/>
      </defs>
      <g transform="translate(155.457505 322.182437)scale(0.1 -0.1)">
       <use xlink:href="#DejaVuSans-8722"/>
       <use x="83.789062" xlink:href="#DejaVuSans-49"/>
       <use x="147.412109" xlink:href="#DejaVuSans-53"/>
       <use x="211.035156" xlink:href="#DejaVuSans-48"/>
      </g>
     </g>
    </g>
    <g id="xtick_3">
     <g id="line2d_3">
      <g>
       <use style="stroke:#000000;stroke-width:0.8;" x="226.970225" xlink:href="#mab0deaaac1" y="307.584"/>
      </g>
     </g>
     <g id="text_3">
      <!-- −100 -->
      <g transform="translate(213.236632 322.182437)scale(0.1 -0.1)">
       <use xlink:href="#DejaVuSans-8722"/>
       <use x="83.789062" xlink:href="#DejaVuSans-49"/>
       <use x="147.412109" xlink:href="#DejaVuSans-48"/>
       <use x="211.035156" xlink:href="#DejaVuSans-48"/>
      </g>
     </g>
    </g>
    <g id="xtick_4">
     <g id="line2d_4">
      <g>
       <use style="stroke:#000000;stroke-width:0.8;" x="284.749352" xlink:href="#mab0deaaac1" y="307.584"/>
      </g>
     </g>
     <g id="text_4">
      <!-- −50 -->
      <g transform="translate(274.197008 322.182437)scale(0.1 -0.1)">
       <use xlink:href="#DejaVuSans-8722"/>
       <use x="83.789062" xlink:href="#DejaVuSans-53"/>
       <use x="147.412109" xlink:href="#DejaVuSans-48"/>
      </g>
     </g>
    </g>
    <g id="xtick_5">
     <g id="line2d_5">
      <g>
       <use style="stroke:#000000;stroke-width:0.8;" x="342.528478" xlink:href="#mab0deaaac1" y="307.584"/>
      </g>
     </g>
     <g id="text_5">
      <!-- 0 -->
      <g transform="translate(339.347228 322.182437)scale(0.1 -0.1)">
       <use xlink:href="#DejaVuSans-48"/>
      </g>
     </g>
    </g>
    <g id="xtick_6">
     <g id="line2d_6">
      <g>
       <use style="stroke:#000000;stroke-width:0.8;" x="400.307604" xlink:href="#mab0deaaac1" y="307.584"/>
      </g>
     </g>
     <g id="text_6">
      <!-- 50 -->
      <g transform="translate(393.945104 322.182437)scale(0.1 -0.1)">
       <use xlink:href="#DejaVuSans-53"/>
       <use x="63.623047" xlink:href="#DejaVuSans-48"/>
      </g>
     </g>
    </g>
   </g>
   <g id="matplotlib.axis_2">
    <g id="ytick_1">
     <g id="line2d_7">
      <defs>
       <path d="M 0 0 
L -3.5 0 
" id="m4bb3b33ea5" style="stroke:#000000;stroke-width:0.8;"/>
      </defs>
      <g>
       <use style="stroke:#000000;stroke-width:0.8;" x="57.6" xlink:href="#m4bb3b33ea5" y="250.760531"/>
      </g>
     </g>
     <g id="text_7">
      <!-- −50 -->
      <g transform="translate(29.495313 254.55975)scale(0.1 -0.1)">
       <use xlink:href="#DejaVuSans-8722"/>
       <use x="83.789062" xlink:href="#DejaVuSans-53"/>
       <use x="147.412109" xlink:href="#DejaVuSans-48"/>
      </g>
     </g>
    </g>
    <g id="ytick_2">
     <g id="line2d_8">
      <g>
       <use style="stroke:#000000;stroke-width:0.8;" x="57.6" xlink:href="#m4bb3b33ea5" y="192.981405"/>
      </g>
     </g>
     <g id="text_8">
      <!-- 0 -->
      <g transform="translate(44.2375 196.780624)scale(0.1 -0.1)">
       <use xlink:href="#DejaVuSans-48"/>
      </g>
     </g>
    </g>
    <g id="ytick_3">
     <g id="line2d_9">
      <g>
       <use style="stroke:#000000;stroke-width:0.8;" x="57.6" xlink:href="#m4bb3b33ea5" y="135.202279"/>
      </g>
     </g>
     <g id="text_9">
      <!-- 50 -->
      <g transform="translate(37.875 139.001497)scale(0.1 -0.1)">
       <use xlink:href="#DejaVuSans-53"/>
       <use x="63.623047" xlink:href="#DejaVuSans-48"/>
      </g>
     </g>
    </g>
    <g id="ytick_4">
     <g id="line2d_10">
      <g>
       <use style="stroke:#000000;stroke-width:0.8;" x="57.6" xlink:href="#m4bb3b33ea5" y="77.423152"/>
      </g>
     </g>
     <g id="text_10">
      <!-- 100 -->
      <g transform="translate(31.5125 81.222371)scale(0.1 -0.1)">
       <use xlink:href="#DejaVuSans-49"/>
       <use x="63.623047" xlink:href="#DejaVuSans-48"/>
       <use x="127.246094" xlink:href="#DejaVuSans-48"/>
      </g>
     </g>
    </g>
   </g>
   <g id="line2d_11">
    <path clip-path="url(#p7ca5b68211)" d="M 342.528478 192.981405 
L 342.364924 191.731165 
L 342.023923 190.69424 
L 341.408997 189.571956 
L 340.720631 188.698508 
L 339.737137 187.91719 
L 338.812688 187.406373 
L 337.701459 187.026147 
L 335.940089 186.739302 
L 333.892317 186.728898 
L 330.946051 186.959402 
L 317.608942 188.243266 
L 285.054969 190.969888 
L 267.911971 192.611402 
L 265.177216 192.675615 
L 263.391714 192.500127 
L 261.812818 192.124001 
L 260.402834 191.495619 
L 259.12922 190.65447 
L 258.045515 189.620202 
L 257.115525 188.46161 
L 256.304514 187.023421 
L 255.622235 185.333649 
L 255.060172 183.411921 
L 254.266206 179.790442 
L 253.681955 175.710704 
L 253.012734 168.630438 
L 248.989642 116.066652 
L 248.299667 110.597719 
L 247.23095 104.469908 
L 246.286839 100.210119 
L 245.152369 96.071492 
L 243.762238 91.963836 
L 242.490796 88.729915 
L 241.065443 85.508174 
L 237.630555 78.325027 
L 234.307643 72.085863 
L 230.52853 65.580627 
L 226.23851 58.6974 
L 224.394201 56.246409 
L 223.424436 55.333037 
L 221.956731 54.387539 
L 220.795139 53.932124 
L 219.296233 53.618846 
L 217.756419 53.599316 
L 216.450495 53.774387 
L 215.055592 54.171445 
L 213.561192 54.809789 
L 211.460574 56.106121 
L 208.588143 58.254927 
L 204.04913 61.944471 
L 194.908241 69.665496 
L 173.180748 88.08451 
L 131.493339 123.016314 
L 129.43386 125.031754 
L 128.110718 126.583551 
L 127.064338 128.192423 
L 126.49868 129.279179 
L 125.946081 130.933372 
L 125.569592 133.154217 
L 125.577797 134.273872 
L 125.735996 135.891295 
L 125.988953 136.925576 
L 126.544326 138.380362 
L 127.308975 139.795742 
L 128.525688 141.634829 
L 131.088308 144.876145 
L 138.324796 153.526697 
L 151.380221 169.351568 
L 160.416414 180.936641 
L 162.010656 183.520098 
L 163.328136 186.216334 
L 164.36088 188.96546 
L 165.162392 191.820857 
L 165.962864 195.780626 
L 166.505756 199.918878 
L 167.742114 211.135306 
L 169.55141 228.025843 
L 170.483734 238.729634 
L 172.263215 262.514701 
L 173.077323 272.715698 
L 173.236793 278.473607 
L 173.16353 282.705998 
L 173.067847 286.481297 
L 173.407473 289.029623 
L 173.952677 290.173014 
L 174.823986 291.318624 
L 176.422503 292.739643 
L 177.34096 293.332908 
L 179.002919 294.14497 
L 180.29382 294.585201 
L 181.719231 294.926757 
L 184.083322 295.252157 
L 187.665512 295.453945 
L 191.664868 295.45903 
L 202.171193 295.012732 
L 219.808387 293.574725 
L 242.785204 291.796769 
L 253.214706 290.957019 
L 288.260786 287.926076 
L 311.148715 286.180141 
L 330.997386 284.673238 
L 334.124722 284.203656 
L 336.819515 283.587511 
L 338.646882 283.004462 
L 340.307755 282.293062 
L 341.830878 281.421764 
L 342.721236 280.703893 
L 343.894411 279.514903 
L 344.813343 278.159081 
L 345.562566 276.683182 
L 346.181122 274.541934 
L 346.45166 272.851201 
L 346.715244 269.834114 
L 346.776361 266.434125 
L 346.596497 261.731031 
L 346.075879 252.96447 
L 344.811227 236.609013 
L 343.184785 212.330837 
L 341.95656 193.964412 
L 342.026957 191.257141 
L 342.102557 189.89691 
L 341.926122 187.728357 
L 341.454163 185.710542 
L 340.866049 183.448561 
L 340.639139 182.112606 
L 340.629214 182.15654 
" style="fill:none;stroke:#008000;stroke-linecap:square;stroke-width:1.5;"/>
   </g>
   <g id="line2d_12">
    <path clip-path="url(#p7ca5b68211)" d="M 342.528478 192.981405 
L 342.531767 192.997889 
L 342.370637 191.987003 
L 341.938157 190.778229 
L 341.289774 189.586268 
L 340.609806 188.677575 
L 339.556588 187.795223 
L 338.617404 187.244515 
L 337.439754 186.883702 
L 336.174707 186.686065 
L 334.330412 186.679149 
L 331.56912 186.907887 
L 326.699953 187.448785 
L 314.420662 188.581424 
L 302.739862 189.630123 
L 295.970348 190.211735 
L 286.479424 191.023248 
L 274.754458 192.233234 
L 268.294053 192.848923 
L 265.525921 192.928776 
L 263.894927 192.79202 
L 262.560209 192.4789 
L 261.358921 191.958567 
L 260.194932 191.218272 
L 259.121112 190.203379 
L 258.452729 189.25706 
L 257.60309 187.590474 
L 256.927181 185.795872 
L 256.003781 182.297503 
L 255.400793 179.222939 
L 254.924795 175.868089 
L 253.89154 165.361307 
L 250.313987 120.793903 
L 249.330514 112.505804 
L 248.153187 105.416984 
L 247.430545 102.000643 
L 246.530279 98.640673 
L 245.182125 94.5176 
L 243.597149 90.394351 
L 241.427106 85.446584 
L 239.532761 81.396742 
L 236.288354 75.041219 
L 233.729989 70.446613 
L 227.329617 60.042257 
L 226.54492 59.121652 
L 225.635354 58.366777 
L 224.631639 57.772895 
L 223.570417 57.378411 
L 222.074434 57.096254 
L 220.432809 57.114163 
L 219.101999 57.353439 
L 217.578104 57.850536 
L 216.450138 58.368657 
L 214.893914 59.356358 
L 211.078005 62.253893 
L 203.993387 68.159078 
L 185.133224 84.265228 
L 170.417169 96.885583 
L 162.276378 103.862811 
L 138.597171 124.259889 
L 137.226357 125.781016 
L 136.239119 127.147878 
L 135.352049 128.759441 
L 134.80112 130.446155 
L 134.429346 132.302333 
L 134.357399 133.946671 
L 134.603295 135.996108 
L 135.129873 137.58477 
L 135.799761 138.971972 
L 137.246273 141.171042 
L 139.126425 143.492782 
L 142.91349 148.050114 
L 161.606656 170.723325 
L 167.050772 177.580009 
L 168.256743 179.389087 
L 169.33877 181.404718 
L 170.385758 183.925525 
L 171.235895 186.539451 
L 171.867905 189.232436 
L 172.369255 191.981399 
L 172.849404 196.071024 
L 173.744775 203.720868 
L 175.081002 215.400914 
L 176.035036 224.918672 
L 177.143867 237.893827 
L 177.729736 246.288182 
L 178.377272 254.901701 
L 179.19448 264.324936 
L 179.34866 268.811992 
L 179.304795 271.50508 
L 179.113959 274.156009 
L 179.964321 274.314993 
L 180.057646 276.806293 
L 180.816998 278.187776 
L 181.842478 279.357959 
L 183.041925 280.32599 
L 184.668899 281.293664 
L 185.921521 281.847945 
L 187.418144 282.32879 
L 189.238483 282.689431 
L 192.442631 283.027988 
L 196.391134 283.234383 
L 202.744109 283.222137 
L 214.561939 282.914869 
L 237.999254 282.191168 
L 259.309877 281.533216 
L 271.831717 280.959313 
L 281.287418 280.698614 
L 307.563068 279.943675 
L 322.312828 279.56947 
L 328.981667 279.381672 
L 332.66619 279.089529 
L 335.574704 278.634393 
L 337.436255 278.143449 
L 338.862329 277.543655 
L 339.496846 277.149008 
L 340.889123 275.992365 
L 341.713435 274.895937 
L 342.564488 273.359812 
L 343.044235 271.958271 
L 343.444881 270.325457 
L 343.937906 266.684972 
L 344.14613 263.118139 
L 344.22239 254.881823 
L 343.9788 245.225166 
L 342.280218 198.346195 
L 342.084755 195.68371 
L 342.023821 192.889266 
L 342.060805 184.735763 
L 341.742722 182.964032 
L 340.796598 178.505076 
L 340.745636 178.139148 
L 340.75386 178.181281 
" style="fill:none;stroke:#0000ff;stroke-linecap:square;stroke-width:1.5;"/>
   </g>
   <g id="line2d_13">
    <path clip-path="url(#p7ca5b68211)" d="M 342.528478 192.981405 
L 342.341786 191.790969 
L 341.909771 190.582024 
L 341.262046 189.389709 
L 340.582559 188.480665 
L 339.529621 187.597981 
L 338.590478 187.047203 
L 337.41288 186.686223 
L 336.147858 186.488457 
L 334.303578 186.481641 
L 331.542553 186.713428 
L 326.673246 187.253065 
L 315.331407 188.305183 
L 303.693319 189.334003 
L 266.139699 192.696752 
L 264.34044 192.618383 
L 262.958161 192.359611 
L 261.716383 191.91939 
L 260.564213 191.261376 
L 259.471413 190.353144 
L 258.728497 189.481728 
L 257.845121 187.933711 
L 257.129958 186.200861 
L 256.342882 183.478127 
L 255.673465 180.550012 
L 255.028496 176.466306 
L 254.367057 170.354435 
L 253.444906 159.009607 
L 252.547836 147.184359 
L 250.898388 126.280796 
L 250.32496 119.61608 
L 249.320232 111.337104 
L 248.121928 104.307572 
L 247.36185 100.891978 
L 246.426677 97.559953 
L 245.327825 94.249597 
L 243.750128 90.123536 
L 241.5884 85.172114 
L 239.700978 81.119025 
L 236.46166 74.7609 
L 233.909628 70.162699 
L 227.529675 59.745679 
L 226.747049 58.823308 
L 225.839129 58.066464 
L 224.836681 57.470439 
L 223.776323 57.073637 
L 222.280949 56.787952 
L 220.639159 56.80173 
L 219.307615 57.037366 
L 217.782272 57.53044 
L 216.65348 58.047011 
L 215.09415 59.030244 
L 211.27033 61.917947 
L 204.167499 67.802349 
L 188.602254 81.008234 
L 155.866626 108.888731 
L 139.034576 123.216664 
L 137.633965 124.660836 
L 136.523164 126.068122 
L 135.577176 127.608329 
L 135.047477 128.820126 
L 134.746545 129.845054 
L 134.367027 131.699629 
L 134.288088 133.343605 
L 134.525198 135.394057 
L 135.044727 136.985078 
L 135.708576 138.375184 
L 137.146427 140.579862 
L 139.017958 142.908581 
L 142.790576 147.47776 
L 160.548201 169.156781 
L 166.285781 176.329087 
L 168.025655 178.902645 
L 169.101048 180.92188 
L 170.146333 183.443464 
L 170.988409 186.059939 
L 171.604917 188.7568 
L 172.09722 191.507375 
L 172.564683 195.598521 
L 173.438095 203.25124 
L 174.862789 216.086619 
L 176.347044 231.741174 
L 178.88228 266.493156 
L 178.89965 269.761119 
L 178.726792 273.703207 
L 179.575883 273.866054 
L 179.556635 275.700904 
L 179.464459 275.861909 
L 179.573172 276.987821 
L 179.996696 277.970288 
L 180.639102 278.98721 
L 181.678908 280.096874 
L 182.937721 281.097335 
L 184.616317 282.085556 
L 186.02259 282.681687 
L 187.798771 283.212364 
L 190.975403 283.714881 
L 194.675631 284.090514 
L 198.968054 284.300981 
L 210.17534 284.547605 
L 246.200861 284.850217 
L 254.256689 284.920094 
L 276.005346 284.81455 
L 329.886125 285.369306 
L 333.421176 285.129266 
L 335.528204 284.801612 
L 337.149884 284.386438 
L 338.634574 283.766883 
L 339.946206 282.844007 
L 340.88625 281.922334 
L 341.86193 280.46858 
L 342.513094 279.043521 
L 343.025036 277.479933 
L 343.506776 275.125981 
L 343.967601 271.894037 
L 344.251581 268.092509 
L 344.661148 256.246347 
L 344.827576 213.218342 
L 344.896874 207.555666 
L 344.832832 205.249156 
L 344.722942 202.031772 
L 344.836694 198.43267 
L 345.184569 191.766765 
L 344.999779 189.979497 
L 344.034738 184.701472 
L 344.040821 184.743966 
" style="fill:none;stroke:#ff0000;stroke-linecap:square;stroke-width:1.5;"/>
   </g>
   <g id="patch_3">
    <path d="M 57.6 307.584 
L 57.6 41.472 
" style="fill:none;stroke:#000000;stroke-linecap:square;stroke-linejoin:miter;stroke-width:0.8;"/>
   </g>
   <g id="patch_4">
    <path d="M 414.72 307.584 
L 414.72 41.472 
" style="fill:none;stroke:#000000;stroke-linecap:square;stroke-linejoin:miter;stroke-width:0.8;"/>
   </g>
   <g id="patch_5">
    <path d="M 57.6 307.584 
L 414.72 307.584 
" style="fill:none;stroke:#000000;stroke-linecap:square;stroke-linejoin:miter;stroke-width:0.8;"/>
   </g>
   <g id="patch_6">
    <path d="M 57.6 41.472 
L 414.72 41.472 
" style="fill:none;stroke:#000000;stroke-linecap:square;stroke-linejoin:miter;stroke-width:0.8;"/>
   </g>
  </g>
 </g>
 <defs>
  <clipPath id="p7ca5b68211">
   <rect height="266.112" width="357.12" x="57.6" y="41.472"/>
  </clipPath>
 </defs>
</svg>
