<?xml version="1.0" encoding="utf-8" standalone="no"?>
<!DOCTYPE svg PUBLIC "-//W3C//DTD SVG 1.1//EN"
  "http://www.w3.org/Graphics/SVG/1.1/DTD/svg11.dtd">
<!-- Created with matplotlib (https://matplotlib.org/) -->
<svg height="345.6pt" version="1.1" viewBox="0 0 460.8 345.6" width="460.8pt" xmlns="http://www.w3.org/2000/svg" xmlns:xlink="http://www.w3.org/1999/xlink">
 <defs>
  <style type="text/css">
*{stroke-linecap:butt;stroke-linejoin:round;}
  </style>
 </defs>
 <g id="figure_1">
  <g id="patch_1">
   <path d="M 0 345.6 
L 460.8 345.6 
L 460.8 0 
L 0 0 
z
" style="fill:#ffffff;"/>
  </g>
  <g id="axes_1">
   <g id="patch_2">
    <path d="M 57.6 307.584 
L 414.72 307.584 
L 414.72 41.472 
L 57.6 41.472 
z
" style="fill:#ffffff;"/>
   </g>
   <g id="matplotlib.axis_1">
    <g id="xtick_1">
     <g id="line2d_1">
      <defs>
       <path d="M 0 0 
L 0 3.5 
" id="m32149d7fdc" style="stroke:#000000;stroke-width:0.8;"/>
      </defs>
      <g>
       <use style="stroke:#000000;stroke-width:0.8;" x="92.287248" xlink:href="#m32149d7fdc" y="307.584"/>
      </g>
     </g>
     <g id="text_1">
      <!-- −40 -->
      <defs>
       <path d="M 10.59375 35.5 
L 73.1875 35.5 
L 73.1875 27.203125 
L 10.59375 27.203125 
z
" id="DejaVuSans-8722"/>
       <path d="M 37.796875 64.3125 
L 12.890625 25.390625 
L 37.796875 25.390625 
z
M 35.203125 72.90625 
L 47.609375 72.90625 
L 47.609375 25.390625 
L 58.015625 25.390625 
L 58.015625 17.1875 
L 47.609375 17.1875 
L 47.609375 0 
L 37.796875 0 
L 37.796875 17.1875 
L 4.890625 17.1875 
L 4.890625 26.703125 
z
" id="DejaVuSans-52"/>
       <path d="M 31.78125 66.40625 
Q 24.171875 66.40625 20.328125 58.90625 
Q 16.5 51.421875 16.5 36.375 
Q 16.5 21.390625 20.328125 13.890625 
Q 24.171875 6.390625 31.78125 6.390625 
Q 39.453125 6.390625 43.28125 13.890625 
Q 47.125 21.390625 47.125 36.375 
Q 47.125 51.421875 43.28125 58.90625 
Q 39.453125 66.40625 31.78125 66.40625 
z
M 31.78125 74.21875 
Q 44.046875 74.21875 50.515625 64.515625 
Q 56.984375 54.828125 56.984375 36.375 
Q 56.984375 17.96875 50.515625 8.265625 
Q 44.046875 -1.421875 31.78125 -1.421875 
Q 19.53125 -1.421875 13.0625 8.265625 
Q 6.59375 17.96875 6.59375 36.375 
Q 6.59375 54.828125 13.0625 64.515625 
Q 19.53125 74.21875 31.78125 74.21875 
z
" id="DejaVuSans-48"/>
      </defs>
      <g transform="translate(81.734904 322.182437)scale(0.1 -0.1)">
       <use xlink:href="#DejaVuSans-8722"/>
       <use x="83.789062" xlink:href="#DejaVuSans-52"/>
       <use x="147.412109" xlink:href="#DejaVuSans-48"/>
      </g>
     </g>
    </g>
    <g id="xtick_2">
     <g id="line2d_2">
      <g>
       <use style="stroke:#000000;stroke-width:0.8;" x="134.760086" xlink:href="#m32149d7fdc" y="307.584"/>
      </g>
     </g>
     <g id="text_2">
      <!-- −20 -->
      <defs>
       <path d="M 19.1875 8.296875 
L 53.609375 8.296875 
L 53.609375 0 
L 7.328125 0 
L 7.328125 8.296875 
Q 12.9375 14.109375 22.625 23.890625 
Q 32.328125 33.6875 34.8125 36.53125 
Q 39.546875 41.84375 41.421875 45.53125 
Q 43.3125 49.21875 43.3125 52.78125 
Q 43.3125 58.59375 39.234375 62.25 
Q 35.15625 65.921875 28.609375 65.921875 
Q 23.96875 65.921875 18.8125 64.3125 
Q 13.671875 62.703125 7.8125 59.421875 
L 7.8125 69.390625 
Q 13.765625 71.78125 18.9375 73 
Q 24.125 74.21875 28.421875 74.21875 
Q 39.75 74.21875 46.484375 68.546875 
Q 53.21875 62.890625 53.21875 53.421875 
Q 53.21875 48.921875 51.53125 44.890625 
Q 49.859375 40.875 45.40625 35.40625 
Q 44.1875 33.984375 37.640625 27.21875 
Q 31.109375 20.453125 19.1875 8.296875 
z
" id="DejaVuSans-50"/>
      </defs>
      <g transform="translate(124.207742 322.182437)scale(0.1 -0.1)">
       <use xlink:href="#DejaVuSans-8722"/>
       <use x="83.789062" xlink:href="#DejaVuSans-50"/>
       <use x="147.412109" xlink:href="#DejaVuSans-48"/>
      </g>
     </g>
    </g>
    <g id="xtick_3">
     <g id="line2d_3">
      <g>
       <use style="stroke:#000000;stroke-width:0.8;" x="177.232925" xlink:href="#m32149d7fdc" y="307.584"/>
      </g>
     </g>
     <g id="text_3">
      <!-- 0 -->
      <g transform="translate(174.051675 322.182437)scale(0.1 -0.1)">
       <use xlink:href="#DejaVuSans-48"/>
      </g>
     </g>
    </g>
    <g id="xtick_4">
     <g id="line2d_4">
      <g>
       <use style="stroke:#000000;stroke-width:0.8;" x="219.705763" xlink:href="#m32149d7fdc" y="307.584"/>
      </g>
     </g>
     <g id="text_4">
      <!-- 20 -->
      <g transform="translate(213.343263 322.182437)scale(0.1 -0.1)">
       <use xlink:href="#DejaVuSans-50"/>
       <use x="63.623047" xlink:href="#DejaVuSans-48"/>
      </g>
     </g>
    </g>
    <g id="xtick_5">
     <g id="line2d_5">
      <g>
       <use style="stroke:#000000;stroke-width:0.8;" x="262.178602" xlink:href="#m32149d7fdc" y="307.584"/>
      </g>
     </g>
     <g id="text_5">
      <!-- 40 -->
      <g transform="translate(255.816102 322.182437)scale(0.1 -0.1)">
       <use xlink:href="#DejaVuSans-52"/>
       <use x="63.623047" xlink:href="#DejaVuSans-48"/>
      </g>
     </g>
    </g>
    <g id="xtick_6">
     <g id="line2d_6">
      <g>
       <use style="stroke:#000000;stroke-width:0.8;" x="304.651441" xlink:href="#m32149d7fdc" y="307.584"/>
      </g>
     </g>
     <g id="text_6">
      <!-- 60 -->
      <defs>
       <path d="M 33.015625 40.375 
Q 26.375 40.375 22.484375 35.828125 
Q 18.609375 31.296875 18.609375 23.390625 
Q 18.609375 15.53125 22.484375 10.953125 
Q 26.375 6.390625 33.015625 6.390625 
Q 39.65625 6.390625 43.53125 10.953125 
Q 47.40625 15.53125 47.40625 23.390625 
Q 47.40625 31.296875 43.53125 35.828125 
Q 39.65625 40.375 33.015625 40.375 
z
M 52.59375 71.296875 
L 52.59375 62.3125 
Q 48.875 64.0625 45.09375 64.984375 
Q 41.3125 65.921875 37.59375 65.921875 
Q 27.828125 65.921875 22.671875 59.328125 
Q 17.53125 52.734375 16.796875 39.40625 
Q 19.671875 43.65625 24.015625 45.921875 
Q 28.375 48.1875 33.59375 48.1875 
Q 44.578125 48.1875 50.953125 41.515625 
Q 57.328125 34.859375 57.328125 23.390625 
Q 57.328125 12.15625 50.6875 5.359375 
Q 44.046875 -1.421875 33.015625 -1.421875 
Q 20.359375 -1.421875 13.671875 8.265625 
Q 6.984375 17.96875 6.984375 36.375 
Q 6.984375 53.65625 15.1875 63.9375 
Q 23.390625 74.21875 37.203125 74.21875 
Q 40.921875 74.21875 44.703125 73.484375 
Q 48.484375 72.75 52.59375 71.296875 
z
" id="DejaVuSans-54"/>
      </defs>
      <g transform="translate(298.288941 322.182437)scale(0.1 -0.1)">
       <use xlink:href="#DejaVuSans-54"/>
       <use x="63.623047" xlink:href="#DejaVuSans-48"/>
      </g>
     </g>
    </g>
    <g id="xtick_7">
     <g id="line2d_7">
      <g>
       <use style="stroke:#000000;stroke-width:0.8;" x="347.124279" xlink:href="#m32149d7fdc" y="307.584"/>
      </g>
     </g>
     <g id="text_7">
      <!-- 80 -->
      <defs>
       <path d="M 31.78125 34.625 
Q 24.75 34.625 20.71875 30.859375 
Q 16.703125 27.09375 16.703125 20.515625 
Q 16.703125 13.921875 20.71875 10.15625 
Q 24.75 6.390625 31.78125 6.390625 
Q 38.8125 6.390625 42.859375 10.171875 
Q 46.921875 13.96875 46.921875 20.515625 
Q 46.921875 27.09375 42.890625 30.859375 
Q 38.875 34.625 31.78125 34.625 
z
M 21.921875 38.8125 
Q 15.578125 40.375 12.03125 44.71875 
Q 8.5 49.078125 8.5 55.328125 
Q 8.5 64.0625 14.71875 69.140625 
Q 20.953125 74.21875 31.78125 74.21875 
Q 42.671875 74.21875 48.875 69.140625 
Q 55.078125 64.0625 55.078125 55.328125 
Q 55.078125 49.078125 51.53125 44.71875 
Q 48 40.375 41.703125 38.8125 
Q 48.828125 37.15625 52.796875 32.3125 
Q 56.78125 27.484375 56.78125 20.515625 
Q 56.78125 9.90625 50.3125 4.234375 
Q 43.84375 -1.421875 31.78125 -1.421875 
Q 19.734375 -1.421875 13.25 4.234375 
Q 6.78125 9.90625 6.78125 20.515625 
Q 6.78125 27.484375 10.78125 32.3125 
Q 14.796875 37.15625 21.921875 38.8125 
z
M 18.3125 54.390625 
Q 18.3125 48.734375 21.84375 45.5625 
Q 25.390625 42.390625 31.78125 42.390625 
Q 38.140625 42.390625 41.71875 45.5625 
Q 45.3125 48.734375 45.3125 54.390625 
Q 45.3125 60.0625 41.71875 63.234375 
Q 38.140625 66.40625 31.78125 66.40625 
Q 25.390625 66.40625 21.84375 63.234375 
Q 18.3125 60.0625 18.3125 54.390625 
z
" id="DejaVuSans-56"/>
      </defs>
      <g transform="translate(340.761779 322.182437)scale(0.1 -0.1)">
       <use xlink:href="#DejaVuSans-56"/>
       <use x="63.623047" xlink:href="#DejaVuSans-48"/>
      </g>
     </g>
    </g>
    <g id="xtick_8">
     <g id="line2d_8">
      <g>
       <use style="stroke:#000000;stroke-width:0.8;" x="389.597118" xlink:href="#m32149d7fdc" y="307.584"/>
      </g>
     </g>
     <g id="text_8">
      <!-- 100 -->
      <defs>
       <path d="M 12.40625 8.296875 
L 28.515625 8.296875 
L 28.515625 63.921875 
L 10.984375 60.40625 
L 10.984375 69.390625 
L 28.421875 72.90625 
L 38.28125 72.90625 
L 38.28125 8.296875 
L 54.390625 8.296875 
L 54.390625 0 
L 12.40625 0 
z
" id="DejaVuSans-49"/>
      </defs>
      <g transform="translate(380.053368 322.182437)scale(0.1 -0.1)">
       <use xlink:href="#DejaVuSans-49"/>
       <use x="63.623047" xlink:href="#DejaVuSans-48"/>
       <use x="127.246094" xlink:href="#DejaVuSans-48"/>
      </g>
     </g>
    </g>
   </g>
   <g id="matplotlib.axis_2">
    <g id="ytick_1">
     <g id="line2d_9">
      <defs>
       <path d="M 0 0 
L -3.5 0 
" id="mb56c6227a4" style="stroke:#000000;stroke-width:0.8;"/>
      </defs>
      <g>
       <use style="stroke:#000000;stroke-width:0.8;" x="57.6" xlink:href="#mb56c6227a4" y="295.488"/>
      </g>
     </g>
     <g id="text_9">
      <!-- 0 -->
      <g transform="translate(44.2375 299.287219)scale(0.1 -0.1)">
       <use xlink:href="#DejaVuSans-48"/>
      </g>
     </g>
    </g>
    <g id="ytick_2">
     <g id="line2d_10">
      <g>
       <use style="stroke:#000000;stroke-width:0.8;" x="57.6" xlink:href="#mb56c6227a4" y="253.015161"/>
      </g>
     </g>
     <g id="text_10">
      <!-- 20 -->
      <g transform="translate(37.875 256.81438)scale(0.1 -0.1)">
       <use xlink:href="#DejaVuSans-50"/>
       <use x="63.623047" xlink:href="#DejaVuSans-48"/>
      </g>
     </g>
    </g>
    <g id="ytick_3">
     <g id="line2d_11">
      <g>
       <use style="stroke:#000000;stroke-width:0.8;" x="57.6" xlink:href="#mb56c6227a4" y="210.542323"/>
      </g>
     </g>
     <g id="text_11">
      <!-- 40 -->
      <g transform="translate(37.875 214.341541)scale(0.1 -0.1)">
       <use xlink:href="#DejaVuSans-52"/>
       <use x="63.623047" xlink:href="#DejaVuSans-48"/>
      </g>
     </g>
    </g>
    <g id="ytick_4">
     <g id="line2d_12">
      <g>
       <use style="stroke:#000000;stroke-width:0.8;" x="57.6" xlink:href="#mb56c6227a4" y="168.069484"/>
      </g>
     </g>
     <g id="text_12">
      <!-- 60 -->
      <g transform="translate(37.875 171.868703)scale(0.1 -0.1)">
       <use xlink:href="#DejaVuSans-54"/>
       <use x="63.623047" xlink:href="#DejaVuSans-48"/>
      </g>
     </g>
    </g>
    <g id="ytick_5">
     <g id="line2d_13">
      <g>
       <use style="stroke:#000000;stroke-width:0.8;" x="57.6" xlink:href="#mb56c6227a4" y="125.596645"/>
      </g>
     </g>
     <g id="text_13">
      <!-- 80 -->
      <g transform="translate(37.875 129.395864)scale(0.1 -0.1)">
       <use xlink:href="#DejaVuSans-56"/>
       <use x="63.623047" xlink:href="#DejaVuSans-48"/>
      </g>
     </g>
    </g>
    <g id="ytick_6">
     <g id="line2d_14">
      <g>
       <use style="stroke:#000000;stroke-width:0.8;" x="57.6" xlink:href="#mb56c6227a4" y="83.123807"/>
      </g>
     </g>
     <g id="text_14">
      <!-- 100 -->
      <g transform="translate(31.5125 86.923026)scale(0.1 -0.1)">
       <use xlink:href="#DejaVuSans-49"/>
       <use x="63.623047" xlink:href="#DejaVuSans-48"/>
       <use x="127.246094" xlink:href="#DejaVuSans-48"/>
      </g>
     </g>
    </g>
   </g>
   <g id="line2d_15">
    <path clip-path="url(#p5218cee728)" d="M 177.232925 295.488 
L 172.441744 209.398627 
L 170.856769 186.081248 
L 169.069773 159.967373 
L 167.370003 139.441395 
L 166.33057 127.615087 
L 166.111777 121.14333 
L 166.390416 118.260422 
L 166.753497 116.436553 
L 167.292289 114.727403 
L 168.024083 113.165401 
L 168.942511 111.737995 
L 170.027268 110.528156 
L 171.24892 109.469669 
L 172.59786 108.590226 
L 174.757646 107.541338 
L 176.277239 107.019113 
L 181.125369 105.895282 
L 185.732012 105.378302 
L 189.920776 105.165046 
L 198.596295 104.96192 
L 209.093075 104.835245 
L 215.790851 104.509966 
L 238.227744 103.219025 
L 243.367467 103.080522 
L 250.12532 103.165849 
L 256.722605 103.538931 
L 263.067898 104.165342 
L 279.781024 106.159357 
L 282.069631 106.226612 
L 285.409992 106.077087 
L 287.585514 105.77124 
L 289.700662 105.225145 
L 291.674821 104.476455 
L 293.478727 103.53496 
L 295.07698 102.360586 
L 296.493364 100.91927 
L 297.691077 99.356864 
L 298.652747 97.625564 
L 299.427112 95.735672 
L 300.005804 93.781071 
L 301.438243 87.60879 
L 302.401145 83.118689 
L 305.307943 71.67247 
L 307.151434 64.519194 
L 307.151434 64.519194 
" style="fill:none;stroke:#008000;stroke-linecap:square;stroke-width:1.5;"/>
   </g>
   <g id="line2d_16">
    <path clip-path="url(#p5218cee728)" d="M 177.232925 295.488 
L 177.1464 290.009753 
L 176.796209 280.887527 
L 176.331036 271.766703 
L 174.556772 243.103961 
L 173.690999 228.823323 
L 173.200554 220.428434 
L 171.557845 196.487721 
L 169.564734 169.674228 
L 167.85712 150.857522 
L 166.348959 136.521638 
L 165.646991 130.00071 
L 165.349415 126.460593 
L 165.168566 122.144511 
L 165.273442 120.162686 
L 165.628689 117.334895 
L 166.095363 115.54798 
L 166.729807 113.906942 
L 167.530944 112.411678 
L 168.497919 111.080753 
L 169.625222 109.927914 
L 170.899867 108.901746 
L 172.277904 108.079163 
L 174.456993 107.066288 
L 176.020221 106.629166 
L 180.060746 105.671147 
L 184.665 105.130398 
L 188.851337 104.862982 
L 198.912645 104.485631 
L 206.402514 104.221833 
L 216.408813 103.572673 
L 233.685408 102.330138 
L 240.5641 101.958565 
L 247.344249 101.90367 
L 252.350875 102.047061 
L 258.839457 102.436886 
L 265.054048 103.090317 
L 276.292257 104.291466 
L 279.87872 104.497297 
L 282.135402 104.48005 
L 285.454312 104.179897 
L 287.588514 103.733348 
L 289.629428 103.056132 
L 291.533828 102.1537 
L 293.190773 101.024812 
L 294.655693 99.691599 
L 295.940635 98.198488 
L 297.059816 96.508997 
L 297.933859 94.719997 
L 298.609818 92.814955 
L 299.918485 87.778958 
L 302.057856 77.536142 
L 303.022466 73.694448 
L 305.873675 62.495468 
L 305.873675 62.495468 
" style="fill:none;stroke:#0000ff;stroke-linecap:square;stroke-width:1.5;"/>
   </g>
   <g id="line2d_17">
    <path clip-path="url(#p5218cee728)" d="M 177.232925 295.488 
L 177.029066 293.674264 
L 176.806372 290.03602 
L 176.019619 284.616254 
L 175.665862 280.983346 
L 174.973771 279.339617 
L 174.580445 272.047045 
L 174.48603 266.572357 
L 174.474898 262.85366 
L 174.415247 259.045602 
L 174.222273 257.13241 
L 174.296921 249.33034 
L 174.473767 247.350621 
L 174.7296 241.350769 
L 174.945983 235.27926 
L 175.116205 226.997399 
L 174.927467 224.939191 
L 174.847481 220.697417 
L 174.893673 207.428123 
L 175.002168 203.10781 
L 174.922654 200.969059 
L 175.066976 192.49664 
L 175.043284 184.177441 
L 175.137362 180.065363 
L 175.107291 169.863674 
L 175.130921 162.018035 
L 175.260006 158.227563 
L 174.448367 136.64627 
L 174.163407 135.275654 
L 174.060091 132.685991 
L 174.184976 131.455387 
L 174.602923 130.290165 
L 174.670791 126.746902 
L 174.884362 125.64307 
L 175.20596 124.605743 
L 175.321475 122.506994 
L 175.929417 120.635663 
L 176.264078 117.809993 
L 177.11493 117.483286 
L 177.946081 114.942801 
L 178.85345 113.506556 
L 179.836627 112.188888 
L 180.803328 110.897338 
L 181.918106 109.69701 
L 183.166169 108.688985 
L 185.208703 107.428661 
L 186.680649 106.749797 
L 188.225591 106.218721 
L 189.827453 105.794726 
L 191.518643 105.468334 
L 193.314028 105.285023 
L 194.107833 105.817553 
L 195.099878 105.789457 
L 196.072096 106.061639 
L 197.081354 105.874923 
L 199.173912 106.323159 
L 200.288871 106.410998 
L 203.869589 106.258428 
L 210.714464 105.804857 
L 212.150515 106.227171 
L 213.656411 106.085565 
L 219.981773 104.692008 
L 226.527116 103.02868 
L 231.670523 102.458638 
L 241.959161 101.447038 
L 248.823513 101.028664 
L 250.485507 100.681201 
L 253.855108 100.437122 
L 255.519248 100.634012 
L 260.483363 100.205715 
L 260.483363 100.205715 
L 262.0878 100.505001 
L 263.698388 100.448868 
L 265.281999 100.577246 
L 266.856572 100.448588 
L 269.932484 99.977774 
L 271.452488 100.073813 
L 278.700356 99.422141 
L 282.586395 98.780752 
L 290.458188 97.187549 
L 292.529826 96.484241 
L 294.487421 95.515558 
L 297.967547 93.275917 
L 297.630233 92.317283 
L 299.172882 91.084394 
L 300.551967 89.678462 
L 301.724608 88.025966 
L 302.199171 87.17924 
L 302.756744 85.228619 
L 303.148737 83.233997 
L 303.299673 81.189882 
L 303.111988 80.162381 
L 303.169396 79.116858 
L 303.010259 78.052108 
L 303.015882 76.959923 
L 302.780777 74.735551 
L 302.735171 73.597991 
L 302.904564 72.46019 
L 303.157151 67.545714 
L 303.485919 66.266085 
L 303.604771 64.930924 
L 303.948026 63.609425 
L 304.126499 62.24475 
L 304.083098 58.061741 
L 303.959349 55.100385 
L 303.961574 53.568 
L 303.961574 53.568 
" style="fill:none;stroke:#ff0000;stroke-linecap:square;stroke-width:1.5;"/>
   </g>
   <g id="patch_3">
    <path d="M 57.6 307.584 
L 57.6 41.472 
" style="fill:none;stroke:#000000;stroke-linecap:square;stroke-linejoin:miter;stroke-width:0.8;"/>
   </g>
   <g id="patch_4">
    <path d="M 414.72 307.584 
L 414.72 41.472 
" style="fill:none;stroke:#000000;stroke-linecap:square;stroke-linejoin:miter;stroke-width:0.8;"/>
   </g>
   <g id="patch_5">
    <path d="M 57.6 307.584 
L 414.72 307.584 
" style="fill:none;stroke:#000000;stroke-linecap:square;stroke-linejoin:miter;stroke-width:0.8;"/>
   </g>
   <g id="patch_6">
    <path d="M 57.6 41.472 
L 414.72 41.472 
" style="fill:none;stroke:#000000;stroke-linecap:square;stroke-linejoin:miter;stroke-width:0.8;"/>
   </g>
  </g>
 </g>
 <defs>
  <clipPath id="p5218cee728">
   <rect height="266.112" width="357.12" x="57.6" y="41.472"/>
  </clipPath>
 </defs>
</svg>
