<?xml version="1.0" encoding="utf-8" standalone="no"?>
<!DOCTYPE svg PUBLIC "-//W3C//DTD SVG 1.1//EN"
  "http://www.w3.org/Graphics/SVG/1.1/DTD/svg11.dtd">
<!-- Created with matplotlib (https://matplotlib.org/) -->
<svg height="345.6pt" version="1.1" viewBox="0 0 460.8 345.6" width="460.8pt" xmlns="http://www.w3.org/2000/svg" xmlns:xlink="http://www.w3.org/1999/xlink">
 <defs>
  <style type="text/css">
*{stroke-linecap:butt;stroke-linejoin:round;}
  </style>
 </defs>
 <g id="figure_1">
  <g id="patch_1">
   <path d="M 0 345.6 
L 460.8 345.6 
L 460.8 0 
L 0 0 
z
" style="fill:#ffffff;"/>
  </g>
  <g id="axes_1">
   <g id="patch_2">
    <path d="M 57.6 307.584 
L 414.72 307.584 
L 414.72 41.472 
L 57.6 41.472 
z
" style="fill:#ffffff;"/>
   </g>
   <g id="matplotlib.axis_1">
    <g id="xtick_1">
     <g id="line2d_1">
      <defs>
       <path d="M 0 0 
L 0 3.5 
" id="m8491d98b40" style="stroke:#000000;stroke-width:0.8;"/>
      </defs>
      <g>
       <use style="stroke:#000000;stroke-width:0.8;" x="92.469714" xlink:href="#m8491d98b40" y="307.584"/>
      </g>
     </g>
     <g id="text_1">
      <!-- −100 -->
      <defs>
       <path d="M 10.59375 35.5 
L 73.1875 35.5 
L 73.1875 27.203125 
L 10.59375 27.203125 
z
" id="DejaVuSans-8722"/>
       <path d="M 12.40625 8.296875 
L 28.515625 8.296875 
L 28.515625 63.921875 
L 10.984375 60.40625 
L 10.984375 69.390625 
L 28.421875 72.90625 
L 38.28125 72.90625 
L 38.28125 8.296875 
L 54.390625 8.296875 
L 54.390625 0 
L 12.40625 0 
z
" id="DejaVuSans-49"/>
       <path d="M 31.78125 66.40625 
Q 24.171875 66.40625 20.328125 58.90625 
Q 16.5 51.421875 16.5 36.375 
Q 16.5 21.390625 20.328125 13.890625 
Q 24.171875 6.390625 31.78125 6.390625 
Q 39.453125 6.390625 43.28125 13.890625 
Q 47.125 21.390625 47.125 36.375 
Q 47.125 51.421875 43.28125 58.90625 
Q 39.453125 66.40625 31.78125 66.40625 
z
M 31.78125 74.21875 
Q 44.046875 74.21875 50.515625 64.515625 
Q 56.984375 54.828125 56.984375 36.375 
Q 56.984375 17.96875 50.515625 8.265625 
Q 44.046875 -1.421875 31.78125 -1.421875 
Q 19.53125 -1.421875 13.0625 8.265625 
Q 6.59375 17.96875 6.59375 36.375 
Q 6.59375 54.828125 13.0625 64.515625 
Q 19.53125 74.21875 31.78125 74.21875 
z
" id="DejaVuSans-48"/>
      </defs>
      <g transform="translate(78.73612 322.182437)scale(0.1 -0.1)">
       <use xlink:href="#DejaVuSans-8722"/>
       <use x="83.789062" xlink:href="#DejaVuSans-49"/>
       <use x="147.412109" xlink:href="#DejaVuSans-48"/>
       <use x="211.035156" xlink:href="#DejaVuSans-48"/>
      </g>
     </g>
    </g>
    <g id="xtick_2">
     <g id="line2d_2">
      <g>
       <use style="stroke:#000000;stroke-width:0.8;" x="138.92482" xlink:href="#m8491d98b40" y="307.584"/>
      </g>
     </g>
     <g id="text_2">
      <!-- −50 -->
      <defs>
       <path d="M 10.796875 72.90625 
L 49.515625 72.90625 
L 49.515625 64.59375 
L 19.828125 64.59375 
L 19.828125 46.734375 
Q 21.96875 47.46875 24.109375 47.828125 
Q 26.265625 48.1875 28.421875 48.1875 
Q 40.625 48.1875 47.75 41.5 
Q 54.890625 34.8125 54.890625 23.390625 
Q 54.890625 11.625 47.5625 5.09375 
Q 40.234375 -1.421875 26.90625 -1.421875 
Q 22.3125 -1.421875 17.546875 -0.640625 
Q 12.796875 0.140625 7.71875 1.703125 
L 7.71875 11.625 
Q 12.109375 9.234375 16.796875 8.0625 
Q 21.484375 6.890625 26.703125 6.890625 
Q 35.15625 6.890625 40.078125 11.328125 
Q 45.015625 15.765625 45.015625 23.390625 
Q 45.015625 31 40.078125 35.4375 
Q 35.15625 39.890625 26.703125 39.890625 
Q 22.75 39.890625 18.8125 39.015625 
Q 14.890625 38.140625 10.796875 36.28125 
z
" id="DejaVuSans-53"/>
      </defs>
      <g transform="translate(128.372476 322.182437)scale(0.1 -0.1)">
       <use xlink:href="#DejaVuSans-8722"/>
       <use x="83.789062" xlink:href="#DejaVuSans-53"/>
       <use x="147.412109" xlink:href="#DejaVuSans-48"/>
      </g>
     </g>
    </g>
    <g id="xtick_3">
     <g id="line2d_3">
      <g>
       <use style="stroke:#000000;stroke-width:0.8;" x="185.379925" xlink:href="#m8491d98b40" y="307.584"/>
      </g>
     </g>
     <g id="text_3">
      <!-- 0 -->
      <g transform="translate(182.198675 322.182437)scale(0.1 -0.1)">
       <use xlink:href="#DejaVuSans-48"/>
      </g>
     </g>
    </g>
    <g id="xtick_4">
     <g id="line2d_4">
      <g>
       <use style="stroke:#000000;stroke-width:0.8;" x="231.835031" xlink:href="#m8491d98b40" y="307.584"/>
      </g>
     </g>
     <g id="text_4">
      <!-- 50 -->
      <g transform="translate(225.472531 322.182437)scale(0.1 -0.1)">
       <use xlink:href="#DejaVuSans-53"/>
       <use x="63.623047" xlink:href="#DejaVuSans-48"/>
      </g>
     </g>
    </g>
    <g id="xtick_5">
     <g id="line2d_5">
      <g>
       <use style="stroke:#000000;stroke-width:0.8;" x="278.290137" xlink:href="#m8491d98b40" y="307.584"/>
      </g>
     </g>
     <g id="text_5">
      <!-- 100 -->
      <g transform="translate(268.746387 322.182437)scale(0.1 -0.1)">
       <use xlink:href="#DejaVuSans-49"/>
       <use x="63.623047" xlink:href="#DejaVuSans-48"/>
       <use x="127.246094" xlink:href="#DejaVuSans-48"/>
      </g>
     </g>
    </g>
    <g id="xtick_6">
     <g id="line2d_6">
      <g>
       <use style="stroke:#000000;stroke-width:0.8;" x="324.745243" xlink:href="#m8491d98b40" y="307.584"/>
      </g>
     </g>
     <g id="text_6">
      <!-- 150 -->
      <g transform="translate(315.201493 322.182437)scale(0.1 -0.1)">
       <use xlink:href="#DejaVuSans-49"/>
       <use x="63.623047" xlink:href="#DejaVuSans-53"/>
       <use x="127.246094" xlink:href="#DejaVuSans-48"/>
      </g>
     </g>
    </g>
    <g id="xtick_7">
     <g id="line2d_7">
      <g>
       <use style="stroke:#000000;stroke-width:0.8;" x="371.200348" xlink:href="#m8491d98b40" y="307.584"/>
      </g>
     </g>
     <g id="text_7">
      <!-- 200 -->
      <defs>
       <path d="M 19.1875 8.296875 
L 53.609375 8.296875 
L 53.609375 0 
L 7.328125 0 
L 7.328125 8.296875 
Q 12.9375 14.109375 22.625 23.890625 
Q 32.328125 33.6875 34.8125 36.53125 
Q 39.546875 41.84375 41.421875 45.53125 
Q 43.3125 49.21875 43.3125 52.78125 
Q 43.3125 58.59375 39.234375 62.25 
Q 35.15625 65.921875 28.609375 65.921875 
Q 23.96875 65.921875 18.8125 64.3125 
Q 13.671875 62.703125 7.8125 59.421875 
L 7.8125 69.390625 
Q 13.765625 71.78125 18.9375 73 
Q 24.125 74.21875 28.421875 74.21875 
Q 39.75 74.21875 46.484375 68.546875 
Q 53.21875 62.890625 53.21875 53.421875 
Q 53.21875 48.921875 51.53125 44.890625 
Q 49.859375 40.875 45.40625 35.40625 
Q 44.1875 33.984375 37.640625 27.21875 
Q 31.109375 20.453125 19.1875 8.296875 
z
" id="DejaVuSans-50"/>
      </defs>
      <g transform="translate(361.656598 322.182437)scale(0.1 -0.1)">
       <use xlink:href="#DejaVuSans-50"/>
       <use x="63.623047" xlink:href="#DejaVuSans-48"/>
       <use x="127.246094" xlink:href="#DejaVuSans-48"/>
      </g>
     </g>
    </g>
   </g>
   <g id="matplotlib.axis_2">
    <g id="ytick_1">
     <g id="line2d_8">
      <defs>
       <path d="M 0 0 
L -3.5 0 
" id="md72638580e" style="stroke:#000000;stroke-width:0.8;"/>
      </defs>
      <g>
       <use style="stroke:#000000;stroke-width:0.8;" x="57.6" xlink:href="#md72638580e" y="295.488"/>
      </g>
     </g>
     <g id="text_8">
      <!-- 0 -->
      <g transform="translate(44.2375 299.287219)scale(0.1 -0.1)">
       <use xlink:href="#DejaVuSans-48"/>
      </g>
     </g>
    </g>
    <g id="ytick_2">
     <g id="line2d_9">
      <g>
       <use style="stroke:#000000;stroke-width:0.8;" x="57.6" xlink:href="#md72638580e" y="249.032894"/>
      </g>
     </g>
     <g id="text_9">
      <!-- 50 -->
      <g transform="translate(37.875 252.832113)scale(0.1 -0.1)">
       <use xlink:href="#DejaVuSans-53"/>
       <use x="63.623047" xlink:href="#DejaVuSans-48"/>
      </g>
     </g>
    </g>
    <g id="ytick_3">
     <g id="line2d_10">
      <g>
       <use style="stroke:#000000;stroke-width:0.8;" x="57.6" xlink:href="#md72638580e" y="202.577789"/>
      </g>
     </g>
     <g id="text_10">
      <!-- 100 -->
      <g transform="translate(31.5125 206.377007)scale(0.1 -0.1)">
       <use xlink:href="#DejaVuSans-49"/>
       <use x="63.623047" xlink:href="#DejaVuSans-48"/>
       <use x="127.246094" xlink:href="#DejaVuSans-48"/>
      </g>
     </g>
    </g>
    <g id="ytick_4">
     <g id="line2d_11">
      <g>
       <use style="stroke:#000000;stroke-width:0.8;" x="57.6" xlink:href="#md72638580e" y="156.122683"/>
      </g>
     </g>
     <g id="text_11">
      <!-- 150 -->
      <g transform="translate(31.5125 159.921902)scale(0.1 -0.1)">
       <use xlink:href="#DejaVuSans-49"/>
       <use x="63.623047" xlink:href="#DejaVuSans-53"/>
       <use x="127.246094" xlink:href="#DejaVuSans-48"/>
      </g>
     </g>
    </g>
    <g id="ytick_5">
     <g id="line2d_12">
      <g>
       <use style="stroke:#000000;stroke-width:0.8;" x="57.6" xlink:href="#md72638580e" y="109.667577"/>
      </g>
     </g>
     <g id="text_12">
      <!-- 200 -->
      <g transform="translate(31.5125 113.466796)scale(0.1 -0.1)">
       <use xlink:href="#DejaVuSans-50"/>
       <use x="63.623047" xlink:href="#DejaVuSans-48"/>
       <use x="127.246094" xlink:href="#DejaVuSans-48"/>
      </g>
     </g>
    </g>
    <g id="ytick_6">
     <g id="line2d_13">
      <g>
       <use style="stroke:#000000;stroke-width:0.8;" x="57.6" xlink:href="#md72638580e" y="63.212471"/>
      </g>
     </g>
     <g id="text_13">
      <!-- 250 -->
      <g transform="translate(31.5125 67.01169)scale(0.1 -0.1)">
       <use xlink:href="#DejaVuSans-50"/>
       <use x="63.623047" xlink:href="#DejaVuSans-53"/>
       <use x="127.246094" xlink:href="#DejaVuSans-48"/>
      </g>
     </g>
    </g>
   </g>
   <g id="line2d_14">
    <path clip-path="url(#p0f8c4c09de)" d="M 185.379925 295.488 
L 185.427817 294.558224 
L 185.516005 293.633829 
L 185.647433 292.713059 
L 185.812655 291.805183 
L 186.027662 290.903216 
L 186.282612 290.01777 
L 186.576682 289.145761 
L 186.91418 288.293077 
L 187.285047 287.454759 
L 187.692168 286.636079 
L 188.135914 285.840045 
L 188.616051 285.067561 
L 189.130423 284.321325 
L 189.683005 283.604727 
L 190.259685 282.916708 
L 190.874134 282.260084 
L 191.514455 281.633079 
L 192.177221 281.035973 
L 192.868167 280.478354 
L 193.579202 279.951794 
L 194.315564 279.46252 
L 195.075775 279.00961 
L 195.854056 278.588922 
L 196.657776 278.201672 
L 197.480421 277.849125 
L 198.315647 277.523539 
L 199.173069 277.225957 
L 200.048766 276.95373 
L 200.938753 276.711225 
L 201.835216 276.494456 
L 202.745531 276.306276 
L 203.675488 276.147353 
L 204.620441 276.01504 
L 205.580064 275.907636 
L 206.554869 275.827101 
L 207.542402 275.777394 
L 208.543482 275.753228 
L 209.558396 275.753618 
L 210.583892 275.776502 
L 211.620083 275.819194 
L 212.667859 275.877059 
L 213.720244 275.949352 
L 214.778537 276.032748 
L 215.842229 276.128334 
L 216.915807 276.238312 
L 218.005095 276.362124 
L 219.114806 276.499957 
L 220.246155 276.646829 
L 221.398734 276.802965 
L 222.566336 276.968642 
L 223.756953 277.141502 
L 224.965984 277.323448 
L 226.197964 277.511861 
L 227.450942 277.707279 
L 228.721145 277.90724 
L 230.009894 278.114309 
L 231.316601 278.324528 
L 232.644511 278.541231 
L 233.987147 278.758855 
L 235.350884 278.979508 
L 236.736611 279.202093 
L 238.140754 279.424315 
L 239.564882 279.649613 
L 241.005306 279.873926 
L 242.472619 280.101984 
L 243.955763 280.329855 
L 245.457025 280.561462 
L 246.972641 280.794908 
L 248.497158 281.027184 
L 250.037498 281.262841 
" style="fill:none;stroke:#008000;stroke-linecap:square;stroke-width:1.5;"/>
   </g>
   <g id="line2d_15">
    <path clip-path="url(#p0f8c4c09de)" d="M 185.379925 295.488 
L 185.431238 294.808429 
L 185.473835 294.26573 
L 185.552822 293.727219 
L 185.75479 292.56477 
L 212.310915 178.398639 
L 243.744157 65.502936 
L 243.976835 64.792675 
L 244.256143 64.099148 
L 244.543589 63.434451 
L 244.978135 62.562701 
L 246.017896 60.706104 
L 246.303331 60.238297 
L 246.638988 59.747907 
L 246.996546 59.273058 
L 247.374037 58.813894 
L 247.784022 58.383369 
L 248.2126 57.971592 
L 248.776424 57.46135 
L 249.36169 56.975321 
L 249.966506 56.514531 
L 250.596412 56.088145 
L 251.250542 55.700869 
L 251.90656 55.316393 
L 252.370194 55.0865 
L 252.842785 54.875589 
L 253.322721 54.681967 
L 253.811536 54.511672 
L 254.303727 54.351343 
L 254.800434 54.205501 
L 255.301259 54.074637 
L 255.808286 53.970142 
L 256.316936 53.87439 
L 256.966616 53.767313 
L 257.620054 53.685579 
L 258.187065 53.627752 
L 258.755741 53.589357 
L 259.374692 53.568 
L 260.139936 53.56941 
L 260.786098 53.580734 
L 261.432309 53.586917 
L 262.135016 53.610615 
L 262.849024 53.647515 
L 263.554328 53.692531 
L 264.249641 53.743224 
L 264.968843 53.804613 
L 265.645544 53.862805 
L 266.372534 53.934878 
L 267.099664 54.011337 
L 267.865049 54.103342 
L 269.09916 54.254476 
L 269.87488 54.346015 
L 270.62315 54.443269 
L 271.371789 54.537563 
L 272.204238 54.646676 
L 273.056068 54.766752 
L 273.906956 54.893091 
L 274.794975 55.019444 
L 275.693453 55.150173 
L 276.614155 55.286705 
L 277.488098 55.410039 
L 278.31926 55.532972 
L 279.240342 55.66406 
L 280.178062 55.795189 
L 281.141392 55.919469 
L 282.04624 56.038837 
L 283.033633 56.175167 
L 283.998721 56.304787 
L 284.980513 56.433226 
L 285.955655 56.561717 
L 286.940075 56.684574 
" style="fill:none;stroke:#0000ff;stroke-linecap:square;stroke-width:1.5;"/>
   </g>
   <g id="line2d_16">
    <path clip-path="url(#p0f8c4c09de)" d="M 185.379925 295.488 
L 185.431238 294.808429 
L 185.473835 294.26573 
L 185.552822 293.727219 
L 185.75479 292.56477 
L 212.310915 178.398639 
L 243.744157 65.502936 
L 243.976835 64.792675 
L 244.256144 64.099148 
L 244.543589 63.434451 
L 244.978135 62.562701 
L 246.017896 60.706104 
L 246.303331 60.238297 
L 246.638988 59.747907 
L 246.996546 59.273058 
L 247.374037 58.813894 
L 247.784023 58.383369 
L 248.2126 57.971592 
L 248.776424 57.46135 
L 249.36169 56.975321 
L 249.966506 56.514531 
L 250.596412 56.088145 
L 251.250542 55.700869 
L 251.90656 55.316393 
L 252.370194 55.0865 
L 252.842785 54.875589 
L 253.322721 54.681967 
L 253.811536 54.511672 
L 254.303727 54.351343 
L 254.800434 54.205501 
L 255.301259 54.074637 
L 255.808286 53.970142 
L 256.316936 53.87439 
L 256.966616 53.767313 
L 257.620054 53.685579 
L 258.187065 53.627752 
L 258.755741 53.589357 
L 259.374692 53.568 
L 260.139936 53.56941 
L 260.786098 53.580734 
L 261.432309 53.586917 
L 262.135016 53.610615 
L 262.849024 53.647515 
L 263.554328 53.692531 
L 264.249641 53.743224 
L 264.968843 53.804613 
L 265.645544 53.862805 
L 266.372534 53.934878 
L 267.099664 54.011337 
L 267.865049 54.103342 
L 269.09916 54.254476 
L 269.87488 54.346015 
L 270.62315 54.443269 
L 271.371789 54.537563 
L 272.204238 54.646676 
L 273.056068 54.766752 
L 273.906956 54.893091 
L 274.794975 55.019444 
L 275.693453 55.150173 
L 276.614155 55.286705 
L 277.488098 55.410039 
L 278.31926 55.532973 
L 279.240343 55.66406 
L 280.178062 55.795189 
L 281.141392 55.919469 
L 282.04624 56.038837 
L 283.033633 56.175167 
L 283.998721 56.304787 
L 284.980513 56.433226 
L 285.955655 56.561717 
L 286.940075 56.684574 
" style="fill:none;stroke:#ff0000;stroke-linecap:square;stroke-width:1.5;"/>
   </g>
   <g id="patch_3">
    <path d="M 57.6 307.584 
L 57.6 41.472 
" style="fill:none;stroke:#000000;stroke-linecap:square;stroke-linejoin:miter;stroke-width:0.8;"/>
   </g>
   <g id="patch_4">
    <path d="M 414.72 307.584 
L 414.72 41.472 
" style="fill:none;stroke:#000000;stroke-linecap:square;stroke-linejoin:miter;stroke-width:0.8;"/>
   </g>
   <g id="patch_5">
    <path d="M 57.6 307.584 
L 414.72 307.584 
" style="fill:none;stroke:#000000;stroke-linecap:square;stroke-linejoin:miter;stroke-width:0.8;"/>
   </g>
   <g id="patch_6">
    <path d="M 57.6 41.472 
L 414.72 41.472 
" style="fill:none;stroke:#000000;stroke-linecap:square;stroke-linejoin:miter;stroke-width:0.8;"/>
   </g>
  </g>
 </g>
 <defs>
  <clipPath id="p0f8c4c09de">
   <rect height="266.112" width="357.12" x="57.6" y="41.472"/>
  </clipPath>
 </defs>
</svg>
