<?xml version="1.0" encoding="utf-8" standalone="no"?>
<!DOCTYPE svg PUBLIC "-//W3C//DTD SVG 1.1//EN"
  "http://www.w3.org/Graphics/SVG/1.1/DTD/svg11.dtd">
<!-- Created with matplotlib (https://matplotlib.org/) -->
<svg height="345.6pt" version="1.1" viewBox="0 0 460.8 345.6" width="460.8pt" xmlns="http://www.w3.org/2000/svg" xmlns:xlink="http://www.w3.org/1999/xlink">
 <defs>
  <style type="text/css">
*{stroke-linecap:butt;stroke-linejoin:round;}
  </style>
 </defs>
 <g id="figure_1">
  <g id="patch_1">
   <path d="M 0 345.6 
L 460.8 345.6 
L 460.8 0 
L 0 0 
z
" style="fill:#ffffff;"/>
  </g>
  <g id="axes_1">
   <g id="patch_2">
    <path d="M 57.6 307.584 
L 414.72 307.584 
L 414.72 41.472 
L 57.6 41.472 
z
" style="fill:#ffffff;"/>
   </g>
   <g id="matplotlib.axis_1">
    <g id="xtick_1">
     <g id="line2d_1">
      <defs>
       <path d="M 0 0 
L 0 3.5 
" id="mf5d79b908d" style="stroke:#000000;stroke-width:0.8;"/>
      </defs>
      <g>
       <use style="stroke:#000000;stroke-width:0.8;" x="73.832727" xlink:href="#mf5d79b908d" y="307.584"/>
      </g>
     </g>
     <g id="text_1">
      <!-- 0 -->
      <defs>
       <path d="M 31.78125 66.40625 
Q 24.171875 66.40625 20.328125 58.90625 
Q 16.5 51.421875 16.5 36.375 
Q 16.5 21.390625 20.328125 13.890625 
Q 24.171875 6.390625 31.78125 6.390625 
Q 39.453125 6.390625 43.28125 13.890625 
Q 47.125 21.390625 47.125 36.375 
Q 47.125 51.421875 43.28125 58.90625 
Q 39.453125 66.40625 31.78125 66.40625 
z
M 31.78125 74.21875 
Q 44.046875 74.21875 50.515625 64.515625 
Q 56.984375 54.828125 56.984375 36.375 
Q 56.984375 17.96875 50.515625 8.265625 
Q 44.046875 -1.421875 31.78125 -1.421875 
Q 19.53125 -1.421875 13.0625 8.265625 
Q 6.59375 17.96875 6.59375 36.375 
Q 6.59375 54.828125 13.0625 64.515625 
Q 19.53125 74.21875 31.78125 74.21875 
z
" id="DejaVuSans-48"/>
      </defs>
      <g transform="translate(70.651477 322.182437)scale(0.1 -0.1)">
       <use xlink:href="#DejaVuSans-48"/>
      </g>
     </g>
    </g>
    <g id="xtick_2">
     <g id="line2d_2">
      <g>
       <use style="stroke:#000000;stroke-width:0.8;" x="148.461341" xlink:href="#mf5d79b908d" y="307.584"/>
      </g>
     </g>
     <g id="text_2">
      <!-- 20 -->
      <defs>
       <path d="M 19.1875 8.296875 
L 53.609375 8.296875 
L 53.609375 0 
L 7.328125 0 
L 7.328125 8.296875 
Q 12.9375 14.109375 22.625 23.890625 
Q 32.328125 33.6875 34.8125 36.53125 
Q 39.546875 41.84375 41.421875 45.53125 
Q 43.3125 49.21875 43.3125 52.78125 
Q 43.3125 58.59375 39.234375 62.25 
Q 35.15625 65.921875 28.609375 65.921875 
Q 23.96875 65.921875 18.8125 64.3125 
Q 13.671875 62.703125 7.8125 59.421875 
L 7.8125 69.390625 
Q 13.765625 71.78125 18.9375 73 
Q 24.125 74.21875 28.421875 74.21875 
Q 39.75 74.21875 46.484375 68.546875 
Q 53.21875 62.890625 53.21875 53.421875 
Q 53.21875 48.921875 51.53125 44.890625 
Q 49.859375 40.875 45.40625 35.40625 
Q 44.1875 33.984375 37.640625 27.21875 
Q 31.109375 20.453125 19.1875 8.296875 
z
" id="DejaVuSans-50"/>
      </defs>
      <g transform="translate(142.098841 322.182437)scale(0.1 -0.1)">
       <use xlink:href="#DejaVuSans-50"/>
       <use x="63.623047" xlink:href="#DejaVuSans-48"/>
      </g>
     </g>
    </g>
    <g id="xtick_3">
     <g id="line2d_3">
      <g>
       <use style="stroke:#000000;stroke-width:0.8;" x="223.089955" xlink:href="#mf5d79b908d" y="307.584"/>
      </g>
     </g>
     <g id="text_3">
      <!-- 40 -->
      <defs>
       <path d="M 37.796875 64.3125 
L 12.890625 25.390625 
L 37.796875 25.390625 
z
M 35.203125 72.90625 
L 47.609375 72.90625 
L 47.609375 25.390625 
L 58.015625 25.390625 
L 58.015625 17.1875 
L 47.609375 17.1875 
L 47.609375 0 
L 37.796875 0 
L 37.796875 17.1875 
L 4.890625 17.1875 
L 4.890625 26.703125 
z
" id="DejaVuSans-52"/>
      </defs>
      <g transform="translate(216.727455 322.182437)scale(0.1 -0.1)">
       <use xlink:href="#DejaVuSans-52"/>
       <use x="63.623047" xlink:href="#DejaVuSans-48"/>
      </g>
     </g>
    </g>
    <g id="xtick_4">
     <g id="line2d_4">
      <g>
       <use style="stroke:#000000;stroke-width:0.8;" x="297.718569" xlink:href="#mf5d79b908d" y="307.584"/>
      </g>
     </g>
     <g id="text_4">
      <!-- 60 -->
      <defs>
       <path d="M 33.015625 40.375 
Q 26.375 40.375 22.484375 35.828125 
Q 18.609375 31.296875 18.609375 23.390625 
Q 18.609375 15.53125 22.484375 10.953125 
Q 26.375 6.390625 33.015625 6.390625 
Q 39.65625 6.390625 43.53125 10.953125 
Q 47.40625 15.53125 47.40625 23.390625 
Q 47.40625 31.296875 43.53125 35.828125 
Q 39.65625 40.375 33.015625 40.375 
z
M 52.59375 71.296875 
L 52.59375 62.3125 
Q 48.875 64.0625 45.09375 64.984375 
Q 41.3125 65.921875 37.59375 65.921875 
Q 27.828125 65.921875 22.671875 59.328125 
Q 17.53125 52.734375 16.796875 39.40625 
Q 19.671875 43.65625 24.015625 45.921875 
Q 28.375 48.1875 33.59375 48.1875 
Q 44.578125 48.1875 50.953125 41.515625 
Q 57.328125 34.859375 57.328125 23.390625 
Q 57.328125 12.15625 50.6875 5.359375 
Q 44.046875 -1.421875 33.015625 -1.421875 
Q 20.359375 -1.421875 13.671875 8.265625 
Q 6.984375 17.96875 6.984375 36.375 
Q 6.984375 53.65625 15.1875 63.9375 
Q 23.390625 74.21875 37.203125 74.21875 
Q 40.921875 74.21875 44.703125 73.484375 
Q 48.484375 72.75 52.59375 71.296875 
z
" id="DejaVuSans-54"/>
      </defs>
      <g transform="translate(291.356069 322.182437)scale(0.1 -0.1)">
       <use xlink:href="#DejaVuSans-54"/>
       <use x="63.623047" xlink:href="#DejaVuSans-48"/>
      </g>
     </g>
    </g>
    <g id="xtick_5">
     <g id="line2d_5">
      <g>
       <use style="stroke:#000000;stroke-width:0.8;" x="372.347183" xlink:href="#mf5d79b908d" y="307.584"/>
      </g>
     </g>
     <g id="text_5">
      <!-- 80 -->
      <defs>
       <path d="M 31.78125 34.625 
Q 24.75 34.625 20.71875 30.859375 
Q 16.703125 27.09375 16.703125 20.515625 
Q 16.703125 13.921875 20.71875 10.15625 
Q 24.75 6.390625 31.78125 6.390625 
Q 38.8125 6.390625 42.859375 10.171875 
Q 46.921875 13.96875 46.921875 20.515625 
Q 46.921875 27.09375 42.890625 30.859375 
Q 38.875 34.625 31.78125 34.625 
z
M 21.921875 38.8125 
Q 15.578125 40.375 12.03125 44.71875 
Q 8.5 49.078125 8.5 55.328125 
Q 8.5 64.0625 14.71875 69.140625 
Q 20.953125 74.21875 31.78125 74.21875 
Q 42.671875 74.21875 48.875 69.140625 
Q 55.078125 64.0625 55.078125 55.328125 
Q 55.078125 49.078125 51.53125 44.71875 
Q 48 40.375 41.703125 38.8125 
Q 48.828125 37.15625 52.796875 32.3125 
Q 56.78125 27.484375 56.78125 20.515625 
Q 56.78125 9.90625 50.3125 4.234375 
Q 43.84375 -1.421875 31.78125 -1.421875 
Q 19.734375 -1.421875 13.25 4.234375 
Q 6.78125 9.90625 6.78125 20.515625 
Q 6.78125 27.484375 10.78125 32.3125 
Q 14.796875 37.15625 21.921875 38.8125 
z
M 18.3125 54.390625 
Q 18.3125 48.734375 21.84375 45.5625 
Q 25.390625 42.390625 31.78125 42.390625 
Q 38.140625 42.390625 41.71875 45.5625 
Q 45.3125 48.734375 45.3125 54.390625 
Q 45.3125 60.0625 41.71875 63.234375 
Q 38.140625 66.40625 31.78125 66.40625 
Q 25.390625 66.40625 21.84375 63.234375 
Q 18.3125 60.0625 18.3125 54.390625 
z
" id="DejaVuSans-56"/>
      </defs>
      <g transform="translate(365.984683 322.182437)scale(0.1 -0.1)">
       <use xlink:href="#DejaVuSans-56"/>
       <use x="63.623047" xlink:href="#DejaVuSans-48"/>
      </g>
     </g>
    </g>
   </g>
   <g id="matplotlib.axis_2">
    <g id="ytick_1">
     <g id="line2d_6">
      <defs>
       <path d="M 0 0 
L -3.5 0 
" id="me4123145a0" style="stroke:#000000;stroke-width:0.8;"/>
      </defs>
      <g>
       <use style="stroke:#000000;stroke-width:0.8;" x="57.6" xlink:href="#me4123145a0" y="288.785699"/>
      </g>
     </g>
     <g id="text_6">
      <!-- −20 -->
      <defs>
       <path d="M 10.59375 35.5 
L 73.1875 35.5 
L 73.1875 27.203125 
L 10.59375 27.203125 
z
" id="DejaVuSans-8722"/>
      </defs>
      <g transform="translate(29.495313 292.584918)scale(0.1 -0.1)">
       <use xlink:href="#DejaVuSans-8722"/>
       <use x="83.789062" xlink:href="#DejaVuSans-50"/>
       <use x="147.412109" xlink:href="#DejaVuSans-48"/>
      </g>
     </g>
    </g>
    <g id="ytick_2">
     <g id="line2d_7">
      <g>
       <use style="stroke:#000000;stroke-width:0.8;" x="57.6" xlink:href="#me4123145a0" y="251.471392"/>
      </g>
     </g>
     <g id="text_7">
      <!-- −10 -->
      <defs>
       <path d="M 12.40625 8.296875 
L 28.515625 8.296875 
L 28.515625 63.921875 
L 10.984375 60.40625 
L 10.984375 69.390625 
L 28.421875 72.90625 
L 38.28125 72.90625 
L 38.28125 8.296875 
L 54.390625 8.296875 
L 54.390625 0 
L 12.40625 0 
z
" id="DejaVuSans-49"/>
      </defs>
      <g transform="translate(29.495313 255.270611)scale(0.1 -0.1)">
       <use xlink:href="#DejaVuSans-8722"/>
       <use x="83.789062" xlink:href="#DejaVuSans-49"/>
       <use x="147.412109" xlink:href="#DejaVuSans-48"/>
      </g>
     </g>
    </g>
    <g id="ytick_3">
     <g id="line2d_8">
      <g>
       <use style="stroke:#000000;stroke-width:0.8;" x="57.6" xlink:href="#me4123145a0" y="214.157085"/>
      </g>
     </g>
     <g id="text_8">
      <!-- 0 -->
      <g transform="translate(44.2375 217.956304)scale(0.1 -0.1)">
       <use xlink:href="#DejaVuSans-48"/>
      </g>
     </g>
    </g>
    <g id="ytick_4">
     <g id="line2d_9">
      <g>
       <use style="stroke:#000000;stroke-width:0.8;" x="57.6" xlink:href="#me4123145a0" y="176.842778"/>
      </g>
     </g>
     <g id="text_9">
      <!-- 10 -->
      <g transform="translate(37.875 180.641997)scale(0.1 -0.1)">
       <use xlink:href="#DejaVuSans-49"/>
       <use x="63.623047" xlink:href="#DejaVuSans-48"/>
      </g>
     </g>
    </g>
    <g id="ytick_5">
     <g id="line2d_10">
      <g>
       <use style="stroke:#000000;stroke-width:0.8;" x="57.6" xlink:href="#me4123145a0" y="139.528471"/>
      </g>
     </g>
     <g id="text_10">
      <!-- 20 -->
      <g transform="translate(37.875 143.32769)scale(0.1 -0.1)">
       <use xlink:href="#DejaVuSans-50"/>
       <use x="63.623047" xlink:href="#DejaVuSans-48"/>
      </g>
     </g>
    </g>
    <g id="ytick_6">
     <g id="line2d_11">
      <g>
       <use style="stroke:#000000;stroke-width:0.8;" x="57.6" xlink:href="#me4123145a0" y="102.214164"/>
      </g>
     </g>
     <g id="text_11">
      <!-- 30 -->
      <defs>
       <path d="M 40.578125 39.3125 
Q 47.65625 37.796875 51.625 33 
Q 55.609375 28.21875 55.609375 21.1875 
Q 55.609375 10.40625 48.1875 4.484375 
Q 40.765625 -1.421875 27.09375 -1.421875 
Q 22.515625 -1.421875 17.65625 -0.515625 
Q 12.796875 0.390625 7.625 2.203125 
L 7.625 11.71875 
Q 11.71875 9.328125 16.59375 8.109375 
Q 21.484375 6.890625 26.8125 6.890625 
Q 36.078125 6.890625 40.9375 10.546875 
Q 45.796875 14.203125 45.796875 21.1875 
Q 45.796875 27.640625 41.28125 31.265625 
Q 36.765625 34.90625 28.71875 34.90625 
L 20.21875 34.90625 
L 20.21875 43.015625 
L 29.109375 43.015625 
Q 36.375 43.015625 40.234375 45.921875 
Q 44.09375 48.828125 44.09375 54.296875 
Q 44.09375 59.90625 40.109375 62.90625 
Q 36.140625 65.921875 28.71875 65.921875 
Q 24.65625 65.921875 20.015625 65.03125 
Q 15.375 64.15625 9.8125 62.3125 
L 9.8125 71.09375 
Q 15.4375 72.65625 20.34375 73.4375 
Q 25.25 74.21875 29.59375 74.21875 
Q 40.828125 74.21875 47.359375 69.109375 
Q 53.90625 64.015625 53.90625 55.328125 
Q 53.90625 49.265625 50.4375 45.09375 
Q 46.96875 40.921875 40.578125 39.3125 
z
" id="DejaVuSans-51"/>
      </defs>
      <g transform="translate(37.875 106.013383)scale(0.1 -0.1)">
       <use xlink:href="#DejaVuSans-51"/>
       <use x="63.623047" xlink:href="#DejaVuSans-48"/>
      </g>
     </g>
    </g>
    <g id="ytick_7">
     <g id="line2d_12">
      <g>
       <use style="stroke:#000000;stroke-width:0.8;" x="57.6" xlink:href="#me4123145a0" y="64.899858"/>
      </g>
     </g>
     <g id="text_12">
      <!-- 40 -->
      <g transform="translate(37.875 68.699076)scale(0.1 -0.1)">
       <use xlink:href="#DejaVuSans-52"/>
       <use x="63.623047" xlink:href="#DejaVuSans-48"/>
      </g>
     </g>
    </g>
   </g>
   <g id="line2d_13">
    <path clip-path="url(#pd9a9add225)" d="M 73.832727 214.157085 
L 74.02507 210.422949 
L 74.379245 206.710421 
L 74.907082 203.012454 
L 75.570642 199.366271 
L 76.434148 195.74382 
L 77.458069 192.187721 
L 78.639105 188.685583 
L 79.994554 185.261062 
L 81.484018 181.894237 
L 83.119083 178.606279 
L 84.90124 175.409271 
L 86.829554 172.306847 
L 88.895356 169.309836 
L 91.114621 166.431858 
L 93.430664 163.668659 
L 95.898397 161.031544 
L 98.470032 158.513388 
L 101.131811 156.115309 
L 103.906768 153.875816 
L 106.762405 151.761065 
L 109.719758 149.796056 
L 112.772893 147.977096 
L 115.898601 146.287541 
L 119.126475 144.73228 
L 122.430358 143.316389 
L 125.784765 142.008783 
L 129.228316 140.813643 
L 132.745264 139.720334 
L 136.319601 138.746393 
L 139.919947 137.875813 
L 143.575928 137.120049 
L 147.310792 136.481788 
L 151.105881 135.950395 
L 154.959889 135.519041 
L 158.874869 135.195601 
L 162.840969 134.995969 
L 166.861474 134.898915 
L 170.937539 134.900482 
L 175.056106 134.992387 
L 179.217621 135.163846 
L 183.425668 135.39624 
L 187.652222 135.686583 
L 191.902508 136.021516 
L 196.174474 136.405405 
L 200.486142 136.847095 
L 204.860909 137.344345 
L 209.317692 137.897903 
L 213.861381 138.487768 
L 218.490332 139.114835 
L 223.179621 139.780224 
L 227.961338 140.474456 
L 232.817011 141.205182 
L 237.764851 141.961879 
L 242.797021 142.746711 
L 247.898372 143.54979 
L 253.074202 144.381414 
L 258.322161 145.225688 
L 263.655271 146.096007 
L 269.047524 146.97002 
L 274.524518 147.856197 
L 280.089835 148.750136 
L 285.729109 149.64262 
L 291.448646 150.547455 
L 297.233632 151.448334 
L 303.126606 152.364251 
L 309.083163 153.279422 
L 315.112484 154.209593 
L 321.199455 155.147152 
L 327.322173 156.08001 
L 333.508437 157.02645 
L 339.747464 157.959942 
L 346.038992 158.905487 
L 352.409365 159.850509 
L 358.823844 160.813181 
L 365.302503 161.776562 
L 371.840343 162.75248 
L 378.416579 163.727877 
L 385.045801 164.718236 
L 391.727376 165.72311 
L 398.487273 166.74138 
" style="fill:none;stroke:#008000;stroke-linecap:square;stroke-width:1.5;"/>
   </g>
   <g id="line2d_14">
    <path clip-path="url(#pd9a9add225)" d="M 73.832727 214.157085 
L 74.003365 211.897205 
L 74.149929 210.029933 
L 74.4185 208.198881 
L 74.684577 206.667456 
L 75.484642 203.227935 
L 75.744808 202.29352 
L 76.383523 200.343817 
L 77.105871 198.550215 
L 78.491354 195.346388 
L 80.032251 192.255167 
L 81.787468 189.121053 
L 83.604751 186.142654 
L 85.609931 183.213119 
L 87.591188 180.58194 
L 89.671145 178.051974 
L 91.924129 175.686119 
L 94.471821 173.238295 
L 97.080753 170.877297 
L 99.70209 168.700431 
L 102.441644 166.613254 
L 105.332221 164.65661 
L 108.351543 162.869028 
L 111.572297 160.981422 
L 114.664924 159.447944 
L 117.798083 158.049654 
L 121.104111 156.715894 
L 124.432306 155.556407 
L 128.129039 154.352216 
L 132.618163 153.034128 
L 136.146008 152.112312 
L 139.710998 151.377589 
L 142.019191 150.943081 
L 144.3361 150.56122 
L 147.539572 150.160519 
L 150.242197 149.884887 
L 152.720835 149.71754 
L 155.233607 149.630837 
L 157.920483 149.635788 
L 160.759028 149.685532 
L 164.222821 149.718676 
L 167.331669 149.82352 
L 170.281678 149.975974 
L 173.75958 150.197953 
L 176.993475 150.433726 
L 180.136345 150.701992 
L 183.446217 150.98662 
L 186.887514 151.327787 
L 191.088113 151.769486 
L 194.490387 152.178464 
L 198.712703 152.695545 
L 202.606004 153.154974 
L 206.990494 153.724836 
L 211.445825 154.286002 
L 216.297396 154.921919 
L 221.049885 155.59184 
L 226.039665 156.332722 
L 230.092286 156.909353 
L 235.173208 157.648627 
L 240.194443 158.393234 
L 245.142325 159.091495 
L 250.170728 159.835226 
L 255.52259 160.5969 
L 260.297111 161.264556 
L 266.236503 162.030807 
L 271.937842 162.782925 
L 277.117738 163.498118 
L 282.319995 164.196831 
L 287.770352 164.909848 
L 292.878156 165.582886 
L 298.794265 166.321229 
L 304.05393 167.004005 
L 309.177981 167.717714 
L 314.356653 168.375096 
L 319.928346 169.094946 
L 325.464569 169.729438 
L 331.057049 170.467519 
L 336.387619 171.150571 
L 342.261912 171.86723 
L 348.071444 172.61679 
L 353.264658 173.316962 
" style="fill:none;stroke:#0000ff;stroke-linecap:square;stroke-width:1.5;"/>
   </g>
   <g id="line2d_15">
    <path clip-path="url(#pd9a9add225)" d="M 73.832727 214.157085 
L 74.003365 211.897205 
L 74.149929 210.029933 
L 74.4185 208.198881 
L 74.684577 206.667456 
L 75.484642 203.227935 
L 75.744808 202.29352 
L 76.383523 200.343817 
L 77.105871 198.550215 
L 78.491354 195.346388 
L 80.032251 192.255167 
L 81.787468 189.121053 
L 83.604751 186.142654 
L 85.609931 183.213119 
L 87.591188 180.58194 
L 89.671145 178.051974 
L 91.924129 175.686119 
L 94.471821 173.238295 
L 97.080753 170.877297 
L 99.70209 168.700431 
L 102.441644 166.613254 
L 105.332221 164.65661 
L 108.351543 162.869028 
L 111.572297 160.981422 
L 114.664924 159.447944 
L 117.798083 158.049654 
L 121.104111 156.715894 
L 124.432306 155.556407 
L 128.129039 154.352216 
L 132.618163 153.034128 
L 136.146008 152.112312 
L 139.710998 151.377589 
L 142.019191 150.943081 
L 144.3361 150.56122 
L 147.539572 150.160519 
L 150.242197 149.884887 
L 152.720835 149.71754 
L 155.233607 149.630837 
L 157.920483 149.635788 
L 160.759028 149.685532 
L 164.222821 149.718676 
L 167.331669 149.82352 
L 170.281678 149.975974 
L 173.75958 150.197953 
L 176.993475 150.433726 
L 180.136345 150.701992 
L 183.446217 150.98662 
L 186.887514 151.327787 
L 191.088113 151.769486 
L 194.490387 152.178464 
L 198.712703 152.695545 
L 202.606004 153.154974 
L 206.990494 153.724836 
L 211.445825 154.286002 
L 216.297396 154.921919 
L 221.049885 155.59184 
L 226.039665 156.332722 
L 230.092286 156.909353 
L 235.173208 157.648627 
L 240.194443 158.393234 
L 245.142325 159.091496 
L 250.170728 159.835226 
L 255.52259 160.5969 
L 260.297111 161.264556 
L 266.236503 162.030807 
L 271.937842 162.782925 
L 277.117738 163.498118 
L 282.319995 164.196831 
L 287.770352 164.909848 
L 292.878156 165.582886 
L 298.794265 166.321229 
L 304.05393 167.004005 
L 309.177981 167.717714 
L 314.356653 168.375097 
L 319.928346 169.094946 
L 325.464569 169.729438 
L 331.057049 170.46752 
L 336.387619 171.150571 
L 342.261912 171.86723 
L 348.071444 172.61679 
L 353.264658 173.316962 
" style="fill:none;stroke:#ff0000;stroke-linecap:square;stroke-width:1.5;"/>
   </g>
   <g id="patch_3">
    <path d="M 57.6 307.584 
L 57.6 41.472 
" style="fill:none;stroke:#000000;stroke-linecap:square;stroke-linejoin:miter;stroke-width:0.8;"/>
   </g>
   <g id="patch_4">
    <path d="M 414.72 307.584 
L 414.72 41.472 
" style="fill:none;stroke:#000000;stroke-linecap:square;stroke-linejoin:miter;stroke-width:0.8;"/>
   </g>
   <g id="patch_5">
    <path d="M 57.6 307.584 
L 414.72 307.584 
" style="fill:none;stroke:#000000;stroke-linecap:square;stroke-linejoin:miter;stroke-width:0.8;"/>
   </g>
   <g id="patch_6">
    <path d="M 57.6 41.472 
L 414.72 41.472 
" style="fill:none;stroke:#000000;stroke-linecap:square;stroke-linejoin:miter;stroke-width:0.8;"/>
   </g>
  </g>
 </g>
 <defs>
  <clipPath id="pd9a9add225">
   <rect height="266.112" width="357.12" x="57.6" y="41.472"/>
  </clipPath>
 </defs>
</svg>
