<?xml version="1.0" encoding="utf-8" standalone="no"?>
<!DOCTYPE svg PUBLIC "-//W3C//DTD SVG 1.1//EN"
  "http://www.w3.org/Graphics/SVG/1.1/DTD/svg11.dtd">
<!-- Created with matplotlib (https://matplotlib.org/) -->
<svg height="345.6pt" version="1.1" viewBox="0 0 460.8 345.6" width="460.8pt" xmlns="http://www.w3.org/2000/svg" xmlns:xlink="http://www.w3.org/1999/xlink">
 <defs>
  <style type="text/css">
*{stroke-linecap:butt;stroke-linejoin:round;}
  </style>
 </defs>
 <g id="figure_1">
  <g id="patch_1">
   <path d="M 0 345.6 
L 460.8 345.6 
L 460.8 0 
L 0 0 
z
" style="fill:#ffffff;"/>
  </g>
  <g id="axes_1">
   <g id="patch_2">
    <path d="M 57.6 307.584 
L 414.72 307.584 
L 414.72 41.472 
L 57.6 41.472 
z
" style="fill:#ffffff;"/>
   </g>
   <g id="matplotlib.axis_1">
    <g id="xtick_1">
     <g id="line2d_1">
      <defs>
       <path d="M 0 0 
L 0 3.5 
" id="mce3cd19710" style="stroke:#000000;stroke-width:0.8;"/>
      </defs>
      <g>
       <use style="stroke:#000000;stroke-width:0.8;" x="73.978002" xlink:href="#mce3cd19710" y="307.584"/>
      </g>
     </g>
     <g id="text_1">
      <!-- 0 -->
      <defs>
       <path d="M 31.78125 66.40625 
Q 24.171875 66.40625 20.328125 58.90625 
Q 16.5 51.421875 16.5 36.375 
Q 16.5 21.390625 20.328125 13.890625 
Q 24.171875 6.390625 31.78125 6.390625 
Q 39.453125 6.390625 43.28125 13.890625 
Q 47.125 21.390625 47.125 36.375 
Q 47.125 51.421875 43.28125 58.90625 
Q 39.453125 66.40625 31.78125 66.40625 
z
M 31.78125 74.21875 
Q 44.046875 74.21875 50.515625 64.515625 
Q 56.984375 54.828125 56.984375 36.375 
Q 56.984375 17.96875 50.515625 8.265625 
Q 44.046875 -1.421875 31.78125 -1.421875 
Q 19.53125 -1.421875 13.0625 8.265625 
Q 6.59375 17.96875 6.59375 36.375 
Q 6.59375 54.828125 13.0625 64.515625 
Q 19.53125 74.21875 31.78125 74.21875 
z
" id="DejaVuSans-48"/>
      </defs>
      <g transform="translate(70.796752 322.182437)scale(0.1 -0.1)">
       <use xlink:href="#DejaVuSans-48"/>
      </g>
     </g>
    </g>
    <g id="xtick_2">
     <g id="line2d_2">
      <g>
       <use style="stroke:#000000;stroke-width:0.8;" x="150.858385" xlink:href="#mce3cd19710" y="307.584"/>
      </g>
     </g>
     <g id="text_2">
      <!-- 100 -->
      <defs>
       <path d="M 12.40625 8.296875 
L 28.515625 8.296875 
L 28.515625 63.921875 
L 10.984375 60.40625 
L 10.984375 69.390625 
L 28.421875 72.90625 
L 38.28125 72.90625 
L 38.28125 8.296875 
L 54.390625 8.296875 
L 54.390625 0 
L 12.40625 0 
z
" id="DejaVuSans-49"/>
      </defs>
      <g transform="translate(141.314635 322.182437)scale(0.1 -0.1)">
       <use xlink:href="#DejaVuSans-49"/>
       <use x="63.623047" xlink:href="#DejaVuSans-48"/>
       <use x="127.246094" xlink:href="#DejaVuSans-48"/>
      </g>
     </g>
    </g>
    <g id="xtick_3">
     <g id="line2d_3">
      <g>
       <use style="stroke:#000000;stroke-width:0.8;" x="227.738769" xlink:href="#mce3cd19710" y="307.584"/>
      </g>
     </g>
     <g id="text_3">
      <!-- 200 -->
      <defs>
       <path d="M 19.1875 8.296875 
L 53.609375 8.296875 
L 53.609375 0 
L 7.328125 0 
L 7.328125 8.296875 
Q 12.9375 14.109375 22.625 23.890625 
Q 32.328125 33.6875 34.8125 36.53125 
Q 39.546875 41.84375 41.421875 45.53125 
Q 43.3125 49.21875 43.3125 52.78125 
Q 43.3125 58.59375 39.234375 62.25 
Q 35.15625 65.921875 28.609375 65.921875 
Q 23.96875 65.921875 18.8125 64.3125 
Q 13.671875 62.703125 7.8125 59.421875 
L 7.8125 69.390625 
Q 13.765625 71.78125 18.9375 73 
Q 24.125 74.21875 28.421875 74.21875 
Q 39.75 74.21875 46.484375 68.546875 
Q 53.21875 62.890625 53.21875 53.421875 
Q 53.21875 48.921875 51.53125 44.890625 
Q 49.859375 40.875 45.40625 35.40625 
Q 44.1875 33.984375 37.640625 27.21875 
Q 31.109375 20.453125 19.1875 8.296875 
z
" id="DejaVuSans-50"/>
      </defs>
      <g transform="translate(218.195019 322.182437)scale(0.1 -0.1)">
       <use xlink:href="#DejaVuSans-50"/>
       <use x="63.623047" xlink:href="#DejaVuSans-48"/>
       <use x="127.246094" xlink:href="#DejaVuSans-48"/>
      </g>
     </g>
    </g>
    <g id="xtick_4">
     <g id="line2d_4">
      <g>
       <use style="stroke:#000000;stroke-width:0.8;" x="304.619153" xlink:href="#mce3cd19710" y="307.584"/>
      </g>
     </g>
     <g id="text_4">
      <!-- 300 -->
      <defs>
       <path d="M 40.578125 39.3125 
Q 47.65625 37.796875 51.625 33 
Q 55.609375 28.21875 55.609375 21.1875 
Q 55.609375 10.40625 48.1875 4.484375 
Q 40.765625 -1.421875 27.09375 -1.421875 
Q 22.515625 -1.421875 17.65625 -0.515625 
Q 12.796875 0.390625 7.625 2.203125 
L 7.625 11.71875 
Q 11.71875 9.328125 16.59375 8.109375 
Q 21.484375 6.890625 26.8125 6.890625 
Q 36.078125 6.890625 40.9375 10.546875 
Q 45.796875 14.203125 45.796875 21.1875 
Q 45.796875 27.640625 41.28125 31.265625 
Q 36.765625 34.90625 28.71875 34.90625 
L 20.21875 34.90625 
L 20.21875 43.015625 
L 29.109375 43.015625 
Q 36.375 43.015625 40.234375 45.921875 
Q 44.09375 48.828125 44.09375 54.296875 
Q 44.09375 59.90625 40.109375 62.90625 
Q 36.140625 65.921875 28.71875 65.921875 
Q 24.65625 65.921875 20.015625 65.03125 
Q 15.375 64.15625 9.8125 62.3125 
L 9.8125 71.09375 
Q 15.4375 72.65625 20.34375 73.4375 
Q 25.25 74.21875 29.59375 74.21875 
Q 40.828125 74.21875 47.359375 69.109375 
Q 53.90625 64.015625 53.90625 55.328125 
Q 53.90625 49.265625 50.4375 45.09375 
Q 46.96875 40.921875 40.578125 39.3125 
z
" id="DejaVuSans-51"/>
      </defs>
      <g transform="translate(295.075403 322.182437)scale(0.1 -0.1)">
       <use xlink:href="#DejaVuSans-51"/>
       <use x="63.623047" xlink:href="#DejaVuSans-48"/>
       <use x="127.246094" xlink:href="#DejaVuSans-48"/>
      </g>
     </g>
    </g>
    <g id="xtick_5">
     <g id="line2d_5">
      <g>
       <use style="stroke:#000000;stroke-width:0.8;" x="381.499536" xlink:href="#mce3cd19710" y="307.584"/>
      </g>
     </g>
     <g id="text_5">
      <!-- 400 -->
      <defs>
       <path d="M 37.796875 64.3125 
L 12.890625 25.390625 
L 37.796875 25.390625 
z
M 35.203125 72.90625 
L 47.609375 72.90625 
L 47.609375 25.390625 
L 58.015625 25.390625 
L 58.015625 17.1875 
L 47.609375 17.1875 
L 47.609375 0 
L 37.796875 0 
L 37.796875 17.1875 
L 4.890625 17.1875 
L 4.890625 26.703125 
z
" id="DejaVuSans-52"/>
      </defs>
      <g transform="translate(371.955786 322.182437)scale(0.1 -0.1)">
       <use xlink:href="#DejaVuSans-52"/>
       <use x="63.623047" xlink:href="#DejaVuSans-48"/>
       <use x="127.246094" xlink:href="#DejaVuSans-48"/>
      </g>
     </g>
    </g>
   </g>
   <g id="matplotlib.axis_2">
    <g id="ytick_1">
     <g id="line2d_6">
      <defs>
       <path d="M 0 0 
L -3.5 0 
" id="m7adcf6f18e" style="stroke:#000000;stroke-width:0.8;"/>
      </defs>
      <g>
       <use style="stroke:#000000;stroke-width:0.8;" x="57.6" xlink:href="#m7adcf6f18e" y="290.826191"/>
      </g>
     </g>
     <g id="text_6">
      <!-- −250 -->
      <defs>
       <path d="M 10.59375 35.5 
L 73.1875 35.5 
L 73.1875 27.203125 
L 10.59375 27.203125 
z
" id="DejaVuSans-8722"/>
       <path d="M 10.796875 72.90625 
L 49.515625 72.90625 
L 49.515625 64.59375 
L 19.828125 64.59375 
L 19.828125 46.734375 
Q 21.96875 47.46875 24.109375 47.828125 
Q 26.265625 48.1875 28.421875 48.1875 
Q 40.625 48.1875 47.75 41.5 
Q 54.890625 34.8125 54.890625 23.390625 
Q 54.890625 11.625 47.5625 5.09375 
Q 40.234375 -1.421875 26.90625 -1.421875 
Q 22.3125 -1.421875 17.546875 -0.640625 
Q 12.796875 0.140625 7.71875 1.703125 
L 7.71875 11.625 
Q 12.109375 9.234375 16.796875 8.0625 
Q 21.484375 6.890625 26.703125 6.890625 
Q 35.15625 6.890625 40.078125 11.328125 
Q 45.015625 15.765625 45.015625 23.390625 
Q 45.015625 31 40.078125 35.4375 
Q 35.15625 39.890625 26.703125 39.890625 
Q 22.75 39.890625 18.8125 39.015625 
Q 14.890625 38.140625 10.796875 36.28125 
z
" id="DejaVuSans-53"/>
      </defs>
      <g transform="translate(23.132812 294.62541)scale(0.1 -0.1)">
       <use xlink:href="#DejaVuSans-8722"/>
       <use x="83.789062" xlink:href="#DejaVuSans-50"/>
       <use x="147.412109" xlink:href="#DejaVuSans-53"/>
       <use x="211.035156" xlink:href="#DejaVuSans-48"/>
      </g>
     </g>
    </g>
    <g id="ytick_2">
     <g id="line2d_7">
      <g>
       <use style="stroke:#000000;stroke-width:0.8;" x="57.6" xlink:href="#m7adcf6f18e" y="252.386"/>
      </g>
     </g>
     <g id="text_7">
      <!-- −200 -->
      <g transform="translate(23.132812 256.185218)scale(0.1 -0.1)">
       <use xlink:href="#DejaVuSans-8722"/>
       <use x="83.789062" xlink:href="#DejaVuSans-50"/>
       <use x="147.412109" xlink:href="#DejaVuSans-48"/>
       <use x="211.035156" xlink:href="#DejaVuSans-48"/>
      </g>
     </g>
    </g>
    <g id="ytick_3">
     <g id="line2d_8">
      <g>
       <use style="stroke:#000000;stroke-width:0.8;" x="57.6" xlink:href="#m7adcf6f18e" y="213.945808"/>
      </g>
     </g>
     <g id="text_8">
      <!-- −150 -->
      <g transform="translate(23.132812 217.745026)scale(0.1 -0.1)">
       <use xlink:href="#DejaVuSans-8722"/>
       <use x="83.789062" xlink:href="#DejaVuSans-49"/>
       <use x="147.412109" xlink:href="#DejaVuSans-53"/>
       <use x="211.035156" xlink:href="#DejaVuSans-48"/>
      </g>
     </g>
    </g>
    <g id="ytick_4">
     <g id="line2d_9">
      <g>
       <use style="stroke:#000000;stroke-width:0.8;" x="57.6" xlink:href="#m7adcf6f18e" y="175.505616"/>
      </g>
     </g>
     <g id="text_9">
      <!-- −100 -->
      <g transform="translate(23.132812 179.304835)scale(0.1 -0.1)">
       <use xlink:href="#DejaVuSans-8722"/>
       <use x="83.789062" xlink:href="#DejaVuSans-49"/>
       <use x="147.412109" xlink:href="#DejaVuSans-48"/>
       <use x="211.035156" xlink:href="#DejaVuSans-48"/>
      </g>
     </g>
    </g>
    <g id="ytick_5">
     <g id="line2d_10">
      <g>
       <use style="stroke:#000000;stroke-width:0.8;" x="57.6" xlink:href="#m7adcf6f18e" y="137.065424"/>
      </g>
     </g>
     <g id="text_10">
      <!-- −50 -->
      <g transform="translate(29.495313 140.864643)scale(0.1 -0.1)">
       <use xlink:href="#DejaVuSans-8722"/>
       <use x="83.789062" xlink:href="#DejaVuSans-53"/>
       <use x="147.412109" xlink:href="#DejaVuSans-48"/>
      </g>
     </g>
    </g>
    <g id="ytick_6">
     <g id="line2d_11">
      <g>
       <use style="stroke:#000000;stroke-width:0.8;" x="57.6" xlink:href="#m7adcf6f18e" y="98.625232"/>
      </g>
     </g>
     <g id="text_11">
      <!-- 0 -->
      <g transform="translate(44.2375 102.424451)scale(0.1 -0.1)">
       <use xlink:href="#DejaVuSans-48"/>
      </g>
     </g>
    </g>
    <g id="ytick_7">
     <g id="line2d_12">
      <g>
       <use style="stroke:#000000;stroke-width:0.8;" x="57.6" xlink:href="#m7adcf6f18e" y="60.185041"/>
      </g>
     </g>
     <g id="text_12">
      <!-- 50 -->
      <g transform="translate(37.875 63.984259)scale(0.1 -0.1)">
       <use xlink:href="#DejaVuSans-53"/>
       <use x="63.623047" xlink:href="#DejaVuSans-48"/>
      </g>
     </g>
    </g>
   </g>
   <g id="line2d_13">
    <path clip-path="url(#pb308968a73)" d="M 73.978002 98.625232 
L 74.199117 96.331825 
L 74.51487 94.828392 
L 75.255689 92.647784 
L 76.282602 90.586372 
L 77.124158 89.301349 
L 78.611867 87.543061 
L 80.329795 86.008505 
L 81.587392 85.125899 
L 83.616059 84.033518 
L 85.764699 83.199622 
L 87.98752 82.588689 
L 90.259405 82.196972 
L 92.557413 82.009516 
L 95.631556 82.040058 
L 99.463062 82.342686 
L 104.796193 83.059305 
L 132.899221 87.454659 
L 138.927514 88.672006 
L 144.895847 90.155714 
L 150.811237 91.838477 
L 157.391656 93.975958 
L 164.61853 96.597537 
L 171.035501 99.184689 
L 178.077354 102.269117 
L 184.323567 105.244889 
L 189.783998 108.074746 
L 196.493266 111.827964 
L 203.093272 115.769922 
L 208.239244 119.137474 
L 213.884598 123.136556 
L 219.390036 127.325486 
L 224.765932 131.678862 
L 230.584627 136.699817 
L 247.339095 151.391025 
L 257.993237 160.212454 
L 285.311079 182.632207 
L 306.887377 199.929747 
L 325.590221 214.670219 
L 340.254254 225.852788 
L 356.246085 237.827774 
L 369.929272 247.749812 
L 381.292353 255.627971 
L 394.01529 264.230158 
L 398.487273 267.211842 
L 398.487273 267.211842 
" style="fill:none;stroke:#008000;stroke-linecap:square;stroke-width:1.5;"/>
   </g>
   <g id="line2d_14">
    <path clip-path="url(#pb308968a73)" d="M 73.978002 98.625232 
L 74.153335 96.329095 
L 74.416546 94.817544 
L 74.874613 93.350817 
L 75.82356 91.251398 
L 76.597067 89.924264 
L 77.99255 88.091048 
L 79.63461 86.476354 
L 80.82326 85.503316 
L 82.118016 84.676861 
L 83.484164 83.973876 
L 85.631604 83.137299 
L 87.846504 82.498881 
L 90.111365 82.069095 
L 92.407021 81.859569 
L 95.481459 81.884673 
L 100.082447 82.205513 
L 104.66442 82.734426 
L 129.798123 86.184841 
L 136.609818 87.395734 
L 144.878508 89.157769 
L 150.071033 90.5669 
L 157.393298 92.906643 
L 167.546371 96.473083 
L 171.832351 98.176525 
L 176.076485 99.981609 
L 186.571843 104.748008 
L 198.115538 110.868442 
L 209.286408 117.64452 
L 216.859396 122.909997 
L 220.531114 125.700109 
L 221.993629 125.349602 
L 222.662354 125.021584 
L 223.356794 125.346638 
L 223.885733 125.903448 
L 223.148457 126.098219 
L 222.600766 126.583186 
L 222.494131 127.312968 
L 223.04747 127.84636 
L 223.775268 127.619413 
L 224.528004 127.77519 
L 223.760061 127.796368 
L 224.455816 127.503833 
L 224.234821 128.238855 
L 224.977448 128.110027 
L 225.701676 127.85332 
L 226.466391 127.776254 
L 227.226302 127.889948 
L 227.550514 127.202778 
L 227.194967 127.864504 
L 227.685379 128.455278 
L 227.586198 129.213153 
L 228.072016 129.807607 
L 227.662887 130.457944 
L 230.622508 133.98838 
L 230.643094 133.221997 
L 239.60637 143.734337 
L 245.816593 150.539638 
L 251.496235 156.789239 
L 256.087658 161.95089 
L 259.146174 165.38997 
L 265.269093 172.267041 
L 268.898409 176.227069 
L 271.543717 179.005789 
L 276.2582 184.049494 
L 281.457183 189.693208 
L 295.934551 205.567386 
L 299.360224 209.702276 
L 303.498965 214.23402 
L 307.759248 218.65442 
L 310.903839 222.013832 
L 329.45685 241.443765 
L 331.051971 243.102632 
L 340.694127 252.993875 
L 342.84742 255.179341 
L 341.828405 254.034153 
L 338.046994 250.227387 
L 338.650376 250.701692 
L 339.787667 251.731321 
L 340.283673 252.314897 
L 339.211842 251.220974 
L 339.762864 251.755045 
L 337.510869 249.668653 
L 336.424157 248.585335 
L 340.811222 252.875104 
L 347.568409 259.120254 
L 347.568409 259.120254 
" style="fill:none;stroke:#0000ff;stroke-linecap:square;stroke-width:1.5;"/>
   </g>
   <g id="line2d_15">
    <path clip-path="url(#pb308968a73)" d="M 73.978002 98.625232 
L 73.983604 97.856463 
L 73.832727 97.103626 
L 74.219241 94.833876 
L 74.683454 93.369123 
L 75.640321 91.273409 
L 76.419045 89.949426 
L 77.821866 88.121995 
L 79.470476 86.514157 
L 80.662829 85.545798 
L 81.960623 84.724237 
L 83.32924 84.026185 
L 85.479565 83.197196 
L 87.696625 82.566441 
L 89.962898 82.144317 
L 92.259236 81.942603 
L 95.333566 81.978142 
L 99.93345 82.314581 
L 104.513577 82.859242 
L 129.63424 86.403448 
L 136.441404 87.639304 
L 141.683704 88.823425 
L 143.911682 89.405289 
L 146.896275 90.145946 
L 148.429913 90.153442 
L 149.186714 90.252806 
L 156.478703 92.685476 
L 168.012015 96.955986 
L 177.166564 100.960821 
L 186.868221 105.607614 
L 198.950529 112.34275 
L 204.850217 115.956124 
L 208.683207 118.520677 
L 216.180673 123.89264 
L 219.79706 126.752883 
L 220.556685 126.760339 
L 221.269761 126.47778 
L 222.014039 126.397754 
L 222.751247 126.590944 
L 223.294204 127.135185 
L 222.613106 127.462058 
L 222.022179 127.896341 
L 221.914939 128.655534 
L 222.469743 129.187657 
L 223.23812 129.162156 
L 223.995177 129.295142 
L 223.231416 129.374188 
L 223.935969 129.080824 
L 223.211857 129.338332 
L 223.940214 129.093028 
L 225.476442 129.081838 
L 226.988363 128.855514 
L 226.74097 129.56265 
L 227.135154 130.22263 
L 227.098485 130.985197 
L 227.556265 131.596425 
L 227.149258 132.247676 
L 230.342876 135.572961 
L 230.335331 134.805308 
L 239.589835 145.0834 
L 245.982345 151.73092 
L 251.826178 157.840587 
L 256.545674 162.896778 
L 259.691534 166.264333 
L 267.031168 174.12822 
L 271.867826 179.070044 
L 279.893489 187.340197 
L 295.274723 203.46461 
L 296.635509 204.177603 
L 298.157003 205.908619 
L 300.130448 208.261648 
L 299.651166 208.657812 
L 299.676417 209.400257 
L 299.556006 210.128446 
L 302.268186 212.843105 
L 304.545678 214.907727 
L 307.392231 217.489358 
L 310.74171 220.657245 
L 312.496703 222.152524 
L 315.300648 224.779269 
L 322.833954 231.294311 
L 323.090731 232.012772 
L 328.297518 236.566732 
L 331.221046 239.060842 
L 332.962392 240.570419 
L 345.26273 251.017199 
L 345.277899 250.99809 
L 346.024999 250.818159 
L 345.534546 250.27959 
L 345.029794 250.850499 
L 344.330393 251.155777 
L 343.570574 251.169342 
L 343.006219 251.691017 
L 342.262242 251.860836 
L 340.835049 252.420697 
L 340.141929 252.08807 
L 342.255303 253.006509 
L 341.586357 252.627611 
L 342.906259 253.415013 
L 342.238663 253.034097 
L 340.839974 252.396128 
L 338.747041 253.303301 
L 338.050868 252.977115 
L 345.037802 256.179702 
L 347.175603 257.041185 
L 352.08536 259.243495 
L 352.08536 259.243495 
" style="fill:none;stroke:#ff0000;stroke-linecap:square;stroke-width:1.5;"/>
   </g>
   <g id="patch_3">
    <path d="M 57.6 307.584 
L 57.6 41.472 
" style="fill:none;stroke:#000000;stroke-linecap:square;stroke-linejoin:miter;stroke-width:0.8;"/>
   </g>
   <g id="patch_4">
    <path d="M 414.72 307.584 
L 414.72 41.472 
" style="fill:none;stroke:#000000;stroke-linecap:square;stroke-linejoin:miter;stroke-width:0.8;"/>
   </g>
   <g id="patch_5">
    <path d="M 57.6 307.584 
L 414.72 307.584 
" style="fill:none;stroke:#000000;stroke-linecap:square;stroke-linejoin:miter;stroke-width:0.8;"/>
   </g>
   <g id="patch_6">
    <path d="M 57.6 41.472 
L 414.72 41.472 
" style="fill:none;stroke:#000000;stroke-linecap:square;stroke-linejoin:miter;stroke-width:0.8;"/>
   </g>
  </g>
 </g>
 <defs>
  <clipPath id="pb308968a73">
   <rect height="266.112" width="357.12" x="57.6" y="41.472"/>
  </clipPath>
 </defs>
</svg>
