<?xml version="1.0" encoding="utf-8" standalone="no"?>
<!DOCTYPE svg PUBLIC "-//W3C//DTD SVG 1.1//EN"
  "http://www.w3.org/Graphics/SVG/1.1/DTD/svg11.dtd">
<!-- Created with matplotlib (https://matplotlib.org/) -->
<svg height="345.6pt" version="1.1" viewBox="0 0 460.8 345.6" width="460.8pt" xmlns="http://www.w3.org/2000/svg" xmlns:xlink="http://www.w3.org/1999/xlink">
 <defs>
  <style type="text/css">
*{stroke-linecap:butt;stroke-linejoin:round;}
  </style>
 </defs>
 <g id="figure_1">
  <g id="patch_1">
   <path d="M 0 345.6 
L 460.8 345.6 
L 460.8 0 
L 0 0 
z
" style="fill:#ffffff;"/>
  </g>
  <g id="axes_1">
   <g id="patch_2">
    <path d="M 57.6 307.584 
L 414.72 307.584 
L 414.72 41.472 
L 57.6 41.472 
z
" style="fill:#ffffff;"/>
   </g>
   <g id="matplotlib.axis_1">
    <g id="xtick_1">
     <g id="line2d_1">
      <defs>
       <path d="M 0 0 
L 0 3.5 
" id="m8641315208" style="stroke:#000000;stroke-width:0.8;"/>
      </defs>
      <g>
       <use style="stroke:#000000;stroke-width:0.8;" x="60.617751" xlink:href="#m8641315208" y="307.584"/>
      </g>
     </g>
     <g id="text_1">
      <!-- −400 -->
      <defs>
       <path d="M 10.59375 35.5 
L 73.1875 35.5 
L 73.1875 27.203125 
L 10.59375 27.203125 
z
" id="DejaVuSans-8722"/>
       <path d="M 37.796875 64.3125 
L 12.890625 25.390625 
L 37.796875 25.390625 
z
M 35.203125 72.90625 
L 47.609375 72.90625 
L 47.609375 25.390625 
L 58.015625 25.390625 
L 58.015625 17.1875 
L 47.609375 17.1875 
L 47.609375 0 
L 37.796875 0 
L 37.796875 17.1875 
L 4.890625 17.1875 
L 4.890625 26.703125 
z
" id="DejaVuSans-52"/>
       <path d="M 31.78125 66.40625 
Q 24.171875 66.40625 20.328125 58.90625 
Q 16.5 51.421875 16.5 36.375 
Q 16.5 21.390625 20.328125 13.890625 
Q 24.171875 6.390625 31.78125 6.390625 
Q 39.453125 6.390625 43.28125 13.890625 
Q 47.125 21.390625 47.125 36.375 
Q 47.125 51.421875 43.28125 58.90625 
Q 39.453125 66.40625 31.78125 66.40625 
z
M 31.78125 74.21875 
Q 44.046875 74.21875 50.515625 64.515625 
Q 56.984375 54.828125 56.984375 36.375 
Q 56.984375 17.96875 50.515625 8.265625 
Q 44.046875 -1.421875 31.78125 -1.421875 
Q 19.53125 -1.421875 13.0625 8.265625 
Q 6.59375 17.96875 6.59375 36.375 
Q 6.59375 54.828125 13.0625 64.515625 
Q 19.53125 74.21875 31.78125 74.21875 
z
" id="DejaVuSans-48"/>
      </defs>
      <g transform="translate(46.884157 322.182437)scale(0.1 -0.1)">
       <use xlink:href="#DejaVuSans-8722"/>
       <use x="83.789062" xlink:href="#DejaVuSans-52"/>
       <use x="147.412109" xlink:href="#DejaVuSans-48"/>
       <use x="211.035156" xlink:href="#DejaVuSans-48"/>
      </g>
     </g>
    </g>
    <g id="xtick_2">
     <g id="line2d_2">
      <g>
       <use style="stroke:#000000;stroke-width:0.8;" x="104.205353" xlink:href="#m8641315208" y="307.584"/>
      </g>
     </g>
     <g id="text_2">
      <!-- −300 -->
      <defs>
       <path d="M 40.578125 39.3125 
Q 47.65625 37.796875 51.625 33 
Q 55.609375 28.21875 55.609375 21.1875 
Q 55.609375 10.40625 48.1875 4.484375 
Q 40.765625 -1.421875 27.09375 -1.421875 
Q 22.515625 -1.421875 17.65625 -0.515625 
Q 12.796875 0.390625 7.625 2.203125 
L 7.625 11.71875 
Q 11.71875 9.328125 16.59375 8.109375 
Q 21.484375 6.890625 26.8125 6.890625 
Q 36.078125 6.890625 40.9375 10.546875 
Q 45.796875 14.203125 45.796875 21.1875 
Q 45.796875 27.640625 41.28125 31.265625 
Q 36.765625 34.90625 28.71875 34.90625 
L 20.21875 34.90625 
L 20.21875 43.015625 
L 29.109375 43.015625 
Q 36.375 43.015625 40.234375 45.921875 
Q 44.09375 48.828125 44.09375 54.296875 
Q 44.09375 59.90625 40.109375 62.90625 
Q 36.140625 65.921875 28.71875 65.921875 
Q 24.65625 65.921875 20.015625 65.03125 
Q 15.375 64.15625 9.8125 62.3125 
L 9.8125 71.09375 
Q 15.4375 72.65625 20.34375 73.4375 
Q 25.25 74.21875 29.59375 74.21875 
Q 40.828125 74.21875 47.359375 69.109375 
Q 53.90625 64.015625 53.90625 55.328125 
Q 53.90625 49.265625 50.4375 45.09375 
Q 46.96875 40.921875 40.578125 39.3125 
z
" id="DejaVuSans-51"/>
      </defs>
      <g transform="translate(90.471759 322.182437)scale(0.1 -0.1)">
       <use xlink:href="#DejaVuSans-8722"/>
       <use x="83.789062" xlink:href="#DejaVuSans-51"/>
       <use x="147.412109" xlink:href="#DejaVuSans-48"/>
       <use x="211.035156" xlink:href="#DejaVuSans-48"/>
      </g>
     </g>
    </g>
    <g id="xtick_3">
     <g id="line2d_3">
      <g>
       <use style="stroke:#000000;stroke-width:0.8;" x="147.792955" xlink:href="#m8641315208" y="307.584"/>
      </g>
     </g>
     <g id="text_3">
      <!-- −200 -->
      <defs>
       <path d="M 19.1875 8.296875 
L 53.609375 8.296875 
L 53.609375 0 
L 7.328125 0 
L 7.328125 8.296875 
Q 12.9375 14.109375 22.625 23.890625 
Q 32.328125 33.6875 34.8125 36.53125 
Q 39.546875 41.84375 41.421875 45.53125 
Q 43.3125 49.21875 43.3125 52.78125 
Q 43.3125 58.59375 39.234375 62.25 
Q 35.15625 65.921875 28.609375 65.921875 
Q 23.96875 65.921875 18.8125 64.3125 
Q 13.671875 62.703125 7.8125 59.421875 
L 7.8125 69.390625 
Q 13.765625 71.78125 18.9375 73 
Q 24.125 74.21875 28.421875 74.21875 
Q 39.75 74.21875 46.484375 68.546875 
Q 53.21875 62.890625 53.21875 53.421875 
Q 53.21875 48.921875 51.53125 44.890625 
Q 49.859375 40.875 45.40625 35.40625 
Q 44.1875 33.984375 37.640625 27.21875 
Q 31.109375 20.453125 19.1875 8.296875 
z
" id="DejaVuSans-50"/>
      </defs>
      <g transform="translate(134.059361 322.182437)scale(0.1 -0.1)">
       <use xlink:href="#DejaVuSans-8722"/>
       <use x="83.789062" xlink:href="#DejaVuSans-50"/>
       <use x="147.412109" xlink:href="#DejaVuSans-48"/>
       <use x="211.035156" xlink:href="#DejaVuSans-48"/>
      </g>
     </g>
    </g>
    <g id="xtick_4">
     <g id="line2d_4">
      <g>
       <use style="stroke:#000000;stroke-width:0.8;" x="191.380556" xlink:href="#m8641315208" y="307.584"/>
      </g>
     </g>
     <g id="text_4">
      <!-- −100 -->
      <defs>
       <path d="M 12.40625 8.296875 
L 28.515625 8.296875 
L 28.515625 63.921875 
L 10.984375 60.40625 
L 10.984375 69.390625 
L 28.421875 72.90625 
L 38.28125 72.90625 
L 38.28125 8.296875 
L 54.390625 8.296875 
L 54.390625 0 
L 12.40625 0 
z
" id="DejaVuSans-49"/>
      </defs>
      <g transform="translate(177.646963 322.182437)scale(0.1 -0.1)">
       <use xlink:href="#DejaVuSans-8722"/>
       <use x="83.789062" xlink:href="#DejaVuSans-49"/>
       <use x="147.412109" xlink:href="#DejaVuSans-48"/>
       <use x="211.035156" xlink:href="#DejaVuSans-48"/>
      </g>
     </g>
    </g>
    <g id="xtick_5">
     <g id="line2d_5">
      <g>
       <use style="stroke:#000000;stroke-width:0.8;" x="234.968158" xlink:href="#m8641315208" y="307.584"/>
      </g>
     </g>
     <g id="text_5">
      <!-- 0 -->
      <g transform="translate(231.786908 322.182437)scale(0.1 -0.1)">
       <use xlink:href="#DejaVuSans-48"/>
      </g>
     </g>
    </g>
    <g id="xtick_6">
     <g id="line2d_6">
      <g>
       <use style="stroke:#000000;stroke-width:0.8;" x="278.55576" xlink:href="#m8641315208" y="307.584"/>
      </g>
     </g>
     <g id="text_6">
      <!-- 100 -->
      <g transform="translate(269.01201 322.182437)scale(0.1 -0.1)">
       <use xlink:href="#DejaVuSans-49"/>
       <use x="63.623047" xlink:href="#DejaVuSans-48"/>
       <use x="127.246094" xlink:href="#DejaVuSans-48"/>
      </g>
     </g>
    </g>
    <g id="xtick_7">
     <g id="line2d_7">
      <g>
       <use style="stroke:#000000;stroke-width:0.8;" x="322.143362" xlink:href="#m8641315208" y="307.584"/>
      </g>
     </g>
     <g id="text_7">
      <!-- 200 -->
      <g transform="translate(312.599612 322.182437)scale(0.1 -0.1)">
       <use xlink:href="#DejaVuSans-50"/>
       <use x="63.623047" xlink:href="#DejaVuSans-48"/>
       <use x="127.246094" xlink:href="#DejaVuSans-48"/>
      </g>
     </g>
    </g>
    <g id="xtick_8">
     <g id="line2d_8">
      <g>
       <use style="stroke:#000000;stroke-width:0.8;" x="365.730963" xlink:href="#m8641315208" y="307.584"/>
      </g>
     </g>
     <g id="text_8">
      <!-- 300 -->
      <g transform="translate(356.187213 322.182437)scale(0.1 -0.1)">
       <use xlink:href="#DejaVuSans-51"/>
       <use x="63.623047" xlink:href="#DejaVuSans-48"/>
       <use x="127.246094" xlink:href="#DejaVuSans-48"/>
      </g>
     </g>
    </g>
    <g id="xtick_9">
     <g id="line2d_9">
      <g>
       <use style="stroke:#000000;stroke-width:0.8;" x="409.318565" xlink:href="#m8641315208" y="307.584"/>
      </g>
     </g>
     <g id="text_9">
      <!-- 400 -->
      <g transform="translate(399.774815 322.182437)scale(0.1 -0.1)">
       <use xlink:href="#DejaVuSans-52"/>
       <use x="63.623047" xlink:href="#DejaVuSans-48"/>
       <use x="127.246094" xlink:href="#DejaVuSans-48"/>
      </g>
     </g>
    </g>
   </g>
   <g id="matplotlib.axis_2">
    <g id="ytick_1">
     <g id="line2d_10">
      <defs>
       <path d="M 0 0 
L -3.5 0 
" id="m5e9ee2bdd1" style="stroke:#000000;stroke-width:0.8;"/>
      </defs>
      <g>
       <use style="stroke:#000000;stroke-width:0.8;" x="57.6" xlink:href="#m5e9ee2bdd1" y="287.814441"/>
      </g>
     </g>
     <g id="text_10">
      <!-- 0 -->
      <g transform="translate(44.2375 291.61366)scale(0.1 -0.1)">
       <use xlink:href="#DejaVuSans-48"/>
      </g>
     </g>
    </g>
    <g id="ytick_2">
     <g id="line2d_11">
      <g>
       <use style="stroke:#000000;stroke-width:0.8;" x="57.6" xlink:href="#m5e9ee2bdd1" y="244.226839"/>
      </g>
     </g>
     <g id="text_11">
      <!-- 100 -->
      <g transform="translate(31.5125 248.026058)scale(0.1 -0.1)">
       <use xlink:href="#DejaVuSans-49"/>
       <use x="63.623047" xlink:href="#DejaVuSans-48"/>
       <use x="127.246094" xlink:href="#DejaVuSans-48"/>
      </g>
     </g>
    </g>
    <g id="ytick_3">
     <g id="line2d_12">
      <g>
       <use style="stroke:#000000;stroke-width:0.8;" x="57.6" xlink:href="#m5e9ee2bdd1" y="200.639238"/>
      </g>
     </g>
     <g id="text_12">
      <!-- 200 -->
      <g transform="translate(31.5125 204.438456)scale(0.1 -0.1)">
       <use xlink:href="#DejaVuSans-50"/>
       <use x="63.623047" xlink:href="#DejaVuSans-48"/>
       <use x="127.246094" xlink:href="#DejaVuSans-48"/>
      </g>
     </g>
    </g>
    <g id="ytick_4">
     <g id="line2d_13">
      <g>
       <use style="stroke:#000000;stroke-width:0.8;" x="57.6" xlink:href="#m5e9ee2bdd1" y="157.051636"/>
      </g>
     </g>
     <g id="text_13">
      <!-- 300 -->
      <g transform="translate(31.5125 160.850855)scale(0.1 -0.1)">
       <use xlink:href="#DejaVuSans-51"/>
       <use x="63.623047" xlink:href="#DejaVuSans-48"/>
       <use x="127.246094" xlink:href="#DejaVuSans-48"/>
      </g>
     </g>
    </g>
    <g id="ytick_5">
     <g id="line2d_14">
      <g>
       <use style="stroke:#000000;stroke-width:0.8;" x="57.6" xlink:href="#m5e9ee2bdd1" y="113.464034"/>
      </g>
     </g>
     <g id="text_14">
      <!-- 400 -->
      <g transform="translate(31.5125 117.263253)scale(0.1 -0.1)">
       <use xlink:href="#DejaVuSans-52"/>
       <use x="63.623047" xlink:href="#DejaVuSans-48"/>
       <use x="127.246094" xlink:href="#DejaVuSans-48"/>
      </g>
     </g>
    </g>
    <g id="ytick_6">
     <g id="line2d_15">
      <g>
       <use style="stroke:#000000;stroke-width:0.8;" x="57.6" xlink:href="#m5e9ee2bdd1" y="69.876432"/>
      </g>
     </g>
     <g id="text_15">
      <!-- 500 -->
      <defs>
       <path d="M 10.796875 72.90625 
L 49.515625 72.90625 
L 49.515625 64.59375 
L 19.828125 64.59375 
L 19.828125 46.734375 
Q 21.96875 47.46875 24.109375 47.828125 
Q 26.265625 48.1875 28.421875 48.1875 
Q 40.625 48.1875 47.75 41.5 
Q 54.890625 34.8125 54.890625 23.390625 
Q 54.890625 11.625 47.5625 5.09375 
Q 40.234375 -1.421875 26.90625 -1.421875 
Q 22.3125 -1.421875 17.546875 -0.640625 
Q 12.796875 0.140625 7.71875 1.703125 
L 7.71875 11.625 
Q 12.109375 9.234375 16.796875 8.0625 
Q 21.484375 6.890625 26.703125 6.890625 
Q 35.15625 6.890625 40.078125 11.328125 
Q 45.015625 15.765625 45.015625 23.390625 
Q 45.015625 31 40.078125 35.4375 
Q 35.15625 39.890625 26.703125 39.890625 
Q 22.75 39.890625 18.8125 39.015625 
Q 14.890625 38.140625 10.796875 36.28125 
z
" id="DejaVuSans-53"/>
      </defs>
      <g transform="translate(31.5125 73.675651)scale(0.1 -0.1)">
       <use xlink:href="#DejaVuSans-53"/>
       <use x="63.623047" xlink:href="#DejaVuSans-48"/>
       <use x="127.246094" xlink:href="#DejaVuSans-48"/>
      </g>
     </g>
    </g>
   </g>
   <g id="line2d_16">
    <path clip-path="url(#p7fc03208fd)" d="M 234.968158 287.814441 
L 233.498596 262.83329 
L 232.775893 251.250847 
L 233.07805 250.392856 
L 233.489202 249.851563 
L 234.162817 249.375407 
L 235.099833 249.051778 
L 236.509751 248.815642 
L 238.286959 248.728768 
L 246.780437 248.386043 
L 249.584245 248.32995 
L 252.265301 248.508755 
L 256.943588 248.956779 
L 258.052082 248.763124 
L 258.827527 248.416214 
L 259.44628 247.879346 
L 259.889491 247.203315 
L 260.217235 246.211431 
L 265.536797 223.549093 
L 266.048781 219.683613 
L 266.302901 215.014988 
L 266.264265 210.616258 
L 265.571571 198.781961 
L 265.487983 195.56136 
L 265.457332 188.236594 
L 265.306419 184.32125 
L 265.053267 183.277588 
L 264.680122 182.559351 
L 264.175731 181.979418 
L 263.25557 181.380307 
L 262.16911 181.101041 
L 261.097801 181.045728 
L 258.216795 181.166117 
L 254.807077 181.416702 
L 237.888568 182.391365 
L 234.032306 182.627784 
L 231.986241 182.540391 
L 231.023205 182.380032 
L 230.292228 182.044059 
L 229.703138 181.543499 
L 229.235408 180.791656 
L 228.940817 179.77066 
L 228.789088 178.232628 
L 228.594317 172.487912 
L 228.022195 158.312612 
L 226.25412 126.956909 
L 225.905533 126.080798 
L 225.346696 125.334404 
L 224.8922 124.927601 
L 223.719676 124.389032 
L 222.527681 124.322343 
L 214.254092 125.018699 
L 204.761946 125.550119 
L 200.163571 125.783879 
L 194.979057 125.775859 
L 192.134652 125.91316 
L 188.02017 126.373053 
L 183.850624 126.750609 
L 180.571703 126.86677 
L 170.316412 127.127119 
L 156.736172 128.013952 
L 155.835564 128.237208 
L 154.661184 128.879733 
L 153.938545 129.746036 
L 153.459517 131.117913 
L 153.366676 133.023388 
L 153.471983 135.144143 
L 154.848741 151.643578 
L 157.053271 191.140182 
L 157.469707 191.959891 
L 157.969657 192.567415 
L 158.64278 193.081312 
L 159.545262 193.480618 
L 160.607448 193.710587 
L 162.7357 193.839693 
L 167.931298 193.873779 
L 172.617271 193.732642 
L 176.896919 193.383418 
L 181.649145 193.046747 
L 187.293173 192.792806 
L 188.438611 192.381383 
L 189.417589 191.723907 
L 190.190266 190.83193 
L 190.629237 190.027478 
L 190.941673 188.909761 
L 191.489499 186.284479 
L 191.818049 185.575396 
L 192.473986 184.825035 
L 193.436518 184.355422 
L 194.64141 184.089669 
L 196.713687 183.881102 
L 206.001429 183.387647 
L 215.332719 182.843673 
L 220.092817 182.384086 
L 224.208772 182.133675 
L 225.447218 182.302141 
L 226.44625 182.652716 
L 227.084848 183.091687 
L 227.640764 183.726628 
L 228.002729 184.432616 
L 228.241841 185.311952 
L 228.436369 186.970243 
L 228.511588 189.698478 
L 228.665818 195.676213 
L 229.215323 204.616031 
L 229.661363 213.75997 
L 230.218626 225.157606 
L 231.110488 241.226221 
L 231.351471 244.431915 
L 231.647429 245.428258 
L 232.109252 246.28978 
L 232.719767 247.007393 
L 233.464348 247.561827 
L 234.330984 247.920013 
L 235.234173 248.109719 
L 237.413567 248.27591 
L 242.702752 248.43048 
L 249.772434 248.150705 
L 257.415939 248.801843 
L 259.296207 249.214251 
L 261.471804 249.927771 
L 266.289803 251.7799 
L 268.938046 253.08436 
L 273.843469 255.753129 
L 275.875288 257.178483 
L 278.883233 259.704437 
L 285.385458 264.989007 
L 291.474079 269.469364 
L 306.268583 280.451963 
L 307.204016 280.739632 
L 308.486233 280.874375 
L 314.713332 281.073892 
L 322.18259 281.699043 
L 332.570649 282.579775 
L 338.804461 283.141885 
L 343.720576 283.544421 
L 348.997727 284.038738 
L 353.722012 284.838961 
L 354.370727 284.659733 
L 355.033738 284.212163 
L 356.269054 281.283653 
L 356.528357 279.23222 
L 356.764994 275.181981 
L 357.923944 259.469356 
L 359.165799 244.522978 
L 360.93114 233.294192 
L 361.600471 230.261802 
L 362.328515 227.218908 
L 362.299573 226.060872 
L 359.802788 222.879282 
L 358.436317 222.203413 
L 354.677235 220.349501 
L 349.237676 217.329228 
L 346.799952 215.67011 
L 343.29041 213.234696 
L 340.314074 211.444117 
L 335.024195 208.633806 
L 323.542611 202.336618 
L 322.393206 201.28049 
L 320.044575 199.506387 
L 318.344048 198.509844 
L 308.212502 192.817607 
L 304.727935 191.002968 
L 303.528622 190.612816 
L 302.315841 190.455421 
L 300.771925 190.50729 
L 294.832373 190.979082 
L 276.489537 191.995109 
L 270.516907 192.34089 
L 269.014612 192.140953 
L 268.077544 191.837279 
L 267.253098 191.306599 
L 266.727327 190.786686 
L 266.155231 189.929929 
L 265.663275 188.635202 
L 265.426433 187.172228 
L 265.297327 184.605354 
L 264.937563 175.397298 
L 264.067228 161.146635 
L 263.320873 151.808731 
L 262.233768 142.262784 
L 261.812149 132.092749 
L 261.829406 128.436359 
L 261.750743 125.225827 
L 261.039781 118.584732 
L 260.575355 104.516309 
L 259.926414 95.830433 
L 259.4337 92.645399 
L 260.987293 90.190109 
L 262.452368 89.866951 
L 264.681225 89.774458 
L 276.097423 89.123172 
L 290.917552 88.243879 
L 293.953647 87.75718 
L 296.898425 87.072549 
L 299.362127 86.300918 
L 302.072884 85.242785 
L 304.660636 84.05328 
L 307.372831 82.543841 
L 309.452395 81.176323 
L 311.825566 79.629791 
L 312.736634 79.2885 
L 313.991739 79.249795 
L 315.382184 79.777248 
L 316.708598 80.986368 
L 318.213285 82.776511 
L 329.52052 96.940653 
L 339.551291 109.240029 
L 341.307087 112.107091 
L 341.2934 113.314206 
L 340.951499 114.215729 
L 340.39506 115.006146 
L 339.450211 115.903441 
L 338.281584 116.684836 
L 336.860541 117.326402 
L 335.18839 117.830231 
L 332.895943 118.302982 
L 328.007725 118.917829 
L 322.215586 119.475096 
L 315.430522 119.920257 
L 305.447174 120.315422 
L 299.939576 120.493521 
L 298.981695 120.724448 
L 298.385067 121.025551 
L 297.883766 121.436059 
L 297.410492 122.112975 
L 297.128873 122.952646 
L 296.981242 124.115433 
L 296.916122 126.275547 
L 297.008309 130.7557 
L 297.51288 140.128473 
L 300.279254 187.292748 
L 300.087599 188.194052 
L 299.589829 189.16052 
L 298.912652 189.859927 
L 297.980313 190.397711 
L 296.820752 190.74907 
L 295.465352 190.930046 
L 292.497298 191.073929 
L 282.348753 191.363089 
L 269.403989 192.02318 
L 268.256698 191.744568 
L 267.389763 191.299015 
L 266.605652 190.585704 
L 266.10008 189.833469 
L 265.647549 188.767578 
L 265.355939 187.460473 
L 265.193492 184.884532 
L 264.978475 183.47565 
L 264.602627 182.466118 
L 264.086027 181.816837 
L 263.429642 181.298972 
L 262.249285 180.865363 
L 260.656873 180.798064 
L 250.684566 181.23808 
L 239.617382 181.975757 
L 232.955152 182.492183 
L 231.481224 182.408887 
L 230.705247 182.178309 
L 229.956312 181.713403 
L 229.364366 181.044508 
L 228.991954 180.270436 
L 228.751572 179.32319 
L 228.642743 177.862525 
L 227.994421 160.078826 
L 226.424652 125.779128 
L 226.05819 124.975721 
L 225.488495 124.311098 
L 224.318587 123.694377 
L 222.642997 123.697646 
L 215.746989 124.683118 
L 208.490542 125.146672 
L 196.522642 125.668895 
L 192.304958 125.766401 
L 180.955099 126.670233 
L 170.255389 126.93311 
L 161.988216 127.52163 
L 154.524711 128.047297 
L 147.24362 128.201771 
L 140.378921 128.073754 
L 136.417898 127.797845 
L 132.786528 127.410874 
L 130.871027 126.951678 
L 128.599328 126.424094 
L 127.016532 126.381335 
L 124.600384 126.36281 
L 122.984766 126.149928 
L 121.878556 126.079752 
L 121.115337 126.21361 
L 120.44448 126.474307 
L 119.751176 126.920034 
L 118.828557 128.054881 
L 118.175397 129.71814 
L 117.800805 131.391381 
L 117.591367 133.333078 
L 116.783209 145.064508 
L 116.737224 150.189582 
L 116.940473 155.19235 
L 117.369419 160.172583 
L 118.071048 165.769972 
L 118.944936 170.971107 
L 119.988205 175.736278 
L 121.101084 179.965715 
L 122.700575 185.17439 
L 124.338684 189.800996 
L 126.925259 196.304267 
L 129.109173 201.178974 
L 131.236989 205.418436 
L 134.009596 210.437069 
L 137.715022 216.470989 
L 141.116816 221.331355 
L 144.312703 225.538562 
L 147.362789 229.199572 
L 150.998692 233.204881 
L 154.516124 236.734126 
L 158.261084 240.196812 
L 200.556261 278.152995 
L 208.519288 285.298906 
L 216.176135 292.144082 
L 218.519143 293.984441 
L 219.963911 294.83113 
L 221.16413 295.275118 
L 222.386266 295.477844 
L 223.587191 295.42482 
L 224.719122 295.119615 
L 225.748543 294.605198 
L 231.113703 291.311662 
L 232.738247 290.408524 
L 233.454198 289.703581 
L 234.009488 288.87371 
L 234.414757 287.908187 
L 234.657451 286.933778 
L 234.766023 285.128493 
L 234.65787 281.509054 
L 234.288916 275.024961 
L 233.543603 263.851379 
L 232.812882 251.004568 
L 232.812882 251.004568 
" style="fill:none;stroke:#008000;stroke-linecap:square;stroke-width:1.5;"/>
   </g>
   <g id="line2d_17">
    <path clip-path="url(#p7fc03208fd)" d="M 234.968158 287.814441 
L 234.863133 284.443055 
L 234.362536 276.238038 
L 233.428971 262.405759 
L 232.670553 254.626604 
L 232.497699 252.029024 
L 232.682181 250.881878 
L 232.976833 250.238154 
L 233.406682 249.728364 
L 233.951144 249.348909 
L 234.719251 249.051298 
L 236.290866 248.766209 
L 238.321456 248.646366 
L 244.784343 248.300744 
L 248.66552 248.079225 
L 251.717842 248.190835 
L 256.955107 248.578443 
L 257.833987 248.392283 
L 258.600879 248.025831 
L 259.207812 247.473205 
L 259.655319 246.797917 
L 259.990314 245.807519 
L 260.475306 243.579055 
L 264.942535 224.14301 
L 265.545579 219.936822 
L 265.820467 215.985683 
L 265.914989 212.002725 
L 265.82966 209.788034 
L 265.036518 195.929245 
L 265.011297 190.450122 
L 264.874596 185.769149 
L 264.667362 183.416486 
L 264.412014 182.617477 
L 263.993387 181.936513 
L 263.456206 181.406664 
L 262.667578 180.94441 
L 261.781414 180.692973 
L 260.730303 180.647957 
L 257.323055 180.816774 
L 240.864032 181.722669 
L 233.083678 182.353843 
L 231.568481 182.457288 
L 231.629734 183.391598 
L 231.943674 184.24768 
L 232.388161 184.810537 
L 232.92918 185.165724 
L 233.799042 185.448449 
L 235.112739 185.607627 
L 254.403268 187.156844 
L 267.743299 188.267033 
L 271.237923 188.600127 
L 275.147775 188.985614 
L 277.300533 189.25547 
L 277.877722 189.484858 
L 278.609091 190.098309 
L 279.096924 190.875595 
L 279.337862 191.670452 
L 279.380342 192.583069 
L 279.012188 194.917726 
L 278.02622 201.66351 
L 276.824109 210.685425 
L 276.264932 214.867988 
L 275.112852 224.72286 
L 274.414045 228.522668 
L 273.51343 235.490885 
L 272.912992 241.472679 
L 270.802653 257.061783 
L 270.460235 258.707352 
L 270.018488 259.752188 
L 269.513231 260.456358 
L 268.870306 260.999253 
L 268.095328 261.35869 
L 267.256898 261.514099 
L 265.383338 261.533444 
L 261.755496 261.125944 
L 256.821124 260.525609 
L 251.69526 260.126654 
L 242.20577 259.490666 
L 235.206831 258.993798 
L 230.527559 258.557108 
L 223.330298 257.976578 
L 217.909004 257.612169 
L 217.224295 257.232268 
L 216.632301 256.634819 
L 216.162619 255.782817 
L 215.908653 254.852086 
L 215.83745 253.459424 
L 215.991168 250.650359 
L 216.611735 243.695877 
L 217.26948 239.039347 
L 218.067826 233.175916 
L 218.749109 227.095353 
L 219.227401 226.001742 
L 219.761426 225.265242 
L 220.56416 224.523408 
L 221.473969 224.07153 
L 223.194734 223.615289 
L 224.265224 223.259699 
L 224.861069 222.88869 
L 225.431416 222.342895 
L 225.845714 221.532601 
L 226.125563 220.588574 
L 226.404264 218.743358 
L 227.271462 210.663015 
L 227.841154 204.89694 
L 229.394214 191.535906 
L 229.392221 189.495781 
L 229.204048 188.593533 
L 228.875962 187.914826 
L 228.420807 187.359017 
L 227.72796 186.919972 
L 226.795887 186.671822 
L 225.109891 186.531977 
L 216.003308 186.282766 
L 209.261465 185.842335 
L 190.637629 185.033429 
L 179.983912 184.518752 
L 178.154692 184.384396 
L 177.305837 184.142882 
L 176.578896 183.739499 
L 175.865792 183.015286 
L 175.459667 182.279153 
L 175.227178 181.424136 
L 175.151317 180.298173 
L 175.230306 177.837102 
L 175.51964 173.114146 
L 176.178394 166.813199 
L 176.186215 161.594883 
L 176.100805 157.733786 
L 175.816209 155.898481 
L 174.884107 151.924806 
L 174.058868 148.947356 
L 171.926859 143.279427 
L 170.937217 141.178131 
L 169.602249 138.956733 
L 167.961912 136.423899 
L 165.088684 131.781581 
L 164.03309 129.979273 
L 161.712392 125.764684 
L 154.804274 113.530977 
L 153.095243 110.619886 
L 152.805323 109.467142 
L 152.726226 108.218099 
L 152.920364 95.432801 
L 152.740181 84.062797 
L 152.674042 79.415695 
L 152.49531 67.752423 
L 152.223457 65.345114 
L 152.009406 63.305948 
L 152.182512 62.55722 
L 152.639848 61.775734 
L 153.356436 61.161957 
L 154.152716 60.790417 
L 155.572058 60.400059 
L 157.685041 60.16649 
L 160.907919 59.893655 
L 186.257094 56.894581 
L 197.690886 54.423851 
L 200.488385 53.591184 
L 201.450938 53.601566 
L 202.263757 53.858093 
L 202.978994 54.33197 
L 203.548611 55.000379 
L 203.967974 55.781775 
L 204.775597 57.975655 
L 207.406088 64.673779 
L 208.549547 67.145751 
L 210.197786 70.178897 
L 211.436988 72.654145 
L 212.714588 75.598757 
L 217.484155 88.012527 
L 218.760873 91.096255 
L 219.567988 92.379316 
L 220.863227 94.588688 
L 222.120006 97.314963 
L 227.284 110.296754 
L 227.443542 111.490127 
L 227.392972 112.955822 
L 226.690567 119.267314 
L 224.175343 144.041153 
L 224.277262 145.515664 
L 224.604436 146.627771 
L 225.091744 147.373723 
L 225.714535 147.970644 
L 226.513914 148.398942 
L 227.413891 148.654048 
L 228.917176 148.780613 
L 238.970694 148.867078 
L 257.336248 149.524693 
L 260.167443 149.848539 
L 263.741479 150.195749 
L 270.955965 150.347919 
L 275.057971 150.297461 
L 279.006465 150.14804 
L 281.315267 150.437352 
L 283.090855 150.601254 
L 285.394792 150.623325 
L 294.45176 150.592764 
L 301.176882 150.735619 
L 303.983569 151.012214 
L 306.248045 151.279956 
L 306.878879 151.086922 
L 307.414474 150.695124 
L 307.909355 150.032975 
L 308.261518 149.064138 
L 308.447155 147.59835 
L 308.811805 143.63442 
L 311.403149 118.862735 
L 312.299186 114.772432 
L 313.016977 112.275658 
L 314.25133 108.851546 
L 315.643194 105.61091 
L 317.2028 102.662682 
L 319.529056 98.543813 
L 319.736783 97.614281 
L 319.744191 96.6685 
L 319.538321 95.812765 
L 319.062021 94.934363 
L 318.1106 93.79481 
L 315.858186 91.583343 
L 305.660048 81.66828 
L 295.304659 71.339215 
L 294.375047 70.867289 
L 293.702863 70.718772 
L 292.918033 70.784616 
L 292.146678 71.124231 
L 291.457706 71.698427 
L 290.812715 72.453552 
L 290.098098 73.577849 
L 289.482444 74.971474 
L 288.963094 76.596812 
L 288.350745 79.235739 
L 287.474766 84.560046 
L 286.505045 91.783442 
L 285.604489 100.29441 
L 285.068605 106.063818 
L 284.535908 111.936099 
L 284.282082 112.890137 
L 283.880582 113.655467 
L 283.314371 114.263625 
L 282.671585 114.636173 
L 281.749163 114.885815 
L 279.557061 115.070468 
L 274.835644 115.07246 
L 267.706423 114.800627 
L 255.712407 114.410838 
L 234.191733 113.628519 
L 228.876378 113.440403 
L 228.124326 113.700353 
L 227.449583 114.145803 
L 226.826404 114.818232 
L 226.312333 115.740276 
L 225.96039 116.898476 
L 225.65088 118.840682 
L 225.280707 123.13366 
L 224.175475 134.634784 
L 223.333368 143.12565 
L 223.373454 144.709887 
L 223.639193 145.800933 
L 224.094968 146.616491 
L 224.760187 147.298092 
L 225.617244 147.762655 
L 226.496776 148.022149 
L 227.620183 148.118598 
L 229.958594 148.249797 
L 230.819307 148.552043 
L 231.353974 149.003185 
L 231.8629 149.786066 
L 232.157821 150.733134 
L 232.196491 151.828778 
L 231.866997 156.365041 
L 231.22957 163.84018 
L 229.499566 181.032521 
L 229.665015 182.093286 
L 230.099564 182.945531 
L 230.675333 183.506784 
L 231.330618 183.832215 
L 232.16959 183.99805 
L 234.89715 184.02021 
L 253.868932 184.334085 
L 274.63703 184.755665 
L 276.066267 184.837741 
L 276.772577 185.065818 
L 277.344462 185.504036 
L 277.787137 186.150289 
L 278.056472 186.967423 
L 278.078172 187.882959 
L 277.717926 189.95114 
L 276.869247 195.087945 
L 275.18214 214.592654 
L 274.879316 218.773389 
L 273.579733 230.046972 
L 273.032149 238.159911 
L 271.493116 252.090776 
L 271.057794 256.263977 
L 270.468001 265.943518 
L 270.358815 273.369918 
L 270.590719 278.36465 
L 271.118551 282.779396 
L 271.020632 286.038564 
L 270.965562 289.151338 
L 270.581633 290.154554 
L 270.1208 290.854104 
L 269.269055 291.641172 
L 268.368554 292.152335 
L 267.047933 292.651338 
L 265.173906 293.059943 
L 257.20819 294.159534 
L 253.310276 294.485699 
L 249.09965 294.608215 
L 243.328681 294.411179 
L 239.13269 294.055731 
L 235.289084 293.551306 
L 230.965328 292.737727 
L 226.188678 291.480329 
L 220.652107 289.649962 
L 216.48774 287.979655 
L 211.640227 285.787571 
L 208.089565 283.996031 
L 204.305829 281.805137 
L 201.022915 279.687051 
L 196.180314 276.174164 
L 192.630506 273.290198 
L 189.589558 270.60005 
L 186.993791 268.074926 
L 184.128113 265.03589 
L 180.981821 261.402412 
L 178.24242 257.885072 
L 135.620197 199.967759 
L 134.760955 198.303579 
L 134.379876 197.147209 
L 134.204465 195.950377 
L 134.240585 194.751601 
L 134.479703 193.598328 
L 134.922031 192.533921 
L 136.150542 190.39359 
L 137.719604 187.487843 
L 139.169672 184.740323 
L 140.016368 183.941295 
L 140.788121 183.473716 
L 141.795359 183.088403 
L 143.042197 182.875061 
L 145.057379 182.800613 
L 150.591457 182.77179 
L 159.807088 182.979492 
L 171.775435 183.003388 
L 171.775435 183.003388 
" style="fill:none;stroke:#0000ff;stroke-linecap:square;stroke-width:1.5;"/>
   </g>
   <g id="line2d_18">
    <path clip-path="url(#p7fc03208fd)" d="M 234.968158 287.814441 
L 234.856485 282.195251 
L 234.202606 250.985164 
L 234.443815 250.310894 
L 235.150903 249.373861 
L 235.837877 248.931894 
L 236.796776 248.635996 
L 238.112509 248.482474 
L 241.398625 248.391982 
L 243.679451 248.343512 
L 246.829884 248.347778 
L 249.276827 248.315147 
L 252.004422 248.380668 
L 255.148765 248.674789 
L 255.987204 248.797083 
L 258.142133 248.895406 
L 259.221056 248.709439 
L 260.140117 248.271007 
L 260.596059 247.8911 
L 260.932634 247.393169 
L 261.213872 246.6151 
L 261.478777 245.122519 
L 264.408815 222.752821 
L 264.453615 219.975603 
L 264.36166 215.771506 
L 264.100135 211.532724 
L 263.159552 202.51314 
L 262.773269 198.707936 
L 262.011685 190.764989 
L 261.326105 186.257624 
L 260.959729 185.081352 
L 260.456912 184.252543 
L 259.810447 183.563639 
L 259.225127 183.168956 
L 258.364273 182.847412 
L 257.366492 182.706799 
L 254.671612 182.662226 
L 246.831498 182.449437 
L 243.293857 182.484608 
L 237.960662 182.419043 
L 236.136297 182.516793 
L 235.030455 182.595253 
L 229.438811 182.512224 
L 228.902988 182.769161 
L 228.411216 183.210191 
L 228.134446 183.744421 
L 228.025718 184.479266 
L 228.096055 185.585089 
L 228.468165 187.999638 
L 228.888256 190.561779 
L 230.494603 200.352295 
L 232.451329 213.710135 
L 234.786544 230.347555 
L 234.841627 231.251603 
L 234.844671 232.402113 
L 234.641136 233.121803 
L 234.308085 233.621851 
L 233.787286 234.023796 
L 233.121728 234.257277 
L 232.511553 234.300865 
L 230.466928 234.166854 
L 229.454548 234.011314 
L 223.94753 233.439303 
L 221.937913 233.272682 
L 205.086394 231.073962 
L 203.693329 230.78991 
L 196.565128 230.039857 
L 190.961701 229.415865 
L 183.74203 228.331228 
L 181.385206 228.01031 
L 178.848359 227.600082 
L 178.164019 227.305351 
L 177.343059 226.764857 
L 176.593275 225.942739 
L 176.131157 225.100118 
L 175.663429 223.603395 
L 175.27204 221.340481 
L 174.320138 213.453663 
L 171.646522 188.311513 
L 171.143855 181.579515 
L 170.301732 167.610065 
L 170.384225 166.525096 
L 170.649169 165.561483 
L 171.173586 164.895113 
L 171.460923 164.670302 
L 171.440389 164.862539 
L 172.203618 164.782955 
L 172.303816 164.952998 
L 172.976939 164.967698 
L 174.877138 164.68954 
L 183.753569 163.724293 
L 189.460925 163.316746 
L 195.73935 162.719147 
L 197.574979 163.027031 
L 198.24814 163.48989 
L 198.990254 164.209645 
L 199.423145 164.917875 
L 199.631952 165.513538 
L 199.872422 166.549816 
L 200.465229 168.245359 
L 200.88469 168.968157 
L 201.442105 169.487828 
L 202.094821 169.777515 
L 203.066311 169.92514 
L 204.979203 169.889786 
L 213.564869 169.398344 
L 222.243898 168.969722 
L 233.616249 168.430987 
L 235.590577 167.855331 
L 236.889297 166.55 
L 236.671048 165.951671 
L 237.213305 163.730349 
L 239.601091 150.571321 
L 241.026626 143.294161 
L 240.93793 142.768121 
L 243.848318 130.862133 
L 247.820535 115.416942 
L 248.285154 114.398561 
L 248.801034 113.765394 
L 249.820849 113.162585 
L 250.450304 113.034377 
L 251.308556 112.994888 
L 254.219832 113.678644 
L 259.581765 114.764451 
L 265.04706 116.010141 
L 272.887374 117.27912 
L 275.779301 117.383293 
L 284.941678 116.945628 
L 288.042294 116.539562 
L 297.708464 114.802766 
L 303.026632 114.093939 
L 303.103501 113.815772 
L 310.590169 113.045006 
L 313.528249 112.850781 
L 313.920772 113.012871 
L 314.502934 113.166758 
L 314.996151 113.357013 
L 314.987732 113.429455 
L 317.041473 114.335446 
L 325.447253 118.194046 
L 332.671275 121.987891 
L 344.293448 128.443988 
L 346.554484 129.749004 
L 347.431401 130.422836 
L 348.083034 131.137385 
L 348.720966 132.050374 
L 349.284318 133.314383 
L 349.870917 135.31479 
L 353.901201 150.231975 
L 355.483864 157.074756 
L 358.359714 169.789534 
L 358.093706 170.976421 
L 357.85246 171.112148 
L 357.419125 171.093657 
L 356.492847 170.722438 
L 351.792808 168.574923 
L 348.873133 167.498208 
L 343.035113 165.453117 
L 337.775346 163.686237 
L 337.294906 163.616482 
L 332.18824 162.05917 
L 329.182551 161.53388 
L 326.204289 160.624087 
L 316.477602 157.437961 
L 315.195636 156.648655 
L 309.284395 152.425082 
L 303.55294 148.265983 
L 290.730889 139.091193 
L 289.006971 138.108354 
L 288.133868 137.827108 
L 287.437311 137.817693 
L 286.957589 138.080789 
L 286.644114 138.536803 
L 286.35238 139.494022 
L 284.871202 146.561494 
L 283.387848 152.290049 
L 281.591234 158.377738 
L 278.223206 168.823936 
L 276.477263 175.395632 
L 275.392461 178.45563 
L 272.002517 188.957133 
L 270.248167 193.726672 
L 269.312329 196.08329 
L 269.299859 196.856156 
L 269.523019 197.625213 
L 269.963221 198.305304 
L 270.783455 199.080324 
L 273.58298 201.115402 
L 282.977895 208.151214 
L 292.491188 215.486229 
L 296.243381 218.987414 
L 297.44566 220.354611 
L 299.084712 222.260085 
L 301.294928 224.998382 
L 304.054357 228.890839 
L 305.413166 231.126808 
L 305.910624 231.893031 
L 307.151937 233.618632 
L 308.254832 235.043218 
L 308.309977 235.071889 
L 308.22406 234.927839 
L 307.802104 234.686426 
L 307.679099 234.618363 
L 307.266698 234.178805 
L 306.514732 233.181434 
L 304.621771 230.196267 
L 304.732495 230.132405 
L 303.287337 227.939416 
L 300.121991 223.774812 
L 290.949986 211.813711 
L 286.335681 205.765201 
L 282.149294 200.440917 
L 280.838158 199.033351 
L 279.730438 198.234836 
L 278.978558 197.94581 
L 278.093622 197.879646 
L 276.637851 198.054223 
L 273.760948 198.628175 
L 268.968443 199.746561 
L 265.012579 200.667225 
L 263.329386 201.061953 
L 262.797793 201.27217 
L 259.526671 202.056711 
L 256.598511 202.824456 
L 254.511994 203.335759 
L 246.072237 206.008488 
L 241.865273 207.476534 
L 241.093281 207.540695 
L 240.058804 207.338621 
L 239.570269 207.120038 
L 239.083796 206.773398 
L 238.693131 206.552353 
L 238.915876 206.598064 
L 239.147635 206.601908 
L 238.939705 206.462606 
L 239.17709 206.523841 
L 239.055504 206.308312 
L 239.078393 206.058812 
L 238.773915 205.629192 
L 235.258928 202.595821 
L 229.353736 197.724545 
L 217.839849 188.589789 
L 217.074913 187.525523 
L 216.784802 186.813859 
L 216.670158 186.03487 
L 216.786637 185.04763 
L 217.145133 184.185888 
L 217.684159 183.418514 
L 219.876339 180.735872 
L 220.048483 180.079524 
L 220.081695 179.395929 
L 219.9156 178.69216 
L 219.530286 178.010679 
L 218.802689 177.215307 
L 216.537908 175.370986 
L 212.513981 172.227498 
L 209.056271 169.418407 
L 203.023243 164.6859 
L 199.84988 162.395026 
L 198.57129 161.462776 
L 195.973254 159.314987 
L 195.367232 158.515158 
L 195.081724 157.729362 
L 195.097685 157.113796 
L 195.272763 156.645584 
L 195.736682 156.016863 
L 196.771224 155.06829 
L 202.584418 150.002944 
L 203.446656 149.18895 
L 225.679939 129.310033 
L 225.872301 128.732834 
L 225.811778 128.125062 
L 225.513526 127.458523 
L 224.973193 126.84645 
L 223.992891 126.136371 
L 221.726823 124.889057 
L 216.820743 121.999018 
L 210.953368 118.479447 
L 198.435167 111.303929 
L 174.694478 99.215815 
L 163.239966 93.696942 
L 147.723924 86.093538 
L 143.475388 83.834293 
L 141.892406 83.363917 
L 141.540418 83.331313 
L 139.423029 82.680702 
L 137.495217 82.125951 
L 136.504105 82.110546 
L 135.720742 82.262712 
L 134.661687 82.719773 
L 133.875035 83.342655 
L 132.971467 84.372877 
L 132.145258 85.654978 
L 129.310879 91.066887 
L 125.593355 98.614113 
L 122.986149 104.537529 
L 121.066517 109.415575 
L 118.530769 116.128927 
L 117.100907 120.554605 
L 116.461831 122.797222 
L 115.463988 126.374257 
L 115.37533 126.824748 
L 115.448342 127.250093 
L 113.817045 134.012427 
L 112.342464 141.727238 
L 111.724693 145.78584 
L 110.440351 157.03881 
L 110.115247 163.791771 
L 109.972811 170.396193 
L 110.139947 176.69626 
L 110.533246 184.133566 
L 111.101052 191.850404 
L 110.883184 192.32668 
L 111.891 203.286818 
L 112.237998 203.575767 
L 115.244284 234.210269 
L 117.193778 251.032041 
L 117.578919 252.608795 
L 118.110947 253.688362 
L 118.691806 254.345393 
L 119.40872 254.752853 
L 120.22745 254.911423 
L 121.074407 254.87046 
L 127.9275 253.815934 
L 128.521971 253.419756 
L 129.326875 252.621736 
L 130.017842 251.595419 
L 130.814602 249.928853 
L 137.553499 233.850324 
L 138.693604 231.089096 
L 143.974913 218.821616 
L 143.974913 218.821616 
" style="fill:none;stroke:#ff0000;stroke-linecap:square;stroke-width:1.5;"/>
   </g>
   <g id="patch_3">
    <path d="M 57.6 307.584 
L 57.6 41.472 
" style="fill:none;stroke:#000000;stroke-linecap:square;stroke-linejoin:miter;stroke-width:0.8;"/>
   </g>
   <g id="patch_4">
    <path d="M 414.72 307.584 
L 414.72 41.472 
" style="fill:none;stroke:#000000;stroke-linecap:square;stroke-linejoin:miter;stroke-width:0.8;"/>
   </g>
   <g id="patch_5">
    <path d="M 57.6 307.584 
L 414.72 307.584 
" style="fill:none;stroke:#000000;stroke-linecap:square;stroke-linejoin:miter;stroke-width:0.8;"/>
   </g>
   <g id="patch_6">
    <path d="M 57.6 41.472 
L 414.72 41.472 
" style="fill:none;stroke:#000000;stroke-linecap:square;stroke-linejoin:miter;stroke-width:0.8;"/>
   </g>
  </g>
 </g>
 <defs>
  <clipPath id="p7fc03208fd">
   <rect height="266.112" width="357.12" x="57.6" y="41.472"/>
  </clipPath>
 </defs>
</svg>
