<?xml version="1.0" encoding="utf-8" standalone="no"?>
<!DOCTYPE svg PUBLIC "-//W3C//DTD SVG 1.1//EN"
  "http://www.w3.org/Graphics/SVG/1.1/DTD/svg11.dtd">
<!-- Created with matplotlib (https://matplotlib.org/) -->
<svg height="345.6pt" version="1.1" viewBox="0 0 460.8 345.6" width="460.8pt" xmlns="http://www.w3.org/2000/svg" xmlns:xlink="http://www.w3.org/1999/xlink">
 <defs>
  <style type="text/css">
*{stroke-linecap:butt;stroke-linejoin:round;}
  </style>
 </defs>
 <g id="figure_1">
  <g id="patch_1">
   <path d="M 0 345.6 
L 460.8 345.6 
L 460.8 0 
L 0 0 
z
" style="fill:#ffffff;"/>
  </g>
  <g id="axes_1">
   <g id="patch_2">
    <path d="M 57.6 307.584 
L 414.72 307.584 
L 414.72 41.472 
L 57.6 41.472 
z
" style="fill:#ffffff;"/>
   </g>
   <g id="matplotlib.axis_1">
    <g id="xtick_1">
     <g id="line2d_1">
      <defs>
       <path d="M 0 0 
L 0 3.5 
" id="m0d1ef3acaf" style="stroke:#000000;stroke-width:0.8;"/>
      </defs>
      <g>
       <use style="stroke:#000000;stroke-width:0.8;" x="97.86805" xlink:href="#m0d1ef3acaf" y="307.584"/>
      </g>
     </g>
     <g id="text_1">
      <!-- −40 -->
      <defs>
       <path d="M 10.59375 35.5 
L 73.1875 35.5 
L 73.1875 27.203125 
L 10.59375 27.203125 
z
" id="DejaVuSans-8722"/>
       <path d="M 37.796875 64.3125 
L 12.890625 25.390625 
L 37.796875 25.390625 
z
M 35.203125 72.90625 
L 47.609375 72.90625 
L 47.609375 25.390625 
L 58.015625 25.390625 
L 58.015625 17.1875 
L 47.609375 17.1875 
L 47.609375 0 
L 37.796875 0 
L 37.796875 17.1875 
L 4.890625 17.1875 
L 4.890625 26.703125 
z
" id="DejaVuSans-52"/>
       <path d="M 31.78125 66.40625 
Q 24.171875 66.40625 20.328125 58.90625 
Q 16.5 51.421875 16.5 36.375 
Q 16.5 21.390625 20.328125 13.890625 
Q 24.171875 6.390625 31.78125 6.390625 
Q 39.453125 6.390625 43.28125 13.890625 
Q 47.125 21.390625 47.125 36.375 
Q 47.125 51.421875 43.28125 58.90625 
Q 39.453125 66.40625 31.78125 66.40625 
z
M 31.78125 74.21875 
Q 44.046875 74.21875 50.515625 64.515625 
Q 56.984375 54.828125 56.984375 36.375 
Q 56.984375 17.96875 50.515625 8.265625 
Q 44.046875 -1.421875 31.78125 -1.421875 
Q 19.53125 -1.421875 13.0625 8.265625 
Q 6.59375 17.96875 6.59375 36.375 
Q 6.59375 54.828125 13.0625 64.515625 
Q 19.53125 74.21875 31.78125 74.21875 
z
" id="DejaVuSans-48"/>
      </defs>
      <g transform="translate(87.315707 322.182437)scale(0.1 -0.1)">
       <use xlink:href="#DejaVuSans-8722"/>
       <use x="83.789062" xlink:href="#DejaVuSans-52"/>
       <use x="147.412109" xlink:href="#DejaVuSans-48"/>
      </g>
     </g>
    </g>
    <g id="xtick_2">
     <g id="line2d_2">
      <g>
       <use style="stroke:#000000;stroke-width:0.8;" x="173.022856" xlink:href="#m0d1ef3acaf" y="307.584"/>
      </g>
     </g>
     <g id="text_2">
      <!-- −30 -->
      <defs>
       <path d="M 40.578125 39.3125 
Q 47.65625 37.796875 51.625 33 
Q 55.609375 28.21875 55.609375 21.1875 
Q 55.609375 10.40625 48.1875 4.484375 
Q 40.765625 -1.421875 27.09375 -1.421875 
Q 22.515625 -1.421875 17.65625 -0.515625 
Q 12.796875 0.390625 7.625 2.203125 
L 7.625 11.71875 
Q 11.71875 9.328125 16.59375 8.109375 
Q 21.484375 6.890625 26.8125 6.890625 
Q 36.078125 6.890625 40.9375 10.546875 
Q 45.796875 14.203125 45.796875 21.1875 
Q 45.796875 27.640625 41.28125 31.265625 
Q 36.765625 34.90625 28.71875 34.90625 
L 20.21875 34.90625 
L 20.21875 43.015625 
L 29.109375 43.015625 
Q 36.375 43.015625 40.234375 45.921875 
Q 44.09375 48.828125 44.09375 54.296875 
Q 44.09375 59.90625 40.109375 62.90625 
Q 36.140625 65.921875 28.71875 65.921875 
Q 24.65625 65.921875 20.015625 65.03125 
Q 15.375 64.15625 9.8125 62.3125 
L 9.8125 71.09375 
Q 15.4375 72.65625 20.34375 73.4375 
Q 25.25 74.21875 29.59375 74.21875 
Q 40.828125 74.21875 47.359375 69.109375 
Q 53.90625 64.015625 53.90625 55.328125 
Q 53.90625 49.265625 50.4375 45.09375 
Q 46.96875 40.921875 40.578125 39.3125 
z
" id="DejaVuSans-51"/>
      </defs>
      <g transform="translate(162.470512 322.182437)scale(0.1 -0.1)">
       <use xlink:href="#DejaVuSans-8722"/>
       <use x="83.789062" xlink:href="#DejaVuSans-51"/>
       <use x="147.412109" xlink:href="#DejaVuSans-48"/>
      </g>
     </g>
    </g>
    <g id="xtick_3">
     <g id="line2d_3">
      <g>
       <use style="stroke:#000000;stroke-width:0.8;" x="248.177662" xlink:href="#m0d1ef3acaf" y="307.584"/>
      </g>
     </g>
     <g id="text_3">
      <!-- −20 -->
      <defs>
       <path d="M 19.1875 8.296875 
L 53.609375 8.296875 
L 53.609375 0 
L 7.328125 0 
L 7.328125 8.296875 
Q 12.9375 14.109375 22.625 23.890625 
Q 32.328125 33.6875 34.8125 36.53125 
Q 39.546875 41.84375 41.421875 45.53125 
Q 43.3125 49.21875 43.3125 52.78125 
Q 43.3125 58.59375 39.234375 62.25 
Q 35.15625 65.921875 28.609375 65.921875 
Q 23.96875 65.921875 18.8125 64.3125 
Q 13.671875 62.703125 7.8125 59.421875 
L 7.8125 69.390625 
Q 13.765625 71.78125 18.9375 73 
Q 24.125 74.21875 28.421875 74.21875 
Q 39.75 74.21875 46.484375 68.546875 
Q 53.21875 62.890625 53.21875 53.421875 
Q 53.21875 48.921875 51.53125 44.890625 
Q 49.859375 40.875 45.40625 35.40625 
Q 44.1875 33.984375 37.640625 27.21875 
Q 31.109375 20.453125 19.1875 8.296875 
z
" id="DejaVuSans-50"/>
      </defs>
      <g transform="translate(237.625318 322.182437)scale(0.1 -0.1)">
       <use xlink:href="#DejaVuSans-8722"/>
       <use x="83.789062" xlink:href="#DejaVuSans-50"/>
       <use x="147.412109" xlink:href="#DejaVuSans-48"/>
      </g>
     </g>
    </g>
    <g id="xtick_4">
     <g id="line2d_4">
      <g>
       <use style="stroke:#000000;stroke-width:0.8;" x="323.332467" xlink:href="#m0d1ef3acaf" y="307.584"/>
      </g>
     </g>
     <g id="text_4">
      <!-- −10 -->
      <defs>
       <path d="M 12.40625 8.296875 
L 28.515625 8.296875 
L 28.515625 63.921875 
L 10.984375 60.40625 
L 10.984375 69.390625 
L 28.421875 72.90625 
L 38.28125 72.90625 
L 38.28125 8.296875 
L 54.390625 8.296875 
L 54.390625 0 
L 12.40625 0 
z
" id="DejaVuSans-49"/>
      </defs>
      <g transform="translate(312.780123 322.182437)scale(0.1 -0.1)">
       <use xlink:href="#DejaVuSans-8722"/>
       <use x="83.789062" xlink:href="#DejaVuSans-49"/>
       <use x="147.412109" xlink:href="#DejaVuSans-48"/>
      </g>
     </g>
    </g>
    <g id="xtick_5">
     <g id="line2d_5">
      <g>
       <use style="stroke:#000000;stroke-width:0.8;" x="398.487273" xlink:href="#m0d1ef3acaf" y="307.584"/>
      </g>
     </g>
     <g id="text_5">
      <!-- 0 -->
      <g transform="translate(395.306023 322.182437)scale(0.1 -0.1)">
       <use xlink:href="#DejaVuSans-48"/>
      </g>
     </g>
    </g>
   </g>
   <g id="matplotlib.axis_2">
    <g id="ytick_1">
     <g id="line2d_6">
      <defs>
       <path d="M 0 0 
L -3.5 0 
" id="m3e8050f647" style="stroke:#000000;stroke-width:0.8;"/>
      </defs>
      <g>
       <use style="stroke:#000000;stroke-width:0.8;" x="57.6" xlink:href="#m3e8050f647" y="274.149883"/>
      </g>
     </g>
     <g id="text_6">
      <!-- −10 -->
      <g transform="translate(29.495313 277.949102)scale(0.1 -0.1)">
       <use xlink:href="#DejaVuSans-8722"/>
       <use x="83.789062" xlink:href="#DejaVuSans-49"/>
       <use x="147.412109" xlink:href="#DejaVuSans-48"/>
      </g>
     </g>
    </g>
    <g id="ytick_2">
     <g id="line2d_7">
      <g>
       <use style="stroke:#000000;stroke-width:0.8;" x="57.6" xlink:href="#m3e8050f647" y="236.57248"/>
      </g>
     </g>
     <g id="text_7">
      <!-- −5 -->
      <defs>
       <path d="M 10.796875 72.90625 
L 49.515625 72.90625 
L 49.515625 64.59375 
L 19.828125 64.59375 
L 19.828125 46.734375 
Q 21.96875 47.46875 24.109375 47.828125 
Q 26.265625 48.1875 28.421875 48.1875 
Q 40.625 48.1875 47.75 41.5 
Q 54.890625 34.8125 54.890625 23.390625 
Q 54.890625 11.625 47.5625 5.09375 
Q 40.234375 -1.421875 26.90625 -1.421875 
Q 22.3125 -1.421875 17.546875 -0.640625 
Q 12.796875 0.140625 7.71875 1.703125 
L 7.71875 11.625 
Q 12.109375 9.234375 16.796875 8.0625 
Q 21.484375 6.890625 26.703125 6.890625 
Q 35.15625 6.890625 40.078125 11.328125 
Q 45.015625 15.765625 45.015625 23.390625 
Q 45.015625 31 40.078125 35.4375 
Q 35.15625 39.890625 26.703125 39.890625 
Q 22.75 39.890625 18.8125 39.015625 
Q 14.890625 38.140625 10.796875 36.28125 
z
" id="DejaVuSans-53"/>
      </defs>
      <g transform="translate(35.857813 240.371699)scale(0.1 -0.1)">
       <use xlink:href="#DejaVuSans-8722"/>
       <use x="83.789062" xlink:href="#DejaVuSans-53"/>
      </g>
     </g>
    </g>
    <g id="ytick_3">
     <g id="line2d_8">
      <g>
       <use style="stroke:#000000;stroke-width:0.8;" x="57.6" xlink:href="#m3e8050f647" y="198.995078"/>
      </g>
     </g>
     <g id="text_8">
      <!-- 0 -->
      <g transform="translate(44.2375 202.794296)scale(0.1 -0.1)">
       <use xlink:href="#DejaVuSans-48"/>
      </g>
     </g>
    </g>
    <g id="ytick_4">
     <g id="line2d_9">
      <g>
       <use style="stroke:#000000;stroke-width:0.8;" x="57.6" xlink:href="#m3e8050f647" y="161.417675"/>
      </g>
     </g>
     <g id="text_9">
      <!-- 5 -->
      <g transform="translate(44.2375 165.216894)scale(0.1 -0.1)">
       <use xlink:href="#DejaVuSans-53"/>
      </g>
     </g>
    </g>
    <g id="ytick_5">
     <g id="line2d_10">
      <g>
       <use style="stroke:#000000;stroke-width:0.8;" x="57.6" xlink:href="#m3e8050f647" y="123.840272"/>
      </g>
     </g>
     <g id="text_10">
      <!-- 10 -->
      <g transform="translate(37.875 127.639491)scale(0.1 -0.1)">
       <use xlink:href="#DejaVuSans-49"/>
       <use x="63.623047" xlink:href="#DejaVuSans-48"/>
      </g>
     </g>
    </g>
    <g id="ytick_6">
     <g id="line2d_11">
      <g>
       <use style="stroke:#000000;stroke-width:0.8;" x="57.6" xlink:href="#m3e8050f647" y="86.262869"/>
      </g>
     </g>
     <g id="text_11">
      <!-- 15 -->
      <g transform="translate(37.875 90.062088)scale(0.1 -0.1)">
       <use xlink:href="#DejaVuSans-49"/>
       <use x="63.623047" xlink:href="#DejaVuSans-53"/>
      </g>
     </g>
    </g>
    <g id="ytick_7">
     <g id="line2d_12">
      <g>
       <use style="stroke:#000000;stroke-width:0.8;" x="57.6" xlink:href="#m3e8050f647" y="48.685466"/>
      </g>
     </g>
     <g id="text_12">
      <!-- 20 -->
      <g transform="translate(37.875 52.484685)scale(0.1 -0.1)">
       <use xlink:href="#DejaVuSans-50"/>
       <use x="63.623047" xlink:href="#DejaVuSans-48"/>
      </g>
     </g>
    </g>
   </g>
   <g id="line2d_13">
    <path clip-path="url(#p810d903260)" d="M 398.487273 198.995078 
L 398.487273 198.995078 
L 398.452726 198.30709 
L 398.412034 197.599173 
L 398.355498 196.864685 
L 398.27209 196.084257 
L 398.166084 195.228773 
L 398.036343 194.275838 
L 397.865315 193.231158 
L 397.667712 192.086994 
L 397.42358 190.863981 
L 397.122419 189.590371 
L 396.73944 188.280685 
L 396.281787 186.939195 
L 395.76929 185.552588 
L 395.205831 184.120206 
L 394.560495 182.663788 
L 393.826968 181.192851 
L 393.039713 179.712692 
L 392.178076 178.26524 
L 391.206583 176.821284 
L 390.19294 175.380799 
L 389.147304 173.945192 
L 388.022154 172.517829 
L 386.729709 171.1407 
L 385.248243 169.82973 
L 383.686578 168.561154 
L 382.044641 167.310683 
L 380.333427 166.059303 
L 378.472451 164.868979 
L 376.473566 163.76491 
L 374.321155 162.737138 
L 372.049022 161.807142 
L 369.650712 160.987256 
L 367.094133 160.264289 
L 364.409566 159.660601 
L 361.578184 159.14461 
L 358.660269 158.705015 
L 355.638835 158.398751 
L 352.476817 158.251478 
L 349.193281 158.203499 
L 345.810586 158.230983 
L 342.320885 158.331089 
L 338.736113 158.492034 
L 335.021955 158.75987 
L 331.201123 159.082397 
L 327.237684 159.434572 
L 323.159461 159.830202 
L 318.979426 160.267243 
L 314.669072 160.753607 
L 310.259965 161.223174 
L 305.715279 161.681912 
L 301.054554 162.155605 
L 296.27561 162.652611 
L 291.379349 163.167091 
L 286.40583 163.692137 
L 281.292973 164.19841 
L 276.052729 164.69967 
L 270.688179 165.215773 
L 265.213603 165.727562 
L 259.662594 166.233226 
L 254.007645 166.746271 
L 248.265367 167.256286 
L 242.367444 167.716181 
L 236.419843 168.179976 
L 230.409638 168.662891 
L 224.397554 169.150961 
L 218.344962 169.61729 
L 212.182493 170.067602 
L 205.949229 170.540874 
L 199.617436 171.064974 
L 193.257912 171.603015 
L 186.904926 172.168262 
L 180.556223 172.744271 
L 174.246301 173.303708 
L 167.955618 173.847934 
L 161.63044 174.4045 
L 155.328258 174.954401 
L 149.009618 175.519527 
L 142.763577 176.063385 
L 136.49732 176.596255 
L 130.211748 177.120362 
L 123.92084 177.627537 
L 117.605581 178.139093 
L 111.284987 178.650784 
L 105.01392 179.162814 
L 98.757357 179.66333 
L 92.519208 180.170257 
L 86.306235 180.68621 
L 80.092436 181.235456 
L 73.88292 181.783086 
" style="fill:none;stroke:#008000;stroke-linecap:square;stroke-width:1.5;"/>
   </g>
   <g id="line2d_14">
    <path clip-path="url(#p810d903260)" d="M 398.487273 198.995078 
L 398.487273 198.995078 
L 398.433106 198.308216 
L 398.368349 197.601924 
L 398.318349 196.866735 
L 398.220308 196.088093 
L 398.094496 195.235391 
L 397.951927 194.284274 
L 397.757195 193.243961 
L 397.536679 192.103952 
L 397.296329 190.880152 
L 396.975204 189.611196 
L 396.567197 188.308743 
L 396.083576 186.975127 
L 395.546789 185.597524 
L 394.974117 184.169183 
L 394.328756 182.712765 
L 393.603332 181.238068 
L 392.827599 179.75175 
L 391.951437 178.313267 
L 390.994625 176.859488 
L 389.973998 175.42359 
L 388.959071 173.965833 
L 387.859101 172.519522 
L 386.58875 171.122254 
L 385.141102 169.774185 
L 383.598222 168.483503 
L 381.969903 167.215261 
L 380.292553 165.918867 
L 378.489503 164.642572 
L 376.514936 163.495934 
L 374.387885 162.41666 
L 372.129593 161.453462 
L 369.745744 160.592596 
L 367.202057 159.825317 
L 364.533161 159.154612 
L 361.715096 158.569634 
L 358.801099 158.104456 
L 355.782128 157.77561 
L 352.619545 157.632614 
L 349.336374 157.561696 
L 345.953437 157.582091 
L 342.462404 157.644726 
L 338.877967 157.816738 
L 335.160123 158.033075 
L 331.340594 158.375176 
L 327.375754 158.714898 
L 323.293472 159.071305 
L 319.109407 159.469352 
L 314.795704 159.925409 
L 310.385544 160.384216 
L 305.83606 160.794198 
L 301.17215 161.232446 
L 296.385279 161.648069 
L 291.482173 162.093343 
L 286.50519 162.586614 
L 281.388086 163.050775 
L 276.146014 163.538071 
L 270.770854 163.93706 
L 265.288724 164.366995 
L 259.737163 164.8719 
L 254.073933 165.302337 
L 248.325646 165.754523 
L 242.424958 166.186025 
L 236.472029 166.588702 
L 230.460388 167.060603 
L 224.445585 167.520907 
L 218.395302 168.019813 
L 212.234812 168.505679 
L 205.997414 168.926645 
L 199.655349 169.311814 
L 193.289347 169.767558 
L 186.930945 170.277455 
L 180.574932 170.771527 
L 174.263278 171.320154 
L 167.973182 171.870507 
L 161.645391 172.401068 
L 155.338791 172.901585 
L 149.008862 173.330719 
L 142.759308 173.838203 
L 136.496116 174.407847 
L 130.209307 174.918679 
L 123.914981 175.378267 
L 117.592528 175.797516 
L 111.263794 176.201332 
L 104.989945 176.68037 
L 98.722349 177.019611 
L 92.47969 177.468873 
L 86.259691 177.897763 
L 80.044786 178.436799 
L 73.832727 178.953973 
" style="fill:none;stroke:#0000ff;stroke-linecap:square;stroke-width:1.5;"/>
   </g>
   <g id="line2d_15">
    <path clip-path="url(#p810d903260)" d="M 398.487273 198.995078 
L 398.487273 198.995078 
L 398.434102 198.308145 
L 398.365891 197.602161 
L 398.296483 196.868543 
L 398.20389 196.089153 
L 398.085218 195.235334 
L 397.940018 194.28464 
L 397.754681 193.242434 
L 397.535302 192.102206 
L 397.282231 190.881007 
L 396.958773 189.612667 
L 396.542041 188.312897 
L 396.050364 186.982388 
L 395.512691 185.605118 
L 394.873894 184.205321 
L 394.225484 182.750306 
L 393.495646 181.277621 
L 392.716287 179.793211 
L 391.847975 178.349911 
L 390.891495 176.895836 
L 389.882938 175.451436 
L 388.863496 173.996841 
L 387.765641 172.548778 
L 386.498478 171.148723 
L 385.054277 169.797007 
L 383.477864 168.547723 
L 381.856116 167.271096 
L 380.155307 166.005617 
L 378.178604 165.022466 
L 376.201502 163.880046 
L 374.100849 162.750324 
L 371.871941 161.721038 
L 369.501484 160.823411 
L 366.970703 160.014252 
L 364.308784 159.316426 
L 361.493156 158.71988 
L 358.576561 158.271369 
L 355.560495 157.916682 
L 352.408105 157.66496 
L 349.123312 157.668896 
L 345.754737 157.966456 
L 342.263456 158.013465 
L 338.678331 158.170351 
L 334.959638 158.3714 
L 331.181519 159.03004 
L 327.214196 159.338937 
L 323.133095 159.708112 
L 318.945043 160.06177 
L 314.619161 160.382274 
L 310.20424 160.793049 
L 305.651487 161.165159 
L 300.98357 161.558486 
L 296.182829 161.742016 
L 291.274665 162.127244 
L 286.291816 162.556885 
L 281.171606 162.986389 
L 275.925812 163.432235 
L 270.552891 163.85716 
L 265.267338 162.447083 
L 259.718586 162.989152 
L 254.06026 163.484715 
L 248.314151 163.969235 
L 242.416167 164.445157 
L 236.463003 164.850856 
L 230.450381 165.320599 
L 224.439495 165.834226 
L 218.376295 165.591134 
L 212.222011 166.153307 
L 205.970301 166.112953 
L 199.636117 166.613295 
L 193.277967 167.174638 
L 191.471388 173.27506 
L 185.100343 173.05221 
L 178.881429 171.8878 
L 172.567998 172.011018 
L 166.217962 171.983806 
L 159.919788 171.394883 
L 153.577215 171.232442 
L 147.308845 171.070074 
L 141.019874 171.107185 
L 134.712318 171.088043 
L 128.401454 171.021334 
L 125.941548 165.181704 
L 122.751304 159.706923 
L 116.552238 160.785001 
L 113.217789 155.49486 
L 107.180329 157.137565 
L 103.401506 152.240176 
L 97.61403 154.555341 
L 93.337546 150.060922 
" style="fill:none;stroke:#ff0000;stroke-linecap:square;stroke-width:1.5;"/>
   </g>
   <g id="patch_3">
    <path d="M 57.6 307.584 
L 57.6 41.472 
" style="fill:none;stroke:#000000;stroke-linecap:square;stroke-linejoin:miter;stroke-width:0.8;"/>
   </g>
   <g id="patch_4">
    <path d="M 414.72 307.584 
L 414.72 41.472 
" style="fill:none;stroke:#000000;stroke-linecap:square;stroke-linejoin:miter;stroke-width:0.8;"/>
   </g>
   <g id="patch_5">
    <path d="M 57.6 307.584 
L 414.72 307.584 
" style="fill:none;stroke:#000000;stroke-linecap:square;stroke-linejoin:miter;stroke-width:0.8;"/>
   </g>
   <g id="patch_6">
    <path d="M 57.6 41.472 
L 414.72 41.472 
" style="fill:none;stroke:#000000;stroke-linecap:square;stroke-linejoin:miter;stroke-width:0.8;"/>
   </g>
  </g>
 </g>
 <defs>
  <clipPath id="p810d903260">
   <rect height="266.112" width="357.12" x="57.6" y="41.472"/>
  </clipPath>
 </defs>
</svg>
