<?xml version="1.0" encoding="utf-8" standalone="no"?>
<!DOCTYPE svg PUBLIC "-//W3C//DTD SVG 1.1//EN"
  "http://www.w3.org/Graphics/SVG/1.1/DTD/svg11.dtd">
<!-- Created with matplotlib (https://matplotlib.org/) -->
<svg height="345.6pt" version="1.1" viewBox="0 0 460.8 345.6" width="460.8pt" xmlns="http://www.w3.org/2000/svg" xmlns:xlink="http://www.w3.org/1999/xlink">
 <defs>
  <style type="text/css">
*{stroke-linecap:butt;stroke-linejoin:round;}
  </style>
 </defs>
 <g id="figure_1">
  <g id="patch_1">
   <path d="M 0 345.6 
L 460.8 345.6 
L 460.8 0 
L 0 0 
z
" style="fill:#ffffff;"/>
  </g>
  <g id="axes_1">
   <g id="patch_2">
    <path d="M 57.6 307.584 
L 414.72 307.584 
L 414.72 41.472 
L 57.6 41.472 
z
" style="fill:#ffffff;"/>
   </g>
   <g id="matplotlib.axis_1">
    <g id="xtick_1">
     <g id="line2d_1">
      <defs>
       <path d="M 0 0 
L 0 3.5 
" id="md30b67c4ba" style="stroke:#000000;stroke-width:0.8;"/>
      </defs>
      <g>
       <use style="stroke:#000000;stroke-width:0.8;" x="67.926811" xlink:href="#md30b67c4ba" y="307.584"/>
      </g>
     </g>
     <g id="text_1">
      <!-- −300 -->
      <defs>
       <path d="M 10.59375 35.5 
L 73.1875 35.5 
L 73.1875 27.203125 
L 10.59375 27.203125 
z
" id="DejaVuSans-8722"/>
       <path d="M 40.578125 39.3125 
Q 47.65625 37.796875 51.625 33 
Q 55.609375 28.21875 55.609375 21.1875 
Q 55.609375 10.40625 48.1875 4.484375 
Q 40.765625 -1.421875 27.09375 -1.421875 
Q 22.515625 -1.421875 17.65625 -0.515625 
Q 12.796875 0.390625 7.625 2.203125 
L 7.625 11.71875 
Q 11.71875 9.328125 16.59375 8.109375 
Q 21.484375 6.890625 26.8125 6.890625 
Q 36.078125 6.890625 40.9375 10.546875 
Q 45.796875 14.203125 45.796875 21.1875 
Q 45.796875 27.640625 41.28125 31.265625 
Q 36.765625 34.90625 28.71875 34.90625 
L 20.21875 34.90625 
L 20.21875 43.015625 
L 29.109375 43.015625 
Q 36.375 43.015625 40.234375 45.921875 
Q 44.09375 48.828125 44.09375 54.296875 
Q 44.09375 59.90625 40.109375 62.90625 
Q 36.140625 65.921875 28.71875 65.921875 
Q 24.65625 65.921875 20.015625 65.03125 
Q 15.375 64.15625 9.8125 62.3125 
L 9.8125 71.09375 
Q 15.4375 72.65625 20.34375 73.4375 
Q 25.25 74.21875 29.59375 74.21875 
Q 40.828125 74.21875 47.359375 69.109375 
Q 53.90625 64.015625 53.90625 55.328125 
Q 53.90625 49.265625 50.4375 45.09375 
Q 46.96875 40.921875 40.578125 39.3125 
z
" id="DejaVuSans-51"/>
       <path d="M 31.78125 66.40625 
Q 24.171875 66.40625 20.328125 58.90625 
Q 16.5 51.421875 16.5 36.375 
Q 16.5 21.390625 20.328125 13.890625 
Q 24.171875 6.390625 31.78125 6.390625 
Q 39.453125 6.390625 43.28125 13.890625 
Q 47.125 21.390625 47.125 36.375 
Q 47.125 51.421875 43.28125 58.90625 
Q 39.453125 66.40625 31.78125 66.40625 
z
M 31.78125 74.21875 
Q 44.046875 74.21875 50.515625 64.515625 
Q 56.984375 54.828125 56.984375 36.375 
Q 56.984375 17.96875 50.515625 8.265625 
Q 44.046875 -1.421875 31.78125 -1.421875 
Q 19.53125 -1.421875 13.0625 8.265625 
Q 6.59375 17.96875 6.59375 36.375 
Q 6.59375 54.828125 13.0625 64.515625 
Q 19.53125 74.21875 31.78125 74.21875 
z
" id="DejaVuSans-48"/>
      </defs>
      <g transform="translate(54.193217 322.182437)scale(0.1 -0.1)">
       <use xlink:href="#DejaVuSans-8722"/>
       <use x="83.789062" xlink:href="#DejaVuSans-51"/>
       <use x="147.412109" xlink:href="#DejaVuSans-48"/>
       <use x="211.035156" xlink:href="#DejaVuSans-48"/>
      </g>
     </g>
    </g>
    <g id="xtick_2">
     <g id="line2d_2">
      <g>
       <use style="stroke:#000000;stroke-width:0.8;" x="110.54907" xlink:href="#md30b67c4ba" y="307.584"/>
      </g>
     </g>
     <g id="text_2">
      <!-- −200 -->
      <defs>
       <path d="M 19.1875 8.296875 
L 53.609375 8.296875 
L 53.609375 0 
L 7.328125 0 
L 7.328125 8.296875 
Q 12.9375 14.109375 22.625 23.890625 
Q 32.328125 33.6875 34.8125 36.53125 
Q 39.546875 41.84375 41.421875 45.53125 
Q 43.3125 49.21875 43.3125 52.78125 
Q 43.3125 58.59375 39.234375 62.25 
Q 35.15625 65.921875 28.609375 65.921875 
Q 23.96875 65.921875 18.8125 64.3125 
Q 13.671875 62.703125 7.8125 59.421875 
L 7.8125 69.390625 
Q 13.765625 71.78125 18.9375 73 
Q 24.125 74.21875 28.421875 74.21875 
Q 39.75 74.21875 46.484375 68.546875 
Q 53.21875 62.890625 53.21875 53.421875 
Q 53.21875 48.921875 51.53125 44.890625 
Q 49.859375 40.875 45.40625 35.40625 
Q 44.1875 33.984375 37.640625 27.21875 
Q 31.109375 20.453125 19.1875 8.296875 
z
" id="DejaVuSans-50"/>
      </defs>
      <g transform="translate(96.815476 322.182437)scale(0.1 -0.1)">
       <use xlink:href="#DejaVuSans-8722"/>
       <use x="83.789062" xlink:href="#DejaVuSans-50"/>
       <use x="147.412109" xlink:href="#DejaVuSans-48"/>
       <use x="211.035156" xlink:href="#DejaVuSans-48"/>
      </g>
     </g>
    </g>
    <g id="xtick_3">
     <g id="line2d_3">
      <g>
       <use style="stroke:#000000;stroke-width:0.8;" x="153.171329" xlink:href="#md30b67c4ba" y="307.584"/>
      </g>
     </g>
     <g id="text_3">
      <!-- −100 -->
      <defs>
       <path d="M 12.40625 8.296875 
L 28.515625 8.296875 
L 28.515625 63.921875 
L 10.984375 60.40625 
L 10.984375 69.390625 
L 28.421875 72.90625 
L 38.28125 72.90625 
L 38.28125 8.296875 
L 54.390625 8.296875 
L 54.390625 0 
L 12.40625 0 
z
" id="DejaVuSans-49"/>
      </defs>
      <g transform="translate(139.437735 322.182437)scale(0.1 -0.1)">
       <use xlink:href="#DejaVuSans-8722"/>
       <use x="83.789062" xlink:href="#DejaVuSans-49"/>
       <use x="147.412109" xlink:href="#DejaVuSans-48"/>
       <use x="211.035156" xlink:href="#DejaVuSans-48"/>
      </g>
     </g>
    </g>
    <g id="xtick_4">
     <g id="line2d_4">
      <g>
       <use style="stroke:#000000;stroke-width:0.8;" x="195.793588" xlink:href="#md30b67c4ba" y="307.584"/>
      </g>
     </g>
     <g id="text_4">
      <!-- 0 -->
      <g transform="translate(192.612338 322.182437)scale(0.1 -0.1)">
       <use xlink:href="#DejaVuSans-48"/>
      </g>
     </g>
    </g>
    <g id="xtick_5">
     <g id="line2d_5">
      <g>
       <use style="stroke:#000000;stroke-width:0.8;" x="238.415847" xlink:href="#md30b67c4ba" y="307.584"/>
      </g>
     </g>
     <g id="text_5">
      <!-- 100 -->
      <g transform="translate(228.872097 322.182437)scale(0.1 -0.1)">
       <use xlink:href="#DejaVuSans-49"/>
       <use x="63.623047" xlink:href="#DejaVuSans-48"/>
       <use x="127.246094" xlink:href="#DejaVuSans-48"/>
      </g>
     </g>
    </g>
    <g id="xtick_6">
     <g id="line2d_6">
      <g>
       <use style="stroke:#000000;stroke-width:0.8;" x="281.038106" xlink:href="#md30b67c4ba" y="307.584"/>
      </g>
     </g>
     <g id="text_6">
      <!-- 200 -->
      <g transform="translate(271.494356 322.182437)scale(0.1 -0.1)">
       <use xlink:href="#DejaVuSans-50"/>
       <use x="63.623047" xlink:href="#DejaVuSans-48"/>
       <use x="127.246094" xlink:href="#DejaVuSans-48"/>
      </g>
     </g>
    </g>
    <g id="xtick_7">
     <g id="line2d_7">
      <g>
       <use style="stroke:#000000;stroke-width:0.8;" x="323.660365" xlink:href="#md30b67c4ba" y="307.584"/>
      </g>
     </g>
     <g id="text_7">
      <!-- 300 -->
      <g transform="translate(314.116615 322.182437)scale(0.1 -0.1)">
       <use xlink:href="#DejaVuSans-51"/>
       <use x="63.623047" xlink:href="#DejaVuSans-48"/>
       <use x="127.246094" xlink:href="#DejaVuSans-48"/>
      </g>
     </g>
    </g>
    <g id="xtick_8">
     <g id="line2d_8">
      <g>
       <use style="stroke:#000000;stroke-width:0.8;" x="366.282624" xlink:href="#md30b67c4ba" y="307.584"/>
      </g>
     </g>
     <g id="text_8">
      <!-- 400 -->
      <defs>
       <path d="M 37.796875 64.3125 
L 12.890625 25.390625 
L 37.796875 25.390625 
z
M 35.203125 72.90625 
L 47.609375 72.90625 
L 47.609375 25.390625 
L 58.015625 25.390625 
L 58.015625 17.1875 
L 47.609375 17.1875 
L 47.609375 0 
L 37.796875 0 
L 37.796875 17.1875 
L 4.890625 17.1875 
L 4.890625 26.703125 
z
" id="DejaVuSans-52"/>
      </defs>
      <g transform="translate(356.738874 322.182437)scale(0.1 -0.1)">
       <use xlink:href="#DejaVuSans-52"/>
       <use x="63.623047" xlink:href="#DejaVuSans-48"/>
       <use x="127.246094" xlink:href="#DejaVuSans-48"/>
      </g>
     </g>
    </g>
    <g id="xtick_9">
     <g id="line2d_9">
      <g>
       <use style="stroke:#000000;stroke-width:0.8;" x="408.904883" xlink:href="#md30b67c4ba" y="307.584"/>
      </g>
     </g>
     <g id="text_9">
      <!-- 500 -->
      <defs>
       <path d="M 10.796875 72.90625 
L 49.515625 72.90625 
L 49.515625 64.59375 
L 19.828125 64.59375 
L 19.828125 46.734375 
Q 21.96875 47.46875 24.109375 47.828125 
Q 26.265625 48.1875 28.421875 48.1875 
Q 40.625 48.1875 47.75 41.5 
Q 54.890625 34.8125 54.890625 23.390625 
Q 54.890625 11.625 47.5625 5.09375 
Q 40.234375 -1.421875 26.90625 -1.421875 
Q 22.3125 -1.421875 17.546875 -0.640625 
Q 12.796875 0.140625 7.71875 1.703125 
L 7.71875 11.625 
Q 12.109375 9.234375 16.796875 8.0625 
Q 21.484375 6.890625 26.703125 6.890625 
Q 35.15625 6.890625 40.078125 11.328125 
Q 45.015625 15.765625 45.015625 23.390625 
Q 45.015625 31 40.078125 35.4375 
Q 35.15625 39.890625 26.703125 39.890625 
Q 22.75 39.890625 18.8125 39.015625 
Q 14.890625 38.140625 10.796875 36.28125 
z
" id="DejaVuSans-53"/>
      </defs>
      <g transform="translate(399.361133 322.182437)scale(0.1 -0.1)">
       <use xlink:href="#DejaVuSans-53"/>
       <use x="63.623047" xlink:href="#DejaVuSans-48"/>
       <use x="127.246094" xlink:href="#DejaVuSans-48"/>
      </g>
     </g>
    </g>
   </g>
   <g id="matplotlib.axis_2">
    <g id="ytick_1">
     <g id="line2d_10">
      <defs>
       <path d="M 0 0 
L -3.5 0 
" id="m0509d8ddb4" style="stroke:#000000;stroke-width:0.8;"/>
      </defs>
      <g>
       <use style="stroke:#000000;stroke-width:0.8;" x="57.6" xlink:href="#m0509d8ddb4" y="278.510979"/>
      </g>
     </g>
     <g id="text_10">
      <!-- 0 -->
      <g transform="translate(44.2375 282.310198)scale(0.1 -0.1)">
       <use xlink:href="#DejaVuSans-48"/>
      </g>
     </g>
    </g>
    <g id="ytick_2">
     <g id="line2d_11">
      <g>
       <use style="stroke:#000000;stroke-width:0.8;" x="57.6" xlink:href="#m0509d8ddb4" y="235.88872"/>
      </g>
     </g>
     <g id="text_11">
      <!-- 100 -->
      <g transform="translate(31.5125 239.687938)scale(0.1 -0.1)">
       <use xlink:href="#DejaVuSans-49"/>
       <use x="63.623047" xlink:href="#DejaVuSans-48"/>
       <use x="127.246094" xlink:href="#DejaVuSans-48"/>
      </g>
     </g>
    </g>
    <g id="ytick_3">
     <g id="line2d_12">
      <g>
       <use style="stroke:#000000;stroke-width:0.8;" x="57.6" xlink:href="#m0509d8ddb4" y="193.266461"/>
      </g>
     </g>
     <g id="text_12">
      <!-- 200 -->
      <g transform="translate(31.5125 197.065679)scale(0.1 -0.1)">
       <use xlink:href="#DejaVuSans-50"/>
       <use x="63.623047" xlink:href="#DejaVuSans-48"/>
       <use x="127.246094" xlink:href="#DejaVuSans-48"/>
      </g>
     </g>
    </g>
    <g id="ytick_4">
     <g id="line2d_13">
      <g>
       <use style="stroke:#000000;stroke-width:0.8;" x="57.6" xlink:href="#m0509d8ddb4" y="150.644202"/>
      </g>
     </g>
     <g id="text_13">
      <!-- 300 -->
      <g transform="translate(31.5125 154.44342)scale(0.1 -0.1)">
       <use xlink:href="#DejaVuSans-51"/>
       <use x="63.623047" xlink:href="#DejaVuSans-48"/>
       <use x="127.246094" xlink:href="#DejaVuSans-48"/>
      </g>
     </g>
    </g>
    <g id="ytick_5">
     <g id="line2d_14">
      <g>
       <use style="stroke:#000000;stroke-width:0.8;" x="57.6" xlink:href="#m0509d8ddb4" y="108.021942"/>
      </g>
     </g>
     <g id="text_14">
      <!-- 400 -->
      <g transform="translate(31.5125 111.821161)scale(0.1 -0.1)">
       <use xlink:href="#DejaVuSans-52"/>
       <use x="63.623047" xlink:href="#DejaVuSans-48"/>
       <use x="127.246094" xlink:href="#DejaVuSans-48"/>
      </g>
     </g>
    </g>
    <g id="ytick_6">
     <g id="line2d_15">
      <g>
       <use style="stroke:#000000;stroke-width:0.8;" x="57.6" xlink:href="#m0509d8ddb4" y="65.399683"/>
      </g>
     </g>
     <g id="text_15">
      <!-- 500 -->
      <g transform="translate(31.5125 69.198902)scale(0.1 -0.1)">
       <use xlink:href="#DejaVuSans-53"/>
       <use x="63.623047" xlink:href="#DejaVuSans-48"/>
       <use x="127.246094" xlink:href="#DejaVuSans-48"/>
      </g>
     </g>
    </g>
   </g>
   <g id="line2d_16">
    <path clip-path="url(#pbf391aea5d)" d="M 195.793588 278.510979 
L 195.795044 277.285371 
L 195.568683 275.899163 
L 194.909936 273.221105 
L 194.000799 270.497551 
L 192.855351 267.691352 
L 191.342008 264.662129 
L 188.337894 259.352388 
L 186.818636 257.073338 
L 184.079913 253.421535 
L 181.65977 250.597691 
L 179.650331 248.563731 
L 176.759207 245.900799 
L 173.248246 242.965468 
L 170.69721 241.141363 
L 167.974819 239.475332 
L 164.623687 237.709423 
L 159.3678 235.22654 
L 153.664511 232.59875 
L 151.653806 231.422035 
L 149.413921 229.884394 
L 147.082569 228.005903 
L 144.774062 225.839457 
L 143.329423 224.188952 
L 142.085151 222.441567 
L 140.819569 220.25918 
L 139.252476 217.117237 
L 138.277364 214.74923 
L 137.636837 212.567226 
L 137.224424 210.201222 
L 137.059476 207.660722 
L 137.143953 205.004247 
L 137.501426 202.254941 
L 138.12972 199.42478 
L 139.018821 196.560522 
L 139.943681 194.269192 
L 141.098574 192.027091 
L 142.518321 189.900027 
L 144.173045 187.915833 
L 146.01177 186.077066 
L 147.996859 184.388798 
L 150.056878 182.917137 
L 152.178102 181.688934 
L 154.327436 180.712671 
L 156.990232 179.809377 
L 159.597252 179.203928 
L 162.142044 178.871261 
L 165.056853 178.745142 
L 175.407903 178.482887 
L 179.046795 178.025423 
L 183.015038 177.264999 
L 187.090059 176.329313 
L 189.883824 175.445455 
L 192.973756 174.196836 
L 195.886644 172.762597 
L 198.631122 171.141331 
L 201.994428 168.867689 
L 209.887652 163.451935 
L 212.143772 161.58687 
L 214.308378 159.46816 
L 216.045222 157.433629 
L 217.656292 155.21595 
L 219.937563 151.648723 
L 223.202104 146.255814 
L 224.462052 143.657177 
L 225.656614 140.559434 
L 227.003912 136.550725 
L 228.863363 130.692466 
L 229.70884 128.021329 
L 230.062784 126.096551 
L 230.138221 124.535297 
L 229.980156 122.562143 
L 229.139922 115.721227 
L 228.43746 110.534866 
L 227.737825 107.291994 
L 226.646516 103.222165 
L 217.586285 71.737358 
L 217.441254 70.071211 
L 217.521866 68.389848 
L 217.825132 66.697957 
L 218.432401 64.663512 
L 219.290613 62.654256 
L 220.385664 60.712812 
L 221.277027 59.507582 
L 222.549332 58.175935 
L 224.257372 56.74826 
L 225.838078 55.692379 
L 227.568179 54.825485 
L 229.447297 54.156827 
L 231.048777 53.801442 
L 232.719126 53.606488 
L 234.445988 53.574265 
L 236.646064 53.778298 
L 238.868964 54.250595 
L 241.088604 54.965072 
L 243.278578 55.908644 
L 251.442744 59.917225 
L 285.922745 77.396443 
L 290.528677 79.823951 
L 292.949621 80.746254 
L 295.027072 81.284445 
L 297.138835 81.590345 
L 298.87484 81.636377 
L 300.650611 81.467721 
L 302.414661 81.091239 
L 304.601566 80.320713 
L 306.301171 79.476324 
L 307.935692 78.462937 
L 309.878372 76.98582 
L 312.501815 74.68848 
L 319.398224 68.437116 
L 321.250545 67.191907 
L 322.744157 66.434168 
L 323.960042 66.06621 
L 325.528584 65.89099 
L 327.057146 66.075928 
L 329.141417 66.718203 
L 330.888674 67.503603 
L 332.213715 68.400589 
L 333.301819 69.539839 
L 334.223695 71.066654 
L 334.891288 72.717883 
L 335.15772 73.876995 
L 335.256859 75.707408 
L 335.003256 77.626944 
L 334.423807 79.988899 
L 331.708428 88.921757 
L 330.315618 93.490821 
L 329.637583 96.439429 
L 329.280536 98.989561 
L 329.143506 101.551926 
L 329.197167 104.116848 
L 329.476599 107.097167 
L 330.035462 110.429802 
L 330.951244 114.37462 
L 332.469491 120.346765 
L 332.43437 121.42042 
L 332.104772 122.747123 
L 331.61159 123.775769 
L 330.758335 124.960113 
L 329.199597 126.586323 
L 323.444483 132.179472 
L 320.381051 135.4795 
L 318.968379 137.258596 
L 317.463941 139.542978 
L 315.885383 142.384306 
L 313.11613 148.049401 
L 309.68393 155.07811 
L 307.787495 158.40141 
L 304.816681 163.124042 
L 293.68754 180.042734 
L 283.812091 194.549476 
L 281.236001 198.795164 
L 278.86143 203.135773 
L 276.383244 208.086518 
L 272.683461 215.921811 
L 268.2048 225.376707 
L 266.679946 228.012211 
L 264.64469 231.047129 
L 262.061483 234.407127 
L 258.926872 238.133928 
L 256.022207 241.276953 
L 242.989258 254.769025 
L 227.713653 270.0825 
L 211.263618 287.16756 
L 207.554945 291.460751 
L 205.685537 293.585496 
L 204.447309 294.631105 
L 203.497139 295.152405 
L 202.544481 295.43823 
L 201.614689 295.477029 
L 200.758668 295.314425 
L 199.966177 294.975872 
L 199.24106 294.447416 
L 198.460173 293.549233 
L 197.976916 292.649481 
L 197.548802 291.334908 
L 197.203098 289.555919 
L 196.27296 283.008744 
L 195.753594 279.73083 
L 195.076454 276.766983 
L 194.512115 275.0063 
L 194.512115 275.0063 
" style="fill:none;stroke:#008000;stroke-linecap:square;stroke-width:1.5;"/>
   </g>
   <g id="line2d_17">
    <path clip-path="url(#pbf391aea5d)" d="M 195.793588 278.510979 
L 195.755932 277.466523 
L 195.391125 275.50336 
L 194.874283 273.604517 
L 193.931539 270.822024 
L 192.821085 268.016848 
L 190.975188 264.324917 
L 187.695436 258.672207 
L 185.899796 256.075166 
L 183.680473 253.145628 
L 181.927366 251.066185 
L 180.00997 249.009634 
L 176.43105 245.645978 
L 173.319312 243.033744 
L 171.65897 241.807854 
L 168.608849 239.837725 
L 165.279054 238.04509 
L 161.360411 236.146925 
L 156.481011 233.861917 
L 153.659616 232.385448 
L 151.012324 230.684778 
L 148.917933 229.00865 
L 146.136882 226.428368 
L 144.411546 224.498554 
L 143.273613 222.912526 
L 141.897369 220.563859 
L 140.563983 217.809457 
L 139.450448 215.062981 
L 138.799305 212.851989 
L 138.397519 210.545096 
L 138.222496 208.064341 
L 138.266196 205.950795 
L 138.546324 203.275983 
L 139.028912 200.862061 
L 139.725032 198.564816 
L 140.547312 196.621059 
L 141.427497 194.962364 
L 142.494813 193.389493 
L 143.567497 192.147126 
L 145.306915 190.441247 
L 147.835675 188.340589 
L 149.877508 186.954276 
L 151.996067 185.769773 
L 154.488935 184.718193 
L 157.141974 183.917533 
L 159.735765 183.427327 
L 162.227188 183.196105 
L 166.424335 183.109351 
L 171.547764 183.040698 
L 175.264732 182.74946 
L 178.781995 182.252789 
L 184.337446 181.110132 
L 187.504228 180.240618 
L 190.601126 179.073233 
L 193.555873 177.721677 
L 196.6826 175.975588 
L 200.482476 173.518391 
L 205.614313 170.101883 
L 208.617766 167.915422 
L 210.825655 166.072369 
L 212.841514 164.069899 
L 214.543958 162.053045 
L 216.377929 159.496315 
L 219.141664 155.113873 
L 221.76081 150.62717 
L 222.951058 148.024086 
L 224.254779 144.502106 
L 225.561624 140.342274 
L 226.71157 136.671812 
L 227.731372 133.672765 
L 228.118309 131.882166 
L 228.237908 130.085093 
L 228.08053 128.12051 
L 227.319486 121.832841 
L 226.737563 117.14645 
L 226.201914 114.357851 
L 225.283592 110.661187 
L 223.148801 103.375844 
L 221.124493 96.585175 
L 215.593968 76.919352 
L 215.494327 75.271538 
L 215.627072 73.588388 
L 215.991875 71.810099 
L 216.694683 69.601128 
L 217.596033 67.5746 
L 218.551897 65.914761 
L 219.684445 64.427563 
L 220.967182 63.138184 
L 222.599143 61.818617 
L 224.202722 60.800856 
L 225.888448 60.009535 
L 227.81727 59.376733 
L 229.784638 59.024744 
L 231.823035 58.922263 
L 233.609416 59.028049 
L 236.15464 59.500876 
L 238.247725 60.118846 
L 240.36814 60.981897 
L 247.509901 64.430171 
L 281.318423 81.385137 
L 287.57006 84.677113 
L 290.069035 85.599933 
L 292.139353 86.116215 
L 294.313678 86.427042 
L 296.104523 86.489312 
L 297.891473 86.330128 
L 299.70362 85.935762 
L 301.41026 85.373774 
L 303.503695 84.376144 
L 305.119059 83.368467 
L 306.998153 81.92909 
L 309.56252 79.666541 
L 316.216798 73.556972 
L 318.091984 72.257237 
L 319.568362 71.496034 
L 320.741837 71.137637 
L 321.873643 70.967384 
L 322.95558 71.012103 
L 324.221883 71.329305 
L 325.88904 71.93224 
L 327.328814 72.654625 
L 328.254633 73.330849 
L 328.963343 74.112734 
L 329.738538 75.436333 
L 330.200336 76.792839 
L 330.432218 78.426263 
L 330.426671 79.68838 
L 330.200729 81.271072 
L 329.623113 83.665759 
L 326.674386 93.39507 
L 325.5308 97.241199 
L 324.92079 100.017623 
L 324.577882 102.854055 
L 324.500213 105.68695 
L 324.645046 108.235159 
L 325.074964 111.383531 
L 325.724768 114.501284 
L 326.689989 117.928034 
L 327.538241 121.113487 
L 327.543984 121.911127 
L 327.375816 123.043874 
L 326.998527 124.129285 
L 326.292172 125.299682 
L 325.340959 126.415873 
L 323.401435 128.302004 
L 320.117352 131.531709 
L 316.472469 135.324177 
L 314.754819 137.346415 
L 313.448178 139.212591 
L 311.814787 141.988102 
L 309.832683 145.888497 
L 304.246512 157.085671 
L 301.974686 160.723401 
L 297.400619 167.741223 
L 285.190725 185.778765 
L 281.059543 191.83659 
L 278.224553 196.264455 
L 275.858386 200.436189 
L 272.827417 206.285548 
L 268.68335 214.8458 
L 264.288532 223.740459 
L 262.798159 226.261526 
L 260.826232 229.191887 
L 258.136723 232.669203 
L 254.718235 236.715828 
L 251.550742 240.12503 
L 233.68568 258.104973 
L 227.910284 263.76612 
L 216.207517 275.553362 
L 210.225585 281.660487 
L 207.261019 284.827826 
L 202.8803 289.579282 
L 202.00533 290.068622 
L 201.164902 290.270391 
L 200.369315 290.266784 
L 199.652438 290.04248 
L 198.893153 289.506286 
L 198.233597 288.769694 
L 197.707479 287.865778 
L 197.245471 286.572994 
L 196.838231 284.532151 
L 194.936876 272.324524 
L 194.454627 270.561707 
L 194.454627 270.561707 
" style="fill:none;stroke:#0000ff;stroke-linecap:square;stroke-width:1.5;"/>
   </g>
   <g id="line2d_18">
    <path clip-path="url(#pbf391aea5d)" d="M 195.793588 278.510979 
L 195.755198 277.466582 
L 195.386327 275.504204 
L 194.864419 273.606736 
L 193.914328 270.826863 
L 192.791995 268.026519 
L 190.933687 264.340883 
L 187.638532 258.697161 
L 185.837149 256.104131 
L 183.335962 252.840722 
L 180.926027 250.07936 
L 178.505679 247.680534 
L 175.592189 245.053275 
L 172.847935 242.801906 
L 169.389362 240.451777 
L 166.610716 238.87093 
L 163.062183 237.098093 
L 158.464895 234.961786 
L 155.108974 233.359722 
L 152.735142 232.034461 
L 150.550299 230.569701 
L 147.977809 228.451874 
L 145.720723 226.295653 
L 144.261202 224.643199 
L 143.11653 223.062057 
L 141.732946 220.717761 
L 140.389104 217.968433 
L 139.264871 215.22632 
L 138.603881 213.01826 
L 138.1939 210.712809 
L 138.010658 208.232638 
L 138.08308 205.610257 
L 138.404809 202.947297 
L 138.971204 200.352064 
L 139.644324 198.259694 
L 140.492299 196.358994 
L 141.516492 194.542224 
L 142.691051 192.969087 
L 144.149641 191.422198 
L 147.009567 188.905004 
L 149.086373 187.421944 
L 151.215373 186.158638 
L 153.334204 185.185986 
L 155.286306 184.495546 
L 157.883198 183.819185 
L 160.405404 183.430667 
L 162.932918 183.258916 
L 168.299961 183.200234 
L 172.106407 183.068159 
L 175.391435 182.764789 
L 178.878587 182.231995 
L 184.450751 181.029877 
L 186.818112 180.375218 
L 189.175533 179.527447 
L 192.16082 178.245717 
L 194.981235 176.779137 
L 197.778151 175.059491 
L 206.978069 168.867092 
L 209.558325 166.843212 
L 211.757293 164.806915 
L 213.375901 163.017133 
L 215.010754 160.892035 
L 216.801517 158.213217 
L 220.704096 151.811717 
L 222.013625 149.230417 
L 223.080649 146.597648 
L 224.559149 142.282629 
L 227.694488 131.769196 
L 227.808102 130.400819 
L 227.741511 128.793618 
L 226.820844 121.270704 
L 226.201816 116.567296 
L 225.530206 113.339549 
L 224.293832 108.726463 
L 216.899416 83.630354 
L 215.210129 77.473262 
L 215.021154 75.82715 
L 215.057387 74.1702 
L 215.322995 72.449298 
L 215.940666 70.225024 
L 216.780806 68.129174 
L 217.839469 66.155146 
L 218.947085 64.604095 
L 220.200735 63.283126 
L 221.845028 61.910933 
L 223.371576 60.891067 
L 225.059749 60.047481 
L 226.914629 59.38923 
L 228.481876 59.028083 
L 230.409153 58.827252 
L 232.653226 58.868368 
L 235.129505 59.268629 
L 236.878275 59.721052 
L 239.088089 60.533652 
L 242.100769 61.936488 
L 250.943579 66.313436 
L 282.241337 82.156699 
L 287.032013 84.666922 
L 289.108488 85.464864 
L 291.170591 86.030038 
L 293.33533 86.38738 
L 295.110716 86.501787 
L 296.906782 86.396685 
L 298.715979 86.061942 
L 300.447357 85.544133 
L 302.155276 84.813701 
L 303.77773 83.907997 
L 305.705841 82.545845 
L 307.9469 80.673743 
L 311.462315 77.393816 
L 314.630812 74.453368 
L 316.628217 72.916734 
L 318.181932 71.95264 
L 319.344828 71.432623 
L 320.5366 71.119703 
L 321.848896 71.004583 
L 323.08994 71.206966 
L 324.788477 71.746952 
L 326.531021 72.550192 
L 327.554156 73.231399 
L 328.321048 74.010173 
L 328.959969 74.989389 
L 329.468571 76.105821 
L 329.751317 77.186263 
L 329.926549 78.755641 
L 329.87227 80.045791 
L 329.538139 81.995342 
L 328.791806 84.792065 
L 326.54384 92.247895 
L 325.014299 97.304122 
L 324.401783 100.079975 
L 324.060569 102.916642 
L 323.985066 105.749596 
L 324.131875 108.297702 
L 324.563005 111.445982 
L 325.214616 114.563419 
L 326.183053 117.989428 
L 326.99703 120.869054 
L 327.041732 121.971795 
L 326.874794 123.104869 
L 326.500386 124.191233 
L 325.960206 125.138236 
L 325.061491 126.259845 
L 322.91521 128.372979 
L 319.637113 131.608678 
L 315.700038 135.734232 
L 314.029441 137.786341 
L 312.494267 140.09984 
L 311.118592 142.54013 
L 308.604734 147.597488 
L 305.078808 154.951614 
L 303.558584 157.675893 
L 301.298648 161.300628 
L 295.397924 170.365129 
L 285.250353 185.471621 
L 280.792213 192.05198 
L 277.65393 197.031561 
L 275.338251 201.213506 
L 272.357302 207.064613 
L 264.789118 222.853337 
L 262.981127 226.046991 
L 261.046796 229.020975 
L 258.614237 232.247647 
L 255.01819 236.579265 
L 251.900032 240.003137 
L 237.654745 254.572685 
L 222.364913 269.745391 
L 207.96714 284.622144 
L 202.804659 290.199829 
L 201.935908 290.638234 
L 201.105312 290.802533 
L 200.302217 290.754162 
L 199.623766 290.487728 
L 198.996026 290.025385 
L 198.335835 289.289325 
L 197.808829 288.385908 
L 197.345953 287.093455 
L 196.93769 285.052881 
L 195.032994 272.846208 
L 194.547401 271.084322 
L 194.547401 271.084322 
" style="fill:none;stroke:#ff0000;stroke-linecap:square;stroke-width:1.5;"/>
   </g>
   <g id="patch_3">
    <path d="M 57.6 307.584 
L 57.6 41.472 
" style="fill:none;stroke:#000000;stroke-linecap:square;stroke-linejoin:miter;stroke-width:0.8;"/>
   </g>
   <g id="patch_4">
    <path d="M 414.72 307.584 
L 414.72 41.472 
" style="fill:none;stroke:#000000;stroke-linecap:square;stroke-linejoin:miter;stroke-width:0.8;"/>
   </g>
   <g id="patch_5">
    <path d="M 57.6 307.584 
L 414.72 307.584 
" style="fill:none;stroke:#000000;stroke-linecap:square;stroke-linejoin:miter;stroke-width:0.8;"/>
   </g>
   <g id="patch_6">
    <path d="M 57.6 41.472 
L 414.72 41.472 
" style="fill:none;stroke:#000000;stroke-linecap:square;stroke-linejoin:miter;stroke-width:0.8;"/>
   </g>
  </g>
 </g>
 <defs>
  <clipPath id="pbf391aea5d">
   <rect height="266.112" width="357.12" x="57.6" y="41.472"/>
  </clipPath>
 </defs>
</svg>
