<?xml version="1.0" encoding="utf-8" standalone="no"?>
<!DOCTYPE svg PUBLIC "-//W3C//DTD SVG 1.1//EN"
  "http://www.w3.org/Graphics/SVG/1.1/DTD/svg11.dtd">
<!-- Created with matplotlib (https://matplotlib.org/) -->
<svg height="345.6pt" version="1.1" viewBox="0 0 460.8 345.6" width="460.8pt" xmlns="http://www.w3.org/2000/svg" xmlns:xlink="http://www.w3.org/1999/xlink">
 <defs>
  <style type="text/css">
*{stroke-linecap:butt;stroke-linejoin:round;}
  </style>
 </defs>
 <g id="figure_1">
  <g id="patch_1">
   <path d="M 0 345.6 
L 460.8 345.6 
L 460.8 0 
L 0 0 
z
" style="fill:#ffffff;"/>
  </g>
  <g id="axes_1">
   <g id="patch_2">
    <path d="M 57.6 307.584 
L 414.72 307.584 
L 414.72 41.472 
L 57.6 41.472 
z
" style="fill:#ffffff;"/>
   </g>
   <g id="matplotlib.axis_1">
    <g id="xtick_1">
     <g id="line2d_1">
      <defs>
       <path d="M 0 0 
L 0 3.5 
" id="m5bd0939ecc" style="stroke:#000000;stroke-width:0.8;"/>
      </defs>
      <g>
       <use style="stroke:#000000;stroke-width:0.8;" x="96.212881" xlink:href="#m5bd0939ecc" y="307.584"/>
      </g>
     </g>
     <g id="text_1">
      <!-- −50 -->
      <defs>
       <path d="M 10.59375 35.5 
L 73.1875 35.5 
L 73.1875 27.203125 
L 10.59375 27.203125 
z
" id="DejaVuSans-8722"/>
       <path d="M 10.796875 72.90625 
L 49.515625 72.90625 
L 49.515625 64.59375 
L 19.828125 64.59375 
L 19.828125 46.734375 
Q 21.96875 47.46875 24.109375 47.828125 
Q 26.265625 48.1875 28.421875 48.1875 
Q 40.625 48.1875 47.75 41.5 
Q 54.890625 34.8125 54.890625 23.390625 
Q 54.890625 11.625 47.5625 5.09375 
Q 40.234375 -1.421875 26.90625 -1.421875 
Q 22.3125 -1.421875 17.546875 -0.640625 
Q 12.796875 0.140625 7.71875 1.703125 
L 7.71875 11.625 
Q 12.109375 9.234375 16.796875 8.0625 
Q 21.484375 6.890625 26.703125 6.890625 
Q 35.15625 6.890625 40.078125 11.328125 
Q 45.015625 15.765625 45.015625 23.390625 
Q 45.015625 31 40.078125 35.4375 
Q 35.15625 39.890625 26.703125 39.890625 
Q 22.75 39.890625 18.8125 39.015625 
Q 14.890625 38.140625 10.796875 36.28125 
z
" id="DejaVuSans-53"/>
       <path d="M 31.78125 66.40625 
Q 24.171875 66.40625 20.328125 58.90625 
Q 16.5 51.421875 16.5 36.375 
Q 16.5 21.390625 20.328125 13.890625 
Q 24.171875 6.390625 31.78125 6.390625 
Q 39.453125 6.390625 43.28125 13.890625 
Q 47.125 21.390625 47.125 36.375 
Q 47.125 51.421875 43.28125 58.90625 
Q 39.453125 66.40625 31.78125 66.40625 
z
M 31.78125 74.21875 
Q 44.046875 74.21875 50.515625 64.515625 
Q 56.984375 54.828125 56.984375 36.375 
Q 56.984375 17.96875 50.515625 8.265625 
Q 44.046875 -1.421875 31.78125 -1.421875 
Q 19.53125 -1.421875 13.0625 8.265625 
Q 6.59375 17.96875 6.59375 36.375 
Q 6.59375 54.828125 13.0625 64.515625 
Q 19.53125 74.21875 31.78125 74.21875 
z
" id="DejaVuSans-48"/>
      </defs>
      <g transform="translate(85.660538 322.182437)scale(0.1 -0.1)">
       <use xlink:href="#DejaVuSans-8722"/>
       <use x="83.789062" xlink:href="#DejaVuSans-53"/>
       <use x="147.412109" xlink:href="#DejaVuSans-48"/>
      </g>
     </g>
    </g>
    <g id="xtick_2">
     <g id="line2d_2">
      <g>
       <use style="stroke:#000000;stroke-width:0.8;" x="156.66776" xlink:href="#m5bd0939ecc" y="307.584"/>
      </g>
     </g>
     <g id="text_2">
      <!-- −40 -->
      <defs>
       <path d="M 37.796875 64.3125 
L 12.890625 25.390625 
L 37.796875 25.390625 
z
M 35.203125 72.90625 
L 47.609375 72.90625 
L 47.609375 25.390625 
L 58.015625 25.390625 
L 58.015625 17.1875 
L 47.609375 17.1875 
L 47.609375 0 
L 37.796875 0 
L 37.796875 17.1875 
L 4.890625 17.1875 
L 4.890625 26.703125 
z
" id="DejaVuSans-52"/>
      </defs>
      <g transform="translate(146.115416 322.182437)scale(0.1 -0.1)">
       <use xlink:href="#DejaVuSans-8722"/>
       <use x="83.789062" xlink:href="#DejaVuSans-52"/>
       <use x="147.412109" xlink:href="#DejaVuSans-48"/>
      </g>
     </g>
    </g>
    <g id="xtick_3">
     <g id="line2d_3">
      <g>
       <use style="stroke:#000000;stroke-width:0.8;" x="217.122638" xlink:href="#m5bd0939ecc" y="307.584"/>
      </g>
     </g>
     <g id="text_3">
      <!-- −30 -->
      <defs>
       <path d="M 40.578125 39.3125 
Q 47.65625 37.796875 51.625 33 
Q 55.609375 28.21875 55.609375 21.1875 
Q 55.609375 10.40625 48.1875 4.484375 
Q 40.765625 -1.421875 27.09375 -1.421875 
Q 22.515625 -1.421875 17.65625 -0.515625 
Q 12.796875 0.390625 7.625 2.203125 
L 7.625 11.71875 
Q 11.71875 9.328125 16.59375 8.109375 
Q 21.484375 6.890625 26.8125 6.890625 
Q 36.078125 6.890625 40.9375 10.546875 
Q 45.796875 14.203125 45.796875 21.1875 
Q 45.796875 27.640625 41.28125 31.265625 
Q 36.765625 34.90625 28.71875 34.90625 
L 20.21875 34.90625 
L 20.21875 43.015625 
L 29.109375 43.015625 
Q 36.375 43.015625 40.234375 45.921875 
Q 44.09375 48.828125 44.09375 54.296875 
Q 44.09375 59.90625 40.109375 62.90625 
Q 36.140625 65.921875 28.71875 65.921875 
Q 24.65625 65.921875 20.015625 65.03125 
Q 15.375 64.15625 9.8125 62.3125 
L 9.8125 71.09375 
Q 15.4375 72.65625 20.34375 73.4375 
Q 25.25 74.21875 29.59375 74.21875 
Q 40.828125 74.21875 47.359375 69.109375 
Q 53.90625 64.015625 53.90625 55.328125 
Q 53.90625 49.265625 50.4375 45.09375 
Q 46.96875 40.921875 40.578125 39.3125 
z
" id="DejaVuSans-51"/>
      </defs>
      <g transform="translate(206.570294 322.182437)scale(0.1 -0.1)">
       <use xlink:href="#DejaVuSans-8722"/>
       <use x="83.789062" xlink:href="#DejaVuSans-51"/>
       <use x="147.412109" xlink:href="#DejaVuSans-48"/>
      </g>
     </g>
    </g>
    <g id="xtick_4">
     <g id="line2d_4">
      <g>
       <use style="stroke:#000000;stroke-width:0.8;" x="277.577516" xlink:href="#m5bd0939ecc" y="307.584"/>
      </g>
     </g>
     <g id="text_4">
      <!-- −20 -->
      <defs>
       <path d="M 19.1875 8.296875 
L 53.609375 8.296875 
L 53.609375 0 
L 7.328125 0 
L 7.328125 8.296875 
Q 12.9375 14.109375 22.625 23.890625 
Q 32.328125 33.6875 34.8125 36.53125 
Q 39.546875 41.84375 41.421875 45.53125 
Q 43.3125 49.21875 43.3125 52.78125 
Q 43.3125 58.59375 39.234375 62.25 
Q 35.15625 65.921875 28.609375 65.921875 
Q 23.96875 65.921875 18.8125 64.3125 
Q 13.671875 62.703125 7.8125 59.421875 
L 7.8125 69.390625 
Q 13.765625 71.78125 18.9375 73 
Q 24.125 74.21875 28.421875 74.21875 
Q 39.75 74.21875 46.484375 68.546875 
Q 53.21875 62.890625 53.21875 53.421875 
Q 53.21875 48.921875 51.53125 44.890625 
Q 49.859375 40.875 45.40625 35.40625 
Q 44.1875 33.984375 37.640625 27.21875 
Q 31.109375 20.453125 19.1875 8.296875 
z
" id="DejaVuSans-50"/>
      </defs>
      <g transform="translate(267.025172 322.182437)scale(0.1 -0.1)">
       <use xlink:href="#DejaVuSans-8722"/>
       <use x="83.789062" xlink:href="#DejaVuSans-50"/>
       <use x="147.412109" xlink:href="#DejaVuSans-48"/>
      </g>
     </g>
    </g>
    <g id="xtick_5">
     <g id="line2d_5">
      <g>
       <use style="stroke:#000000;stroke-width:0.8;" x="338.032394" xlink:href="#m5bd0939ecc" y="307.584"/>
      </g>
     </g>
     <g id="text_5">
      <!-- −10 -->
      <defs>
       <path d="M 12.40625 8.296875 
L 28.515625 8.296875 
L 28.515625 63.921875 
L 10.984375 60.40625 
L 10.984375 69.390625 
L 28.421875 72.90625 
L 38.28125 72.90625 
L 38.28125 8.296875 
L 54.390625 8.296875 
L 54.390625 0 
L 12.40625 0 
z
" id="DejaVuSans-49"/>
      </defs>
      <g transform="translate(327.480051 322.182437)scale(0.1 -0.1)">
       <use xlink:href="#DejaVuSans-8722"/>
       <use x="83.789062" xlink:href="#DejaVuSans-49"/>
       <use x="147.412109" xlink:href="#DejaVuSans-48"/>
      </g>
     </g>
    </g>
    <g id="xtick_6">
     <g id="line2d_6">
      <g>
       <use style="stroke:#000000;stroke-width:0.8;" x="398.487273" xlink:href="#m5bd0939ecc" y="307.584"/>
      </g>
     </g>
     <g id="text_6">
      <!-- 0 -->
      <g transform="translate(395.306023 322.182437)scale(0.1 -0.1)">
       <use xlink:href="#DejaVuSans-48"/>
      </g>
     </g>
    </g>
   </g>
   <g id="matplotlib.axis_2">
    <g id="ytick_1">
     <g id="line2d_7">
      <defs>
       <path d="M 0 0 
L -3.5 0 
" id="m712aaf1a87" style="stroke:#000000;stroke-width:0.8;"/>
      </defs>
      <g>
       <use style="stroke:#000000;stroke-width:0.8;" x="57.6" xlink:href="#m712aaf1a87" y="281.616786"/>
      </g>
     </g>
     <g id="text_7">
      <!-- −15 -->
      <g transform="translate(29.495313 285.416005)scale(0.1 -0.1)">
       <use xlink:href="#DejaVuSans-8722"/>
       <use x="83.789062" xlink:href="#DejaVuSans-49"/>
       <use x="147.412109" xlink:href="#DejaVuSans-53"/>
      </g>
     </g>
    </g>
    <g id="ytick_2">
     <g id="line2d_8">
      <g>
       <use style="stroke:#000000;stroke-width:0.8;" x="57.6" xlink:href="#m712aaf1a87" y="251.389347"/>
      </g>
     </g>
     <g id="text_8">
      <!-- −10 -->
      <g transform="translate(29.495313 255.188566)scale(0.1 -0.1)">
       <use xlink:href="#DejaVuSans-8722"/>
       <use x="83.789062" xlink:href="#DejaVuSans-49"/>
       <use x="147.412109" xlink:href="#DejaVuSans-48"/>
      </g>
     </g>
    </g>
    <g id="ytick_3">
     <g id="line2d_9">
      <g>
       <use style="stroke:#000000;stroke-width:0.8;" x="57.6" xlink:href="#m712aaf1a87" y="221.161908"/>
      </g>
     </g>
     <g id="text_9">
      <!-- −5 -->
      <g transform="translate(35.857813 224.961126)scale(0.1 -0.1)">
       <use xlink:href="#DejaVuSans-8722"/>
       <use x="83.789062" xlink:href="#DejaVuSans-53"/>
      </g>
     </g>
    </g>
    <g id="ytick_4">
     <g id="line2d_10">
      <g>
       <use style="stroke:#000000;stroke-width:0.8;" x="57.6" xlink:href="#m712aaf1a87" y="190.934469"/>
      </g>
     </g>
     <g id="text_10">
      <!-- 0 -->
      <g transform="translate(44.2375 194.733687)scale(0.1 -0.1)">
       <use xlink:href="#DejaVuSans-48"/>
      </g>
     </g>
    </g>
    <g id="ytick_5">
     <g id="line2d_11">
      <g>
       <use style="stroke:#000000;stroke-width:0.8;" x="57.6" xlink:href="#m712aaf1a87" y="160.707029"/>
      </g>
     </g>
     <g id="text_11">
      <!-- 5 -->
      <g transform="translate(44.2375 164.506248)scale(0.1 -0.1)">
       <use xlink:href="#DejaVuSans-53"/>
      </g>
     </g>
    </g>
    <g id="ytick_6">
     <g id="line2d_12">
      <g>
       <use style="stroke:#000000;stroke-width:0.8;" x="57.6" xlink:href="#m712aaf1a87" y="130.47959"/>
      </g>
     </g>
     <g id="text_12">
      <!-- 10 -->
      <g transform="translate(37.875 134.278809)scale(0.1 -0.1)">
       <use xlink:href="#DejaVuSans-49"/>
       <use x="63.623047" xlink:href="#DejaVuSans-48"/>
      </g>
     </g>
    </g>
    <g id="ytick_7">
     <g id="line2d_13">
      <g>
       <use style="stroke:#000000;stroke-width:0.8;" x="57.6" xlink:href="#m712aaf1a87" y="100.252151"/>
      </g>
     </g>
     <g id="text_13">
      <!-- 15 -->
      <g transform="translate(37.875 104.05137)scale(0.1 -0.1)">
       <use xlink:href="#DejaVuSans-49"/>
       <use x="63.623047" xlink:href="#DejaVuSans-53"/>
      </g>
     </g>
    </g>
    <g id="ytick_8">
     <g id="line2d_14">
      <g>
       <use style="stroke:#000000;stroke-width:0.8;" x="57.6" xlink:href="#m712aaf1a87" y="70.024712"/>
      </g>
     </g>
     <g id="text_14">
      <!-- 20 -->
      <g transform="translate(37.875 73.823931)scale(0.1 -0.1)">
       <use xlink:href="#DejaVuSans-50"/>
       <use x="63.623047" xlink:href="#DejaVuSans-48"/>
      </g>
     </g>
    </g>
   </g>
   <g id="line2d_15">
    <path clip-path="url(#p530d30bc76)" d="M 398.487273 190.934469 
L 398.459483 190.381048 
L 398.42675 189.811596 
L 398.381273 189.220771 
L 398.314179 188.592991 
L 398.228907 187.904835 
L 398.124543 187.13829 
L 397.986967 186.297945 
L 397.828014 185.377574 
L 397.631634 184.393777 
L 397.389378 183.369278 
L 397.081308 182.315761 
L 396.71317 181.23666 
L 396.300915 180.121267 
L 395.847666 178.969052 
L 395.328554 177.797503 
L 394.738502 176.614274 
L 394.10523 175.423627 
L 393.412126 174.25929 
L 392.630651 173.097765 
L 391.815273 171.939032 
L 390.974158 170.784223 
L 390.069082 169.636046 
L 389.029433 168.528277 
L 387.837735 167.473726 
L 386.581525 166.453278 
L 385.260743 165.447393 
L 383.884234 164.440777 
L 382.387256 163.483275 
L 380.779344 162.595156 
L 379.047934 161.768412 
L 377.22022 161.020319 
L 375.291008 160.360798 
L 373.234484 159.77924 
L 371.075006 159.293631 
L 368.797429 158.878566 
L 366.450244 158.524953 
L 364.019788 158.278593 
L 361.476246 158.160126 
L 358.834954 158.121531 
L 356.113898 158.14364 
L 353.306767 158.224166 
L 350.42316 158.35363 
L 347.435474 158.569079 
L 344.361978 158.828521 
L 341.173769 159.111813 
L 337.893227 159.430059 
L 334.530787 159.781616 
L 331.063519 160.17285 
L 327.516812 160.550572 
L 323.861046 160.919583 
L 320.111936 161.300624 
L 316.267731 161.700418 
L 312.329157 162.114268 
L 308.328434 162.536618 
L 304.215628 162.943866 
L 300.000351 163.347082 
L 295.685082 163.762238 
L 291.281307 164.173923 
L 286.816049 164.580682 
L 282.267182 164.993377 
L 277.648067 165.403636 
L 272.90375 165.773577 
L 268.119471 166.146657 
L 263.284834 166.535115 
L 258.448686 166.927722 
L 253.579952 167.302838 
L 248.622834 167.665072 
L 243.608766 168.045774 
L 238.515443 168.467362 
L 233.399812 168.900165 
L 228.28944 169.354852 
L 223.182514 169.818196 
L 218.106783 170.26821 
L 213.046528 170.705988 
L 207.958525 171.153693 
L 202.88902 171.596035 
L 197.806277 172.050626 
L 192.781932 172.488107 
L 187.741325 172.916751 
L 182.685182 173.338345 
L 177.624745 173.746318 
L 172.544722 174.157817 
L 167.460406 174.569424 
L 162.41593 174.981303 
L 157.383122 175.38392 
L 152.365126 175.791694 
L 147.367381 176.206729 
L 142.368972 176.648545 
L 137.374008 177.089062 
L 132.393977 177.49122 
L 127.414672 177.870725 
L 122.442984 178.259384 
L 117.472746 178.67269 
L 112.49072 179.09062 
L 107.558267 179.505516 
L 102.662571 179.929897 
L 97.811732 180.411118 
L 92.993538 180.902792 
L 88.180181 181.410987 
L 83.379762 181.904009 
L 78.584843 182.369179 
L 73.832727 182.848755 
" style="fill:none;stroke:#008000;stroke-linecap:square;stroke-width:1.5;"/>
   </g>
   <g id="line2d_16">
    <path clip-path="url(#p530d30bc76)" d="M 398.487273 190.934469 
L 398.436286 190.382645 
L 398.38981 189.825856 
L 398.34914 189.254066 
L 398.256506 188.631837 
L 398.162807 187.971249 
L 398.04087 187.237299 
L 397.899412 186.42963 
L 397.733821 185.564457 
L 397.551955 184.655932 
L 397.324324 183.722943 
L 397.016614 182.78779 
L 396.68541 181.905092 
L 396.292385 180.939057 
L 395.884069 179.969707 
L 395.416037 178.928204 
L 394.907799 177.891344 
L 394.376692 176.890907 
L 393.793579 175.912433 
L 393.12519 174.904518 
L 392.441758 173.879041 
L 391.726906 172.871179 
L 390.967546 171.874792 
L 390.159717 170.934458 
L 389.152655 169.985884 
L 388.119989 169.086928 
L 387.012524 168.24226 
L 385.889837 167.332352 
L 384.126952 166.125272 
L 382.738881 165.264555 
L 381.316963 164.551634 
L 379.837998 163.861579 
L 378.239285 163.277973 
L 376.552282 162.755358 
L 374.774915 162.30633 
L 372.851187 161.909732 
L 370.517998 161.515386 
L 365.937459 160.93052 
L 362.897186 160.761418 
L 360.538674 160.693557 
L 358.089888 160.665953 
L 355.511902 160.698262 
L 352.079745 160.775077 
L 348.419577 160.982104 
L 345.140148 161.219034 
L 341.705258 161.455947 
L 338.342354 161.709748 
L 334.796716 162.016995 
L 331.145323 162.339369 
L 327.026965 162.731866 
L 323.859434 162.974741 
L 320.646076 163.241518 
L 317.329289 163.499265 
L 313.939754 163.806963 
L 310.474313 164.092775 
L 306.96109 164.344714 
L 303.380983 164.629147 
L 299.537427 164.912228 
L 294.420244 165.282643 
L 288.755706 165.721875 
L 284.091934 166.123023 
L 279.683461 166.45506 
L 275.327079 166.710791 
L 270.821909 166.964986 
L 265.939114 167.259644 
L 261.237239 167.516321 
L 256.699063 167.779731 
L 252.171506 168.080749 
L 247.794908 168.301713 
L 243.320386 168.552222 
L 238.932144 168.835876 
L 234.388734 169.107707 
L 229.861295 169.404272 
L 225.338237 169.722667 
L 220.826843 169.995604 
L 216.011908 170.332533 
L 209.282169 170.73112 
L 203.1009 171.168547 
L 196.854203 171.551768 
L 191.495072 171.904233 
L 184.991816 172.385599 
L 179.799926 172.700378 
L 175.132328 172.941656 
L 169.608155 173.285521 
L 164.565231 173.617114 
L 159.976846 173.898096 
L 155.250532 174.187034 
L 150.735317 174.478432 
L 146.351536 174.817302 
L 141.958712 175.083087 
L 137.488303 175.301892 
L 133.16434 175.515903 
L 129.07585 175.767446 
L 125.075948 176.024457 
L 120.717713 176.252286 
L 116.497651 176.553141 
L 112.15804 176.85102 
L 107.707257 177.207436 
L 103.585681 177.521239 
L 98.6086 177.935189 
L 92.661169 178.448367 
L 85.86361 178.949704 
L 77.948003 179.590868 
" style="fill:none;stroke:#0000ff;stroke-linecap:square;stroke-width:1.5;"/>
   </g>
   <g id="line2d_17">
    <path clip-path="url(#p530d30bc76)" d="M 398.487273 190.934469 
L 398.436286 190.382645 
L 398.38981 189.825856 
L 398.349139 189.254066 
L 398.256505 188.631837 
L 398.162806 187.97125 
L 398.040868 187.237299 
L 397.899409 186.429631 
L 397.733818 185.564457 
L 397.551951 184.655933 
L 397.324319 183.722944 
L 397.016608 182.787791 
L 396.685403 181.905094 
L 396.292377 180.939059 
L 395.88406 179.96971 
L 395.416028 178.928206 
L 394.90779 177.891347 
L 394.376682 176.890911 
L 393.793569 175.912437 
L 393.125179 174.904522 
L 392.441746 173.879045 
L 391.726893 172.871184 
L 390.967533 171.874797 
L 390.159703 170.934463 
L 389.152641 169.98589 
L 388.120022 169.086875 
L 387.012622 168.242122 
L 385.889893 167.332269 
L 384.125398 166.127636 
L 382.784978 165.195225 
L 381.392966 164.426157 
L 379.904485 163.756709 
L 378.347728 163.071957 
L 376.69071 162.462494 
L 374.910106 162.026436 
L 372.983514 161.64385 
L 370.647483 161.266491 
L 366.06276 160.715003 
L 363.021294 160.568017 
L 360.662318 160.517308 
L 358.213325 160.507435 
L 355.635589 160.558446 
L 352.204064 160.660271 
L 348.54547 160.893938 
L 345.267816 161.154715 
L 341.834677 161.416548 
L 338.473656 161.694768 
L 334.930344 162.027865 
L 331.281415 162.376912 
L 327.165972 162.79934 
L 324.000262 163.065253 
L 320.788879 163.35536 
L 317.474043 163.637273 
L 314.086813 163.969641 
L 310.623512 164.280663 
L 307.112149 164.558237 
L 303.534111 164.868443 
L 299.692636 165.179427 
L 294.57827 165.587748 
L 288.916994 166.068809 
L 284.256188 166.504369 
L 279.850187 166.868971 
L 275.49572 167.156901 
L 270.992467 167.44442 
L 266.111947 167.775906 
L 261.412127 168.069135 
L 256.8761 168.36816 
L 252.350891 168.704029 
L 247.975914 168.957832 
L 243.503367 169.242397 
L 239.117322 169.55937 
L 234.575986 169.865659 
L 230.050817 170.196568 
L 225.530232 170.54932 
L 221.020924 170.856476 
L 216.208584 171.22995 
L 209.481906 171.6796 
L 203.304 172.163936 
L 197.060271 172.594589 
L 191.703859 172.987945 
L 185.204276 173.518317 
L 180.014844 173.871891 
L 175.349092 174.148061 
L 169.827544 174.533223 
L 164.787118 174.902479 
L 160.200817 175.217255 
L 155.476525 175.539924 
L 150.963383 175.863189 
L 146.582019 176.233029 
L 142.191103 176.529865 
L 137.722329 176.780367 
L 133.399964 177.025638 
L 129.313354 177.306644 
L 125.315326 177.592056 
L 120.95881 177.851463 
L 116.741023 178.182695 
L 112.403489 178.50978 
L 107.955083 178.895421 
L 103.83561 179.236305 
L 98.86132 179.682994 
L 92.917227 180.234634 
L 86.123607 180.786422 
L 78.212917 181.486277 
" style="fill:none;stroke:#ff0000;stroke-linecap:square;stroke-width:1.5;"/>
   </g>
   <g id="patch_3">
    <path d="M 57.6 307.584 
L 57.6 41.472 
" style="fill:none;stroke:#000000;stroke-linecap:square;stroke-linejoin:miter;stroke-width:0.8;"/>
   </g>
   <g id="patch_4">
    <path d="M 414.72 307.584 
L 414.72 41.472 
" style="fill:none;stroke:#000000;stroke-linecap:square;stroke-linejoin:miter;stroke-width:0.8;"/>
   </g>
   <g id="patch_5">
    <path d="M 57.6 307.584 
L 414.72 307.584 
" style="fill:none;stroke:#000000;stroke-linecap:square;stroke-linejoin:miter;stroke-width:0.8;"/>
   </g>
   <g id="patch_6">
    <path d="M 57.6 41.472 
L 414.72 41.472 
" style="fill:none;stroke:#000000;stroke-linecap:square;stroke-linejoin:miter;stroke-width:0.8;"/>
   </g>
  </g>
 </g>
 <defs>
  <clipPath id="p530d30bc76">
   <rect height="266.112" width="357.12" x="57.6" y="41.472"/>
  </clipPath>
 </defs>
</svg>
