<?xml version="1.0" encoding="utf-8" standalone="no"?>
<!DOCTYPE svg PUBLIC "-//W3C//DTD SVG 1.1//EN"
  "http://www.w3.org/Graphics/SVG/1.1/DTD/svg11.dtd">
<!-- Created with matplotlib (https://matplotlib.org/) -->
<svg height="345.6pt" version="1.1" viewBox="0 0 460.8 345.6" width="460.8pt" xmlns="http://www.w3.org/2000/svg" xmlns:xlink="http://www.w3.org/1999/xlink">
 <defs>
  <style type="text/css">
*{stroke-linecap:butt;stroke-linejoin:round;}
  </style>
 </defs>
 <g id="figure_1">
  <g id="patch_1">
   <path d="M 0 345.6 
L 460.8 345.6 
L 460.8 0 
L 0 0 
z
" style="fill:#ffffff;"/>
  </g>
  <g id="axes_1">
   <g id="patch_2">
    <path d="M 57.6 307.584 
L 414.72 307.584 
L 414.72 41.472 
L 57.6 41.472 
z
" style="fill:#ffffff;"/>
   </g>
   <g id="matplotlib.axis_1">
    <g id="xtick_1">
     <g id="line2d_1">
      <defs>
       <path d="M 0 0 
L 0 3.5 
" id="mb8b3eafa28" style="stroke:#000000;stroke-width:0.8;"/>
      </defs>
      <g>
       <use style="stroke:#000000;stroke-width:0.8;" x="79.28585" xlink:href="#mb8b3eafa28" y="307.584"/>
      </g>
     </g>
     <g id="text_1">
      <!-- −200 -->
      <defs>
       <path d="M 10.59375 35.5 
L 73.1875 35.5 
L 73.1875 27.203125 
L 10.59375 27.203125 
z
" id="DejaVuSans-8722"/>
       <path d="M 19.1875 8.296875 
L 53.609375 8.296875 
L 53.609375 0 
L 7.328125 0 
L 7.328125 8.296875 
Q 12.9375 14.109375 22.625 23.890625 
Q 32.328125 33.6875 34.8125 36.53125 
Q 39.546875 41.84375 41.421875 45.53125 
Q 43.3125 49.21875 43.3125 52.78125 
Q 43.3125 58.59375 39.234375 62.25 
Q 35.15625 65.921875 28.609375 65.921875 
Q 23.96875 65.921875 18.8125 64.3125 
Q 13.671875 62.703125 7.8125 59.421875 
L 7.8125 69.390625 
Q 13.765625 71.78125 18.9375 73 
Q 24.125 74.21875 28.421875 74.21875 
Q 39.75 74.21875 46.484375 68.546875 
Q 53.21875 62.890625 53.21875 53.421875 
Q 53.21875 48.921875 51.53125 44.890625 
Q 49.859375 40.875 45.40625 35.40625 
Q 44.1875 33.984375 37.640625 27.21875 
Q 31.109375 20.453125 19.1875 8.296875 
z
" id="DejaVuSans-50"/>
       <path d="M 31.78125 66.40625 
Q 24.171875 66.40625 20.328125 58.90625 
Q 16.5 51.421875 16.5 36.375 
Q 16.5 21.390625 20.328125 13.890625 
Q 24.171875 6.390625 31.78125 6.390625 
Q 39.453125 6.390625 43.28125 13.890625 
Q 47.125 21.390625 47.125 36.375 
Q 47.125 51.421875 43.28125 58.90625 
Q 39.453125 66.40625 31.78125 66.40625 
z
M 31.78125 74.21875 
Q 44.046875 74.21875 50.515625 64.515625 
Q 56.984375 54.828125 56.984375 36.375 
Q 56.984375 17.96875 50.515625 8.265625 
Q 44.046875 -1.421875 31.78125 -1.421875 
Q 19.53125 -1.421875 13.0625 8.265625 
Q 6.59375 17.96875 6.59375 36.375 
Q 6.59375 54.828125 13.0625 64.515625 
Q 19.53125 74.21875 31.78125 74.21875 
z
" id="DejaVuSans-48"/>
      </defs>
      <g transform="translate(65.552257 322.182437)scale(0.1 -0.1)">
       <use xlink:href="#DejaVuSans-8722"/>
       <use x="83.789062" xlink:href="#DejaVuSans-50"/>
       <use x="147.412109" xlink:href="#DejaVuSans-48"/>
       <use x="211.035156" xlink:href="#DejaVuSans-48"/>
      </g>
     </g>
    </g>
    <g id="xtick_2">
     <g id="line2d_2">
      <g>
       <use style="stroke:#000000;stroke-width:0.8;" x="119.995232" xlink:href="#mb8b3eafa28" y="307.584"/>
      </g>
     </g>
     <g id="text_2">
      <!-- −150 -->
      <defs>
       <path d="M 12.40625 8.296875 
L 28.515625 8.296875 
L 28.515625 63.921875 
L 10.984375 60.40625 
L 10.984375 69.390625 
L 28.421875 72.90625 
L 38.28125 72.90625 
L 38.28125 8.296875 
L 54.390625 8.296875 
L 54.390625 0 
L 12.40625 0 
z
" id="DejaVuSans-49"/>
       <path d="M 10.796875 72.90625 
L 49.515625 72.90625 
L 49.515625 64.59375 
L 19.828125 64.59375 
L 19.828125 46.734375 
Q 21.96875 47.46875 24.109375 47.828125 
Q 26.265625 48.1875 28.421875 48.1875 
Q 40.625 48.1875 47.75 41.5 
Q 54.890625 34.8125 54.890625 23.390625 
Q 54.890625 11.625 47.5625 5.09375 
Q 40.234375 -1.421875 26.90625 -1.421875 
Q 22.3125 -1.421875 17.546875 -0.640625 
Q 12.796875 0.140625 7.71875 1.703125 
L 7.71875 11.625 
Q 12.109375 9.234375 16.796875 8.0625 
Q 21.484375 6.890625 26.703125 6.890625 
Q 35.15625 6.890625 40.078125 11.328125 
Q 45.015625 15.765625 45.015625 23.390625 
Q 45.015625 31 40.078125 35.4375 
Q 35.15625 39.890625 26.703125 39.890625 
Q 22.75 39.890625 18.8125 39.015625 
Q 14.890625 38.140625 10.796875 36.28125 
z
" id="DejaVuSans-53"/>
      </defs>
      <g transform="translate(106.261638 322.182437)scale(0.1 -0.1)">
       <use xlink:href="#DejaVuSans-8722"/>
       <use x="83.789062" xlink:href="#DejaVuSans-49"/>
       <use x="147.412109" xlink:href="#DejaVuSans-53"/>
       <use x="211.035156" xlink:href="#DejaVuSans-48"/>
      </g>
     </g>
    </g>
    <g id="xtick_3">
     <g id="line2d_3">
      <g>
       <use style="stroke:#000000;stroke-width:0.8;" x="160.704614" xlink:href="#mb8b3eafa28" y="307.584"/>
      </g>
     </g>
     <g id="text_3">
      <!-- −100 -->
      <g transform="translate(146.97102 322.182437)scale(0.1 -0.1)">
       <use xlink:href="#DejaVuSans-8722"/>
       <use x="83.789062" xlink:href="#DejaVuSans-49"/>
       <use x="147.412109" xlink:href="#DejaVuSans-48"/>
       <use x="211.035156" xlink:href="#DejaVuSans-48"/>
      </g>
     </g>
    </g>
    <g id="xtick_4">
     <g id="line2d_4">
      <g>
       <use style="stroke:#000000;stroke-width:0.8;" x="201.413995" xlink:href="#mb8b3eafa28" y="307.584"/>
      </g>
     </g>
     <g id="text_4">
      <!-- −50 -->
      <g transform="translate(190.861651 322.182437)scale(0.1 -0.1)">
       <use xlink:href="#DejaVuSans-8722"/>
       <use x="83.789062" xlink:href="#DejaVuSans-53"/>
       <use x="147.412109" xlink:href="#DejaVuSans-48"/>
      </g>
     </g>
    </g>
    <g id="xtick_5">
     <g id="line2d_5">
      <g>
       <use style="stroke:#000000;stroke-width:0.8;" x="242.123377" xlink:href="#mb8b3eafa28" y="307.584"/>
      </g>
     </g>
     <g id="text_5">
      <!-- 0 -->
      <g transform="translate(238.942127 322.182437)scale(0.1 -0.1)">
       <use xlink:href="#DejaVuSans-48"/>
      </g>
     </g>
    </g>
    <g id="xtick_6">
     <g id="line2d_6">
      <g>
       <use style="stroke:#000000;stroke-width:0.8;" x="282.832758" xlink:href="#mb8b3eafa28" y="307.584"/>
      </g>
     </g>
     <g id="text_6">
      <!-- 50 -->
      <g transform="translate(276.470258 322.182437)scale(0.1 -0.1)">
       <use xlink:href="#DejaVuSans-53"/>
       <use x="63.623047" xlink:href="#DejaVuSans-48"/>
      </g>
     </g>
    </g>
    <g id="xtick_7">
     <g id="line2d_7">
      <g>
       <use style="stroke:#000000;stroke-width:0.8;" x="323.54214" xlink:href="#mb8b3eafa28" y="307.584"/>
      </g>
     </g>
     <g id="text_7">
      <!-- 100 -->
      <g transform="translate(313.99839 322.182437)scale(0.1 -0.1)">
       <use xlink:href="#DejaVuSans-49"/>
       <use x="63.623047" xlink:href="#DejaVuSans-48"/>
       <use x="127.246094" xlink:href="#DejaVuSans-48"/>
      </g>
     </g>
    </g>
    <g id="xtick_8">
     <g id="line2d_8">
      <g>
       <use style="stroke:#000000;stroke-width:0.8;" x="364.251522" xlink:href="#mb8b3eafa28" y="307.584"/>
      </g>
     </g>
     <g id="text_8">
      <!-- 150 -->
      <g transform="translate(354.707772 322.182437)scale(0.1 -0.1)">
       <use xlink:href="#DejaVuSans-49"/>
       <use x="63.623047" xlink:href="#DejaVuSans-53"/>
       <use x="127.246094" xlink:href="#DejaVuSans-48"/>
      </g>
     </g>
    </g>
    <g id="xtick_9">
     <g id="line2d_9">
      <g>
       <use style="stroke:#000000;stroke-width:0.8;" x="404.960903" xlink:href="#mb8b3eafa28" y="307.584"/>
      </g>
     </g>
     <g id="text_9">
      <!-- 200 -->
      <g transform="translate(395.417153 322.182437)scale(0.1 -0.1)">
       <use xlink:href="#DejaVuSans-50"/>
       <use x="63.623047" xlink:href="#DejaVuSans-48"/>
       <use x="127.246094" xlink:href="#DejaVuSans-48"/>
      </g>
     </g>
    </g>
   </g>
   <g id="matplotlib.axis_2">
    <g id="ytick_1">
     <g id="line2d_10">
      <defs>
       <path d="M 0 0 
L -3.5 0 
" id="m9d24280435" style="stroke:#000000;stroke-width:0.8;"/>
      </defs>
      <g>
       <use style="stroke:#000000;stroke-width:0.8;" x="57.6" xlink:href="#m9d24280435" y="290.714046"/>
      </g>
     </g>
     <g id="text_10">
      <!-- −150 -->
      <g transform="translate(23.132812 294.513264)scale(0.1 -0.1)">
       <use xlink:href="#DejaVuSans-8722"/>
       <use x="83.789062" xlink:href="#DejaVuSans-49"/>
       <use x="147.412109" xlink:href="#DejaVuSans-53"/>
       <use x="211.035156" xlink:href="#DejaVuSans-48"/>
      </g>
     </g>
    </g>
    <g id="ytick_2">
     <g id="line2d_11">
      <g>
       <use style="stroke:#000000;stroke-width:0.8;" x="57.6" xlink:href="#m9d24280435" y="250.004664"/>
      </g>
     </g>
     <g id="text_11">
      <!-- −100 -->
      <g transform="translate(23.132812 253.803883)scale(0.1 -0.1)">
       <use xlink:href="#DejaVuSans-8722"/>
       <use x="83.789062" xlink:href="#DejaVuSans-49"/>
       <use x="147.412109" xlink:href="#DejaVuSans-48"/>
       <use x="211.035156" xlink:href="#DejaVuSans-48"/>
      </g>
     </g>
    </g>
    <g id="ytick_3">
     <g id="line2d_12">
      <g>
       <use style="stroke:#000000;stroke-width:0.8;" x="57.6" xlink:href="#m9d24280435" y="209.295282"/>
      </g>
     </g>
     <g id="text_12">
      <!-- −50 -->
      <g transform="translate(29.495313 213.094501)scale(0.1 -0.1)">
       <use xlink:href="#DejaVuSans-8722"/>
       <use x="83.789062" xlink:href="#DejaVuSans-53"/>
       <use x="147.412109" xlink:href="#DejaVuSans-48"/>
      </g>
     </g>
    </g>
    <g id="ytick_4">
     <g id="line2d_13">
      <g>
       <use style="stroke:#000000;stroke-width:0.8;" x="57.6" xlink:href="#m9d24280435" y="168.585901"/>
      </g>
     </g>
     <g id="text_13">
      <!-- 0 -->
      <g transform="translate(44.2375 172.38512)scale(0.1 -0.1)">
       <use xlink:href="#DejaVuSans-48"/>
      </g>
     </g>
    </g>
    <g id="ytick_5">
     <g id="line2d_14">
      <g>
       <use style="stroke:#000000;stroke-width:0.8;" x="57.6" xlink:href="#m9d24280435" y="127.876519"/>
      </g>
     </g>
     <g id="text_14">
      <!-- 50 -->
      <g transform="translate(37.875 131.675738)scale(0.1 -0.1)">
       <use xlink:href="#DejaVuSans-53"/>
       <use x="63.623047" xlink:href="#DejaVuSans-48"/>
      </g>
     </g>
    </g>
    <g id="ytick_6">
     <g id="line2d_15">
      <g>
       <use style="stroke:#000000;stroke-width:0.8;" x="57.6" xlink:href="#m9d24280435" y="87.167138"/>
      </g>
     </g>
     <g id="text_15">
      <!-- 100 -->
      <g transform="translate(31.5125 90.966356)scale(0.1 -0.1)">
       <use xlink:href="#DejaVuSans-49"/>
       <use x="63.623047" xlink:href="#DejaVuSans-48"/>
       <use x="127.246094" xlink:href="#DejaVuSans-48"/>
      </g>
     </g>
    </g>
    <g id="ytick_7">
     <g id="line2d_16">
      <g>
       <use style="stroke:#000000;stroke-width:0.8;" x="57.6" xlink:href="#m9d24280435" y="46.457756"/>
      </g>
     </g>
     <g id="text_16">
      <!-- 150 -->
      <g transform="translate(31.5125 50.256975)scale(0.1 -0.1)">
       <use xlink:href="#DejaVuSans-49"/>
       <use x="63.623047" xlink:href="#DejaVuSans-53"/>
       <use x="127.246094" xlink:href="#DejaVuSans-48"/>
      </g>
     </g>
    </g>
   </g>
   <g id="line2d_17">
    <path clip-path="url(#pd6741921fa)" d="M 242.123377 168.585901 
L 241.975516 167.567044 
L 241.618504 166.657301 
L 241.111534 165.872128 
L 240.519947 165.28885 
L 239.738528 164.76925 
L 238.722409 164.390011 
L 237.481402 164.187908 
L 235.65025 164.198014 
L 231.568029 164.594906 
L 223.263412 165.352746 
L 207.630155 166.661917 
L 187.624075 168.370451 
L 185.981785 168.174833 
L 184.910029 167.856734 
L 183.948498 167.353579 
L 183.088732 166.715757 
L 182.150869 165.691965 
L 181.546425 164.744148 
L 180.891932 163.197529 
L 180.377846 161.360471 
L 179.843771 158.741151 
L 179.397621 155.195087 
L 178.924423 149.552099 
L 176.482845 117.025132 
L 175.830885 111.169145 
L 174.85995 105.62346 
L 174.165366 102.628072 
L 173.139286 99.133261 
L 171.875032 95.69892 
L 170.126523 91.746316 
L 167.925611 87.240822 
L 165.27863 82.355045 
L 161.646238 76.252464 
L 159.816823 73.460452 
L 158.607266 71.956891 
L 157.632602 71.189682 
L 156.689692 70.732435 
L 155.542013 70.432651 
L 154.492281 70.359537 
L 152.966656 70.576925 
L 151.257025 71.234463 
L 149.776994 72.147818 
L 147.319857 74.001317 
L 142.002398 78.396057 
L 120.945145 96.227857 
L 110.632074 104.896179 
L 103.073889 111.211727 
L 94.640127 118.219798 
L 92.333452 120.356927 
L 91.051269 121.804031 
L 90.314022 122.937592 
L 89.772099 124.092509 
L 89.356782 125.648006 
L 89.266651 127.222393 
L 89.447075 128.727573 
L 89.947638 130.115698 
L 90.684559 131.442197 
L 91.826701 133.045406 
L 94.660481 136.480488 
L 99.500664 142.29036 
L 106.49478 150.748141 
L 113.812861 160.099534 
L 114.936114 161.919757 
L 115.86437 163.819441 
L 116.804756 166.419935 
L 117.457653 169.143554 
L 117.931511 171.992796 
L 118.79056 179.727537 
L 120.564838 196.652878 
L 121.382608 207.343341 
L 122.481598 221.314011 
L 122.783825 226.027612 
L 122.828524 230.667065 
L 122.827139 235.369926 
L 122.775031 235.573546 
L 122.838782 235.91763 
L 123.447469 237.214843 
L 123.96399 237.871257 
L 125.090255 238.872464 
L 126.098952 239.491898 
L 127.817865 240.172787 
L 129.351388 240.510251 
L 131.707484 240.729056 
L 135.096214 240.805231 
L 142.342159 240.53431 
L 150.786424 239.859267 
L 171.847358 238.208144 
L 180.102756 237.535364 
L 204.740888 235.412117 
L 225.710054 233.868296 
L 233.400114 233.255489 
L 236.202351 232.858271 
L 238.55508 232.294911 
L 240.181047 231.688666 
L 241.63187 230.898237 
L 242.547193 230.12348 
L 243.322713 229.250468 
L 244.103237 227.914777 
L 244.497256 226.809924 
L 244.836893 225.261559 
L 245.073242 222.733938 
L 245.106578 219.819008 
L 244.800899 213.337838 
L 244.355867 207.733833 
L 241.975418 174.177407 
L 241.77809 171.660347 
L 241.770021 167.371038 
L 241.807646 166.102091 
L 241.578309 164.300933 
L 241.198492 162.920366 
L 241.198492 162.920366 
" style="fill:none;stroke:#008000;stroke-linecap:square;stroke-width:1.5;"/>
   </g>
   <g id="line2d_18">
    <path clip-path="url(#pd6741921fa)" d="M 242.123377 168.585901 
L 242.104924 167.409868 
L 242.364967 166.246156 
L 242.891641 165.187966 
L 243.486814 164.500376 
L 244.320714 163.872347 
L 245.424099 163.361283 
L 246.772491 163.011976 
L 249.206012 162.652304 
L 264.594613 160.688566 
L 286.508088 157.810284 
L 293.430294 156.941017 
L 295.747403 156.456331 
L 297.228155 155.878984 
L 298.155118 155.273137 
L 298.954999 154.559606 
L 299.609411 153.719037 
L 300.273153 152.494538 
L 300.624459 151.385908 
L 300.908193 149.669399 
L 301.007174 146.652056 
L 300.834552 143.208411 
L 300.336732 138.224419 
L 295.94633 104.680298 
L 295.326161 98.150816 
L 295.107575 91.297159 
L 295.240885 88.257434 
L 295.543661 85.222034 
L 296.236743 80.997023 
L 297.17802 76.760052 
L 298.585262 71.300851 
L 299.791544 67.197075 
L 301.990777 60.618715 
L 303.683638 56.532736 
L 304.443631 55.495436 
L 305.065989 54.873896 
L 305.943447 54.280724 
L 307.001398 53.842598 
L 308.117121 53.610836 
L 309.405719 53.594266 
L 310.884073 53.848957 
L 312.528737 54.416803 
L 315.831342 55.95062 
L 325.991392 61.216925 
L 364.40071 81.853669 
L 376.526858 88.30564 
L 379.176384 89.906486 
L 380.658318 91.090091 
L 381.568033 92.060174 
L 382.303003 93.072609 
L 382.977169 94.519134 
L 383.280245 95.661353 
L 383.430611 97.169002 
L 383.328112 98.266903 
L 383.062047 99.358309 
L 382.363612 101.160532 
L 380.87509 104.168636 
L 372.950296 119.62418 
L 367.92151 129.72784 
L 366.436288 133.040009 
L 365.521949 135.732014 
L 365.04781 137.776933 
L 364.793281 139.833971 
L 364.705728 142.630676 
L 364.843652 145.514195 
L 366.538721 162.557302 
L 367.632138 171.840119 
L 371.246941 198.096246 
L 372.414594 203.880102 
L 372.830317 206.116221 
L 372.632454 206.204709 
L 372.969787 207.576981 
L 372.992323 207.689386 
L 372.915642 207.392802 
L 372.857249 207.475678 
L 372.331211 206.976825 
L 371.830199 206.283794 
L 370.945031 205.480901 
L 369.795681 204.806994 
L 368.66531 204.405342 
L 367.33964 204.178931 
L 365.842945 204.150393 
L 362.991357 204.421491 
L 359.757826 204.958165 
L 350.442631 206.936459 
L 341.705702 208.979195 
L 328.842906 211.937965 
L 319.767975 214.067123 
L 306.201978 217.413063 
L 291.475113 220.829569 
L 271.136498 225.609199 
L 268.895095 226.413203 
L 267.376508 227.134735 
L 266.025241 227.972699 
L 265.130843 228.728518 
L 264.400285 229.625881 
L 263.70768 230.989657 
L 263.333115 232.090313 
L 263.02933 234.031563 
L 263.011864 236.094475 
L 263.167657 238.8327 
L 263.500849 242.02524 
L 264.593973 249.878358 
L 266.498824 262.031922 
L 268.272792 273.097123 
L 269.393311 280.10633 
L 269.691473 282.1025 
L 270.752274 288.20438 
L 271.384976 293.336823 
L 271.834307 294.712422 
L 272.134123 295.488 
L 272.134123 295.488 
" style="fill:none;stroke:#0000ff;stroke-linecap:square;stroke-width:1.5;"/>
   </g>
   <g id="line2d_19">
    <path clip-path="url(#pd6741921fa)" d="M 242.123377 168.585901 
L 241.839455 167.288203 
L 241.399438 166.346819 
L 240.665116 165.420445 
L 239.940471 164.87082 
L 238.994576 164.428806 
L 237.809249 164.156785 
L 236.417673 164.093355 
L 233.962237 164.243663 
L 218.49963 165.500634 
L 197.095464 167.156825 
L 189.007109 167.815434 
L 186.726328 167.760101 
L 185.576216 167.544159 
L 184.543694 167.143065 
L 183.613166 166.610062 
L 182.798624 165.92272 
L 181.895272 164.861003 
L 181.321697 163.848599 
L 180.688251 162.227548 
L 179.965977 159.295001 
L 179.421198 155.888421 
L 178.875507 150.907222 
L 176.225829 117.171763 
L 175.480915 110.654986 
L 174.276019 103.901934 
L 173.516182 100.953686 
L 172.591643 98.045019 
L 171.039297 94.053539 
L 169.241497 90.100425 
L 166.734703 85.048404 
L 164.705122 81.282399 
L 161.191055 75.298708 
L 158.688437 71.650966 
L 157.729997 70.792579 
L 156.992348 70.312785 
L 156.011008 69.913596 
L 154.885138 69.7029 
L 153.745401 69.70535 
L 152.481129 69.954599 
L 151.087319 70.508405 
L 149.595559 71.402953 
L 146.681379 73.58465 
L 138.411174 80.34604 
L 126.199297 90.671923 
L 115.761934 99.497646 
L 109.18306 105.04597 
L 101.153302 111.740294 
L 92.431289 119.175499 
L 91.074819 120.605223 
L 90.025693 122.092567 
L 89.312945 123.622735 
L 88.951926 125.178476 
L 88.891163 126.359291 
L 89.055362 127.866702 
L 89.382398 128.920569 
L 89.868145 129.934248 
L 90.923868 131.555102 
L 93.001849 134.192863 
L 103.951689 147.690517 
L 110.96085 156.54518 
L 113.09858 159.481645 
L 114.549439 161.928238 
L 115.435902 163.832386 
L 116.110073 165.794068 
L 116.773803 168.514898 
L 117.23481 171.366685 
L 119.09688 188.398069 
L 119.943573 197.710294 
L 121.82671 224.16242 
L 121.878724 230.066227 
L 121.933799 232.339765 
L 122.145707 232.385781 
L 122.090038 233.937846 
L 122.080614 233.934918 
L 122.034205 233.942529 
L 122.273261 234.601467 
L 122.73159 235.491229 
L 123.708703 236.606701 
L 124.858653 237.479185 
L 126.017821 238.075583 
L 127.407458 238.531061 
L 129.009535 238.820671 
L 132.113557 239.051821 
L 135.680197 239.091697 
L 146.030706 238.783288 
L 149.90466 238.573695 
L 150.140062 239.505468 
L 176.984516 233.730076 
L 192.640105 230.089682 
L 229.984181 222.056232 
L 233.183712 221.127246 
L 235.365129 220.25355 
L 237.210921 219.206921 
L 238.168131 218.446938 
L 238.939827 217.545424 
L 239.661433 216.177684 
L 240.037173 215.073724 
L 240.269348 213.521353 
L 240.281177 211.902257 
L 240.068779 209.273162 
L 239.367227 204.534753 
L 238.470408 199.682457 
L 236.901905 192.379376 
L 230.490224 162.335869 
L 229.929013 159.570906 
L 229.34386 155.809197 
L 229.144793 154.554479 
L 228.503606 152.550304 
L 228.033455 151.509927 
L 228.033455 151.509927 
" style="fill:none;stroke:#ff0000;stroke-linecap:square;stroke-width:1.5;"/>
   </g>
   <g id="patch_3">
    <path d="M 57.6 307.584 
L 57.6 41.472 
" style="fill:none;stroke:#000000;stroke-linecap:square;stroke-linejoin:miter;stroke-width:0.8;"/>
   </g>
   <g id="patch_4">
    <path d="M 414.72 307.584 
L 414.72 41.472 
" style="fill:none;stroke:#000000;stroke-linecap:square;stroke-linejoin:miter;stroke-width:0.8;"/>
   </g>
   <g id="patch_5">
    <path d="M 57.6 307.584 
L 414.72 307.584 
" style="fill:none;stroke:#000000;stroke-linecap:square;stroke-linejoin:miter;stroke-width:0.8;"/>
   </g>
   <g id="patch_6">
    <path d="M 57.6 41.472 
L 414.72 41.472 
" style="fill:none;stroke:#000000;stroke-linecap:square;stroke-linejoin:miter;stroke-width:0.8;"/>
   </g>
  </g>
 </g>
 <defs>
  <clipPath id="pd6741921fa">
   <rect height="266.112" width="357.12" x="57.6" y="41.472"/>
  </clipPath>
 </defs>
</svg>
