<?xml version="1.0" encoding="utf-8" standalone="no"?>
<!DOCTYPE svg PUBLIC "-//W3C//DTD SVG 1.1//EN"
  "http://www.w3.org/Graphics/SVG/1.1/DTD/svg11.dtd">
<!-- Created with matplotlib (https://matplotlib.org/) -->
<svg height="345.6pt" version="1.1" viewBox="0 0 460.8 345.6" width="460.8pt" xmlns="http://www.w3.org/2000/svg" xmlns:xlink="http://www.w3.org/1999/xlink">
 <defs>
  <style type="text/css">
*{stroke-linecap:butt;stroke-linejoin:round;}
  </style>
 </defs>
 <g id="figure_1">
  <g id="patch_1">
   <path d="M 0 345.6 
L 460.8 345.6 
L 460.8 0 
L 0 0 
z
" style="fill:#ffffff;"/>
  </g>
  <g id="axes_1">
   <g id="patch_2">
    <path d="M 57.6 307.584 
L 414.72 307.584 
L 414.72 41.472 
L 57.6 41.472 
z
" style="fill:#ffffff;"/>
   </g>
   <g id="matplotlib.axis_1">
    <g id="xtick_1">
     <g id="line2d_1">
      <defs>
       <path d="M 0 0 
L 0 3.5 
" id="mb4716d0a9c" style="stroke:#000000;stroke-width:0.8;"/>
      </defs>
      <g>
       <use style="stroke:#000000;stroke-width:0.8;" x="88.294582" xlink:href="#mb4716d0a9c" y="307.584"/>
      </g>
     </g>
     <g id="text_1">
      <!-- −60 -->
      <defs>
       <path d="M 10.59375 35.5 
L 73.1875 35.5 
L 73.1875 27.203125 
L 10.59375 27.203125 
z
" id="DejaVuSans-8722"/>
       <path d="M 33.015625 40.375 
Q 26.375 40.375 22.484375 35.828125 
Q 18.609375 31.296875 18.609375 23.390625 
Q 18.609375 15.53125 22.484375 10.953125 
Q 26.375 6.390625 33.015625 6.390625 
Q 39.65625 6.390625 43.53125 10.953125 
Q 47.40625 15.53125 47.40625 23.390625 
Q 47.40625 31.296875 43.53125 35.828125 
Q 39.65625 40.375 33.015625 40.375 
z
M 52.59375 71.296875 
L 52.59375 62.3125 
Q 48.875 64.0625 45.09375 64.984375 
Q 41.3125 65.921875 37.59375 65.921875 
Q 27.828125 65.921875 22.671875 59.328125 
Q 17.53125 52.734375 16.796875 39.40625 
Q 19.671875 43.65625 24.015625 45.921875 
Q 28.375 48.1875 33.59375 48.1875 
Q 44.578125 48.1875 50.953125 41.515625 
Q 57.328125 34.859375 57.328125 23.390625 
Q 57.328125 12.15625 50.6875 5.359375 
Q 44.046875 -1.421875 33.015625 -1.421875 
Q 20.359375 -1.421875 13.671875 8.265625 
Q 6.984375 17.96875 6.984375 36.375 
Q 6.984375 53.65625 15.1875 63.9375 
Q 23.390625 74.21875 37.203125 74.21875 
Q 40.921875 74.21875 44.703125 73.484375 
Q 48.484375 72.75 52.59375 71.296875 
z
" id="DejaVuSans-54"/>
       <path d="M 31.78125 66.40625 
Q 24.171875 66.40625 20.328125 58.90625 
Q 16.5 51.421875 16.5 36.375 
Q 16.5 21.390625 20.328125 13.890625 
Q 24.171875 6.390625 31.78125 6.390625 
Q 39.453125 6.390625 43.28125 13.890625 
Q 47.125 21.390625 47.125 36.375 
Q 47.125 51.421875 43.28125 58.90625 
Q 39.453125 66.40625 31.78125 66.40625 
z
M 31.78125 74.21875 
Q 44.046875 74.21875 50.515625 64.515625 
Q 56.984375 54.828125 56.984375 36.375 
Q 56.984375 17.96875 50.515625 8.265625 
Q 44.046875 -1.421875 31.78125 -1.421875 
Q 19.53125 -1.421875 13.0625 8.265625 
Q 6.59375 17.96875 6.59375 36.375 
Q 6.59375 54.828125 13.0625 64.515625 
Q 19.53125 74.21875 31.78125 74.21875 
z
" id="DejaVuSans-48"/>
      </defs>
      <g transform="translate(77.742238 322.182437)scale(0.1 -0.1)">
       <use xlink:href="#DejaVuSans-8722"/>
       <use x="83.789062" xlink:href="#DejaVuSans-54"/>
       <use x="147.412109" xlink:href="#DejaVuSans-48"/>
      </g>
     </g>
    </g>
    <g id="xtick_2">
     <g id="line2d_2">
      <g>
       <use style="stroke:#000000;stroke-width:0.8;" x="138.237445" xlink:href="#mb4716d0a9c" y="307.584"/>
      </g>
     </g>
     <g id="text_2">
      <!-- −40 -->
      <defs>
       <path d="M 37.796875 64.3125 
L 12.890625 25.390625 
L 37.796875 25.390625 
z
M 35.203125 72.90625 
L 47.609375 72.90625 
L 47.609375 25.390625 
L 58.015625 25.390625 
L 58.015625 17.1875 
L 47.609375 17.1875 
L 47.609375 0 
L 37.796875 0 
L 37.796875 17.1875 
L 4.890625 17.1875 
L 4.890625 26.703125 
z
" id="DejaVuSans-52"/>
      </defs>
      <g transform="translate(127.685101 322.182437)scale(0.1 -0.1)">
       <use xlink:href="#DejaVuSans-8722"/>
       <use x="83.789062" xlink:href="#DejaVuSans-52"/>
       <use x="147.412109" xlink:href="#DejaVuSans-48"/>
      </g>
     </g>
    </g>
    <g id="xtick_3">
     <g id="line2d_3">
      <g>
       <use style="stroke:#000000;stroke-width:0.8;" x="188.180308" xlink:href="#mb4716d0a9c" y="307.584"/>
      </g>
     </g>
     <g id="text_3">
      <!-- −20 -->
      <defs>
       <path d="M 19.1875 8.296875 
L 53.609375 8.296875 
L 53.609375 0 
L 7.328125 0 
L 7.328125 8.296875 
Q 12.9375 14.109375 22.625 23.890625 
Q 32.328125 33.6875 34.8125 36.53125 
Q 39.546875 41.84375 41.421875 45.53125 
Q 43.3125 49.21875 43.3125 52.78125 
Q 43.3125 58.59375 39.234375 62.25 
Q 35.15625 65.921875 28.609375 65.921875 
Q 23.96875 65.921875 18.8125 64.3125 
Q 13.671875 62.703125 7.8125 59.421875 
L 7.8125 69.390625 
Q 13.765625 71.78125 18.9375 73 
Q 24.125 74.21875 28.421875 74.21875 
Q 39.75 74.21875 46.484375 68.546875 
Q 53.21875 62.890625 53.21875 53.421875 
Q 53.21875 48.921875 51.53125 44.890625 
Q 49.859375 40.875 45.40625 35.40625 
Q 44.1875 33.984375 37.640625 27.21875 
Q 31.109375 20.453125 19.1875 8.296875 
z
" id="DejaVuSans-50"/>
      </defs>
      <g transform="translate(177.627964 322.182437)scale(0.1 -0.1)">
       <use xlink:href="#DejaVuSans-8722"/>
       <use x="83.789062" xlink:href="#DejaVuSans-50"/>
       <use x="147.412109" xlink:href="#DejaVuSans-48"/>
      </g>
     </g>
    </g>
    <g id="xtick_4">
     <g id="line2d_4">
      <g>
       <use style="stroke:#000000;stroke-width:0.8;" x="238.123171" xlink:href="#mb4716d0a9c" y="307.584"/>
      </g>
     </g>
     <g id="text_4">
      <!-- 0 -->
      <g transform="translate(234.941921 322.182437)scale(0.1 -0.1)">
       <use xlink:href="#DejaVuSans-48"/>
      </g>
     </g>
    </g>
    <g id="xtick_5">
     <g id="line2d_5">
      <g>
       <use style="stroke:#000000;stroke-width:0.8;" x="288.066034" xlink:href="#mb4716d0a9c" y="307.584"/>
      </g>
     </g>
     <g id="text_5">
      <!-- 20 -->
      <g transform="translate(281.703534 322.182437)scale(0.1 -0.1)">
       <use xlink:href="#DejaVuSans-50"/>
       <use x="63.623047" xlink:href="#DejaVuSans-48"/>
      </g>
     </g>
    </g>
    <g id="xtick_6">
     <g id="line2d_6">
      <g>
       <use style="stroke:#000000;stroke-width:0.8;" x="338.008897" xlink:href="#mb4716d0a9c" y="307.584"/>
      </g>
     </g>
     <g id="text_6">
      <!-- 40 -->
      <g transform="translate(331.646397 322.182437)scale(0.1 -0.1)">
       <use xlink:href="#DejaVuSans-52"/>
       <use x="63.623047" xlink:href="#DejaVuSans-48"/>
      </g>
     </g>
    </g>
    <g id="xtick_7">
     <g id="line2d_7">
      <g>
       <use style="stroke:#000000;stroke-width:0.8;" x="387.95176" xlink:href="#mb4716d0a9c" y="307.584"/>
      </g>
     </g>
     <g id="text_7">
      <!-- 60 -->
      <g transform="translate(381.58926 322.182437)scale(0.1 -0.1)">
       <use xlink:href="#DejaVuSans-54"/>
       <use x="63.623047" xlink:href="#DejaVuSans-48"/>
      </g>
     </g>
    </g>
   </g>
   <g id="matplotlib.axis_2">
    <g id="ytick_1">
     <g id="line2d_8">
      <defs>
       <path d="M 0 0 
L -3.5 0 
" id="m17651cdac5" style="stroke:#000000;stroke-width:0.8;"/>
      </defs>
      <g>
       <use style="stroke:#000000;stroke-width:0.8;" x="57.6" xlink:href="#m17651cdac5" y="290.516609"/>
      </g>
     </g>
     <g id="text_8">
      <!-- −40 -->
      <g transform="translate(29.495313 294.315828)scale(0.1 -0.1)">
       <use xlink:href="#DejaVuSans-8722"/>
       <use x="83.789062" xlink:href="#DejaVuSans-52"/>
       <use x="147.412109" xlink:href="#DejaVuSans-48"/>
      </g>
     </g>
    </g>
    <g id="ytick_2">
     <g id="line2d_9">
      <g>
       <use style="stroke:#000000;stroke-width:0.8;" x="57.6" xlink:href="#m17651cdac5" y="240.573746"/>
      </g>
     </g>
     <g id="text_9">
      <!-- −20 -->
      <g transform="translate(29.495313 244.372965)scale(0.1 -0.1)">
       <use xlink:href="#DejaVuSans-8722"/>
       <use x="83.789062" xlink:href="#DejaVuSans-50"/>
       <use x="147.412109" xlink:href="#DejaVuSans-48"/>
      </g>
     </g>
    </g>
    <g id="ytick_3">
     <g id="line2d_10">
      <g>
       <use style="stroke:#000000;stroke-width:0.8;" x="57.6" xlink:href="#m17651cdac5" y="190.630883"/>
      </g>
     </g>
     <g id="text_10">
      <!-- 0 -->
      <g transform="translate(44.2375 194.430102)scale(0.1 -0.1)">
       <use xlink:href="#DejaVuSans-48"/>
      </g>
     </g>
    </g>
    <g id="ytick_4">
     <g id="line2d_11">
      <g>
       <use style="stroke:#000000;stroke-width:0.8;" x="57.6" xlink:href="#m17651cdac5" y="140.68802"/>
      </g>
     </g>
     <g id="text_11">
      <!-- 20 -->
      <g transform="translate(37.875 144.487239)scale(0.1 -0.1)">
       <use xlink:href="#DejaVuSans-50"/>
       <use x="63.623047" xlink:href="#DejaVuSans-48"/>
      </g>
     </g>
    </g>
    <g id="ytick_5">
     <g id="line2d_12">
      <g>
       <use style="stroke:#000000;stroke-width:0.8;" x="57.6" xlink:href="#m17651cdac5" y="90.745157"/>
      </g>
     </g>
     <g id="text_12">
      <!-- 40 -->
      <g transform="translate(37.875 94.544376)scale(0.1 -0.1)">
       <use xlink:href="#DejaVuSans-52"/>
       <use x="63.623047" xlink:href="#DejaVuSans-48"/>
      </g>
     </g>
    </g>
   </g>
   <g id="line2d_13">
    <path clip-path="url(#pb593bac4f6)" d="M 238.123171 190.630883 
L 238.123171 190.630883 
L 238.111692 190.402288 
L 238.098172 190.16707 
L 238.079387 189.923025 
L 238.051673 189.663714 
L 238.016451 189.379466 
L 237.973342 189.062837 
L 237.916515 188.715725 
L 237.850858 188.335558 
L 237.769742 187.929191 
L 237.669676 187.506013 
L 237.542425 187.070848 
L 237.390362 186.625116 
L 237.220076 186.164393 
L 237.032858 185.68846 
L 236.818434 185.204541 
L 236.574708 184.715797 
L 236.313129 184.22399 
L 236.026836 183.74305 
L 235.704041 183.263272 
L 235.367242 182.784647 
L 235.019812 182.307643 
L 234.645962 181.833378 
L 234.216526 181.375804 
L 233.724284 180.940212 
L 233.205395 180.518707 
L 232.659834 180.103217 
L 232.091254 179.687425 
L 231.472914 179.29192 
L 230.808752 178.925075 
L 230.093577 178.583581 
L 229.338624 178.274574 
L 228.541745 178.002153 
L 227.69228 177.761936 
L 226.800288 177.56135 
L 225.859514 177.389904 
L 224.889988 177.243841 
L 223.886067 177.14208 
L 222.835434 177.093146 
L 221.744424 177.077204 
L 220.620468 177.086336 
L 219.460957 177.119598 
L 218.269857 177.173074 
L 217.035766 177.262067 
L 215.766231 177.369232 
L 214.449313 177.486248 
L 213.094255 177.617703 
L 211.705369 177.762917 
L 210.273183 177.92452 
L 208.808184 178.080541 
L 207.298136 178.232964 
L 205.749533 178.390357 
L 204.16165 178.555495 
L 202.534786 178.72644 
L 200.882252 178.900895 
L 199.18342 179.069113 
L 197.442262 179.235665 
L 195.659801 179.407148 
L 193.840782 179.577199 
L 191.996367 179.745214 
L 190.117417 179.915682 
L 188.20945 180.085143 
L 186.249767 180.23795 
L 184.273578 180.392054 
L 182.276587 180.55251 
L 180.278973 180.71468 
L 178.267898 180.869625 
L 176.220316 181.019249 
L 174.14921 181.176502 
L 172.045367 181.350642 
L 169.93231 181.529415 
L 167.821425 181.717228 
L 165.711963 181.908617 
L 163.615387 182.094499 
L 161.525203 182.275327 
L 159.423557 182.460255 
L 157.329553 182.642969 
L 155.23008 182.830742 
L 153.154729 183.011447 
L 151.072661 183.188502 
L 148.984175 183.362646 
L 146.893917 183.531163 
L 144.795567 183.701136 
L 142.695445 183.871154 
L 140.611779 184.041284 
L 138.532932 184.207589 
L 136.460203 184.376024 
L 134.39584 184.547458 
L 132.331202 184.729954 
L 130.267988 184.911913 
L 128.210941 185.078028 
L 126.154194 185.234786 
L 124.100593 185.395325 
L 122.047592 185.566045 
L 119.989721 185.738675 
L 117.952327 185.910051 
L 115.930116 186.085346 
L 113.926433 186.284118 
L 111.936235 186.487208 
L 109.948035 186.697123 
L 107.965178 186.90077 
L 105.984594 187.092913 
L 104.02169 187.291006 
L 102.068824 187.486995 
L 100.123474 187.672512 
L 98.188064 187.857166 
L 96.258621 188.05224 
L 94.351153 188.242268 
L 92.463837 188.425748 
L 90.597972 188.608178 
L 88.768041 188.793065 
L 86.954665 188.976859 
L 85.18444 189.152704 
L 83.4493 189.32298 
L 81.751518 189.477907 
L 80.090193 189.609949 
L 78.467175 189.72618 
L 76.881464 189.831328 
L 75.334634 189.916805 
L 73.832727 189.974717 
" style="fill:none;stroke:#008000;stroke-linecap:square;stroke-width:1.5;"/>
   </g>
   <g id="line2d_14">
    <path clip-path="url(#pb593bac4f6)" d="M 238.123171 190.630883 
L 238.123171 190.630883 
L 238.099336 190.403222 
L 238.075339 190.168849 
L 238.054521 189.924959 
L 238.032411 189.665246 
L 238.023376 189.379114 
L 238.005988 189.060101 
L 237.997062 188.708947 
L 237.990399 188.32346 
L 237.993021 187.909146 
L 238.017214 187.474913 
L 238.066575 187.023947 
L 238.141198 186.558455 
L 238.204274 186.070911 
L 238.280005 185.565229 
L 238.398552 185.049401 
L 238.529655 184.519279 
L 238.678971 183.982919 
L 238.864138 183.454799 
L 239.075508 182.916568 
L 239.286186 182.370849 
L 239.509434 181.825011 
L 239.773435 181.281939 
L 240.100632 180.746501 
L 240.479465 180.209292 
L 240.882694 179.676145 
L 241.326398 179.153284 
L 241.788798 178.622004 
L 242.304883 178.100428 
L 242.879573 177.605058 
L 243.4844 177.09296 
L 244.144567 176.614236 
L 244.862485 176.174241 
L 245.634928 175.747142 
L 246.460905 175.355309 
L 247.33456 174.966489 
L 248.246607 174.60679 
L 249.205112 174.291466 
L 250.219876 174.015132 
L 251.279858 173.756179 
L 252.382173 173.535452 
L 253.521881 173.319197 
L 254.694916 173.105835 
L 255.919571 172.928984 
L 257.183051 172.764892 
L 258.493863 172.592635 
L 259.845871 172.432324 
L 261.232302 172.264905 
L 262.664697 172.104962 
L 264.128712 171.938812 
L 265.635672 171.757057 
L 267.179687 171.558378 
L 268.766681 171.384518 
L 270.392225 171.20078 
L 272.040721 170.990731 
L 273.737165 170.798773 
L 275.471846 170.575221 
L 277.250291 170.364963 
L 279.063134 170.136857 
L 280.901784 169.911567 
L 282.774507 169.682683 
L 284.678393 169.469159 
L 286.623687 169.185519 
L 288.584588 168.894725 
L 290.568935 168.616349 
L 292.555397 168.348792 
L 294.551935 168.061339 
L 296.585236 167.776479 
L 298.645866 167.514149 
L 300.73757 167.227953 
L 302.841557 166.962062 
L 304.944109 166.69399 
L 307.043273 166.409468 
L 309.128857 166.124932 
L 311.207005 165.835495 
L 313.300664 165.572796 
L 315.385174 165.300851 
L 317.47552 165.028413 
L 319.54017 164.750813 
L 321.613303 164.487872 
L 323.687755 164.190171 
L 325.764173 163.896843 
L 327.84989 163.610901 
L 329.930556 163.278808 
L 332.004027 163.010899 
L 334.068081 162.712173 
L 336.129542 162.435823 
L 338.183939 162.168225 
L 340.238414 161.89411 
L 342.292615 161.627905 
L 344.337417 161.347861 
L 346.378919 161.052044 
L 348.418554 160.764628 
L 350.456542 160.463237 
L 352.502027 160.178636 
L 354.52968 159.915603 
L 356.542199 159.650536 
L 358.541182 159.407881 
L 360.526446 159.160252 
L 362.51314 158.934348 
L 364.49536 158.7241 
L 366.470337 158.480728 
L 368.430594 158.256858 
L 370.379587 158.025565 
L 372.321695 157.808326 
L 374.252699 157.581674 
L 376.180128 157.365864 
L 378.08374 157.138998 
L 379.966455 156.914182 
L 381.829957 156.707177 
L 383.657095 156.497173 
L 385.466706 156.279015 
L 387.2341 156.076142 
L 388.964428 155.862318 
L 390.656302 155.652382 
L 392.304048 155.402608 
L 393.91264 155.15721 
L 395.483356 154.9156 
L 397.009701 154.650334 
L 398.487273 154.374443 
" style="fill:none;stroke:#0000ff;stroke-linecap:square;stroke-width:1.5;"/>
   </g>
   <g id="line2d_15">
    <path clip-path="url(#pb593bac4f6)" d="M 238.123171 190.630883 
L 238.123171 190.630883 
L 238.089496 190.404454 
L 238.072201 190.169414 
L 238.050687 189.925519 
L 238.02672 189.665835 
L 237.990133 189.38176 
L 237.952214 189.064496 
L 237.901531 188.716426 
L 237.841523 188.335313 
L 237.769032 187.927337 
L 237.676499 187.502369 
L 237.5583 187.064538 
L 237.416241 186.615193 
L 237.273307 186.145029 
L 237.111425 185.659805 
L 236.905543 185.172364 
L 236.695622 184.668474 
L 236.45175 184.167622 
L 236.182688 183.676895 
L 235.88748 183.179832 
L 235.584085 182.679273 
L 235.241411 182.198856 
L 234.862323 181.72896 
L 234.422402 181.281475 
L 233.936617 180.838681 
L 233.437039 180.394514 
L 232.886396 179.985767 
L 232.343206 179.537313 
L 231.731162 179.132151 
L 231.07967 178.743307 
L 230.370627 178.389302 
L 229.63373 178.039376 
L 228.846665 177.739937 
L 227.993158 177.51411 
L 227.107649 177.286876 
L 226.16543 177.123307 
L 225.193546 176.993731 
L 224.187053 176.921078 
L 223.135286 176.906386 
L 222.044492 176.873691 
L 220.920697 176.903678 
L 219.762561 176.972311 
L 218.572964 177.053605 
L 217.342483 177.184501 
L 216.077202 177.334728 
L 214.763168 177.481509 
L 213.413573 177.661537 
L 212.02834 177.838513 
L 210.600286 178.033197 
L 209.141063 178.237483 
L 207.636171 178.436305 
L 206.091716 178.632119 
L 204.510632 178.853646 
L 202.889842 179.075722 
L 201.240959 179.283465 
L 199.549177 179.513782 
L 197.813359 179.730468 
L 196.037837 179.965102 
L 194.225016 180.19403 
L 192.387528 180.429596 
L 190.515683 180.66749 
L 188.616736 180.922255 
L 186.662509 181.137645 
L 184.691379 181.349864 
L 182.700386 181.57685 
L 180.709729 181.812037 
L 178.70461 182.032811 
L 176.664241 182.262806 
L 174.602137 182.513541 
L 172.504929 182.755976 
L 170.399808 183.013588 
L 168.295627 183.269169 
L 166.191055 183.511472 
L 164.099701 183.751432 
L 162.014663 183.987816 
L 159.920558 184.24798 
L 157.833459 184.500103 
L 155.740829 184.755555 
L 153.671729 184.999394 
L 151.597515 185.254406 
L 149.514453 185.485508 
L 147.430548 185.720464 
L 145.339203 185.963063 
L 143.242577 186.173639 
L 141.166788 186.424304 
L 139.093354 186.651084 
L 137.027456 186.892455 
L 134.97019 187.138138 
L 132.911494 187.380147 
L 130.85489 187.628367 
L 128.804575 187.865117 
L 126.75399 188.090215 
L 124.707234 188.322869 
L 122.659035 188.545213 
L 120.607297 188.78103 
L 118.577644 189.029006 
L 116.562365 189.27294 
L 114.565262 189.530892 
L 112.58068 189.784538 
L 110.599572 190.055397 
L 108.627835 190.348544 
L 106.654478 190.605437 
L 104.700051 190.875793 
L 102.755235 191.140479 
L 100.820255 191.41471 
L 98.893385 191.674669 
L 96.972127 191.940143 
L 95.071994 192.195201 
L 93.192519 192.447246 
L 91.335848 192.708901 
L 89.514346 192.964221 
L 87.708153 193.20965 
L 85.945865 193.453171 
L 84.21746 193.682313 
L 82.527125 193.904447 
L 80.870609 194.087558 
L 79.252876 194.262856 
L 77.672517 194.430526 
L 76.129304 194.567265 
L 74.630504 194.681557 
" style="fill:none;stroke:#ff0000;stroke-linecap:square;stroke-width:1.5;"/>
   </g>
   <g id="patch_3">
    <path d="M 57.6 307.584 
L 57.6 41.472 
" style="fill:none;stroke:#000000;stroke-linecap:square;stroke-linejoin:miter;stroke-width:0.8;"/>
   </g>
   <g id="patch_4">
    <path d="M 414.72 307.584 
L 414.72 41.472 
" style="fill:none;stroke:#000000;stroke-linecap:square;stroke-linejoin:miter;stroke-width:0.8;"/>
   </g>
   <g id="patch_5">
    <path d="M 57.6 307.584 
L 414.72 307.584 
" style="fill:none;stroke:#000000;stroke-linecap:square;stroke-linejoin:miter;stroke-width:0.8;"/>
   </g>
   <g id="patch_6">
    <path d="M 57.6 41.472 
L 414.72 41.472 
" style="fill:none;stroke:#000000;stroke-linecap:square;stroke-linejoin:miter;stroke-width:0.8;"/>
   </g>
  </g>
 </g>
 <defs>
  <clipPath id="pb593bac4f6">
   <rect height="266.112" width="357.12" x="57.6" y="41.472"/>
  </clipPath>
 </defs>
</svg>
