<?xml version="1.0" encoding="utf-8" standalone="no"?>
<!DOCTYPE svg PUBLIC "-//W3C//DTD SVG 1.1//EN"
  "http://www.w3.org/Graphics/SVG/1.1/DTD/svg11.dtd">
<!-- Created with matplotlib (https://matplotlib.org/) -->
<svg height="345.6pt" version="1.1" viewBox="0 0 460.8 345.6" width="460.8pt" xmlns="http://www.w3.org/2000/svg" xmlns:xlink="http://www.w3.org/1999/xlink">
 <defs>
  <style type="text/css">
*{stroke-linecap:butt;stroke-linejoin:round;}
  </style>
 </defs>
 <g id="figure_1">
  <g id="patch_1">
   <path d="M 0 345.6 
L 460.8 345.6 
L 460.8 0 
L 0 0 
z
" style="fill:#ffffff;"/>
  </g>
  <g id="axes_1">
   <g id="patch_2">
    <path d="M 57.6 307.584 
L 414.72 307.584 
L 414.72 41.472 
L 57.6 41.472 
z
" style="fill:#ffffff;"/>
   </g>
   <g id="matplotlib.axis_1">
    <g id="xtick_1">
     <g id="line2d_1">
      <defs>
       <path d="M 0 0 
L 0 3.5 
" id="m2f726e0e39" style="stroke:#000000;stroke-width:0.8;"/>
      </defs>
      <g>
       <use style="stroke:#000000;stroke-width:0.8;" x="80.416555" xlink:href="#m2f726e0e39" y="307.584"/>
      </g>
     </g>
     <g id="text_1">
      <!-- −150 -->
      <defs>
       <path d="M 10.59375 35.5 
L 73.1875 35.5 
L 73.1875 27.203125 
L 10.59375 27.203125 
z
" id="DejaVuSans-8722"/>
       <path d="M 12.40625 8.296875 
L 28.515625 8.296875 
L 28.515625 63.921875 
L 10.984375 60.40625 
L 10.984375 69.390625 
L 28.421875 72.90625 
L 38.28125 72.90625 
L 38.28125 8.296875 
L 54.390625 8.296875 
L 54.390625 0 
L 12.40625 0 
z
" id="DejaVuSans-49"/>
       <path d="M 10.796875 72.90625 
L 49.515625 72.90625 
L 49.515625 64.59375 
L 19.828125 64.59375 
L 19.828125 46.734375 
Q 21.96875 47.46875 24.109375 47.828125 
Q 26.265625 48.1875 28.421875 48.1875 
Q 40.625 48.1875 47.75 41.5 
Q 54.890625 34.8125 54.890625 23.390625 
Q 54.890625 11.625 47.5625 5.09375 
Q 40.234375 -1.421875 26.90625 -1.421875 
Q 22.3125 -1.421875 17.546875 -0.640625 
Q 12.796875 0.140625 7.71875 1.703125 
L 7.71875 11.625 
Q 12.109375 9.234375 16.796875 8.0625 
Q 21.484375 6.890625 26.703125 6.890625 
Q 35.15625 6.890625 40.078125 11.328125 
Q 45.015625 15.765625 45.015625 23.390625 
Q 45.015625 31 40.078125 35.4375 
Q 35.15625 39.890625 26.703125 39.890625 
Q 22.75 39.890625 18.8125 39.015625 
Q 14.890625 38.140625 10.796875 36.28125 
z
" id="DejaVuSans-53"/>
       <path d="M 31.78125 66.40625 
Q 24.171875 66.40625 20.328125 58.90625 
Q 16.5 51.421875 16.5 36.375 
Q 16.5 21.390625 20.328125 13.890625 
Q 24.171875 6.390625 31.78125 6.390625 
Q 39.453125 6.390625 43.28125 13.890625 
Q 47.125 21.390625 47.125 36.375 
Q 47.125 51.421875 43.28125 58.90625 
Q 39.453125 66.40625 31.78125 66.40625 
z
M 31.78125 74.21875 
Q 44.046875 74.21875 50.515625 64.515625 
Q 56.984375 54.828125 56.984375 36.375 
Q 56.984375 17.96875 50.515625 8.265625 
Q 44.046875 -1.421875 31.78125 -1.421875 
Q 19.53125 -1.421875 13.0625 8.265625 
Q 6.59375 17.96875 6.59375 36.375 
Q 6.59375 54.828125 13.0625 64.515625 
Q 19.53125 74.21875 31.78125 74.21875 
z
" id="DejaVuSans-48"/>
      </defs>
      <g transform="translate(66.682961 322.182437)scale(0.1 -0.1)">
       <use xlink:href="#DejaVuSans-8722"/>
       <use x="83.789062" xlink:href="#DejaVuSans-49"/>
       <use x="147.412109" xlink:href="#DejaVuSans-53"/>
       <use x="211.035156" xlink:href="#DejaVuSans-48"/>
      </g>
     </g>
    </g>
    <g id="xtick_2">
     <g id="line2d_2">
      <g>
       <use style="stroke:#000000;stroke-width:0.8;" x="124.05674" xlink:href="#m2f726e0e39" y="307.584"/>
      </g>
     </g>
     <g id="text_2">
      <!-- −100 -->
      <g transform="translate(110.323146 322.182437)scale(0.1 -0.1)">
       <use xlink:href="#DejaVuSans-8722"/>
       <use x="83.789062" xlink:href="#DejaVuSans-49"/>
       <use x="147.412109" xlink:href="#DejaVuSans-48"/>
       <use x="211.035156" xlink:href="#DejaVuSans-48"/>
      </g>
     </g>
    </g>
    <g id="xtick_3">
     <g id="line2d_3">
      <g>
       <use style="stroke:#000000;stroke-width:0.8;" x="167.696924" xlink:href="#m2f726e0e39" y="307.584"/>
      </g>
     </g>
     <g id="text_3">
      <!-- −50 -->
      <g transform="translate(157.144581 322.182437)scale(0.1 -0.1)">
       <use xlink:href="#DejaVuSans-8722"/>
       <use x="83.789062" xlink:href="#DejaVuSans-53"/>
       <use x="147.412109" xlink:href="#DejaVuSans-48"/>
      </g>
     </g>
    </g>
    <g id="xtick_4">
     <g id="line2d_4">
      <g>
       <use style="stroke:#000000;stroke-width:0.8;" x="211.337109" xlink:href="#m2f726e0e39" y="307.584"/>
      </g>
     </g>
     <g id="text_4">
      <!-- 0 -->
      <g transform="translate(208.155859 322.182437)scale(0.1 -0.1)">
       <use xlink:href="#DejaVuSans-48"/>
      </g>
     </g>
    </g>
    <g id="xtick_5">
     <g id="line2d_5">
      <g>
       <use style="stroke:#000000;stroke-width:0.8;" x="254.977294" xlink:href="#m2f726e0e39" y="307.584"/>
      </g>
     </g>
     <g id="text_5">
      <!-- 50 -->
      <g transform="translate(248.614794 322.182437)scale(0.1 -0.1)">
       <use xlink:href="#DejaVuSans-53"/>
       <use x="63.623047" xlink:href="#DejaVuSans-48"/>
      </g>
     </g>
    </g>
    <g id="xtick_6">
     <g id="line2d_6">
      <g>
       <use style="stroke:#000000;stroke-width:0.8;" x="298.617479" xlink:href="#m2f726e0e39" y="307.584"/>
      </g>
     </g>
     <g id="text_6">
      <!-- 100 -->
      <g transform="translate(289.073729 322.182437)scale(0.1 -0.1)">
       <use xlink:href="#DejaVuSans-49"/>
       <use x="63.623047" xlink:href="#DejaVuSans-48"/>
       <use x="127.246094" xlink:href="#DejaVuSans-48"/>
      </g>
     </g>
    </g>
    <g id="xtick_7">
     <g id="line2d_7">
      <g>
       <use style="stroke:#000000;stroke-width:0.8;" x="342.257664" xlink:href="#m2f726e0e39" y="307.584"/>
      </g>
     </g>
     <g id="text_7">
      <!-- 150 -->
      <g transform="translate(332.713914 322.182437)scale(0.1 -0.1)">
       <use xlink:href="#DejaVuSans-49"/>
       <use x="63.623047" xlink:href="#DejaVuSans-53"/>
       <use x="127.246094" xlink:href="#DejaVuSans-48"/>
      </g>
     </g>
    </g>
    <g id="xtick_8">
     <g id="line2d_8">
      <g>
       <use style="stroke:#000000;stroke-width:0.8;" x="385.897849" xlink:href="#m2f726e0e39" y="307.584"/>
      </g>
     </g>
     <g id="text_8">
      <!-- 200 -->
      <defs>
       <path d="M 19.1875 8.296875 
L 53.609375 8.296875 
L 53.609375 0 
L 7.328125 0 
L 7.328125 8.296875 
Q 12.9375 14.109375 22.625 23.890625 
Q 32.328125 33.6875 34.8125 36.53125 
Q 39.546875 41.84375 41.421875 45.53125 
Q 43.3125 49.21875 43.3125 52.78125 
Q 43.3125 58.59375 39.234375 62.25 
Q 35.15625 65.921875 28.609375 65.921875 
Q 23.96875 65.921875 18.8125 64.3125 
Q 13.671875 62.703125 7.8125 59.421875 
L 7.8125 69.390625 
Q 13.765625 71.78125 18.9375 73 
Q 24.125 74.21875 28.421875 74.21875 
Q 39.75 74.21875 46.484375 68.546875 
Q 53.21875 62.890625 53.21875 53.421875 
Q 53.21875 48.921875 51.53125 44.890625 
Q 49.859375 40.875 45.40625 35.40625 
Q 44.1875 33.984375 37.640625 27.21875 
Q 31.109375 20.453125 19.1875 8.296875 
z
" id="DejaVuSans-50"/>
      </defs>
      <g transform="translate(376.354099 322.182437)scale(0.1 -0.1)">
       <use xlink:href="#DejaVuSans-50"/>
       <use x="63.623047" xlink:href="#DejaVuSans-48"/>
       <use x="127.246094" xlink:href="#DejaVuSans-48"/>
      </g>
     </g>
    </g>
   </g>
   <g id="matplotlib.axis_2">
    <g id="ytick_1">
     <g id="line2d_9">
      <defs>
       <path d="M 0 0 
L -3.5 0 
" id="m83175b679c" style="stroke:#000000;stroke-width:0.8;"/>
      </defs>
      <g>
       <use style="stroke:#000000;stroke-width:0.8;" x="57.6" xlink:href="#m83175b679c" y="295.488"/>
      </g>
     </g>
     <g id="text_9">
      <!-- 0 -->
      <g transform="translate(44.2375 299.287219)scale(0.1 -0.1)">
       <use xlink:href="#DejaVuSans-48"/>
      </g>
     </g>
    </g>
    <g id="ytick_2">
     <g id="line2d_10">
      <g>
       <use style="stroke:#000000;stroke-width:0.8;" x="57.6" xlink:href="#m83175b679c" y="251.847815"/>
      </g>
     </g>
     <g id="text_10">
      <!-- 50 -->
      <g transform="translate(37.875 255.647034)scale(0.1 -0.1)">
       <use xlink:href="#DejaVuSans-53"/>
       <use x="63.623047" xlink:href="#DejaVuSans-48"/>
      </g>
     </g>
    </g>
    <g id="ytick_3">
     <g id="line2d_11">
      <g>
       <use style="stroke:#000000;stroke-width:0.8;" x="57.6" xlink:href="#m83175b679c" y="208.20763"/>
      </g>
     </g>
     <g id="text_11">
      <!-- 100 -->
      <g transform="translate(31.5125 212.006849)scale(0.1 -0.1)">
       <use xlink:href="#DejaVuSans-49"/>
       <use x="63.623047" xlink:href="#DejaVuSans-48"/>
       <use x="127.246094" xlink:href="#DejaVuSans-48"/>
      </g>
     </g>
    </g>
    <g id="ytick_4">
     <g id="line2d_12">
      <g>
       <use style="stroke:#000000;stroke-width:0.8;" x="57.6" xlink:href="#m83175b679c" y="164.567445"/>
      </g>
     </g>
     <g id="text_12">
      <!-- 150 -->
      <g transform="translate(31.5125 168.366664)scale(0.1 -0.1)">
       <use xlink:href="#DejaVuSans-49"/>
       <use x="63.623047" xlink:href="#DejaVuSans-53"/>
       <use x="127.246094" xlink:href="#DejaVuSans-48"/>
      </g>
     </g>
    </g>
    <g id="ytick_5">
     <g id="line2d_13">
      <g>
       <use style="stroke:#000000;stroke-width:0.8;" x="57.6" xlink:href="#m83175b679c" y="120.927261"/>
      </g>
     </g>
     <g id="text_13">
      <!-- 200 -->
      <g transform="translate(31.5125 124.726479)scale(0.1 -0.1)">
       <use xlink:href="#DejaVuSans-50"/>
       <use x="63.623047" xlink:href="#DejaVuSans-48"/>
       <use x="127.246094" xlink:href="#DejaVuSans-48"/>
      </g>
     </g>
    </g>
    <g id="ytick_6">
     <g id="line2d_14">
      <g>
       <use style="stroke:#000000;stroke-width:0.8;" x="57.6" xlink:href="#m83175b679c" y="77.287076"/>
      </g>
     </g>
     <g id="text_14">
      <!-- 250 -->
      <g transform="translate(31.5125 81.086294)scale(0.1 -0.1)">
       <use xlink:href="#DejaVuSans-50"/>
       <use x="63.623047" xlink:href="#DejaVuSans-53"/>
       <use x="127.246094" xlink:href="#DejaVuSans-48"/>
      </g>
     </g>
    </g>
   </g>
   <g id="line2d_15">
    <path clip-path="url(#pa6c0e1440d)" d="M 211.337109 295.488 
L 209.01381 254.817063 
L 207.457052 233.270732 
L 206.7678 224.672733 
L 206.83035 223.037902 
L 207.132555 221.536479 
L 207.552332 220.55454 
L 208.145807 219.718071 
L 208.87772 219.035617 
L 209.724484 218.517189 
L 210.944328 218.028453 
L 213.292838 217.520874 
L 217.014368 217.251387 
L 232.154769 216.696738 
L 239.217287 216.408407 
L 242.661292 216.507959 
L 246.614753 216.855571 
L 254.424347 217.70274 
L 256.248786 217.585148 
L 257.560654 217.291144 
L 258.757878 216.792354 
L 259.770287 216.113827 
L 260.605613 215.219596 
L 261.239905 214.167763 
L 261.68425 213.001077 
L 262.384727 210.050931 
L 263.25129 206.213003 
L 266.135941 194.623042 
L 270.468006 176.557574 
L 272.16643 168.906664 
L 272.986787 164.030396 
L 273.512747 159.782198 
L 273.886595 154.04587 
L 274.130273 146.798718 
L 274.074911 142.388441 
L 273.123887 125.4104 
L 272.544808 115.975653 
L 272.42869 112.426134 
L 272.444915 106.77281 
L 272.184235 89.141999 
L 271.931873 87.375269 
L 271.579915 86.162072 
L 271.049931 85.061554 
L 270.346817 84.128439 
L 269.529472 83.335409 
L 268.611404 82.711966 
L 267.65077 82.244579 
L 266.593002 81.927664 
L 265.398274 81.751969 
L 263.659439 81.692967 
L 259.645197 81.851032 
L 256.674121 82.063123 
L 251.819368 82.400811 
L 222.283813 83.872097 
L 212.873308 84.719764 
L 209.103 84.864474 
L 205.970289 84.762007 
L 203.882613 84.479306 
L 202.728118 84.088203 
L 201.478024 83.355571 
L 200.586201 82.417569 
L 200.194505 81.851294 
L 199.712865 80.7959 
L 199.267884 79.139754 
L 199.027496 77.139899 
L 198.830801 72.448055 
L 198.268157 56.222196 
L 198.18435 53.568 
L 198.18435 53.568 
" style="fill:none;stroke:#008000;stroke-linecap:square;stroke-width:1.5;"/>
   </g>
   <g id="line2d_16">
    <path clip-path="url(#pa6c0e1440d)" d="M 211.337109 295.488 
L 211.175185 290.237579 
L 210.751887 281.936092 
L 210.154433 272.222994 
L 208.427659 245.348779 
L 207.426339 233.998401 
L 206.689864 226.751591 
L 206.667541 224.163004 
L 206.899259 222.627216 
L 207.422342 221.280476 
L 208.005593 220.434875 
L 208.723944 219.738029 
L 209.852096 219.060428 
L 210.773528 218.694433 
L 213.489382 218.143515 
L 216.378888 217.907981 
L 231.973475 217.127201 
L 239.729557 216.769362 
L 243.154345 216.875196 
L 248.318986 217.359303 
L 252.821996 217.8361 
L 254.714495 217.880834 
L 256.520612 217.685693 
L 257.796152 217.306038 
L 258.926263 216.724963 
L 259.866515 215.930267 
L 260.63893 214.979633 
L 261.220695 213.891479 
L 261.723553 212.292382 
L 262.308705 209.713572 
L 263.195038 205.790237 
L 264.687334 200.032769 
L 270.148682 176.609858 
L 271.068809 172.410678 
L 272.282246 166.139643 
L 273.025578 160.525764 
L 273.432794 155.501604 
L 273.824561 146.830902 
L 273.730687 141.67352 
L 273.137376 130.538883 
L 272.16223 113.013499 
L 272.210774 104.394734 
L 272.021656 94.93805 
L 271.606413 87.824929 
L 271.16729 86.176902 
L 270.646604 85.070593 
L 269.940115 84.137837 
L 269.108889 83.357087 
L 267.856223 82.581065 
L 266.52014 82.06322 
L 265.357527 81.86599 
L 264.093773 81.809799 
L 259.192828 82.021972 
L 239.200068 82.92801 
L 232.440912 83.333395 
L 223.872446 83.835985 
L 209.764514 85.021351 
L 207.346592 85.042489 
L 205.328503 84.917454 
L 205.328601 84.911957 
L 205.32714 84.902998 
L 205.281446 86.440609 
L 205.489108 87.591699 
L 205.869136 88.59654 
L 206.486363 89.531731 
L 207.123232 90.1778 
L 207.968372 90.682307 
L 209.320863 91.167971 
L 210.971412 91.461916 
L 213.834885 91.696974 
L 225.541445 92.557448 
L 230.645881 92.970418 
L 230.645881 92.970418 
" style="fill:none;stroke:#0000ff;stroke-linecap:square;stroke-width:1.5;"/>
   </g>
   <g id="line2d_17">
    <path clip-path="url(#pa6c0e1440d)" d="M 211.337109 295.488 
L 211.290673 292.48681 
L 210.810361 282.732515 
L 208.728231 251.362384 
L 207.457007 236.04851 
L 206.355107 223.834358 
L 206.611922 221.897227 
L 207.129638 220.548456 
L 207.709517 219.700548 
L 208.425182 219.00093 
L 209.551742 218.320615 
L 210.471848 217.951311 
L 213.185669 217.389725 
L 216.07439 217.142064 
L 231.666927 216.297377 
L 239.422259 215.908222 
L 242.847767 216.000284 
L 248.014824 216.463825 
L 252.520148 216.922644 
L 254.413009 216.959903 
L 256.21849 216.757616 
L 257.492483 216.372578 
L 258.620403 215.787091 
L 259.555801 214.98666 
L 260.32387 214.032527 
L 260.901422 212.942178 
L 261.398792 211.341399 
L 261.97498 208.760568 
L 262.848023 204.834367 
L 264.320865 199.072021 
L 269.705512 175.632145 
L 270.612159 171.430259 
L 271.805343 165.155579 
L 272.530637 159.539502 
L 272.921899 154.51419 
L 273.286671 145.84245 
L 273.177562 140.685435 
L 272.551722 129.552786 
L 271.526554 112.030877 
L 271.549893 103.412313 
L 271.332523 93.956258 
L 270.896659 86.844568 
L 270.452788 85.197849 
L 269.928926 84.093049 
L 269.219783 83.162384 
L 268.385843 82.384557 
L 267.130155 81.61313 
L 265.792102 81.099621 
L 264.628587 80.906567 
L 263.364558 80.85401 
L 258.463552 81.078478 
L 238.47095 82.03525 
L 231.712274 82.457756 
L 223.144372 82.982101 
L 209.442215 84.19953 
L 204.526696 84.117421 
L 204.416029 84.126515 
L 203.996203 84.336958 
L 202.041061 85.847581 
L 201.361535 86.763417 
L 200.861358 87.878414 
L 200.619785 88.850508 
L 200.610317 89.975545 
L 200.876867 91.617135 
L 201.46704 93.486715 
L 202.729525 96.58729 
L 208.277102 109.963013 
L 210.224882 114.714531 
L 210.224882 114.714531 
" style="fill:none;stroke:#ff0000;stroke-linecap:square;stroke-width:1.5;"/>
   </g>
   <g id="patch_3">
    <path d="M 57.6 307.584 
L 57.6 41.472 
" style="fill:none;stroke:#000000;stroke-linecap:square;stroke-linejoin:miter;stroke-width:0.8;"/>
   </g>
   <g id="patch_4">
    <path d="M 414.72 307.584 
L 414.72 41.472 
" style="fill:none;stroke:#000000;stroke-linecap:square;stroke-linejoin:miter;stroke-width:0.8;"/>
   </g>
   <g id="patch_5">
    <path d="M 57.6 307.584 
L 414.72 307.584 
" style="fill:none;stroke:#000000;stroke-linecap:square;stroke-linejoin:miter;stroke-width:0.8;"/>
   </g>
   <g id="patch_6">
    <path d="M 57.6 41.472 
L 414.72 41.472 
" style="fill:none;stroke:#000000;stroke-linecap:square;stroke-linejoin:miter;stroke-width:0.8;"/>
   </g>
  </g>
 </g>
 <defs>
  <clipPath id="pa6c0e1440d">
   <rect height="266.112" width="357.12" x="57.6" y="41.472"/>
  </clipPath>
 </defs>
</svg>
