<?xml version="1.0" encoding="utf-8" standalone="no"?>
<!DOCTYPE svg PUBLIC "-//W3C//DTD SVG 1.1//EN"
  "http://www.w3.org/Graphics/SVG/1.1/DTD/svg11.dtd">
<!-- Created with matplotlib (https://matplotlib.org/) -->
<svg height="345.6pt" version="1.1" viewBox="0 0 460.8 345.6" width="460.8pt" xmlns="http://www.w3.org/2000/svg" xmlns:xlink="http://www.w3.org/1999/xlink">
 <defs>
  <style type="text/css">
*{stroke-linecap:butt;stroke-linejoin:round;}
  </style>
 </defs>
 <g id="figure_1">
  <g id="patch_1">
   <path d="M 0 345.6 
L 460.8 345.6 
L 460.8 0 
L 0 0 
z
" style="fill:#ffffff;"/>
  </g>
  <g id="axes_1">
   <g id="patch_2">
    <path d="M 57.6 307.584 
L 414.72 307.584 
L 414.72 41.472 
L 57.6 41.472 
z
" style="fill:#ffffff;"/>
   </g>
   <g id="matplotlib.axis_1">
    <g id="xtick_1">
     <g id="line2d_1">
      <defs>
       <path d="M 0 0 
L 0 3.5 
" id="m3117abc268" style="stroke:#000000;stroke-width:0.8;"/>
      </defs>
      <g>
       <use style="stroke:#000000;stroke-width:0.8;" x="86.035652" xlink:href="#m3117abc268" y="307.584"/>
      </g>
     </g>
     <g id="text_1">
      <!-- −40 -->
      <defs>
       <path d="M 10.59375 35.5 
L 73.1875 35.5 
L 73.1875 27.203125 
L 10.59375 27.203125 
z
" id="DejaVuSans-8722"/>
       <path d="M 37.796875 64.3125 
L 12.890625 25.390625 
L 37.796875 25.390625 
z
M 35.203125 72.90625 
L 47.609375 72.90625 
L 47.609375 25.390625 
L 58.015625 25.390625 
L 58.015625 17.1875 
L 47.609375 17.1875 
L 47.609375 0 
L 37.796875 0 
L 37.796875 17.1875 
L 4.890625 17.1875 
L 4.890625 26.703125 
z
" id="DejaVuSans-52"/>
       <path d="M 31.78125 66.40625 
Q 24.171875 66.40625 20.328125 58.90625 
Q 16.5 51.421875 16.5 36.375 
Q 16.5 21.390625 20.328125 13.890625 
Q 24.171875 6.390625 31.78125 6.390625 
Q 39.453125 6.390625 43.28125 13.890625 
Q 47.125 21.390625 47.125 36.375 
Q 47.125 51.421875 43.28125 58.90625 
Q 39.453125 66.40625 31.78125 66.40625 
z
M 31.78125 74.21875 
Q 44.046875 74.21875 50.515625 64.515625 
Q 56.984375 54.828125 56.984375 36.375 
Q 56.984375 17.96875 50.515625 8.265625 
Q 44.046875 -1.421875 31.78125 -1.421875 
Q 19.53125 -1.421875 13.0625 8.265625 
Q 6.59375 17.96875 6.59375 36.375 
Q 6.59375 54.828125 13.0625 64.515625 
Q 19.53125 74.21875 31.78125 74.21875 
z
" id="DejaVuSans-48"/>
      </defs>
      <g transform="translate(75.483309 322.182437)scale(0.1 -0.1)">
       <use xlink:href="#DejaVuSans-8722"/>
       <use x="83.789062" xlink:href="#DejaVuSans-52"/>
       <use x="147.412109" xlink:href="#DejaVuSans-48"/>
      </g>
     </g>
    </g>
    <g id="xtick_2">
     <g id="line2d_2">
      <g>
       <use style="stroke:#000000;stroke-width:0.8;" x="162.508738" xlink:href="#m3117abc268" y="307.584"/>
      </g>
     </g>
     <g id="text_2">
      <!-- −20 -->
      <defs>
       <path d="M 19.1875 8.296875 
L 53.609375 8.296875 
L 53.609375 0 
L 7.328125 0 
L 7.328125 8.296875 
Q 12.9375 14.109375 22.625 23.890625 
Q 32.328125 33.6875 34.8125 36.53125 
Q 39.546875 41.84375 41.421875 45.53125 
Q 43.3125 49.21875 43.3125 52.78125 
Q 43.3125 58.59375 39.234375 62.25 
Q 35.15625 65.921875 28.609375 65.921875 
Q 23.96875 65.921875 18.8125 64.3125 
Q 13.671875 62.703125 7.8125 59.421875 
L 7.8125 69.390625 
Q 13.765625 71.78125 18.9375 73 
Q 24.125 74.21875 28.421875 74.21875 
Q 39.75 74.21875 46.484375 68.546875 
Q 53.21875 62.890625 53.21875 53.421875 
Q 53.21875 48.921875 51.53125 44.890625 
Q 49.859375 40.875 45.40625 35.40625 
Q 44.1875 33.984375 37.640625 27.21875 
Q 31.109375 20.453125 19.1875 8.296875 
z
" id="DejaVuSans-50"/>
      </defs>
      <g transform="translate(151.956394 322.182437)scale(0.1 -0.1)">
       <use xlink:href="#DejaVuSans-8722"/>
       <use x="83.789062" xlink:href="#DejaVuSans-50"/>
       <use x="147.412109" xlink:href="#DejaVuSans-48"/>
      </g>
     </g>
    </g>
    <g id="xtick_3">
     <g id="line2d_3">
      <g>
       <use style="stroke:#000000;stroke-width:0.8;" x="238.981824" xlink:href="#m3117abc268" y="307.584"/>
      </g>
     </g>
     <g id="text_3">
      <!-- 0 -->
      <g transform="translate(235.800574 322.182437)scale(0.1 -0.1)">
       <use xlink:href="#DejaVuSans-48"/>
      </g>
     </g>
    </g>
    <g id="xtick_4">
     <g id="line2d_4">
      <g>
       <use style="stroke:#000000;stroke-width:0.8;" x="315.454909" xlink:href="#m3117abc268" y="307.584"/>
      </g>
     </g>
     <g id="text_4">
      <!-- 20 -->
      <g transform="translate(309.092409 322.182437)scale(0.1 -0.1)">
       <use xlink:href="#DejaVuSans-50"/>
       <use x="63.623047" xlink:href="#DejaVuSans-48"/>
      </g>
     </g>
    </g>
    <g id="xtick_5">
     <g id="line2d_5">
      <g>
       <use style="stroke:#000000;stroke-width:0.8;" x="391.927995" xlink:href="#m3117abc268" y="307.584"/>
      </g>
     </g>
     <g id="text_5">
      <!-- 40 -->
      <g transform="translate(385.565495 322.182437)scale(0.1 -0.1)">
       <use xlink:href="#DejaVuSans-52"/>
       <use x="63.623047" xlink:href="#DejaVuSans-48"/>
      </g>
     </g>
    </g>
   </g>
   <g id="matplotlib.axis_2">
    <g id="ytick_1">
     <g id="line2d_6">
      <defs>
       <path d="M 0 0 
L -3.5 0 
" id="m7bcefaee26" style="stroke:#000000;stroke-width:0.8;"/>
      </defs>
      <g>
       <use style="stroke:#000000;stroke-width:0.8;" x="57.6" xlink:href="#m7bcefaee26" y="273.205932"/>
      </g>
     </g>
     <g id="text_6">
      <!-- −20 -->
      <g transform="translate(29.495313 277.005151)scale(0.1 -0.1)">
       <use xlink:href="#DejaVuSans-8722"/>
       <use x="83.789062" xlink:href="#DejaVuSans-50"/>
       <use x="147.412109" xlink:href="#DejaVuSans-48"/>
      </g>
     </g>
    </g>
    <g id="ytick_2">
     <g id="line2d_7">
      <g>
       <use style="stroke:#000000;stroke-width:0.8;" x="57.6" xlink:href="#m7bcefaee26" y="234.969389"/>
      </g>
     </g>
     <g id="text_7">
      <!-- −10 -->
      <defs>
       <path d="M 12.40625 8.296875 
L 28.515625 8.296875 
L 28.515625 63.921875 
L 10.984375 60.40625 
L 10.984375 69.390625 
L 28.421875 72.90625 
L 38.28125 72.90625 
L 38.28125 8.296875 
L 54.390625 8.296875 
L 54.390625 0 
L 12.40625 0 
z
" id="DejaVuSans-49"/>
      </defs>
      <g transform="translate(29.495313 238.768608)scale(0.1 -0.1)">
       <use xlink:href="#DejaVuSans-8722"/>
       <use x="83.789062" xlink:href="#DejaVuSans-49"/>
       <use x="147.412109" xlink:href="#DejaVuSans-48"/>
      </g>
     </g>
    </g>
    <g id="ytick_3">
     <g id="line2d_8">
      <g>
       <use style="stroke:#000000;stroke-width:0.8;" x="57.6" xlink:href="#m7bcefaee26" y="196.732846"/>
      </g>
     </g>
     <g id="text_8">
      <!-- 0 -->
      <g transform="translate(44.2375 200.532065)scale(0.1 -0.1)">
       <use xlink:href="#DejaVuSans-48"/>
      </g>
     </g>
    </g>
    <g id="ytick_4">
     <g id="line2d_9">
      <g>
       <use style="stroke:#000000;stroke-width:0.8;" x="57.6" xlink:href="#m7bcefaee26" y="158.496303"/>
      </g>
     </g>
     <g id="text_9">
      <!-- 10 -->
      <g transform="translate(37.875 162.295522)scale(0.1 -0.1)">
       <use xlink:href="#DejaVuSans-49"/>
       <use x="63.623047" xlink:href="#DejaVuSans-48"/>
      </g>
     </g>
    </g>
    <g id="ytick_5">
     <g id="line2d_10">
      <g>
       <use style="stroke:#000000;stroke-width:0.8;" x="57.6" xlink:href="#m7bcefaee26" y="120.259761"/>
      </g>
     </g>
     <g id="text_10">
      <!-- 20 -->
      <g transform="translate(37.875 124.058979)scale(0.1 -0.1)">
       <use xlink:href="#DejaVuSans-50"/>
       <use x="63.623047" xlink:href="#DejaVuSans-48"/>
      </g>
     </g>
    </g>
    <g id="ytick_6">
     <g id="line2d_11">
      <g>
       <use style="stroke:#000000;stroke-width:0.8;" x="57.6" xlink:href="#m7bcefaee26" y="82.023218"/>
      </g>
     </g>
     <g id="text_11">
      <!-- 30 -->
      <defs>
       <path d="M 40.578125 39.3125 
Q 47.65625 37.796875 51.625 33 
Q 55.609375 28.21875 55.609375 21.1875 
Q 55.609375 10.40625 48.1875 4.484375 
Q 40.765625 -1.421875 27.09375 -1.421875 
Q 22.515625 -1.421875 17.65625 -0.515625 
Q 12.796875 0.390625 7.625 2.203125 
L 7.625 11.71875 
Q 11.71875 9.328125 16.59375 8.109375 
Q 21.484375 6.890625 26.8125 6.890625 
Q 36.078125 6.890625 40.9375 10.546875 
Q 45.796875 14.203125 45.796875 21.1875 
Q 45.796875 27.640625 41.28125 31.265625 
Q 36.765625 34.90625 28.71875 34.90625 
L 20.21875 34.90625 
L 20.21875 43.015625 
L 29.109375 43.015625 
Q 36.375 43.015625 40.234375 45.921875 
Q 44.09375 48.828125 44.09375 54.296875 
Q 44.09375 59.90625 40.109375 62.90625 
Q 36.140625 65.921875 28.71875 65.921875 
Q 24.65625 65.921875 20.015625 65.03125 
Q 15.375 64.15625 9.8125 62.3125 
L 9.8125 71.09375 
Q 15.4375 72.65625 20.34375 73.4375 
Q 25.25 74.21875 29.59375 74.21875 
Q 40.828125 74.21875 47.359375 69.109375 
Q 53.90625 64.015625 53.90625 55.328125 
Q 53.90625 49.265625 50.4375 45.09375 
Q 46.96875 40.921875 40.578125 39.3125 
z
" id="DejaVuSans-51"/>
      </defs>
      <g transform="translate(37.875 85.822437)scale(0.1 -0.1)">
       <use xlink:href="#DejaVuSans-51"/>
       <use x="63.623047" xlink:href="#DejaVuSans-48"/>
      </g>
     </g>
    </g>
    <g id="ytick_7">
     <g id="line2d_12">
      <g>
       <use style="stroke:#000000;stroke-width:0.8;" x="57.6" xlink:href="#m7bcefaee26" y="43.786675"/>
      </g>
     </g>
     <g id="text_12">
      <!-- 40 -->
      <g transform="translate(37.875 47.585894)scale(0.1 -0.1)">
       <use xlink:href="#DejaVuSans-52"/>
       <use x="63.623047" xlink:href="#DejaVuSans-48"/>
      </g>
     </g>
    </g>
   </g>
   <g id="line2d_13">
    <path clip-path="url(#p03ef79f0bf)" d="M 238.981824 196.732846 
L 238.981824 196.732846 
L 238.964247 196.382819 
L 238.943544 196.022651 
L 238.914781 195.648966 
L 238.872345 195.251907 
L 238.818412 194.816662 
L 238.752404 194.331837 
L 238.66539 193.800334 
L 238.564855 193.218218 
L 238.440648 192.595985 
L 238.287426 191.948009 
L 238.092578 191.28168 
L 237.859738 190.59917 
L 237.598994 189.893705 
L 237.312323 189.164951 
L 236.983995 188.423969 
L 236.610799 187.6756 
L 236.210266 186.922539 
L 235.771891 186.186118 
L 235.277624 185.451476 
L 234.761913 184.7186 
L 234.229924 183.988205 
L 233.657481 183.262005 
L 232.999923 182.561363 
L 232.246197 181.89438 
L 231.451668 181.248966 
L 230.616299 180.612763 
L 229.745683 179.976098 
L 228.798874 179.370496 
L 227.781901 178.808779 
L 226.686817 178.285879 
L 225.530823 177.812724 
L 224.310634 177.39559 
L 223.009923 177.027766 
L 221.644094 176.720627 
L 220.203571 176.458107 
L 218.719022 176.234454 
L 217.181806 176.078636 
L 215.573064 176.003708 
L 213.902498 175.979297 
L 212.181483 175.99328 
L 210.406026 176.044212 
L 208.582201 176.126095 
L 206.692547 176.262362 
L 204.74862 176.426455 
L 202.732139 176.605631 
L 200.65726 176.806916 
L 198.530582 177.029269 
L 196.337602 177.276717 
L 194.094378 177.515619 
L 191.782176 177.749011 
L 189.410937 177.990012 
L 186.979552 178.242874 
L 184.488479 178.504626 
L 181.9581 178.771754 
L 179.356829 179.029331 
L 176.690748 179.284357 
L 173.961424 179.546935 
L 171.176121 179.807318 
L 168.351932 180.064585 
L 165.474861 180.325607 
L 162.55336 180.585088 
L 159.552671 180.819069 
L 156.526707 181.055034 
L 153.468893 181.300727 
L 150.410122 181.549042 
L 147.330742 181.786296 
L 144.19546 182.015402 
L 141.02416 182.256189 
L 137.802731 182.522835 
L 134.567193 182.796575 
L 131.334982 183.084156 
L 128.10495 183.377212 
L 124.894648 183.661837 
L 121.694134 183.938723 
L 118.476071 184.221888 
L 115.269707 184.501661 
L 112.05497 184.78918 
L 108.877169 185.065879 
L 105.689082 185.336988 
L 102.491169 185.603638 
L 99.290541 185.861673 
L 96.077524 186.121938 
L 92.861793 186.382271 
L 89.671259 186.642777 
L 86.488105 186.897425 
L 83.314319 187.155334 
L 80.153343 187.417836 
L 76.991945 187.697276 
L 73.832727 187.975894 
" style="fill:none;stroke:#008000;stroke-linecap:square;stroke-width:1.5;"/>
   </g>
   <g id="line2d_14">
    <path clip-path="url(#p03ef79f0bf)" d="M 238.981824 196.732846 
L 238.981824 196.732846 
L 238.945326 196.38425 
L 238.908583 196.025374 
L 238.876705 195.651928 
L 238.842851 195.254253 
L 238.829016 194.816123 
L 238.802392 194.327647 
L 238.788723 193.789957 
L 238.778522 193.199693 
L 238.782536 192.565292 
L 238.819581 191.900389 
L 238.895162 191.209864 
L 239.009427 190.497099 
L 239.106009 189.750564 
L 239.221969 188.97626 
L 239.40349 188.186416 
L 239.604236 187.374688 
L 239.832871 186.553408 
L 240.116401 185.744745 
L 240.440053 184.920599 
L 240.762645 184.084987 
L 241.104485 183.249195 
L 241.508726 182.417636 
L 242.009734 181.597767 
L 242.589808 180.775187 
L 243.207237 179.958826 
L 243.886641 179.158215 
L 244.594673 178.344714 
L 245.384909 177.54607 
L 246.264881 176.787554 
L 247.190998 176.003424 
L 248.201855 175.270396 
L 249.301138 174.596669 
L 250.483913 173.942692 
L 251.748657 173.342711 
L 253.086409 172.747347 
L 254.482945 172.196572 
L 255.950618 171.713744 
L 257.504437 171.290618 
L 259.127494 170.894105 
L 260.815372 170.556127 
L 262.560505 170.224994 
L 264.356669 169.898291 
L 266.231876 169.627495 
L 268.166531 169.376235 
L 270.173662 169.112474 
L 272.243871 168.867004 
L 274.36679 168.610649 
L 276.560089 168.365743 
L 278.801807 168.111332 
L 281.109281 167.833027 
L 283.473494 167.528807 
L 285.903518 167.262591 
L 288.392569 166.98125 
L 290.916765 166.65962 
L 293.514381 166.365692 
L 296.170544 166.023386 
L 298.893719 165.701438 
L 301.669565 165.352158 
L 304.484927 165.007191 
L 307.352462 164.656722 
L 310.267714 164.329771 
L 313.24637 163.895459 
L 316.248925 163.450192 
L 319.28738 163.023939 
L 322.329073 162.614253 
L 325.386195 162.174101 
L 328.499609 161.73792 
L 331.65487 161.336238 
L 334.85771 160.898011 
L 338.07936 160.490876 
L 341.298812 160.080401 
L 344.513076 159.644738 
L 347.706545 159.209053 
L 350.88863 158.765864 
L 354.094465 158.363616 
L 357.28629 157.947211 
L 360.487052 157.530051 
L 363.648468 157.104985 
L 366.822873 156.702368 
L 369.999297 156.246525 
L 373.178732 155.797377 
L 376.372406 155.35954 
L 379.558346 154.851035 
L 382.733269 154.44081 
L 385.893772 153.983397 
L 389.050305 153.560247 
L 392.196021 153.150497 
L 395.341857 152.730769 
L 398.487273 152.323154 
" style="fill:none;stroke:#0000ff;stroke-linecap:square;stroke-width:1.5;"/>
   </g>
   <g id="line2d_15">
    <path clip-path="url(#p03ef79f0bf)" d="M 238.981824 196.732846 
L 238.981824 196.732846 
L 238.966643 196.382661 
L 238.930505 196.023637 
L 238.895753 195.650412 
L 238.882265 195.251715 
L 238.831053 194.816167 
L 238.753099 194.333119 
L 238.359198 193.972667 
L 238.246378 193.392787 
L 238.124901 192.769985 
L 237.94837 192.127793 
L 237.814778 191.446078 
L 237.614991 190.752696 
L 237.359106 190.045007 
L 237.252483 189.270521 
L 236.923141 188.530952 
L 236.549309 187.783489 
L 236.153783 187.027731 
L 235.714831 186.291624 
L 234.916643 185.922782 
L 234.429839 185.170224 
L 233.928752 184.418152 
L 233.37675 183.676485 
L 232.838364 182.882814 
L 232.096669 182.203335 
L 231.335486 181.518977 
L 230.506761 180.874199 
L 229.660346 180.205775 
L 228.745038 179.553541 
L 227.754136 178.947085 
L 226.69966 178.346558 
L 225.561978 177.83115 
L 224.368497 177.342629 
L 223.089738 176.916669 
L 221.739172 176.547808 
L 220.309494 176.231174 
L 218.83242 175.962467 
L 217.299815 175.766065 
L 215.693524 175.649058 
L 214.02418 175.575194 
L 212.302843 175.557301 
L 210.526494 175.565642 
L 208.701198 175.606229 
L 206.808874 175.701378 
L 204.861857 175.824851 
L 202.841518 175.954866 
L 202.308872 173.94306 
L 200.177373 174.113987 
L 197.979059 174.308773 
L 195.731073 174.500205 
L 193.413766 174.67936 
L 191.035793 174.845073 
L 188.599927 175.05137 
L 186.104986 175.274836 
L 183.566974 175.458832 
L 180.962886 175.68971 
L 178.291012 175.874463 
L 175.557109 176.088036 
L 172.766464 176.287867 
L 169.937619 176.495838 
L 167.056248 176.706378 
L 164.129406 176.904823 
L 161.123428 177.065208 
L 158.091709 177.216842 
L 155.028799 177.398123 
L 151.966018 177.596664 
L 148.881989 177.766537 
L 145.742898 177.940078 
L 142.566997 178.11504 
L 139.340669 178.317641 
L 136.100948 178.539925 
L 132.862931 178.760756 
L 129.625304 178.959657 
L 126.40793 179.152262 
L 123.200861 179.346189 
L 119.977099 179.562424 
L 116.765758 179.783058 
L 113.545546 180.006171 
L 110.361718 180.204244 
L 107.169527 180.425759 
L 103.965302 180.602123 
L 100.759076 180.778467 
L 99.201022 177.956286 
L 95.998827 178.351149 
L 92.825685 178.775457 
L 89.655109 179.156968 
L 86.497762 179.574153 
L 83.482691 178.590748 
L 80.345229 179.069337 
L 77.211434 179.558201 
" style="fill:none;stroke:#ff0000;stroke-linecap:square;stroke-width:1.5;"/>
   </g>
   <g id="patch_3">
    <path d="M 57.6 307.584 
L 57.6 41.472 
" style="fill:none;stroke:#000000;stroke-linecap:square;stroke-linejoin:miter;stroke-width:0.8;"/>
   </g>
   <g id="patch_4">
    <path d="M 414.72 307.584 
L 414.72 41.472 
" style="fill:none;stroke:#000000;stroke-linecap:square;stroke-linejoin:miter;stroke-width:0.8;"/>
   </g>
   <g id="patch_5">
    <path d="M 57.6 307.584 
L 414.72 307.584 
" style="fill:none;stroke:#000000;stroke-linecap:square;stroke-linejoin:miter;stroke-width:0.8;"/>
   </g>
   <g id="patch_6">
    <path d="M 57.6 41.472 
L 414.72 41.472 
" style="fill:none;stroke:#000000;stroke-linecap:square;stroke-linejoin:miter;stroke-width:0.8;"/>
   </g>
  </g>
 </g>
 <defs>
  <clipPath id="p03ef79f0bf">
   <rect height="266.112" width="357.12" x="57.6" y="41.472"/>
  </clipPath>
 </defs>
</svg>
