<?xml version="1.0" encoding="utf-8" standalone="no"?>
<!DOCTYPE svg PUBLIC "-//W3C//DTD SVG 1.1//EN"
  "http://www.w3.org/Graphics/SVG/1.1/DTD/svg11.dtd">
<!-- Created with matplotlib (https://matplotlib.org/) -->
<svg height="345.6pt" version="1.1" viewBox="0 0 460.8 345.6" width="460.8pt" xmlns="http://www.w3.org/2000/svg" xmlns:xlink="http://www.w3.org/1999/xlink">
 <defs>
  <style type="text/css">
*{stroke-linecap:butt;stroke-linejoin:round;}
  </style>
 </defs>
 <g id="figure_1">
  <g id="patch_1">
   <path d="M 0 345.6 
L 460.8 345.6 
L 460.8 0 
L 0 0 
z
" style="fill:#ffffff;"/>
  </g>
  <g id="axes_1">
   <g id="patch_2">
    <path d="M 57.6 307.584 
L 414.72 307.584 
L 414.72 41.472 
L 57.6 41.472 
z
" style="fill:#ffffff;"/>
   </g>
   <g id="matplotlib.axis_1">
    <g id="xtick_1">
     <g id="line2d_1">
      <defs>
       <path d="M 0 0 
L 0 3.5 
" id="m9213482f64" style="stroke:#000000;stroke-width:0.8;"/>
      </defs>
      <g>
       <use style="stroke:#000000;stroke-width:0.8;" x="71.072055" xlink:href="#m9213482f64" y="307.584"/>
      </g>
     </g>
     <g id="text_1">
      <!-- −40 -->
      <defs>
       <path d="M 10.59375 35.5 
L 73.1875 35.5 
L 73.1875 27.203125 
L 10.59375 27.203125 
z
" id="DejaVuSans-8722"/>
       <path d="M 37.796875 64.3125 
L 12.890625 25.390625 
L 37.796875 25.390625 
z
M 35.203125 72.90625 
L 47.609375 72.90625 
L 47.609375 25.390625 
L 58.015625 25.390625 
L 58.015625 17.1875 
L 47.609375 17.1875 
L 47.609375 0 
L 37.796875 0 
L 37.796875 17.1875 
L 4.890625 17.1875 
L 4.890625 26.703125 
z
" id="DejaVuSans-52"/>
       <path d="M 31.78125 66.40625 
Q 24.171875 66.40625 20.328125 58.90625 
Q 16.5 51.421875 16.5 36.375 
Q 16.5 21.390625 20.328125 13.890625 
Q 24.171875 6.390625 31.78125 6.390625 
Q 39.453125 6.390625 43.28125 13.890625 
Q 47.125 21.390625 47.125 36.375 
Q 47.125 51.421875 43.28125 58.90625 
Q 39.453125 66.40625 31.78125 66.40625 
z
M 31.78125 74.21875 
Q 44.046875 74.21875 50.515625 64.515625 
Q 56.984375 54.828125 56.984375 36.375 
Q 56.984375 17.96875 50.515625 8.265625 
Q 44.046875 -1.421875 31.78125 -1.421875 
Q 19.53125 -1.421875 13.0625 8.265625 
Q 6.59375 17.96875 6.59375 36.375 
Q 6.59375 54.828125 13.0625 64.515625 
Q 19.53125 74.21875 31.78125 74.21875 
z
" id="DejaVuSans-48"/>
      </defs>
      <g transform="translate(60.519711 322.182437)scale(0.1 -0.1)">
       <use xlink:href="#DejaVuSans-8722"/>
       <use x="83.789062" xlink:href="#DejaVuSans-52"/>
       <use x="147.412109" xlink:href="#DejaVuSans-48"/>
      </g>
     </g>
    </g>
    <g id="xtick_2">
     <g id="line2d_2">
      <g>
       <use style="stroke:#000000;stroke-width:0.8;" x="132.278748" xlink:href="#m9213482f64" y="307.584"/>
      </g>
     </g>
     <g id="text_2">
      <!-- −20 -->
      <defs>
       <path d="M 19.1875 8.296875 
L 53.609375 8.296875 
L 53.609375 0 
L 7.328125 0 
L 7.328125 8.296875 
Q 12.9375 14.109375 22.625 23.890625 
Q 32.328125 33.6875 34.8125 36.53125 
Q 39.546875 41.84375 41.421875 45.53125 
Q 43.3125 49.21875 43.3125 52.78125 
Q 43.3125 58.59375 39.234375 62.25 
Q 35.15625 65.921875 28.609375 65.921875 
Q 23.96875 65.921875 18.8125 64.3125 
Q 13.671875 62.703125 7.8125 59.421875 
L 7.8125 69.390625 
Q 13.765625 71.78125 18.9375 73 
Q 24.125 74.21875 28.421875 74.21875 
Q 39.75 74.21875 46.484375 68.546875 
Q 53.21875 62.890625 53.21875 53.421875 
Q 53.21875 48.921875 51.53125 44.890625 
Q 49.859375 40.875 45.40625 35.40625 
Q 44.1875 33.984375 37.640625 27.21875 
Q 31.109375 20.453125 19.1875 8.296875 
z
" id="DejaVuSans-50"/>
      </defs>
      <g transform="translate(121.726405 322.182437)scale(0.1 -0.1)">
       <use xlink:href="#DejaVuSans-8722"/>
       <use x="83.789062" xlink:href="#DejaVuSans-50"/>
       <use x="147.412109" xlink:href="#DejaVuSans-48"/>
      </g>
     </g>
    </g>
    <g id="xtick_3">
     <g id="line2d_3">
      <g>
       <use style="stroke:#000000;stroke-width:0.8;" x="193.485442" xlink:href="#m9213482f64" y="307.584"/>
      </g>
     </g>
     <g id="text_3">
      <!-- 0 -->
      <g transform="translate(190.304192 322.182437)scale(0.1 -0.1)">
       <use xlink:href="#DejaVuSans-48"/>
      </g>
     </g>
    </g>
    <g id="xtick_4">
     <g id="line2d_4">
      <g>
       <use style="stroke:#000000;stroke-width:0.8;" x="254.692135" xlink:href="#m9213482f64" y="307.584"/>
      </g>
     </g>
     <g id="text_4">
      <!-- 20 -->
      <g transform="translate(248.329635 322.182437)scale(0.1 -0.1)">
       <use xlink:href="#DejaVuSans-50"/>
       <use x="63.623047" xlink:href="#DejaVuSans-48"/>
      </g>
     </g>
    </g>
    <g id="xtick_5">
     <g id="line2d_5">
      <g>
       <use style="stroke:#000000;stroke-width:0.8;" x="315.898829" xlink:href="#m9213482f64" y="307.584"/>
      </g>
     </g>
     <g id="text_5">
      <!-- 40 -->
      <g transform="translate(309.536329 322.182437)scale(0.1 -0.1)">
       <use xlink:href="#DejaVuSans-52"/>
       <use x="63.623047" xlink:href="#DejaVuSans-48"/>
      </g>
     </g>
    </g>
    <g id="xtick_6">
     <g id="line2d_6">
      <g>
       <use style="stroke:#000000;stroke-width:0.8;" x="377.105523" xlink:href="#m9213482f64" y="307.584"/>
      </g>
     </g>
     <g id="text_6">
      <!-- 60 -->
      <defs>
       <path d="M 33.015625 40.375 
Q 26.375 40.375 22.484375 35.828125 
Q 18.609375 31.296875 18.609375 23.390625 
Q 18.609375 15.53125 22.484375 10.953125 
Q 26.375 6.390625 33.015625 6.390625 
Q 39.65625 6.390625 43.53125 10.953125 
Q 47.40625 15.53125 47.40625 23.390625 
Q 47.40625 31.296875 43.53125 35.828125 
Q 39.65625 40.375 33.015625 40.375 
z
M 52.59375 71.296875 
L 52.59375 62.3125 
Q 48.875 64.0625 45.09375 64.984375 
Q 41.3125 65.921875 37.59375 65.921875 
Q 27.828125 65.921875 22.671875 59.328125 
Q 17.53125 52.734375 16.796875 39.40625 
Q 19.671875 43.65625 24.015625 45.921875 
Q 28.375 48.1875 33.59375 48.1875 
Q 44.578125 48.1875 50.953125 41.515625 
Q 57.328125 34.859375 57.328125 23.390625 
Q 57.328125 12.15625 50.6875 5.359375 
Q 44.046875 -1.421875 33.015625 -1.421875 
Q 20.359375 -1.421875 13.671875 8.265625 
Q 6.984375 17.96875 6.984375 36.375 
Q 6.984375 53.65625 15.1875 63.9375 
Q 23.390625 74.21875 37.203125 74.21875 
Q 40.921875 74.21875 44.703125 73.484375 
Q 48.484375 72.75 52.59375 71.296875 
z
" id="DejaVuSans-54"/>
      </defs>
      <g transform="translate(370.743023 322.182437)scale(0.1 -0.1)">
       <use xlink:href="#DejaVuSans-54"/>
       <use x="63.623047" xlink:href="#DejaVuSans-48"/>
      </g>
     </g>
    </g>
   </g>
   <g id="matplotlib.axis_2">
    <g id="ytick_1">
     <g id="line2d_7">
      <defs>
       <path d="M 0 0 
L -3.5 0 
" id="m9b8f4d153c" style="stroke:#000000;stroke-width:0.8;"/>
      </defs>
      <g>
       <use style="stroke:#000000;stroke-width:0.8;" x="57.6" xlink:href="#m9b8f4d153c" y="295.488"/>
      </g>
     </g>
     <g id="text_7">
      <!-- 0 -->
      <g transform="translate(44.2375 299.287219)scale(0.1 -0.1)">
       <use xlink:href="#DejaVuSans-48"/>
      </g>
     </g>
    </g>
    <g id="ytick_2">
     <g id="line2d_8">
      <g>
       <use style="stroke:#000000;stroke-width:0.8;" x="57.6" xlink:href="#m9b8f4d153c" y="264.884653"/>
      </g>
     </g>
     <g id="text_8">
      <!-- 10 -->
      <defs>
       <path d="M 12.40625 8.296875 
L 28.515625 8.296875 
L 28.515625 63.921875 
L 10.984375 60.40625 
L 10.984375 69.390625 
L 28.421875 72.90625 
L 38.28125 72.90625 
L 38.28125 8.296875 
L 54.390625 8.296875 
L 54.390625 0 
L 12.40625 0 
z
" id="DejaVuSans-49"/>
      </defs>
      <g transform="translate(37.875 268.683872)scale(0.1 -0.1)">
       <use xlink:href="#DejaVuSans-49"/>
       <use x="63.623047" xlink:href="#DejaVuSans-48"/>
      </g>
     </g>
    </g>
    <g id="ytick_3">
     <g id="line2d_9">
      <g>
       <use style="stroke:#000000;stroke-width:0.8;" x="57.6" xlink:href="#m9b8f4d153c" y="234.281306"/>
      </g>
     </g>
     <g id="text_9">
      <!-- 20 -->
      <g transform="translate(37.875 238.080525)scale(0.1 -0.1)">
       <use xlink:href="#DejaVuSans-50"/>
       <use x="63.623047" xlink:href="#DejaVuSans-48"/>
      </g>
     </g>
    </g>
    <g id="ytick_4">
     <g id="line2d_10">
      <g>
       <use style="stroke:#000000;stroke-width:0.8;" x="57.6" xlink:href="#m9b8f4d153c" y="203.67796"/>
      </g>
     </g>
     <g id="text_10">
      <!-- 30 -->
      <defs>
       <path d="M 40.578125 39.3125 
Q 47.65625 37.796875 51.625 33 
Q 55.609375 28.21875 55.609375 21.1875 
Q 55.609375 10.40625 48.1875 4.484375 
Q 40.765625 -1.421875 27.09375 -1.421875 
Q 22.515625 -1.421875 17.65625 -0.515625 
Q 12.796875 0.390625 7.625 2.203125 
L 7.625 11.71875 
Q 11.71875 9.328125 16.59375 8.109375 
Q 21.484375 6.890625 26.8125 6.890625 
Q 36.078125 6.890625 40.9375 10.546875 
Q 45.796875 14.203125 45.796875 21.1875 
Q 45.796875 27.640625 41.28125 31.265625 
Q 36.765625 34.90625 28.71875 34.90625 
L 20.21875 34.90625 
L 20.21875 43.015625 
L 29.109375 43.015625 
Q 36.375 43.015625 40.234375 45.921875 
Q 44.09375 48.828125 44.09375 54.296875 
Q 44.09375 59.90625 40.109375 62.90625 
Q 36.140625 65.921875 28.71875 65.921875 
Q 24.65625 65.921875 20.015625 65.03125 
Q 15.375 64.15625 9.8125 62.3125 
L 9.8125 71.09375 
Q 15.4375 72.65625 20.34375 73.4375 
Q 25.25 74.21875 29.59375 74.21875 
Q 40.828125 74.21875 47.359375 69.109375 
Q 53.90625 64.015625 53.90625 55.328125 
Q 53.90625 49.265625 50.4375 45.09375 
Q 46.96875 40.921875 40.578125 39.3125 
z
" id="DejaVuSans-51"/>
      </defs>
      <g transform="translate(37.875 207.477178)scale(0.1 -0.1)">
       <use xlink:href="#DejaVuSans-51"/>
       <use x="63.623047" xlink:href="#DejaVuSans-48"/>
      </g>
     </g>
    </g>
    <g id="ytick_5">
     <g id="line2d_11">
      <g>
       <use style="stroke:#000000;stroke-width:0.8;" x="57.6" xlink:href="#m9b8f4d153c" y="173.074613"/>
      </g>
     </g>
     <g id="text_11">
      <!-- 40 -->
      <g transform="translate(37.875 176.873832)scale(0.1 -0.1)">
       <use xlink:href="#DejaVuSans-52"/>
       <use x="63.623047" xlink:href="#DejaVuSans-48"/>
      </g>
     </g>
    </g>
    <g id="ytick_6">
     <g id="line2d_12">
      <g>
       <use style="stroke:#000000;stroke-width:0.8;" x="57.6" xlink:href="#m9b8f4d153c" y="142.471266"/>
      </g>
     </g>
     <g id="text_12">
      <!-- 50 -->
      <defs>
       <path d="M 10.796875 72.90625 
L 49.515625 72.90625 
L 49.515625 64.59375 
L 19.828125 64.59375 
L 19.828125 46.734375 
Q 21.96875 47.46875 24.109375 47.828125 
Q 26.265625 48.1875 28.421875 48.1875 
Q 40.625 48.1875 47.75 41.5 
Q 54.890625 34.8125 54.890625 23.390625 
Q 54.890625 11.625 47.5625 5.09375 
Q 40.234375 -1.421875 26.90625 -1.421875 
Q 22.3125 -1.421875 17.546875 -0.640625 
Q 12.796875 0.140625 7.71875 1.703125 
L 7.71875 11.625 
Q 12.109375 9.234375 16.796875 8.0625 
Q 21.484375 6.890625 26.703125 6.890625 
Q 35.15625 6.890625 40.078125 11.328125 
Q 45.015625 15.765625 45.015625 23.390625 
Q 45.015625 31 40.078125 35.4375 
Q 35.15625 39.890625 26.703125 39.890625 
Q 22.75 39.890625 18.8125 39.015625 
Q 14.890625 38.140625 10.796875 36.28125 
z
" id="DejaVuSans-53"/>
      </defs>
      <g transform="translate(37.875 146.270485)scale(0.1 -0.1)">
       <use xlink:href="#DejaVuSans-53"/>
       <use x="63.623047" xlink:href="#DejaVuSans-48"/>
      </g>
     </g>
    </g>
    <g id="ytick_7">
     <g id="line2d_13">
      <g>
       <use style="stroke:#000000;stroke-width:0.8;" x="57.6" xlink:href="#m9b8f4d153c" y="111.867919"/>
      </g>
     </g>
     <g id="text_13">
      <!-- 60 -->
      <g transform="translate(37.875 115.667138)scale(0.1 -0.1)">
       <use xlink:href="#DejaVuSans-54"/>
       <use x="63.623047" xlink:href="#DejaVuSans-48"/>
      </g>
     </g>
    </g>
    <g id="ytick_8">
     <g id="line2d_14">
      <g>
       <use style="stroke:#000000;stroke-width:0.8;" x="57.6" xlink:href="#m9b8f4d153c" y="81.264573"/>
      </g>
     </g>
     <g id="text_14">
      <!-- 70 -->
      <defs>
       <path d="M 8.203125 72.90625 
L 55.078125 72.90625 
L 55.078125 68.703125 
L 28.609375 0 
L 18.3125 0 
L 43.21875 64.59375 
L 8.203125 64.59375 
z
" id="DejaVuSans-55"/>
      </defs>
      <g transform="translate(37.875 85.063791)scale(0.1 -0.1)">
       <use xlink:href="#DejaVuSans-55"/>
       <use x="63.623047" xlink:href="#DejaVuSans-48"/>
      </g>
     </g>
    </g>
    <g id="ytick_9">
     <g id="line2d_15">
      <g>
       <use style="stroke:#000000;stroke-width:0.8;" x="57.6" xlink:href="#m9b8f4d153c" y="50.661226"/>
      </g>
     </g>
     <g id="text_15">
      <!-- 80 -->
      <defs>
       <path d="M 31.78125 34.625 
Q 24.75 34.625 20.71875 30.859375 
Q 16.703125 27.09375 16.703125 20.515625 
Q 16.703125 13.921875 20.71875 10.15625 
Q 24.75 6.390625 31.78125 6.390625 
Q 38.8125 6.390625 42.859375 10.171875 
Q 46.921875 13.96875 46.921875 20.515625 
Q 46.921875 27.09375 42.890625 30.859375 
Q 38.875 34.625 31.78125 34.625 
z
M 21.921875 38.8125 
Q 15.578125 40.375 12.03125 44.71875 
Q 8.5 49.078125 8.5 55.328125 
Q 8.5 64.0625 14.71875 69.140625 
Q 20.953125 74.21875 31.78125 74.21875 
Q 42.671875 74.21875 48.875 69.140625 
Q 55.078125 64.0625 55.078125 55.328125 
Q 55.078125 49.078125 51.53125 44.71875 
Q 48 40.375 41.703125 38.8125 
Q 48.828125 37.15625 52.796875 32.3125 
Q 56.78125 27.484375 56.78125 20.515625 
Q 56.78125 9.90625 50.3125 4.234375 
Q 43.84375 -1.421875 31.78125 -1.421875 
Q 19.734375 -1.421875 13.25 4.234375 
Q 6.78125 9.90625 6.78125 20.515625 
Q 6.78125 27.484375 10.78125 32.3125 
Q 14.796875 37.15625 21.921875 38.8125 
z
M 18.3125 54.390625 
Q 18.3125 48.734375 21.84375 45.5625 
Q 25.390625 42.390625 31.78125 42.390625 
Q 38.140625 42.390625 41.71875 45.5625 
Q 45.3125 48.734375 45.3125 54.390625 
Q 45.3125 60.0625 41.71875 63.234375 
Q 38.140625 66.40625 31.78125 66.40625 
Q 25.390625 66.40625 21.84375 63.234375 
Q 18.3125 60.0625 18.3125 54.390625 
z
" id="DejaVuSans-56"/>
      </defs>
      <g transform="translate(37.875 54.460445)scale(0.1 -0.1)">
       <use xlink:href="#DejaVuSans-56"/>
       <use x="63.623047" xlink:href="#DejaVuSans-48"/>
      </g>
     </g>
    </g>
   </g>
   <g id="line2d_16">
    <path clip-path="url(#pfae89fa030)" d="M 193.485442 295.488 
L 193.485442 295.488 
L 193.341903 292.860108 
L 193.198556 290.235624 
L 193.055028 287.607748 
L 192.911673 284.982947 
L 192.768155 282.355077 
L 192.624816 279.730375 
L 192.481292 277.10219 
L 192.337955 274.477341 
L 192.19448 271.849862 
L 192.050962 269.221494 
L 191.907694 266.597596 
L 191.764215 263.969732 
L 191.620753 261.342098 
L 191.477234 258.71682 
L 191.337458 256.10256 
L 191.190729 253.465133 
L 191.039466 250.806314 
L 190.869883 248.11533 
L 190.708841 245.392153 
L 190.544716 242.639198 
L 190.389641 239.871981 
L 190.222342 237.084231 
L 190.061995 234.289808 
L 189.899219 231.485133 
L 189.738738 228.648999 
L 189.565744 225.790952 
L 189.400382 222.928896 
L 189.244592 220.045387 
L 189.088864 217.152789 
L 188.93459 214.252295 
L 188.778571 211.340203 
L 188.630065 208.407209 
L 188.486804 205.443978 
L 188.341108 202.458744 
L 188.194451 199.46188 
L 188.071783 196.464312 
L 187.928382 193.467724 
L 187.760587 190.456661 
L 187.579669 187.363397 
L 187.383906 184.13003 
L 187.177749 180.944252 
L 186.976254 177.752292 
L 186.78035 174.593598 
L 186.580975 171.426457 
L 186.355046 168.297081 
L 186.141471 165.169664 
L 185.941062 162.078756 
L 185.724785 159.003486 
L 185.528523 155.940336 
L 185.339195 152.882419 
L 185.134052 149.838242 
L 184.914075 146.821333 
L 184.698193 143.83004 
L 184.494378 140.825617 
L 184.2969 137.824285 
L 184.102933 134.835684 
L 183.906028 131.867251 
L 183.718323 128.919965 
L 183.542993 125.970598 
L 183.352912 123.03693 
L 183.167481 120.092521 
L 182.960969 117.150039 
L 182.739649 114.238436 
L 182.531913 111.358875 
L 182.340364 108.52831 
L 182.151847 105.72789 
L 181.929511 102.941577 
L 181.721699 100.192142 
L 181.51157 97.490876 
L 181.310733 94.831873 
L 181.101415 92.215562 
L 180.893872 89.635944 
L 180.693261 87.099753 
L 180.494762 84.6005 
L 180.286154 82.139072 
L 180.075254 79.709932 
L 179.880693 77.333949 
L 179.668413 75.029578 
L 179.468466 72.793819 
L 179.272198 70.612596 
L 179.072814 68.486459 
L 178.87011 66.417428 
L 178.681027 64.40994 
L 178.514624 62.479358 
L 178.374498 60.606984 
L 178.227112 58.789176 
L 178.064299 57.010356 
L 177.899978 55.268107 
L 177.774293 53.569958 
" style="fill:none;stroke:#008000;stroke-linecap:square;stroke-width:1.5;"/>
   </g>
   <g id="line2d_17">
    <path clip-path="url(#pfae89fa030)" d="M 193.485442 295.488 
L 193.485442 295.488 
L 193.487475 292.854778 
L 193.444085 290.225324 
L 193.360753 287.593416 
L 193.287578 284.964438 
L 193.184991 282.333438 
L 193.086475 279.705582 
L 192.972293 277.074963 
L 192.8561 274.447573 
L 192.748051 271.817117 
L 192.623158 269.186427 
L 192.461982 266.562241 
L 192.297184 263.934251 
L 192.18575 261.303749 
L 192.033337 258.677634 
L 191.916906 256.061038 
L 191.763598 253.422463 
L 191.622919 250.761658 
L 191.454822 248.06893 
L 191.271147 245.345698 
L 191.122535 242.590524 
L 190.961146 239.822511 
L 190.783039 237.034226 
L 190.598074 234.240127 
L 190.40486 231.436103 
L 190.22248 228.600086 
L 190.04576 225.740843 
L 189.837916 222.879868 
L 189.628896 219.998489 
L 189.434843 217.107252 
L 189.233298 214.208769 
L 189.058619 211.296657 
L 188.871852 208.364729 
L 188.715369 205.400885 
L 188.547489 202.415775 
L 188.381249 199.41897 
L 188.241598 196.421526 
L 188.052126 193.42676 
L 187.869017 190.415877 
L 187.67448 187.321275 
L 187.466703 184.082933 
L 187.243636 180.894065 
L 187.03445 177.698701 
L 186.83963 174.537498 
L 186.597869 171.370495 
L 186.369669 168.239578 
L 186.146117 165.111356 
L 185.951372 162.018898 
L 185.695834 158.945037 
L 185.506465 155.879671 
L 185.307207 152.820829 
L 185.090321 149.775671 
L 184.864337 146.757518 
L 184.638881 143.765301 
L 184.39524 140.76265 
L 184.168429 137.761464 
L 183.973564 134.771574 
L 183.754832 131.803338 
L 183.520681 128.858245 
L 183.312416 125.910007 
L 183.093745 122.977336 
L 182.891607 120.033235 
L 182.678634 117.090773 
L 182.434977 114.180482 
L 182.189583 111.303129 
L 181.928185 108.47725 
L 181.688101 105.679704 
L 181.420692 102.896159 
L 181.165167 100.148966 
L 180.931082 97.448033 
L 180.682857 94.791666 
L 180.447446 92.176546 
L 180.202237 89.598965 
L 179.974171 87.064131 
L 179.729548 84.567892 
L 179.487372 82.108404 
L 179.245244 79.68135 
L 179.030079 77.305891 
L 178.755892 75.00677 
L 178.539481 72.771222 
L 178.28644 70.594722 
L 178.049191 68.471014 
L 177.800794 66.404998 
L 177.554054 64.401643 
L 177.353696 62.472454 
L 177.162561 60.602722 
L 176.990687 58.784821 
L 176.789202 57.007828 
L 176.602668 55.265896 
L 176.45858 53.568 
" style="fill:none;stroke:#0000ff;stroke-linecap:square;stroke-width:1.5;"/>
   </g>
   <g id="line2d_18">
    <path clip-path="url(#pfae89fa030)" d="M 193.485442 295.488 
L 193.485442 295.488 
L 191.966015 293.968573 
L 190.448528 292.451162 
L 188.929081 290.931821 
L 187.411412 289.414289 
L 185.891968 287.895012 
L 184.374357 286.377598 
L 182.854731 284.858201 
L 181.337035 283.340762 
L 179.817819 281.821835 
L 178.298103 280.302408 
L 176.781004 278.785566 
L 175.261641 277.266432 
L 176.780977 275.747263 
L 178.298978 274.229475 
L 179.810422 272.718288 
L 181.335374 271.192894 
L 182.872818 269.655035 
L 184.42974 268.098486 
L 186.004897 266.523771 
L 187.59739 264.931786 
L 189.197764 263.331989 
L 190.810305 261.720076 
L 192.426168 260.103842 
L 194.04808 258.481589 
L 195.688279 256.842145 
L 197.34167 255.18958 
L 198.997189 253.534955 
L 200.664531 251.868581 
L 202.336963 250.197168 
L 204.013543 248.520321 
L 205.697 246.836661 
L 207.392378 245.141148 
L 209.105414 243.429191 
L 210.831115 241.704629 
L 212.563562 239.973394 
L 214.295357 238.241547 
L 216.027103 236.509801 
L 217.768174 234.7688 
L 219.557869 232.979213 
L 221.431021 231.107558 
L 223.276276 229.263853 
L 225.124937 227.416819 
L 226.953358 225.590079 
L 228.786789 223.758408 
L 230.59888 221.948128 
L 232.409372 220.139501 
L 234.198061 218.35269 
L 235.978613 216.574042 
L 237.751643 214.802943 
L 239.521211 213.035339 
L 241.283611 211.274948 
L 243.030553 209.52832 
L 244.762523 207.796731 
L 246.501725 206.059563 
L 248.239315 204.324058 
L 249.969133 202.596384 
L 251.687399 200.880299 
L 253.392777 199.175416 
L 255.098935 197.469804 
L 256.796733 195.774233 
L 258.500427 194.07283 
L 260.203623 192.371992 
L 261.889723 190.688294 
L 263.556698 189.021944 
L 265.194903 187.384418 
L 266.815874 185.764185 
L 268.430246 184.15058 
L 270.023258 182.559965 
L 271.588426 180.99554 
L 273.128584 179.456135 
L 274.644518 177.940964 
L 276.139376 176.446858 
L 277.608829 174.978144 
L 279.056794 173.530907 
L 280.483809 172.106398 
L 281.89225 170.700485 
L 283.269583 169.325681 
L 284.606312 167.989651 
L 285.903064 166.693629 
L 287.168042 165.429414 
L 288.401766 164.196484 
L 289.603473 162.99703 
L 290.769553 161.833184 
L 291.889572 160.71393 
L 292.974779 159.629507 
L 294.029179 158.575911 
L 295.061989 157.545121 
L 296.07393 156.535199 
L 297.058359 155.552765 
" style="fill:none;stroke:#ff0000;stroke-linecap:square;stroke-width:1.5;"/>
   </g>
   <g id="patch_3">
    <path d="M 57.6 307.584 
L 57.6 41.472 
" style="fill:none;stroke:#000000;stroke-linecap:square;stroke-linejoin:miter;stroke-width:0.8;"/>
   </g>
   <g id="patch_4">
    <path d="M 414.72 307.584 
L 414.72 41.472 
" style="fill:none;stroke:#000000;stroke-linecap:square;stroke-linejoin:miter;stroke-width:0.8;"/>
   </g>
   <g id="patch_5">
    <path d="M 57.6 307.584 
L 414.72 307.584 
" style="fill:none;stroke:#000000;stroke-linecap:square;stroke-linejoin:miter;stroke-width:0.8;"/>
   </g>
   <g id="patch_6">
    <path d="M 57.6 41.472 
L 414.72 41.472 
" style="fill:none;stroke:#000000;stroke-linecap:square;stroke-linejoin:miter;stroke-width:0.8;"/>
   </g>
  </g>
 </g>
 <defs>
  <clipPath id="pfae89fa030">
   <rect height="266.112" width="357.12" x="57.6" y="41.472"/>
  </clipPath>
 </defs>
</svg>
