<?xml version="1.0" encoding="utf-8" standalone="no"?>
<!DOCTYPE svg PUBLIC "-//W3C//DTD SVG 1.1//EN"
  "http://www.w3.org/Graphics/SVG/1.1/DTD/svg11.dtd">
<!-- Created with matplotlib (https://matplotlib.org/) -->
<svg height="345.6pt" version="1.1" viewBox="0 0 460.8 345.6" width="460.8pt" xmlns="http://www.w3.org/2000/svg" xmlns:xlink="http://www.w3.org/1999/xlink">
 <defs>
  <style type="text/css">
*{stroke-linecap:butt;stroke-linejoin:round;}
  </style>
 </defs>
 <g id="figure_1">
  <g id="patch_1">
   <path d="M 0 345.6 
L 460.8 345.6 
L 460.8 0 
L 0 0 
z
" style="fill:#ffffff;"/>
  </g>
  <g id="axes_1">
   <g id="patch_2">
    <path d="M 57.6 307.584 
L 414.72 307.584 
L 414.72 41.472 
L 57.6 41.472 
z
" style="fill:#ffffff;"/>
   </g>
   <g id="matplotlib.axis_1">
    <g id="xtick_1">
     <g id="line2d_1">
      <defs>
       <path d="M 0 0 
L 0 3.5 
" id="m6c78b48fd2" style="stroke:#000000;stroke-width:0.8;"/>
      </defs>
      <g>
       <use style="stroke:#000000;stroke-width:0.8;" x="73.832727" xlink:href="#m6c78b48fd2" y="307.584"/>
      </g>
     </g>
     <g id="text_1">
      <!-- 0 -->
      <defs>
       <path d="M 31.78125 66.40625 
Q 24.171875 66.40625 20.328125 58.90625 
Q 16.5 51.421875 16.5 36.375 
Q 16.5 21.390625 20.328125 13.890625 
Q 24.171875 6.390625 31.78125 6.390625 
Q 39.453125 6.390625 43.28125 13.890625 
Q 47.125 21.390625 47.125 36.375 
Q 47.125 51.421875 43.28125 58.90625 
Q 39.453125 66.40625 31.78125 66.40625 
z
M 31.78125 74.21875 
Q 44.046875 74.21875 50.515625 64.515625 
Q 56.984375 54.828125 56.984375 36.375 
Q 56.984375 17.96875 50.515625 8.265625 
Q 44.046875 -1.421875 31.78125 -1.421875 
Q 19.53125 -1.421875 13.0625 8.265625 
Q 6.59375 17.96875 6.59375 36.375 
Q 6.59375 54.828125 13.0625 64.515625 
Q 19.53125 74.21875 31.78125 74.21875 
z
" id="DejaVuSans-48"/>
      </defs>
      <g transform="translate(70.651477 322.182437)scale(0.1 -0.1)">
       <use xlink:href="#DejaVuSans-48"/>
      </g>
     </g>
    </g>
    <g id="xtick_2">
     <g id="line2d_2">
      <g>
       <use style="stroke:#000000;stroke-width:0.8;" x="128.980746" xlink:href="#m6c78b48fd2" y="307.584"/>
      </g>
     </g>
     <g id="text_2">
      <!-- 20 -->
      <defs>
       <path d="M 19.1875 8.296875 
L 53.609375 8.296875 
L 53.609375 0 
L 7.328125 0 
L 7.328125 8.296875 
Q 12.9375 14.109375 22.625 23.890625 
Q 32.328125 33.6875 34.8125 36.53125 
Q 39.546875 41.84375 41.421875 45.53125 
Q 43.3125 49.21875 43.3125 52.78125 
Q 43.3125 58.59375 39.234375 62.25 
Q 35.15625 65.921875 28.609375 65.921875 
Q 23.96875 65.921875 18.8125 64.3125 
Q 13.671875 62.703125 7.8125 59.421875 
L 7.8125 69.390625 
Q 13.765625 71.78125 18.9375 73 
Q 24.125 74.21875 28.421875 74.21875 
Q 39.75 74.21875 46.484375 68.546875 
Q 53.21875 62.890625 53.21875 53.421875 
Q 53.21875 48.921875 51.53125 44.890625 
Q 49.859375 40.875 45.40625 35.40625 
Q 44.1875 33.984375 37.640625 27.21875 
Q 31.109375 20.453125 19.1875 8.296875 
z
" id="DejaVuSans-50"/>
      </defs>
      <g transform="translate(122.618246 322.182437)scale(0.1 -0.1)">
       <use xlink:href="#DejaVuSans-50"/>
       <use x="63.623047" xlink:href="#DejaVuSans-48"/>
      </g>
     </g>
    </g>
    <g id="xtick_3">
     <g id="line2d_3">
      <g>
       <use style="stroke:#000000;stroke-width:0.8;" x="184.128764" xlink:href="#m6c78b48fd2" y="307.584"/>
      </g>
     </g>
     <g id="text_3">
      <!-- 40 -->
      <defs>
       <path d="M 37.796875 64.3125 
L 12.890625 25.390625 
L 37.796875 25.390625 
z
M 35.203125 72.90625 
L 47.609375 72.90625 
L 47.609375 25.390625 
L 58.015625 25.390625 
L 58.015625 17.1875 
L 47.609375 17.1875 
L 47.609375 0 
L 37.796875 0 
L 37.796875 17.1875 
L 4.890625 17.1875 
L 4.890625 26.703125 
z
" id="DejaVuSans-52"/>
      </defs>
      <g transform="translate(177.766264 322.182437)scale(0.1 -0.1)">
       <use xlink:href="#DejaVuSans-52"/>
       <use x="63.623047" xlink:href="#DejaVuSans-48"/>
      </g>
     </g>
    </g>
    <g id="xtick_4">
     <g id="line2d_4">
      <g>
       <use style="stroke:#000000;stroke-width:0.8;" x="239.276783" xlink:href="#m6c78b48fd2" y="307.584"/>
      </g>
     </g>
     <g id="text_4">
      <!-- 60 -->
      <defs>
       <path d="M 33.015625 40.375 
Q 26.375 40.375 22.484375 35.828125 
Q 18.609375 31.296875 18.609375 23.390625 
Q 18.609375 15.53125 22.484375 10.953125 
Q 26.375 6.390625 33.015625 6.390625 
Q 39.65625 6.390625 43.53125 10.953125 
Q 47.40625 15.53125 47.40625 23.390625 
Q 47.40625 31.296875 43.53125 35.828125 
Q 39.65625 40.375 33.015625 40.375 
z
M 52.59375 71.296875 
L 52.59375 62.3125 
Q 48.875 64.0625 45.09375 64.984375 
Q 41.3125 65.921875 37.59375 65.921875 
Q 27.828125 65.921875 22.671875 59.328125 
Q 17.53125 52.734375 16.796875 39.40625 
Q 19.671875 43.65625 24.015625 45.921875 
Q 28.375 48.1875 33.59375 48.1875 
Q 44.578125 48.1875 50.953125 41.515625 
Q 57.328125 34.859375 57.328125 23.390625 
Q 57.328125 12.15625 50.6875 5.359375 
Q 44.046875 -1.421875 33.015625 -1.421875 
Q 20.359375 -1.421875 13.671875 8.265625 
Q 6.984375 17.96875 6.984375 36.375 
Q 6.984375 53.65625 15.1875 63.9375 
Q 23.390625 74.21875 37.203125 74.21875 
Q 40.921875 74.21875 44.703125 73.484375 
Q 48.484375 72.75 52.59375 71.296875 
z
" id="DejaVuSans-54"/>
      </defs>
      <g transform="translate(232.914283 322.182437)scale(0.1 -0.1)">
       <use xlink:href="#DejaVuSans-54"/>
       <use x="63.623047" xlink:href="#DejaVuSans-48"/>
      </g>
     </g>
    </g>
    <g id="xtick_5">
     <g id="line2d_5">
      <g>
       <use style="stroke:#000000;stroke-width:0.8;" x="294.424802" xlink:href="#m6c78b48fd2" y="307.584"/>
      </g>
     </g>
     <g id="text_5">
      <!-- 80 -->
      <defs>
       <path d="M 31.78125 34.625 
Q 24.75 34.625 20.71875 30.859375 
Q 16.703125 27.09375 16.703125 20.515625 
Q 16.703125 13.921875 20.71875 10.15625 
Q 24.75 6.390625 31.78125 6.390625 
Q 38.8125 6.390625 42.859375 10.171875 
Q 46.921875 13.96875 46.921875 20.515625 
Q 46.921875 27.09375 42.890625 30.859375 
Q 38.875 34.625 31.78125 34.625 
z
M 21.921875 38.8125 
Q 15.578125 40.375 12.03125 44.71875 
Q 8.5 49.078125 8.5 55.328125 
Q 8.5 64.0625 14.71875 69.140625 
Q 20.953125 74.21875 31.78125 74.21875 
Q 42.671875 74.21875 48.875 69.140625 
Q 55.078125 64.0625 55.078125 55.328125 
Q 55.078125 49.078125 51.53125 44.71875 
Q 48 40.375 41.703125 38.8125 
Q 48.828125 37.15625 52.796875 32.3125 
Q 56.78125 27.484375 56.78125 20.515625 
Q 56.78125 9.90625 50.3125 4.234375 
Q 43.84375 -1.421875 31.78125 -1.421875 
Q 19.734375 -1.421875 13.25 4.234375 
Q 6.78125 9.90625 6.78125 20.515625 
Q 6.78125 27.484375 10.78125 32.3125 
Q 14.796875 37.15625 21.921875 38.8125 
z
M 18.3125 54.390625 
Q 18.3125 48.734375 21.84375 45.5625 
Q 25.390625 42.390625 31.78125 42.390625 
Q 38.140625 42.390625 41.71875 45.5625 
Q 45.3125 48.734375 45.3125 54.390625 
Q 45.3125 60.0625 41.71875 63.234375 
Q 38.140625 66.40625 31.78125 66.40625 
Q 25.390625 66.40625 21.84375 63.234375 
Q 18.3125 60.0625 18.3125 54.390625 
z
" id="DejaVuSans-56"/>
      </defs>
      <g transform="translate(288.062302 322.182437)scale(0.1 -0.1)">
       <use xlink:href="#DejaVuSans-56"/>
       <use x="63.623047" xlink:href="#DejaVuSans-48"/>
      </g>
     </g>
    </g>
    <g id="xtick_6">
     <g id="line2d_6">
      <g>
       <use style="stroke:#000000;stroke-width:0.8;" x="349.57282" xlink:href="#m6c78b48fd2" y="307.584"/>
      </g>
     </g>
     <g id="text_6">
      <!-- 100 -->
      <defs>
       <path d="M 12.40625 8.296875 
L 28.515625 8.296875 
L 28.515625 63.921875 
L 10.984375 60.40625 
L 10.984375 69.390625 
L 28.421875 72.90625 
L 38.28125 72.90625 
L 38.28125 8.296875 
L 54.390625 8.296875 
L 54.390625 0 
L 12.40625 0 
z
" id="DejaVuSans-49"/>
      </defs>
      <g transform="translate(340.02907 322.182437)scale(0.1 -0.1)">
       <use xlink:href="#DejaVuSans-49"/>
       <use x="63.623047" xlink:href="#DejaVuSans-48"/>
       <use x="127.246094" xlink:href="#DejaVuSans-48"/>
      </g>
     </g>
    </g>
    <g id="xtick_7">
     <g id="line2d_7">
      <g>
       <use style="stroke:#000000;stroke-width:0.8;" x="404.720839" xlink:href="#m6c78b48fd2" y="307.584"/>
      </g>
     </g>
     <g id="text_7">
      <!-- 120 -->
      <g transform="translate(395.177089 322.182437)scale(0.1 -0.1)">
       <use xlink:href="#DejaVuSans-49"/>
       <use x="63.623047" xlink:href="#DejaVuSans-50"/>
       <use x="127.246094" xlink:href="#DejaVuSans-48"/>
      </g>
     </g>
    </g>
   </g>
   <g id="matplotlib.axis_2">
    <g id="ytick_1">
     <g id="line2d_8">
      <defs>
       <path d="M 0 0 
L -3.5 0 
" id="m1cf8367d37" style="stroke:#000000;stroke-width:0.8;"/>
      </defs>
      <g>
       <use style="stroke:#000000;stroke-width:0.8;" x="57.6" xlink:href="#m1cf8367d37" y="259.221509"/>
      </g>
     </g>
     <g id="text_8">
      <!-- −20 -->
      <defs>
       <path d="M 10.59375 35.5 
L 73.1875 35.5 
L 73.1875 27.203125 
L 10.59375 27.203125 
z
" id="DejaVuSans-8722"/>
      </defs>
      <g transform="translate(29.495313 263.020728)scale(0.1 -0.1)">
       <use xlink:href="#DejaVuSans-8722"/>
       <use x="83.789062" xlink:href="#DejaVuSans-50"/>
       <use x="147.412109" xlink:href="#DejaVuSans-48"/>
      </g>
     </g>
    </g>
    <g id="ytick_2">
     <g id="line2d_9">
      <g>
       <use style="stroke:#000000;stroke-width:0.8;" x="57.6" xlink:href="#m1cf8367d37" y="204.07349"/>
      </g>
     </g>
     <g id="text_9">
      <!-- 0 -->
      <g transform="translate(44.2375 207.872709)scale(0.1 -0.1)">
       <use xlink:href="#DejaVuSans-48"/>
      </g>
     </g>
    </g>
    <g id="ytick_3">
     <g id="line2d_10">
      <g>
       <use style="stroke:#000000;stroke-width:0.8;" x="57.6" xlink:href="#m1cf8367d37" y="148.925472"/>
      </g>
     </g>
     <g id="text_10">
      <!-- 20 -->
      <g transform="translate(37.875 152.72469)scale(0.1 -0.1)">
       <use xlink:href="#DejaVuSans-50"/>
       <use x="63.623047" xlink:href="#DejaVuSans-48"/>
      </g>
     </g>
    </g>
    <g id="ytick_4">
     <g id="line2d_11">
      <g>
       <use style="stroke:#000000;stroke-width:0.8;" x="57.6" xlink:href="#m1cf8367d37" y="93.777453"/>
      </g>
     </g>
     <g id="text_11">
      <!-- 40 -->
      <g transform="translate(37.875 97.576672)scale(0.1 -0.1)">
       <use xlink:href="#DejaVuSans-52"/>
       <use x="63.623047" xlink:href="#DejaVuSans-48"/>
      </g>
     </g>
    </g>
   </g>
   <g id="line2d_12">
    <path clip-path="url(#p2818a2458d)" d="M 73.832727 204.07349 
L 73.974862 201.31409 
L 74.236585 198.570658 
L 74.626639 195.837985 
L 75.116988 193.143579 
L 75.755089 190.466711 
L 76.511732 187.838874 
L 77.384478 185.250913 
L 78.386109 182.720308 
L 79.486772 180.232338 
L 80.69503 177.802648 
L 82.011984 175.440167 
L 83.436942 173.147581 
L 84.9635 170.932892 
L 86.603461 168.806163 
L 88.314939 166.764253 
L 90.13851 164.815515 
L 92.038861 162.954682 
L 94.005826 161.182583 
L 96.056425 159.527674 
L 98.166644 157.964944 
L 100.352028 156.512869 
L 102.608191 155.168719 
L 104.917983 153.920195 
L 107.303273 152.77091 
L 109.744731 151.724614 
L 112.223524 150.758338 
L 114.768192 149.87517 
L 117.367097 149.067252 
L 120.008411 148.347542 
L 122.668945 147.704213 
L 125.370591 147.145729 
L 128.130529 146.674076 
L 130.934971 146.281394 
L 133.782953 145.962639 
L 136.67599 145.723627 
L 139.606804 145.576106 
L 142.577821 145.504386 
L 145.589895 145.505544 
L 148.633377 145.573459 
L 151.708595 145.700162 
L 154.818199 145.871892 
L 157.94148 146.086446 
L 161.082297 146.33395 
L 164.239135 146.617632 
L 167.425312 146.944025 
L 170.658116 147.311477 
L 173.951529 147.720537 
L 177.309161 148.156427 
L 180.729799 148.619808 
L 184.195025 149.111508 
L 187.728551 149.624523 
L 191.31673 150.164504 
L 194.973016 150.723678 
L 198.691619 151.303642 
L 202.461345 151.89709 
L 206.286108 152.511632 
L 210.164172 153.135521 
L 214.105159 153.778658 
L 218.089852 154.424524 
L 222.137165 155.079379 
L 226.249746 155.73997 
L 230.416978 156.399485 
L 234.643522 157.068127 
L 238.918431 157.733846 
L 243.273139 158.410678 
L 247.674834 159.086958 
L 252.130297 159.774323 
L 256.628363 160.467148 
L 261.152844 161.156498 
L 265.724284 161.855885 
L 270.334713 162.545705 
L 274.983939 163.24443 
L 279.691429 163.942769 
L 284.431512 164.654151 
L 289.219022 165.366057 
L 294.050264 166.087228 
L 298.90988 166.808013 
L 303.808651 167.539854 
L 308.746108 168.282423 
L 313.741443 169.03489 
L 318.765676 169.803322 
L 323.836922 170.574898 
L 328.93679 171.36721 
L 334.087725 172.172151 
L 339.270536 173.004445 
L 344.4823 173.855103 
L 349.718135 174.735072 
L 354.964366 175.644932 
L 360.24341 176.592877 
L 365.540929 177.570403 
L 370.873191 178.577505 
L 376.2322 179.610971 
L 381.615474 180.672449 
L 387.022461 181.774605 
L 392.444338 182.912661 
L 397.877521 184.0908 
" style="fill:none;stroke:#008000;stroke-linecap:square;stroke-width:1.5;"/>
   </g>
   <g id="line2d_13">
    <path clip-path="url(#p2818a2458d)" d="M 73.832727 204.07349 
L 73.933989 201.315416 
L 74.100314 198.564037 
L 74.462317 195.828193 
L 74.770677 193.106761 
L 75.403485 190.427976 
L 76.144507 187.794322 
L 77.032849 185.210458 
L 78.062822 182.691446 
L 79.18252 180.212088 
L 80.390592 177.781203 
L 81.693176 175.410762 
L 83.111189 173.113109 
L 84.653923 170.90963 
L 86.286135 168.776316 
L 87.977986 166.718107 
L 89.800594 164.767561 
L 91.659045 162.863745 
L 93.658906 161.130237 
L 95.651343 159.406236 
L 97.727496 157.799339 
L 99.88552 156.306417 
L 102.150274 154.976338 
L 104.448201 153.706067 
L 106.837487 152.56516 
L 109.271072 151.502114 
L 111.754699 150.546664 
L 114.298248 149.660124 
L 116.882393 148.807394 
L 119.519918 148.07275 
L 122.170878 147.391551 
L 124.863583 146.791497 
L 127.61204 146.257589 
L 130.411397 145.830305 
L 133.254362 145.470616 
L 136.143797 145.19311 
L 139.074416 145.042175 
L 142.045815 144.989424 
L 145.05778 144.98251 
L 148.10141 145.039766 
L 151.177371 145.144075 
L 154.28773 145.301758 
L 157.414937 145.446358 
L 160.55785 145.666349 
L 163.71694 145.924324 
L 166.910131 146.174185 
L 170.150297 146.471195 
L 173.455263 146.774524 
L 176.823317 147.122 
L 180.248052 147.554677 
L 183.723059 147.972676 
L 187.266171 148.415416 
L 190.86627 148.86969 
L 194.532494 149.359862 
L 198.25804 149.894031 
L 202.033832 150.448092 
L 205.87013 150.987575 
L 209.759779 151.535754 
L 213.712117 152.106099 
L 217.707996 152.679371 
L 221.762278 153.290256 
L 225.888903 153.856751 
L 230.072828 154.400824 
L 234.307121 155.019145 
L 238.599919 155.558313 
L 242.966242 156.155752 
L 247.376973 156.769715 
L 251.844208 157.376247 
L 256.353502 157.992173 
L 260.8894 158.602429 
L 265.47814 159.177455 
L 270.10553 159.741039 
L 274.765157 160.366467 
L 279.486492 160.963778 
L 284.234781 161.618523 
L 289.036638 162.225901 
L 293.874485 162.901585 
L 298.755276 163.460413 
L 303.658705 164.159462 
L 308.602883 164.855885 
L 313.599898 165.597022 
L 318.628834 166.33403 
L 323.713056 167.015038 
L 328.82499 167.725468 
L 333.984623 168.470726 
L 339.181082 169.213192 
L 344.3924 170.066189 
L 349.631855 170.924316 
L 354.886098 171.78643 
L 360.174562 172.678612 
L 365.46767 173.679683 
L 370.816286 174.595496 
L 376.168965 175.660633 
L 381.554962 176.705856 
L 386.979523 177.717711 
L 392.409823 178.81487 
L 397.866732 179.877654 
" style="fill:none;stroke:#0000ff;stroke-linecap:square;stroke-width:1.5;"/>
   </g>
   <g id="line2d_14">
    <path clip-path="url(#p2818a2458d)" d="M 73.832727 204.07349 
L 73.93698 201.311989 
L 73.914229 198.557116 
L 74.275993 195.821614 
L 74.71931 193.118902 
L 75.389162 190.449242 
L 76.154906 187.823139 
L 77.074691 185.25007 
L 78.094753 182.727374 
L 79.231367 180.254953 
L 80.46884 177.838987 
L 81.805737 175.487381 
L 83.256473 173.209683 
L 84.8239 171.023624 
L 86.48218 168.910463 
L 88.208998 166.881459 
L 90.056515 164.954702 
L 91.962271 163.098693 
L 93.965963 161.369041 
L 95.992537 159.685369 
L 98.070807 158.080857 
L 100.249742 156.617095 
L 102.516934 155.291821 
L 104.822138 154.035142 
L 107.226353 152.92539 
L 109.680978 151.910772 
L 112.170443 150.971364 
L 114.714854 150.088813 
L 117.322885 149.311598 
L 119.96029 148.577763 
L 122.617057 147.920077 
L 125.30947 147.319644 
L 128.061514 146.805044 
L 130.858798 146.366465 
L 133.700861 146.001306 
L 136.58958 145.718405 
L 139.517434 145.522081 
L 142.487816 145.428625 
L 145.499467 145.401747 
L 148.543454 145.440951 
L 151.619469 145.540655 
L 154.73115 145.669212 
L 157.856678 145.848134 
L 161.000147 146.060092 
L 164.158927 146.322118 
L 167.349449 146.603916 
L 170.586258 146.935604 
L 173.889197 147.260388 
L 177.254549 147.63312 
L 180.681825 148.045 
L 184.15758 148.456753 
L 187.699053 148.912222 
L 191.299763 149.361684 
L 194.965236 149.85747 
L 198.690519 150.393104 
L 202.471249 150.912804 
L 206.308495 151.445477 
L 210.20095 151.973381 
L 214.1534 152.542511 
L 218.147906 153.125246 
L 222.203535 153.727003 
L 226.329822 154.296336 
L 230.51213 154.852824 
L 234.750793 155.440432 
L 239.040967 156.000071 
L 243.411033 156.569437 
L 247.826267 157.150826 
L 252.292508 157.764522 
L 256.804857 158.35681 
L 261.345495 158.930512 
L 265.938139 159.473834 
L 270.569497 160.005199 
L 275.234455 160.58953 
L 279.961548 161.139961 
L 284.718024 161.732352 
L 289.522514 162.318504 
L 294.366382 162.949456 
L 299.244915 163.528694 
L 304.15794 164.157655 
L 309.111522 164.783424 
L 314.118349 165.455089 
L 319.151408 166.162703 
L 324.24141 166.799085 
L 329.358243 167.473394 
L 334.524841 168.17068 
L 339.723488 168.897736 
L 344.945555 169.682668 
L 350.1961 170.469752 
L 355.461583 171.260315 
L 360.755357 172.122095 
L 366.065067 173.031071 
L 371.42345 173.887666 
L 376.787411 174.894976 
L 382.181478 175.898809 
L 387.602324 176.930619 
L 393.03461 178.017836 
L 398.487273 179.10225 
" style="fill:none;stroke:#ff0000;stroke-linecap:square;stroke-width:1.5;"/>
   </g>
   <g id="patch_3">
    <path d="M 57.6 307.584 
L 57.6 41.472 
" style="fill:none;stroke:#000000;stroke-linecap:square;stroke-linejoin:miter;stroke-width:0.8;"/>
   </g>
   <g id="patch_4">
    <path d="M 414.72 307.584 
L 414.72 41.472 
" style="fill:none;stroke:#000000;stroke-linecap:square;stroke-linejoin:miter;stroke-width:0.8;"/>
   </g>
   <g id="patch_5">
    <path d="M 57.6 307.584 
L 414.72 307.584 
" style="fill:none;stroke:#000000;stroke-linecap:square;stroke-linejoin:miter;stroke-width:0.8;"/>
   </g>
   <g id="patch_6">
    <path d="M 57.6 41.472 
L 414.72 41.472 
" style="fill:none;stroke:#000000;stroke-linecap:square;stroke-linejoin:miter;stroke-width:0.8;"/>
   </g>
  </g>
 </g>
 <defs>
  <clipPath id="p2818a2458d">
   <rect height="266.112" width="357.12" x="57.6" y="41.472"/>
  </clipPath>
 </defs>
</svg>
