<?xml version="1.0" encoding="utf-8" standalone="no"?>
<!DOCTYPE svg PUBLIC "-//W3C//DTD SVG 1.1//EN"
  "http://www.w3.org/Graphics/SVG/1.1/DTD/svg11.dtd">
<!-- Created with matplotlib (https://matplotlib.org/) -->
<svg height="345.6pt" version="1.1" viewBox="0 0 460.8 345.6" width="460.8pt" xmlns="http://www.w3.org/2000/svg" xmlns:xlink="http://www.w3.org/1999/xlink">
 <defs>
  <style type="text/css">
*{stroke-linecap:butt;stroke-linejoin:round;}
  </style>
 </defs>
 <g id="figure_1">
  <g id="patch_1">
   <path d="M 0 345.6 
L 460.8 345.6 
L 460.8 0 
L 0 0 
z
" style="fill:#ffffff;"/>
  </g>
  <g id="axes_1">
   <g id="patch_2">
    <path d="M 57.6 307.584 
L 414.72 307.584 
L 414.72 41.472 
L 57.6 41.472 
z
" style="fill:#ffffff;"/>
   </g>
   <g id="matplotlib.axis_1">
    <g id="xtick_1">
     <g id="line2d_1">
      <defs>
       <path d="M 0 0 
L 0 3.5 
" id="m8eb973e3c7" style="stroke:#000000;stroke-width:0.8;"/>
      </defs>
      <g>
       <use style="stroke:#000000;stroke-width:0.8;" x="85.834385" xlink:href="#m8eb973e3c7" y="307.584"/>
      </g>
     </g>
     <g id="text_1">
      <!-- −40 -->
      <defs>
       <path d="M 10.59375 35.5 
L 73.1875 35.5 
L 73.1875 27.203125 
L 10.59375 27.203125 
z
" id="DejaVuSans-8722"/>
       <path d="M 37.796875 64.3125 
L 12.890625 25.390625 
L 37.796875 25.390625 
z
M 35.203125 72.90625 
L 47.609375 72.90625 
L 47.609375 25.390625 
L 58.015625 25.390625 
L 58.015625 17.1875 
L 47.609375 17.1875 
L 47.609375 0 
L 37.796875 0 
L 37.796875 17.1875 
L 4.890625 17.1875 
L 4.890625 26.703125 
z
" id="DejaVuSans-52"/>
       <path d="M 31.78125 66.40625 
Q 24.171875 66.40625 20.328125 58.90625 
Q 16.5 51.421875 16.5 36.375 
Q 16.5 21.390625 20.328125 13.890625 
Q 24.171875 6.390625 31.78125 6.390625 
Q 39.453125 6.390625 43.28125 13.890625 
Q 47.125 21.390625 47.125 36.375 
Q 47.125 51.421875 43.28125 58.90625 
Q 39.453125 66.40625 31.78125 66.40625 
z
M 31.78125 74.21875 
Q 44.046875 74.21875 50.515625 64.515625 
Q 56.984375 54.828125 56.984375 36.375 
Q 56.984375 17.96875 50.515625 8.265625 
Q 44.046875 -1.421875 31.78125 -1.421875 
Q 19.53125 -1.421875 13.0625 8.265625 
Q 6.59375 17.96875 6.59375 36.375 
Q 6.59375 54.828125 13.0625 64.515625 
Q 19.53125 74.21875 31.78125 74.21875 
z
" id="DejaVuSans-48"/>
      </defs>
      <g transform="translate(75.282041 322.182437)scale(0.1 -0.1)">
       <use xlink:href="#DejaVuSans-8722"/>
       <use x="83.789062" xlink:href="#DejaVuSans-52"/>
       <use x="147.412109" xlink:href="#DejaVuSans-48"/>
      </g>
     </g>
    </g>
    <g id="xtick_2">
     <g id="line2d_2">
      <g>
       <use style="stroke:#000000;stroke-width:0.8;" x="161.046169" xlink:href="#m8eb973e3c7" y="307.584"/>
      </g>
     </g>
     <g id="text_2">
      <!-- −20 -->
      <defs>
       <path d="M 19.1875 8.296875 
L 53.609375 8.296875 
L 53.609375 0 
L 7.328125 0 
L 7.328125 8.296875 
Q 12.9375 14.109375 22.625 23.890625 
Q 32.328125 33.6875 34.8125 36.53125 
Q 39.546875 41.84375 41.421875 45.53125 
Q 43.3125 49.21875 43.3125 52.78125 
Q 43.3125 58.59375 39.234375 62.25 
Q 35.15625 65.921875 28.609375 65.921875 
Q 23.96875 65.921875 18.8125 64.3125 
Q 13.671875 62.703125 7.8125 59.421875 
L 7.8125 69.390625 
Q 13.765625 71.78125 18.9375 73 
Q 24.125 74.21875 28.421875 74.21875 
Q 39.75 74.21875 46.484375 68.546875 
Q 53.21875 62.890625 53.21875 53.421875 
Q 53.21875 48.921875 51.53125 44.890625 
Q 49.859375 40.875 45.40625 35.40625 
Q 44.1875 33.984375 37.640625 27.21875 
Q 31.109375 20.453125 19.1875 8.296875 
z
" id="DejaVuSans-50"/>
      </defs>
      <g transform="translate(150.493825 322.182437)scale(0.1 -0.1)">
       <use xlink:href="#DejaVuSans-8722"/>
       <use x="83.789062" xlink:href="#DejaVuSans-50"/>
       <use x="147.412109" xlink:href="#DejaVuSans-48"/>
      </g>
     </g>
    </g>
    <g id="xtick_3">
     <g id="line2d_3">
      <g>
       <use style="stroke:#000000;stroke-width:0.8;" x="236.257953" xlink:href="#m8eb973e3c7" y="307.584"/>
      </g>
     </g>
     <g id="text_3">
      <!-- 0 -->
      <g transform="translate(233.076703 322.182437)scale(0.1 -0.1)">
       <use xlink:href="#DejaVuSans-48"/>
      </g>
     </g>
    </g>
    <g id="xtick_4">
     <g id="line2d_4">
      <g>
       <use style="stroke:#000000;stroke-width:0.8;" x="311.469737" xlink:href="#m8eb973e3c7" y="307.584"/>
      </g>
     </g>
     <g id="text_4">
      <!-- 20 -->
      <g transform="translate(305.107237 322.182437)scale(0.1 -0.1)">
       <use xlink:href="#DejaVuSans-50"/>
       <use x="63.623047" xlink:href="#DejaVuSans-48"/>
      </g>
     </g>
    </g>
    <g id="xtick_5">
     <g id="line2d_5">
      <g>
       <use style="stroke:#000000;stroke-width:0.8;" x="386.681522" xlink:href="#m8eb973e3c7" y="307.584"/>
      </g>
     </g>
     <g id="text_5">
      <!-- 40 -->
      <g transform="translate(380.319022 322.182437)scale(0.1 -0.1)">
       <use xlink:href="#DejaVuSans-52"/>
       <use x="63.623047" xlink:href="#DejaVuSans-48"/>
      </g>
     </g>
    </g>
   </g>
   <g id="matplotlib.axis_2">
    <g id="ytick_1">
     <g id="line2d_6">
      <defs>
       <path d="M 0 0 
L -3.5 0 
" id="m0fba2d0dcb" style="stroke:#000000;stroke-width:0.8;"/>
      </defs>
      <g>
       <use style="stroke:#000000;stroke-width:0.8;" x="57.6" xlink:href="#m0fba2d0dcb" y="271.578397"/>
      </g>
     </g>
     <g id="text_6">
      <!-- −20 -->
      <g transform="translate(29.495313 275.377616)scale(0.1 -0.1)">
       <use xlink:href="#DejaVuSans-8722"/>
       <use x="83.789062" xlink:href="#DejaVuSans-50"/>
       <use x="147.412109" xlink:href="#DejaVuSans-48"/>
      </g>
     </g>
    </g>
    <g id="ytick_2">
     <g id="line2d_7">
      <g>
       <use style="stroke:#000000;stroke-width:0.8;" x="57.6" xlink:href="#m0fba2d0dcb" y="233.972505"/>
      </g>
     </g>
     <g id="text_7">
      <!-- −10 -->
      <defs>
       <path d="M 12.40625 8.296875 
L 28.515625 8.296875 
L 28.515625 63.921875 
L 10.984375 60.40625 
L 10.984375 69.390625 
L 28.421875 72.90625 
L 38.28125 72.90625 
L 38.28125 8.296875 
L 54.390625 8.296875 
L 54.390625 0 
L 12.40625 0 
z
" id="DejaVuSans-49"/>
      </defs>
      <g transform="translate(29.495313 237.771724)scale(0.1 -0.1)">
       <use xlink:href="#DejaVuSans-8722"/>
       <use x="83.789062" xlink:href="#DejaVuSans-49"/>
       <use x="147.412109" xlink:href="#DejaVuSans-48"/>
      </g>
     </g>
    </g>
    <g id="ytick_3">
     <g id="line2d_8">
      <g>
       <use style="stroke:#000000;stroke-width:0.8;" x="57.6" xlink:href="#m0fba2d0dcb" y="196.366613"/>
      </g>
     </g>
     <g id="text_8">
      <!-- 0 -->
      <g transform="translate(44.2375 200.165832)scale(0.1 -0.1)">
       <use xlink:href="#DejaVuSans-48"/>
      </g>
     </g>
    </g>
    <g id="ytick_4">
     <g id="line2d_9">
      <g>
       <use style="stroke:#000000;stroke-width:0.8;" x="57.6" xlink:href="#m0fba2d0dcb" y="158.760721"/>
      </g>
     </g>
     <g id="text_9">
      <!-- 10 -->
      <g transform="translate(37.875 162.559939)scale(0.1 -0.1)">
       <use xlink:href="#DejaVuSans-49"/>
       <use x="63.623047" xlink:href="#DejaVuSans-48"/>
      </g>
     </g>
    </g>
    <g id="ytick_5">
     <g id="line2d_10">
      <g>
       <use style="stroke:#000000;stroke-width:0.8;" x="57.6" xlink:href="#m0fba2d0dcb" y="121.154829"/>
      </g>
     </g>
     <g id="text_10">
      <!-- 20 -->
      <g transform="translate(37.875 124.954047)scale(0.1 -0.1)">
       <use xlink:href="#DejaVuSans-50"/>
       <use x="63.623047" xlink:href="#DejaVuSans-48"/>
      </g>
     </g>
    </g>
    <g id="ytick_6">
     <g id="line2d_11">
      <g>
       <use style="stroke:#000000;stroke-width:0.8;" x="57.6" xlink:href="#m0fba2d0dcb" y="83.548936"/>
      </g>
     </g>
     <g id="text_11">
      <!-- 30 -->
      <defs>
       <path d="M 40.578125 39.3125 
Q 47.65625 37.796875 51.625 33 
Q 55.609375 28.21875 55.609375 21.1875 
Q 55.609375 10.40625 48.1875 4.484375 
Q 40.765625 -1.421875 27.09375 -1.421875 
Q 22.515625 -1.421875 17.65625 -0.515625 
Q 12.796875 0.390625 7.625 2.203125 
L 7.625 11.71875 
Q 11.71875 9.328125 16.59375 8.109375 
Q 21.484375 6.890625 26.8125 6.890625 
Q 36.078125 6.890625 40.9375 10.546875 
Q 45.796875 14.203125 45.796875 21.1875 
Q 45.796875 27.640625 41.28125 31.265625 
Q 36.765625 34.90625 28.71875 34.90625 
L 20.21875 34.90625 
L 20.21875 43.015625 
L 29.109375 43.015625 
Q 36.375 43.015625 40.234375 45.921875 
Q 44.09375 48.828125 44.09375 54.296875 
Q 44.09375 59.90625 40.109375 62.90625 
Q 36.140625 65.921875 28.71875 65.921875 
Q 24.65625 65.921875 20.015625 65.03125 
Q 15.375 64.15625 9.8125 62.3125 
L 9.8125 71.09375 
Q 15.4375 72.65625 20.34375 73.4375 
Q 25.25 74.21875 29.59375 74.21875 
Q 40.828125 74.21875 47.359375 69.109375 
Q 53.90625 64.015625 53.90625 55.328125 
Q 53.90625 49.265625 50.4375 45.09375 
Q 46.96875 40.921875 40.578125 39.3125 
z
" id="DejaVuSans-51"/>
      </defs>
      <g transform="translate(37.875 87.348155)scale(0.1 -0.1)">
       <use xlink:href="#DejaVuSans-51"/>
       <use x="63.623047" xlink:href="#DejaVuSans-48"/>
      </g>
     </g>
    </g>
    <g id="ytick_7">
     <g id="line2d_12">
      <g>
       <use style="stroke:#000000;stroke-width:0.8;" x="57.6" xlink:href="#m0fba2d0dcb" y="45.943044"/>
      </g>
     </g>
     <g id="text_12">
      <!-- 40 -->
      <g transform="translate(37.875 49.742263)scale(0.1 -0.1)">
       <use xlink:href="#DejaVuSans-52"/>
       <use x="63.623047" xlink:href="#DejaVuSans-48"/>
      </g>
     </g>
    </g>
   </g>
   <g id="line2d_13">
    <path clip-path="url(#pdb42df933b)" d="M 236.257953 196.366613 
L 236.257953 196.366613 
L 236.240667 196.022358 
L 236.220305 195.668131 
L 236.192016 195.300609 
L 236.15028 194.910099 
L 236.097237 194.482033 
L 236.032317 194.005204 
L 235.946738 193.482468 
L 235.847862 192.909953 
L 235.725704 192.297982 
L 235.575009 191.660694 
L 235.383374 191.005355 
L 235.154374 190.334101 
L 234.897931 189.640273 
L 234.615988 188.923538 
L 234.293076 188.194777 
L 233.926034 187.458751 
L 233.532108 186.71811 
L 233.100963 185.993836 
L 232.614848 185.27131 
L 232.107643 184.550522 
L 231.584428 183.832174 
L 231.021427 183.117952 
L 230.374714 182.428865 
L 229.633419 181.772883 
L 228.851995 181.138114 
L 228.030404 180.512405 
L 227.174148 179.88624 
L 226.242955 179.290627 
L 225.242755 178.738174 
L 224.165733 178.223898 
L 223.028806 177.758548 
L 221.828741 177.348294 
L 220.549483 176.986537 
L 219.206182 176.684464 
L 217.789417 176.426273 
L 216.329354 176.206308 
L 214.817491 176.053061 
L 213.235284 175.979368 
L 211.592271 175.955361 
L 209.899641 175.969113 
L 208.153468 176.019204 
L 206.359723 176.099737 
L 204.501236 176.233757 
L 202.589371 176.395143 
L 200.60615 176.571364 
L 198.565492 176.769329 
L 196.47389 176.988015 
L 194.317079 177.231381 
L 192.110854 177.466343 
L 189.836789 177.695885 
L 187.504659 177.932911 
L 185.113376 178.181603 
L 182.663389 178.439038 
L 180.174744 178.70176 
L 177.616378 178.955089 
L 174.994269 179.205909 
L 172.309961 179.464156 
L 169.570597 179.720244 
L 166.792988 179.973268 
L 163.963371 180.229985 
L 161.090055 180.485186 
L 158.138857 180.715308 
L 155.162802 180.947381 
L 152.155421 181.189021 
L 149.1471 181.433242 
L 146.11851 181.666582 
L 143.03494 181.891909 
L 139.915944 182.128725 
L 136.747648 182.390973 
L 133.565475 182.660198 
L 130.386574 182.943035 
L 127.209816 183.231258 
L 124.052463 183.511189 
L 120.904737 183.783508 
L 117.73975 184.062002 
L 114.58627 184.337161 
L 111.424555 184.619939 
L 108.299167 184.892074 
L 105.163663 185.158711 
L 102.018494 185.420963 
L 98.870655 185.674742 
L 95.710632 185.930714 
L 92.547939 186.186754 
L 89.410028 186.442963 
L 86.279375 186.693411 
L 83.157936 186.947066 
L 80.049094 187.205238 
L 76.939839 187.48007 
L 73.832727 187.754093 
" style="fill:none;stroke:#008000;stroke-linecap:square;stroke-width:1.5;"/>
   </g>
   <g id="line2d_14">
    <path clip-path="url(#pdb42df933b)" d="M 236.257953 196.366613 
L 236.257953 196.366613 
L 236.222058 196.023766 
L 236.18592 195.670809 
L 236.154568 195.303522 
L 236.121272 194.912406 
L 236.107666 194.481503 
L 236.081481 194.001084 
L 236.068038 193.472261 
L 236.058005 192.891734 
L 236.061952 192.267795 
L 236.098386 191.613859 
L 236.172721 190.934724 
L 236.285101 190.233714 
L 236.38009 189.499492 
L 236.494137 188.737959 
L 236.672664 187.961143 
L 236.8701 187.162803 
L 237.094964 186.355068 
L 237.373817 185.559743 
L 237.692131 184.749189 
L 238.009403 183.92736 
L 238.345605 183.105352 
L 238.743179 182.287509 
L 239.235923 181.481163 
L 239.80643 180.67215 
L 240.413675 179.869253 
L 241.081873 179.081847 
L 241.778228 178.281763 
L 242.55543 177.496291 
L 243.420888 176.750287 
L 244.331731 175.979089 
L 245.325914 175.258151 
L 246.407067 174.595537 
L 247.570334 173.952345 
L 248.814218 173.362261 
L 250.129905 172.776716 
L 251.503408 172.235025 
L 252.946875 171.760161 
L 254.475066 171.344013 
L 256.071352 170.954041 
L 257.731392 170.621637 
L 259.447742 170.295965 
L 261.214281 169.974651 
L 263.058559 169.708321 
L 264.961305 169.461205 
L 266.935332 169.201795 
L 268.971397 168.960373 
L 271.059301 168.708247 
L 273.216425 168.467379 
L 275.421169 168.217165 
L 277.690585 167.94345 
L 280.015804 167.644248 
L 282.405749 167.382423 
L 284.853747 167.105721 
L 287.336311 166.789396 
L 289.891083 166.500316 
L 292.503437 166.163656 
L 295.181697 165.847018 
L 297.91176 165.503499 
L 300.680687 165.164222 
L 303.500927 164.819533 
L 306.368096 164.497975 
L 309.297625 164.070826 
L 312.250657 163.632903 
L 315.238998 163.21368 
L 318.230522 162.810751 
L 321.237222 162.377859 
L 324.299285 161.948872 
L 327.402505 161.553815 
L 330.55252 161.122816 
L 333.721033 160.722396 
L 336.887386 160.318691 
L 340.048636 159.890214 
L 343.189434 159.461715 
L 346.319035 159.025835 
L 349.471995 158.630222 
L 352.611176 158.220685 
L 355.759146 157.810405 
L 358.86842 157.39235 
L 361.990468 156.996373 
L 365.114503 156.548049 
L 368.241498 156.106309 
L 371.382497 155.675693 
L 374.515891 155.175575 
L 377.638448 154.772116 
L 380.746823 154.322247 
L 383.851295 153.906077 
L 386.945127 153.503085 
L 390.039078 153.090279 
L 393.132614 152.689387 
" style="fill:none;stroke:#0000ff;stroke-linecap:square;stroke-width:1.5;"/>
   </g>
   <g id="line2d_15">
    <path clip-path="url(#pdb42df933b)" d="M 236.257953 196.366613 
L 236.257953 196.366613 
L 236.254098 196.021866 
L 236.284098 195.668214 
L 236.321452 195.301384 
L 236.361319 194.910682 
L 236.427918 194.484514 
L 236.491781 194.007549 
L 236.576413 193.484815 
L 236.670813 192.91155 
L 236.791047 192.299193 
L 236.949463 191.663641 
L 237.150547 191.010785 
L 237.394311 190.344377 
L 237.625031 189.64126 
L 237.877232 188.913387 
L 238.195185 188.182452 
L 238.53626 187.43396 
L 238.906074 186.680959 
L 239.326837 185.95057 
L 239.789659 185.212892 
L 240.253678 184.463456 
L 240.736375 183.717253 
L 241.279049 182.987537 
L 241.914324 182.287892 
L 242.62687 181.601384 
L 243.374364 180.926958 
L 244.1792 180.279893 
L 245.012971 179.624119 
L 245.923466 178.997386 
L 246.912817 178.425896 
L 247.950859 177.836985 
L 249.062307 177.313799 
L 250.2479 176.863261 
L 251.51036 176.446236 
L 252.826936 176.043801 
L 254.228662 175.713269 
L 255.678935 175.435871 
L 257.185439 175.236281 
L 258.764357 175.109319 
L 260.405365 175.020026 
L 262.098357 175.000077 
L 263.845462 174.996124 
L 265.641045 175.006539 
L 267.502856 175.085229 
L 269.418613 175.193102 
L 271.406733 175.302023 
L 273.452428 175.440523 
L 275.550942 175.578884 
L 277.715371 175.741362 
L 279.928412 175.902857 
L 282.209419 176.05275 
L 284.549943 176.188257 
L 286.94712 176.372835 
L 289.404111 176.553445 
L 291.902451 176.701166 
L 294.46677 176.888596 
L 297.096571 177.03913 
L 299.787343 177.222213 
L 302.533953 177.388741 
L 305.318024 177.566227 
L 308.153658 177.746912 
L 311.031026 177.959742 
L 313.989238 178.079997 
L 316.972518 178.19425 
L 319.986977 178.333906 
L 323.001555 178.490056 
L 326.036585 178.619571 
L 329.125336 178.762887 
L 332.248158 178.947858 
L 335.423565 179.106407 
L 338.611644 179.297347 
L 341.79817 179.484928 
L 344.984292 179.647008 
L 348.15038 179.804933 
L 351.306829 179.953519 
L 354.478766 180.146164 
L 357.639684 180.32291 
L 360.809405 180.50038 
L 363.942584 180.662822 
L 367.084148 180.849981 
L 370.237362 180.986043 
L 373.392203 181.129707 
L 376.558814 181.286452 
L 379.730859 181.373318 
L 382.87435 181.55329 
L 386.012527 181.684759 
L 389.140594 181.848966 
L 392.255696 182.024659 
L 395.372812 182.190175 
L 398.487273 182.367625 
" style="fill:none;stroke:#ff0000;stroke-linecap:square;stroke-width:1.5;"/>
   </g>
   <g id="patch_3">
    <path d="M 57.6 307.584 
L 57.6 41.472 
" style="fill:none;stroke:#000000;stroke-linecap:square;stroke-linejoin:miter;stroke-width:0.8;"/>
   </g>
   <g id="patch_4">
    <path d="M 414.72 307.584 
L 414.72 41.472 
" style="fill:none;stroke:#000000;stroke-linecap:square;stroke-linejoin:miter;stroke-width:0.8;"/>
   </g>
   <g id="patch_5">
    <path d="M 57.6 307.584 
L 414.72 307.584 
" style="fill:none;stroke:#000000;stroke-linecap:square;stroke-linejoin:miter;stroke-width:0.8;"/>
   </g>
   <g id="patch_6">
    <path d="M 57.6 41.472 
L 414.72 41.472 
" style="fill:none;stroke:#000000;stroke-linecap:square;stroke-linejoin:miter;stroke-width:0.8;"/>
   </g>
  </g>
 </g>
 <defs>
  <clipPath id="pdb42df933b">
   <rect height="266.112" width="357.12" x="57.6" y="41.472"/>
  </clipPath>
 </defs>
</svg>
