<?xml version="1.0" encoding="utf-8" standalone="no"?>
<!DOCTYPE svg PUBLIC "-//W3C//DTD SVG 1.1//EN"
  "http://www.w3.org/Graphics/SVG/1.1/DTD/svg11.dtd">
<!-- Created with matplotlib (https://matplotlib.org/) -->
<svg height="345.6pt" version="1.1" viewBox="0 0 460.8 345.6" width="460.8pt" xmlns="http://www.w3.org/2000/svg" xmlns:xlink="http://www.w3.org/1999/xlink">
 <defs>
  <style type="text/css">
*{stroke-linecap:butt;stroke-linejoin:round;}
  </style>
 </defs>
 <g id="figure_1">
  <g id="patch_1">
   <path d="M 0 345.6 
L 460.8 345.6 
L 460.8 0 
L 0 0 
z
" style="fill:#ffffff;"/>
  </g>
  <g id="axes_1">
   <g id="patch_2">
    <path d="M 57.6 307.584 
L 414.72 307.584 
L 414.72 41.472 
L 57.6 41.472 
z
" style="fill:#ffffff;"/>
   </g>
   <g id="matplotlib.axis_1">
    <g id="xtick_1">
     <g id="line2d_1">
      <defs>
       <path d="M 0 0 
L 0 3.5 
" id="m2087861fdd" style="stroke:#000000;stroke-width:0.8;"/>
      </defs>
      <g>
       <use style="stroke:#000000;stroke-width:0.8;" x="83.801693" xlink:href="#m2087861fdd" y="307.584"/>
      </g>
     </g>
     <g id="text_1">
      <!-- −300 -->
      <defs>
       <path d="M 10.59375 35.5 
L 73.1875 35.5 
L 73.1875 27.203125 
L 10.59375 27.203125 
z
" id="DejaVuSans-8722"/>
       <path d="M 40.578125 39.3125 
Q 47.65625 37.796875 51.625 33 
Q 55.609375 28.21875 55.609375 21.1875 
Q 55.609375 10.40625 48.1875 4.484375 
Q 40.765625 -1.421875 27.09375 -1.421875 
Q 22.515625 -1.421875 17.65625 -0.515625 
Q 12.796875 0.390625 7.625 2.203125 
L 7.625 11.71875 
Q 11.71875 9.328125 16.59375 8.109375 
Q 21.484375 6.890625 26.8125 6.890625 
Q 36.078125 6.890625 40.9375 10.546875 
Q 45.796875 14.203125 45.796875 21.1875 
Q 45.796875 27.640625 41.28125 31.265625 
Q 36.765625 34.90625 28.71875 34.90625 
L 20.21875 34.90625 
L 20.21875 43.015625 
L 29.109375 43.015625 
Q 36.375 43.015625 40.234375 45.921875 
Q 44.09375 48.828125 44.09375 54.296875 
Q 44.09375 59.90625 40.109375 62.90625 
Q 36.140625 65.921875 28.71875 65.921875 
Q 24.65625 65.921875 20.015625 65.03125 
Q 15.375 64.15625 9.8125 62.3125 
L 9.8125 71.09375 
Q 15.4375 72.65625 20.34375 73.4375 
Q 25.25 74.21875 29.59375 74.21875 
Q 40.828125 74.21875 47.359375 69.109375 
Q 53.90625 64.015625 53.90625 55.328125 
Q 53.90625 49.265625 50.4375 45.09375 
Q 46.96875 40.921875 40.578125 39.3125 
z
" id="DejaVuSans-51"/>
       <path d="M 31.78125 66.40625 
Q 24.171875 66.40625 20.328125 58.90625 
Q 16.5 51.421875 16.5 36.375 
Q 16.5 21.390625 20.328125 13.890625 
Q 24.171875 6.390625 31.78125 6.390625 
Q 39.453125 6.390625 43.28125 13.890625 
Q 47.125 21.390625 47.125 36.375 
Q 47.125 51.421875 43.28125 58.90625 
Q 39.453125 66.40625 31.78125 66.40625 
z
M 31.78125 74.21875 
Q 44.046875 74.21875 50.515625 64.515625 
Q 56.984375 54.828125 56.984375 36.375 
Q 56.984375 17.96875 50.515625 8.265625 
Q 44.046875 -1.421875 31.78125 -1.421875 
Q 19.53125 -1.421875 13.0625 8.265625 
Q 6.59375 17.96875 6.59375 36.375 
Q 6.59375 54.828125 13.0625 64.515625 
Q 19.53125 74.21875 31.78125 74.21875 
z
" id="DejaVuSans-48"/>
      </defs>
      <g transform="translate(70.068099 322.182437)scale(0.1 -0.1)">
       <use xlink:href="#DejaVuSans-8722"/>
       <use x="83.789062" xlink:href="#DejaVuSans-51"/>
       <use x="147.412109" xlink:href="#DejaVuSans-48"/>
       <use x="211.035156" xlink:href="#DejaVuSans-48"/>
      </g>
     </g>
    </g>
    <g id="xtick_2">
     <g id="line2d_2">
      <g>
       <use style="stroke:#000000;stroke-width:0.8;" x="132.556575" xlink:href="#m2087861fdd" y="307.584"/>
      </g>
     </g>
     <g id="text_2">
      <!-- −200 -->
      <defs>
       <path d="M 19.1875 8.296875 
L 53.609375 8.296875 
L 53.609375 0 
L 7.328125 0 
L 7.328125 8.296875 
Q 12.9375 14.109375 22.625 23.890625 
Q 32.328125 33.6875 34.8125 36.53125 
Q 39.546875 41.84375 41.421875 45.53125 
Q 43.3125 49.21875 43.3125 52.78125 
Q 43.3125 58.59375 39.234375 62.25 
Q 35.15625 65.921875 28.609375 65.921875 
Q 23.96875 65.921875 18.8125 64.3125 
Q 13.671875 62.703125 7.8125 59.421875 
L 7.8125 69.390625 
Q 13.765625 71.78125 18.9375 73 
Q 24.125 74.21875 28.421875 74.21875 
Q 39.75 74.21875 46.484375 68.546875 
Q 53.21875 62.890625 53.21875 53.421875 
Q 53.21875 48.921875 51.53125 44.890625 
Q 49.859375 40.875 45.40625 35.40625 
Q 44.1875 33.984375 37.640625 27.21875 
Q 31.109375 20.453125 19.1875 8.296875 
z
" id="DejaVuSans-50"/>
      </defs>
      <g transform="translate(118.822981 322.182437)scale(0.1 -0.1)">
       <use xlink:href="#DejaVuSans-8722"/>
       <use x="83.789062" xlink:href="#DejaVuSans-50"/>
       <use x="147.412109" xlink:href="#DejaVuSans-48"/>
       <use x="211.035156" xlink:href="#DejaVuSans-48"/>
      </g>
     </g>
    </g>
    <g id="xtick_3">
     <g id="line2d_3">
      <g>
       <use style="stroke:#000000;stroke-width:0.8;" x="181.311458" xlink:href="#m2087861fdd" y="307.584"/>
      </g>
     </g>
     <g id="text_3">
      <!-- −100 -->
      <defs>
       <path d="M 12.40625 8.296875 
L 28.515625 8.296875 
L 28.515625 63.921875 
L 10.984375 60.40625 
L 10.984375 69.390625 
L 28.421875 72.90625 
L 38.28125 72.90625 
L 38.28125 8.296875 
L 54.390625 8.296875 
L 54.390625 0 
L 12.40625 0 
z
" id="DejaVuSans-49"/>
      </defs>
      <g transform="translate(167.577864 322.182437)scale(0.1 -0.1)">
       <use xlink:href="#DejaVuSans-8722"/>
       <use x="83.789062" xlink:href="#DejaVuSans-49"/>
       <use x="147.412109" xlink:href="#DejaVuSans-48"/>
       <use x="211.035156" xlink:href="#DejaVuSans-48"/>
      </g>
     </g>
    </g>
    <g id="xtick_4">
     <g id="line2d_4">
      <g>
       <use style="stroke:#000000;stroke-width:0.8;" x="230.06634" xlink:href="#m2087861fdd" y="307.584"/>
      </g>
     </g>
     <g id="text_4">
      <!-- 0 -->
      <g transform="translate(226.88509 322.182437)scale(0.1 -0.1)">
       <use xlink:href="#DejaVuSans-48"/>
      </g>
     </g>
    </g>
    <g id="xtick_5">
     <g id="line2d_5">
      <g>
       <use style="stroke:#000000;stroke-width:0.8;" x="278.821222" xlink:href="#m2087861fdd" y="307.584"/>
      </g>
     </g>
     <g id="text_5">
      <!-- 100 -->
      <g transform="translate(269.277472 322.182437)scale(0.1 -0.1)">
       <use xlink:href="#DejaVuSans-49"/>
       <use x="63.623047" xlink:href="#DejaVuSans-48"/>
       <use x="127.246094" xlink:href="#DejaVuSans-48"/>
      </g>
     </g>
    </g>
    <g id="xtick_6">
     <g id="line2d_6">
      <g>
       <use style="stroke:#000000;stroke-width:0.8;" x="327.576105" xlink:href="#m2087861fdd" y="307.584"/>
      </g>
     </g>
     <g id="text_6">
      <!-- 200 -->
      <g transform="translate(318.032355 322.182437)scale(0.1 -0.1)">
       <use xlink:href="#DejaVuSans-50"/>
       <use x="63.623047" xlink:href="#DejaVuSans-48"/>
       <use x="127.246094" xlink:href="#DejaVuSans-48"/>
      </g>
     </g>
    </g>
    <g id="xtick_7">
     <g id="line2d_7">
      <g>
       <use style="stroke:#000000;stroke-width:0.8;" x="376.330987" xlink:href="#m2087861fdd" y="307.584"/>
      </g>
     </g>
     <g id="text_7">
      <!-- 300 -->
      <g transform="translate(366.787237 322.182437)scale(0.1 -0.1)">
       <use xlink:href="#DejaVuSans-51"/>
       <use x="63.623047" xlink:href="#DejaVuSans-48"/>
       <use x="127.246094" xlink:href="#DejaVuSans-48"/>
      </g>
     </g>
    </g>
   </g>
   <g id="matplotlib.axis_2">
    <g id="ytick_1">
     <g id="line2d_8">
      <defs>
       <path d="M 0 0 
L -3.5 0 
" id="mc39c885323" style="stroke:#000000;stroke-width:0.8;"/>
      </defs>
      <g>
       <use style="stroke:#000000;stroke-width:0.8;" x="57.6" xlink:href="#mc39c885323" y="286.904746"/>
      </g>
     </g>
     <g id="text_8">
      <!-- 0 -->
      <g transform="translate(44.2375 290.703965)scale(0.1 -0.1)">
       <use xlink:href="#DejaVuSans-48"/>
      </g>
     </g>
    </g>
    <g id="ytick_2">
     <g id="line2d_9">
      <g>
       <use style="stroke:#000000;stroke-width:0.8;" x="57.6" xlink:href="#mc39c885323" y="238.149864"/>
      </g>
     </g>
     <g id="text_9">
      <!-- 100 -->
      <g transform="translate(31.5125 241.949082)scale(0.1 -0.1)">
       <use xlink:href="#DejaVuSans-49"/>
       <use x="63.623047" xlink:href="#DejaVuSans-48"/>
       <use x="127.246094" xlink:href="#DejaVuSans-48"/>
      </g>
     </g>
    </g>
    <g id="ytick_3">
     <g id="line2d_10">
      <g>
       <use style="stroke:#000000;stroke-width:0.8;" x="57.6" xlink:href="#mc39c885323" y="189.394981"/>
      </g>
     </g>
     <g id="text_10">
      <!-- 200 -->
      <g transform="translate(31.5125 193.1942)scale(0.1 -0.1)">
       <use xlink:href="#DejaVuSans-50"/>
       <use x="63.623047" xlink:href="#DejaVuSans-48"/>
       <use x="127.246094" xlink:href="#DejaVuSans-48"/>
      </g>
     </g>
    </g>
    <g id="ytick_4">
     <g id="line2d_11">
      <g>
       <use style="stroke:#000000;stroke-width:0.8;" x="57.6" xlink:href="#mc39c885323" y="140.640099"/>
      </g>
     </g>
     <g id="text_11">
      <!-- 300 -->
      <g transform="translate(31.5125 144.439318)scale(0.1 -0.1)">
       <use xlink:href="#DejaVuSans-51"/>
       <use x="63.623047" xlink:href="#DejaVuSans-48"/>
       <use x="127.246094" xlink:href="#DejaVuSans-48"/>
      </g>
     </g>
    </g>
    <g id="ytick_5">
     <g id="line2d_12">
      <g>
       <use style="stroke:#000000;stroke-width:0.8;" x="57.6" xlink:href="#mc39c885323" y="91.885217"/>
      </g>
     </g>
     <g id="text_12">
      <!-- 400 -->
      <defs>
       <path d="M 37.796875 64.3125 
L 12.890625 25.390625 
L 37.796875 25.390625 
z
M 35.203125 72.90625 
L 47.609375 72.90625 
L 47.609375 25.390625 
L 58.015625 25.390625 
L 58.015625 17.1875 
L 47.609375 17.1875 
L 47.609375 0 
L 37.796875 0 
L 37.796875 17.1875 
L 4.890625 17.1875 
L 4.890625 26.703125 
z
" id="DejaVuSans-52"/>
      </defs>
      <g transform="translate(31.5125 95.684435)scale(0.1 -0.1)">
       <use xlink:href="#DejaVuSans-52"/>
       <use x="63.623047" xlink:href="#DejaVuSans-48"/>
       <use x="127.246094" xlink:href="#DejaVuSans-48"/>
      </g>
     </g>
    </g>
    <g id="ytick_6">
     <g id="line2d_13">
      <g>
       <use style="stroke:#000000;stroke-width:0.8;" x="57.6" xlink:href="#mc39c885323" y="43.130334"/>
      </g>
     </g>
     <g id="text_13">
      <!-- 500 -->
      <defs>
       <path d="M 10.796875 72.90625 
L 49.515625 72.90625 
L 49.515625 64.59375 
L 19.828125 64.59375 
L 19.828125 46.734375 
Q 21.96875 47.46875 24.109375 47.828125 
Q 26.265625 48.1875 28.421875 48.1875 
Q 40.625 48.1875 47.75 41.5 
Q 54.890625 34.8125 54.890625 23.390625 
Q 54.890625 11.625 47.5625 5.09375 
Q 40.234375 -1.421875 26.90625 -1.421875 
Q 22.3125 -1.421875 17.546875 -0.640625 
Q 12.796875 0.140625 7.71875 1.703125 
L 7.71875 11.625 
Q 12.109375 9.234375 16.796875 8.0625 
Q 21.484375 6.890625 26.703125 6.890625 
Q 35.15625 6.890625 40.078125 11.328125 
Q 45.015625 15.765625 45.015625 23.390625 
Q 45.015625 31 40.078125 35.4375 
Q 35.15625 39.890625 26.703125 39.890625 
Q 22.75 39.890625 18.8125 39.015625 
Q 14.890625 38.140625 10.796875 36.28125 
z
" id="DejaVuSans-53"/>
      </defs>
      <g transform="translate(31.5125 46.929553)scale(0.1 -0.1)">
       <use xlink:href="#DejaVuSans-53"/>
       <use x="63.623047" xlink:href="#DejaVuSans-48"/>
       <use x="127.246094" xlink:href="#DejaVuSans-48"/>
      </g>
     </g>
    </g>
   </g>
   <g id="line2d_14">
    <path clip-path="url(#p6bd2ed6650)" d="M 230.06634 286.904746 
L 228.482386 259.898546 
L 227.801996 251.079338 
L 227.513131 246.878441 
L 227.660458 245.797853 
L 227.95216 245.046857 
L 228.412055 244.441394 
L 229.165526 243.908791 
L 230.213624 243.546796 
L 231.57275 243.308618 
L 233.237661 243.201713 
L 243.673789 242.781953 
L 246.415154 242.739395 
L 249.414047 242.939398 
L 254.646943 243.440534 
L 255.645135 243.293046 
L 256.555618 242.945297 
L 257.121151 242.566271 
L 257.721299 241.876673 
L 258.11986 241.045314 
L 258.531034 239.427066 
L 259.301981 236.139012 
L 260.587013 230.956026 
L 262.995124 220.861425 
L 263.798814 217.351121 
L 264.379933 214.243875 
L 264.797699 211.09938 
L 265.060352 206.671851 
L 265.143576 202.217848 
L 264.872382 196.410312 
L 264.209535 182.763381 
L 263.860787 170.419521 
L 263.53547 169.547296 
L 262.887283 168.677655 
L 262.236015 168.142131 
L 261.138056 167.663992 
L 260.264948 167.511633 
L 258.77594 167.49023 
L 236.561758 168.656495 
L 230.149386 169.210692 
L 227.422129 169.21703 
L 225.779164 169.005385 
L 224.977729 168.681263 
L 224.299705 168.154905 
L 223.842072 167.567116 
L 223.499262 166.752617 
L 223.243772 165.510391 
L 223.111607 163.357424 
L 222.346072 143.060033 
L 220.891787 115.365015 
L 220.579449 108.975784 
L 220.414063 107.392664 
L 220.113957 106.38139 
L 219.590217 105.47845 
L 218.602039 104.599204 
L 217.961127 104.274253 
L 217.237087 104.074992 
L 216.430101 104.021264 
L 214.678568 104.176841 
L 210.235735 104.614659 
L 206.017287 104.849658 
L 198.023661 105.277043 
L 190.712447 105.673811 
L 181.303267 105.891647 
L 171.113106 106.834664 
L 154.51163 107.368921 
L 146.095904 107.858566 
L 142.820307 108.120282 
L 141.552631 108.40974 
L 140.439801 108.987095 
L 139.885458 109.484785 
L 139.430721 110.097439 
L 138.894905 111.63195 
L 138.794275 113.447777 
L 138.879888 115.778115 
L 139.364707 120.466092 
L 139.918806 126.286987 
L 140.367644 133.200089 
L 141.647801 157.799123 
L 142.56995 172.906264 
L 142.797294 178.355744 
L 143.067738 179.146938 
L 143.632856 180.038567 
L 144.28032 180.663654 
L 145.172925 181.189622 
L 146.2644 181.531735 
L 147.547873 181.717003 
L 150.716209 181.81739 
L 157.248095 181.800374 
L 162.513671 181.51389 
L 170.108414 180.914449 
L 177.005085 180.548007 
L 178.020747 180.158163 
L 179.115781 179.422744 
L 179.980059 178.425024 
L 180.47107 177.525204 
L 180.820545 176.274983 
L 181.433315 173.338476 
L 181.800815 172.545331 
L 182.380423 171.804355 
L 183.4501 171.25201 
L 184.146515 171.026665 
L 186.415099 170.727603 
L 191.481721 170.426444 
L 201.148966 169.916127 
L 211.081262 169.217957 
L 216.801921 168.696718 
L 218.542241 168.738257 
L 220.040308 169.067694 
L 220.75524 169.405127 
L 221.379414 169.89287 
L 221.870288 170.477393 
L 222.275163 171.267076 
L 222.542623 172.250657 
L 222.735639 173.769664 
L 222.833763 176.33656 
L 223.068318 184.908888 
L 223.516253 192.12388 
L 223.939348 199.757725 
L 225.267783 225.573097 
L 225.817554 236.362163 
L 226.020897 238.379251 
L 226.35194 239.493709 
L 226.868512 240.457364 
L 227.551404 241.26005 
L 228.384254 241.880212 
L 229.353629 242.28086 
L 230.36389 242.493056 
L 232.511982 242.665337 
L 238.717864 242.851843 
L 246.216092 242.516005 
L 250.810548 242.883978 
L 255.603796 243.340202 
L 257.688131 243.844561 
L 260.532876 244.826002 
L 265.521358 246.788284 
L 268.927491 248.505845 
L 273.15063 250.795429 
L 275.088548 252.084439 
L 277.223325 253.788871 
L 281.458179 257.261263 
L 285.060579 260.226593 
L 287.373024 262.053029 
L 292.890321 266.10066 
L 307.881911 277.412126 
L 309.054515 278.293404 
L 310.074077 278.767536 
L 311.146684 279.04344 
L 312.596313 279.146473 
L 316.444 279.166297 
L 322.609883 279.6114 
L 344.480202 281.504655 
L 353.685027 282.268952 
L 357.34057 282.630654 
L 362.898383 283.576525 
L 363.624002 283.37605 
L 364.365612 282.87542 
L 365.747374 279.599738 
L 366.003045 277.668888 
L 366.189435 274.532564 
L 367.502843 256.192122 
L 367.776699 252.700501 
L 368.642976 241.389494 
L 369.133401 237.523115 
L 371.559347 223.123066 
L 372.538637 218.873298 
L 372.492807 217.830333 
L 369.70003 214.271568 
L 368.493737 213.663107 
L 364.720987 211.835432 
L 359.531566 209.02208 
L 357.088946 207.551828 
L 354.396653 205.653995 
L 351.230121 203.483623 
L 347.900942 201.480772 
L 342.81259 198.77902 
L 329.398269 191.539065 
L 328.802631 190.96093 
L 326.236759 188.836436 
L 324.629067 187.761244 
L 312.713325 181.039115 
L 308.096091 178.616339 
L 307.023728 178.249166 
L 305.675265 178.016897 
L 303.972696 178.039373 
L 292.819236 178.764944 
L 276.959541 179.695138 
L 269.544455 180.094733 
L 268.148978 179.889231 
L 267.100821 179.549556 
L 266.390404 179.140454 
L 265.417164 178.148877 
L 264.819585 177.136384 
L 264.488013 176.266889 
L 264.211602 175.003309 
L 264.019235 172.557471 
L 263.75335 164.458797 
L 262.886883 149.309142 
L 261.890948 135.748848 
L 261.387383 131.882146 
L 260.81877 127.52424 
L 260.584429 124.584076 
L 260.088251 110.341018 
L 260.023982 105.041362 
L 259.242982 98.064782 
L 259.196027 93.244971 
L 258.98817 86.988988 
L 258.224196 74.054511 
L 257.753004 70.804608 
L 257.441553 68.838713 
L 257.432255 68.598547 
L 259.170026 65.852184 
L 260.808785 65.490715 
L 262.993525 65.401347 
L 270.534082 64.953339 
L 277.492032 64.581339 
L 292.648497 63.675229 
L 295.628151 63.212009 
L 298.930466 62.472934 
L 301.704375 61.639762 
L 305.126285 60.318358 
L 307.66895 59.164866 
L 310.397419 57.690372 
L 312.84745 56.142063 
L 316.035141 54.039947 
L 317.054216 53.658197 
L 318.458113 53.614902 
L 319.805795 54.097673 
L 320.420838 54.51365 
L 321.275706 55.315668 
L 322.925961 57.237634 
L 335.524174 73.033925 
L 345.224153 84.650167 
L 346.483345 86.274777 
L 349.011676 90.367409 
L 349.028935 91.476046 
L 348.841424 92.234282 
L 348.487122 92.943812 
L 347.805334 93.812527 
L 346.934669 94.613813 
L 345.627502 95.487842 
L 344.037996 96.205465 
L 342.167612 96.769023 
L 340.055453 97.226929 
L 335.698522 97.807015 
L 328.752365 98.516349 
L 321.133683 99.051824 
L 309.840785 99.529232 
L 302.449203 99.795824 
L 301.438905 100.092936 
L 300.440551 100.80232 
L 300.017895 101.368608 
L 299.730192 102.0189 
L 299.474668 103.253618 
L 299.361557 105.88804 
L 299.414358 109.937962 
L 299.817268 118.075689 
L 300.41554 127.933537 
L 303.120022 174.466274 
L 302.905646 175.474427 
L 302.471582 176.378441 
L 301.929671 177.036875 
L 301.218045 177.587854 
L 300.306524 178.029915 
L 298.965082 178.391627 
L 297.067737 178.587817 
L 293.139702 178.717066 
L 284.492 178.905943 
L 278.810496 179.270288 
L 268.584515 179.757496 
L 267.507457 179.527226 
L 266.331504 178.947482 
L 265.454437 178.149608 
L 264.888929 177.308196 
L 264.382751 176.115944 
L 264.056572 174.653883 
L 263.891912 172.0375 
L 263.696829 170.454771 
L 263.325375 169.264371 
L 262.793235 168.512717 
L 262.09917 167.890263 
L 261.278275 167.461854 
L 260.089962 167.223833 
L 258.238339 167.230025 
L 252.839584 167.462342 
L 247.645917 167.69383 
L 235.266726 168.518958 
L 227.814693 169.096606 
L 226.275813 169.018939 
L 225.416653 168.794472 
L 224.751751 168.436854 
L 224.047901 167.806356 
L 223.471316 166.856806 
L 223.166383 165.828419 
L 223.017983 164.606427 
L 222.773838 156.860933 
L 222.380381 146.45742 
L 221.674796 129.824641 
L 221.018248 115.228208 
L 220.789168 108.401988 
L 220.623879 106.143076 
L 220.335192 105.176755 
L 219.80527 104.389412 
L 219.277967 103.901424 
L 218.629888 103.538395 
L 218.154269 103.328359 
L 216.280039 103.332016 
L 209.021334 104.394482 
L 203.09118 104.811483 
L 190.460628 105.478108 
L 185.304117 105.543976 
L 182.345446 105.64602 
L 177.539 106.177644 
L 173.544025 106.493917 
L 169.65007 106.657002 
L 157.681916 106.951042 
L 148.962154 107.564769 
L 140.613856 108.178642 
L 132.497484 108.372832 
L 124.263613 108.226909 
L 119.833014 107.918291 
L 115.771147 107.485445 
L 113.628565 106.971812 
L 111.087558 106.381683 
L 109.511264 106.326492 
L 106.821603 106.326931 
L 104.964968 106.104121 
L 103.721768 105.985354 
L 102.716344 106.146245 
L 101.965958 106.437848 
L 101.39026 106.796831 
L 100.830262 107.303345 
L 100.319018 107.960659 
L 99.887001 108.772622 
L 99.237099 110.774742 
L 98.89089 112.774521 
L 98.39008 118.664892 
L 97.936075 125.479557 
L 97.803803 131.259937 
L 97.925641 136.336978 
L 98.26244 141.335329 
L 98.846621 146.957694 
L 99.669311 152.707553 
L 100.522814 157.382561 
L 101.744172 162.72873 
L 103.038614 167.436745 
L 104.681313 172.676531 
L 106.538337 177.837821 
L 109.448614 185.096692 
L 111.657844 189.998703 
L 113.765371 194.222095 
L 116.842097 199.850798 
L 120.947794 206.594428 
L 124.035148 211.083583 
L 127.930858 216.321954 
L 131.300454 220.439939 
L 134.886376 224.487033 
L 138.73533 228.463823 
L 142.839272 232.356949 
L 210.386822 292.852213 
L 212.308242 294.219788 
L 213.615073 294.902147 
L 214.966041 295.329815 
L 216.335298 295.488 
L 217.660597 295.357366 
L 218.903719 294.950151 
L 220.020567 294.330798 
L 224.423069 291.520283 
L 227.950397 289.481547 
L 228.687536 288.590179 
L 229.276852 287.478657 
L 229.67036 286.213819 
L 229.827314 284.614511 
L 229.788077 281.970815 
L 229.306574 272.599082 
L 228.500015 260.66468 
L 227.725699 246.859217 
L 227.343901 239.631261 
L 227.343901 239.631261 
" style="fill:none;stroke:#008000;stroke-linecap:square;stroke-width:1.5;"/>
   </g>
   <g id="line2d_15">
    <path clip-path="url(#p6bd2ed6650)" d="M 230.06634 286.904746 
L 229.928778 282.884529 
L 229.365477 273.848116 
L 228.661443 263.477271 
L 227.458699 248.202119 
L 227.673506 247.434344 
L 228.061949 246.858464 
L 228.595914 246.461873 
L 229.301256 246.205183 
L 230.877271 245.906177 
L 232.817402 245.771838 
L 240.945721 245.349407 
L 246.086423 245.080587 
L 249.180351 245.216764 
L 254.510929 245.620503 
L 255.612607 245.418638 
L 256.534829 244.966558 
L 257.119004 244.344247 
L 257.546007 243.554787 
L 257.908904 242.123749 
L 258.679207 238.602878 
L 259.792659 233.901085 
L 262.997904 219.538916 
L 263.586633 215.786975 
L 263.894763 211.859262 
L 264.044521 206.178296 
L 263.918022 203.222721 
L 263.102379 186.465122 
L 263.010577 180.159715 
L 262.758464 175.117458 
L 262.477361 174.1559 
L 261.945086 173.296323 
L 261.379905 172.72479 
L 260.563432 172.334694 
L 259.740758 172.200958 
L 257.841605 172.252417 
L 253.14308 172.460054 
L 246.933106 172.758609 
L 242.746379 173.007704 
L 236.547608 173.428396 
L 231.410745 173.781136 
L 229.792442 173.680494 
L 229.068795 173.411857 
L 228.548145 172.993381 
L 228.149728 172.36978 
L 227.800009 171.39478 
L 227.572829 170.065376 
L 227.466776 167.906124 
L 226.93856 153.629447 
L 226.497158 145.776373 
L 225.741488 131.563047 
L 225.335094 123.202747 
L 224.690332 113.861892 
L 224.364245 112.993378 
L 223.8846 112.199432 
L 222.964447 111.319076 
L 222.67821 111.136069 
L 220.4842 110.115062 
L 219.538893 109.924374 
L 217.848703 109.967183 
L 214.190661 110.31324 
L 209.055441 110.624605 
L 200.452603 111.113322 
L 193.502029 111.482386 
L 189.540515 111.441595 
L 186.416776 111.549776 
L 176.636347 112.359767 
L 166.648832 112.515037 
L 161.697242 112.779672 
L 155.16761 113.15532 
L 149.950775 113.483859 
L 148.566992 113.801759 
L 147.546879 114.280246 
L 146.761079 114.945979 
L 146.193527 115.766754 
L 145.787914 116.903174 
L 145.647574 118.04142 
L 145.6153 120.615462 
L 145.864526 124.280121 
L 146.52034 132.375925 
L 147.063446 145.381402 
L 147.285147 151.655155 
L 148.787475 184.033823 
L 149.178449 184.870308 
L 149.777746 185.688833 
L 150.396251 186.170116 
L 151.451701 186.623552 
L 152.688663 186.867677 
L 154.730468 186.995855 
L 161.325813 187.064641 
L 166.077883 186.937495 
L 176.384479 186.333456 
L 182.377549 186.206746 
L 183.436548 185.846516 
L 184.215992 185.417381 
L 184.97837 184.659171 
L 185.574532 183.713559 
L 185.986674 182.580295 
L 186.814899 179.478705 
L 187.379498 178.650692 
L 187.886002 178.282067 
L 188.811938 177.946586 
L 190.412473 177.74709 
L 194.183045 177.572703 
L 200.782657 177.456019 
L 206.163938 177.327765 
L 213.316531 177.017789 
L 221.112116 176.632929 
L 223.223612 176.778567 
L 224.218305 177.044515 
L 224.812119 177.383837 
L 225.470529 178.054883 
L 225.836928 178.912916 
L 226.032322 180.046858 
L 226.119976 182.360716 
L 226.140128 192.330275 
L 226.602267 207.333716 
L 227.0544 230.567957 
L 227.275333 239.869251 
L 227.437588 243.718996 
L 227.746905 244.882105 
L 228.226205 245.863118 
L 228.781829 246.499991 
L 229.670452 247.198166 
L 230.642089 247.619201 
L 231.714701 247.846975 
L 234.140999 248.044995 
L 240.067375 248.292258 
L 247.690624 248.168801 
L 253.564724 248.753958 
L 257.270921 249.222721 
L 259.294596 249.749755 
L 262.423454 250.925277 
L 266.936903 252.84195 
L 271.1253 255.136259 
L 274.37625 257.042802 
L 276.670974 258.695481 
L 278.952641 260.689935 
L 282.338017 263.602377 
L 285.793098 266.621389 
L 288.040814 268.519616 
L 293.497615 272.803544 
L 308.051464 284.542511 
L 309.20481 285.444242 
L 310.247611 285.948818 
L 311.372088 286.275503 
L 312.849794 286.445211 
L 317.481172 286.724805 
L 326.307532 287.733359 
L 337.226582 289.076958 
L 359.344915 291.895522 
L 362.417399 292.586777 
L 363.05825 292.441334 
L 363.794485 292.057259 
L 364.252693 291.57553 
L 364.686802 290.855483 
L 365.18345 289.455028 
L 365.53644 287.962383 
L 365.883402 285.042893 
L 366.498045 278.87911 
L 370.358317 247.68765 
L 373.061668 234.078831 
L 374.309936 229.184225 
L 374.2467 228.170309 
L 373.923989 227.079612 
L 373.3237 226.05014 
L 372.473607 225.162627 
L 371.383005 224.393182 
L 361.905464 218.818878 
L 359.665847 217.300754 
L 356.766614 215.016856 
L 353.409932 212.552313 
L 350.167887 210.462393 
L 334.076636 200.781578 
L 329.863732 197.288524 
L 326.489435 195.159159 
L 321.189595 191.876524 
L 315.73713 188.534628 
L 314.245243 187.792599 
L 312.974017 187.420204 
L 311.653752 187.286162 
L 308.637031 187.342083 
L 302.73834 187.384781 
L 296.650072 187.32205 
L 285.215406 187.367813 
L 277.665291 187.282855 
L 276.793383 186.975892 
L 276.131945 186.501684 
L 275.478404 185.652049 
L 275.069013 184.817869 
L 274.693157 183.564808 
L 274.535413 182.167414 
L 274.550047 179.635306 
L 274.675586 172.551675 
L 274.677038 150.832078 
L 274.600108 144.497004 
L 274.291596 139.893078 
L 274.014496 135.205178 
L 273.972056 131.318734 
L 274.035725 124.945141 
L 274.236171 119.234446 
L 274.440208 114.861013 
L 274.197258 112.044587 
L 273.996797 108.421803 
L 274.067627 105.196535 
L 274.28478 98.633177 
L 274.315485 84.988165 
L 274.124602 81.41774 
L 273.82907 77.952874 
L 274.024746 77.241824 
L 274.549796 76.509337 
L 275.032234 76.148431 
L 275.828332 75.837746 
L 276.660259 75.721267 
L 277.878015 75.689923 
L 282.728935 75.692912 
L 310.275676 75.271918 
L 313.679357 74.816413 
L 316.988657 74.131418 
L 319.753994 73.339557 
L 322.827158 72.256811 
L 324.999926 71.343272 
L 328.36831 69.595972 
L 330.809853 68.103104 
L 332.534429 67.191435 
L 333.231647 67.044581 
L 334.078036 67.089872 
L 334.874045 67.335333 
L 335.753086 67.844252 
L 336.583032 68.600268 
L 337.849985 70.128038 
L 340.02351 73.183242 
L 347.962694 84.329901 
L 357.124357 96.666294 
L 361.518765 102.539417 
L 362.321544 103.944714 
L 362.656911 104.963537 
L 362.701153 105.757299 
L 362.5421 106.455418 
L 362.038131 107.241128 
L 361.320307 108.002914 
L 360.226539 108.818519 
L 359.027199 109.439322 
L 357.326108 110.031497 
L 354.675628 110.585689 
L 352.499577 110.847061 
L 346.102457 111.262851 
L 339.124169 111.459484 
L 331.421592 111.506714 
L 325.310147 111.459657 
L 318.309477 111.424849 
L 317.276316 111.780703 
L 316.601024 112.203762 
L 316.054953 112.777283 
L 315.675312 113.398728 
L 315.335227 114.375622 
L 315.095661 115.8907 
L 314.898734 118.491503 
L 314.78337 122.027797 
L 314.72892 134.662856 
L 314.651934 142.604105 
L 314.581076 154.221865 
L 314.517057 169.634733 
L 314.533565 179.885874 
L 314.495384 182.606257 
L 314.233771 183.5455 
L 313.734678 184.402917 
L 313.009421 185.115347 
L 312.060602 185.634034 
L 311.253511 185.860591 
L 309.983439 186.010475 
L 306.868584 186.053741 
L 297.374645 185.890027 
L 291.96014 185.905174 
L 286.372554 185.938107 
L 283.384853 185.914509 
L 282.368709 185.697274 
L 281.619472 185.294622 
L 281.009115 184.658747 
L 280.604292 183.863371 
L 280.222711 182.629906 
L 280.052405 181.158618 
L 279.810028 176.632912 
L 279.351591 175.758536 
L 278.906914 175.236386 
L 278.173655 174.907689 
L 277.18566 174.741162 
L 272.971317 174.624101 
L 260.248627 174.456407 
L 246.378289 174.599547 
L 245.567356 174.35092 
L 244.939101 173.931014 
L 244.662202 173.610062 
L 244.184767 172.683303 
L 243.917453 171.544541 
L 243.857874 170.312594 
L 244.358625 143.784574 
L 244.687527 113.168107 
L 244.302744 112.17141 
L 243.761112 111.49015 
L 243.154251 110.967653 
L 242.630512 110.743131 
L 241.489409 110.711896 
L 237.339232 111.101079 
L 234.665959 111.165895 
L 222.876148 110.984651 
L 212.373801 110.656736 
L 208.781791 110.529638 
L 199.695654 110.690566 
L 195.797285 110.49074 
L 187.569187 110.049269 
L 173.293045 109.946256 
L 169.656841 109.896859 
L 161.237773 109.434776 
L 155.662738 108.949831 
L 150.860875 108.341756 
L 145.709294 107.449781 
L 143.619889 106.861621 
L 140.788632 105.953573 
L 139.456162 105.799392 
L 137.614035 105.650349 
L 134.461921 105.178767 
L 133.512559 105.361586 
L 132.663307 105.724551 
L 131.740756 106.383977 
L 131.465305 106.713881 
L 131.254778 107.044465 
L 129.448689 110.31033 
L 128.877578 111.96677 
L 128.510281 113.619998 
L 127.456917 120.259376 
L 126.666771 126.264213 
L 126.237886 131.507518 
L 126.091572 136.596797 
L 126.161716 142.316145 
L 126.500094 148.36657 
L 127.049886 153.689048 
L 128.009179 159.524097 
L 129.166948 164.835079 
L 130.624069 170.368998 
L 133.141901 178.678022 
L 134.468003 182.48666 
L 136.230176 187.02901 
L 138.099961 191.394112 
L 140.014649 195.487904 
L 143.08283 201.374231 
L 145.419446 205.374842 
L 148.62896 210.492602 
L 151.563882 214.689901 
L 154.169739 218.147406 
L 157.266852 221.902394 
L 160.472667 225.504281 
L 166.960312 232.28507 
L 172.458363 238.092101 
L 190.676041 257.38683 
L 221.721911 289.582333 
L 223.108344 290.638315 
L 223.858155 291.020627 
L 224.934829 291.300968 
L 226.330312 291.360444 
L 227.284303 291.173257 
L 228.5065 290.631727 
L 232.866248 288.32204 
L 235.980954 286.889748 
L 236.766002 286.174479 
L 237.488294 285.221201 
L 238.047412 284.100972 
L 238.39432 283.020281 
L 238.6824 281.098851 
L 239.028485 274.921949 
L 239.165917 270.026291 
L 239.649314 252.697275 
L 240.187897 238.436008 
L 240.187897 238.436008 
" style="fill:none;stroke:#0000ff;stroke-linecap:square;stroke-width:1.5;"/>
   </g>
   <g id="line2d_16">
    <path clip-path="url(#p6bd2ed6650)" d="M 230.06634 286.904746 
L 229.931466 282.884368 
L 229.364998 273.848137 
L 228.659364 263.477346 
L 227.444779 248.203201 
L 227.65923 247.435322 
L 228.047414 246.859269 
L 228.581237 246.462476 
L 229.285919 246.204446 
L 230.861877 245.905085 
L 232.801955 245.769569 
L 241.357962 245.316282 
L 245.677973 245.080413 
L 248.447645 245.155031 
L 252.252349 245.534544 
L 254.238847 245.62507 
L 255.442862 245.45504 
L 256.318833 245.086749 
L 256.713362 244.776579 
L 257.25054 244.11788 
L 257.530411 243.541181 
L 257.895858 242.110777 
L 258.675396 238.591962 
L 259.807571 233.894555 
L 262.987317 219.887161 
L 263.562191 216.579369 
L 263.909217 213.027331 
L 264.143708 207.838057 
L 264.115796 204.894226 
L 263.51626 194.624927 
L 263.232918 188.885895 
L 263.228206 182.560329 
L 263.047451 175.90695 
L 262.860905 174.721441 
L 262.556996 173.937103 
L 261.906912 173.020407 
L 261.398075 172.620511 
L 260.518027 172.268092 
L 259.633909 172.188889 
L 257.468548 172.27868 
L 237.088561 173.347074 
L 232.350976 173.712284 
L 230.211288 173.677629 
L 229.394965 173.446647 
L 228.83939 173.088418 
L 228.418548 172.539411 
L 228.024685 171.596091 
L 227.759188 170.278853 
L 227.646636 168.190982 
L 226.931704 148.660371 
L 225.120312 113.788963 
L 224.799586 112.918463 
L 224.324666 112.121723 
L 223.40948 111.236307 
L 223.124208 111.051834 
L 220.935745 110.019074 
L 219.990882 109.82498 
L 218.300698 109.852202 
L 214.640279 110.175613 
L 209.502972 110.457387 
L 200.46002 110.916973 
L 195.311268 111.193182 
L 191.682719 111.184933 
L 187.770224 111.176039 
L 184.932555 111.419626 
L 180.941824 111.816793 
L 177.520247 111.993991 
L 169.662776 112.002133 
L 162.63941 112.303923 
L 149.539239 113.15084 
L 148.473363 113.512787 
L 147.555026 114.090112 
L 146.857858 114.855717 
L 146.390913 115.787285 
L 146.113648 116.922004 
L 146.005576 118.797428 
L 146.06465 121.157648 
L 146.493924 126.370589 
L 146.908686 132.347298 
L 147.338145 142.938056 
L 147.868472 159.493287 
L 148.331118 168.415116 
L 148.679037 177.304512 
L 148.781846 182.833494 
L 149.008375 183.712042 
L 149.602472 184.801698 
L 150.211995 185.467432 
L 151.054768 185.93158 
L 152.211847 186.281835 
L 153.848012 186.470843 
L 159.401363 186.606682 
L 166.233608 186.485991 
L 177.144718 185.912288 
L 182.059445 185.888553 
L 183.072991 185.641698 
L 184.100555 185.187843 
L 184.593941 184.821891 
L 185.318001 184.02623 
L 185.8547 183.065293 
L 186.216107 181.93859 
L 186.917447 179.251805 
L 187.282019 178.622204 
L 187.782369 178.058192 
L 188.528927 177.694839 
L 189.366187 177.489405 
L 191.596248 177.307862 
L 199.308929 177.093829 
L 209.128136 176.87137 
L 216.385006 176.521707 
L 220.522483 176.334138 
L 222.822491 176.396776 
L 224.048563 176.616439 
L 224.999048 177.089003 
L 225.655477 177.761875 
L 226.019137 178.620957 
L 226.210683 179.755475 
L 226.291922 182.069549 
L 226.278974 192.039302 
L 226.724256 210.884342 
L 227.404263 243.433595 
L 227.70902 244.597867 
L 228.185031 245.580387 
L 228.738062 246.219516 
L 229.623854 246.921292 
L 230.593835 247.346147 
L 231.665563 247.578252 
L 234.091317 247.786067 
L 240.017103 248.06087 
L 247.641621 247.975345 
L 253.514656 248.578783 
L 256.791753 248.977312 
L 258.822751 249.466099 
L 261.190375 250.319383 
L 265.629355 252.138864 
L 267.69702 253.155513 
L 273.473046 256.410927 
L 275.891634 258.055091 
L 277.931409 259.742919 
L 282.246433 263.518996 
L 285.696314 266.543916 
L 287.941639 268.444967 
L 293.763965 273.034099 
L 309.336361 285.550807 
L 310.650554 286.092386 
L 311.811108 286.329299 
L 313.669321 286.439041 
L 317.026061 286.663836 
L 322.404896 287.275983 
L 343.996096 289.969398 
L 349.168111 290.676286 
L 359.458244 292.101042 
L 362.162275 292.738702 
L 362.911978 292.58953 
L 363.650426 292.209499 
L 364.111337 291.730277 
L 364.549001 291.012337 
L 365.052636 289.614334 
L 365.41328 288.123477 
L 365.77264 285.205444 
L 366.362335 279.535917 
L 369.546609 253.626382 
L 370.360943 248.331812 
L 373.581274 232.997309 
L 374.474602 229.909105 
L 374.491147 228.656493 
L 374.238396 227.540182 
L 373.70585 226.478205 
L 372.929431 225.563716 
L 371.895053 224.7547 
L 369.805478 223.571049 
L 365.721345 221.165052 
L 359.942794 217.417297 
L 357.057811 215.115405 
L 353.71411 212.633296 
L 350.901284 210.782636 
L 339.982986 204.17834 
L 334.320868 200.649087 
L 332.81313 199.252363 
L 330.81541 197.65925 
L 328.52967 196.147961 
L 319.457255 190.474278 
L 315.414149 188.072975 
L 314.135691 187.535527 
L 312.836998 187.2572 
L 311.193205 187.199558 
L 302.249287 187.266358 
L 296.203461 187.217169 
L 279.006213 187.291755 
L 277.704076 187.037678 
L 276.868304 186.636437 
L 276.437548 186.249385 
L 275.720793 185.22539 
L 275.248809 184.042082 
L 274.998147 182.79185 
L 274.931669 180.587974 
L 275.103736 173.741983 
L 275.169015 161.603061 
L 275.174921 147.73903 
L 274.942115 141.153973 
L 274.565147 135.519951 
L 274.515772 130.670133 
L 274.70078 120.892074 
L 274.992545 114.064291 
L 274.614266 107.393299 
L 275.031608 85.706136 
L 274.878417 81.623876 
L 274.644897 77.421344 
L 274.859149 76.915435 
L 275.425406 76.231658 
L 275.968249 75.898187 
L 276.968787 75.608051 
L 278.625898 75.543819 
L 283.477491 75.570113 
L 311.030518 75.270903 
L 314.859472 74.757996 
L 317.750054 74.16202 
L 320.51969 73.382862 
L 323.599867 72.317656 
L 326.138696 71.240746 
L 328.839872 69.859778 
L 333.805101 67.172741 
L 334.717297 67.166839 
L 335.67161 67.449697 
L 336.549282 67.961282 
L 337.37558 68.721281 
L 338.635324 70.255009 
L 340.795052 73.319985 
L 347.571587 82.952721 
L 359.291242 98.867918 
L 362.148308 102.779605 
L 362.945983 104.18768 
L 363.279298 105.207437 
L 363.319452 106.001325 
L 363.156343 106.698601 
L 362.82588 107.279889 
L 361.935079 108.242979 
L 360.835092 109.051085 
L 359.630792 109.663422 
L 357.925225 110.244488 
L 355.655659 110.722254 
L 353.091779 111.02644 
L 347.218171 111.370681 
L 341.295468 111.53507 
L 331.452763 111.532913 
L 324.647216 111.385354 
L 319.482557 111.262506 
L 318.385779 111.466311 
L 317.390423 111.945073 
L 316.811482 112.455168 
L 316.241339 113.292879 
L 315.892484 114.26693 
L 315.63909 115.780066 
L 315.419408 118.379478 
L 315.272357 121.914963 
L 315.099579 134.549973 
L 314.934798 142.979782 
L 314.768785 153.089661 
L 314.599802 167.983601 
L 314.488834 179.773334 
L 314.425687 182.493536 
L 314.157363 183.431325 
L 313.65211 184.285912 
L 312.919093 184.990856 
L 311.965193 185.500739 
L 311.155706 185.719258 
L 309.88398 185.856608 
L 306.768376 185.869778 
L 297.27507 185.618831 
L 284.305327 185.552428 
L 282.667749 185.399805 
L 281.893542 185.108056 
L 281.313695 184.686183 
L 280.922174 184.224141 
L 280.526534 183.424182 
L 280.154796 182.187277 
L 280.002935 180.713826 
L 279.819893 176.184807 
L 279.372932 175.304469 
L 278.935104 174.77654 
L 278.206388 174.43785 
L 277.220768 174.257778 
L 273.008049 174.079809 
L 261.352642 173.761505 
L 255.894405 173.715359 
L 246.761323 173.709545 
L 245.815092 173.495887 
L 245.161789 173.124093 
L 244.71245 172.647057 
L 244.247291 171.714085 
L 243.995432 170.571796 
L 243.952819 169.339101 
L 244.861712 141.59514 
L 245.470515 119.525771 
L 245.67469 112.721852 
L 245.444797 111.710604 
L 245.085933 111.001619 
L 244.250812 110.094518 
L 243.692255 109.786655 
L 242.908922 109.680795 
L 234.64372 110.050482 
L 217.564407 109.557115 
L 212.489277 109.197678 
L 210.150267 109.08261 
L 199.507503 109.069932 
L 184.588174 108.199538 
L 174.753066 108.05588 
L 170.61164 107.959714 
L 161.626891 107.36053 
L 154.418322 106.593422 
L 150.282545 105.939427 
L 146.320851 105.161431 
L 144.611715 104.637523 
L 141.793392 103.690762 
L 140.463054 103.519865 
L 138.465 103.315606 
L 136.993847 103.007421 
L 135.946012 102.82842 
L 135.098979 102.873429 
L 134.320752 103.066923 
L 133.230188 103.624092 
L 132.460806 104.326821 
L 132.245466 104.654306 
L 130.395968 107.896036 
L 129.801851 109.544505 
L 129.412461 111.192756 
L 128.091115 118.910266 
L 127.40147 123.812264 
L 126.893226 129.048868 
L 126.679033 133.652621 
L 126.688086 140.964099 
L 126.973012 147.008013 
L 127.371679 151.241592 
L 128.240144 157.091145 
L 129.306976 162.421267 
L 130.667771 167.979689 
L 132.761219 175.362133 
L 134.323664 180.155627 
L 136.016781 184.724189 
L 138.111442 189.793975 
L 140.186623 194.296726 
L 142.310723 198.503493 
L 145.235071 203.68727 
L 147.762818 207.858147 
L 150.959523 212.598888 
L 153.869492 216.559112 
L 157.355418 220.856123 
L 162.558715 226.701552 
L 174.25644 239.426157 
L 195.869859 262.91792 
L 214.349033 282.934029 
L 219.251105 288.098111 
L 220.801993 289.448183 
L 221.65201 289.994435 
L 222.735333 290.389822 
L 224.068908 290.528395 
L 225.098323 290.437326 
L 226.312163 289.975729 
L 232.801904 286.899858 
L 234.052097 286.307466 
L 234.821999 285.66563 
L 235.567791 284.777518 
L 236.161681 283.727428 
L 236.56228 282.707312 
L 236.881404 281.185994 
L 237.111212 278.604792 
L 237.581472 271.452943 
L 238.185087 257.128786 
L 239.265737 237.869415 
L 239.265737 237.869415 
" style="fill:none;stroke:#ff0000;stroke-linecap:square;stroke-width:1.5;"/>
   </g>
   <g id="patch_3">
    <path d="M 57.6 307.584 
L 57.6 41.472 
" style="fill:none;stroke:#000000;stroke-linecap:square;stroke-linejoin:miter;stroke-width:0.8;"/>
   </g>
   <g id="patch_4">
    <path d="M 414.72 307.584 
L 414.72 41.472 
" style="fill:none;stroke:#000000;stroke-linecap:square;stroke-linejoin:miter;stroke-width:0.8;"/>
   </g>
   <g id="patch_5">
    <path d="M 57.6 307.584 
L 414.72 307.584 
" style="fill:none;stroke:#000000;stroke-linecap:square;stroke-linejoin:miter;stroke-width:0.8;"/>
   </g>
   <g id="patch_6">
    <path d="M 57.6 41.472 
L 414.72 41.472 
" style="fill:none;stroke:#000000;stroke-linecap:square;stroke-linejoin:miter;stroke-width:0.8;"/>
   </g>
  </g>
 </g>
 <defs>
  <clipPath id="p6bd2ed6650">
   <rect height="266.112" width="357.12" x="57.6" y="41.472"/>
  </clipPath>
 </defs>
</svg>
