<?xml version="1.0" encoding="utf-8" standalone="no"?>
<!DOCTYPE svg PUBLIC "-//W3C//DTD SVG 1.1//EN"
  "http://www.w3.org/Graphics/SVG/1.1/DTD/svg11.dtd">
<!-- Created with matplotlib (https://matplotlib.org/) -->
<svg height="345.6pt" version="1.1" viewBox="0 0 460.8 345.6" width="460.8pt" xmlns="http://www.w3.org/2000/svg" xmlns:xlink="http://www.w3.org/1999/xlink">
 <defs>
  <style type="text/css">
*{stroke-linecap:butt;stroke-linejoin:round;}
  </style>
 </defs>
 <g id="figure_1">
  <g id="patch_1">
   <path d="M 0 345.6 
L 460.8 345.6 
L 460.8 0 
L 0 0 
z
" style="fill:#ffffff;"/>
  </g>
  <g id="axes_1">
   <g id="patch_2">
    <path d="M 57.6 307.584 
L 414.72 307.584 
L 414.72 41.472 
L 57.6 41.472 
z
" style="fill:#ffffff;"/>
   </g>
   <g id="matplotlib.axis_1">
    <g id="xtick_1">
     <g id="line2d_1">
      <defs>
       <path d="M 0 0 
L 0 3.5 
" id="me6f9c7cfe8" style="stroke:#000000;stroke-width:0.8;"/>
      </defs>
      <g>
       <use style="stroke:#000000;stroke-width:0.8;" x="80.096898" xlink:href="#me6f9c7cfe8" y="307.584"/>
      </g>
     </g>
     <g id="text_1">
      <!-- −1000 -->
      <defs>
       <path d="M 10.59375 35.5 
L 73.1875 35.5 
L 73.1875 27.203125 
L 10.59375 27.203125 
z
" id="DejaVuSans-8722"/>
       <path d="M 12.40625 8.296875 
L 28.515625 8.296875 
L 28.515625 63.921875 
L 10.984375 60.40625 
L 10.984375 69.390625 
L 28.421875 72.90625 
L 38.28125 72.90625 
L 38.28125 8.296875 
L 54.390625 8.296875 
L 54.390625 0 
L 12.40625 0 
z
" id="DejaVuSans-49"/>
       <path d="M 31.78125 66.40625 
Q 24.171875 66.40625 20.328125 58.90625 
Q 16.5 51.421875 16.5 36.375 
Q 16.5 21.390625 20.328125 13.890625 
Q 24.171875 6.390625 31.78125 6.390625 
Q 39.453125 6.390625 43.28125 13.890625 
Q 47.125 21.390625 47.125 36.375 
Q 47.125 51.421875 43.28125 58.90625 
Q 39.453125 66.40625 31.78125 66.40625 
z
M 31.78125 74.21875 
Q 44.046875 74.21875 50.515625 64.515625 
Q 56.984375 54.828125 56.984375 36.375 
Q 56.984375 17.96875 50.515625 8.265625 
Q 44.046875 -1.421875 31.78125 -1.421875 
Q 19.53125 -1.421875 13.0625 8.265625 
Q 6.59375 17.96875 6.59375 36.375 
Q 6.59375 54.828125 13.0625 64.515625 
Q 19.53125 74.21875 31.78125 74.21875 
z
" id="DejaVuSans-48"/>
      </defs>
      <g transform="translate(63.182054 322.182437)scale(0.1 -0.1)">
       <use xlink:href="#DejaVuSans-8722"/>
       <use x="83.789062" xlink:href="#DejaVuSans-49"/>
       <use x="147.412109" xlink:href="#DejaVuSans-48"/>
       <use x="211.035156" xlink:href="#DejaVuSans-48"/>
       <use x="274.658203" xlink:href="#DejaVuSans-48"/>
      </g>
     </g>
    </g>
    <g id="xtick_2">
     <g id="line2d_2">
      <g>
       <use style="stroke:#000000;stroke-width:0.8;" x="135.879755" xlink:href="#me6f9c7cfe8" y="307.584"/>
      </g>
     </g>
     <g id="text_2">
      <!-- −500 -->
      <defs>
       <path d="M 10.796875 72.90625 
L 49.515625 72.90625 
L 49.515625 64.59375 
L 19.828125 64.59375 
L 19.828125 46.734375 
Q 21.96875 47.46875 24.109375 47.828125 
Q 26.265625 48.1875 28.421875 48.1875 
Q 40.625 48.1875 47.75 41.5 
Q 54.890625 34.8125 54.890625 23.390625 
Q 54.890625 11.625 47.5625 5.09375 
Q 40.234375 -1.421875 26.90625 -1.421875 
Q 22.3125 -1.421875 17.546875 -0.640625 
Q 12.796875 0.140625 7.71875 1.703125 
L 7.71875 11.625 
Q 12.109375 9.234375 16.796875 8.0625 
Q 21.484375 6.890625 26.703125 6.890625 
Q 35.15625 6.890625 40.078125 11.328125 
Q 45.015625 15.765625 45.015625 23.390625 
Q 45.015625 31 40.078125 35.4375 
Q 35.15625 39.890625 26.703125 39.890625 
Q 22.75 39.890625 18.8125 39.015625 
Q 14.890625 38.140625 10.796875 36.28125 
z
" id="DejaVuSans-53"/>
      </defs>
      <g transform="translate(122.146161 322.182437)scale(0.1 -0.1)">
       <use xlink:href="#DejaVuSans-8722"/>
       <use x="83.789062" xlink:href="#DejaVuSans-53"/>
       <use x="147.412109" xlink:href="#DejaVuSans-48"/>
       <use x="211.035156" xlink:href="#DejaVuSans-48"/>
      </g>
     </g>
    </g>
    <g id="xtick_3">
     <g id="line2d_3">
      <g>
       <use style="stroke:#000000;stroke-width:0.8;" x="191.662613" xlink:href="#me6f9c7cfe8" y="307.584"/>
      </g>
     </g>
     <g id="text_3">
      <!-- 0 -->
      <g transform="translate(188.481363 322.182437)scale(0.1 -0.1)">
       <use xlink:href="#DejaVuSans-48"/>
      </g>
     </g>
    </g>
    <g id="xtick_4">
     <g id="line2d_4">
      <g>
       <use style="stroke:#000000;stroke-width:0.8;" x="247.44547" xlink:href="#me6f9c7cfe8" y="307.584"/>
      </g>
     </g>
     <g id="text_4">
      <!-- 500 -->
      <g transform="translate(237.90172 322.182437)scale(0.1 -0.1)">
       <use xlink:href="#DejaVuSans-53"/>
       <use x="63.623047" xlink:href="#DejaVuSans-48"/>
       <use x="127.246094" xlink:href="#DejaVuSans-48"/>
      </g>
     </g>
    </g>
    <g id="xtick_5">
     <g id="line2d_5">
      <g>
       <use style="stroke:#000000;stroke-width:0.8;" x="303.228327" xlink:href="#me6f9c7cfe8" y="307.584"/>
      </g>
     </g>
     <g id="text_5">
      <!-- 1000 -->
      <g transform="translate(290.503327 322.182437)scale(0.1 -0.1)">
       <use xlink:href="#DejaVuSans-49"/>
       <use x="63.623047" xlink:href="#DejaVuSans-48"/>
       <use x="127.246094" xlink:href="#DejaVuSans-48"/>
       <use x="190.869141" xlink:href="#DejaVuSans-48"/>
      </g>
     </g>
    </g>
    <g id="xtick_6">
     <g id="line2d_6">
      <g>
       <use style="stroke:#000000;stroke-width:0.8;" x="359.011185" xlink:href="#me6f9c7cfe8" y="307.584"/>
      </g>
     </g>
     <g id="text_6">
      <!-- 1500 -->
      <g transform="translate(346.286185 322.182437)scale(0.1 -0.1)">
       <use xlink:href="#DejaVuSans-49"/>
       <use x="63.623047" xlink:href="#DejaVuSans-53"/>
       <use x="127.246094" xlink:href="#DejaVuSans-48"/>
       <use x="190.869141" xlink:href="#DejaVuSans-48"/>
      </g>
     </g>
    </g>
   </g>
   <g id="matplotlib.axis_2">
    <g id="ytick_1">
     <g id="line2d_7">
      <defs>
       <path d="M 0 0 
L -3.5 0 
" id="mddba1e1137" style="stroke:#000000;stroke-width:0.8;"/>
      </defs>
      <g>
       <use style="stroke:#000000;stroke-width:0.8;" x="57.6" xlink:href="#mddba1e1137" y="289.504613"/>
      </g>
     </g>
     <g id="text_7">
      <!-- −1500 -->
      <g transform="translate(16.770313 293.303832)scale(0.1 -0.1)">
       <use xlink:href="#DejaVuSans-8722"/>
       <use x="83.789062" xlink:href="#DejaVuSans-49"/>
       <use x="147.412109" xlink:href="#DejaVuSans-53"/>
       <use x="211.035156" xlink:href="#DejaVuSans-48"/>
       <use x="274.658203" xlink:href="#DejaVuSans-48"/>
      </g>
     </g>
    </g>
    <g id="ytick_2">
     <g id="line2d_8">
      <g>
       <use style="stroke:#000000;stroke-width:0.8;" x="57.6" xlink:href="#mddba1e1137" y="233.721756"/>
      </g>
     </g>
     <g id="text_8">
      <!-- −1000 -->
      <g transform="translate(16.770313 237.520974)scale(0.1 -0.1)">
       <use xlink:href="#DejaVuSans-8722"/>
       <use x="83.789062" xlink:href="#DejaVuSans-49"/>
       <use x="147.412109" xlink:href="#DejaVuSans-48"/>
       <use x="211.035156" xlink:href="#DejaVuSans-48"/>
       <use x="274.658203" xlink:href="#DejaVuSans-48"/>
      </g>
     </g>
    </g>
    <g id="ytick_3">
     <g id="line2d_9">
      <g>
       <use style="stroke:#000000;stroke-width:0.8;" x="57.6" xlink:href="#mddba1e1137" y="177.938898"/>
      </g>
     </g>
     <g id="text_9">
      <!-- −500 -->
      <g transform="translate(23.132812 181.738117)scale(0.1 -0.1)">
       <use xlink:href="#DejaVuSans-8722"/>
       <use x="83.789062" xlink:href="#DejaVuSans-53"/>
       <use x="147.412109" xlink:href="#DejaVuSans-48"/>
       <use x="211.035156" xlink:href="#DejaVuSans-48"/>
      </g>
     </g>
    </g>
    <g id="ytick_4">
     <g id="line2d_10">
      <g>
       <use style="stroke:#000000;stroke-width:0.8;" x="57.6" xlink:href="#mddba1e1137" y="122.156041"/>
      </g>
     </g>
     <g id="text_10">
      <!-- 0 -->
      <g transform="translate(44.2375 125.95526)scale(0.1 -0.1)">
       <use xlink:href="#DejaVuSans-48"/>
      </g>
     </g>
    </g>
    <g id="ytick_5">
     <g id="line2d_11">
      <g>
       <use style="stroke:#000000;stroke-width:0.8;" x="57.6" xlink:href="#mddba1e1137" y="66.373184"/>
      </g>
     </g>
     <g id="text_11">
      <!-- 500 -->
      <g transform="translate(31.5125 70.172402)scale(0.1 -0.1)">
       <use xlink:href="#DejaVuSans-53"/>
       <use x="63.623047" xlink:href="#DejaVuSans-48"/>
       <use x="127.246094" xlink:href="#DejaVuSans-48"/>
      </g>
     </g>
    </g>
   </g>
   <g id="line2d_12">
    <path clip-path="url(#p6c062a87dc)" d="M 191.662613 122.156041 
L 191.806318 121.394471 
L 192.179322 120.729109 
L 192.735596 120.231716 
L 193.424033 119.930463 
L 194.323862 119.78921 
L 195.580213 119.859424 
L 199.426634 120.447897 
L 204.773615 121.347532 
L 207.935789 122.160657 
L 211.227502 123.222367 
L 215.122049 124.716916 
L 219.277849 126.577612 
L 222.881745 128.4545 
L 226.848788 130.78088 
L 230.095796 132.959637 
L 233.492191 135.511072 
L 236.736634 138.203633 
L 247.800996 147.729192 
L 263.664336 160.680813 
L 275.272269 169.840727 
L 283.966194 176.431952 
L 292.329238 182.498171 
L 300.955131 188.374014 
L 311.050423 194.956548 
L 318.774006 199.689245 
L 329.862968 206.111448 
L 338.125414 210.579833 
L 347.553051 215.431068 
L 356.365181 219.706144 
L 366.81186 224.508915 
L 372.337263 227.134993 
L 380.822951 231.351854 
L 387.191792 234.233742 
L 391.273535 236.132033 
L 392.79875 237.035827 
L 393.833076 237.91251 
L 394.572087 238.81954 
L 395.129358 239.846391 
L 395.499198 241.118574 
L 395.583765 242.442302 
L 395.390087 243.76893 
L 394.90009 245.030515 
L 394.123481 246.144722 
L 393.106002 247.044053 
L 391.889712 247.703741 
L 390.704215 248.090651 
L 389.075802 248.394556 
L 385.857801 248.715196 
L 382.002424 248.922932 
L 380.841137 248.79452 
L 379.747904 248.46752 
L 378.904021 248.001734 
L 378.176724 247.363354 
L 377.544035 246.460676 
L 377.171963 245.580869 
L 376.959319 244.633118 
L 376.973042 243.500391 
L 377.137155 242.694329 
L 377.357609 242.057846 
L 377.357609 242.057846 
" style="fill:none;stroke:#008000;stroke-linecap:square;stroke-width:1.5;"/>
   </g>
   <g id="line2d_13">
    <path clip-path="url(#p6c062a87dc)" d="M 191.662613 122.156041 
L 191.773724 121.499836 
L 192.109978 120.812624 
L 192.562462 120.356097 
L 193.210641 119.992167 
L 194.079204 119.780341 
L 195.183893 119.776637 
L 197.827446 120.10732 
L 205.237418 121.203876 
L 207.733697 121.811426 
L 216.683419 124.898445 
L 223.781578 128.248835 
L 228.588199 131.038534 
L 232.353724 133.575146 
L 232.599514 133.399569 
L 234.214456 134.769624 
L 234.768425 134.5812 
L 234.961253 134.814359 
L 235.252547 134.87868 
L 235.514406 134.76298 
L 235.463704 134.471391 
L 234.882435 134.379629 
L 234.656155 134.535703 
L 235.102907 134.310557 
L 235.03402 134.572053 
L 234.744686 134.516041 
L 234.951269 134.729304 
L 234.407788 134.870677 
L 234.295015 135.120683 
L 234.229018 134.835021 
L 233.968383 134.929545 
L 233.787791 134.696073 
L 219.240241 131.283018 
L 200.175855 127.031034 
L 193.651731 125.550982 
L 191.102124 124.999996 
L 188.266266 124.412264 
L 187.728919 124.189124 
L 170.096328 120.829767 
L 169.814613 120.823431 
L 170.376464 120.923642 
L 170.374455 120.942577 
L 171.493675 121.099537 
L 172.360173 121.190992 
L 170.964736 120.991976 
L 170.851964 120.740297 
L 167.221894 120.200226 
L 163.874008 119.724529 
L 157.00955 118.753817 
L 154.55761 118.470297 
L 151.292626 118.148383 
L 134.561928 116.898528 
L 127.561725 116.605446 
L 127.77067 116.416837 
L 121.040677 116.298727 
L 110.65355 116.339051 
L 109.797952 116.348586 
L 109.926809 116.10108 
L 108.7921 116.093156 
L 108.572606 115.898613 
L 103.581884 115.940974 
L 103.74223 115.733534 
L 99.184899 115.770378 
L 96.314735 115.832726 
L 94.763905 115.840191 
L 91.199902 115.810833 
L 89.457341 115.747237 
L 88.717476 115.724305 
L 88.943679 115.671556 
L 90.305508 115.319251 
L 90.066521 115.313113 
L 89.110773 115.243619 
L 89.571151 115.212706 
L 91.175667 115.121863 
L 89.572246 115.102296 
L 84.369914 115.108383 
L 79.755253 114.924424 
L 78.454621 114.611477 
L 77.230126 114.073408 
L 76.254567 113.425398 
L 75.420898 112.62541 
L 74.663221 111.560304 
L 74.114841 110.390933 
L 73.874359 109.305424 
L 73.854581 108.216842 
L 74.069928 107.1717 
L 74.524994 106.215396 
L 75.287211 105.234206 
L 76.261063 104.382836 
L 78.249456 103.062927 
L 81.503758 101.153944 
L 83.090405 100.422578 
L 84.140454 100.173177 
L 85.238881 100.144864 
L 86.3123 100.360862 
L 87.327941 100.817127 
L 87.868525 101.062018 
L 87.99576 100.982923 
L 87.961989 101.120092 
L 88.259983 101.136771 
L 88.223881 101.274185 
L 88.663264 101.182755 
L 87.953667 101.73072 
L 88.144631 101.849056 
L 88.257125 102.305295 
L 88.251794 102.46196 
L 88.251794 102.46196 
" style="fill:none;stroke:#0000ff;stroke-linecap:square;stroke-width:1.5;"/>
   </g>
   <g id="line2d_14">
    <path clip-path="url(#p6c062a87dc)" d="M 191.662613 122.156041 
L 191.776365 121.499578 
L 192.429904 120.52427 
L 192.925561 120.171088 
L 193.643855 119.959132 
L 194.328957 119.924805 
L 196.400057 120.046035 
L 200.949139 120.235024 
L 210.170352 120.377938 
L 211.403582 120.44447 
L 216.517311 120.704599 
L 223.601503 121.08246 
L 231.277806 121.889775 
L 237.437932 123.218591 
L 237.729635 123.294119 
L 237.139018 123.180925 
L 237.390633 123.315944 
L 244.587065 126.026415 
L 261.67685 132.553626 
L 262.481885 132.908074 
L 270.419802 136.103789 
L 270.974405 136.28425 
L 271.519734 136.393798 
L 272.887355 136.900617 
L 273.446863 137.028118 
L 288.076177 143.166064 
L 299.068166 147.9123 
L 300.685444 148.561156 
L 300.434979 148.401244 
L 300.081789 148.185644 
L 300.35041 148.283664 
L 300.497847 148.21822 
L 300.275465 147.923966 
L 300.123573 147.764751 
L 300.626177 147.770127 
L 300.594403 147.530385 
L 300.863261 147.622437 
L 301.060586 147.512349 
L 300.793886 147.414458 
L 302.11663 147.891222 
L 302.313691 147.837815 
L 303.867922 148.279928 
L 310.66849 150.532677 
L 314.720898 151.840652 
L 326.518418 155.921486 
L 327.310886 156.201194 
L 344.492393 161.839868 
L 344.710892 161.798402 
L 345.234099 162.06982 
L 349.168513 163.360439 
L 349.676084 163.663944 
L 357.780236 166.194021 
L 370.101799 170.092444 
L 377.202455 172.540759 
L 377.581948 172.825657 
L 378.557709 173.203401 
L 380.990088 174.09155 
L 380.855457 173.981635 
L 384.376239 175.327807 
L 383.467992 175.20239 
L 383.222201 175.172027 
L 383.671694 175.339083 
L 383.667476 175.34512 
L 383.449429 175.325283 
L 383.602111 175.510274 
L 383.172585 175.486959 
L 382.941589 175.441774 
L 383.381711 175.607641 
L 383.777928 175.822045 
L 383.815719 175.981146 
L 383.200587 175.966904 
L 383.238622 176.106395 
L 383.096382 176.17515 
L 383.159521 176.433635 
L 383.185263 176.576347 
L 386.05356 177.346037 
L 393.628101 179.421001 
L 395.365803 180.082709 
L 396.227254 180.588766 
L 396.987093 181.244787 
L 397.616787 182.007926 
L 398.005964 182.706577 
L 398.37834 183.869597 
L 398.487273 185.109699 
L 398.365514 186.246272 
L 398.006584 187.232597 
L 397.426505 188.070327 
L 396.520462 188.774289 
L 394.838202 189.630951 
L 392.000793 190.861796 
L 390.020397 191.514895 
L 389.176981 191.610196 
L 388.44673 191.511188 
L 387.748108 191.200966 
L 387.148432 190.71475 
L 386.809115 190.290424 
L 386.70499 190.012678 
L 387.032794 189.773949 
L 387.653806 189.691687 
L 387.310235 189.307266 
L 387.279972 189.652312 
L 387.216614 189.349098 
L 387.133148 188.878737 
L 387.133148 188.878737 
" style="fill:none;stroke:#ff0000;stroke-linecap:square;stroke-width:1.5;"/>
   </g>
   <g id="patch_3">
    <path d="M 57.6 307.584 
L 57.6 41.472 
" style="fill:none;stroke:#000000;stroke-linecap:square;stroke-linejoin:miter;stroke-width:0.8;"/>
   </g>
   <g id="patch_4">
    <path d="M 414.72 307.584 
L 414.72 41.472 
" style="fill:none;stroke:#000000;stroke-linecap:square;stroke-linejoin:miter;stroke-width:0.8;"/>
   </g>
   <g id="patch_5">
    <path d="M 57.6 307.584 
L 414.72 307.584 
" style="fill:none;stroke:#000000;stroke-linecap:square;stroke-linejoin:miter;stroke-width:0.8;"/>
   </g>
   <g id="patch_6">
    <path d="M 57.6 41.472 
L 414.72 41.472 
" style="fill:none;stroke:#000000;stroke-linecap:square;stroke-linejoin:miter;stroke-width:0.8;"/>
   </g>
  </g>
 </g>
 <defs>
  <clipPath id="p6c062a87dc">
   <rect height="266.112" width="357.12" x="57.6" y="41.472"/>
  </clipPath>
 </defs>
</svg>
