<?xml version="1.0" encoding="utf-8" standalone="no"?>
<!DOCTYPE svg PUBLIC "-//W3C//DTD SVG 1.1//EN"
  "http://www.w3.org/Graphics/SVG/1.1/DTD/svg11.dtd">
<!-- Created with matplotlib (https://matplotlib.org/) -->
<svg height="345.6pt" version="1.1" viewBox="0 0 460.8 345.6" width="460.8pt" xmlns="http://www.w3.org/2000/svg" xmlns:xlink="http://www.w3.org/1999/xlink">
 <defs>
  <style type="text/css">
*{stroke-linecap:butt;stroke-linejoin:round;}
  </style>
 </defs>
 <g id="figure_1">
  <g id="patch_1">
   <path d="M 0 345.6 
L 460.8 345.6 
L 460.8 0 
L 0 0 
z
" style="fill:#ffffff;"/>
  </g>
  <g id="axes_1">
   <g id="patch_2">
    <path d="M 57.6 307.584 
L 414.72 307.584 
L 414.72 41.472 
L 57.6 41.472 
z
" style="fill:#ffffff;"/>
   </g>
   <g id="matplotlib.axis_1">
    <g id="xtick_1">
     <g id="line2d_1">
      <defs>
       <path d="M 0 0 
L 0 3.5 
" id="m529f69ef9a" style="stroke:#000000;stroke-width:0.8;"/>
      </defs>
      <g>
       <use style="stroke:#000000;stroke-width:0.8;" x="72.988596" xlink:href="#m529f69ef9a" y="307.584"/>
      </g>
     </g>
     <g id="text_1">
      <!-- −300 -->
      <defs>
       <path d="M 10.59375 35.5 
L 73.1875 35.5 
L 73.1875 27.203125 
L 10.59375 27.203125 
z
" id="DejaVuSans-8722"/>
       <path d="M 40.578125 39.3125 
Q 47.65625 37.796875 51.625 33 
Q 55.609375 28.21875 55.609375 21.1875 
Q 55.609375 10.40625 48.1875 4.484375 
Q 40.765625 -1.421875 27.09375 -1.421875 
Q 22.515625 -1.421875 17.65625 -0.515625 
Q 12.796875 0.390625 7.625 2.203125 
L 7.625 11.71875 
Q 11.71875 9.328125 16.59375 8.109375 
Q 21.484375 6.890625 26.8125 6.890625 
Q 36.078125 6.890625 40.9375 10.546875 
Q 45.796875 14.203125 45.796875 21.1875 
Q 45.796875 27.640625 41.28125 31.265625 
Q 36.765625 34.90625 28.71875 34.90625 
L 20.21875 34.90625 
L 20.21875 43.015625 
L 29.109375 43.015625 
Q 36.375 43.015625 40.234375 45.921875 
Q 44.09375 48.828125 44.09375 54.296875 
Q 44.09375 59.90625 40.109375 62.90625 
Q 36.140625 65.921875 28.71875 65.921875 
Q 24.65625 65.921875 20.015625 65.03125 
Q 15.375 64.15625 9.8125 62.3125 
L 9.8125 71.09375 
Q 15.4375 72.65625 20.34375 73.4375 
Q 25.25 74.21875 29.59375 74.21875 
Q 40.828125 74.21875 47.359375 69.109375 
Q 53.90625 64.015625 53.90625 55.328125 
Q 53.90625 49.265625 50.4375 45.09375 
Q 46.96875 40.921875 40.578125 39.3125 
z
" id="DejaVuSans-51"/>
       <path d="M 31.78125 66.40625 
Q 24.171875 66.40625 20.328125 58.90625 
Q 16.5 51.421875 16.5 36.375 
Q 16.5 21.390625 20.328125 13.890625 
Q 24.171875 6.390625 31.78125 6.390625 
Q 39.453125 6.390625 43.28125 13.890625 
Q 47.125 21.390625 47.125 36.375 
Q 47.125 51.421875 43.28125 58.90625 
Q 39.453125 66.40625 31.78125 66.40625 
z
M 31.78125 74.21875 
Q 44.046875 74.21875 50.515625 64.515625 
Q 56.984375 54.828125 56.984375 36.375 
Q 56.984375 17.96875 50.515625 8.265625 
Q 44.046875 -1.421875 31.78125 -1.421875 
Q 19.53125 -1.421875 13.0625 8.265625 
Q 6.59375 17.96875 6.59375 36.375 
Q 6.59375 54.828125 13.0625 64.515625 
Q 19.53125 74.21875 31.78125 74.21875 
z
" id="DejaVuSans-48"/>
      </defs>
      <g transform="translate(59.255003 322.182437)scale(0.1 -0.1)">
       <use xlink:href="#DejaVuSans-8722"/>
       <use x="83.789062" xlink:href="#DejaVuSans-51"/>
       <use x="147.412109" xlink:href="#DejaVuSans-48"/>
       <use x="211.035156" xlink:href="#DejaVuSans-48"/>
      </g>
     </g>
    </g>
    <g id="xtick_2">
     <g id="line2d_2">
      <g>
       <use style="stroke:#000000;stroke-width:0.8;" x="129.635761" xlink:href="#m529f69ef9a" y="307.584"/>
      </g>
     </g>
     <g id="text_2">
      <!-- −200 -->
      <defs>
       <path d="M 19.1875 8.296875 
L 53.609375 8.296875 
L 53.609375 0 
L 7.328125 0 
L 7.328125 8.296875 
Q 12.9375 14.109375 22.625 23.890625 
Q 32.328125 33.6875 34.8125 36.53125 
Q 39.546875 41.84375 41.421875 45.53125 
Q 43.3125 49.21875 43.3125 52.78125 
Q 43.3125 58.59375 39.234375 62.25 
Q 35.15625 65.921875 28.609375 65.921875 
Q 23.96875 65.921875 18.8125 64.3125 
Q 13.671875 62.703125 7.8125 59.421875 
L 7.8125 69.390625 
Q 13.765625 71.78125 18.9375 73 
Q 24.125 74.21875 28.421875 74.21875 
Q 39.75 74.21875 46.484375 68.546875 
Q 53.21875 62.890625 53.21875 53.421875 
Q 53.21875 48.921875 51.53125 44.890625 
Q 49.859375 40.875 45.40625 35.40625 
Q 44.1875 33.984375 37.640625 27.21875 
Q 31.109375 20.453125 19.1875 8.296875 
z
" id="DejaVuSans-50"/>
      </defs>
      <g transform="translate(115.902167 322.182437)scale(0.1 -0.1)">
       <use xlink:href="#DejaVuSans-8722"/>
       <use x="83.789062" xlink:href="#DejaVuSans-50"/>
       <use x="147.412109" xlink:href="#DejaVuSans-48"/>
       <use x="211.035156" xlink:href="#DejaVuSans-48"/>
      </g>
     </g>
    </g>
    <g id="xtick_3">
     <g id="line2d_3">
      <g>
       <use style="stroke:#000000;stroke-width:0.8;" x="186.282926" xlink:href="#m529f69ef9a" y="307.584"/>
      </g>
     </g>
     <g id="text_3">
      <!-- −100 -->
      <defs>
       <path d="M 12.40625 8.296875 
L 28.515625 8.296875 
L 28.515625 63.921875 
L 10.984375 60.40625 
L 10.984375 69.390625 
L 28.421875 72.90625 
L 38.28125 72.90625 
L 38.28125 8.296875 
L 54.390625 8.296875 
L 54.390625 0 
L 12.40625 0 
z
" id="DejaVuSans-49"/>
      </defs>
      <g transform="translate(172.549332 322.182437)scale(0.1 -0.1)">
       <use xlink:href="#DejaVuSans-8722"/>
       <use x="83.789062" xlink:href="#DejaVuSans-49"/>
       <use x="147.412109" xlink:href="#DejaVuSans-48"/>
       <use x="211.035156" xlink:href="#DejaVuSans-48"/>
      </g>
     </g>
    </g>
    <g id="xtick_4">
     <g id="line2d_4">
      <g>
       <use style="stroke:#000000;stroke-width:0.8;" x="242.930091" xlink:href="#m529f69ef9a" y="307.584"/>
      </g>
     </g>
     <g id="text_4">
      <!-- 0 -->
      <g transform="translate(239.748841 322.182437)scale(0.1 -0.1)">
       <use xlink:href="#DejaVuSans-48"/>
      </g>
     </g>
    </g>
    <g id="xtick_5">
     <g id="line2d_5">
      <g>
       <use style="stroke:#000000;stroke-width:0.8;" x="299.577256" xlink:href="#m529f69ef9a" y="307.584"/>
      </g>
     </g>
     <g id="text_5">
      <!-- 100 -->
      <g transform="translate(290.033506 322.182437)scale(0.1 -0.1)">
       <use xlink:href="#DejaVuSans-49"/>
       <use x="63.623047" xlink:href="#DejaVuSans-48"/>
       <use x="127.246094" xlink:href="#DejaVuSans-48"/>
      </g>
     </g>
    </g>
    <g id="xtick_6">
     <g id="line2d_6">
      <g>
       <use style="stroke:#000000;stroke-width:0.8;" x="356.22442" xlink:href="#m529f69ef9a" y="307.584"/>
      </g>
     </g>
     <g id="text_6">
      <!-- 200 -->
      <g transform="translate(346.68067 322.182437)scale(0.1 -0.1)">
       <use xlink:href="#DejaVuSans-50"/>
       <use x="63.623047" xlink:href="#DejaVuSans-48"/>
       <use x="127.246094" xlink:href="#DejaVuSans-48"/>
      </g>
     </g>
    </g>
    <g id="xtick_7">
     <g id="line2d_7">
      <g>
       <use style="stroke:#000000;stroke-width:0.8;" x="412.871585" xlink:href="#m529f69ef9a" y="307.584"/>
      </g>
     </g>
     <g id="text_7">
      <!-- 300 -->
      <g transform="translate(403.327835 322.182437)scale(0.1 -0.1)">
       <use xlink:href="#DejaVuSans-51"/>
       <use x="63.623047" xlink:href="#DejaVuSans-48"/>
       <use x="127.246094" xlink:href="#DejaVuSans-48"/>
      </g>
     </g>
    </g>
   </g>
   <g id="matplotlib.axis_2">
    <g id="ytick_1">
     <g id="line2d_8">
      <defs>
       <path d="M 0 0 
L -3.5 0 
" id="m6f92d88721" style="stroke:#000000;stroke-width:0.8;"/>
      </defs>
      <g>
       <use style="stroke:#000000;stroke-width:0.8;" x="57.6" xlink:href="#m6f92d88721" y="263.308036"/>
      </g>
     </g>
     <g id="text_8">
      <!-- 0 -->
      <g transform="translate(44.2375 267.107255)scale(0.1 -0.1)">
       <use xlink:href="#DejaVuSans-48"/>
      </g>
     </g>
    </g>
    <g id="ytick_2">
     <g id="line2d_9">
      <g>
       <use style="stroke:#000000;stroke-width:0.8;" x="57.6" xlink:href="#m6f92d88721" y="206.660872"/>
      </g>
     </g>
     <g id="text_9">
      <!-- 100 -->
      <g transform="translate(31.5125 210.46009)scale(0.1 -0.1)">
       <use xlink:href="#DejaVuSans-49"/>
       <use x="63.623047" xlink:href="#DejaVuSans-48"/>
       <use x="127.246094" xlink:href="#DejaVuSans-48"/>
      </g>
     </g>
    </g>
    <g id="ytick_3">
     <g id="line2d_10">
      <g>
       <use style="stroke:#000000;stroke-width:0.8;" x="57.6" xlink:href="#m6f92d88721" y="150.013707"/>
      </g>
     </g>
     <g id="text_10">
      <!-- 200 -->
      <g transform="translate(31.5125 153.812926)scale(0.1 -0.1)">
       <use xlink:href="#DejaVuSans-50"/>
       <use x="63.623047" xlink:href="#DejaVuSans-48"/>
       <use x="127.246094" xlink:href="#DejaVuSans-48"/>
      </g>
     </g>
    </g>
    <g id="ytick_4">
     <g id="line2d_11">
      <g>
       <use style="stroke:#000000;stroke-width:0.8;" x="57.6" xlink:href="#m6f92d88721" y="93.366542"/>
      </g>
     </g>
     <g id="text_11">
      <!-- 300 -->
      <g transform="translate(31.5125 97.165761)scale(0.1 -0.1)">
       <use xlink:href="#DejaVuSans-51"/>
       <use x="63.623047" xlink:href="#DejaVuSans-48"/>
       <use x="127.246094" xlink:href="#DejaVuSans-48"/>
      </g>
     </g>
    </g>
   </g>
   <g id="line2d_12">
    <path clip-path="url(#p0756fc44dd)" d="M 242.930091 263.308036 
L 242.84825 258.981551 
L 242.664619 249.245395 
L 242.244385 232.544961 
L 241.205946 206.649542 
L 241.11841 204.685868 
L 241.234127 203.546184 
L 241.552574 202.533899 
L 241.955632 201.837196 
L 242.629455 201.114548 
L 243.329515 200.674173 
L 244.147392 200.371394 
L 245.58727 200.176471 
L 247.055317 200.146221 
L 265.035814 200.565467 
L 274.254115 201.009864 
L 278.657446 201.463947 
L 293.370579 203.21916 
L 308.707249 205.093898 
L 314.142601 206.022798 
L 316.530166 206.623484 
L 326.612285 209.582953 
L 328.558172 209.9175 
L 330.468484 209.984542 
L 332.331439 210.055549 
L 334.097245 210.298662 
L 337.08289 210.959275 
L 340.22069 211.817729 
L 347.292239 213.827559 
L 348.403543 213.886659 
L 349.666831 213.727067 
L 350.692032 213.369454 
L 351.716609 212.726548 
L 352.51641 211.937844 
L 353.258205 210.917634 
L 354.112331 209.307931 
L 355.063097 206.994495 
L 361.040562 189.249856 
L 362.713863 183.400526 
L 363.387171 180.506422 
L 363.417421 179.295193 
L 363.245723 178.376262 
L 362.779007 177.351742 
L 362.061458 176.5435 
L 361.158219 175.998951 
L 359.701083 175.659351 
L 358.001102 175.515297 
L 356.178876 175.529119 
L 351.400801 175.630234 
L 348.510153 175.435878 
L 340.985143 174.576371 
L 325.989449 172.669174 
L 318.631039 171.734722 
L 303.761215 170.398416 
L 291.165418 169.165207 
L 279.490652 167.890476 
L 269.347779 167.098718 
L 259.756768 166.603735 
L 249.123852 166.108073 
L 245.502998 165.705595 
L 243.914134 165.34022 
L 242.657054 164.795728 
L 241.895117 164.251349 
L 241.118715 163.37428 
L 240.566479 162.399893 
L 240.136862 161.135245 
L 239.916835 159.584189 
L 239.877975 156.990995 
L 239.835008 150.784788 
L 239.596128 141.66839 
L 239.423144 134.963235 
L 239.620456 134.057787 
L 240.07847 133.040687 
L 240.724135 132.17778 
L 241.774888 131.334701 
L 242.931449 130.838981 
L 244.045005 130.614319 
L 245.65958 130.458142 
L 247.899106 130.48352 
L 255.486971 130.805899 
L 274.397738 131.177335 
L 290.010439 131.816825 
L 293.813712 132.303481 
L 300.931576 133.263537 
L 309.411203 134.022552 
L 316.633887 134.477542 
L 324.054099 134.982155 
L 327.710787 135.443433 
L 330.838787 136.049784 
L 341.249912 138.406136 
L 353.636835 140.352759 
L 363.623956 141.780268 
L 365.613688 142.351271 
L 366.867856 142.921029 
L 367.843717 143.572414 
L 368.627204 144.282826 
L 369.522002 145.435143 
L 370.144045 146.542255 
L 370.732156 148.166896 
L 370.975739 149.617403 
L 371.000097 151.1458 
L 370.7794 153.168161 
L 370.338968 155.277588 
L 369.544945 157.875257 
L 366.318095 167.252175 
L 364.833883 172.136917 
L 364.212407 173.511914 
L 363.572294 174.437415 
L 362.785578 175.187594 
L 361.903582 175.726082 
L 360.896962 176.089133 
L 359.782316 176.268365 
L 357.57217 176.303939 
L 354.578254 176.070779 
L 345.615596 175.10183 
L 315.358533 171.407245 
L 293.644292 169.298668 
L 283.669882 168.085908 
L 275.15766 167.367226 
L 264.26509 166.7057 
L 252.6744 166.06842 
L 243.528808 164.821502 
L 241.038249 164.682717 
L 234.188844 164.420327 
L 199.235861 163.497715 
L 191.880742 163.455796 
L 185.069034 163.632478 
L 176.313875 164.105765 
L 148.853652 165.905899 
L 132.901923 167.046886 
L 127.823618 167.538244 
L 122.578317 168.357475 
L 119.955157 168.704722 
L 117.156051 168.805611 
L 115.006857 168.657478 
L 112.816255 168.303773 
L 110.218812 167.855921 
L 108.975124 167.866741 
L 108.085763 168.084775 
L 107.303466 168.458533 
L 106.503042 169.043585 
L 105.066073 170.493696 
L 104.433041 171.464742 
L 103.99125 172.480369 
L 103.61296 173.775323 
L 103.029891 176.516479 
L 102.671257 179.712173 
L 101.913035 189.378955 
L 101.531856 196.702413 
L 101.184609 209.083569 
L 100.94873 216.602761 
L 99.55487 249.638849 
L 99.698811 252.361414 
L 99.996605 254.508098 
L 100.476067 256.635935 
L 101.159628 258.739767 
L 102.053917 260.809076 
L 103.173774 262.824514 
L 104.834386 265.28094 
L 109.735216 271.739208 
L 112.283771 275.323806 
L 115.235938 280.000155 
L 120.779487 288.853812 
L 122.774543 291.54948 
L 124.161492 293.084681 
L 125.260731 293.975865 
L 126.323771 294.527654 
L 127.399558 294.817591 
L 128.508313 294.934132 
L 129.918204 294.842522 
L 131.72202 294.479906 
L 133.519207 293.886187 
L 135.078931 293.15749 
L 137.142473 291.890831 
L 146.518995 285.671221 
L 150.599121 283.276445 
L 154.23332 281.357687 
L 165.18316 276.025835 
L 177.677995 270.107328 
L 182.450065 268.329403 
L 189.082984 266.097517 
L 193.381167 264.934431 
L 198.351259 263.849991 
L 205.105068 262.56402 
L 214.091144 261.105254 
L 220.46229 260.282954 
L 230.417123 259.252341 
L 238.398116 258.373189 
L 239.42721 257.931292 
L 240.18988 257.354952 
L 240.837708 256.649768 
L 241.457794 255.678853 
L 241.988743 254.42234 
L 242.417691 252.899834 
L 242.664204 251.134895 
L 242.733089 248.636568 
L 242.531564 238.144125 
L 241.439033 200.024203 
L 241.195845 186.851755 
L 240.065094 148.942622 
L 239.553367 128.543072 
L 239.236104 121.949228 
L 238.11322 92.697935 
L 238.131579 87.089866 
L 238.380264 81.008227 
L 238.948799 73.855729 
L 239.770957 62.436623 
L 240.208454 53.568 
L 240.208454 53.568 
" style="fill:none;stroke:#008000;stroke-linecap:square;stroke-width:1.5;"/>
   </g>
   <g id="line2d_13">
    <path clip-path="url(#p0756fc44dd)" d="M 242.930091 263.308036 
L 242.871049 259.084924 
L 242.520143 246.669345 
L 241.293185 212.361163 
L 240.977185 205.191562 
L 241.237333 204.375312 
L 241.665672 203.659809 
L 242.238204 203.088334 
L 242.934254 202.696217 
L 243.900617 202.392826 
L 245.182872 202.230227 
L 246.635587 202.185502 
L 271.915382 202.77352 
L 275.357003 203.014369 
L 283.331684 203.844679 
L 292.507307 204.991869 
L 301.682524 206.000839 
L 308.775385 206.90618 
L 313.83293 207.744505 
L 316.168201 208.323963 
L 324.622382 210.776171 
L 327.969939 211.420685 
L 329.638852 211.496324 
L 332.229312 211.550931 
L 334.148786 211.804039 
L 336.680779 212.372929 
L 340.061077 213.267494 
L 346.607052 215.171892 
L 347.978452 215.309247 
L 349.242874 215.183091 
L 350.280347 214.873012 
L 351.300359 214.283345 
L 352.078622 213.586429 
L 352.854841 212.599365 
L 353.706108 211.104498 
L 354.673555 208.894114 
L 358.512751 197.855845 
L 360.796387 190.790674 
L 362.398787 185.091686 
L 362.917788 182.617414 
L 362.920162 181.643998 
L 362.730247 180.68022 
L 362.408968 179.906881 
L 360.790673 177.375515 
L 360.117621 176.656753 
L 359.556203 176.251577 
L 358.558282 175.807606 
L 356.881456 175.447227 
L 355.551142 175.354749 
L 353.122191 175.399463 
L 350.053038 175.429701 
L 345.846793 175.139391 
L 329.442518 173.127872 
L 322.418834 172.171422 
L 317.535388 171.598453 
L 299.677973 169.951348 
L 293.243751 169.305427 
L 277.767239 167.681504 
L 270.085317 167.09735 
L 259.582505 166.558699 
L 252.176338 166.171819 
L 248.913234 165.867647 
L 247.239936 165.51475 
L 246.37026 165.158806 
L 245.528277 164.584968 
L 245.007803 163.993043 
L 244.572391 163.131673 
L 244.294392 162.189632 
L 244.131456 160.763102 
L 244.11817 157.515232 
L 243.932162 148.611088 
L 243.496029 138.182749 
L 243.685053 137.087958 
L 244.141713 136.099675 
L 244.595517 135.518414 
L 245.299391 134.887142 
L 246.518247 134.290355 
L 247.620302 134.020851 
L 249.509761 133.815349 
L 252.557727 133.871176 
L 259.698261 134.123447 
L 272.652684 134.367299 
L 294.262267 135.218459 
L 299.603284 135.931241 
L 304.802103 136.593134 
L 312.075369 137.262948 
L 318.764495 137.721637 
L 327.042146 138.209168 
L 330.940317 138.651139 
L 334.042223 139.18759 
L 338.667653 140.320482 
L 342.275994 141.152559 
L 346.862859 141.962785 
L 360.997732 144.118677 
L 367.090602 145.008904 
L 368.556811 145.424006 
L 369.531056 145.924607 
L 370.311665 146.625752 
L 371.117321 147.608335 
L 371.776668 148.701649 
L 372.303636 149.938254 
L 372.649625 151.292127 
L 372.776119 152.726474 
L 372.661598 154.662496 
L 372.272825 156.920515 
L 371.593012 159.299186 
L 370.080886 163.471044 
L 369.024848 166.597502 
L 366.517638 174.48908 
L 365.87139 175.388829 
L 365.099628 176.055111 
L 364.221993 176.533044 
L 363.310514 176.815071 
L 362.128708 176.945001 
L 360.068798 176.930719 
L 355.6747 176.556993 
L 348.692498 175.806826 
L 326.787057 173.112146 
L 323.488668 172.791865 
L 297.98508 170.413737 
L 292.14409 169.731475 
L 283.405189 169.00438 
L 267.523932 168.249015 
L 263.260911 168.018203 
L 260.788512 167.666051 
L 256.434513 166.982975 
L 252.494764 166.744107 
L 241.77876 166.4397 
L 237.104977 166.311303 
L 220.369027 165.93977 
L 206.100813 165.793271 
L 199.159654 166.029711 
L 189.520001 166.591803 
L 161.427132 168.518822 
L 145.374557 169.922345 
L 138.70713 170.879747 
L 136.073947 170.945285 
L 134.122992 170.775006 
L 129.508437 170.166252 
L 128.454026 170.395015 
L 127.709848 170.750588 
L 126.685307 171.566573 
L 125.579749 172.835503 
L 125.000351 174.006291 
L 124.519877 175.648584 
L 124.034565 177.959574 
L 123.588307 182.098986 
L 122.845508 192.151505 
L 122.505492 199.791055 
L 122.216736 210.160065 
L 122.005212 217.191544 
L 121.606469 225.259498 
L 121.246936 234.340294 
L 120.871729 243.197809 
L 120.564737 249.402868 
L 120.663266 253.21925 
L 120.944703 255.780446 
L 121.569018 258.439913 
L 122.316629 260.547979 
L 123.258813 262.575754 
L 124.39409 264.528443 
L 126.108279 266.990913 
L 130.727304 273.01408 
L 132.893077 276.037838 
L 135.504767 280.12885 
L 142.234983 290.660135 
L 144.023977 292.936682 
L 145.131443 294.061889 
L 145.987489 294.676942 
L 146.866147 295.07794 
L 148.074916 295.338564 
L 149.293824 295.369212 
L 151.115126 295.103954 
L 152.778174 294.635896 
L 154.637072 293.84991 
L 156.244098 292.946905 
L 160.675945 289.994441 
L 166.992472 285.898975 
L 171.084465 283.556001 
L 174.720223 281.688068 
L 183.31572 277.528354 
L 198.136365 270.587165 
L 207.040102 267.440382 
L 211.252399 266.215385 
L 215.542974 265.228548 
L 222.342685 263.87815 
L 228.440667 262.844132 
L 235.514439 261.822026 
L 242.986542 260.96466 
L 256.086276 259.561948 
L 256.081488 259.554206 
L 256.101236 259.539063 
L 256.110255 259.571707 
L 256.177075 259.556301 
L 256.868726 259.312157 
L 257.542779 258.858494 
L 258.357971 258.021249 
L 259.064672 256.946666 
L 259.583645 255.702695 
L 260.005703 254.145841 
L 260.242298 252.310841 
L 260.315927 248.72812 
L 260.220735 235.692142 
L 259.73535 203.969855 
L 259.666003 187.564952 
L 258.993523 139.087382 
L 258.940098 134.607559 
L 258.613932 125.647313 
L 257.965465 93.953238 
L 258.20253 88.685176 
L 258.72877 82.360195 
L 259.967349 68.160953 
L 260.439933 60.6605 
L 260.471387 60.043672 
L 260.471387 60.043672 
" style="fill:none;stroke:#0000ff;stroke-linecap:square;stroke-width:1.5;"/>
   </g>
   <g id="line2d_14">
    <path clip-path="url(#p0756fc44dd)" d="M 242.930091 263.308036 
L 242.880947 259.451183 
L 242.447773 245.489913 
L 241.022261 209.646421 
L 240.797195 205.730796 
L 240.997401 204.690333 
L 241.451162 203.79917 
L 242.006001 203.181019 
L 242.821435 202.697771 
L 243.787456 202.393067 
L 245.06953 202.228544 
L 246.52224 202.181874 
L 271.412329 202.731902 
L 275.639712 203.02205 
L 286.762913 204.227686 
L 298.704355 205.653785 
L 305.648855 206.431703 
L 312.507296 207.463692 
L 315.276006 208.052837 
L 319.140379 209.214596 
L 324.519527 210.708125 
L 327.86789 211.348624 
L 329.53694 211.42262 
L 332.127516 211.475572 
L 334.046729 211.732179 
L 336.840989 212.358619 
L 340.26808 213.281673 
L 346.977173 215.160043 
L 348.09009 215.214706 
L 349.349716 215.048597 
L 350.376457 214.690327 
L 351.416164 214.028434 
L 352.354806 213.058149 
L 353.094411 211.969011 
L 354.094767 209.960676 
L 355.006974 207.534736 
L 357.922361 199.095899 
L 359.780867 193.499901 
L 361.786411 186.780812 
L 362.756982 182.753961 
L 362.782115 181.535407 
L 362.592942 180.571458 
L 362.272181 179.797879 
L 360.655351 177.265689 
L 359.982801 176.546548 
L 359.421677 176.141038 
L 358.424044 175.696582 
L 356.747226 175.336263 
L 355.41704 175.242613 
L 352.988116 175.284546 
L 349.466645 175.2903 
L 346.178458 175.066657 
L 335.217886 173.739896 
L 325.332804 172.454638 
L 319.279034 171.635814 
L 310.348837 170.771935 
L 293.115725 169.148355 
L 277.638931 167.532087 
L 269.956709 166.95449 
L 259.453967 166.41679 
L 252.513165 166.063898 
L 248.560333 165.698291 
L 246.964527 165.334994 
L 245.983248 164.880073 
L 245.213431 164.280967 
L 244.748583 163.653844 
L 244.285222 162.553523 
L 244.072056 161.516606 
L 243.980973 159.962996 
L 243.819581 148.973868 
L 243.467551 137.291038 
L 243.765302 136.443663 
L 244.342641 135.518366 
L 245.175708 134.7508 
L 246.394867 134.154515 
L 247.496995 133.885267 
L 249.386194 133.677614 
L 252.433888 133.734278 
L 259.573893 133.988687 
L 272.527444 134.231835 
L 294.134859 135.100684 
L 299.474815 135.81865 
L 304.672443 136.486938 
L 313.0612 137.252464 
L 319.73596 137.676612 
L 327.439333 138.164553 
L 330.807653 138.558367 
L 334.420845 139.196069 
L 339.042947 140.347282 
L 343.144775 141.258066 
L 351.807039 142.723745 
L 357.913812 143.676014 
L 367.813715 145.144873 
L 369.034616 145.623817 
L 369.821214 146.186907 
L 370.59751 147.019836 
L 371.343626 148.070167 
L 372.059519 149.529113 
L 372.44753 150.840138 
L 372.639107 152.273976 
L 372.619628 153.772619 
L 372.367139 155.775958 
L 371.953073 157.661369 
L 371.202528 160.035643 
L 368.785282 166.997369 
L 366.530042 174.227295 
L 365.929992 175.151293 
L 365.24308 175.813083 
L 364.372053 176.357116 
L 363.468943 176.689522 
L 362.274079 176.864537 
L 360.653709 176.893917 
L 358.088743 176.718366 
L 348.092276 175.701846 
L 333.125746 173.94662 
L 320.027341 172.489104 
L 299.704985 170.642138 
L 288.909614 169.450742 
L 282.670423 168.986612 
L 271.663817 168.407143 
L 261.711564 167.852774 
L 254.859504 166.868379 
L 252.23624 166.757998 
L 226.036655 166.076366 
L 207.824842 165.822053 
L 200.040796 166.032262 
L 190.667893 166.550958 
L 179.657449 167.278366 
L 148.449354 169.519845 
L 144.914449 169.984186 
L 139.066421 170.844976 
L 136.313215 170.945871 
L 134.341899 170.804663 
L 131.843901 170.353701 
L 130.023829 170.137666 
L 129.015039 170.20986 
L 127.972845 170.544515 
L 127.127273 171.107193 
L 125.797959 172.400296 
L 125.158404 173.436702 
L 124.75437 174.503918 
L 124.216389 176.554128 
L 123.851359 178.770547 
L 123.429042 183.115597 
L 122.825388 191.481725 
L 122.525637 197.183533 
L 120.95667 239.613058 
L 120.476202 251.608339 
L 120.703536 254.75431 
L 121.061457 256.858778 
L 121.636413 258.982133 
L 122.429283 261.077163 
L 123.429079 263.118506 
L 124.615463 265.067752 
L 126.731102 268.019079 
L 133.080052 276.604464 
L 135.661396 280.706873 
L 141.339374 289.761388 
L 143.274487 292.379331 
L 144.554272 293.812373 
L 145.526414 294.620137 
L 146.525889 295.133122 
L 147.705388 295.419411 
L 148.881503 295.486557 
L 150.318123 295.325491 
L 151.89719 294.957294 
L 153.642659 294.334017 
L 155.224482 293.550923 
L 157.302205 292.25284 
L 166.244553 286.389071 
L 169.721957 284.370396 
L 173.912137 282.165348 
L 181.903793 278.294187 
L 196.797966 271.24723 
L 200.93136 269.706121 
L 207.492923 267.445647 
L 211.698867 266.268174 
L 216.005968 265.306763 
L 225.880292 263.461877 
L 235.365834 262.050501 
L 242.837272 261.192262 
L 255.93058 259.802175 
L 255.916625 259.786127 
L 255.912739 259.783574 
L 256.062164 259.749062 
L 256.945797 259.073113 
L 257.572282 258.250311 
L 258.074002 257.258185 
L 258.414203 256.207421 
L 258.621017 254.941189 
L 258.691795 253.30971 
L 258.539089 251.512456 
L 257.956187 248.056314 
L 256.074643 238.180244 
L 250.235028 209.410998 
L 248.402374 199.149898 
L 246.042585 187.435041 
L 244.342278 179.312607 
L 243.11637 172.868257 
L 238.35603 148.53653 
L 237.051251 141.666688 
L 236.065858 137.337977 
L 234.214461 128.473397 
L 229.32244 103.876453 
L 228.503558 97.001969 
L 226.410781 74.432589 
L 226.132512 72.100901 
L 226.132512 72.100901 
" style="fill:none;stroke:#ff0000;stroke-linecap:square;stroke-width:1.5;"/>
   </g>
   <g id="patch_3">
    <path d="M 57.6 307.584 
L 57.6 41.472 
" style="fill:none;stroke:#000000;stroke-linecap:square;stroke-linejoin:miter;stroke-width:0.8;"/>
   </g>
   <g id="patch_4">
    <path d="M 414.72 307.584 
L 414.72 41.472 
" style="fill:none;stroke:#000000;stroke-linecap:square;stroke-linejoin:miter;stroke-width:0.8;"/>
   </g>
   <g id="patch_5">
    <path d="M 57.6 307.584 
L 414.72 307.584 
" style="fill:none;stroke:#000000;stroke-linecap:square;stroke-linejoin:miter;stroke-width:0.8;"/>
   </g>
   <g id="patch_6">
    <path d="M 57.6 41.472 
L 414.72 41.472 
" style="fill:none;stroke:#000000;stroke-linecap:square;stroke-linejoin:miter;stroke-width:0.8;"/>
   </g>
  </g>
 </g>
 <defs>
  <clipPath id="p0756fc44dd">
   <rect height="266.112" width="357.12" x="57.6" y="41.472"/>
  </clipPath>
 </defs>
</svg>
