<?xml version="1.0" encoding="utf-8" standalone="no"?>
<!DOCTYPE svg PUBLIC "-//W3C//DTD SVG 1.1//EN"
  "http://www.w3.org/Graphics/SVG/1.1/DTD/svg11.dtd">
<!-- Created with matplotlib (https://matplotlib.org/) -->
<svg height="345.6pt" version="1.1" viewBox="0 0 460.8 345.6" width="460.8pt" xmlns="http://www.w3.org/2000/svg" xmlns:xlink="http://www.w3.org/1999/xlink">
 <defs>
  <style type="text/css">
*{stroke-linecap:butt;stroke-linejoin:round;}
  </style>
 </defs>
 <g id="figure_1">
  <g id="patch_1">
   <path d="M 0 345.6 
L 460.8 345.6 
L 460.8 0 
L 0 0 
z
" style="fill:#ffffff;"/>
  </g>
  <g id="axes_1">
   <g id="patch_2">
    <path d="M 57.6 307.584 
L 414.72 307.584 
L 414.72 41.472 
L 57.6 41.472 
z
" style="fill:#ffffff;"/>
   </g>
   <g id="matplotlib.axis_1">
    <g id="xtick_1">
     <g id="line2d_1">
      <defs>
       <path d="M 0 0 
L 0 3.5 
" id="m7ff313e9cd" style="stroke:#000000;stroke-width:0.8;"/>
      </defs>
      <g>
       <use style="stroke:#000000;stroke-width:0.8;" x="74.801593" xlink:href="#m7ff313e9cd" y="307.584"/>
      </g>
     </g>
     <g id="text_1">
      <!-- −300 -->
      <defs>
       <path d="M 10.59375 35.5 
L 73.1875 35.5 
L 73.1875 27.203125 
L 10.59375 27.203125 
z
" id="DejaVuSans-8722"/>
       <path d="M 40.578125 39.3125 
Q 47.65625 37.796875 51.625 33 
Q 55.609375 28.21875 55.609375 21.1875 
Q 55.609375 10.40625 48.1875 4.484375 
Q 40.765625 -1.421875 27.09375 -1.421875 
Q 22.515625 -1.421875 17.65625 -0.515625 
Q 12.796875 0.390625 7.625 2.203125 
L 7.625 11.71875 
Q 11.71875 9.328125 16.59375 8.109375 
Q 21.484375 6.890625 26.8125 6.890625 
Q 36.078125 6.890625 40.9375 10.546875 
Q 45.796875 14.203125 45.796875 21.1875 
Q 45.796875 27.640625 41.28125 31.265625 
Q 36.765625 34.90625 28.71875 34.90625 
L 20.21875 34.90625 
L 20.21875 43.015625 
L 29.109375 43.015625 
Q 36.375 43.015625 40.234375 45.921875 
Q 44.09375 48.828125 44.09375 54.296875 
Q 44.09375 59.90625 40.109375 62.90625 
Q 36.140625 65.921875 28.71875 65.921875 
Q 24.65625 65.921875 20.015625 65.03125 
Q 15.375 64.15625 9.8125 62.3125 
L 9.8125 71.09375 
Q 15.4375 72.65625 20.34375 73.4375 
Q 25.25 74.21875 29.59375 74.21875 
Q 40.828125 74.21875 47.359375 69.109375 
Q 53.90625 64.015625 53.90625 55.328125 
Q 53.90625 49.265625 50.4375 45.09375 
Q 46.96875 40.921875 40.578125 39.3125 
z
" id="DejaVuSans-51"/>
       <path d="M 31.78125 66.40625 
Q 24.171875 66.40625 20.328125 58.90625 
Q 16.5 51.421875 16.5 36.375 
Q 16.5 21.390625 20.328125 13.890625 
Q 24.171875 6.390625 31.78125 6.390625 
Q 39.453125 6.390625 43.28125 13.890625 
Q 47.125 21.390625 47.125 36.375 
Q 47.125 51.421875 43.28125 58.90625 
Q 39.453125 66.40625 31.78125 66.40625 
z
M 31.78125 74.21875 
Q 44.046875 74.21875 50.515625 64.515625 
Q 56.984375 54.828125 56.984375 36.375 
Q 56.984375 17.96875 50.515625 8.265625 
Q 44.046875 -1.421875 31.78125 -1.421875 
Q 19.53125 -1.421875 13.0625 8.265625 
Q 6.59375 17.96875 6.59375 36.375 
Q 6.59375 54.828125 13.0625 64.515625 
Q 19.53125 74.21875 31.78125 74.21875 
z
" id="DejaVuSans-48"/>
      </defs>
      <g transform="translate(61.067999 322.182437)scale(0.1 -0.1)">
       <use xlink:href="#DejaVuSans-8722"/>
       <use x="83.789062" xlink:href="#DejaVuSans-51"/>
       <use x="147.412109" xlink:href="#DejaVuSans-48"/>
       <use x="211.035156" xlink:href="#DejaVuSans-48"/>
      </g>
     </g>
    </g>
    <g id="xtick_2">
     <g id="line2d_2">
      <g>
       <use style="stroke:#000000;stroke-width:0.8;" x="130.81852" xlink:href="#m7ff313e9cd" y="307.584"/>
      </g>
     </g>
     <g id="text_2">
      <!-- −200 -->
      <defs>
       <path d="M 19.1875 8.296875 
L 53.609375 8.296875 
L 53.609375 0 
L 7.328125 0 
L 7.328125 8.296875 
Q 12.9375 14.109375 22.625 23.890625 
Q 32.328125 33.6875 34.8125 36.53125 
Q 39.546875 41.84375 41.421875 45.53125 
Q 43.3125 49.21875 43.3125 52.78125 
Q 43.3125 58.59375 39.234375 62.25 
Q 35.15625 65.921875 28.609375 65.921875 
Q 23.96875 65.921875 18.8125 64.3125 
Q 13.671875 62.703125 7.8125 59.421875 
L 7.8125 69.390625 
Q 13.765625 71.78125 18.9375 73 
Q 24.125 74.21875 28.421875 74.21875 
Q 39.75 74.21875 46.484375 68.546875 
Q 53.21875 62.890625 53.21875 53.421875 
Q 53.21875 48.921875 51.53125 44.890625 
Q 49.859375 40.875 45.40625 35.40625 
Q 44.1875 33.984375 37.640625 27.21875 
Q 31.109375 20.453125 19.1875 8.296875 
z
" id="DejaVuSans-50"/>
      </defs>
      <g transform="translate(117.084926 322.182437)scale(0.1 -0.1)">
       <use xlink:href="#DejaVuSans-8722"/>
       <use x="83.789062" xlink:href="#DejaVuSans-50"/>
       <use x="147.412109" xlink:href="#DejaVuSans-48"/>
       <use x="211.035156" xlink:href="#DejaVuSans-48"/>
      </g>
     </g>
    </g>
    <g id="xtick_3">
     <g id="line2d_3">
      <g>
       <use style="stroke:#000000;stroke-width:0.8;" x="186.835446" xlink:href="#m7ff313e9cd" y="307.584"/>
      </g>
     </g>
     <g id="text_3">
      <!-- −100 -->
      <defs>
       <path d="M 12.40625 8.296875 
L 28.515625 8.296875 
L 28.515625 63.921875 
L 10.984375 60.40625 
L 10.984375 69.390625 
L 28.421875 72.90625 
L 38.28125 72.90625 
L 38.28125 8.296875 
L 54.390625 8.296875 
L 54.390625 0 
L 12.40625 0 
z
" id="DejaVuSans-49"/>
      </defs>
      <g transform="translate(173.101853 322.182437)scale(0.1 -0.1)">
       <use xlink:href="#DejaVuSans-8722"/>
       <use x="83.789062" xlink:href="#DejaVuSans-49"/>
       <use x="147.412109" xlink:href="#DejaVuSans-48"/>
       <use x="211.035156" xlink:href="#DejaVuSans-48"/>
      </g>
     </g>
    </g>
    <g id="xtick_4">
     <g id="line2d_4">
      <g>
       <use style="stroke:#000000;stroke-width:0.8;" x="242.852373" xlink:href="#m7ff313e9cd" y="307.584"/>
      </g>
     </g>
     <g id="text_4">
      <!-- 0 -->
      <g transform="translate(239.671123 322.182437)scale(0.1 -0.1)">
       <use xlink:href="#DejaVuSans-48"/>
      </g>
     </g>
    </g>
    <g id="xtick_5">
     <g id="line2d_5">
      <g>
       <use style="stroke:#000000;stroke-width:0.8;" x="298.8693" xlink:href="#m7ff313e9cd" y="307.584"/>
      </g>
     </g>
     <g id="text_5">
      <!-- 100 -->
      <g transform="translate(289.32555 322.182437)scale(0.1 -0.1)">
       <use xlink:href="#DejaVuSans-49"/>
       <use x="63.623047" xlink:href="#DejaVuSans-48"/>
       <use x="127.246094" xlink:href="#DejaVuSans-48"/>
      </g>
     </g>
    </g>
    <g id="xtick_6">
     <g id="line2d_6">
      <g>
       <use style="stroke:#000000;stroke-width:0.8;" x="354.886227" xlink:href="#m7ff313e9cd" y="307.584"/>
      </g>
     </g>
     <g id="text_6">
      <!-- 200 -->
      <g transform="translate(345.342477 322.182437)scale(0.1 -0.1)">
       <use xlink:href="#DejaVuSans-50"/>
       <use x="63.623047" xlink:href="#DejaVuSans-48"/>
       <use x="127.246094" xlink:href="#DejaVuSans-48"/>
      </g>
     </g>
    </g>
    <g id="xtick_7">
     <g id="line2d_7">
      <g>
       <use style="stroke:#000000;stroke-width:0.8;" x="410.903154" xlink:href="#m7ff313e9cd" y="307.584"/>
      </g>
     </g>
     <g id="text_7">
      <!-- 300 -->
      <g transform="translate(401.359404 322.182437)scale(0.1 -0.1)">
       <use xlink:href="#DejaVuSans-51"/>
       <use x="63.623047" xlink:href="#DejaVuSans-48"/>
       <use x="127.246094" xlink:href="#DejaVuSans-48"/>
      </g>
     </g>
    </g>
   </g>
   <g id="matplotlib.axis_2">
    <g id="ytick_1">
     <g id="line2d_8">
      <defs>
       <path d="M 0 0 
L -3.5 0 
" id="ma94f6c5240" style="stroke:#000000;stroke-width:0.8;"/>
      </defs>
      <g>
       <use style="stroke:#000000;stroke-width:0.8;" x="57.6" xlink:href="#ma94f6c5240" y="259.760146"/>
      </g>
     </g>
     <g id="text_8">
      <!-- 0 -->
      <g transform="translate(44.2375 263.559365)scale(0.1 -0.1)">
       <use xlink:href="#DejaVuSans-48"/>
      </g>
     </g>
    </g>
    <g id="ytick_2">
     <g id="line2d_9">
      <g>
       <use style="stroke:#000000;stroke-width:0.8;" x="57.6" xlink:href="#ma94f6c5240" y="203.743219"/>
      </g>
     </g>
     <g id="text_9">
      <!-- 100 -->
      <g transform="translate(31.5125 207.542438)scale(0.1 -0.1)">
       <use xlink:href="#DejaVuSans-49"/>
       <use x="63.623047" xlink:href="#DejaVuSans-48"/>
       <use x="127.246094" xlink:href="#DejaVuSans-48"/>
      </g>
     </g>
    </g>
    <g id="ytick_3">
     <g id="line2d_10">
      <g>
       <use style="stroke:#000000;stroke-width:0.8;" x="57.6" xlink:href="#ma94f6c5240" y="147.726292"/>
      </g>
     </g>
     <g id="text_10">
      <!-- 200 -->
      <g transform="translate(31.5125 151.525511)scale(0.1 -0.1)">
       <use xlink:href="#DejaVuSans-50"/>
       <use x="63.623047" xlink:href="#DejaVuSans-48"/>
       <use x="127.246094" xlink:href="#DejaVuSans-48"/>
      </g>
     </g>
    </g>
    <g id="ytick_4">
     <g id="line2d_11">
      <g>
       <use style="stroke:#000000;stroke-width:0.8;" x="57.6" xlink:href="#ma94f6c5240" y="91.709365"/>
      </g>
     </g>
     <g id="text_11">
      <!-- 300 -->
      <g transform="translate(31.5125 95.508584)scale(0.1 -0.1)">
       <use xlink:href="#DejaVuSans-51"/>
       <use x="63.623047" xlink:href="#DejaVuSans-48"/>
       <use x="127.246094" xlink:href="#DejaVuSans-48"/>
      </g>
     </g>
    </g>
   </g>
   <g id="line2d_12">
    <path clip-path="url(#pb1232d8e9b)" d="M 242.852373 259.760146 
L 242.771443 255.481796 
L 242.589856 245.853961 
L 242.174296 229.33933 
L 241.147411 203.732016 
L 241.069538 201.554414 
L 241.221486 200.450656 
L 241.575543 199.476578 
L 242.133774 198.673911 
L 242.714215 198.132788 
L 243.641167 197.661629 
L 244.496261 197.432576 
L 246.32147 197.286036 
L 263.83088 197.686725 
L 272.713188 198.067584 
L 277.356856 198.50502 
L 307.897716 202.193679 
L 313.272596 203.112244 
L 315.633598 203.706248 
L 325.603547 206.632791 
L 327.527784 206.963615 
L 329.416843 207.029911 
L 331.259071 207.100129 
L 333.005231 207.340537 
L 335.957659 207.9938 
L 339.060549 208.842703 
L 346.053422 210.830173 
L 347.152362 210.888615 
L 348.401596 210.730799 
L 349.41539 210.377164 
L 350.428568 209.741411 
L 351.219471 208.961482 
L 351.953013 207.952622 
L 352.797636 206.360828 
L 353.737824 204.073131 
L 359.648786 186.525912 
L 361.30347 180.741661 
L 361.969287 177.879756 
L 361.9992 176.682002 
L 361.829413 175.773295 
L 361.36789 174.760173 
L 360.658323 173.960924 
L 359.765133 173.422433 
L 358.32421 173.086611 
L 356.643142 172.94416 
L 354.841189 172.957829 
L 350.116274 173.057819 
L 347.257786 172.865625 
L 339.816497 172.01568 
L 324.98764 170.129702 
L 317.711098 169.205647 
L 303.00671 167.884207 
L 290.55105 166.664719 
L 279.006174 165.40417 
L 268.976147 164.621221 
L 259.491843 164.131746 
L 248.977225 163.641597 
L 245.396655 163.243597 
L 243.825468 162.882288 
L 242.582374 162.343853 
L 241.695403 161.679156 
L 241.180828 161.113217 
L 240.515059 159.974673 
L 240.090221 158.724095 
L 239.872642 157.190296 
L 239.834215 154.625953 
L 239.791725 148.488795 
L 239.540468 139.069268 
L 239.384444 132.843267 
L 239.57956 131.947892 
L 240.032479 130.942108 
L 240.67096 130.088803 
L 241.710023 129.255103 
L 242.853717 128.764899 
L 243.954884 128.542735 
L 245.551495 128.388297 
L 248.164024 128.435687 
L 254.357651 128.715828 
L 261.732212 128.765123 
L 268.87693 128.934294 
L 289.408921 129.731863 
L 293.16988 130.213104 
L 300.208553 131.162479 
L 308.593839 131.91305 
L 315.736165 132.362978 
L 323.073822 132.861977 
L 326.689827 133.318122 
L 329.783025 133.917728 
L 340.07832 136.247864 
L 352.32743 138.172829 
L 362.203438 139.584456 
L 364.171033 140.149107 
L 365.411247 140.712525 
L 366.376251 141.356663 
L 367.151021 142.059172 
L 368.035864 143.198668 
L 368.650986 144.293463 
L 369.232554 145.900028 
L 369.473427 147.334398 
L 369.497514 148.845791 
L 369.279272 150.845651 
L 368.843741 152.931609 
L 368.058551 155.500377 
L 364.867603 164.772971 
L 363.399904 169.603367 
L 362.785342 170.963066 
L 362.152351 171.87827 
L 361.374388 172.620102 
L 360.502204 173.152599 
L 359.506783 173.511612 
L 358.404538 173.688849 
L 356.218982 173.724028 
L 353.258375 173.493462 
L 344.395433 172.535293 
L 313.885702 168.82742 
L 294.206132 166.951246 
L 281.863043 165.475031 
L 274.073206 164.841256 
L 262.758179 164.178632 
L 252.883145 163.660979 
L 243.444429 162.369341 
L 240.981579 162.232099 
L 234.208379 161.972629 
L 199.644271 161.060281 
L 192.370983 161.018829 
L 185.63506 161.193546 
L 176.977307 161.661567 
L 149.215599 163.480941 
L 132.008319 164.740649 
L 128.537958 165.121957 
L 123.839595 165.865974 
L 121.245619 166.209357 
L 118.477654 166.309123 
L 116.352372 166.162639 
L 114.186142 165.812869 
L 111.617597 165.37 
L 110.387746 165.380699 
L 109.340117 165.653613 
L 108.455666 166.149923 
L 107.699774 166.767902 
L 106.411216 168.124576 
L 105.796711 169.119885 
L 105.298776 170.42239 
L 104.780564 172.462527 
L 104.391862 174.769192 
L 103.920312 179.744951 
L 103.321323 187.966164 
L 102.956764 195.862758 
L 102.662171 207.394016 
L 102.450651 213.574498 
L 101.072299 246.243037 
L 101.214638 248.935312 
L 101.509119 251.058112 
L 101.983246 253.162276 
L 102.659202 255.242702 
L 103.543542 257.288988 
L 104.65094 259.282003 
L 106.293077 261.7111 
L 114.657524 273.189162 
L 122.994131 286.325748 
L 124.628593 288.386762 
L 125.965829 289.706504 
L 126.952847 290.353258 
L 127.991625 290.780556 
L 129.12524 290.994663 
L 130.353075 291.024246 
L 131.939362 290.805707 
L 133.562677 290.387574 
L 135.420534 289.667118 
L 137.003068 288.816496 
L 139.530944 287.142475 
L 145.87066 282.916188 
L 149.795934 280.508692 
L 153.936201 278.223913 
L 160.545862 274.959639 
L 177.736113 266.725991 
L 181.86428 265.147525 
L 189.001005 262.701134 
L 193.243598 261.518611 
L 198.154736 260.423961 
L 204.8436 259.132612 
L 212.588792 257.844946 
L 219.504227 256.902034 
L 228.343905 255.95096 
L 238.46656 254.847475 
L 239.676363 254.256105 
L 240.465643 253.553078 
L 241.096024 252.732033 
L 241.665783 251.630824 
L 242.146504 250.251334 
L 242.489601 248.622401 
L 242.642868 246.772756 
L 242.625088 243.046611 
L 242.224284 227.265517 
L 241.318989 191.815647 
L 241.070362 182.225661 
L 240.455272 162.587527 
L 240.236589 154.804087 
L 239.762194 134.437789 
L 239.554734 127.04882 
L 239.31688 122.445909 
L 238.857787 110.844467 
L 238.416727 99.37517 
L 238.089093 91.048198 
L 238.107248 85.502522 
L 238.353166 79.488545 
L 238.915376 72.415623 
L 239.728387 61.123563 
L 240.106665 53.568 
L 240.106665 53.568 
" style="fill:none;stroke:#008000;stroke-linecap:square;stroke-width:1.5;"/>
   </g>
   <g id="line2d_13">
    <path clip-path="url(#pb1232d8e9b)" d="M 242.852373 259.760146 
L 242.793988 255.584018 
L 242.446986 243.306572 
L 241.233679 209.380091 
L 240.921195 202.290257 
L 241.178449 201.483087 
L 241.602022 200.775545 
L 242.168184 200.210428 
L 242.856491 199.822674 
L 244.060214 199.474564 
L 245.91165 199.311657 
L 254.495762 199.426747 
L 268.021197 199.755802 
L 275.308316 200.172776 
L 286.306106 201.376538 
L 297.155195 202.694748 
L 307.116469 203.859194 
L 313.358596 204.898478 
L 315.673215 205.508228 
L 323.635783 207.812733 
L 326.946095 208.450077 
L 328.596441 208.524874 
L 331.15808 208.578873 
L 333.056199 208.829165 
L 335.560022 209.391726 
L 338.902712 210.276338 
L 345.375858 212.159549 
L 346.732001 212.295375 
L 347.982355 212.170623 
L 349.008285 211.863994 
L 350.016949 211.280887 
L 350.786553 210.591725 
L 351.554137 209.615642 
L 352.395933 208.137407 
L 353.352616 205.951615 
L 357.149098 195.036154 
L 359.407328 188.049589 
L 360.9919 182.414005 
L 361.505127 179.967262 
L 361.507474 179.004675 
L 361.319672 178.05162 
L 361.001968 177.286885 
L 359.401677 174.783682 
L 358.736113 174.072916 
L 358.180941 173.672248 
L 357.194123 173.233217 
L 355.535953 172.876848 
L 354.220439 172.785398 
L 351.818512 172.829615 
L 348.336204 172.83931 
L 345.084188 172.622738 
L 334.735602 171.382814 
L 311.794414 168.592652 
L 292.114913 166.748288 
L 282.159429 165.621027 
L 272.996004 164.835328 
L 263.156756 164.258021 
L 250.400965 163.583382 
L 247.797074 163.236446 
L 246.396806 162.77401 
L 245.536755 162.234644 
L 244.90697 161.550099 
L 244.476402 160.698312 
L 244.201496 159.766752 
L 244.040373 158.356094 
L 244.027235 155.144358 
L 243.843296 146.339278 
L 243.412015 136.026962 
L 243.598936 134.944351 
L 244.050516 133.967063 
L 244.499271 133.39227 
L 245.195314 132.768021 
L 246.400609 132.177874 
L 247.490403 131.911368 
L 249.35884 131.708152 
L 252.372895 131.763358 
L 259.433986 132.012822 
L 272.244283 132.253961 
L 293.613444 133.095652 
L 298.895039 133.800504 
L 304.036018 134.455032 
L 311.228363 135.117394 
L 317.843068 135.57098 
L 326.028626 136.053087 
L 330.387512 136.562376 
L 333.454186 137.132952 
L 338.025874 138.269409 
L 342.084311 139.161746 
L 350.652934 140.599245 
L 356.692928 141.536437 
L 366.358682 142.954774 
L 367.563645 143.404895 
L 368.225675 143.817758 
L 369.038963 144.61787 
L 369.968232 145.890266 
L 370.672893 147.334639 
L 371.053692 148.63192 
L 371.241027 150.050015 
L 371.217993 151.531891 
L 370.963679 153.512295 
L 370.550311 155.375801 
L 369.802347 157.721664 
L 367.397939 164.600746 
L 365.159693 171.7474 
L 364.564791 172.660105 
L 363.884372 173.313339 
L 363.022056 173.849794 
L 361.893483 174.229473 
L 360.724826 174.357958 
L 358.687833 174.343835 
L 354.342622 173.974267 
L 347.438103 173.232446 
L 325.776374 170.567745 
L 322.514682 170.251028 
L 297.294838 167.899358 
L 291.518833 167.224687 
L 282.877159 166.505681 
L 267.172592 165.758721 
L 262.956999 165.530476 
L 260.174064 165.121126 
L 256.60166 164.550643 
L 253.714376 164.308608 
L 206.951078 163.31916 
L 199.041736 163.588891 
L 187.273922 164.295484 
L 174.049957 165.220579 
L 146.38221 167.413433 
L 139.788964 168.360184 
L 137.185077 168.424993 
L 135.255826 168.256608 
L 130.692612 167.654627 
L 129.649932 167.880844 
L 128.817904 168.296819 
L 127.805293 169.137553 
L 126.996868 170.014321 
L 126.461626 170.909333 
L 126.062274 171.964193 
L 125.458234 174.325411 
L 125.119072 176.597439 
L 124.69837 181.08302 
L 124.227348 187.413212 
L 123.767579 196.949833 
L 123.482036 207.203481 
L 123.272866 214.156731 
L 122.878559 222.134923 
L 122.523026 231.114689 
L 122.151993 239.873658 
L 121.848416 246.009682 
L 121.94585 249.783604 
L 122.224155 252.316305 
L 122.841524 254.946183 
L 123.580818 257.030796 
L 124.512519 259.036011 
L 125.635166 260.966975 
L 127.330283 263.402048 
L 135.349831 274.354944 
L 142.81728 286.172717 
L 144.862979 288.850667 
L 146.141801 290.171841 
L 146.988323 290.780051 
L 147.857206 291.176587 
L 149.235475 291.455159 
L 150.257873 291.464619 
L 152.058912 291.202313 
L 153.703458 290.739462 
L 155.541674 289.962221 
L 157.130821 289.069262 
L 161.513361 286.149646 
L 167.759612 282.099746 
L 171.806079 279.782839 
L 175.401386 277.935688 
L 183.901253 273.822253 
L 198.557007 266.958289 
L 207.361685 263.846516 
L 211.527117 262.635148 
L 215.769957 261.659291 
L 222.494016 260.323916 
L 228.524154 259.301402 
L 235.519225 258.290669 
L 242.908196 257.442841 
L 255.862187 256.055736 
L 255.857452 256.048079 
L 255.876981 256.033105 
L 255.8859 256.065385 
L 255.951976 256.050151 
L 256.635932 255.808723 
L 257.302485 255.360107 
L 258.108608 254.532177 
L 258.807447 253.46955 
L 259.320645 252.239419 
L 259.738008 250.699886 
L 259.971971 248.885301 
L 260.044781 245.342441 
L 259.950648 232.451497 
L 259.470662 201.082142 
L 259.392376 184.254926 
L 259.093419 171.314822 
L 258.956041 160.946064 
L 258.834617 154.32537 
L 258.722511 138.343792 
L 258.623373 131.377205 
L 258.442469 126.707982 
L 257.720469 92.289534 
L 257.954896 87.080083 
L 258.475282 80.825471 
L 259.700081 66.784206 
L 260.133995 59.976319 
L 260.133995 59.976319 
" style="fill:none;stroke:#0000ff;stroke-linecap:square;stroke-width:1.5;"/>
   </g>
   <g id="line2d_14">
    <path clip-path="url(#pb1232d8e9b)" d="M 242.852373 259.760146 
L 242.791572 255.584068 
L 242.459209 244.387606 
L 241.082239 207.04092 
L 240.862686 202.636201 
L 241.043347 201.791022 
L 241.397333 201.04202 
L 241.92011 200.402844 
L 242.460663 200.020781 
L 243.301893 199.653858 
L 244.542987 199.413047 
L 246.50593 199.320911 
L 271.118196 199.925753 
L 275.297929 200.22066 
L 285.405255 201.327642 
L 298.098766 202.88482 
L 304.96336 203.676716 
L 311.742443 204.716251 
L 314.478065 205.309368 
L 318.296707 206.466738 
L 323.608576 207.969434 
L 326.916219 208.61894 
L 328.566474 208.695545 
L 331.433727 208.777034 
L 333.315348 209.064326 
L 337.11739 209.962891 
L 340.637868 211.018504 
L 345.338396 212.358811 
L 346.694373 212.496223 
L 347.944898 212.373063 
L 348.971311 212.0679 
L 349.980796 211.486056 
L 350.750621 210.796781 
L 351.523295 209.824795 
L 352.366184 208.346852 
L 353.319339 206.159438 
L 355.484946 199.856096 
L 358.492044 191.036568 
L 360.483319 184.394309 
L 361.450107 180.413756 
L 361.477217 179.20875 
L 361.250622 178.026177 
L 360.900286 177.303924 
L 359.489363 174.641134 
L 358.614815 173.840112 
L 357.705311 173.373858 
L 356.414561 173.022487 
L 354.793378 172.868048 
L 352.781352 172.913375 
L 348.60329 173.022902 
L 345.347924 172.860559 
L 333.972412 171.697214 
L 323.210374 170.455279 
L 318.245931 169.897145 
L 304.436087 168.825791 
L 287.855177 167.40622 
L 279.200204 166.635565 
L 267.018243 165.960078 
L 249.098456 165.211564 
L 247.55807 164.954283 
L 246.509808 164.600736 
L 245.640703 164.076059 
L 244.995699 163.405898 
L 244.555287 162.558959 
L 244.265563 161.63188 
L 244.082549 160.223976 
L 244.028329 157.423993 
L 243.858568 151.912675 
L 243.43981 143.783498 
L 243.154215 137.344506 
L 243.39554 136.482085 
L 243.905818 135.533047 
L 244.675433 134.730314 
L 245.525447 134.232215 
L 246.283974 133.920337 
L 247.996065 133.588691 
L 249.661102 133.473435 
L 252.404936 133.50731 
L 260.444403 133.603157 
L 270.101288 133.612759 
L 280.246224 133.775639 
L 291.713098 133.977162 
L 296.211142 134.405094 
L 304.243018 135.311603 
L 313.094725 135.903315 
L 320.771492 136.189597 
L 326.826563 136.479944 
L 330.083294 136.823315 
L 333.164281 137.310913 
L 337.257349 138.223269 
L 340.842223 138.970519 
L 345.393858 139.676626 
L 359.012076 141.468099 
L 363.948895 141.991563 
L 366.55132 142.512192 
L 367.531538 142.892754 
L 368.321115 143.433149 
L 369.105932 144.240665 
L 369.865494 145.263687 
L 370.60353 146.691356 
L 371.01426 147.979376 
L 371.23133 149.393036 
L 371.243452 150.874886 
L 371.034025 152.86035 
L 370.664533 154.732673 
L 369.973955 157.095599 
L 367.608389 164.471259 
L 365.747926 171.003756 
L 365.212139 171.985158 
L 364.62347 172.649389 
L 363.792766 173.26347 
L 362.694911 173.736769 
L 361.516464 173.928944 
L 359.539363 173.966746 
L 356.164719 173.755991 
L 350.644099 173.331243 
L 318.762589 170.318577 
L 303.046812 169.296557 
L 286.911552 167.864566 
L 279.268467 167.521954 
L 261.899034 167.006102 
L 254.280048 166.144922 
L 244.109449 166.059837 
L 222.609997 166.04686 
L 208.573336 166.146555 
L 200.881166 166.509659 
L 192.253876 167.151176 
L 167.593181 169.301567 
L 151.748133 170.766849 
L 147.755605 171.287029 
L 144.709804 171.813442 
L 141.202506 172.40108 
L 138.348496 172.602504 
L 136.262363 172.529783 
L 134.264591 172.238022 
L 132.309934 171.952187 
L 131.15536 171.954832 
L 130.11728 172.199804 
L 129.291779 172.629477 
L 128.486786 173.294587 
L 127.696131 174.128304 
L 127.242246 174.817962 
L 126.78522 175.839915 
L 126.282898 177.731739 
L 125.903453 179.766747 
L 125.543832 183.86842 
L 124.967349 194.385061 
L 124.768888 202.645775 
L 124.713622 213.6032 
L 124.61992 219.249036 
L 123.91019 253.180752 
L 124.23558 256.255247 
L 124.680407 258.324939 
L 125.350609 260.424624 
L 126.21046 262.448077 
L 127.286508 264.422491 
L 128.557004 266.341419 
L 130.731053 269.196938 
L 136.80811 277.104999 
L 139.752198 281.58831 
L 144.976188 289.612711 
L 147.179565 292.508849 
L 148.470387 293.902582 
L 149.44658 294.683297 
L 150.444356 295.172303 
L 151.616095 295.433887 
L 152.78046 295.482298 
L 154.198354 295.297689 
L 155.753038 294.904663 
L 157.468595 294.258723 
L 159.017587 293.454321 
L 161.04533 292.128597 
L 168.709898 286.87148 
L 172.59769 284.437603 
L 176.083094 282.451067 
L 180.272059 280.284374 
L 197.999752 271.357524 
L 201.412375 269.901067 
L 207.776908 267.520807 
L 211.952267 266.117066 
L 215.570888 265.1111 
L 220.429104 264.00036 
L 226.506198 262.753125 
L 235.902926 261.108149 
L 243.931645 260.001644 
L 254.370543 258.825765 
L 257.443195 258.44405 
L 258.610135 257.994892 
L 259.281242 257.37861 
L 259.93895 256.430112 
L 260.452391 255.268306 
L 260.754372 253.97146 
L 260.907501 252.385716 
L 260.833225 250.560203 
L 260.317703 247.05997 
L 258.080851 234.382182 
L 252.473707 204.123786 
L 249.616512 187.615033 
L 241.358835 142.365407 
L 240.376314 136.636311 
L 237.06072 119.967307 
L 235.322048 111.03305 
L 232.713278 96.727487 
L 232.085485 91.559726 
L 231.623724 85.928415 
L 230.729282 73.820557 
L 229.812178 64.51086 
L 229.812178 64.51086 
" style="fill:none;stroke:#ff0000;stroke-linecap:square;stroke-width:1.5;"/>
   </g>
   <g id="patch_3">
    <path d="M 57.6 307.584 
L 57.6 41.472 
" style="fill:none;stroke:#000000;stroke-linecap:square;stroke-linejoin:miter;stroke-width:0.8;"/>
   </g>
   <g id="patch_4">
    <path d="M 414.72 307.584 
L 414.72 41.472 
" style="fill:none;stroke:#000000;stroke-linecap:square;stroke-linejoin:miter;stroke-width:0.8;"/>
   </g>
   <g id="patch_5">
    <path d="M 57.6 307.584 
L 414.72 307.584 
" style="fill:none;stroke:#000000;stroke-linecap:square;stroke-linejoin:miter;stroke-width:0.8;"/>
   </g>
   <g id="patch_6">
    <path d="M 57.6 41.472 
L 414.72 41.472 
" style="fill:none;stroke:#000000;stroke-linecap:square;stroke-linejoin:miter;stroke-width:0.8;"/>
   </g>
  </g>
 </g>
 <defs>
  <clipPath id="pb1232d8e9b">
   <rect height="266.112" width="357.12" x="57.6" y="41.472"/>
  </clipPath>
 </defs>
</svg>
