<?xml version="1.0" encoding="utf-8" standalone="no"?>
<!DOCTYPE svg PUBLIC "-//W3C//DTD SVG 1.1//EN"
  "http://www.w3.org/Graphics/SVG/1.1/DTD/svg11.dtd">
<!-- Created with matplotlib (https://matplotlib.org/) -->
<svg height="345.6pt" version="1.1" viewBox="0 0 460.8 345.6" width="460.8pt" xmlns="http://www.w3.org/2000/svg" xmlns:xlink="http://www.w3.org/1999/xlink">
 <defs>
  <style type="text/css">
*{stroke-linecap:butt;stroke-linejoin:round;}
  </style>
 </defs>
 <g id="figure_1">
  <g id="patch_1">
   <path d="M 0 345.6 
L 460.8 345.6 
L 460.8 0 
L 0 0 
z
" style="fill:#ffffff;"/>
  </g>
  <g id="axes_1">
   <g id="patch_2">
    <path d="M 57.6 307.584 
L 414.72 307.584 
L 414.72 41.472 
L 57.6 41.472 
z
" style="fill:#ffffff;"/>
   </g>
   <g id="matplotlib.axis_1">
    <g id="xtick_1">
     <g id="line2d_1">
      <defs>
       <path d="M 0 0 
L 0 3.5 
" id="m8e951d97b9" style="stroke:#000000;stroke-width:0.8;"/>
      </defs>
      <g>
       <use style="stroke:#000000;stroke-width:0.8;" x="59.897682" xlink:href="#m8e951d97b9" y="307.584"/>
      </g>
     </g>
     <g id="text_1">
      <!-- −20 -->
      <defs>
       <path d="M 10.59375 35.5 
L 73.1875 35.5 
L 73.1875 27.203125 
L 10.59375 27.203125 
z
" id="DejaVuSans-8722"/>
       <path d="M 19.1875 8.296875 
L 53.609375 8.296875 
L 53.609375 0 
L 7.328125 0 
L 7.328125 8.296875 
Q 12.9375 14.109375 22.625 23.890625 
Q 32.328125 33.6875 34.8125 36.53125 
Q 39.546875 41.84375 41.421875 45.53125 
Q 43.3125 49.21875 43.3125 52.78125 
Q 43.3125 58.59375 39.234375 62.25 
Q 35.15625 65.921875 28.609375 65.921875 
Q 23.96875 65.921875 18.8125 64.3125 
Q 13.671875 62.703125 7.8125 59.421875 
L 7.8125 69.390625 
Q 13.765625 71.78125 18.9375 73 
Q 24.125 74.21875 28.421875 74.21875 
Q 39.75 74.21875 46.484375 68.546875 
Q 53.21875 62.890625 53.21875 53.421875 
Q 53.21875 48.921875 51.53125 44.890625 
Q 49.859375 40.875 45.40625 35.40625 
Q 44.1875 33.984375 37.640625 27.21875 
Q 31.109375 20.453125 19.1875 8.296875 
z
" id="DejaVuSans-50"/>
       <path d="M 31.78125 66.40625 
Q 24.171875 66.40625 20.328125 58.90625 
Q 16.5 51.421875 16.5 36.375 
Q 16.5 21.390625 20.328125 13.890625 
Q 24.171875 6.390625 31.78125 6.390625 
Q 39.453125 6.390625 43.28125 13.890625 
Q 47.125 21.390625 47.125 36.375 
Q 47.125 51.421875 43.28125 58.90625 
Q 39.453125 66.40625 31.78125 66.40625 
z
M 31.78125 74.21875 
Q 44.046875 74.21875 50.515625 64.515625 
Q 56.984375 54.828125 56.984375 36.375 
Q 56.984375 17.96875 50.515625 8.265625 
Q 44.046875 -1.421875 31.78125 -1.421875 
Q 19.53125 -1.421875 13.0625 8.265625 
Q 6.59375 17.96875 6.59375 36.375 
Q 6.59375 54.828125 13.0625 64.515625 
Q 19.53125 74.21875 31.78125 74.21875 
z
" id="DejaVuSans-48"/>
      </defs>
      <g transform="translate(49.345339 322.182437)scale(0.1 -0.1)">
       <use xlink:href="#DejaVuSans-8722"/>
       <use x="83.789062" xlink:href="#DejaVuSans-50"/>
       <use x="147.412109" xlink:href="#DejaVuSans-48"/>
      </g>
     </g>
    </g>
    <g id="xtick_2">
     <g id="line2d_2">
      <g>
       <use style="stroke:#000000;stroke-width:0.8;" x="105.491579" xlink:href="#m8e951d97b9" y="307.584"/>
      </g>
     </g>
     <g id="text_2">
      <!-- −15 -->
      <defs>
       <path d="M 12.40625 8.296875 
L 28.515625 8.296875 
L 28.515625 63.921875 
L 10.984375 60.40625 
L 10.984375 69.390625 
L 28.421875 72.90625 
L 38.28125 72.90625 
L 38.28125 8.296875 
L 54.390625 8.296875 
L 54.390625 0 
L 12.40625 0 
z
" id="DejaVuSans-49"/>
       <path d="M 10.796875 72.90625 
L 49.515625 72.90625 
L 49.515625 64.59375 
L 19.828125 64.59375 
L 19.828125 46.734375 
Q 21.96875 47.46875 24.109375 47.828125 
Q 26.265625 48.1875 28.421875 48.1875 
Q 40.625 48.1875 47.75 41.5 
Q 54.890625 34.8125 54.890625 23.390625 
Q 54.890625 11.625 47.5625 5.09375 
Q 40.234375 -1.421875 26.90625 -1.421875 
Q 22.3125 -1.421875 17.546875 -0.640625 
Q 12.796875 0.140625 7.71875 1.703125 
L 7.71875 11.625 
Q 12.109375 9.234375 16.796875 8.0625 
Q 21.484375 6.890625 26.703125 6.890625 
Q 35.15625 6.890625 40.078125 11.328125 
Q 45.015625 15.765625 45.015625 23.390625 
Q 45.015625 31 40.078125 35.4375 
Q 35.15625 39.890625 26.703125 39.890625 
Q 22.75 39.890625 18.8125 39.015625 
Q 14.890625 38.140625 10.796875 36.28125 
z
" id="DejaVuSans-53"/>
      </defs>
      <g transform="translate(94.939235 322.182437)scale(0.1 -0.1)">
       <use xlink:href="#DejaVuSans-8722"/>
       <use x="83.789062" xlink:href="#DejaVuSans-49"/>
       <use x="147.412109" xlink:href="#DejaVuSans-53"/>
      </g>
     </g>
    </g>
    <g id="xtick_3">
     <g id="line2d_3">
      <g>
       <use style="stroke:#000000;stroke-width:0.8;" x="151.085476" xlink:href="#m8e951d97b9" y="307.584"/>
      </g>
     </g>
     <g id="text_3">
      <!-- −10 -->
      <g transform="translate(140.533132 322.182437)scale(0.1 -0.1)">
       <use xlink:href="#DejaVuSans-8722"/>
       <use x="83.789062" xlink:href="#DejaVuSans-49"/>
       <use x="147.412109" xlink:href="#DejaVuSans-48"/>
      </g>
     </g>
    </g>
    <g id="xtick_4">
     <g id="line2d_4">
      <g>
       <use style="stroke:#000000;stroke-width:0.8;" x="196.679372" xlink:href="#m8e951d97b9" y="307.584"/>
      </g>
     </g>
     <g id="text_4">
      <!-- −5 -->
      <g transform="translate(189.308278 322.182437)scale(0.1 -0.1)">
       <use xlink:href="#DejaVuSans-8722"/>
       <use x="83.789062" xlink:href="#DejaVuSans-53"/>
      </g>
     </g>
    </g>
    <g id="xtick_5">
     <g id="line2d_5">
      <g>
       <use style="stroke:#000000;stroke-width:0.8;" x="242.273269" xlink:href="#m8e951d97b9" y="307.584"/>
      </g>
     </g>
     <g id="text_5">
      <!-- 0 -->
      <g transform="translate(239.092019 322.182437)scale(0.1 -0.1)">
       <use xlink:href="#DejaVuSans-48"/>
      </g>
     </g>
    </g>
    <g id="xtick_6">
     <g id="line2d_6">
      <g>
       <use style="stroke:#000000;stroke-width:0.8;" x="287.867165" xlink:href="#m8e951d97b9" y="307.584"/>
      </g>
     </g>
     <g id="text_6">
      <!-- 5 -->
      <g transform="translate(284.685915 322.182437)scale(0.1 -0.1)">
       <use xlink:href="#DejaVuSans-53"/>
      </g>
     </g>
    </g>
    <g id="xtick_7">
     <g id="line2d_7">
      <g>
       <use style="stroke:#000000;stroke-width:0.8;" x="333.461062" xlink:href="#m8e951d97b9" y="307.584"/>
      </g>
     </g>
     <g id="text_7">
      <!-- 10 -->
      <g transform="translate(327.098562 322.182437)scale(0.1 -0.1)">
       <use xlink:href="#DejaVuSans-49"/>
       <use x="63.623047" xlink:href="#DejaVuSans-48"/>
      </g>
     </g>
    </g>
    <g id="xtick_8">
     <g id="line2d_8">
      <g>
       <use style="stroke:#000000;stroke-width:0.8;" x="379.054959" xlink:href="#m8e951d97b9" y="307.584"/>
      </g>
     </g>
     <g id="text_8">
      <!-- 15 -->
      <g transform="translate(372.692459 322.182437)scale(0.1 -0.1)">
       <use xlink:href="#DejaVuSans-49"/>
       <use x="63.623047" xlink:href="#DejaVuSans-53"/>
      </g>
     </g>
    </g>
   </g>
   <g id="matplotlib.axis_2">
    <g id="ytick_1">
     <g id="line2d_9">
      <defs>
       <path d="M 0 0 
L -3.5 0 
" id="ma48dc7fe7f" style="stroke:#000000;stroke-width:0.8;"/>
      </defs>
      <g>
       <use style="stroke:#000000;stroke-width:0.8;" x="57.6" xlink:href="#ma48dc7fe7f" y="285.97826"/>
      </g>
     </g>
     <g id="text_9">
      <!-- −15 -->
      <g transform="translate(29.495313 289.777479)scale(0.1 -0.1)">
       <use xlink:href="#DejaVuSans-8722"/>
       <use x="83.789062" xlink:href="#DejaVuSans-49"/>
       <use x="147.412109" xlink:href="#DejaVuSans-53"/>
      </g>
     </g>
    </g>
    <g id="ytick_2">
     <g id="line2d_10">
      <g>
       <use style="stroke:#000000;stroke-width:0.8;" x="57.6" xlink:href="#ma48dc7fe7f" y="240.384364"/>
      </g>
     </g>
     <g id="text_10">
      <!-- −10 -->
      <g transform="translate(29.495313 244.183582)scale(0.1 -0.1)">
       <use xlink:href="#DejaVuSans-8722"/>
       <use x="83.789062" xlink:href="#DejaVuSans-49"/>
       <use x="147.412109" xlink:href="#DejaVuSans-48"/>
      </g>
     </g>
    </g>
    <g id="ytick_3">
     <g id="line2d_11">
      <g>
       <use style="stroke:#000000;stroke-width:0.8;" x="57.6" xlink:href="#ma48dc7fe7f" y="194.790467"/>
      </g>
     </g>
     <g id="text_11">
      <!-- −5 -->
      <g transform="translate(35.857813 198.589686)scale(0.1 -0.1)">
       <use xlink:href="#DejaVuSans-8722"/>
       <use x="83.789062" xlink:href="#DejaVuSans-53"/>
      </g>
     </g>
    </g>
    <g id="ytick_4">
     <g id="line2d_12">
      <g>
       <use style="stroke:#000000;stroke-width:0.8;" x="57.6" xlink:href="#ma48dc7fe7f" y="149.19657"/>
      </g>
     </g>
     <g id="text_12">
      <!-- 0 -->
      <g transform="translate(44.2375 152.995789)scale(0.1 -0.1)">
       <use xlink:href="#DejaVuSans-48"/>
      </g>
     </g>
    </g>
    <g id="ytick_5">
     <g id="line2d_13">
      <g>
       <use style="stroke:#000000;stroke-width:0.8;" x="57.6" xlink:href="#ma48dc7fe7f" y="103.602674"/>
      </g>
     </g>
     <g id="text_13">
      <!-- 5 -->
      <g transform="translate(44.2375 107.401893)scale(0.1 -0.1)">
       <use xlink:href="#DejaVuSans-53"/>
      </g>
     </g>
    </g>
    <g id="ytick_6">
     <g id="line2d_14">
      <g>
       <use style="stroke:#000000;stroke-width:0.8;" x="57.6" xlink:href="#ma48dc7fe7f" y="58.008777"/>
      </g>
     </g>
     <g id="text_14">
      <!-- 10 -->
      <g transform="translate(37.875 61.807996)scale(0.1 -0.1)">
       <use xlink:href="#DejaVuSans-49"/>
       <use x="63.623047" xlink:href="#DejaVuSans-48"/>
      </g>
     </g>
    </g>
   </g>
   <g id="line2d_15">
    <path clip-path="url(#p9c61f222b4)" d="M 242.273269 149.19657 
L 242.273269 149.19657 
L 242.231352 148.361812 
L 242.181979 147.502873 
L 242.113383 146.611696 
L 242.012181 145.664776 
L 241.88356 144.626789 
L 241.726141 143.470562 
L 241.518627 142.203017 
L 241.278869 140.814766 
L 240.982656 139.330845 
L 240.617246 137.785531 
L 240.152566 136.196447 
L 239.597281 134.568772 
L 238.975451 132.886357 
L 238.291788 131.1484 
L 237.50878 129.381281 
L 236.618768 127.596544 
L 235.663565 125.800619 
L 234.618114 124.044378 
L 233.439368 122.292378 
L 232.209483 120.544591 
L 230.940778 118.802721 
L 229.575596 117.070856 
L 228.007431 115.39994 
L 226.209919 113.809296 
L 224.3151 112.270092 
L 222.322884 110.752855 
L 220.246611 109.234514 
L 217.988628 107.790254 
L 215.563315 106.450651 
L 212.951724 105.203621 
L 210.194871 104.075227 
L 207.284923 103.080432 
L 204.182942 102.203233 
L 200.925668 101.470758 
L 197.49026 100.84469 
L 193.949857 100.311314 
L 190.283852 99.939715 
L 186.447272 99.761023 
L 182.46325 99.702809 
L 178.358915 99.736156 
L 174.124746 99.857618 
L 169.775225 100.052897 
L 165.268715 100.377872 
L 160.632774 100.769205 
L 155.823803 101.196511 
L 150.875561 101.676541 
L 145.803787 102.206817 
L 140.573894 102.796938 
L 135.22418 103.36668 
L 129.709963 103.923281 
L 124.054952 104.498029 
L 118.256502 105.101062 
L 112.315709 105.725298 
L 106.281174 106.362354 
L 100.077577 106.976631 
L 93.719417 107.584826 
L 87.210432 108.211031 
L 80.567949 108.832002 
L 73.832727 109.445541 
" style="fill:none;stroke:#008000;stroke-linecap:square;stroke-width:1.5;"/>
   </g>
   <g id="line2d_16">
    <path clip-path="url(#p9c61f222b4)" d="M 242.273269 149.19657 
L 242.273269 149.19657 
L 242.186229 148.365225 
L 242.098601 147.509367 
L 242.022579 146.618759 
L 241.941841 145.670371 
L 241.908848 144.625504 
L 241.845354 143.460571 
L 241.812757 142.178268 
L 241.788428 140.770588 
L 241.798001 139.257646 
L 241.886347 137.671964 
L 242.066596 136.025178 
L 242.339099 134.32535 
L 242.569429 132.544989 
L 242.845975 130.698402 
L 243.278872 128.814757 
L 243.757619 126.878921 
L 244.302876 124.920303 
L 244.979047 122.991776 
L 245.750903 121.026325 
L 246.520232 119.03353 
L 247.335463 117.040304 
L 248.299512 115.057175 
L 249.494331 113.101925 
L 250.877712 111.140208 
L 252.350177 109.193323 
L 253.970441 107.283999 
L 255.658981 105.343933 
L 257.543563 103.4393 
L 259.642149 101.630367 
L 261.850785 99.760346 
L 264.261509 98.012197 
L 266.883117 96.405472 
L 269.703838 94.845843 
L 272.720043 93.41499 
L 275.910357 91.995145 
L 279.240864 90.681638 
L 282.741021 89.530174 
L 286.446621 88.521088 
L 290.31734 87.575472 
L 294.342649 86.76945 
L 298.504501 85.979752 
L 302.788054 85.200621 
L 307.26011 84.554816 
L 311.873939 83.955605 
L 316.660613 83.326579 
L 321.597719 82.741173 
L 326.660527 82.129809 
L 331.891181 81.545748 
L 337.237304 80.939021 
L 342.740245 80.27531 
L 348.378501 79.549796 
L 354.173703 78.914915 
L 360.109676 78.243962 
L 366.129464 77.476928 
L 372.324345 76.775959 
L 378.658852 75.959617 
L 385.153171 75.191824 
L 391.773102 74.35885 
L 398.487273 73.536162 
" style="fill:none;stroke:#0000ff;stroke-linecap:square;stroke-width:1.5;"/>
   </g>
   <g id="line2d_17">
    <path clip-path="url(#p9c61f222b4)" d="M 242.273269 149.19657 
L 242.273269 149.19657 
L 241.505722 149.17569 
L 242.217801 148.791286 
L 242.942312 148.363862 
L 243.754208 147.977791 
L 244.665107 147.614601 
L 244.547374 146.474682 
L 245.768743 146.11832 
L 246.982273 145.596547 
L 247.687634 144.285476 
L 247.938606 142.7706 
L 248.770397 141.340609 
L 250.168345 140.486595 
L 251.170312 139.010148 
L 252.84577 139.57002 
L 254.742501 139.891357 
L 256.692634 139.989223 
L 258.552034 140.079215 
L 260.363895 140.258681 
L 262.248859 140.512971 
L 263.990302 140.797324 
L 265.921468 141.104834 
L 267.75975 141.5436 
L 269.765157 142.006338 
L 271.737088 142.834058 
L 273.885986 143.471874 
L 276.073886 144.118962 
L 278.107346 145.26545 
L 280.451135 145.8765 
L 282.421333 147.492494 
L 284.467172 149.204779 
L 286.4648 151.145184 
L 288.888645 152.630809 
L 291.48327 154.108157 
L 293.275626 156.747662 
L 295.051922 159.5764 
L 296.863659 162.485256 
L 298.457413 165.679033 
L 299.942673 169.120166 
L 301.459068 172.706438 
L 302.890933 176.468062 
L 304.282248 180.389246 
L 305.717583 184.412181 
L 307.059236 188.647506 
L 308.412101 193.028689 
L 309.813502 197.580126 
L 311.187299 202.284447 
L 312.575594 207.104559 
L 313.954972 212.095453 
L 315.402687 217.19558 
L 316.953177 222.435446 
L 318.56641 227.794927 
L 320.124395 233.324776 
L 321.707895 238.99554 
L 323.429887 244.720333 
L 325.140143 250.63152 
L 327.041208 256.640329 
L 328.854858 262.829403 
L 330.727954 269.12862 
L 332.631616 275.519838 
" style="fill:none;stroke:#ff0000;stroke-linecap:square;stroke-width:1.5;"/>
   </g>
   <g id="patch_3">
    <path d="M 57.6 307.584 
L 57.6 41.472 
" style="fill:none;stroke:#000000;stroke-linecap:square;stroke-linejoin:miter;stroke-width:0.8;"/>
   </g>
   <g id="patch_4">
    <path d="M 414.72 307.584 
L 414.72 41.472 
" style="fill:none;stroke:#000000;stroke-linecap:square;stroke-linejoin:miter;stroke-width:0.8;"/>
   </g>
   <g id="patch_5">
    <path d="M 57.6 307.584 
L 414.72 307.584 
" style="fill:none;stroke:#000000;stroke-linecap:square;stroke-linejoin:miter;stroke-width:0.8;"/>
   </g>
   <g id="patch_6">
    <path d="M 57.6 41.472 
L 414.72 41.472 
" style="fill:none;stroke:#000000;stroke-linecap:square;stroke-linejoin:miter;stroke-width:0.8;"/>
   </g>
  </g>
 </g>
 <defs>
  <clipPath id="p9c61f222b4">
   <rect height="266.112" width="357.12" x="57.6" y="41.472"/>
  </clipPath>
 </defs>
</svg>
