<?xml version="1.0" encoding="utf-8" standalone="no"?>
<!DOCTYPE svg PUBLIC "-//W3C//DTD SVG 1.1//EN"
  "http://www.w3.org/Graphics/SVG/1.1/DTD/svg11.dtd">
<!-- Created with matplotlib (https://matplotlib.org/) -->
<svg height="345.6pt" version="1.1" viewBox="0 0 460.8 345.6" width="460.8pt" xmlns="http://www.w3.org/2000/svg" xmlns:xlink="http://www.w3.org/1999/xlink">
 <defs>
  <style type="text/css">
*{stroke-linecap:butt;stroke-linejoin:round;}
  </style>
 </defs>
 <g id="figure_1">
  <g id="patch_1">
   <path d="M 0 345.6 
L 460.8 345.6 
L 460.8 0 
L 0 0 
z
" style="fill:#ffffff;"/>
  </g>
  <g id="axes_1">
   <g id="patch_2">
    <path d="M 57.6 307.584 
L 414.72 307.584 
L 414.72 41.472 
L 57.6 41.472 
z
" style="fill:#ffffff;"/>
   </g>
   <g id="matplotlib.axis_1">
    <g id="xtick_1">
     <g id="line2d_1">
      <defs>
       <path d="M 0 0 
L 0 3.5 
" id="mf5f67a05a0" style="stroke:#000000;stroke-width:0.8;"/>
      </defs>
      <g>
       <use style="stroke:#000000;stroke-width:0.8;" x="122.031125" xlink:href="#mf5f67a05a0" y="307.584"/>
      </g>
     </g>
     <g id="text_1">
      <!-- −40 -->
      <defs>
       <path d="M 10.59375 35.5 
L 73.1875 35.5 
L 73.1875 27.203125 
L 10.59375 27.203125 
z
" id="DejaVuSans-8722"/>
       <path d="M 37.796875 64.3125 
L 12.890625 25.390625 
L 37.796875 25.390625 
z
M 35.203125 72.90625 
L 47.609375 72.90625 
L 47.609375 25.390625 
L 58.015625 25.390625 
L 58.015625 17.1875 
L 47.609375 17.1875 
L 47.609375 0 
L 37.796875 0 
L 37.796875 17.1875 
L 4.890625 17.1875 
L 4.890625 26.703125 
z
" id="DejaVuSans-52"/>
       <path d="M 31.78125 66.40625 
Q 24.171875 66.40625 20.328125 58.90625 
Q 16.5 51.421875 16.5 36.375 
Q 16.5 21.390625 20.328125 13.890625 
Q 24.171875 6.390625 31.78125 6.390625 
Q 39.453125 6.390625 43.28125 13.890625 
Q 47.125 21.390625 47.125 36.375 
Q 47.125 51.421875 43.28125 58.90625 
Q 39.453125 66.40625 31.78125 66.40625 
z
M 31.78125 74.21875 
Q 44.046875 74.21875 50.515625 64.515625 
Q 56.984375 54.828125 56.984375 36.375 
Q 56.984375 17.96875 50.515625 8.265625 
Q 44.046875 -1.421875 31.78125 -1.421875 
Q 19.53125 -1.421875 13.0625 8.265625 
Q 6.59375 17.96875 6.59375 36.375 
Q 6.59375 54.828125 13.0625 64.515625 
Q 19.53125 74.21875 31.78125 74.21875 
z
" id="DejaVuSans-48"/>
      </defs>
      <g transform="translate(111.478781 322.182437)scale(0.1 -0.1)">
       <use xlink:href="#DejaVuSans-8722"/>
       <use x="83.789062" xlink:href="#DejaVuSans-52"/>
       <use x="147.412109" xlink:href="#DejaVuSans-48"/>
      </g>
     </g>
    </g>
    <g id="xtick_2">
     <g id="line2d_2">
      <g>
       <use style="stroke:#000000;stroke-width:0.8;" x="191.145162" xlink:href="#mf5f67a05a0" y="307.584"/>
      </g>
     </g>
     <g id="text_2">
      <!-- −30 -->
      <defs>
       <path d="M 40.578125 39.3125 
Q 47.65625 37.796875 51.625 33 
Q 55.609375 28.21875 55.609375 21.1875 
Q 55.609375 10.40625 48.1875 4.484375 
Q 40.765625 -1.421875 27.09375 -1.421875 
Q 22.515625 -1.421875 17.65625 -0.515625 
Q 12.796875 0.390625 7.625 2.203125 
L 7.625 11.71875 
Q 11.71875 9.328125 16.59375 8.109375 
Q 21.484375 6.890625 26.8125 6.890625 
Q 36.078125 6.890625 40.9375 10.546875 
Q 45.796875 14.203125 45.796875 21.1875 
Q 45.796875 27.640625 41.28125 31.265625 
Q 36.765625 34.90625 28.71875 34.90625 
L 20.21875 34.90625 
L 20.21875 43.015625 
L 29.109375 43.015625 
Q 36.375 43.015625 40.234375 45.921875 
Q 44.09375 48.828125 44.09375 54.296875 
Q 44.09375 59.90625 40.109375 62.90625 
Q 36.140625 65.921875 28.71875 65.921875 
Q 24.65625 65.921875 20.015625 65.03125 
Q 15.375 64.15625 9.8125 62.3125 
L 9.8125 71.09375 
Q 15.4375 72.65625 20.34375 73.4375 
Q 25.25 74.21875 29.59375 74.21875 
Q 40.828125 74.21875 47.359375 69.109375 
Q 53.90625 64.015625 53.90625 55.328125 
Q 53.90625 49.265625 50.4375 45.09375 
Q 46.96875 40.921875 40.578125 39.3125 
z
" id="DejaVuSans-51"/>
      </defs>
      <g transform="translate(180.592818 322.182437)scale(0.1 -0.1)">
       <use xlink:href="#DejaVuSans-8722"/>
       <use x="83.789062" xlink:href="#DejaVuSans-51"/>
       <use x="147.412109" xlink:href="#DejaVuSans-48"/>
      </g>
     </g>
    </g>
    <g id="xtick_3">
     <g id="line2d_3">
      <g>
       <use style="stroke:#000000;stroke-width:0.8;" x="260.259199" xlink:href="#mf5f67a05a0" y="307.584"/>
      </g>
     </g>
     <g id="text_3">
      <!-- −20 -->
      <defs>
       <path d="M 19.1875 8.296875 
L 53.609375 8.296875 
L 53.609375 0 
L 7.328125 0 
L 7.328125 8.296875 
Q 12.9375 14.109375 22.625 23.890625 
Q 32.328125 33.6875 34.8125 36.53125 
Q 39.546875 41.84375 41.421875 45.53125 
Q 43.3125 49.21875 43.3125 52.78125 
Q 43.3125 58.59375 39.234375 62.25 
Q 35.15625 65.921875 28.609375 65.921875 
Q 23.96875 65.921875 18.8125 64.3125 
Q 13.671875 62.703125 7.8125 59.421875 
L 7.8125 69.390625 
Q 13.765625 71.78125 18.9375 73 
Q 24.125 74.21875 28.421875 74.21875 
Q 39.75 74.21875 46.484375 68.546875 
Q 53.21875 62.890625 53.21875 53.421875 
Q 53.21875 48.921875 51.53125 44.890625 
Q 49.859375 40.875 45.40625 35.40625 
Q 44.1875 33.984375 37.640625 27.21875 
Q 31.109375 20.453125 19.1875 8.296875 
z
" id="DejaVuSans-50"/>
      </defs>
      <g transform="translate(249.706855 322.182437)scale(0.1 -0.1)">
       <use xlink:href="#DejaVuSans-8722"/>
       <use x="83.789062" xlink:href="#DejaVuSans-50"/>
       <use x="147.412109" xlink:href="#DejaVuSans-48"/>
      </g>
     </g>
    </g>
    <g id="xtick_4">
     <g id="line2d_4">
      <g>
       <use style="stroke:#000000;stroke-width:0.8;" x="329.373236" xlink:href="#mf5f67a05a0" y="307.584"/>
      </g>
     </g>
     <g id="text_4">
      <!-- −10 -->
      <defs>
       <path d="M 12.40625 8.296875 
L 28.515625 8.296875 
L 28.515625 63.921875 
L 10.984375 60.40625 
L 10.984375 69.390625 
L 28.421875 72.90625 
L 38.28125 72.90625 
L 38.28125 8.296875 
L 54.390625 8.296875 
L 54.390625 0 
L 12.40625 0 
z
" id="DejaVuSans-49"/>
      </defs>
      <g transform="translate(318.820892 322.182437)scale(0.1 -0.1)">
       <use xlink:href="#DejaVuSans-8722"/>
       <use x="83.789062" xlink:href="#DejaVuSans-49"/>
       <use x="147.412109" xlink:href="#DejaVuSans-48"/>
      </g>
     </g>
    </g>
    <g id="xtick_5">
     <g id="line2d_5">
      <g>
       <use style="stroke:#000000;stroke-width:0.8;" x="398.487273" xlink:href="#mf5f67a05a0" y="307.584"/>
      </g>
     </g>
     <g id="text_5">
      <!-- 0 -->
      <g transform="translate(395.306023 322.182437)scale(0.1 -0.1)">
       <use xlink:href="#DejaVuSans-48"/>
      </g>
     </g>
    </g>
   </g>
   <g id="matplotlib.axis_2">
    <g id="ytick_1">
     <g id="line2d_6">
      <defs>
       <path d="M 0 0 
L -3.5 0 
" id="m66cc50638b" style="stroke:#000000;stroke-width:0.8;"/>
      </defs>
      <g>
       <use style="stroke:#000000;stroke-width:0.8;" x="57.6" xlink:href="#m66cc50638b" y="303.106706"/>
      </g>
     </g>
     <g id="text_6">
      <!-- −5 -->
      <defs>
       <path d="M 10.796875 72.90625 
L 49.515625 72.90625 
L 49.515625 64.59375 
L 19.828125 64.59375 
L 19.828125 46.734375 
Q 21.96875 47.46875 24.109375 47.828125 
Q 26.265625 48.1875 28.421875 48.1875 
Q 40.625 48.1875 47.75 41.5 
Q 54.890625 34.8125 54.890625 23.390625 
Q 54.890625 11.625 47.5625 5.09375 
Q 40.234375 -1.421875 26.90625 -1.421875 
Q 22.3125 -1.421875 17.546875 -0.640625 
Q 12.796875 0.140625 7.71875 1.703125 
L 7.71875 11.625 
Q 12.109375 9.234375 16.796875 8.0625 
Q 21.484375 6.890625 26.703125 6.890625 
Q 35.15625 6.890625 40.078125 11.328125 
Q 45.015625 15.765625 45.015625 23.390625 
Q 45.015625 31 40.078125 35.4375 
Q 35.15625 39.890625 26.703125 39.890625 
Q 22.75 39.890625 18.8125 39.015625 
Q 14.890625 38.140625 10.796875 36.28125 
z
" id="DejaVuSans-53"/>
      </defs>
      <g transform="translate(35.857813 306.905925)scale(0.1 -0.1)">
       <use xlink:href="#DejaVuSans-8722"/>
       <use x="83.789062" xlink:href="#DejaVuSans-53"/>
      </g>
     </g>
    </g>
    <g id="ytick_2">
     <g id="line2d_7">
      <g>
       <use style="stroke:#000000;stroke-width:0.8;" x="57.6" xlink:href="#m66cc50638b" y="268.549688"/>
      </g>
     </g>
     <g id="text_7">
      <!-- 0 -->
      <g transform="translate(44.2375 272.348906)scale(0.1 -0.1)">
       <use xlink:href="#DejaVuSans-48"/>
      </g>
     </g>
    </g>
    <g id="ytick_3">
     <g id="line2d_8">
      <g>
       <use style="stroke:#000000;stroke-width:0.8;" x="57.6" xlink:href="#m66cc50638b" y="233.992669"/>
      </g>
     </g>
     <g id="text_8">
      <!-- 5 -->
      <g transform="translate(44.2375 237.791888)scale(0.1 -0.1)">
       <use xlink:href="#DejaVuSans-53"/>
      </g>
     </g>
    </g>
    <g id="ytick_4">
     <g id="line2d_9">
      <g>
       <use style="stroke:#000000;stroke-width:0.8;" x="57.6" xlink:href="#m66cc50638b" y="199.435651"/>
      </g>
     </g>
     <g id="text_9">
      <!-- 10 -->
      <g transform="translate(37.875 203.234869)scale(0.1 -0.1)">
       <use xlink:href="#DejaVuSans-49"/>
       <use x="63.623047" xlink:href="#DejaVuSans-48"/>
      </g>
     </g>
    </g>
    <g id="ytick_5">
     <g id="line2d_10">
      <g>
       <use style="stroke:#000000;stroke-width:0.8;" x="57.6" xlink:href="#m66cc50638b" y="164.878632"/>
      </g>
     </g>
     <g id="text_10">
      <!-- 15 -->
      <g transform="translate(37.875 168.677851)scale(0.1 -0.1)">
       <use xlink:href="#DejaVuSans-49"/>
       <use x="63.623047" xlink:href="#DejaVuSans-53"/>
      </g>
     </g>
    </g>
    <g id="ytick_6">
     <g id="line2d_11">
      <g>
       <use style="stroke:#000000;stroke-width:0.8;" x="57.6" xlink:href="#m66cc50638b" y="130.321614"/>
      </g>
     </g>
     <g id="text_11">
      <!-- 20 -->
      <g transform="translate(37.875 134.120832)scale(0.1 -0.1)">
       <use xlink:href="#DejaVuSans-50"/>
       <use x="63.623047" xlink:href="#DejaVuSans-48"/>
      </g>
     </g>
    </g>
    <g id="ytick_7">
     <g id="line2d_12">
      <g>
       <use style="stroke:#000000;stroke-width:0.8;" x="57.6" xlink:href="#m66cc50638b" y="95.764595"/>
      </g>
     </g>
     <g id="text_12">
      <!-- 25 -->
      <g transform="translate(37.875 99.563814)scale(0.1 -0.1)">
       <use xlink:href="#DejaVuSans-50"/>
       <use x="63.623047" xlink:href="#DejaVuSans-53"/>
      </g>
     </g>
    </g>
    <g id="ytick_8">
     <g id="line2d_13">
      <g>
       <use style="stroke:#000000;stroke-width:0.8;" x="57.6" xlink:href="#m66cc50638b" y="61.207577"/>
      </g>
     </g>
     <g id="text_13">
      <!-- 30 -->
      <g transform="translate(37.875 65.006795)scale(0.1 -0.1)">
       <use xlink:href="#DejaVuSans-51"/>
       <use x="63.623047" xlink:href="#DejaVuSans-48"/>
      </g>
     </g>
    </g>
   </g>
   <g id="line2d_14">
    <path clip-path="url(#p8433801a32)" d="M 398.487273 268.549688 
L 398.140744 261.648627 
L 397.744244 254.750768 
L 397.213995 247.861989 
L 396.479522 240.989728 
L 395.629615 234.13087 
L 394.697257 227.282768 
L 393.580653 220.462312 
L 392.404476 213.65199 
L 391.051613 206.874619 
L 389.461621 200.150556 
L 387.523106 193.521343 
L 385.293818 186.986766 
L 382.899814 180.509576 
L 380.370212 174.079012 
L 377.57054 167.760615 
L 374.486549 161.576303 
L 371.241252 155.474657 
L 367.706238 149.536232 
L 363.848484 143.802352 
L 359.871754 138.15103 
L 355.803233 132.565151 
L 351.52465 127.137352 
L 346.795198 122.098013 
L 341.619967 117.518379 
L 336.255684 113.160849 
L 330.757453 108.973492 
L 325.178615 104.89379 
L 319.356347 101.169729 
L 313.30646 97.828119 
L 307.069661 94.85006 
L 300.673517 92.232085 
L 294.134103 89.996521 
L 287.48455 88.116115 
L 280.742306 86.599962 
L 273.943223 85.360899 
L 267.109078 84.331308 
L 260.233238 83.634348 
L 253.330268 83.312837 
L 246.421516 83.211887 
L 239.512775 83.26802 
L 232.605833 83.466154 
L 225.702087 83.776108 
L 218.809394 84.273157 
L 211.923783 84.85439 
L 205.041245 85.465945 
L 198.163058 86.1332 
L 191.28935 86.851875 
L 184.421648 87.626801 
L 177.549943 88.358634 
L 170.674977 89.052588 
L 163.800154 89.751311 
L 156.92622 90.466195 
L 150.05321 91.188383 
L 143.181079 91.913863 
L 136.30507 92.594723 
L 129.427131 93.252638 
L 122.548955 93.914361 
L 115.668735 94.557556 
L 108.78802 95.184349 
L 101.907615 95.808573 
L 95.025595 96.419817 
L 88.137338 96.956934 
L 81.248561 97.494122 
L 74.361132 98.047521 
" style="fill:none;stroke:#008000;stroke-linecap:square;stroke-width:1.5;"/>
   </g>
   <g id="line2d_15">
    <path clip-path="url(#p8433801a32)" d="M 398.487273 268.549688 
L 397.851474 261.668542 
L 397.276644 254.781938 
L 396.786333 247.888627 
L 395.768707 241.05315 
L 394.798135 234.2105 
L 393.665545 227.393336 
L 392.473209 220.585589 
L 391.173987 213.797432 
L 389.817577 207.021411 
L 388.179811 200.308713 
L 386.019859 193.744463 
L 383.592966 187.276508 
L 380.990948 180.880885 
L 378.308123 174.511806 
L 375.476917 168.211572 
L 372.435 162.005732 
L 369.194648 155.901938 
L 365.656725 149.965237 
L 361.83704 144.205245 
L 358.004263 138.45423 
L 354.005853 132.816921 
L 349.81745 127.32115 
L 345.314695 122.079822 
L 340.284693 117.341951 
L 335.074066 112.806 
L 329.578649 108.614625 
L 324.209315 104.26292 
L 318.506875 100.358351 
L 312.633265 96.716238 
L 306.454933 93.618545 
L 300.193098 90.696902 
L 293.701806 88.327271 
L 287.10016 86.282154 
L 280.399361 84.589287 
L 273.630627 83.193838 
L 266.81625 82.042099 
L 259.960702 81.166749 
L 253.060461 80.782953 
L 246.152464 80.584191 
L 239.243811 80.506312 
L 232.334258 80.592907 
L 225.424696 80.747549 
L 218.524597 81.137834 
L 211.631618 81.635834 
L 204.737782 82.111319 
L 197.84684 82.631384 
L 190.961279 83.228053 
L 184.076684 83.835878 
L 177.197049 84.491537 
L 170.306281 85.019897 
L 163.419478 85.591647 
L 156.528951 86.127109 
L 149.646105 86.751926 
L 142.758454 87.319985 
L 135.865947 87.814257 
L 128.97734 88.361545 
L 122.08568 88.869121 
L 115.192775 89.368074 
L 108.303507 89.902272 
L 101.419287 90.494409 
L 94.528709 91.013394 
L 87.630304 91.418348 
L 80.730735 91.807641 
L 73.832727 92.223911 
" style="fill:none;stroke:#0000ff;stroke-linecap:square;stroke-width:1.5;"/>
   </g>
   <g id="line2d_16">
    <path clip-path="url(#p8433801a32)" d="M 398.487273 268.549688 
L 397.851474 261.668542 
L 397.276644 254.781938 
L 396.786333 247.888627 
L 395.768707 241.05315 
L 394.798135 234.2105 
L 393.665545 227.393336 
L 392.473209 220.585589 
L 391.173987 213.797432 
L 389.817577 207.021411 
L 388.179811 200.308713 
L 386.019859 193.744463 
L 383.592966 187.276508 
L 380.990948 180.880885 
L 378.308123 174.511806 
L 375.476917 168.211572 
L 372.435 162.005732 
L 369.194648 155.901938 
L 365.656725 149.965237 
L 361.83704 144.205245 
L 358.004263 138.45423 
L 354.005853 132.816921 
L 349.81745 127.32115 
L 345.314695 122.079822 
L 340.284693 117.341951 
L 335.074066 112.806 
L 329.578649 108.614625 
L 324.209315 104.26292 
L 318.506875 100.358351 
L 312.633265 96.716238 
L 306.454933 93.618545 
L 300.193098 90.696902 
L 293.701806 88.327271 
L 287.10016 86.282154 
L 280.399361 84.589287 
L 273.630627 83.193838 
L 266.81625 82.042099 
L 259.960702 81.166749 
L 253.060461 80.782953 
L 246.152464 80.584191 
L 239.243811 80.506312 
L 232.334258 80.592907 
L 225.424696 80.747549 
L 218.524597 81.137834 
L 211.631618 81.635834 
L 204.737782 82.111319 
L 197.84684 82.631384 
L 190.96128 83.228053 
L 184.076684 83.835878 
L 177.197049 84.491537 
L 170.306281 85.019897 
L 163.419478 85.591647 
L 156.528951 86.127109 
L 149.646105 86.751926 
L 142.758454 87.319985 
L 135.865947 87.814257 
L 128.97734 88.361545 
L 122.08568 88.869121 
L 115.192775 89.368074 
L 108.303507 89.902272 
L 101.419287 90.494409 
L 94.528709 91.013394 
L 87.630304 91.418348 
L 80.730735 91.807641 
L 73.832727 92.223911 
" style="fill:none;stroke:#ff0000;stroke-linecap:square;stroke-width:1.5;"/>
   </g>
   <g id="patch_3">
    <path d="M 57.6 307.584 
L 57.6 41.472 
" style="fill:none;stroke:#000000;stroke-linecap:square;stroke-linejoin:miter;stroke-width:0.8;"/>
   </g>
   <g id="patch_4">
    <path d="M 414.72 307.584 
L 414.72 41.472 
" style="fill:none;stroke:#000000;stroke-linecap:square;stroke-linejoin:miter;stroke-width:0.8;"/>
   </g>
   <g id="patch_5">
    <path d="M 57.6 307.584 
L 414.72 307.584 
" style="fill:none;stroke:#000000;stroke-linecap:square;stroke-linejoin:miter;stroke-width:0.8;"/>
   </g>
   <g id="patch_6">
    <path d="M 57.6 41.472 
L 414.72 41.472 
" style="fill:none;stroke:#000000;stroke-linecap:square;stroke-linejoin:miter;stroke-width:0.8;"/>
   </g>
  </g>
 </g>
 <defs>
  <clipPath id="p8433801a32">
   <rect height="266.112" width="357.12" x="57.6" y="41.472"/>
  </clipPath>
 </defs>
</svg>
