<?xml version="1.0" encoding="utf-8" standalone="no"?>
<!DOCTYPE svg PUBLIC "-//W3C//DTD SVG 1.1//EN"
  "http://www.w3.org/Graphics/SVG/1.1/DTD/svg11.dtd">
<!-- Created with matplotlib (https://matplotlib.org/) -->
<svg height="345.6pt" version="1.1" viewBox="0 0 460.8 345.6" width="460.8pt" xmlns="http://www.w3.org/2000/svg" xmlns:xlink="http://www.w3.org/1999/xlink">
 <defs>
  <style type="text/css">
*{stroke-linecap:butt;stroke-linejoin:round;}
  </style>
 </defs>
 <g id="figure_1">
  <g id="patch_1">
   <path d="M 0 345.6 
L 460.8 345.6 
L 460.8 0 
L 0 0 
z
" style="fill:#ffffff;"/>
  </g>
  <g id="axes_1">
   <g id="patch_2">
    <path d="M 57.6 307.584 
L 414.72 307.584 
L 414.72 41.472 
L 57.6 41.472 
z
" style="fill:#ffffff;"/>
   </g>
   <g id="matplotlib.axis_1">
    <g id="xtick_1">
     <g id="line2d_1">
      <defs>
       <path d="M 0 0 
L 0 3.5 
" id="m28c7d8faee" style="stroke:#000000;stroke-width:0.8;"/>
      </defs>
      <g>
       <use style="stroke:#000000;stroke-width:0.8;" x="84.019905" xlink:href="#m28c7d8faee" y="307.584"/>
      </g>
     </g>
     <g id="text_1">
      <!-- −300 -->
      <defs>
       <path d="M 10.59375 35.5 
L 73.1875 35.5 
L 73.1875 27.203125 
L 10.59375 27.203125 
z
" id="DejaVuSans-8722"/>
       <path d="M 40.578125 39.3125 
Q 47.65625 37.796875 51.625 33 
Q 55.609375 28.21875 55.609375 21.1875 
Q 55.609375 10.40625 48.1875 4.484375 
Q 40.765625 -1.421875 27.09375 -1.421875 
Q 22.515625 -1.421875 17.65625 -0.515625 
Q 12.796875 0.390625 7.625 2.203125 
L 7.625 11.71875 
Q 11.71875 9.328125 16.59375 8.109375 
Q 21.484375 6.890625 26.8125 6.890625 
Q 36.078125 6.890625 40.9375 10.546875 
Q 45.796875 14.203125 45.796875 21.1875 
Q 45.796875 27.640625 41.28125 31.265625 
Q 36.765625 34.90625 28.71875 34.90625 
L 20.21875 34.90625 
L 20.21875 43.015625 
L 29.109375 43.015625 
Q 36.375 43.015625 40.234375 45.921875 
Q 44.09375 48.828125 44.09375 54.296875 
Q 44.09375 59.90625 40.109375 62.90625 
Q 36.140625 65.921875 28.71875 65.921875 
Q 24.65625 65.921875 20.015625 65.03125 
Q 15.375 64.15625 9.8125 62.3125 
L 9.8125 71.09375 
Q 15.4375 72.65625 20.34375 73.4375 
Q 25.25 74.21875 29.59375 74.21875 
Q 40.828125 74.21875 47.359375 69.109375 
Q 53.90625 64.015625 53.90625 55.328125 
Q 53.90625 49.265625 50.4375 45.09375 
Q 46.96875 40.921875 40.578125 39.3125 
z
" id="DejaVuSans-51"/>
       <path d="M 31.78125 66.40625 
Q 24.171875 66.40625 20.328125 58.90625 
Q 16.5 51.421875 16.5 36.375 
Q 16.5 21.390625 20.328125 13.890625 
Q 24.171875 6.390625 31.78125 6.390625 
Q 39.453125 6.390625 43.28125 13.890625 
Q 47.125 21.390625 47.125 36.375 
Q 47.125 51.421875 43.28125 58.90625 
Q 39.453125 66.40625 31.78125 66.40625 
z
M 31.78125 74.21875 
Q 44.046875 74.21875 50.515625 64.515625 
Q 56.984375 54.828125 56.984375 36.375 
Q 56.984375 17.96875 50.515625 8.265625 
Q 44.046875 -1.421875 31.78125 -1.421875 
Q 19.53125 -1.421875 13.0625 8.265625 
Q 6.59375 17.96875 6.59375 36.375 
Q 6.59375 54.828125 13.0625 64.515625 
Q 19.53125 74.21875 31.78125 74.21875 
z
" id="DejaVuSans-48"/>
      </defs>
      <g transform="translate(70.286312 322.182437)scale(0.1 -0.1)">
       <use xlink:href="#DejaVuSans-8722"/>
       <use x="83.789062" xlink:href="#DejaVuSans-51"/>
       <use x="147.412109" xlink:href="#DejaVuSans-48"/>
       <use x="211.035156" xlink:href="#DejaVuSans-48"/>
      </g>
     </g>
    </g>
    <g id="xtick_2">
     <g id="line2d_2">
      <g>
       <use style="stroke:#000000;stroke-width:0.8;" x="136.781272" xlink:href="#m28c7d8faee" y="307.584"/>
      </g>
     </g>
     <g id="text_2">
      <!-- −200 -->
      <defs>
       <path d="M 19.1875 8.296875 
L 53.609375 8.296875 
L 53.609375 0 
L 7.328125 0 
L 7.328125 8.296875 
Q 12.9375 14.109375 22.625 23.890625 
Q 32.328125 33.6875 34.8125 36.53125 
Q 39.546875 41.84375 41.421875 45.53125 
Q 43.3125 49.21875 43.3125 52.78125 
Q 43.3125 58.59375 39.234375 62.25 
Q 35.15625 65.921875 28.609375 65.921875 
Q 23.96875 65.921875 18.8125 64.3125 
Q 13.671875 62.703125 7.8125 59.421875 
L 7.8125 69.390625 
Q 13.765625 71.78125 18.9375 73 
Q 24.125 74.21875 28.421875 74.21875 
Q 39.75 74.21875 46.484375 68.546875 
Q 53.21875 62.890625 53.21875 53.421875 
Q 53.21875 48.921875 51.53125 44.890625 
Q 49.859375 40.875 45.40625 35.40625 
Q 44.1875 33.984375 37.640625 27.21875 
Q 31.109375 20.453125 19.1875 8.296875 
z
" id="DejaVuSans-50"/>
      </defs>
      <g transform="translate(123.047678 322.182437)scale(0.1 -0.1)">
       <use xlink:href="#DejaVuSans-8722"/>
       <use x="83.789062" xlink:href="#DejaVuSans-50"/>
       <use x="147.412109" xlink:href="#DejaVuSans-48"/>
       <use x="211.035156" xlink:href="#DejaVuSans-48"/>
      </g>
     </g>
    </g>
    <g id="xtick_3">
     <g id="line2d_3">
      <g>
       <use style="stroke:#000000;stroke-width:0.8;" x="189.542639" xlink:href="#m28c7d8faee" y="307.584"/>
      </g>
     </g>
     <g id="text_3">
      <!-- −100 -->
      <defs>
       <path d="M 12.40625 8.296875 
L 28.515625 8.296875 
L 28.515625 63.921875 
L 10.984375 60.40625 
L 10.984375 69.390625 
L 28.421875 72.90625 
L 38.28125 72.90625 
L 38.28125 8.296875 
L 54.390625 8.296875 
L 54.390625 0 
L 12.40625 0 
z
" id="DejaVuSans-49"/>
      </defs>
      <g transform="translate(175.809045 322.182437)scale(0.1 -0.1)">
       <use xlink:href="#DejaVuSans-8722"/>
       <use x="83.789062" xlink:href="#DejaVuSans-49"/>
       <use x="147.412109" xlink:href="#DejaVuSans-48"/>
       <use x="211.035156" xlink:href="#DejaVuSans-48"/>
      </g>
     </g>
    </g>
    <g id="xtick_4">
     <g id="line2d_4">
      <g>
       <use style="stroke:#000000;stroke-width:0.8;" x="242.304006" xlink:href="#m28c7d8faee" y="307.584"/>
      </g>
     </g>
     <g id="text_4">
      <!-- 0 -->
      <g transform="translate(239.122756 322.182437)scale(0.1 -0.1)">
       <use xlink:href="#DejaVuSans-48"/>
      </g>
     </g>
    </g>
    <g id="xtick_5">
     <g id="line2d_5">
      <g>
       <use style="stroke:#000000;stroke-width:0.8;" x="295.065373" xlink:href="#m28c7d8faee" y="307.584"/>
      </g>
     </g>
     <g id="text_5">
      <!-- 100 -->
      <g transform="translate(285.521623 322.182437)scale(0.1 -0.1)">
       <use xlink:href="#DejaVuSans-49"/>
       <use x="63.623047" xlink:href="#DejaVuSans-48"/>
       <use x="127.246094" xlink:href="#DejaVuSans-48"/>
      </g>
     </g>
    </g>
    <g id="xtick_6">
     <g id="line2d_6">
      <g>
       <use style="stroke:#000000;stroke-width:0.8;" x="347.82674" xlink:href="#m28c7d8faee" y="307.584"/>
      </g>
     </g>
     <g id="text_6">
      <!-- 200 -->
      <g transform="translate(338.28299 322.182437)scale(0.1 -0.1)">
       <use xlink:href="#DejaVuSans-50"/>
       <use x="63.623047" xlink:href="#DejaVuSans-48"/>
       <use x="127.246094" xlink:href="#DejaVuSans-48"/>
      </g>
     </g>
    </g>
    <g id="xtick_7">
     <g id="line2d_7">
      <g>
       <use style="stroke:#000000;stroke-width:0.8;" x="400.588107" xlink:href="#m28c7d8faee" y="307.584"/>
      </g>
     </g>
     <g id="text_7">
      <!-- 300 -->
      <g transform="translate(391.044357 322.182437)scale(0.1 -0.1)">
       <use xlink:href="#DejaVuSans-51"/>
       <use x="63.623047" xlink:href="#DejaVuSans-48"/>
       <use x="127.246094" xlink:href="#DejaVuSans-48"/>
      </g>
     </g>
    </g>
   </g>
   <g id="matplotlib.axis_2">
    <g id="ytick_1">
     <g id="line2d_8">
      <defs>
       <path d="M 0 0 
L -3.5 0 
" id="m9b29013edd" style="stroke:#000000;stroke-width:0.8;"/>
      </defs>
      <g>
       <use style="stroke:#000000;stroke-width:0.8;" x="57.6" xlink:href="#m9b29013edd" y="264.877061"/>
      </g>
     </g>
     <g id="text_8">
      <!-- −100 -->
      <g transform="translate(23.132812 268.67628)scale(0.1 -0.1)">
       <use xlink:href="#DejaVuSans-8722"/>
       <use x="83.789062" xlink:href="#DejaVuSans-49"/>
       <use x="147.412109" xlink:href="#DejaVuSans-48"/>
       <use x="211.035156" xlink:href="#DejaVuSans-48"/>
      </g>
     </g>
    </g>
    <g id="ytick_2">
     <g id="line2d_9">
      <g>
       <use style="stroke:#000000;stroke-width:0.8;" x="57.6" xlink:href="#m9b29013edd" y="212.115694"/>
      </g>
     </g>
     <g id="text_9">
      <!-- 0 -->
      <g transform="translate(44.2375 215.914913)scale(0.1 -0.1)">
       <use xlink:href="#DejaVuSans-48"/>
      </g>
     </g>
    </g>
    <g id="ytick_3">
     <g id="line2d_10">
      <g>
       <use style="stroke:#000000;stroke-width:0.8;" x="57.6" xlink:href="#m9b29013edd" y="159.354327"/>
      </g>
     </g>
     <g id="text_10">
      <!-- 100 -->
      <g transform="translate(31.5125 163.153546)scale(0.1 -0.1)">
       <use xlink:href="#DejaVuSans-49"/>
       <use x="63.623047" xlink:href="#DejaVuSans-48"/>
       <use x="127.246094" xlink:href="#DejaVuSans-48"/>
      </g>
     </g>
    </g>
    <g id="ytick_4">
     <g id="line2d_11">
      <g>
       <use style="stroke:#000000;stroke-width:0.8;" x="57.6" xlink:href="#m9b29013edd" y="106.59296"/>
      </g>
     </g>
     <g id="text_11">
      <!-- 200 -->
      <g transform="translate(31.5125 110.392179)scale(0.1 -0.1)">
       <use xlink:href="#DejaVuSans-50"/>
       <use x="63.623047" xlink:href="#DejaVuSans-48"/>
       <use x="127.246094" xlink:href="#DejaVuSans-48"/>
      </g>
     </g>
    </g>
    <g id="ytick_5">
     <g id="line2d_12">
      <g>
       <use style="stroke:#000000;stroke-width:0.8;" x="57.6" xlink:href="#m9b29013edd" y="53.831593"/>
      </g>
     </g>
     <g id="text_12">
      <!-- 300 -->
      <g transform="translate(31.5125 57.630812)scale(0.1 -0.1)">
       <use xlink:href="#DejaVuSans-51"/>
       <use x="63.623047" xlink:href="#DejaVuSans-48"/>
       <use x="127.246094" xlink:href="#DejaVuSans-48"/>
      </g>
     </g>
    </g>
   </g>
   <g id="line2d_13">
    <path clip-path="url(#p75874c9acf)" d="M 242.304006 212.115694 
L 241.915756 188.164339 
L 241.599298 168.640787 
L 241.773164 161.938252 
L 242.180507 150.603327 
L 242.085905 141.417626 
L 241.62852 114.721693 
L 241.430291 102.525376 
L 241.268181 93.353445 
L 240.962077 83.717795 
L 241.036767 74.794476 
L 241.314367 69.008875 
L 241.555294 62.799126 
L 241.488517 59.098602 
L 241.278856 57.557918 
L 240.858665 56.223424 
L 240.209929 55.117177 
L 239.706746 54.570411 
L 238.711551 53.934478 
L 238.068731 53.736043 
L 236.721173 53.710612 
L 235.519 54.130328 
L 234.328513 54.991499 
L 233.385267 56.007156 
L 232.540336 57.340435 
L 231.995216 58.538224 
L 231.428564 60.391045 
L 231.162604 61.941174 
L 231.021737 64.219673 
L 231.113721 66.684896 
L 231.85897 76.956795 
L 231.99549 83.393893 
L 232.235053 99.728232 
L 232.537497 118.859609 
L 232.437404 128.492674 
L 232.265581 147.223909 
L 232.431848 152.985766 
L 233.348492 171.369262 
L 233.533558 183.764273 
L 234.13833 231.238777 
L 234.548713 278.110403 
L 234.657818 291.043903 
L 235.005305 292.286802 
L 235.401537 293.064294 
L 235.923416 293.719801 
L 236.552452 294.228262 
L 237.499401 294.637585 
L 238.241691 294.773287 
L 239.010029 294.749017 
L 239.782534 294.552111 
L 240.762098 294.012363 
L 241.431397 293.410144 
L 242.01325 292.646687 
L 242.47468 291.721886 
L 242.785671 290.644657 
L 243.015491 289.020874 
L 243.078932 286.71325 
L 243.017233 270.138741 
L 242.308731 217.209666 
L 241.987442 186.810757 
L 241.638482 173.532789 
L 241.566775 166.922819 
L 241.508466 157.313412 
L 241.271922 150.818171 
L 241.425027 146.445784 
L 241.877582 136.235615 
L 241.788782 128.018454 
L 241.403906 105.026053 
L 241.175115 90.545802 
L 240.99239 83.199467 
L 241.073796 73.595579 
L 241.341415 62.934407 
L 241.341415 62.934407 
" style="fill:none;stroke:#008000;stroke-linecap:square;stroke-width:1.5;"/>
   </g>
   <g id="line2d_14">
    <path clip-path="url(#p75874c9acf)" d="M 242.304006 212.115694 
L 242.227159 164.974908 
L 242.912194 146.042091 
L 242.846548 125.374917 
L 242.589551 76.103357 
L 242.880269 69.893687 
L 243.317021 62.377675 
L 243.279717 58.448062 
L 242.932804 56.712748 
L 242.357866 55.52285 
L 241.765551 54.726593 
L 241.024417 54.092958 
L 240.190932 53.724669 
L 239.321653 53.570453 
L 238.385842 53.652702 
L 237.41264 53.98285 
L 236.670003 54.417264 
L 235.697905 55.247164 
L 234.982724 56.084395 
L 234.125414 57.458648 
L 233.403027 59.147077 
L 232.973271 60.589764 
L 232.624534 62.741067 
L 232.508318 65.119941 
L 232.615407 68.316841 
L 232.818282 74.543146 
L 232.799135 78.803055 
L 231.949153 112.507376 
L 231.459207 123.639771 
L 230.524407 140.451048 
L 230.333239 143.725575 
L 230.186129 146.466327 
L 230.067556 174.171672 
L 229.376516 194.102733 
L 228.323442 221.157868 
L 227.780755 235.373828 
L 226.419331 267.09248 
L 225.363004 286.937223 
L 225.241641 288.730111 
L 225.294007 290.295459 
L 225.551209 291.617315 
L 226.013947 292.694712 
L 226.910936 293.737936 
L 227.806022 294.286903 
L 228.780106 294.55046 
L 229.810007 294.527385 
L 230.85498 294.253162 
L 231.613328 293.837197 
L 232.521337 292.984492 
L 233.094787 292.153383 
L 233.513161 291.155 
L 233.883632 289.601944 
L 234.134715 287.363541 
L 235.359679 266.626016 
L 235.965629 254.775864 
L 237.045131 232.2794 
L 237.312932 227.017616 
L 237.92547 216.751162 
L 238.462724 207.425925 
L 240.01782 175.139649 
L 240.443467 167.242988 
L 240.979811 158.220415 
L 241.201776 151.153369 
L 241.965601 144.219561 
L 242.683444 137.356948 
L 243.10295 129.951563 
L 243.559008 119.361091 
L 244.004749 110.503256 
L 245.820891 74.516962 
L 246.758617 63.441846 
L 246.758617 63.441846 
" style="fill:none;stroke:#0000ff;stroke-linecap:square;stroke-width:1.5;"/>
   </g>
   <g id="line2d_15">
    <path clip-path="url(#p75874c9acf)" d="M 242.304006 212.115694 
L 242.227159 164.974908 
L 242.912194 146.042091 
L 242.846548 125.374917 
L 242.589551 76.103356 
L 242.880269 69.893687 
L 243.242926 64.514961 
L 243.612701 64.733211 
L 243.555061 60.080254 
L 243.397126 58.502483 
L 243.102719 57.381525 
L 242.499171 56.206077 
L 241.887738 55.42445 
L 241.131447 54.808953 
L 240.289282 54.460994 
L 239.416498 54.327859 
L 238.482885 54.432627 
L 237.517859 54.786032 
L 236.785836 55.238037 
L 235.833965 56.090883 
L 235.139141 56.944884 
L 234.3152 58.339087 
L 233.633802 60.044187 
L 233.239027 61.496601 
L 232.942407 63.655409 
L 232.883813 66.036195 
L 233.068302 69.229372 
L 233.421916 75.448541 
L 233.505917 79.707337 
L 233.472238 113.419752 
L 233.25188 124.559695 
L 232.724394 141.387402 
L 232.612637 144.665499 
L 232.531986 147.408919 
L 233.084325 175.107001 
L 232.875921 195.047124 
L 232.478087 222.117473 
L 232.27982 236.341443 
L 231.687096 268.082009 
L 231.111763 287.945417 
L 231.033863 289.74062 
L 231.124153 291.3042 
L 231.413343 292.619451 
L 231.902118 293.685411 
L 232.824298 294.706907 
L 233.732607 295.234371 
L 234.712944 295.474542 
L 235.742146 295.426842 
L 236.780267 295.127581 
L 237.528286 294.693307 
L 238.415422 293.818987 
L 238.968616 292.974355 
L 239.362717 291.966245 
L 239.695458 290.404743 
L 239.8923 288.161144 
L 240.614993 267.402013 
L 240.93387 255.541614 
L 241.468242 233.027062 
L 241.608543 227.760693 
L 241.972537 217.483635 
L 242.284004 208.149157 
L 243.057244 175.837832 
L 243.291588 167.933819 
L 243.609498 158.901965 
L 243.660375 151.832341 
L 244.25619 144.882787 
L 244.807675 138.005341 
L 245.047866 130.592761 
L 245.247618 119.995677 
L 245.478968 111.130757 
L 246.424103 75.115529 
L 247.093776 64.022573 
L 247.093776 64.022573 
" style="fill:none;stroke:#ff0000;stroke-linecap:square;stroke-width:1.5;"/>
   </g>
   <g id="patch_3">
    <path d="M 57.6 307.584 
L 57.6 41.472 
" style="fill:none;stroke:#000000;stroke-linecap:square;stroke-linejoin:miter;stroke-width:0.8;"/>
   </g>
   <g id="patch_4">
    <path d="M 414.72 307.584 
L 414.72 41.472 
" style="fill:none;stroke:#000000;stroke-linecap:square;stroke-linejoin:miter;stroke-width:0.8;"/>
   </g>
   <g id="patch_5">
    <path d="M 57.6 307.584 
L 414.72 307.584 
" style="fill:none;stroke:#000000;stroke-linecap:square;stroke-linejoin:miter;stroke-width:0.8;"/>
   </g>
   <g id="patch_6">
    <path d="M 57.6 41.472 
L 414.72 41.472 
" style="fill:none;stroke:#000000;stroke-linecap:square;stroke-linejoin:miter;stroke-width:0.8;"/>
   </g>
  </g>
 </g>
 <defs>
  <clipPath id="p75874c9acf">
   <rect height="266.112" width="357.12" x="57.6" y="41.472"/>
  </clipPath>
 </defs>
</svg>
