<?xml version="1.0" encoding="utf-8" standalone="no"?>
<!DOCTYPE svg PUBLIC "-//W3C//DTD SVG 1.1//EN"
  "http://www.w3.org/Graphics/SVG/1.1/DTD/svg11.dtd">
<!-- Created with matplotlib (https://matplotlib.org/) -->
<svg height="345.6pt" version="1.1" viewBox="0 0 460.8 345.6" width="460.8pt" xmlns="http://www.w3.org/2000/svg" xmlns:xlink="http://www.w3.org/1999/xlink">
 <defs>
  <style type="text/css">
*{stroke-linecap:butt;stroke-linejoin:round;}
  </style>
 </defs>
 <g id="figure_1">
  <g id="patch_1">
   <path d="M 0 345.6 
L 460.8 345.6 
L 460.8 0 
L 0 0 
z
" style="fill:#ffffff;"/>
  </g>
  <g id="axes_1">
   <g id="patch_2">
    <path d="M 57.6 307.584 
L 414.72 307.584 
L 414.72 41.472 
L 57.6 41.472 
z
" style="fill:#ffffff;"/>
   </g>
   <g id="matplotlib.axis_1">
    <g id="xtick_1">
     <g id="line2d_1">
      <defs>
       <path d="M 0 0 
L 0 3.5 
" id="mfbd47616fe" style="stroke:#000000;stroke-width:0.8;"/>
      </defs>
      <g>
       <use style="stroke:#000000;stroke-width:0.8;" x="92.455806" xlink:href="#mfbd47616fe" y="307.584"/>
      </g>
     </g>
     <g id="text_1">
      <!-- −50 -->
      <defs>
       <path d="M 10.59375 35.5 
L 73.1875 35.5 
L 73.1875 27.203125 
L 10.59375 27.203125 
z
" id="DejaVuSans-8722"/>
       <path d="M 10.796875 72.90625 
L 49.515625 72.90625 
L 49.515625 64.59375 
L 19.828125 64.59375 
L 19.828125 46.734375 
Q 21.96875 47.46875 24.109375 47.828125 
Q 26.265625 48.1875 28.421875 48.1875 
Q 40.625 48.1875 47.75 41.5 
Q 54.890625 34.8125 54.890625 23.390625 
Q 54.890625 11.625 47.5625 5.09375 
Q 40.234375 -1.421875 26.90625 -1.421875 
Q 22.3125 -1.421875 17.546875 -0.640625 
Q 12.796875 0.140625 7.71875 1.703125 
L 7.71875 11.625 
Q 12.109375 9.234375 16.796875 8.0625 
Q 21.484375 6.890625 26.703125 6.890625 
Q 35.15625 6.890625 40.078125 11.328125 
Q 45.015625 15.765625 45.015625 23.390625 
Q 45.015625 31 40.078125 35.4375 
Q 35.15625 39.890625 26.703125 39.890625 
Q 22.75 39.890625 18.8125 39.015625 
Q 14.890625 38.140625 10.796875 36.28125 
z
" id="DejaVuSans-53"/>
       <path d="M 31.78125 66.40625 
Q 24.171875 66.40625 20.328125 58.90625 
Q 16.5 51.421875 16.5 36.375 
Q 16.5 21.390625 20.328125 13.890625 
Q 24.171875 6.390625 31.78125 6.390625 
Q 39.453125 6.390625 43.28125 13.890625 
Q 47.125 21.390625 47.125 36.375 
Q 47.125 51.421875 43.28125 58.90625 
Q 39.453125 66.40625 31.78125 66.40625 
z
M 31.78125 74.21875 
Q 44.046875 74.21875 50.515625 64.515625 
Q 56.984375 54.828125 56.984375 36.375 
Q 56.984375 17.96875 50.515625 8.265625 
Q 44.046875 -1.421875 31.78125 -1.421875 
Q 19.53125 -1.421875 13.0625 8.265625 
Q 6.59375 17.96875 6.59375 36.375 
Q 6.59375 54.828125 13.0625 64.515625 
Q 19.53125 74.21875 31.78125 74.21875 
z
" id="DejaVuSans-48"/>
      </defs>
      <g transform="translate(81.903462 322.182437)scale(0.1 -0.1)">
       <use xlink:href="#DejaVuSans-8722"/>
       <use x="83.789062" xlink:href="#DejaVuSans-53"/>
       <use x="147.412109" xlink:href="#DejaVuSans-48"/>
      </g>
     </g>
    </g>
    <g id="xtick_2">
     <g id="line2d_2">
      <g>
       <use style="stroke:#000000;stroke-width:0.8;" x="153.6621" xlink:href="#mfbd47616fe" y="307.584"/>
      </g>
     </g>
     <g id="text_2">
      <!-- −40 -->
      <defs>
       <path d="M 37.796875 64.3125 
L 12.890625 25.390625 
L 37.796875 25.390625 
z
M 35.203125 72.90625 
L 47.609375 72.90625 
L 47.609375 25.390625 
L 58.015625 25.390625 
L 58.015625 17.1875 
L 47.609375 17.1875 
L 47.609375 0 
L 37.796875 0 
L 37.796875 17.1875 
L 4.890625 17.1875 
L 4.890625 26.703125 
z
" id="DejaVuSans-52"/>
      </defs>
      <g transform="translate(143.109756 322.182437)scale(0.1 -0.1)">
       <use xlink:href="#DejaVuSans-8722"/>
       <use x="83.789062" xlink:href="#DejaVuSans-52"/>
       <use x="147.412109" xlink:href="#DejaVuSans-48"/>
      </g>
     </g>
    </g>
    <g id="xtick_3">
     <g id="line2d_3">
      <g>
       <use style="stroke:#000000;stroke-width:0.8;" x="214.868393" xlink:href="#mfbd47616fe" y="307.584"/>
      </g>
     </g>
     <g id="text_3">
      <!-- −30 -->
      <defs>
       <path d="M 40.578125 39.3125 
Q 47.65625 37.796875 51.625 33 
Q 55.609375 28.21875 55.609375 21.1875 
Q 55.609375 10.40625 48.1875 4.484375 
Q 40.765625 -1.421875 27.09375 -1.421875 
Q 22.515625 -1.421875 17.65625 -0.515625 
Q 12.796875 0.390625 7.625 2.203125 
L 7.625 11.71875 
Q 11.71875 9.328125 16.59375 8.109375 
Q 21.484375 6.890625 26.8125 6.890625 
Q 36.078125 6.890625 40.9375 10.546875 
Q 45.796875 14.203125 45.796875 21.1875 
Q 45.796875 27.640625 41.28125 31.265625 
Q 36.765625 34.90625 28.71875 34.90625 
L 20.21875 34.90625 
L 20.21875 43.015625 
L 29.109375 43.015625 
Q 36.375 43.015625 40.234375 45.921875 
Q 44.09375 48.828125 44.09375 54.296875 
Q 44.09375 59.90625 40.109375 62.90625 
Q 36.140625 65.921875 28.71875 65.921875 
Q 24.65625 65.921875 20.015625 65.03125 
Q 15.375 64.15625 9.8125 62.3125 
L 9.8125 71.09375 
Q 15.4375 72.65625 20.34375 73.4375 
Q 25.25 74.21875 29.59375 74.21875 
Q 40.828125 74.21875 47.359375 69.109375 
Q 53.90625 64.015625 53.90625 55.328125 
Q 53.90625 49.265625 50.4375 45.09375 
Q 46.96875 40.921875 40.578125 39.3125 
z
" id="DejaVuSans-51"/>
      </defs>
      <g transform="translate(204.316049 322.182437)scale(0.1 -0.1)">
       <use xlink:href="#DejaVuSans-8722"/>
       <use x="83.789062" xlink:href="#DejaVuSans-51"/>
       <use x="147.412109" xlink:href="#DejaVuSans-48"/>
      </g>
     </g>
    </g>
    <g id="xtick_4">
     <g id="line2d_4">
      <g>
       <use style="stroke:#000000;stroke-width:0.8;" x="276.074686" xlink:href="#mfbd47616fe" y="307.584"/>
      </g>
     </g>
     <g id="text_4">
      <!-- −20 -->
      <defs>
       <path d="M 19.1875 8.296875 
L 53.609375 8.296875 
L 53.609375 0 
L 7.328125 0 
L 7.328125 8.296875 
Q 12.9375 14.109375 22.625 23.890625 
Q 32.328125 33.6875 34.8125 36.53125 
Q 39.546875 41.84375 41.421875 45.53125 
Q 43.3125 49.21875 43.3125 52.78125 
Q 43.3125 58.59375 39.234375 62.25 
Q 35.15625 65.921875 28.609375 65.921875 
Q 23.96875 65.921875 18.8125 64.3125 
Q 13.671875 62.703125 7.8125 59.421875 
L 7.8125 69.390625 
Q 13.765625 71.78125 18.9375 73 
Q 24.125 74.21875 28.421875 74.21875 
Q 39.75 74.21875 46.484375 68.546875 
Q 53.21875 62.890625 53.21875 53.421875 
Q 53.21875 48.921875 51.53125 44.890625 
Q 49.859375 40.875 45.40625 35.40625 
Q 44.1875 33.984375 37.640625 27.21875 
Q 31.109375 20.453125 19.1875 8.296875 
z
" id="DejaVuSans-50"/>
      </defs>
      <g transform="translate(265.522342 322.182437)scale(0.1 -0.1)">
       <use xlink:href="#DejaVuSans-8722"/>
       <use x="83.789062" xlink:href="#DejaVuSans-50"/>
       <use x="147.412109" xlink:href="#DejaVuSans-48"/>
      </g>
     </g>
    </g>
    <g id="xtick_5">
     <g id="line2d_5">
      <g>
       <use style="stroke:#000000;stroke-width:0.8;" x="337.280979" xlink:href="#mfbd47616fe" y="307.584"/>
      </g>
     </g>
     <g id="text_5">
      <!-- −10 -->
      <defs>
       <path d="M 12.40625 8.296875 
L 28.515625 8.296875 
L 28.515625 63.921875 
L 10.984375 60.40625 
L 10.984375 69.390625 
L 28.421875 72.90625 
L 38.28125 72.90625 
L 38.28125 8.296875 
L 54.390625 8.296875 
L 54.390625 0 
L 12.40625 0 
z
" id="DejaVuSans-49"/>
      </defs>
      <g transform="translate(326.728636 322.182437)scale(0.1 -0.1)">
       <use xlink:href="#DejaVuSans-8722"/>
       <use x="83.789062" xlink:href="#DejaVuSans-49"/>
       <use x="147.412109" xlink:href="#DejaVuSans-48"/>
      </g>
     </g>
    </g>
    <g id="xtick_6">
     <g id="line2d_6">
      <g>
       <use style="stroke:#000000;stroke-width:0.8;" x="398.487273" xlink:href="#mfbd47616fe" y="307.584"/>
      </g>
     </g>
     <g id="text_6">
      <!-- 0 -->
      <g transform="translate(395.306023 322.182437)scale(0.1 -0.1)">
       <use xlink:href="#DejaVuSans-48"/>
      </g>
     </g>
    </g>
   </g>
   <g id="matplotlib.axis_2">
    <g id="ytick_1">
     <g id="line2d_7">
      <defs>
       <path d="M 0 0 
L -3.5 0 
" id="m4da41ecc8e" style="stroke:#000000;stroke-width:0.8;"/>
      </defs>
      <g>
       <use style="stroke:#000000;stroke-width:0.8;" x="57.6" xlink:href="#m4da41ecc8e" y="288.39526"/>
      </g>
     </g>
     <g id="text_7">
      <!-- −5 -->
      <g transform="translate(35.857813 292.194478)scale(0.1 -0.1)">
       <use xlink:href="#DejaVuSans-8722"/>
       <use x="83.789062" xlink:href="#DejaVuSans-53"/>
      </g>
     </g>
    </g>
    <g id="ytick_2">
     <g id="line2d_8">
      <g>
       <use style="stroke:#000000;stroke-width:0.8;" x="57.6" xlink:href="#m4da41ecc8e" y="257.792113"/>
      </g>
     </g>
     <g id="text_8">
      <!-- 0 -->
      <g transform="translate(44.2375 261.591332)scale(0.1 -0.1)">
       <use xlink:href="#DejaVuSans-48"/>
      </g>
     </g>
    </g>
    <g id="ytick_3">
     <g id="line2d_9">
      <g>
       <use style="stroke:#000000;stroke-width:0.8;" x="57.6" xlink:href="#m4da41ecc8e" y="227.188966"/>
      </g>
     </g>
     <g id="text_9">
      <!-- 5 -->
      <g transform="translate(44.2375 230.988185)scale(0.1 -0.1)">
       <use xlink:href="#DejaVuSans-53"/>
      </g>
     </g>
    </g>
    <g id="ytick_4">
     <g id="line2d_10">
      <g>
       <use style="stroke:#000000;stroke-width:0.8;" x="57.6" xlink:href="#m4da41ecc8e" y="196.58582"/>
      </g>
     </g>
     <g id="text_10">
      <!-- 10 -->
      <g transform="translate(37.875 200.385038)scale(0.1 -0.1)">
       <use xlink:href="#DejaVuSans-49"/>
       <use x="63.623047" xlink:href="#DejaVuSans-48"/>
      </g>
     </g>
    </g>
    <g id="ytick_5">
     <g id="line2d_11">
      <g>
       <use style="stroke:#000000;stroke-width:0.8;" x="57.6" xlink:href="#m4da41ecc8e" y="165.982673"/>
      </g>
     </g>
     <g id="text_11">
      <!-- 15 -->
      <g transform="translate(37.875 169.781892)scale(0.1 -0.1)">
       <use xlink:href="#DejaVuSans-49"/>
       <use x="63.623047" xlink:href="#DejaVuSans-53"/>
      </g>
     </g>
    </g>
    <g id="ytick_6">
     <g id="line2d_12">
      <g>
       <use style="stroke:#000000;stroke-width:0.8;" x="57.6" xlink:href="#m4da41ecc8e" y="135.379526"/>
      </g>
     </g>
     <g id="text_12">
      <!-- 20 -->
      <g transform="translate(37.875 139.178745)scale(0.1 -0.1)">
       <use xlink:href="#DejaVuSans-50"/>
       <use x="63.623047" xlink:href="#DejaVuSans-48"/>
      </g>
     </g>
    </g>
    <g id="ytick_7">
     <g id="line2d_13">
      <g>
       <use style="stroke:#000000;stroke-width:0.8;" x="57.6" xlink:href="#m4da41ecc8e" y="104.77638"/>
      </g>
     </g>
     <g id="text_13">
      <!-- 25 -->
      <g transform="translate(37.875 108.575599)scale(0.1 -0.1)">
       <use xlink:href="#DejaVuSans-50"/>
       <use x="63.623047" xlink:href="#DejaVuSans-53"/>
      </g>
     </g>
    </g>
    <g id="ytick_8">
     <g id="line2d_14">
      <g>
       <use style="stroke:#000000;stroke-width:0.8;" x="57.6" xlink:href="#m4da41ecc8e" y="74.173233"/>
      </g>
     </g>
     <g id="text_14">
      <!-- 30 -->
      <g transform="translate(37.875 77.972452)scale(0.1 -0.1)">
       <use xlink:href="#DejaVuSans-51"/>
       <use x="63.623047" xlink:href="#DejaVuSans-48"/>
      </g>
     </g>
    </g>
    <g id="ytick_9">
     <g id="line2d_15">
      <g>
       <use style="stroke:#000000;stroke-width:0.8;" x="57.6" xlink:href="#m4da41ecc8e" y="43.570086"/>
      </g>
     </g>
     <g id="text_15">
      <!-- 35 -->
      <g transform="translate(37.875 47.369305)scale(0.1 -0.1)">
       <use xlink:href="#DejaVuSans-51"/>
       <use x="63.623047" xlink:href="#DejaVuSans-53"/>
      </g>
     </g>
    </g>
   </g>
   <g id="line2d_16">
    <path clip-path="url(#p2100a1bcbe)" d="M 398.487273 257.792113 
L 398.180392 251.680643 
L 397.829259 245.572009 
L 397.359679 239.471416 
L 396.70924 233.385451 
L 395.956577 227.311355 
L 395.130895 221.246784 
L 394.142048 215.206697 
L 393.100445 209.175584 
L 391.902371 203.173652 
L 390.494299 197.218928 
L 388.777581 191.348203 
L 386.803359 185.561285 
L 384.683267 179.825189 
L 382.443092 174.130383 
L 379.963747 168.534911 
L 377.232613 163.058183 
L 374.35863 157.654662 
L 371.228077 152.395687 
L 367.811711 147.317854 
L 364.289983 142.313133 
L 360.686965 137.366367 
L 356.89792 132.559595 
L 352.709592 128.096836 
L 348.12649 124.041185 
L 343.375966 120.182226 
L 338.50682 116.473969 
L 333.56629 112.86105 
L 328.410182 109.563081 
L 323.052498 106.603804 
L 317.529288 103.966482 
L 311.864965 101.648045 
L 306.073763 99.668265 
L 300.185024 98.003007 
L 294.214201 96.660326 
L 288.193041 95.563032 
L 282.140831 94.651242 
L 276.051695 94.034026 
L 269.938535 93.749301 
L 263.820254 93.659901 
L 257.701983 93.709611 
L 251.585304 93.885075 
L 245.471457 94.159566 
L 239.367398 94.599744 
L 233.26961 95.114475 
L 227.174544 95.656058 
L 221.08333 96.246969 
L 214.996084 96.883417 
L 208.914156 97.569679 
L 202.828683 98.217778 
L 196.740323 98.832333 
L 190.652088 99.451111 
L 184.564642 100.0842 
L 178.478013 100.723759 
L 172.392163 101.366233 
L 166.302879 101.969191 
L 160.211886 102.55183 
L 154.120682 103.137842 
L 148.027668 103.707446 
L 141.934217 104.262523 
L 135.841039 104.815325 
L 129.746432 105.356634 
L 123.646301 105.832296 
L 117.545709 106.308022 
L 111.446311 106.798103 
L 105.346873 107.293265 
L 99.245071 107.763384 
L 93.14174 108.209376 
L 87.03934 108.672712 
L 80.94002 109.177569 
L 74.841976 109.693487 
" style="fill:none;stroke:#008000;stroke-linecap:square;stroke-width:1.5;"/>
   </g>
   <g id="line2d_17">
    <path clip-path="url(#p2100a1bcbe)" d="M 398.487273 257.792113 
L 397.924219 251.69828 
L 397.415159 245.599613 
L 396.980948 239.495006 
L 396.079754 233.441616 
L 395.220231 227.381874 
L 394.217227 221.344702 
L 393.161313 215.315869 
L 392.010743 209.304385 
L 390.809528 203.303649 
L 389.359148 197.35899 
L 387.44633 191.545794 
L 385.297112 185.817877 
L 382.992806 180.154014 
L 380.616938 174.513659 
L 378.109667 168.934272 
L 375.415794 163.438478 
L 372.546189 158.033055 
L 369.413061 152.775607 
L 366.030409 147.67465 
L 362.636163 142.581642 
L 359.095234 137.589331 
L 355.38605 132.722363 
L 351.398482 128.080727 
L 346.943993 123.884943 
L 342.329544 119.867978 
L 337.462891 116.156162 
L 332.707893 112.302361 
L 327.657903 108.844537 
L 322.456328 105.619139 
L 316.984894 102.875872 
L 311.439513 100.288511 
L 305.690928 98.190003 
L 299.844615 96.378881 
L 293.910494 94.879705 
L 287.916211 93.643917 
L 281.881506 92.623955 
L 275.810343 91.848759 
L 269.699599 91.508876 
L 263.581986 91.332855 
L 257.463792 91.263887 
L 251.344803 91.340574 
L 245.225804 91.477523 
L 239.115186 91.823152 
L 233.010874 92.264173 
L 226.905801 92.685256 
L 220.803292 93.145816 
L 214.70555 93.674217 
L 208.608662 94.212497 
L 202.516166 94.793138 
L 196.413811 95.261045 
L 190.314968 95.767379 
L 184.212827 96.241575 
L 178.117488 96.794903 
L 172.017893 97.297967 
L 165.913998 97.735687 
L 159.813557 98.220356 
L 153.710413 98.669858 
L 147.606165 99.111722 
L 141.50514 99.5848 
L 135.408584 100.109187 
L 129.306397 100.568792 
L 123.197279 100.927413 
L 117.08713 101.272164 
L 110.978365 101.640806 
L 104.867572 101.974396 
L 98.75762 102.329037 
L 92.650871 102.735048 
L 86.538469 103.043649 
L 80.427552 103.385773 
L 74.32028 103.780545 
" style="fill:none;stroke:#0000ff;stroke-linecap:square;stroke-width:1.5;"/>
   </g>
   <g id="line2d_18">
    <path clip-path="url(#p2100a1bcbe)" d="M 398.487273 257.792113 
L 397.954045 251.695659 
L 397.345281 245.60618 
L 397.030763 239.498599 
L 396.090436 233.457583 
L 395.870428 227.345227 
L 393.863877 221.583826 
L 393.400363 215.484814 
L 391.505277 209.672505 
L 390.365574 203.659373 
L 388.672336 197.781642 
L 386.781448 191.961377 
L 384.68831 186.212434 
L 382.450769 180.521117 
L 380.143831 174.852032 
L 377.607469 169.286263 
L 374.923491 163.785604 
L 371.943779 158.440854 
L 368.829674 153.172207 
L 365.392852 148.107688 
L 362.005774 143.009861 
L 358.528837 137.972698 
L 354.825114 133.101757 
L 350.511134 128.769871 
L 346.213814 124.411617 
L 341.638961 120.348767 
L 336.749198 116.667716 
L 332.154995 112.624572 
L 327.015809 109.301316 
L 321.919967 105.913431 
L 316.552048 102.974864 
L 310.938946 100.53835 
L 305.164768 98.508833 
L 299.327966 96.667466 
L 293.395225 95.162743 
L 287.420356 93.836392 
L 281.384969 92.819507 
L 275.31611 92.026269 
L 269.206757 91.660849 
L 263.096534 91.323503 
L 256.977375 91.323339 
L 250.858158 91.392045 
L 244.738168 91.47285 
L 238.622649 91.7153 
L 232.519007 92.165145 
L 226.413411 92.582803 
L 220.309985 93.034579 
L 214.204148 93.459272 
L 208.117555 94.103053 
L 202.029816 94.735389 
L 195.92344 94.420972 
L 189.806653 94.424687 
L 183.734191 95.1877 
L 177.641565 95.771551 
L 171.5379 96.221338 
L 165.435557 96.685606 
L 159.333116 97.146326 
L 153.236776 97.686407 
L 147.128537 98.071628 
L 141.019449 98.429831 
L 134.930515 99.039899 
L 128.829906 99.523065 
L 122.719068 99.857979 
L 116.609549 100.217003 
L 110.501189 100.594971 
L 104.387064 100.862821 
L 98.272348 101.125094 
L 92.162786 101.488624 
L 86.050826 101.81028 
L 79.93823 102.122347 
L 73.832727 102.546683 
" style="fill:none;stroke:#ff0000;stroke-linecap:square;stroke-width:1.5;"/>
   </g>
   <g id="patch_3">
    <path d="M 57.6 307.584 
L 57.6 41.472 
" style="fill:none;stroke:#000000;stroke-linecap:square;stroke-linejoin:miter;stroke-width:0.8;"/>
   </g>
   <g id="patch_4">
    <path d="M 414.72 307.584 
L 414.72 41.472 
" style="fill:none;stroke:#000000;stroke-linecap:square;stroke-linejoin:miter;stroke-width:0.8;"/>
   </g>
   <g id="patch_5">
    <path d="M 57.6 307.584 
L 414.72 307.584 
" style="fill:none;stroke:#000000;stroke-linecap:square;stroke-linejoin:miter;stroke-width:0.8;"/>
   </g>
   <g id="patch_6">
    <path d="M 57.6 41.472 
L 414.72 41.472 
" style="fill:none;stroke:#000000;stroke-linecap:square;stroke-linejoin:miter;stroke-width:0.8;"/>
   </g>
  </g>
 </g>
 <defs>
  <clipPath id="p2100a1bcbe">
   <rect height="266.112" width="357.12" x="57.6" y="41.472"/>
  </clipPath>
 </defs>
</svg>
