<?xml version="1.0" encoding="utf-8" standalone="no"?>
<!DOCTYPE svg PUBLIC "-//W3C//DTD SVG 1.1//EN"
  "http://www.w3.org/Graphics/SVG/1.1/DTD/svg11.dtd">
<!-- Created with matplotlib (https://matplotlib.org/) -->
<svg height="345.6pt" version="1.1" viewBox="0 0 460.8 345.6" width="460.8pt" xmlns="http://www.w3.org/2000/svg" xmlns:xlink="http://www.w3.org/1999/xlink">
 <defs>
  <style type="text/css">
*{stroke-linecap:butt;stroke-linejoin:round;}
  </style>
 </defs>
 <g id="figure_1">
  <g id="patch_1">
   <path d="M 0 345.6 
L 460.8 345.6 
L 460.8 0 
L 0 0 
z
" style="fill:#ffffff;"/>
  </g>
  <g id="axes_1">
   <g id="patch_2">
    <path d="M 57.6 307.584 
L 414.72 307.584 
L 414.72 41.472 
L 57.6 41.472 
z
" style="fill:#ffffff;"/>
   </g>
   <g id="matplotlib.axis_1">
    <g id="xtick_1">
     <g id="line2d_1">
      <defs>
       <path d="M 0 0 
L 0 3.5 
" id="m0a398a27da" style="stroke:#000000;stroke-width:0.8;"/>
      </defs>
      <g>
       <use style="stroke:#000000;stroke-width:0.8;" x="73.832727" xlink:href="#m0a398a27da" y="307.584"/>
      </g>
     </g>
     <g id="text_1">
      <!-- 0 -->
      <defs>
       <path d="M 31.78125 66.40625 
Q 24.171875 66.40625 20.328125 58.90625 
Q 16.5 51.421875 16.5 36.375 
Q 16.5 21.390625 20.328125 13.890625 
Q 24.171875 6.390625 31.78125 6.390625 
Q 39.453125 6.390625 43.28125 13.890625 
Q 47.125 21.390625 47.125 36.375 
Q 47.125 51.421875 43.28125 58.90625 
Q 39.453125 66.40625 31.78125 66.40625 
z
M 31.78125 74.21875 
Q 44.046875 74.21875 50.515625 64.515625 
Q 56.984375 54.828125 56.984375 36.375 
Q 56.984375 17.96875 50.515625 8.265625 
Q 44.046875 -1.421875 31.78125 -1.421875 
Q 19.53125 -1.421875 13.0625 8.265625 
Q 6.59375 17.96875 6.59375 36.375 
Q 6.59375 54.828125 13.0625 64.515625 
Q 19.53125 74.21875 31.78125 74.21875 
z
" id="DejaVuSans-48"/>
      </defs>
      <g transform="translate(70.651477 322.182437)scale(0.1 -0.1)">
       <use xlink:href="#DejaVuSans-48"/>
      </g>
     </g>
    </g>
    <g id="xtick_2">
     <g id="line2d_2">
      <g>
       <use style="stroke:#000000;stroke-width:0.8;" x="125.489824" xlink:href="#m0a398a27da" y="307.584"/>
      </g>
     </g>
     <g id="text_2">
      <!-- 20 -->
      <defs>
       <path d="M 19.1875 8.296875 
L 53.609375 8.296875 
L 53.609375 0 
L 7.328125 0 
L 7.328125 8.296875 
Q 12.9375 14.109375 22.625 23.890625 
Q 32.328125 33.6875 34.8125 36.53125 
Q 39.546875 41.84375 41.421875 45.53125 
Q 43.3125 49.21875 43.3125 52.78125 
Q 43.3125 58.59375 39.234375 62.25 
Q 35.15625 65.921875 28.609375 65.921875 
Q 23.96875 65.921875 18.8125 64.3125 
Q 13.671875 62.703125 7.8125 59.421875 
L 7.8125 69.390625 
Q 13.765625 71.78125 18.9375 73 
Q 24.125 74.21875 28.421875 74.21875 
Q 39.75 74.21875 46.484375 68.546875 
Q 53.21875 62.890625 53.21875 53.421875 
Q 53.21875 48.921875 51.53125 44.890625 
Q 49.859375 40.875 45.40625 35.40625 
Q 44.1875 33.984375 37.640625 27.21875 
Q 31.109375 20.453125 19.1875 8.296875 
z
" id="DejaVuSans-50"/>
      </defs>
      <g transform="translate(119.127324 322.182437)scale(0.1 -0.1)">
       <use xlink:href="#DejaVuSans-50"/>
       <use x="63.623047" xlink:href="#DejaVuSans-48"/>
      </g>
     </g>
    </g>
    <g id="xtick_3">
     <g id="line2d_3">
      <g>
       <use style="stroke:#000000;stroke-width:0.8;" x="177.146921" xlink:href="#m0a398a27da" y="307.584"/>
      </g>
     </g>
     <g id="text_3">
      <!-- 40 -->
      <defs>
       <path d="M 37.796875 64.3125 
L 12.890625 25.390625 
L 37.796875 25.390625 
z
M 35.203125 72.90625 
L 47.609375 72.90625 
L 47.609375 25.390625 
L 58.015625 25.390625 
L 58.015625 17.1875 
L 47.609375 17.1875 
L 47.609375 0 
L 37.796875 0 
L 37.796875 17.1875 
L 4.890625 17.1875 
L 4.890625 26.703125 
z
" id="DejaVuSans-52"/>
      </defs>
      <g transform="translate(170.784421 322.182437)scale(0.1 -0.1)">
       <use xlink:href="#DejaVuSans-52"/>
       <use x="63.623047" xlink:href="#DejaVuSans-48"/>
      </g>
     </g>
    </g>
    <g id="xtick_4">
     <g id="line2d_4">
      <g>
       <use style="stroke:#000000;stroke-width:0.8;" x="228.804018" xlink:href="#m0a398a27da" y="307.584"/>
      </g>
     </g>
     <g id="text_4">
      <!-- 60 -->
      <defs>
       <path d="M 33.015625 40.375 
Q 26.375 40.375 22.484375 35.828125 
Q 18.609375 31.296875 18.609375 23.390625 
Q 18.609375 15.53125 22.484375 10.953125 
Q 26.375 6.390625 33.015625 6.390625 
Q 39.65625 6.390625 43.53125 10.953125 
Q 47.40625 15.53125 47.40625 23.390625 
Q 47.40625 31.296875 43.53125 35.828125 
Q 39.65625 40.375 33.015625 40.375 
z
M 52.59375 71.296875 
L 52.59375 62.3125 
Q 48.875 64.0625 45.09375 64.984375 
Q 41.3125 65.921875 37.59375 65.921875 
Q 27.828125 65.921875 22.671875 59.328125 
Q 17.53125 52.734375 16.796875 39.40625 
Q 19.671875 43.65625 24.015625 45.921875 
Q 28.375 48.1875 33.59375 48.1875 
Q 44.578125 48.1875 50.953125 41.515625 
Q 57.328125 34.859375 57.328125 23.390625 
Q 57.328125 12.15625 50.6875 5.359375 
Q 44.046875 -1.421875 33.015625 -1.421875 
Q 20.359375 -1.421875 13.671875 8.265625 
Q 6.984375 17.96875 6.984375 36.375 
Q 6.984375 53.65625 15.1875 63.9375 
Q 23.390625 74.21875 37.203125 74.21875 
Q 40.921875 74.21875 44.703125 73.484375 
Q 48.484375 72.75 52.59375 71.296875 
z
" id="DejaVuSans-54"/>
      </defs>
      <g transform="translate(222.441518 322.182437)scale(0.1 -0.1)">
       <use xlink:href="#DejaVuSans-54"/>
       <use x="63.623047" xlink:href="#DejaVuSans-48"/>
      </g>
     </g>
    </g>
    <g id="xtick_5">
     <g id="line2d_5">
      <g>
       <use style="stroke:#000000;stroke-width:0.8;" x="280.461115" xlink:href="#m0a398a27da" y="307.584"/>
      </g>
     </g>
     <g id="text_5">
      <!-- 80 -->
      <defs>
       <path d="M 31.78125 34.625 
Q 24.75 34.625 20.71875 30.859375 
Q 16.703125 27.09375 16.703125 20.515625 
Q 16.703125 13.921875 20.71875 10.15625 
Q 24.75 6.390625 31.78125 6.390625 
Q 38.8125 6.390625 42.859375 10.171875 
Q 46.921875 13.96875 46.921875 20.515625 
Q 46.921875 27.09375 42.890625 30.859375 
Q 38.875 34.625 31.78125 34.625 
z
M 21.921875 38.8125 
Q 15.578125 40.375 12.03125 44.71875 
Q 8.5 49.078125 8.5 55.328125 
Q 8.5 64.0625 14.71875 69.140625 
Q 20.953125 74.21875 31.78125 74.21875 
Q 42.671875 74.21875 48.875 69.140625 
Q 55.078125 64.0625 55.078125 55.328125 
Q 55.078125 49.078125 51.53125 44.71875 
Q 48 40.375 41.703125 38.8125 
Q 48.828125 37.15625 52.796875 32.3125 
Q 56.78125 27.484375 56.78125 20.515625 
Q 56.78125 9.90625 50.3125 4.234375 
Q 43.84375 -1.421875 31.78125 -1.421875 
Q 19.734375 -1.421875 13.25 4.234375 
Q 6.78125 9.90625 6.78125 20.515625 
Q 6.78125 27.484375 10.78125 32.3125 
Q 14.796875 37.15625 21.921875 38.8125 
z
M 18.3125 54.390625 
Q 18.3125 48.734375 21.84375 45.5625 
Q 25.390625 42.390625 31.78125 42.390625 
Q 38.140625 42.390625 41.71875 45.5625 
Q 45.3125 48.734375 45.3125 54.390625 
Q 45.3125 60.0625 41.71875 63.234375 
Q 38.140625 66.40625 31.78125 66.40625 
Q 25.390625 66.40625 21.84375 63.234375 
Q 18.3125 60.0625 18.3125 54.390625 
z
" id="DejaVuSans-56"/>
      </defs>
      <g transform="translate(274.098615 322.182437)scale(0.1 -0.1)">
       <use xlink:href="#DejaVuSans-56"/>
       <use x="63.623047" xlink:href="#DejaVuSans-48"/>
      </g>
     </g>
    </g>
    <g id="xtick_6">
     <g id="line2d_6">
      <g>
       <use style="stroke:#000000;stroke-width:0.8;" x="332.118212" xlink:href="#m0a398a27da" y="307.584"/>
      </g>
     </g>
     <g id="text_6">
      <!-- 100 -->
      <defs>
       <path d="M 12.40625 8.296875 
L 28.515625 8.296875 
L 28.515625 63.921875 
L 10.984375 60.40625 
L 10.984375 69.390625 
L 28.421875 72.90625 
L 38.28125 72.90625 
L 38.28125 8.296875 
L 54.390625 8.296875 
L 54.390625 0 
L 12.40625 0 
z
" id="DejaVuSans-49"/>
      </defs>
      <g transform="translate(322.574462 322.182437)scale(0.1 -0.1)">
       <use xlink:href="#DejaVuSans-49"/>
       <use x="63.623047" xlink:href="#DejaVuSans-48"/>
       <use x="127.246094" xlink:href="#DejaVuSans-48"/>
      </g>
     </g>
    </g>
    <g id="xtick_7">
     <g id="line2d_7">
      <g>
       <use style="stroke:#000000;stroke-width:0.8;" x="383.775309" xlink:href="#m0a398a27da" y="307.584"/>
      </g>
     </g>
     <g id="text_7">
      <!-- 120 -->
      <g transform="translate(374.231559 322.182437)scale(0.1 -0.1)">
       <use xlink:href="#DejaVuSans-49"/>
       <use x="63.623047" xlink:href="#DejaVuSans-50"/>
       <use x="127.246094" xlink:href="#DejaVuSans-48"/>
      </g>
     </g>
    </g>
   </g>
   <g id="matplotlib.axis_2">
    <g id="ytick_1">
     <g id="line2d_8">
      <defs>
       <path d="M 0 0 
L -3.5 0 
" id="m40488392f2" style="stroke:#000000;stroke-width:0.8;"/>
      </defs>
      <g>
       <use style="stroke:#000000;stroke-width:0.8;" x="57.6" xlink:href="#m40488392f2" y="305.639515"/>
      </g>
     </g>
     <g id="text_8">
      <!-- −40 -->
      <defs>
       <path d="M 10.59375 35.5 
L 73.1875 35.5 
L 73.1875 27.203125 
L 10.59375 27.203125 
z
" id="DejaVuSans-8722"/>
      </defs>
      <g transform="translate(29.495313 309.438733)scale(0.1 -0.1)">
       <use xlink:href="#DejaVuSans-8722"/>
       <use x="83.789062" xlink:href="#DejaVuSans-52"/>
       <use x="147.412109" xlink:href="#DejaVuSans-48"/>
      </g>
     </g>
    </g>
    <g id="ytick_2">
     <g id="line2d_9">
      <g>
       <use style="stroke:#000000;stroke-width:0.8;" x="57.6" xlink:href="#m40488392f2" y="253.982418"/>
      </g>
     </g>
     <g id="text_9">
      <!-- −20 -->
      <g transform="translate(29.495313 257.781636)scale(0.1 -0.1)">
       <use xlink:href="#DejaVuSans-8722"/>
       <use x="83.789062" xlink:href="#DejaVuSans-50"/>
       <use x="147.412109" xlink:href="#DejaVuSans-48"/>
      </g>
     </g>
    </g>
    <g id="ytick_3">
     <g id="line2d_10">
      <g>
       <use style="stroke:#000000;stroke-width:0.8;" x="57.6" xlink:href="#m40488392f2" y="202.325321"/>
      </g>
     </g>
     <g id="text_10">
      <!-- 0 -->
      <g transform="translate(44.2375 206.124539)scale(0.1 -0.1)">
       <use xlink:href="#DejaVuSans-48"/>
      </g>
     </g>
    </g>
    <g id="ytick_4">
     <g id="line2d_11">
      <g>
       <use style="stroke:#000000;stroke-width:0.8;" x="57.6" xlink:href="#m40488392f2" y="150.668224"/>
      </g>
     </g>
     <g id="text_11">
      <!-- 20 -->
      <g transform="translate(37.875 154.467442)scale(0.1 -0.1)">
       <use xlink:href="#DejaVuSans-50"/>
       <use x="63.623047" xlink:href="#DejaVuSans-48"/>
      </g>
     </g>
    </g>
    <g id="ytick_5">
     <g id="line2d_12">
      <g>
       <use style="stroke:#000000;stroke-width:0.8;" x="57.6" xlink:href="#m40488392f2" y="99.011127"/>
      </g>
     </g>
     <g id="text_12">
      <!-- 40 -->
      <g transform="translate(37.875 102.810345)scale(0.1 -0.1)">
       <use xlink:href="#DejaVuSans-52"/>
       <use x="63.623047" xlink:href="#DejaVuSans-48"/>
      </g>
     </g>
    </g>
    <g id="ytick_6">
     <g id="line2d_13">
      <g>
       <use style="stroke:#000000;stroke-width:0.8;" x="57.6" xlink:href="#m40488392f2" y="47.35403"/>
      </g>
     </g>
     <g id="text_13">
      <!-- 60 -->
      <g transform="translate(37.875 51.153248)scale(0.1 -0.1)">
       <use xlink:href="#DejaVuSans-54"/>
       <use x="63.623047" xlink:href="#DejaVuSans-48"/>
      </g>
     </g>
    </g>
   </g>
   <g id="line2d_14">
    <path clip-path="url(#pa4de49fc71)" d="M 73.832727 202.325321 
L 73.965865 199.740593 
L 74.21102 197.170822 
L 74.576384 194.61113 
L 75.035693 192.087283 
L 75.633402 189.579863 
L 76.342149 187.118371 
L 77.159648 184.69423 
L 78.097876 182.323815 
L 79.128866 179.993335 
L 80.260639 177.717447 
L 81.494229 175.504514 
L 82.828986 173.357051 
L 84.258912 171.282553 
L 85.795062 169.290449 
L 87.398201 167.377793 
L 89.106339 165.552412 
L 90.886396 163.809372 
L 92.728849 162.149448 
L 94.649644 160.599296 
L 96.626284 159.135489 
L 98.673331 157.775332 
L 100.786677 156.516267 
L 102.950257 155.346776 
L 105.184556 154.270242 
L 107.471467 153.290178 
L 109.79335 152.385068 
L 112.176938 151.557805 
L 114.61133 150.801029 
L 117.085447 150.126878 
L 119.577566 149.524272 
L 122.108196 149.00114 
L 124.693427 148.559343 
L 127.320345 148.191519 
L 129.988047 147.892941 
L 132.697952 147.669059 
L 135.443243 147.530876 
L 138.226191 147.463696 
L 141.047599 147.464781 
L 143.898425 147.528396 
L 146.77898 147.647079 
L 149.691742 147.807939 
L 152.617316 148.008911 
L 155.559317 148.240748 
L 158.516324 148.506472 
L 161.500813 148.812205 
L 164.528978 149.156396 
L 167.613914 149.539562 
L 170.759005 149.94786 
L 173.963114 150.381909 
L 177.208987 150.842484 
L 180.518838 151.323024 
L 183.879881 151.828824 
L 187.304721 152.352601 
L 190.787933 152.895853 
L 194.319032 153.451735 
L 197.901684 154.027376 
L 201.534263 154.611773 
L 205.225782 155.214198 
L 208.95824 155.81918 
L 212.749354 156.432583 
L 216.601605 157.051357 
L 220.505047 157.669125 
L 224.464047 158.295441 
L 228.46835 158.91902 
L 232.547401 159.553007 
L 236.670464 160.186479 
L 240.843893 160.830333 
L 245.057226 161.479301 
L 249.295304 162.125015 
L 253.577367 162.78013 
L 257.895952 163.426283 
L 262.250878 164.080778 
L 266.660379 164.734912 
L 271.10041 165.401263 
L 275.584866 166.068105 
L 280.110286 166.743624 
L 284.662284 167.418783 
L 289.250958 168.104298 
L 293.875869 168.799861 
L 298.554995 169.504697 
L 303.261189 170.224487 
L 308.011421 170.947221 
L 312.788462 171.689379 
L 317.613339 172.443366 
L 322.468073 173.222975 
L 327.349926 174.019786 
L 332.254329 174.844052 
L 337.168468 175.696317 
L 342.113344 176.584256 
L 347.075525 177.499904 
L 352.070249 178.443256 
L 357.090028 179.411302 
L 362.132535 180.405587 
L 367.197255 181.437975 
L 372.275923 182.503992 
L 377.36518 183.607553 
L 382.474325 184.740525 
L 387.61369 185.921029 
L 392.768035 187.129743 
L 397.927804 188.368788 
" style="fill:none;stroke:#008000;stroke-linecap:square;stroke-width:1.5;"/>
   </g>
   <g id="line2d_15">
    <path clip-path="url(#pa4de49fc71)" d="M 73.832727 202.325321 
L 73.913225 199.738675 
L 74.171944 197.169763 
L 74.578904 194.616105 
L 75.119924 192.109177 
L 75.717083 189.601455 
L 76.405057 187.133549 
L 77.230904 184.711441 
L 78.108865 182.317691 
L 79.132211 179.983496 
L 80.251719 177.70006 
L 81.470849 175.47775 
L 82.810416 173.331864 
L 84.189672 171.223916 
L 85.713028 169.220922 
L 87.32513 167.31624 
L 89.004767 165.464319 
L 90.792888 163.729745 
L 92.690954 162.133956 
L 94.665126 160.654878 
L 96.6091 159.148606 
L 98.595133 157.699535 
L 100.718137 156.456157 
L 102.866163 155.258341 
L 105.0472 154.077848 
L 107.345523 153.123591 
L 109.671093 152.229523 
L 112.044184 151.371782 
L 114.468278 150.582213 
L 116.92957 149.863584 
L 119.409581 149.212932 
L 121.931133 148.647723 
L 124.513234 148.187579 
L 127.122576 147.710547 
L 129.779159 147.325566 
L 132.486215 147.074738 
L 135.227559 146.872941 
L 138.010375 146.808929 
L 140.83063 146.733692 
L 143.682136 146.730679 
L 146.564264 146.801024 
L 149.479152 146.914958 
L 152.407654 147.067944 
L 155.353806 147.239806 
L 158.312255 147.489502 
L 161.302747 147.730597 
L 164.336864 148.018511 
L 167.426516 148.362434 
L 170.582244 148.679325 
L 173.793874 149.054574 
L 177.047586 149.456545 
L 180.362703 149.899677 
L 183.730792 150.35627 
L 187.166305 150.805025 
L 190.656729 151.300073 
L 194.203853 151.743544 
L 197.792456 152.281388 
L 201.439013 152.772189 
L 205.142113 153.300238 
L 208.88665 153.826212 
L 212.688096 154.372587 
L 216.554619 154.895436 
L 220.471153 155.423644 
L 224.447859 155.926091 
L 228.465936 156.454313 
L 232.553444 157.031481 
L 236.687924 157.585668 
L 240.866355 158.195985 
L 245.092698 158.754387 
L 249.345807 159.291253 
L 253.643128 159.837615 
L 257.977272 160.368924 
L 262.344864 160.932852 
L 266.772018 161.454485 
L 271.230724 161.982041 
L 275.7358 162.491393 
L 280.265713 163.136332 
L 284.834723 163.684836 
L 289.441784 164.231731 
L 294.07847 164.843553 
L 298.769047 165.467579 
L 303.492516 166.063405 
L 308.247744 166.7523 
L 313.038877 167.397509 
L 317.87509 168.075161 
L 322.739287 168.793593 
L 327.640977 169.456534 
L 332.556115 170.214176 
L 337.466782 171.085718 
L 342.416204 171.947955 
L 347.397369 172.75282 
L 352.399011 173.658265 
L 357.435382 174.534015 
L 362.481421 175.509924 
L 367.598989 176.236068 
L 372.710056 177.133986 
L 377.834887 178.058082 
L 382.941233 179.202386 
L 388.102672 180.281776 
L 393.287111 181.354089 
L 398.487273 182.410634 
" style="fill:none;stroke:#0000ff;stroke-linecap:square;stroke-width:1.5;"/>
   </g>
   <g id="line2d_16">
    <path clip-path="url(#pa4de49fc71)" d="M 73.832727 202.325321 
L 73.913225 199.738675 
L 74.171944 197.169763 
L 74.578904 194.616105 
L 75.119924 192.109177 
L 75.717083 189.601455 
L 76.405057 187.133549 
L 77.230904 184.711441 
L 78.108865 182.317691 
L 79.132211 179.983496 
L 80.251719 177.70006 
L 81.470849 175.47775 
L 82.810416 173.331864 
L 84.189672 171.223916 
L 85.713028 169.220922 
L 87.32513 167.31624 
L 89.004767 165.464319 
L 90.792888 163.729745 
L 92.690954 162.133956 
L 94.665126 160.654878 
L 96.6091 159.148606 
L 98.595133 157.699535 
L 100.718137 156.456157 
L 102.866163 155.258341 
L 105.0472 154.077848 
L 107.345523 153.123591 
L 109.671093 152.229523 
L 112.044184 151.371782 
L 114.468278 150.582213 
L 116.92957 149.863584 
L 119.409581 149.212932 
L 121.931133 148.647723 
L 124.513234 148.187579 
L 127.122576 147.710547 
L 129.779159 147.325566 
L 132.486215 147.074738 
L 135.227559 146.872941 
L 138.010375 146.808929 
L 140.83063 146.733692 
L 143.682136 146.730679 
L 146.564264 146.801024 
L 149.479152 146.914958 
L 152.407655 147.067944 
L 155.353806 147.239806 
L 158.312255 147.489502 
L 161.302747 147.730597 
L 164.336864 148.018511 
L 167.426516 148.362434 
L 170.582244 148.679325 
L 173.793874 149.054574 
L 177.047586 149.456545 
L 180.362703 149.899677 
L 183.730792 150.35627 
L 187.166305 150.805025 
L 190.656729 151.300073 
L 194.203853 151.743544 
L 197.792456 152.281388 
L 201.439013 152.772189 
L 205.142113 153.300238 
L 208.88665 153.826212 
L 212.688096 154.372587 
L 216.554619 154.895436 
L 220.471153 155.423644 
L 224.447859 155.926091 
L 228.465936 156.454313 
L 232.553444 157.031481 
L 236.687924 157.585668 
L 240.866355 158.195985 
L 245.092698 158.754387 
L 249.345807 159.291253 
L 253.643128 159.837615 
L 257.977272 160.368924 
L 262.344864 160.932852 
L 266.772018 161.454485 
L 271.230724 161.982041 
L 275.7358 162.491393 
L 280.265713 163.136332 
L 284.834723 163.684836 
L 289.441784 164.231731 
L 294.07847 164.843553 
L 298.769047 165.467579 
L 303.492516 166.063405 
L 308.247744 166.7523 
L 313.038877 167.397509 
L 317.87509 168.075161 
L 322.739287 168.793593 
L 327.640977 169.456534 
L 332.556114 170.214176 
L 337.466782 171.085718 
L 342.416204 171.947955 
L 347.397369 172.75282 
L 352.399011 173.658265 
L 357.435382 174.534015 
L 362.481421 175.509924 
L 367.598989 176.236068 
L 372.710056 177.133986 
L 377.834887 178.058082 
L 382.941233 179.202386 
L 388.102672 180.281776 
L 393.287111 181.354089 
L 398.487273 182.410634 
" style="fill:none;stroke:#ff0000;stroke-linecap:square;stroke-width:1.5;"/>
   </g>
   <g id="patch_3">
    <path d="M 57.6 307.584 
L 57.6 41.472 
" style="fill:none;stroke:#000000;stroke-linecap:square;stroke-linejoin:miter;stroke-width:0.8;"/>
   </g>
   <g id="patch_4">
    <path d="M 414.72 307.584 
L 414.72 41.472 
" style="fill:none;stroke:#000000;stroke-linecap:square;stroke-linejoin:miter;stroke-width:0.8;"/>
   </g>
   <g id="patch_5">
    <path d="M 57.6 307.584 
L 414.72 307.584 
" style="fill:none;stroke:#000000;stroke-linecap:square;stroke-linejoin:miter;stroke-width:0.8;"/>
   </g>
   <g id="patch_6">
    <path d="M 57.6 41.472 
L 414.72 41.472 
" style="fill:none;stroke:#000000;stroke-linecap:square;stroke-linejoin:miter;stroke-width:0.8;"/>
   </g>
  </g>
 </g>
 <defs>
  <clipPath id="pa4de49fc71">
   <rect height="266.112" width="357.12" x="57.6" y="41.472"/>
  </clipPath>
 </defs>
</svg>
