<?xml version="1.0" encoding="utf-8" standalone="no"?>
<!DOCTYPE svg PUBLIC "-//W3C//DTD SVG 1.1//EN"
  "http://www.w3.org/Graphics/SVG/1.1/DTD/svg11.dtd">
<!-- Created with matplotlib (https://matplotlib.org/) -->
<svg height="345.6pt" version="1.1" viewBox="0 0 460.8 345.6" width="460.8pt" xmlns="http://www.w3.org/2000/svg" xmlns:xlink="http://www.w3.org/1999/xlink">
 <defs>
  <style type="text/css">
*{stroke-linecap:butt;stroke-linejoin:round;}
  </style>
 </defs>
 <g id="figure_1">
  <g id="patch_1">
   <path d="M 0 345.6 
L 460.8 345.6 
L 460.8 0 
L 0 0 
z
" style="fill:#ffffff;"/>
  </g>
  <g id="axes_1">
   <g id="patch_2">
    <path d="M 57.6 307.584 
L 414.72 307.584 
L 414.72 41.472 
L 57.6 41.472 
z
" style="fill:#ffffff;"/>
   </g>
   <g id="matplotlib.axis_1">
    <g id="xtick_1">
     <g id="line2d_1">
      <defs>
       <path d="M 0 0 
L 0 3.5 
" id="mf12dccb15c" style="stroke:#000000;stroke-width:0.8;"/>
      </defs>
      <g>
       <use style="stroke:#000000;stroke-width:0.8;" x="89.840586" xlink:href="#mf12dccb15c" y="307.584"/>
      </g>
     </g>
     <g id="text_1">
      <!-- −300 -->
      <defs>
       <path d="M 10.59375 35.5 
L 73.1875 35.5 
L 73.1875 27.203125 
L 10.59375 27.203125 
z
" id="DejaVuSans-8722"/>
       <path d="M 40.578125 39.3125 
Q 47.65625 37.796875 51.625 33 
Q 55.609375 28.21875 55.609375 21.1875 
Q 55.609375 10.40625 48.1875 4.484375 
Q 40.765625 -1.421875 27.09375 -1.421875 
Q 22.515625 -1.421875 17.65625 -0.515625 
Q 12.796875 0.390625 7.625 2.203125 
L 7.625 11.71875 
Q 11.71875 9.328125 16.59375 8.109375 
Q 21.484375 6.890625 26.8125 6.890625 
Q 36.078125 6.890625 40.9375 10.546875 
Q 45.796875 14.203125 45.796875 21.1875 
Q 45.796875 27.640625 41.28125 31.265625 
Q 36.765625 34.90625 28.71875 34.90625 
L 20.21875 34.90625 
L 20.21875 43.015625 
L 29.109375 43.015625 
Q 36.375 43.015625 40.234375 45.921875 
Q 44.09375 48.828125 44.09375 54.296875 
Q 44.09375 59.90625 40.109375 62.90625 
Q 36.140625 65.921875 28.71875 65.921875 
Q 24.65625 65.921875 20.015625 65.03125 
Q 15.375 64.15625 9.8125 62.3125 
L 9.8125 71.09375 
Q 15.4375 72.65625 20.34375 73.4375 
Q 25.25 74.21875 29.59375 74.21875 
Q 40.828125 74.21875 47.359375 69.109375 
Q 53.90625 64.015625 53.90625 55.328125 
Q 53.90625 49.265625 50.4375 45.09375 
Q 46.96875 40.921875 40.578125 39.3125 
z
" id="DejaVuSans-51"/>
       <path d="M 31.78125 66.40625 
Q 24.171875 66.40625 20.328125 58.90625 
Q 16.5 51.421875 16.5 36.375 
Q 16.5 21.390625 20.328125 13.890625 
Q 24.171875 6.390625 31.78125 6.390625 
Q 39.453125 6.390625 43.28125 13.890625 
Q 47.125 21.390625 47.125 36.375 
Q 47.125 51.421875 43.28125 58.90625 
Q 39.453125 66.40625 31.78125 66.40625 
z
M 31.78125 74.21875 
Q 44.046875 74.21875 50.515625 64.515625 
Q 56.984375 54.828125 56.984375 36.375 
Q 56.984375 17.96875 50.515625 8.265625 
Q 44.046875 -1.421875 31.78125 -1.421875 
Q 19.53125 -1.421875 13.0625 8.265625 
Q 6.59375 17.96875 6.59375 36.375 
Q 6.59375 54.828125 13.0625 64.515625 
Q 19.53125 74.21875 31.78125 74.21875 
z
" id="DejaVuSans-48"/>
      </defs>
      <g transform="translate(76.106993 322.182437)scale(0.1 -0.1)">
       <use xlink:href="#DejaVuSans-8722"/>
       <use x="83.789062" xlink:href="#DejaVuSans-51"/>
       <use x="147.412109" xlink:href="#DejaVuSans-48"/>
       <use x="211.035156" xlink:href="#DejaVuSans-48"/>
      </g>
     </g>
    </g>
    <g id="xtick_2">
     <g id="line2d_2">
      <g>
       <use style="stroke:#000000;stroke-width:0.8;" x="141.255758" xlink:href="#mf12dccb15c" y="307.584"/>
      </g>
     </g>
     <g id="text_2">
      <!-- −200 -->
      <defs>
       <path d="M 19.1875 8.296875 
L 53.609375 8.296875 
L 53.609375 0 
L 7.328125 0 
L 7.328125 8.296875 
Q 12.9375 14.109375 22.625 23.890625 
Q 32.328125 33.6875 34.8125 36.53125 
Q 39.546875 41.84375 41.421875 45.53125 
Q 43.3125 49.21875 43.3125 52.78125 
Q 43.3125 58.59375 39.234375 62.25 
Q 35.15625 65.921875 28.609375 65.921875 
Q 23.96875 65.921875 18.8125 64.3125 
Q 13.671875 62.703125 7.8125 59.421875 
L 7.8125 69.390625 
Q 13.765625 71.78125 18.9375 73 
Q 24.125 74.21875 28.421875 74.21875 
Q 39.75 74.21875 46.484375 68.546875 
Q 53.21875 62.890625 53.21875 53.421875 
Q 53.21875 48.921875 51.53125 44.890625 
Q 49.859375 40.875 45.40625 35.40625 
Q 44.1875 33.984375 37.640625 27.21875 
Q 31.109375 20.453125 19.1875 8.296875 
z
" id="DejaVuSans-50"/>
      </defs>
      <g transform="translate(127.522164 322.182437)scale(0.1 -0.1)">
       <use xlink:href="#DejaVuSans-8722"/>
       <use x="83.789062" xlink:href="#DejaVuSans-50"/>
       <use x="147.412109" xlink:href="#DejaVuSans-48"/>
       <use x="211.035156" xlink:href="#DejaVuSans-48"/>
      </g>
     </g>
    </g>
    <g id="xtick_3">
     <g id="line2d_3">
      <g>
       <use style="stroke:#000000;stroke-width:0.8;" x="192.670929" xlink:href="#mf12dccb15c" y="307.584"/>
      </g>
     </g>
     <g id="text_3">
      <!-- −100 -->
      <defs>
       <path d="M 12.40625 8.296875 
L 28.515625 8.296875 
L 28.515625 63.921875 
L 10.984375 60.40625 
L 10.984375 69.390625 
L 28.421875 72.90625 
L 38.28125 72.90625 
L 38.28125 8.296875 
L 54.390625 8.296875 
L 54.390625 0 
L 12.40625 0 
z
" id="DejaVuSans-49"/>
      </defs>
      <g transform="translate(178.937336 322.182437)scale(0.1 -0.1)">
       <use xlink:href="#DejaVuSans-8722"/>
       <use x="83.789062" xlink:href="#DejaVuSans-49"/>
       <use x="147.412109" xlink:href="#DejaVuSans-48"/>
       <use x="211.035156" xlink:href="#DejaVuSans-48"/>
      </g>
     </g>
    </g>
    <g id="xtick_4">
     <g id="line2d_4">
      <g>
       <use style="stroke:#000000;stroke-width:0.8;" x="244.086101" xlink:href="#mf12dccb15c" y="307.584"/>
      </g>
     </g>
     <g id="text_4">
      <!-- 0 -->
      <g transform="translate(240.904851 322.182437)scale(0.1 -0.1)">
       <use xlink:href="#DejaVuSans-48"/>
      </g>
     </g>
    </g>
    <g id="xtick_5">
     <g id="line2d_5">
      <g>
       <use style="stroke:#000000;stroke-width:0.8;" x="295.501272" xlink:href="#mf12dccb15c" y="307.584"/>
      </g>
     </g>
     <g id="text_5">
      <!-- 100 -->
      <g transform="translate(285.957522 322.182437)scale(0.1 -0.1)">
       <use xlink:href="#DejaVuSans-49"/>
       <use x="63.623047" xlink:href="#DejaVuSans-48"/>
       <use x="127.246094" xlink:href="#DejaVuSans-48"/>
      </g>
     </g>
    </g>
    <g id="xtick_6">
     <g id="line2d_6">
      <g>
       <use style="stroke:#000000;stroke-width:0.8;" x="346.916444" xlink:href="#mf12dccb15c" y="307.584"/>
      </g>
     </g>
     <g id="text_6">
      <!-- 200 -->
      <g transform="translate(337.372694 322.182437)scale(0.1 -0.1)">
       <use xlink:href="#DejaVuSans-50"/>
       <use x="63.623047" xlink:href="#DejaVuSans-48"/>
       <use x="127.246094" xlink:href="#DejaVuSans-48"/>
      </g>
     </g>
    </g>
    <g id="xtick_7">
     <g id="line2d_7">
      <g>
       <use style="stroke:#000000;stroke-width:0.8;" x="398.331615" xlink:href="#mf12dccb15c" y="307.584"/>
      </g>
     </g>
     <g id="text_7">
      <!-- 300 -->
      <g transform="translate(388.787865 322.182437)scale(0.1 -0.1)">
       <use xlink:href="#DejaVuSans-51"/>
       <use x="63.623047" xlink:href="#DejaVuSans-48"/>
       <use x="127.246094" xlink:href="#DejaVuSans-48"/>
      </g>
     </g>
    </g>
   </g>
   <g id="matplotlib.axis_2">
    <g id="ytick_1">
     <g id="line2d_8">
      <defs>
       <path d="M 0 0 
L -3.5 0 
" id="m70aab4069c" style="stroke:#000000;stroke-width:0.8;"/>
      </defs>
      <g>
       <use style="stroke:#000000;stroke-width:0.8;" x="57.6" xlink:href="#m70aab4069c" y="259.397893"/>
      </g>
     </g>
     <g id="text_8">
      <!-- −100 -->
      <g transform="translate(23.132812 263.197112)scale(0.1 -0.1)">
       <use xlink:href="#DejaVuSans-8722"/>
       <use x="83.789062" xlink:href="#DejaVuSans-49"/>
       <use x="147.412109" xlink:href="#DejaVuSans-48"/>
       <use x="211.035156" xlink:href="#DejaVuSans-48"/>
      </g>
     </g>
    </g>
    <g id="ytick_2">
     <g id="line2d_9">
      <g>
       <use style="stroke:#000000;stroke-width:0.8;" x="57.6" xlink:href="#m70aab4069c" y="207.982722"/>
      </g>
     </g>
     <g id="text_9">
      <!-- 0 -->
      <g transform="translate(44.2375 211.78194)scale(0.1 -0.1)">
       <use xlink:href="#DejaVuSans-48"/>
      </g>
     </g>
    </g>
    <g id="ytick_3">
     <g id="line2d_10">
      <g>
       <use style="stroke:#000000;stroke-width:0.8;" x="57.6" xlink:href="#m70aab4069c" y="156.56755"/>
      </g>
     </g>
     <g id="text_10">
      <!-- 100 -->
      <g transform="translate(31.5125 160.366769)scale(0.1 -0.1)">
       <use xlink:href="#DejaVuSans-49"/>
       <use x="63.623047" xlink:href="#DejaVuSans-48"/>
       <use x="127.246094" xlink:href="#DejaVuSans-48"/>
      </g>
     </g>
    </g>
    <g id="ytick_4">
     <g id="line2d_11">
      <g>
       <use style="stroke:#000000;stroke-width:0.8;" x="57.6" xlink:href="#m70aab4069c" y="105.152379"/>
      </g>
     </g>
     <g id="text_11">
      <!-- 200 -->
      <g transform="translate(31.5125 108.951598)scale(0.1 -0.1)">
       <use xlink:href="#DejaVuSans-50"/>
       <use x="63.623047" xlink:href="#DejaVuSans-48"/>
       <use x="127.246094" xlink:href="#DejaVuSans-48"/>
      </g>
     </g>
    </g>
    <g id="ytick_5">
     <g id="line2d_12">
      <g>
       <use style="stroke:#000000;stroke-width:0.8;" x="57.6" xlink:href="#m70aab4069c" y="53.737207"/>
      </g>
     </g>
     <g id="text_12">
      <!-- 300 -->
      <g transform="translate(31.5125 57.536426)scale(0.1 -0.1)">
       <use xlink:href="#DejaVuSans-51"/>
       <use x="63.623047" xlink:href="#DejaVuSans-48"/>
       <use x="127.246094" xlink:href="#DejaVuSans-48"/>
      </g>
     </g>
    </g>
   </g>
   <g id="line2d_13">
    <path clip-path="url(#pc1017b0a02)" d="M 244.086101 207.982722 
L 243.707756 184.642481 
L 243.399374 165.617068 
L 243.568803 159.085547 
L 243.965752 148.03983 
L 243.873564 139.0885 
L 243.427849 113.073709 
L 243.234679 101.188578 
L 243.076705 92.250667 
L 242.778411 82.860868 
L 242.851195 74.165226 
L 243.121713 68.527244 
L 243.360074 62.072686 
L 243.26492 58.555786 
L 243.022837 57.095698 
L 242.677638 56.068011 
L 242.045454 54.989989 
L 241.376355 54.318507 
L 240.793272 53.938138 
L 239.958888 53.644094 
L 238.645712 53.619312 
L 237.474213 54.02832 
L 236.314101 54.867518 
L 235.394921 55.857261 
L 234.571549 57.156522 
L 234.040337 58.323749 
L 233.488143 60.129296 
L 233.22897 61.639873 
L 233.091696 63.860238 
L 233.181334 66.26256 
L 233.933707 76.964577 
L 234.053032 83.957811 
L 234.274055 98.462802 
L 234.568782 117.106046 
L 234.462646 127.075911 
L 234.303804 144.746637 
L 234.465829 150.361482 
L 235.359085 168.275926 
L 235.539429 180.354682 
L 236.136863 227.348544 
L 236.521469 269.127597 
L 236.635004 284.897093 
L 236.973624 286.10828 
L 237.516666 287.097457 
L 238.266855 287.846422 
L 238.93408 288.232858 
L 239.642784 288.467466 
L 240.373176 288.545308 
L 241.380677 288.392759 
L 242.112614 288.091569 
L 242.81071 287.619989 
L 243.624208 286.720378 
L 244.118136 285.868274 
L 244.470934 284.873956 
L 244.736531 283.340293 
L 244.838537 281.608065 
L 244.812688 269.933736 
L 244.687697 259.401801 
L 244.434562 240.13032 
L 243.437558 170.384252 
L 243.36768 163.942933 
L 243.310859 154.578709 
L 243.08035 148.249192 
L 243.229549 143.988366 
L 243.670557 134.038707 
L 243.584023 126.031206 
L 243.208966 103.625451 
L 242.986013 89.51466 
L 242.80795 82.355766 
L 242.887279 72.996919 
L 243.14968 60.752345 
L 243.151404 55.263775 
L 243.151404 55.263775 
" style="fill:none;stroke:#008000;stroke-linecap:square;stroke-width:1.5;"/>
   </g>
   <g id="line2d_14">
    <path clip-path="url(#pc1017b0a02)" d="M 244.086101 207.982722 
L 243.977092 190.349994 
L 243.825284 179.777704 
L 243.812766 162.260916 
L 244.254939 148.183501 
L 244.066024 125.784102 
L 243.780225 106.923622 
L 243.635098 96.840998 
L 243.402089 88.904903 
L 243.462372 81.793498 
L 243.626245 76.927009 
L 244.085902 67.944618 
L 244.043422 64.107665 
L 243.766666 62.504283 
L 243.373393 61.486768 
L 242.690178 60.441959 
L 242.031472 59.821922 
L 241.157588 59.308588 
L 240.566908 59.206921 
L 239.83119 59.278856 
L 239.288468 59.447603 
L 237.981562 60.301618 
L 237.325853 60.941716 
L 231.261971 68.12726 
L 230.497365 69.666804 
L 230.030187 71.014072 
L 229.696412 72.517926 
L 229.449531 74.736309 
L 229.456676 77.16016 
L 230.058607 89.236387 
L 230.001327 103.46324 
L 229.779703 133.328434 
L 229.200674 150.915856 
L 229.186005 152.729514 
L 229.244676 159.842417 
L 229.658831 173.654029 
L 229.66417 181.877116 
L 228.881798 233.559643 
L 228.547209 255.30256 
L 227.682314 289.607243 
L 227.630014 292.113555 
L 227.816383 293.273532 
L 228.127438 293.981544 
L 228.68896 294.649738 
L 229.496565 295.224594 
L 230.196517 295.418798 
L 231.359543 295.473927 
L 232.191189 295.280773 
L 233.201833 294.786951 
L 233.856486 294.251252 
L 234.642434 293.229596 
L 235.055611 292.346172 
L 235.388185 291.073891 
L 235.620074 289.306058 
L 235.928476 282.744223 
L 236.765181 258.923134 
L 237.159792 248.336919 
L 237.571836 234.326801 
L 237.916187 225.63743 
L 239.258602 191.729884 
L 240.400519 158.266541 
L 241.409803 147.764779 
L 241.742325 139.151787 
L 242.904217 101.307276 
L 243.215998 93.998443 
L 243.692593 86.951389 
L 244.209498 79.61107 
L 244.630785 71.395884 
L 244.630785 71.395884 
" style="fill:none;stroke:#0000ff;stroke-linecap:square;stroke-width:1.5;"/>
   </g>
   <g id="line2d_15">
    <path clip-path="url(#pc1017b0a02)" d="M 244.086101 207.982722 
L 243.973731 190.349987 
L 243.84914 180.394758 
L 243.838423 160.900252 
L 244.221729 151.647232 
L 244.205282 143.584996 
L 243.837469 106.921825 
L 243.701563 96.838896 
L 243.47563 88.902533 
L 243.543315 82.19654 
L 243.84271 74.758238 
L 244.173908 67.542722 
L 244.122027 64.104087 
L 243.843568 62.501214 
L 243.460347 61.47962 
L 242.781799 60.431783 
L 242.121336 59.81399 
L 241.375614 59.39458 
L 240.762223 59.239241 
L 239.700003 59.282178 
L 238.843368 59.679047 
L 238.046118 60.25667 
L 237.379685 60.887147 
L 231.356585 67.604578 
L 230.548759 69.05524 
L 229.901274 70.813962 
L 229.47794 72.856689 
L 229.317899 74.533911 
L 229.323835 76.954736 
L 229.935818 89.697508 
L 229.803845 127.997574 
L 229.371017 141.440431 
L 229.079131 154.096077 
L 229.113846 158.473131 
L 229.570507 179.263747 
L 229.127546 213.691413 
L 229.040411 218.608942 
L 228.400394 257.675837 
L 228.00361 275.407309 
L 227.53692 292.14879 
L 227.808544 293.167247 
L 228.189068 293.785284 
L 228.448999 294.175904 
L 228.589302 294.452828 
L 229.286989 294.862695 
L 230.134062 295.069909 
L 231.218479 295.061031 
L 232.685051 294.725638 
L 233.320907 294.251302 
L 234.141491 293.298696 
L 234.890786 291.783411 
L 235.076568 291.160961 
L 235.257696 289.614374 
L 235.310932 286.833921 
L 235.306582 270.927432 
L 234.894278 202.317686 
L 234.756473 181.933809 
L 234.648473 172.117776 
L 234.659833 163.17888 
L 234.589489 159.871489 
L 234.823398 155.25874 
L 235.18146 149.412816 
L 235.107556 133.746972 
L 235.043668 112.687532 
L 234.914409 104.730907 
L 234.786896 96.874974 
L 234.923311 88.525076 
L 235.259191 74.545414 
L 235.300281 71.153572 
L 235.300281 71.153572 
" style="fill:none;stroke:#ff0000;stroke-linecap:square;stroke-width:1.5;"/>
   </g>
   <g id="patch_3">
    <path d="M 57.6 307.584 
L 57.6 41.472 
" style="fill:none;stroke:#000000;stroke-linecap:square;stroke-linejoin:miter;stroke-width:0.8;"/>
   </g>
   <g id="patch_4">
    <path d="M 414.72 307.584 
L 414.72 41.472 
" style="fill:none;stroke:#000000;stroke-linecap:square;stroke-linejoin:miter;stroke-width:0.8;"/>
   </g>
   <g id="patch_5">
    <path d="M 57.6 307.584 
L 414.72 307.584 
" style="fill:none;stroke:#000000;stroke-linecap:square;stroke-linejoin:miter;stroke-width:0.8;"/>
   </g>
   <g id="patch_6">
    <path d="M 57.6 41.472 
L 414.72 41.472 
" style="fill:none;stroke:#000000;stroke-linecap:square;stroke-linejoin:miter;stroke-width:0.8;"/>
   </g>
  </g>
 </g>
 <defs>
  <clipPath id="pc1017b0a02">
   <rect height="266.112" width="357.12" x="57.6" y="41.472"/>
  </clipPath>
 </defs>
</svg>
