<?xml version="1.0" encoding="utf-8" standalone="no"?>
<!DOCTYPE svg PUBLIC "-//W3C//DTD SVG 1.1//EN"
  "http://www.w3.org/Graphics/SVG/1.1/DTD/svg11.dtd">
<!-- Created with matplotlib (https://matplotlib.org/) -->
<svg height="345.6pt" version="1.1" viewBox="0 0 460.8 345.6" width="460.8pt" xmlns="http://www.w3.org/2000/svg" xmlns:xlink="http://www.w3.org/1999/xlink">
 <defs>
  <style type="text/css">
*{stroke-linecap:butt;stroke-linejoin:round;}
  </style>
 </defs>
 <g id="figure_1">
  <g id="patch_1">
   <path d="M 0 345.6 
L 460.8 345.6 
L 460.8 0 
L 0 0 
z
" style="fill:#ffffff;"/>
  </g>
  <g id="axes_1">
   <g id="patch_2">
    <path d="M 57.6 307.584 
L 414.72 307.584 
L 414.72 41.472 
L 57.6 41.472 
z
" style="fill:#ffffff;"/>
   </g>
   <g id="matplotlib.axis_1">
    <g id="xtick_1">
     <g id="line2d_1">
      <defs>
       <path d="M 0 0 
L 0 3.5 
" id="m47bfb69f5f" style="stroke:#000000;stroke-width:0.8;"/>
      </defs>
      <g>
       <use style="stroke:#000000;stroke-width:0.8;" x="83.902642" xlink:href="#m47bfb69f5f" y="307.584"/>
      </g>
     </g>
     <g id="text_1">
      <!-- −300 -->
      <defs>
       <path d="M 10.59375 35.5 
L 73.1875 35.5 
L 73.1875 27.203125 
L 10.59375 27.203125 
z
" id="DejaVuSans-8722"/>
       <path d="M 40.578125 39.3125 
Q 47.65625 37.796875 51.625 33 
Q 55.609375 28.21875 55.609375 21.1875 
Q 55.609375 10.40625 48.1875 4.484375 
Q 40.765625 -1.421875 27.09375 -1.421875 
Q 22.515625 -1.421875 17.65625 -0.515625 
Q 12.796875 0.390625 7.625 2.203125 
L 7.625 11.71875 
Q 11.71875 9.328125 16.59375 8.109375 
Q 21.484375 6.890625 26.8125 6.890625 
Q 36.078125 6.890625 40.9375 10.546875 
Q 45.796875 14.203125 45.796875 21.1875 
Q 45.796875 27.640625 41.28125 31.265625 
Q 36.765625 34.90625 28.71875 34.90625 
L 20.21875 34.90625 
L 20.21875 43.015625 
L 29.109375 43.015625 
Q 36.375 43.015625 40.234375 45.921875 
Q 44.09375 48.828125 44.09375 54.296875 
Q 44.09375 59.90625 40.109375 62.90625 
Q 36.140625 65.921875 28.71875 65.921875 
Q 24.65625 65.921875 20.015625 65.03125 
Q 15.375 64.15625 9.8125 62.3125 
L 9.8125 71.09375 
Q 15.4375 72.65625 20.34375 73.4375 
Q 25.25 74.21875 29.59375 74.21875 
Q 40.828125 74.21875 47.359375 69.109375 
Q 53.90625 64.015625 53.90625 55.328125 
Q 53.90625 49.265625 50.4375 45.09375 
Q 46.96875 40.921875 40.578125 39.3125 
z
" id="DejaVuSans-51"/>
       <path d="M 31.78125 66.40625 
Q 24.171875 66.40625 20.328125 58.90625 
Q 16.5 51.421875 16.5 36.375 
Q 16.5 21.390625 20.328125 13.890625 
Q 24.171875 6.390625 31.78125 6.390625 
Q 39.453125 6.390625 43.28125 13.890625 
Q 47.125 21.390625 47.125 36.375 
Q 47.125 51.421875 43.28125 58.90625 
Q 39.453125 66.40625 31.78125 66.40625 
z
M 31.78125 74.21875 
Q 44.046875 74.21875 50.515625 64.515625 
Q 56.984375 54.828125 56.984375 36.375 
Q 56.984375 17.96875 50.515625 8.265625 
Q 44.046875 -1.421875 31.78125 -1.421875 
Q 19.53125 -1.421875 13.0625 8.265625 
Q 6.59375 17.96875 6.59375 36.375 
Q 6.59375 54.828125 13.0625 64.515625 
Q 19.53125 74.21875 31.78125 74.21875 
z
" id="DejaVuSans-48"/>
      </defs>
      <g transform="translate(70.169049 322.182437)scale(0.1 -0.1)">
       <use xlink:href="#DejaVuSans-8722"/>
       <use x="83.789062" xlink:href="#DejaVuSans-51"/>
       <use x="147.412109" xlink:href="#DejaVuSans-48"/>
       <use x="211.035156" xlink:href="#DejaVuSans-48"/>
      </g>
     </g>
    </g>
    <g id="xtick_2">
     <g id="line2d_2">
      <g>
       <use style="stroke:#000000;stroke-width:0.8;" x="132.657525" xlink:href="#m47bfb69f5f" y="307.584"/>
      </g>
     </g>
     <g id="text_2">
      <!-- −200 -->
      <defs>
       <path d="M 19.1875 8.296875 
L 53.609375 8.296875 
L 53.609375 0 
L 7.328125 0 
L 7.328125 8.296875 
Q 12.9375 14.109375 22.625 23.890625 
Q 32.328125 33.6875 34.8125 36.53125 
Q 39.546875 41.84375 41.421875 45.53125 
Q 43.3125 49.21875 43.3125 52.78125 
Q 43.3125 58.59375 39.234375 62.25 
Q 35.15625 65.921875 28.609375 65.921875 
Q 23.96875 65.921875 18.8125 64.3125 
Q 13.671875 62.703125 7.8125 59.421875 
L 7.8125 69.390625 
Q 13.765625 71.78125 18.9375 73 
Q 24.125 74.21875 28.421875 74.21875 
Q 39.75 74.21875 46.484375 68.546875 
Q 53.21875 62.890625 53.21875 53.421875 
Q 53.21875 48.921875 51.53125 44.890625 
Q 49.859375 40.875 45.40625 35.40625 
Q 44.1875 33.984375 37.640625 27.21875 
Q 31.109375 20.453125 19.1875 8.296875 
z
" id="DejaVuSans-50"/>
      </defs>
      <g transform="translate(118.923931 322.182437)scale(0.1 -0.1)">
       <use xlink:href="#DejaVuSans-8722"/>
       <use x="83.789062" xlink:href="#DejaVuSans-50"/>
       <use x="147.412109" xlink:href="#DejaVuSans-48"/>
       <use x="211.035156" xlink:href="#DejaVuSans-48"/>
      </g>
     </g>
    </g>
    <g id="xtick_3">
     <g id="line2d_3">
      <g>
       <use style="stroke:#000000;stroke-width:0.8;" x="181.412407" xlink:href="#m47bfb69f5f" y="307.584"/>
      </g>
     </g>
     <g id="text_3">
      <!-- −100 -->
      <defs>
       <path d="M 12.40625 8.296875 
L 28.515625 8.296875 
L 28.515625 63.921875 
L 10.984375 60.40625 
L 10.984375 69.390625 
L 28.421875 72.90625 
L 38.28125 72.90625 
L 38.28125 8.296875 
L 54.390625 8.296875 
L 54.390625 0 
L 12.40625 0 
z
" id="DejaVuSans-49"/>
      </defs>
      <g transform="translate(167.678813 322.182437)scale(0.1 -0.1)">
       <use xlink:href="#DejaVuSans-8722"/>
       <use x="83.789062" xlink:href="#DejaVuSans-49"/>
       <use x="147.412109" xlink:href="#DejaVuSans-48"/>
       <use x="211.035156" xlink:href="#DejaVuSans-48"/>
      </g>
     </g>
    </g>
    <g id="xtick_4">
     <g id="line2d_4">
      <g>
       <use style="stroke:#000000;stroke-width:0.8;" x="230.167289" xlink:href="#m47bfb69f5f" y="307.584"/>
      </g>
     </g>
     <g id="text_4">
      <!-- 0 -->
      <g transform="translate(226.986039 322.182437)scale(0.1 -0.1)">
       <use xlink:href="#DejaVuSans-48"/>
      </g>
     </g>
    </g>
    <g id="xtick_5">
     <g id="line2d_5">
      <g>
       <use style="stroke:#000000;stroke-width:0.8;" x="278.922172" xlink:href="#m47bfb69f5f" y="307.584"/>
      </g>
     </g>
     <g id="text_5">
      <!-- 100 -->
      <g transform="translate(269.378422 322.182437)scale(0.1 -0.1)">
       <use xlink:href="#DejaVuSans-49"/>
       <use x="63.623047" xlink:href="#DejaVuSans-48"/>
       <use x="127.246094" xlink:href="#DejaVuSans-48"/>
      </g>
     </g>
    </g>
    <g id="xtick_6">
     <g id="line2d_6">
      <g>
       <use style="stroke:#000000;stroke-width:0.8;" x="327.677054" xlink:href="#m47bfb69f5f" y="307.584"/>
      </g>
     </g>
     <g id="text_6">
      <!-- 200 -->
      <g transform="translate(318.133304 322.182437)scale(0.1 -0.1)">
       <use xlink:href="#DejaVuSans-50"/>
       <use x="63.623047" xlink:href="#DejaVuSans-48"/>
       <use x="127.246094" xlink:href="#DejaVuSans-48"/>
      </g>
     </g>
    </g>
    <g id="xtick_7">
     <g id="line2d_7">
      <g>
       <use style="stroke:#000000;stroke-width:0.8;" x="376.431936" xlink:href="#m47bfb69f5f" y="307.584"/>
      </g>
     </g>
     <g id="text_7">
      <!-- 300 -->
      <g transform="translate(366.888186 322.182437)scale(0.1 -0.1)">
       <use xlink:href="#DejaVuSans-51"/>
       <use x="63.623047" xlink:href="#DejaVuSans-48"/>
       <use x="127.246094" xlink:href="#DejaVuSans-48"/>
      </g>
     </g>
    </g>
   </g>
   <g id="matplotlib.axis_2">
    <g id="ytick_1">
     <g id="line2d_8">
      <defs>
       <path d="M 0 0 
L -3.5 0 
" id="m2269c15d2c" style="stroke:#000000;stroke-width:0.8;"/>
      </defs>
      <g>
       <use style="stroke:#000000;stroke-width:0.8;" x="57.6" xlink:href="#m2269c15d2c" y="286.904746"/>
      </g>
     </g>
     <g id="text_8">
      <!-- 0 -->
      <g transform="translate(44.2375 290.703965)scale(0.1 -0.1)">
       <use xlink:href="#DejaVuSans-48"/>
      </g>
     </g>
    </g>
    <g id="ytick_2">
     <g id="line2d_9">
      <g>
       <use style="stroke:#000000;stroke-width:0.8;" x="57.6" xlink:href="#m2269c15d2c" y="238.149864"/>
      </g>
     </g>
     <g id="text_9">
      <!-- 100 -->
      <g transform="translate(31.5125 241.949082)scale(0.1 -0.1)">
       <use xlink:href="#DejaVuSans-49"/>
       <use x="63.623047" xlink:href="#DejaVuSans-48"/>
       <use x="127.246094" xlink:href="#DejaVuSans-48"/>
      </g>
     </g>
    </g>
    <g id="ytick_3">
     <g id="line2d_10">
      <g>
       <use style="stroke:#000000;stroke-width:0.8;" x="57.6" xlink:href="#m2269c15d2c" y="189.394981"/>
      </g>
     </g>
     <g id="text_10">
      <!-- 200 -->
      <g transform="translate(31.5125 193.1942)scale(0.1 -0.1)">
       <use xlink:href="#DejaVuSans-50"/>
       <use x="63.623047" xlink:href="#DejaVuSans-48"/>
       <use x="127.246094" xlink:href="#DejaVuSans-48"/>
      </g>
     </g>
    </g>
    <g id="ytick_4">
     <g id="line2d_11">
      <g>
       <use style="stroke:#000000;stroke-width:0.8;" x="57.6" xlink:href="#m2269c15d2c" y="140.640099"/>
      </g>
     </g>
     <g id="text_11">
      <!-- 300 -->
      <g transform="translate(31.5125 144.439318)scale(0.1 -0.1)">
       <use xlink:href="#DejaVuSans-51"/>
       <use x="63.623047" xlink:href="#DejaVuSans-48"/>
       <use x="127.246094" xlink:href="#DejaVuSans-48"/>
      </g>
     </g>
    </g>
    <g id="ytick_5">
     <g id="line2d_12">
      <g>
       <use style="stroke:#000000;stroke-width:0.8;" x="57.6" xlink:href="#m2269c15d2c" y="91.885217"/>
      </g>
     </g>
     <g id="text_12">
      <!-- 400 -->
      <defs>
       <path d="M 37.796875 64.3125 
L 12.890625 25.390625 
L 37.796875 25.390625 
z
M 35.203125 72.90625 
L 47.609375 72.90625 
L 47.609375 25.390625 
L 58.015625 25.390625 
L 58.015625 17.1875 
L 47.609375 17.1875 
L 47.609375 0 
L 37.796875 0 
L 37.796875 17.1875 
L 4.890625 17.1875 
L 4.890625 26.703125 
z
" id="DejaVuSans-52"/>
      </defs>
      <g transform="translate(31.5125 95.684435)scale(0.1 -0.1)">
       <use xlink:href="#DejaVuSans-52"/>
       <use x="63.623047" xlink:href="#DejaVuSans-48"/>
       <use x="127.246094" xlink:href="#DejaVuSans-48"/>
      </g>
     </g>
    </g>
    <g id="ytick_6">
     <g id="line2d_13">
      <g>
       <use style="stroke:#000000;stroke-width:0.8;" x="57.6" xlink:href="#m2269c15d2c" y="43.130334"/>
      </g>
     </g>
     <g id="text_13">
      <!-- 500 -->
      <defs>
       <path d="M 10.796875 72.90625 
L 49.515625 72.90625 
L 49.515625 64.59375 
L 19.828125 64.59375 
L 19.828125 46.734375 
Q 21.96875 47.46875 24.109375 47.828125 
Q 26.265625 48.1875 28.421875 48.1875 
Q 40.625 48.1875 47.75 41.5 
Q 54.890625 34.8125 54.890625 23.390625 
Q 54.890625 11.625 47.5625 5.09375 
Q 40.234375 -1.421875 26.90625 -1.421875 
Q 22.3125 -1.421875 17.546875 -0.640625 
Q 12.796875 0.140625 7.71875 1.703125 
L 7.71875 11.625 
Q 12.109375 9.234375 16.796875 8.0625 
Q 21.484375 6.890625 26.703125 6.890625 
Q 35.15625 6.890625 40.078125 11.328125 
Q 45.015625 15.765625 45.015625 23.390625 
Q 45.015625 31 40.078125 35.4375 
Q 35.15625 39.890625 26.703125 39.890625 
Q 22.75 39.890625 18.8125 39.015625 
Q 14.890625 38.140625 10.796875 36.28125 
z
" id="DejaVuSans-53"/>
      </defs>
      <g transform="translate(31.5125 46.929553)scale(0.1 -0.1)">
       <use xlink:href="#DejaVuSans-53"/>
       <use x="63.623047" xlink:href="#DejaVuSans-48"/>
       <use x="127.246094" xlink:href="#DejaVuSans-48"/>
      </g>
     </g>
    </g>
   </g>
   <g id="line2d_14">
    <path clip-path="url(#p38a48314e0)" d="M 230.167289 286.904746 
L 228.583335 259.898546 
L 227.902945 251.079338 
L 227.61408 246.878441 
L 227.761407 245.797853 
L 228.05311 245.046857 
L 228.513004 244.441394 
L 229.266476 243.908791 
L 230.314574 243.546796 
L 231.673699 243.308618 
L 233.338611 243.201713 
L 243.774738 242.781953 
L 246.516103 242.739395 
L 249.514996 242.939398 
L 254.747892 243.440534 
L 255.746085 243.293046 
L 256.656568 242.945297 
L 257.2221 242.566271 
L 257.822248 241.876673 
L 258.22081 241.045314 
L 258.631984 239.427066 
L 259.40293 236.139012 
L 260.687963 230.956026 
L 263.096074 220.861425 
L 263.899764 217.351121 
L 264.480883 214.243875 
L 264.898649 211.09938 
L 265.161301 206.671851 
L 265.244526 202.217848 
L 264.973332 196.410312 
L 264.310485 182.763381 
L 263.961736 170.419521 
L 263.636419 169.547296 
L 262.988233 168.677655 
L 262.336965 168.142131 
L 261.239005 167.663992 
L 260.365898 167.511633 
L 258.876889 167.49023 
L 236.662707 168.656495 
L 230.250336 169.210692 
L 227.523079 169.21703 
L 225.880113 169.005385 
L 225.078679 168.681263 
L 224.400655 168.154905 
L 223.943022 167.567116 
L 223.600212 166.752617 
L 223.344721 165.510391 
L 223.212557 163.357424 
L 222.447022 143.060033 
L 220.992737 115.365015 
L 220.680399 108.975784 
L 220.515012 107.392664 
L 220.214906 106.38139 
L 219.691167 105.47845 
L 218.702988 104.599204 
L 218.062076 104.274253 
L 217.338037 104.074992 
L 216.531051 104.021264 
L 214.779517 104.176841 
L 210.336685 104.614659 
L 206.118237 104.849658 
L 198.12461 105.277043 
L 190.813397 105.673811 
L 181.404216 105.891647 
L 171.214056 106.834664 
L 154.61258 107.368921 
L 146.196853 107.858566 
L 142.921256 108.120282 
L 141.653581 108.40974 
L 140.54075 108.987095 
L 139.986407 109.484785 
L 139.531671 110.097439 
L 138.995854 111.63195 
L 138.895224 113.447777 
L 138.980838 115.778115 
L 139.465656 120.466092 
L 140.019756 126.286987 
L 140.468593 133.200089 
L 141.74875 157.799123 
L 142.6709 172.906264 
L 142.898244 178.355744 
L 143.168687 179.146938 
L 143.733805 180.038567 
L 144.38127 180.663654 
L 145.273874 181.189622 
L 146.36535 181.531735 
L 147.648822 181.717003 
L 150.817158 181.81739 
L 157.349045 181.800374 
L 162.614621 181.51389 
L 170.209364 180.914449 
L 177.106035 180.548007 
L 178.121696 180.158163 
L 179.216731 179.422744 
L 180.081009 178.425024 
L 180.572019 177.525204 
L 180.921494 176.274983 
L 181.534265 173.338476 
L 181.901765 172.545331 
L 182.481372 171.804355 
L 183.55105 171.25201 
L 184.247464 171.026665 
L 186.516049 170.727603 
L 191.582671 170.426444 
L 201.249915 169.916127 
L 211.182211 169.217957 
L 216.90287 168.696718 
L 218.64319 168.738257 
L 220.141257 169.067694 
L 220.856189 169.405127 
L 221.480364 169.89287 
L 221.971238 170.477393 
L 222.376113 171.267076 
L 222.643572 172.250657 
L 222.836588 173.769664 
L 222.934712 176.33656 
L 223.169267 184.908888 
L 223.617203 192.12388 
L 224.040297 199.757725 
L 225.368733 225.573097 
L 225.918503 236.362163 
L 226.121847 238.379251 
L 226.45289 239.493709 
L 226.969462 240.457364 
L 227.652354 241.26005 
L 228.485204 241.880212 
L 229.454579 242.28086 
L 230.46484 242.493056 
L 232.612931 242.665337 
L 238.818814 242.851843 
L 246.317042 242.516005 
L 250.911497 242.883978 
L 255.704746 243.340202 
L 257.78908 243.844561 
L 260.633825 244.826002 
L 265.622308 246.788284 
L 269.028441 248.505845 
L 273.251579 250.795429 
L 275.189498 252.084439 
L 277.324274 253.788871 
L 281.559128 257.261263 
L 285.161529 260.226593 
L 287.473973 262.053029 
L 292.991271 266.10066 
L 307.982861 277.412126 
L 309.155464 278.293404 
L 310.175026 278.767536 
L 311.247634 279.04344 
L 312.697263 279.146473 
L 316.544949 279.166297 
L 322.710833 279.6114 
L 344.581152 281.504655 
L 353.785976 282.268952 
L 357.44152 282.630654 
L 362.999332 283.576525 
L 363.724951 283.37605 
L 364.466562 282.87542 
L 365.848324 279.599738 
L 366.103995 277.668888 
L 366.290385 274.532564 
L 367.603792 256.192122 
L 367.877648 252.700501 
L 368.743925 241.389494 
L 369.234351 237.523115 
L 371.660296 223.123066 
L 372.639587 218.873298 
L 372.593757 217.830333 
L 369.80098 214.271568 
L 368.594687 213.663107 
L 364.821936 211.835432 
L 359.632515 209.02208 
L 357.189896 207.551828 
L 354.497602 205.653995 
L 351.33107 203.483623 
L 348.001892 201.480772 
L 342.91354 198.77902 
L 329.499219 191.539065 
L 328.903581 190.96093 
L 326.337709 188.836436 
L 324.730016 187.761244 
L 312.814274 181.039115 
L 308.197041 178.616339 
L 307.124677 178.249166 
L 305.776215 178.016897 
L 304.073645 178.039373 
L 292.920186 178.764944 
L 277.060491 179.695138 
L 269.645405 180.094733 
L 268.249928 179.889231 
L 267.201771 179.549556 
L 266.491354 179.140454 
L 265.518114 178.148877 
L 264.920535 177.136384 
L 264.588963 176.266889 
L 264.312552 175.003309 
L 264.120185 172.557471 
L 263.8543 164.458797 
L 262.987833 149.309142 
L 261.991897 135.748848 
L 261.488333 131.882146 
L 260.919719 127.52424 
L 260.685379 124.584076 
L 260.1892 110.341018 
L 260.124932 105.041362 
L 259.343932 98.064782 
L 259.296976 93.244971 
L 259.089119 86.988988 
L 258.325145 74.054511 
L 257.853954 70.804608 
L 257.542502 68.838713 
L 257.533205 68.598547 
L 259.270975 65.852184 
L 260.909734 65.490715 
L 263.094474 65.401347 
L 270.635031 64.953339 
L 277.592982 64.581339 
L 292.749446 63.675229 
L 295.729101 63.212009 
L 299.031415 62.472934 
L 301.805324 61.639762 
L 305.227235 60.318358 
L 307.769899 59.164866 
L 310.498369 57.690372 
L 312.948399 56.142063 
L 316.136091 54.039947 
L 317.155165 53.658197 
L 318.559062 53.614902 
L 319.906745 54.097673 
L 320.521788 54.51365 
L 321.376656 55.315668 
L 323.026911 57.237634 
L 335.625124 73.033925 
L 345.325103 84.650167 
L 346.584295 86.274777 
L 349.112626 90.367409 
L 349.129885 91.476046 
L 348.942374 92.234282 
L 348.588072 92.943812 
L 347.906284 93.812527 
L 347.035619 94.613813 
L 345.728452 95.487842 
L 344.138945 96.205465 
L 342.268561 96.769023 
L 340.156402 97.226929 
L 335.799471 97.807015 
L 328.853314 98.516349 
L 321.234633 99.051824 
L 309.941734 99.529232 
L 302.550153 99.795824 
L 301.539854 100.092936 
L 300.5415 100.80232 
L 300.118844 101.368608 
L 299.831142 102.0189 
L 299.575617 103.253618 
L 299.462506 105.88804 
L 299.515308 109.937962 
L 299.918218 118.075689 
L 300.516489 127.933537 
L 303.220971 174.466274 
L 303.006596 175.474427 
L 302.572531 176.378441 
L 302.030621 177.036875 
L 301.318995 177.587854 
L 300.407473 178.029915 
L 299.066031 178.391627 
L 297.168686 178.587817 
L 293.240652 178.717066 
L 284.59295 178.905943 
L 278.911446 179.270288 
L 268.685465 179.757496 
L 267.608406 179.527226 
L 266.432453 178.947482 
L 265.555387 178.149608 
L 264.989879 177.308196 
L 264.483701 176.115944 
L 264.157521 174.653883 
L 263.992861 172.0375 
L 263.797778 170.454771 
L 263.426325 169.264371 
L 262.894185 168.512717 
L 262.20012 167.890263 
L 261.379224 167.461854 
L 260.190912 167.223833 
L 258.339289 167.230025 
L 252.940534 167.462342 
L 247.746867 167.69383 
L 235.367675 168.518958 
L 227.915643 169.096606 
L 226.376763 169.018939 
L 225.517602 168.794472 
L 224.8527 168.436854 
L 224.14885 167.806356 
L 223.572265 166.856806 
L 223.267333 165.828419 
L 223.118933 164.606427 
L 222.874788 156.860933 
L 222.481331 146.45742 
L 221.775745 129.824641 
L 221.119197 115.228208 
L 220.890118 108.401988 
L 220.724829 106.143076 
L 220.436142 105.176755 
L 219.90622 104.389412 
L 219.378916 103.901424 
L 218.730837 103.538395 
L 218.255219 103.328359 
L 216.380988 103.332016 
L 209.122283 104.394482 
L 203.19213 104.811483 
L 190.561578 105.478108 
L 185.405066 105.543976 
L 182.446396 105.64602 
L 177.639949 106.177644 
L 173.644974 106.493917 
L 169.751019 106.657002 
L 157.782866 106.951042 
L 149.063104 107.564769 
L 140.714805 108.178642 
L 132.598434 108.372832 
L 124.364563 108.226909 
L 119.933963 107.918291 
L 115.872096 107.485445 
L 113.729514 106.971812 
L 111.188507 106.381683 
L 109.612213 106.326492 
L 106.922553 106.326931 
L 105.065918 106.104121 
L 103.822717 105.985354 
L 102.817294 106.146245 
L 102.066908 106.437848 
L 101.49121 106.796831 
L 100.931211 107.303345 
L 100.419968 107.960659 
L 99.987951 108.772622 
L 99.338048 110.774742 
L 98.99184 112.774521 
L 98.49103 118.664892 
L 98.037024 125.479557 
L 97.904752 131.259937 
L 98.026591 136.336978 
L 98.363389 141.335329 
L 98.94757 146.957694 
L 99.77026 152.707553 
L 100.623763 157.382561 
L 101.845122 162.72873 
L 103.139564 167.436745 
L 104.782262 172.676531 
L 106.639287 177.837821 
L 109.549563 185.096692 
L 111.758793 189.998703 
L 113.86632 194.222095 
L 116.943046 199.850798 
L 121.048743 206.594428 
L 124.136098 211.083583 
L 128.031808 216.321954 
L 131.401404 220.439939 
L 134.987326 224.487033 
L 138.83628 228.463823 
L 142.940222 232.356949 
L 210.487771 292.852213 
L 212.409191 294.219788 
L 213.716022 294.902147 
L 215.066991 295.329815 
L 216.436247 295.488 
L 217.761546 295.357366 
L 219.004669 294.950151 
L 220.121517 294.330798 
L 224.524019 291.520283 
L 228.051347 289.481547 
L 228.788486 288.590179 
L 229.377801 287.478657 
L 229.771309 286.213819 
L 229.928263 284.614511 
L 229.889027 281.970815 
L 229.407524 272.599082 
L 228.600964 260.66468 
L 227.826648 246.859217 
L 227.721549 245.171894 
L 227.721549 245.171894 
" style="fill:none;stroke:#008000;stroke-linecap:square;stroke-width:1.5;"/>
   </g>
   <g id="line2d_15">
    <path clip-path="url(#p38a48314e0)" d="M 230.167289 286.904746 
L 230.029727 282.884529 
L 229.466427 273.848116 
L 228.762392 263.477271 
L 227.559649 248.202119 
L 227.774455 247.434344 
L 228.162898 246.858464 
L 228.696863 246.461873 
L 229.402206 246.205183 
L 230.97822 245.906177 
L 232.918352 245.771838 
L 241.046671 245.349407 
L 246.187372 245.080587 
L 249.281301 245.216764 
L 254.611879 245.620503 
L 255.713556 245.418638 
L 256.635779 244.966558 
L 257.219954 244.344247 
L 257.646957 243.554787 
L 258.009854 242.123749 
L 258.780157 238.602878 
L 259.893608 233.901085 
L 263.098854 219.538916 
L 263.687582 215.786975 
L 263.995713 211.859262 
L 264.14547 206.178296 
L 264.018971 203.222721 
L 263.203328 186.465122 
L 263.111526 180.159715 
L 262.859414 175.117458 
L 262.578311 174.1559 
L 262.046035 173.296323 
L 261.480855 172.72479 
L 260.664382 172.334694 
L 259.841707 172.200958 
L 257.942555 172.252417 
L 253.24403 172.460054 
L 247.034056 172.758609 
L 242.847328 173.007704 
L 236.648558 173.428396 
L 231.511694 173.781136 
L 229.893392 173.680494 
L 229.169744 173.411857 
L 228.649094 172.993381 
L 228.250677 172.36978 
L 227.900958 171.39478 
L 227.673778 170.065376 
L 227.567726 167.906124 
L 227.03951 153.629447 
L 226.598107 145.776373 
L 225.842437 131.563047 
L 225.436043 123.202747 
L 224.791282 113.861892 
L 224.465195 112.993378 
L 223.98555 112.199432 
L 223.065397 111.319076 
L 222.77916 111.136069 
L 220.585149 110.115062 
L 219.639842 109.924374 
L 217.949653 109.967183 
L 214.29161 110.31324 
L 209.15639 110.624605 
L 200.553553 111.113322 
L 193.602979 111.482386 
L 189.641464 111.441595 
L 186.517726 111.549776 
L 176.737296 112.359767 
L 166.749781 112.515037 
L 161.798192 112.779672 
L 155.268559 113.15532 
L 150.051724 113.483859 
L 148.667941 113.801759 
L 147.647829 114.280246 
L 146.862028 114.945979 
L 146.294477 115.766754 
L 145.888864 116.903174 
L 145.748524 118.04142 
L 145.71625 120.615462 
L 145.965475 124.280121 
L 146.621289 132.375925 
L 147.164395 145.381402 
L 147.386096 151.655155 
L 148.888424 184.033823 
L 149.279398 184.870308 
L 149.878695 185.688833 
L 150.4972 186.170116 
L 151.55265 186.623552 
L 152.789613 186.867677 
L 154.831418 186.995855 
L 161.426762 187.064641 
L 166.178832 186.937495 
L 176.485428 186.333456 
L 182.478498 186.206746 
L 183.537497 185.846516 
L 184.316941 185.417381 
L 185.079319 184.659171 
L 185.675482 183.713559 
L 186.087623 182.580295 
L 186.915849 179.478705 
L 187.480448 178.650692 
L 187.986952 178.282067 
L 188.912887 177.946586 
L 190.513422 177.74709 
L 194.283994 177.572703 
L 200.883607 177.456019 
L 206.264888 177.327765 
L 213.417481 177.017789 
L 221.213065 176.632929 
L 223.324561 176.778567 
L 224.319254 177.044515 
L 224.913068 177.383837 
L 225.571479 178.054883 
L 225.937878 178.912916 
L 226.133272 180.046858 
L 226.220926 182.360716 
L 226.241077 192.330275 
L 226.703216 207.333716 
L 227.155349 230.567957 
L 227.376283 239.869251 
L 227.538538 243.718996 
L 227.847855 244.882105 
L 228.327155 245.863118 
L 228.882779 246.499991 
L 229.771401 247.198166 
L 230.743038 247.619201 
L 231.815651 247.846975 
L 234.241948 248.044995 
L 240.168324 248.292258 
L 247.791574 248.168801 
L 253.665673 248.753958 
L 257.371871 249.222721 
L 259.395545 249.749755 
L 262.524404 250.925277 
L 267.037853 252.84195 
L 271.22625 255.136259 
L 274.4772 257.042802 
L 276.771923 258.695481 
L 279.053591 260.689935 
L 282.438967 263.602377 
L 285.894047 266.621389 
L 288.141764 268.519616 
L 293.598565 272.803544 
L 308.152414 284.542511 
L 309.30576 285.444242 
L 310.348561 285.948818 
L 311.473038 286.275503 
L 312.950744 286.445211 
L 317.582121 286.724805 
L 326.408482 287.733359 
L 337.327532 289.076958 
L 359.445865 291.895522 
L 362.518348 292.586777 
L 363.1592 292.441334 
L 363.895435 292.057259 
L 364.353642 291.57553 
L 364.787752 290.855483 
L 365.2844 289.455028 
L 365.63739 287.962383 
L 365.984352 285.042893 
L 366.598995 278.87911 
L 370.459267 247.68765 
L 373.162618 234.078831 
L 374.410886 229.184225 
L 374.34765 228.170309 
L 374.024938 227.079612 
L 373.42465 226.05014 
L 372.574557 225.162627 
L 371.483955 224.393182 
L 362.006414 218.818878 
L 359.766797 217.300754 
L 356.867564 215.016856 
L 353.510882 212.552313 
L 350.268837 210.462393 
L 334.177585 200.781578 
L 329.964682 197.288524 
L 326.590384 195.159159 
L 321.290545 191.876524 
L 315.83808 188.534628 
L 314.346192 187.792599 
L 313.074966 187.420204 
L 311.754701 187.286162 
L 308.73798 187.342083 
L 302.83929 187.384781 
L 296.751022 187.32205 
L 285.316356 187.367813 
L 277.766241 187.282855 
L 276.894333 186.975892 
L 276.232894 186.501684 
L 275.579354 185.652049 
L 275.169962 184.817869 
L 274.794107 183.564808 
L 274.636363 182.167414 
L 274.650997 179.635306 
L 274.776536 172.551675 
L 274.777987 150.832078 
L 274.701057 144.497004 
L 274.392546 139.893078 
L 274.115445 135.205178 
L 274.073006 131.318734 
L 274.136675 124.945141 
L 274.337121 119.234446 
L 274.541157 114.861013 
L 274.298208 112.044587 
L 274.097747 108.421803 
L 274.168577 105.196535 
L 274.385729 98.633177 
L 274.416435 84.988165 
L 274.225552 81.41774 
L 273.930019 77.952874 
L 274.125696 77.241824 
L 274.650746 76.509337 
L 275.133184 76.148431 
L 275.929281 75.837746 
L 276.761209 75.721267 
L 277.978964 75.689923 
L 282.829885 75.692912 
L 310.376626 75.271918 
L 313.780306 74.816413 
L 317.089607 74.131418 
L 319.854944 73.339557 
L 322.928108 72.256811 
L 325.100875 71.343272 
L 328.46926 69.595972 
L 330.910803 68.103104 
L 332.635378 67.191435 
L 333.332596 67.044581 
L 334.178986 67.089872 
L 334.974995 67.335333 
L 335.854036 67.844252 
L 336.683982 68.600268 
L 337.950935 70.128038 
L 340.124459 73.183242 
L 348.063643 84.329901 
L 357.225306 96.666294 
L 361.619714 102.539417 
L 362.422493 103.944714 
L 362.757861 104.963537 
L 362.802103 105.757299 
L 362.64305 106.455418 
L 362.13908 107.241128 
L 361.421256 108.002914 
L 360.327489 108.818519 
L 359.128148 109.439322 
L 357.427058 110.031497 
L 354.776577 110.585689 
L 352.600527 110.847061 
L 346.203407 111.262851 
L 339.225119 111.459484 
L 331.522542 111.506714 
L 325.411097 111.459657 
L 318.410426 111.424849 
L 317.377266 111.780703 
L 316.701974 112.203762 
L 316.155902 112.777283 
L 315.776261 113.398728 
L 315.436177 114.375622 
L 315.19661 115.8907 
L 314.999684 118.491503 
L 314.884319 122.027797 
L 314.82987 134.662856 
L 314.752883 142.604105 
L 314.682026 154.221865 
L 314.618006 169.634733 
L 314.634514 179.885874 
L 314.596334 182.606257 
L 314.33472 183.5455 
L 313.835628 184.402917 
L 313.110371 185.115347 
L 312.161551 185.634034 
L 311.35446 185.860591 
L 310.084389 186.010475 
L 306.969533 186.053741 
L 297.475595 185.890027 
L 292.06109 185.905174 
L 286.473503 185.938107 
L 283.485802 185.914509 
L 282.469658 185.697274 
L 281.720421 185.294622 
L 281.110064 184.658747 
L 280.705242 183.863371 
L 280.323661 182.629906 
L 280.153355 181.158618 
L 279.910978 176.632912 
L 279.452541 175.758536 
L 279.007864 175.236386 
L 278.274605 174.907689 
L 277.286609 174.741162 
L 273.072266 174.624101 
L 260.349577 174.456407 
L 246.479238 174.599547 
L 245.668305 174.35092 
L 245.040051 173.931014 
L 244.763152 173.610062 
L 244.285716 172.683303 
L 244.018402 171.544541 
L 243.958824 170.312594 
L 244.459574 143.784574 
L 244.788477 113.168107 
L 244.403694 112.17141 
L 243.862062 111.49015 
L 243.255201 110.967653 
L 242.731461 110.743131 
L 241.590359 110.711896 
L 237.440181 111.101079 
L 234.766909 111.165895 
L 222.977098 110.984651 
L 212.47475 110.656736 
L 208.882741 110.529638 
L 199.796604 110.690566 
L 195.898234 110.49074 
L 187.670136 110.049269 
L 173.393995 109.946256 
L 169.757791 109.896859 
L 161.338723 109.434776 
L 155.763688 108.949831 
L 150.961825 108.341756 
L 145.810244 107.449781 
L 143.720839 106.861621 
L 140.889581 105.953573 
L 139.557111 105.799392 
L 137.714984 105.650349 
L 134.56287 105.178767 
L 133.613508 105.361586 
L 132.764256 105.724551 
L 131.841706 106.383977 
L 131.566254 106.713881 
L 131.355728 107.044465 
L 129.549639 110.31033 
L 128.978527 111.96677 
L 128.611231 113.619998 
L 127.557867 120.259376 
L 126.767721 126.264213 
L 126.338835 131.507518 
L 126.192522 136.596797 
L 126.262666 142.316145 
L 126.601043 148.36657 
L 127.150836 153.689048 
L 128.110128 159.524097 
L 129.267898 164.835079 
L 130.725019 170.368998 
L 133.242851 178.678022 
L 134.568952 182.48666 
L 136.331125 187.02901 
L 138.200911 191.394112 
L 140.115598 195.487904 
L 143.18378 201.374231 
L 145.520396 205.374842 
L 148.729909 210.492602 
L 151.664831 214.689901 
L 154.270688 218.147406 
L 157.367802 221.902394 
L 160.573617 225.504281 
L 167.061261 232.28507 
L 172.559313 238.092101 
L 190.77699 257.38683 
L 221.822861 289.582333 
L 223.209294 290.638315 
L 223.959105 291.020627 
L 225.035778 291.300968 
L 226.431262 291.360444 
L 227.385252 291.173257 
L 228.60745 290.631727 
L 232.967197 288.32204 
L 236.081903 286.889748 
L 236.866952 286.174479 
L 237.589244 285.221201 
L 238.148362 284.100972 
L 238.49527 283.020281 
L 238.783349 281.098851 
L 239.129435 274.921949 
L 239.266867 270.026291 
L 239.750263 252.697275 
L 240.053687 243.850967 
L 240.053687 243.850967 
" style="fill:none;stroke:#0000ff;stroke-linecap:square;stroke-width:1.5;"/>
   </g>
   <g id="line2d_16">
    <path clip-path="url(#p38a48314e0)" d="M 230.167289 286.904746 
L 230.034032 282.884311 
L 229.4919 274.308869 
L 228.686747 262.55665 
L 227.838637 252.843795 
L 227.493501 248.761947 
L 227.64877 247.73039 
L 227.976143 247.052243 
L 228.456272 246.590281 
L 229.146355 246.252226 
L 231.171997 245.88682 
L 233.176763 245.765637 
L 246.559996 245.127988 
L 249.618378 245.300128 
L 254.332309 245.700184 
L 255.537264 245.536294 
L 255.910937 245.428096 
L 256.456285 245.37444 
L 256.483967 245.492123 
L 256.567711 245.408844 
L 256.810851 245.325647 
L 257.542789 244.036145 
L 257.825936 242.587399 
L 258.423982 239.033335 
L 259.301216 234.282006 
L 261.766779 219.775365 
L 262.162333 215.998307 
L 262.265485 212.453257 
L 262.202459 207.626146 
L 261.982309 204.669 
L 260.691501 193.353475 
L 260.281401 189.385461 
L 260.034706 184.509342 
L 259.124034 175.03276 
L 258.779806 174.265028 
L 258.088918 173.378438 
L 257.637185 172.982356 
L 256.738531 172.681914 
L 255.851635 172.654602 
L 253.695791 172.870035 
L 233.786087 175.076832 
L 228.245636 175.820639 
L 226.44249 175.847373 
L 225.745097 175.680399 
L 225.164988 175.361918 
L 224.714889 174.836102 
L 224.007964 173.468805 
L 223.752394 172.124984 
L 223.371659 167.386592 
L 222.365 155.535598 
L 219.63772 128.046643 
L 218.406314 116.759849 
L 218.035382 115.730712 
L 217.418805 114.774265 
L 216.362001 113.792431 
L 216.226842 113.711068 
L 214.311054 112.914112 
L 212.01024 112.432218 
L 208.663362 112.778174 
L 203.469613 113.164148 
L 195.433265 113.610074 
L 189.238483 114.070739 
L 184.760307 114.136809 
L 180.601291 114.194097 
L 175.788992 114.723795 
L 172.25733 115.030421 
L 169.241276 115.113891 
L 160.627201 115.300587 
L 154.737366 115.653785 
L 142.627357 116.550954 
L 141.565198 116.920418 
L 140.653062 117.501956 
L 139.742936 118.420396 
L 139.330919 119.420652 
L 139.149204 120.540069 
L 139.133545 123.038935 
L 139.475404 127.001171 
L 140.288668 134.992703 
L 141.058643 147.840381 
L 141.458834 154.915293 
L 143.014169 178.759347 
L 143.149425 183.159161 
L 143.268174 185.114423 
L 143.556555 186.222475 
L 144.174114 187.287928 
L 144.878148 188.021634 
L 145.619258 188.408234 
L 146.477096 188.659876 
L 148.09337 188.825727 
L 153.209448 188.785502 
L 159.107351 188.532783 
L 163.007016 188.168971 
L 170.794031 187.47115 
L 176.816411 187.211064 
L 177.885674 186.868562 
L 178.899118 186.349124 
L 180.058092 184.81584 
L 180.447086 183.85841 
L 180.950502 181.576199 
L 181.305406 180.377015 
L 181.848313 179.544521 
L 182.344531 179.165841 
L 183.26152 178.809711 
L 184.85679 178.572167 
L 188.958064 178.29081 
L 194.80953 178.04756 
L 200.193195 177.813968 
L 210.285377 177.127342 
L 215.768687 176.776553 
L 217.650036 176.872789 
L 218.651669 177.112777 
L 219.254121 177.434578 
L 219.929067 178.083288 
L 220.319118 178.924562 
L 220.539025 180.045095 
L 220.675358 182.335012 
L 220.908031 192.207424 
L 222.045534 216.934666 
L 222.714001 231.153508 
L 223.389204 243.400435 
L 223.761326 244.485746 
L 224.351455 245.489166 
L 225.299487 246.409899 
L 226.265646 246.85443 
L 227.331576 247.08099 
L 229.473714 247.203856 
L 235.561952 247.258596 
L 239.841438 246.915226 
L 242.320937 246.816346 
L 245.21746 246.930971 
L 254.008659 247.66511 
L 256.029352 248.201775 
L 260.102413 249.608181 
L 263.000273 250.742406 
L 266.43878 252.425656 
L 270.615478 254.610137 
L 272.605956 255.889651 
L 274.711501 257.517208 
L 278.28606 260.376563 
L 281.631603 262.989669 
L 284.761222 265.432513 
L 290.779283 269.734996 
L 307.175631 281.583058 
L 308.532389 282.014938 
L 310.014358 282.176108 
L 317.44207 282.493799 
L 343.884817 284.677948 
L 349.032497 285.123983 
L 356.160216 285.724007 
L 358.788793 286.307506 
L 359.889643 286.468397 
L 360.603238 286.33527 
L 361.378628 285.974139 
L 361.906583 285.406842 
L 362.315048 284.679446 
L 362.758943 283.274242 
L 363.055875 281.783216 
L 363.289856 278.879067 
L 363.635873 273.243369 
L 365.983643 244.559691 
L 366.500615 240.816922 
L 368.894016 226.611002 
L 369.479616 224.452122 
L 369.591695 223.280672 
L 369.491698 222.280067 
L 369.13755 221.209351 
L 368.501614 220.208819 
L 367.619763 219.355501 
L 366.495813 218.636701 
L 356.80719 213.453844 
L 354.130685 211.779498 
L 345.965567 206.279659 
L 342.598428 204.453474 
L 335.552311 200.624358 
L 328.150418 196.527097 
L 326.580987 195.210222 
L 324.513336 193.715321 
L 322.162726 192.312777 
L 314.25486 187.868473 
L 308.946772 184.976656 
L 307.397704 184.384156 
L 306.087989 184.163473 
L 304.44341 184.172185 
L 295.512985 184.59008 
L 288.843825 184.814295 
L 280.030657 185.168901 
L 275.005443 185.423838 
L 272.10821 185.516722 
L 270.800052 185.276662 
L 270.003035 184.887191 
L 269.215449 184.233738 
L 268.738657 183.418102 
L 268.311478 182.226334 
L 268.101074 180.974544 
L 268.043292 179.112027 
L 268.164407 172.778325 
L 267.710439 140.553571 
L 267.185478 132.150341 
L 267.218692 120.863259 
L 267.452639 116.331793 
L 267.510788 113.927958 
L 267.25251 111.142185 
L 267.036233 107.556637 
L 267.093873 104.367367 
L 267.274746 97.872646 
L 267.231135 84.375088 
L 267.015926 80.844125 
L 266.703535 77.417179 
L 266.888513 76.712435 
L 267.573138 75.720538 
L 268.205979 75.402789 
L 268.999958 75.207914 
L 270.657042 75.160156 
L 275.125299 75.240186 
L 285.210256 75.241304 
L 301.34154 75.346015 
L 304.760791 75.062472 
L 308.133438 74.536589 
L 310.972215 73.897949 
L 314.868972 72.707362 
L 317.814999 71.556346 
L 320.633171 70.192724 
L 323.408774 68.600859 
L 325.072932 67.689251 
L 325.973935 67.443229 
L 327.102969 67.472448 
L 328.65674 68.076648 
L 329.28947 68.601934 
L 330.484536 70.086793 
L 332.759315 73.484628 
L 340.279854 84.849901 
L 347.540663 95.389784 
L 353.669822 104.292691 
L 354.103337 105.384858 
L 354.194725 106.272084 
L 354.007575 107.353623 
L 353.676761 107.931796 
L 352.076848 109.347324 
L 351.071679 109.920385 
L 349.813184 110.428241 
L 347.945715 110.90949 
L 345.577831 111.278432 
L 341.979609 111.507054 
L 334.71092 111.703641 
L 328.016483 111.661895 
L 317.55089 111.358107 
L 309.91719 111.075471 
L 308.893749 111.317711 
L 307.922188 111.817581 
L 307.369114 112.379063 
L 306.845795 113.256609 
L 306.492433 114.423936 
L 306.191571 116.597341 
L 305.898387 120.326014 
L 305.442957 133.586685 
L 305.136149 142.430537 
L 304.689456 156.727667 
L 304.54699 161.828385 
L 304.159885 172.488252 
L 303.906881 181.66117 
L 303.823045 182.039655 
L 303.825018 182.39698 
L 303.731524 182.745247 
L 303.198776 183.592625 
L 302.554792 184.124229 
L 301.774911 184.513593 
L 300.757347 184.751224 
L 299.480088 184.814003 
L 296.369064 184.640443 
L 286.388905 183.827309 
L 284.293186 183.665063 
L 283.344827 183.530199 
L 272.49162 182.85428 
L 271.696658 182.558216 
L 271.110416 182.140118 
L 270.644871 181.573278 
L 270.221185 180.531472 
L 269.952818 179.26971 
L 269.905116 178.046911 
L 269.956826 173.550724 
L 269.678255 172.873113 
L 268.619056 171.855538 
L 267.777833 171.60627 
L 267.897693 171.370537 
L 267.796559 171.377295 
L 266.953458 171.225377 
L 261.989115 170.846676 
L 257.268972 170.529925 
L 247.970815 170.067491 
L 237.039941 169.606401 
L 236.241265 169.32177 
L 235.639518 168.869828 
L 235.386195 168.531642 
L 234.661016 167.07247 
L 234.555512 165.92672 
L 234.693442 163.925514 
L 235.297167 155.159306 
L 237.867703 108.90631 
L 237.593 107.867786 
L 236.694889 106.354479 
L 235.482866 105.750053 
L 234.449071 105.647946 
L 229.654085 105.315431 
L 224.936345 104.59966 
L 209.735595 102.035529 
L 201.736535 100.580421 
L 197.25351 100.061258 
L 191.406007 99.027742 
L 180.734164 96.938653 
L 172.859456 95.730688 
L 165.377565 94.6413 
L 157.775062 93.15812 
L 149.705327 91.214469 
L 146.210213 90.189666 
L 141.806562 88.751496 
L 139.856583 87.868091 
L 137.227181 86.563013 
L 135.948079 86.217346 
L 133.849174 85.70071 
L 132.378574 85.14976 
L 131.489361 84.910281 
L 130.405912 84.886144 
L 128.804457 85.194849 
L 127.917065 85.717744 
L 127.66442 86.017142 
L 125.457969 89.026201 
L 124.694293 90.603199 
L 123.995824 92.620061 
L 120.989812 103.372918 
L 119.695708 109.099644 
L 118.904586 113.593059 
L 118.182348 118.793943 
L 117.486804 126.351277 
L 117.290784 131.210887 
L 117.33569 136.564319 
L 118.089789 146.267846 
L 118.6987 151.098485 
L 119.933312 158.883516 
L 121.047554 164.204322 
L 123.044362 172.018651 
L 124.735124 177.269838 
L 126.33365 181.587803 
L 128.525791 186.87967 
L 131.309028 192.853011 
L 133.661012 197.326122 
L 135.990261 201.330011 
L 138.517334 205.2913 
L 142.218973 210.649544 
L 158.08887 233.056439 
L 170.463715 250.485164 
L 184.222523 269.754806 
L 189.388626 276.95969 
L 191.422966 279.44841 
L 192.469323 280.363433 
L 193.487344 280.881904 
L 194.778407 281.183542 
L 196.069444 281.2368 
L 197.339731 280.848931 
L 201.925995 279.096547 
L 205.274841 277.999367 
L 206.040468 277.443725 
L 206.872367 276.587014 
L 207.56373 275.544177 
L 208.044673 274.516139 
L 208.566202 272.644352 
L 209.686619 266.561729 
L 210.439247 261.723896 
L 213.211412 244.036663 
L 214.551095 235.870866 
L 214.551095 235.870866 
" style="fill:none;stroke:#ff0000;stroke-linecap:square;stroke-width:1.5;"/>
   </g>
   <g id="patch_3">
    <path d="M 57.6 307.584 
L 57.6 41.472 
" style="fill:none;stroke:#000000;stroke-linecap:square;stroke-linejoin:miter;stroke-width:0.8;"/>
   </g>
   <g id="patch_4">
    <path d="M 414.72 307.584 
L 414.72 41.472 
" style="fill:none;stroke:#000000;stroke-linecap:square;stroke-linejoin:miter;stroke-width:0.8;"/>
   </g>
   <g id="patch_5">
    <path d="M 57.6 307.584 
L 414.72 307.584 
" style="fill:none;stroke:#000000;stroke-linecap:square;stroke-linejoin:miter;stroke-width:0.8;"/>
   </g>
   <g id="patch_6">
    <path d="M 57.6 41.472 
L 414.72 41.472 
" style="fill:none;stroke:#000000;stroke-linecap:square;stroke-linejoin:miter;stroke-width:0.8;"/>
   </g>
  </g>
 </g>
 <defs>
  <clipPath id="p38a48314e0">
   <rect height="266.112" width="357.12" x="57.6" y="41.472"/>
  </clipPath>
 </defs>
</svg>
