<?xml version="1.0" encoding="utf-8" standalone="no"?>
<!DOCTYPE svg PUBLIC "-//W3C//DTD SVG 1.1//EN"
  "http://www.w3.org/Graphics/SVG/1.1/DTD/svg11.dtd">
<!-- Created with matplotlib (https://matplotlib.org/) -->
<svg height="345.6pt" version="1.1" viewBox="0 0 460.8 345.6" width="460.8pt" xmlns="http://www.w3.org/2000/svg" xmlns:xlink="http://www.w3.org/1999/xlink">
 <defs>
  <style type="text/css">
*{stroke-linecap:butt;stroke-linejoin:round;}
  </style>
 </defs>
 <g id="figure_1">
  <g id="patch_1">
   <path d="M 0 345.6 
L 460.8 345.6 
L 460.8 0 
L 0 0 
z
" style="fill:#ffffff;"/>
  </g>
  <g id="axes_1">
   <g id="patch_2">
    <path d="M 57.6 307.584 
L 414.72 307.584 
L 414.72 41.472 
L 57.6 41.472 
z
" style="fill:#ffffff;"/>
   </g>
   <g id="matplotlib.axis_1">
    <g id="xtick_1">
     <g id="line2d_1">
      <defs>
       <path d="M 0 0 
L 0 3.5 
" id="mf3dfcfc2d6" style="stroke:#000000;stroke-width:0.8;"/>
      </defs>
      <g>
       <use style="stroke:#000000;stroke-width:0.8;" x="91.002202" xlink:href="#mf3dfcfc2d6" y="307.584"/>
      </g>
     </g>
     <g id="text_1">
      <!-- −75 -->
      <defs>
       <path d="M 10.59375 35.5 
L 73.1875 35.5 
L 73.1875 27.203125 
L 10.59375 27.203125 
z
" id="DejaVuSans-8722"/>
       <path d="M 8.203125 72.90625 
L 55.078125 72.90625 
L 55.078125 68.703125 
L 28.609375 0 
L 18.3125 0 
L 43.21875 64.59375 
L 8.203125 64.59375 
z
" id="DejaVuSans-55"/>
       <path d="M 10.796875 72.90625 
L 49.515625 72.90625 
L 49.515625 64.59375 
L 19.828125 64.59375 
L 19.828125 46.734375 
Q 21.96875 47.46875 24.109375 47.828125 
Q 26.265625 48.1875 28.421875 48.1875 
Q 40.625 48.1875 47.75 41.5 
Q 54.890625 34.8125 54.890625 23.390625 
Q 54.890625 11.625 47.5625 5.09375 
Q 40.234375 -1.421875 26.90625 -1.421875 
Q 22.3125 -1.421875 17.546875 -0.640625 
Q 12.796875 0.140625 7.71875 1.703125 
L 7.71875 11.625 
Q 12.109375 9.234375 16.796875 8.0625 
Q 21.484375 6.890625 26.703125 6.890625 
Q 35.15625 6.890625 40.078125 11.328125 
Q 45.015625 15.765625 45.015625 23.390625 
Q 45.015625 31 40.078125 35.4375 
Q 35.15625 39.890625 26.703125 39.890625 
Q 22.75 39.890625 18.8125 39.015625 
Q 14.890625 38.140625 10.796875 36.28125 
z
" id="DejaVuSans-53"/>
      </defs>
      <g transform="translate(80.449859 322.182437)scale(0.1 -0.1)">
       <use xlink:href="#DejaVuSans-8722"/>
       <use x="83.789062" xlink:href="#DejaVuSans-55"/>
       <use x="147.412109" xlink:href="#DejaVuSans-53"/>
      </g>
     </g>
    </g>
    <g id="xtick_2">
     <g id="line2d_2">
      <g>
       <use style="stroke:#000000;stroke-width:0.8;" x="139.924663" xlink:href="#mf3dfcfc2d6" y="307.584"/>
      </g>
     </g>
     <g id="text_2">
      <!-- −50 -->
      <defs>
       <path d="M 31.78125 66.40625 
Q 24.171875 66.40625 20.328125 58.90625 
Q 16.5 51.421875 16.5 36.375 
Q 16.5 21.390625 20.328125 13.890625 
Q 24.171875 6.390625 31.78125 6.390625 
Q 39.453125 6.390625 43.28125 13.890625 
Q 47.125 21.390625 47.125 36.375 
Q 47.125 51.421875 43.28125 58.90625 
Q 39.453125 66.40625 31.78125 66.40625 
z
M 31.78125 74.21875 
Q 44.046875 74.21875 50.515625 64.515625 
Q 56.984375 54.828125 56.984375 36.375 
Q 56.984375 17.96875 50.515625 8.265625 
Q 44.046875 -1.421875 31.78125 -1.421875 
Q 19.53125 -1.421875 13.0625 8.265625 
Q 6.59375 17.96875 6.59375 36.375 
Q 6.59375 54.828125 13.0625 64.515625 
Q 19.53125 74.21875 31.78125 74.21875 
z
" id="DejaVuSans-48"/>
      </defs>
      <g transform="translate(129.372319 322.182437)scale(0.1 -0.1)">
       <use xlink:href="#DejaVuSans-8722"/>
       <use x="83.789062" xlink:href="#DejaVuSans-53"/>
       <use x="147.412109" xlink:href="#DejaVuSans-48"/>
      </g>
     </g>
    </g>
    <g id="xtick_3">
     <g id="line2d_3">
      <g>
       <use style="stroke:#000000;stroke-width:0.8;" x="188.847123" xlink:href="#mf3dfcfc2d6" y="307.584"/>
      </g>
     </g>
     <g id="text_3">
      <!-- −25 -->
      <defs>
       <path d="M 19.1875 8.296875 
L 53.609375 8.296875 
L 53.609375 0 
L 7.328125 0 
L 7.328125 8.296875 
Q 12.9375 14.109375 22.625 23.890625 
Q 32.328125 33.6875 34.8125 36.53125 
Q 39.546875 41.84375 41.421875 45.53125 
Q 43.3125 49.21875 43.3125 52.78125 
Q 43.3125 58.59375 39.234375 62.25 
Q 35.15625 65.921875 28.609375 65.921875 
Q 23.96875 65.921875 18.8125 64.3125 
Q 13.671875 62.703125 7.8125 59.421875 
L 7.8125 69.390625 
Q 13.765625 71.78125 18.9375 73 
Q 24.125 74.21875 28.421875 74.21875 
Q 39.75 74.21875 46.484375 68.546875 
Q 53.21875 62.890625 53.21875 53.421875 
Q 53.21875 48.921875 51.53125 44.890625 
Q 49.859375 40.875 45.40625 35.40625 
Q 44.1875 33.984375 37.640625 27.21875 
Q 31.109375 20.453125 19.1875 8.296875 
z
" id="DejaVuSans-50"/>
      </defs>
      <g transform="translate(178.294779 322.182437)scale(0.1 -0.1)">
       <use xlink:href="#DejaVuSans-8722"/>
       <use x="83.789062" xlink:href="#DejaVuSans-50"/>
       <use x="147.412109" xlink:href="#DejaVuSans-53"/>
      </g>
     </g>
    </g>
    <g id="xtick_4">
     <g id="line2d_4">
      <g>
       <use style="stroke:#000000;stroke-width:0.8;" x="237.769583" xlink:href="#mf3dfcfc2d6" y="307.584"/>
      </g>
     </g>
     <g id="text_4">
      <!-- 0 -->
      <g transform="translate(234.588333 322.182437)scale(0.1 -0.1)">
       <use xlink:href="#DejaVuSans-48"/>
      </g>
     </g>
    </g>
    <g id="xtick_5">
     <g id="line2d_5">
      <g>
       <use style="stroke:#000000;stroke-width:0.8;" x="286.692043" xlink:href="#mf3dfcfc2d6" y="307.584"/>
      </g>
     </g>
     <g id="text_5">
      <!-- 25 -->
      <g transform="translate(280.329543 322.182437)scale(0.1 -0.1)">
       <use xlink:href="#DejaVuSans-50"/>
       <use x="63.623047" xlink:href="#DejaVuSans-53"/>
      </g>
     </g>
    </g>
    <g id="xtick_6">
     <g id="line2d_6">
      <g>
       <use style="stroke:#000000;stroke-width:0.8;" x="335.614503" xlink:href="#mf3dfcfc2d6" y="307.584"/>
      </g>
     </g>
     <g id="text_6">
      <!-- 50 -->
      <g transform="translate(329.252003 322.182437)scale(0.1 -0.1)">
       <use xlink:href="#DejaVuSans-53"/>
       <use x="63.623047" xlink:href="#DejaVuSans-48"/>
      </g>
     </g>
    </g>
    <g id="xtick_7">
     <g id="line2d_7">
      <g>
       <use style="stroke:#000000;stroke-width:0.8;" x="384.536963" xlink:href="#mf3dfcfc2d6" y="307.584"/>
      </g>
     </g>
     <g id="text_7">
      <!-- 75 -->
      <g transform="translate(378.174463 322.182437)scale(0.1 -0.1)">
       <use xlink:href="#DejaVuSans-55"/>
       <use x="63.623047" xlink:href="#DejaVuSans-53"/>
      </g>
     </g>
    </g>
   </g>
   <g id="matplotlib.axis_2">
    <g id="ytick_1">
     <g id="line2d_8">
      <defs>
       <path d="M 0 0 
L -3.5 0 
" id="m7d953df85b" style="stroke:#000000;stroke-width:0.8;"/>
      </defs>
      <g>
       <use style="stroke:#000000;stroke-width:0.8;" x="57.6" xlink:href="#m7d953df85b" y="295.488"/>
      </g>
     </g>
     <g id="text_8">
      <!-- 0 -->
      <g transform="translate(44.2375 299.287219)scale(0.1 -0.1)">
       <use xlink:href="#DejaVuSans-48"/>
      </g>
     </g>
    </g>
    <g id="ytick_2">
     <g id="line2d_9">
      <g>
       <use style="stroke:#000000;stroke-width:0.8;" x="57.6" xlink:href="#m7d953df85b" y="256.350032"/>
      </g>
     </g>
     <g id="text_9">
      <!-- 20 -->
      <g transform="translate(37.875 260.149251)scale(0.1 -0.1)">
       <use xlink:href="#DejaVuSans-50"/>
       <use x="63.623047" xlink:href="#DejaVuSans-48"/>
      </g>
     </g>
    </g>
    <g id="ytick_3">
     <g id="line2d_10">
      <g>
       <use style="stroke:#000000;stroke-width:0.8;" x="57.6" xlink:href="#m7d953df85b" y="217.212064"/>
      </g>
     </g>
     <g id="text_10">
      <!-- 40 -->
      <defs>
       <path d="M 37.796875 64.3125 
L 12.890625 25.390625 
L 37.796875 25.390625 
z
M 35.203125 72.90625 
L 47.609375 72.90625 
L 47.609375 25.390625 
L 58.015625 25.390625 
L 58.015625 17.1875 
L 47.609375 17.1875 
L 47.609375 0 
L 37.796875 0 
L 37.796875 17.1875 
L 4.890625 17.1875 
L 4.890625 26.703125 
z
" id="DejaVuSans-52"/>
      </defs>
      <g transform="translate(37.875 221.011282)scale(0.1 -0.1)">
       <use xlink:href="#DejaVuSans-52"/>
       <use x="63.623047" xlink:href="#DejaVuSans-48"/>
      </g>
     </g>
    </g>
    <g id="ytick_4">
     <g id="line2d_11">
      <g>
       <use style="stroke:#000000;stroke-width:0.8;" x="57.6" xlink:href="#m7d953df85b" y="178.074096"/>
      </g>
     </g>
     <g id="text_11">
      <!-- 60 -->
      <defs>
       <path d="M 33.015625 40.375 
Q 26.375 40.375 22.484375 35.828125 
Q 18.609375 31.296875 18.609375 23.390625 
Q 18.609375 15.53125 22.484375 10.953125 
Q 26.375 6.390625 33.015625 6.390625 
Q 39.65625 6.390625 43.53125 10.953125 
Q 47.40625 15.53125 47.40625 23.390625 
Q 47.40625 31.296875 43.53125 35.828125 
Q 39.65625 40.375 33.015625 40.375 
z
M 52.59375 71.296875 
L 52.59375 62.3125 
Q 48.875 64.0625 45.09375 64.984375 
Q 41.3125 65.921875 37.59375 65.921875 
Q 27.828125 65.921875 22.671875 59.328125 
Q 17.53125 52.734375 16.796875 39.40625 
Q 19.671875 43.65625 24.015625 45.921875 
Q 28.375 48.1875 33.59375 48.1875 
Q 44.578125 48.1875 50.953125 41.515625 
Q 57.328125 34.859375 57.328125 23.390625 
Q 57.328125 12.15625 50.6875 5.359375 
Q 44.046875 -1.421875 33.015625 -1.421875 
Q 20.359375 -1.421875 13.671875 8.265625 
Q 6.984375 17.96875 6.984375 36.375 
Q 6.984375 53.65625 15.1875 63.9375 
Q 23.390625 74.21875 37.203125 74.21875 
Q 40.921875 74.21875 44.703125 73.484375 
Q 48.484375 72.75 52.59375 71.296875 
z
" id="DejaVuSans-54"/>
      </defs>
      <g transform="translate(37.875 181.873314)scale(0.1 -0.1)">
       <use xlink:href="#DejaVuSans-54"/>
       <use x="63.623047" xlink:href="#DejaVuSans-48"/>
      </g>
     </g>
    </g>
    <g id="ytick_5">
     <g id="line2d_12">
      <g>
       <use style="stroke:#000000;stroke-width:0.8;" x="57.6" xlink:href="#m7d953df85b" y="138.936127"/>
      </g>
     </g>
     <g id="text_12">
      <!-- 80 -->
      <defs>
       <path d="M 31.78125 34.625 
Q 24.75 34.625 20.71875 30.859375 
Q 16.703125 27.09375 16.703125 20.515625 
Q 16.703125 13.921875 20.71875 10.15625 
Q 24.75 6.390625 31.78125 6.390625 
Q 38.8125 6.390625 42.859375 10.171875 
Q 46.921875 13.96875 46.921875 20.515625 
Q 46.921875 27.09375 42.890625 30.859375 
Q 38.875 34.625 31.78125 34.625 
z
M 21.921875 38.8125 
Q 15.578125 40.375 12.03125 44.71875 
Q 8.5 49.078125 8.5 55.328125 
Q 8.5 64.0625 14.71875 69.140625 
Q 20.953125 74.21875 31.78125 74.21875 
Q 42.671875 74.21875 48.875 69.140625 
Q 55.078125 64.0625 55.078125 55.328125 
Q 55.078125 49.078125 51.53125 44.71875 
Q 48 40.375 41.703125 38.8125 
Q 48.828125 37.15625 52.796875 32.3125 
Q 56.78125 27.484375 56.78125 20.515625 
Q 56.78125 9.90625 50.3125 4.234375 
Q 43.84375 -1.421875 31.78125 -1.421875 
Q 19.734375 -1.421875 13.25 4.234375 
Q 6.78125 9.90625 6.78125 20.515625 
Q 6.78125 27.484375 10.78125 32.3125 
Q 14.796875 37.15625 21.921875 38.8125 
z
M 18.3125 54.390625 
Q 18.3125 48.734375 21.84375 45.5625 
Q 25.390625 42.390625 31.78125 42.390625 
Q 38.140625 42.390625 41.71875 45.5625 
Q 45.3125 48.734375 45.3125 54.390625 
Q 45.3125 60.0625 41.71875 63.234375 
Q 38.140625 66.40625 31.78125 66.40625 
Q 25.390625 66.40625 21.84375 63.234375 
Q 18.3125 60.0625 18.3125 54.390625 
z
" id="DejaVuSans-56"/>
      </defs>
      <g transform="translate(37.875 142.735346)scale(0.1 -0.1)">
       <use xlink:href="#DejaVuSans-56"/>
       <use x="63.623047" xlink:href="#DejaVuSans-48"/>
      </g>
     </g>
    </g>
    <g id="ytick_6">
     <g id="line2d_13">
      <g>
       <use style="stroke:#000000;stroke-width:0.8;" x="57.6" xlink:href="#m7d953df85b" y="99.798159"/>
      </g>
     </g>
     <g id="text_13">
      <!-- 100 -->
      <defs>
       <path d="M 12.40625 8.296875 
L 28.515625 8.296875 
L 28.515625 63.921875 
L 10.984375 60.40625 
L 10.984375 69.390625 
L 28.421875 72.90625 
L 38.28125 72.90625 
L 38.28125 8.296875 
L 54.390625 8.296875 
L 54.390625 0 
L 12.40625 0 
z
" id="DejaVuSans-49"/>
      </defs>
      <g transform="translate(31.5125 103.597378)scale(0.1 -0.1)">
       <use xlink:href="#DejaVuSans-49"/>
       <use x="63.623047" xlink:href="#DejaVuSans-48"/>
       <use x="127.246094" xlink:href="#DejaVuSans-48"/>
      </g>
     </g>
    </g>
    <g id="ytick_7">
     <g id="line2d_14">
      <g>
       <use style="stroke:#000000;stroke-width:0.8;" x="57.6" xlink:href="#m7d953df85b" y="60.660191"/>
      </g>
     </g>
     <g id="text_14">
      <!-- 120 -->
      <g transform="translate(31.5125 64.45941)scale(0.1 -0.1)">
       <use xlink:href="#DejaVuSans-49"/>
       <use x="63.623047" xlink:href="#DejaVuSans-50"/>
       <use x="127.246094" xlink:href="#DejaVuSans-48"/>
      </g>
     </g>
    </g>
   </g>
   <g id="line2d_15">
    <path clip-path="url(#pf5a71b3bf8)" d="M 237.769583 295.488 
L 237.772106 292.923205 
L 237.770453 290.350557 
L 237.77357 287.774435 
L 237.775019 285.192724 
L 237.77772 282.608403 
L 237.784399 280.011331 
L 237.785872 277.40829 
L 237.784706 274.804308 
L 237.782852 272.192573 
L 237.776274 269.574595 
L 237.765939 266.955482 
L 237.758132 264.313317 
L 237.761231 261.668451 
L 237.770528 259.021805 
L 237.779379 256.376059 
L 237.777674 253.725303 
L 237.768085 251.055154 
L 237.755162 248.381346 
L 237.750563 245.687519 
L 237.759679 243.003398 
L 237.773423 240.313797 
L 237.779918 237.622279 
L 237.785119 234.922307 
L 237.782943 232.211083 
L 237.785835 229.505691 
L 237.789491 226.779673 
L 237.793299 224.045768 
L 237.799161 221.310024 
L 237.802789 218.57884 
L 237.807604 215.833683 
L 237.807084 213.081051 
L 237.811352 210.32656 
L 237.8209 207.568057 
L 237.829973 204.802843 
L 237.836275 202.032325 
L 237.835319 199.24846 
L 237.831725 196.464675 
L 237.826251 193.673883 
L 237.819229 190.877769 
L 237.810344 188.084335 
L 237.802476 185.282135 
L 237.795471 182.485923 
L 237.789299 179.691179 
L 237.78235 176.893734 
L 237.774992 174.105603 
L 237.767023 171.318921 
L 237.76396 168.540341 
L 237.757932 165.766379 
L 237.749974 162.999892 
L 237.731689 160.235147 
L 237.716702 157.467955 
L 237.700828 154.709159 
L 237.687106 151.969345 
L 237.678047 149.224619 
L 237.665326 146.480949 
L 237.662765 143.748552 
L 237.666115 141.020303 
L 237.672633 138.299255 
L 237.674023 135.587972 
L 237.674892 132.875202 
L 237.666472 130.162041 
L 237.65076 127.457705 
L 237.622462 124.74832 
L 237.604467 122.049875 
L 237.577548 119.354737 
L 237.552274 116.675938 
L 237.518444 114.002737 
L 237.484932 111.337226 
L 237.437488 108.680991 
L 237.395148 106.03319 
L 237.354659 103.388187 
L 237.310875 100.747001 
L 237.283154 98.11464 
L 237.24239 95.482416 
L 237.208422 92.859193 
L 237.172092 90.239689 
L 237.152386 87.624686 
L 237.115375 84.993636 
L 237.083077 82.369239 
L 237.038141 79.750518 
L 236.997949 77.143929 
L 236.959989 74.544385 
L 236.943834 71.954235 
L 236.928919 69.348624 
L 236.921311 66.740275 
L 236.921434 64.128989 
L 236.926916 61.518683 
L 236.921435 58.890177 
L 236.894275 56.221163 
L 236.877092 53.568 
" style="fill:none;stroke:#008000;stroke-linecap:square;stroke-width:1.5;"/>
   </g>
   <g id="line2d_16">
    <path clip-path="url(#pf5a71b3bf8)" d="M 237.769583 295.488 
L 237.746404 292.923335 
L 237.695744 290.351175 
L 237.663165 287.775303 
L 237.652934 285.19357 
L 237.635211 282.609655 
L 237.603902 280.013256 
L 237.5515 277.410802 
L 237.531145 274.807008 
L 237.482449 272.195979 
L 237.431902 269.57903 
L 237.419138 266.960159 
L 237.369991 264.318702 
L 237.32305 261.674463 
L 237.28452 259.028253 
L 237.257781 256.382734 
L 237.233549 253.732109 
L 237.198241 251.062083 
L 237.165311 248.388559 
L 237.139929 245.694871 
L 237.116413 243.01086 
L 237.098026 240.321126 
L 237.071206 237.629896 
L 237.016495 234.930356 
L 237.013467 232.219859 
L 236.944028 229.515166 
L 236.9091 226.78946 
L 236.864278 224.055834 
L 236.863197 221.320496 
L 236.834981 218.589755 
L 236.76652 215.84543 
L 236.713585 213.093259 
L 236.649011 210.339642 
L 236.626667 207.581403 
L 236.560519 204.816978 
L 236.511756 202.047098 
L 236.474532 199.263637 
L 236.438142 196.480393 
L 236.385501 193.690353 
L 236.326262 190.895105 
L 236.263334 188.102595 
L 236.185158 185.30146 
L 236.156871 182.505522 
L 236.11632 179.711227 
L 236.081855 176.913967 
L 235.999698 174.126844 
L 235.949059 171.340716 
L 235.891882 168.56301 
L 235.81842 165.790127 
L 235.800645 163.024162 
L 235.762559 160.259622 
L 235.755214 157.492714 
L 235.694418 154.734528 
L 235.668232 151.995157 
L 235.602282 149.251465 
L 235.566328 146.508184 
L 235.532468 143.776043 
L 235.482819 141.048281 
L 235.443845 138.327707 
L 235.447246 135.617145 
L 235.452495 132.904704 
L 235.43765 130.191917 
L 235.4004 127.48828 
L 235.344971 124.779393 
L 235.314768 122.08117 
L 235.267826 119.386165 
L 235.264394 116.707372 
L 235.234824 114.034163 
L 235.203982 111.369307 
L 235.156953 108.713357 
L 235.12263 106.065573 
L 235.086883 103.42052 
L 235.063674 100.779073 
L 235.012472 98.147119 
L 234.984456 95.515162 
L 234.955866 92.892011 
L 234.915527 90.272979 
L 234.86796 87.658461 
L 234.832984 85.027278 
L 234.803199 82.402775 
L 234.776389 79.784036 
L 234.750823 77.177146 
L 234.703685 74.577873 
L 234.664763 71.988065 
L 234.628034 69.382934 
L 234.579762 66.775371 
L 234.54762 64.164451 
L 234.586872 61.55476 
L 234.538315 58.92708 
L 234.506756 56.257744 
L 234.483725 53.604438 
" style="fill:none;stroke:#0000ff;stroke-linecap:square;stroke-width:1.5;"/>
   </g>
   <g id="line2d_17">
    <path clip-path="url(#pf5a71b3bf8)" d="M 237.769583 295.488 
L 237.746404 292.923335 
L 237.695744 290.351175 
L 237.663165 287.775303 
L 237.652934 285.19357 
L 237.635211 282.609655 
L 237.603902 280.013256 
L 237.5515 277.410802 
L 237.531145 274.807008 
L 237.482449 272.195979 
L 237.431902 269.57903 
L 237.419138 266.960159 
L 237.369991 264.318702 
L 237.32305 261.674463 
L 237.28452 259.028253 
L 237.257781 256.382734 
L 237.233549 253.732109 
L 237.198241 251.062083 
L 237.165311 248.388559 
L 237.139929 245.694871 
L 237.116413 243.01086 
L 237.098026 240.321126 
L 237.071206 237.629896 
L 237.016495 234.930356 
L 237.013467 232.219859 
L 236.944028 229.515166 
L 236.9091 226.78946 
L 236.864278 224.055834 
L 236.863197 221.320496 
L 236.83498 218.589755 
L 236.76652 215.84543 
L 236.713585 213.093259 
L 236.649011 210.339642 
L 236.626667 207.581403 
L 236.560519 204.816978 
L 236.511756 202.047098 
L 236.474532 199.263637 
L 236.438142 196.480393 
L 236.385501 193.690353 
L 236.326262 190.895105 
L 236.263334 188.102595 
L 236.185158 185.30146 
L 236.156871 182.505522 
L 236.11632 179.711227 
L 236.081855 176.913967 
L 235.999698 174.126844 
L 235.949059 171.340716 
L 235.891882 168.56301 
L 235.81842 165.790127 
L 235.800645 163.024162 
L 235.762559 160.259622 
L 235.755214 157.492714 
L 235.694418 154.734528 
L 235.668232 151.995157 
L 235.602282 149.251465 
L 235.566328 146.508184 
L 235.532468 143.776043 
L 235.482819 141.048281 
L 235.443845 138.327707 
L 235.447246 135.617145 
L 235.452495 132.904704 
L 235.43765 130.191917 
L 235.4004 127.48828 
L 235.344971 124.779393 
L 235.314768 122.08117 
L 235.267826 119.386165 
L 235.264394 116.707372 
L 235.234824 114.034163 
L 235.203982 111.369307 
L 235.156953 108.713357 
L 235.12263 106.065573 
L 235.086883 103.42052 
L 235.063674 100.779073 
L 235.012472 98.147119 
L 234.984456 95.515162 
L 234.955866 92.892011 
L 234.915527 90.272979 
L 234.86796 87.658461 
L 234.832984 85.027278 
L 234.803199 82.402775 
L 234.776389 79.784036 
L 234.750823 77.177146 
L 234.703685 74.577873 
L 234.664763 71.988065 
L 234.628034 69.382934 
L 234.579762 66.775371 
L 234.54762 64.164451 
L 234.586872 61.55476 
L 234.538315 58.92708 
L 234.506756 56.257744 
L 234.483725 53.604438 
" style="fill:none;stroke:#ff0000;stroke-linecap:square;stroke-width:1.5;"/>
   </g>
   <g id="patch_3">
    <path d="M 57.6 307.584 
L 57.6 41.472 
" style="fill:none;stroke:#000000;stroke-linecap:square;stroke-linejoin:miter;stroke-width:0.8;"/>
   </g>
   <g id="patch_4">
    <path d="M 414.72 307.584 
L 414.72 41.472 
" style="fill:none;stroke:#000000;stroke-linecap:square;stroke-linejoin:miter;stroke-width:0.8;"/>
   </g>
   <g id="patch_5">
    <path d="M 57.6 307.584 
L 414.72 307.584 
" style="fill:none;stroke:#000000;stroke-linecap:square;stroke-linejoin:miter;stroke-width:0.8;"/>
   </g>
   <g id="patch_6">
    <path d="M 57.6 41.472 
L 414.72 41.472 
" style="fill:none;stroke:#000000;stroke-linecap:square;stroke-linejoin:miter;stroke-width:0.8;"/>
   </g>
  </g>
 </g>
 <defs>
  <clipPath id="pf5a71b3bf8">
   <rect height="266.112" width="357.12" x="57.6" y="41.472"/>
  </clipPath>
 </defs>
</svg>
