<?xml version="1.0" encoding="utf-8" standalone="no"?>
<!DOCTYPE svg PUBLIC "-//W3C//DTD SVG 1.1//EN"
  "http://www.w3.org/Graphics/SVG/1.1/DTD/svg11.dtd">
<!-- Created with matplotlib (https://matplotlib.org/) -->
<svg height="345.6pt" version="1.1" viewBox="0 0 460.8 345.6" width="460.8pt" xmlns="http://www.w3.org/2000/svg" xmlns:xlink="http://www.w3.org/1999/xlink">
 <defs>
  <style type="text/css">
*{stroke-linecap:butt;stroke-linejoin:round;}
  </style>
 </defs>
 <g id="figure_1">
  <g id="patch_1">
   <path d="M 0 345.6 
L 460.8 345.6 
L 460.8 0 
L 0 0 
z
" style="fill:#ffffff;"/>
  </g>
  <g id="axes_1">
   <g id="patch_2">
    <path d="M 57.6 307.584 
L 414.72 307.584 
L 414.72 41.472 
L 57.6 41.472 
z
" style="fill:#ffffff;"/>
   </g>
   <g id="matplotlib.axis_1">
    <g id="xtick_1">
     <g id="line2d_1">
      <defs>
       <path d="M 0 0 
L 0 3.5 
" id="mb5d22c84ae" style="stroke:#000000;stroke-width:0.8;"/>
      </defs>
      <g>
       <use style="stroke:#000000;stroke-width:0.8;" x="69.705038" xlink:href="#mb5d22c84ae" y="307.584"/>
      </g>
     </g>
     <g id="text_1">
      <!-- −400 -->
      <defs>
       <path d="M 10.59375 35.5 
L 73.1875 35.5 
L 73.1875 27.203125 
L 10.59375 27.203125 
z
" id="DejaVuSans-8722"/>
       <path d="M 37.796875 64.3125 
L 12.890625 25.390625 
L 37.796875 25.390625 
z
M 35.203125 72.90625 
L 47.609375 72.90625 
L 47.609375 25.390625 
L 58.015625 25.390625 
L 58.015625 17.1875 
L 47.609375 17.1875 
L 47.609375 0 
L 37.796875 0 
L 37.796875 17.1875 
L 4.890625 17.1875 
L 4.890625 26.703125 
z
" id="DejaVuSans-52"/>
       <path d="M 31.78125 66.40625 
Q 24.171875 66.40625 20.328125 58.90625 
Q 16.5 51.421875 16.5 36.375 
Q 16.5 21.390625 20.328125 13.890625 
Q 24.171875 6.390625 31.78125 6.390625 
Q 39.453125 6.390625 43.28125 13.890625 
Q 47.125 21.390625 47.125 36.375 
Q 47.125 51.421875 43.28125 58.90625 
Q 39.453125 66.40625 31.78125 66.40625 
z
M 31.78125 74.21875 
Q 44.046875 74.21875 50.515625 64.515625 
Q 56.984375 54.828125 56.984375 36.375 
Q 56.984375 17.96875 50.515625 8.265625 
Q 44.046875 -1.421875 31.78125 -1.421875 
Q 19.53125 -1.421875 13.0625 8.265625 
Q 6.59375 17.96875 6.59375 36.375 
Q 6.59375 54.828125 13.0625 64.515625 
Q 19.53125 74.21875 31.78125 74.21875 
z
" id="DejaVuSans-48"/>
      </defs>
      <g transform="translate(55.971445 322.182437)scale(0.1 -0.1)">
       <use xlink:href="#DejaVuSans-8722"/>
       <use x="83.789062" xlink:href="#DejaVuSans-52"/>
       <use x="147.412109" xlink:href="#DejaVuSans-48"/>
       <use x="211.035156" xlink:href="#DejaVuSans-48"/>
      </g>
     </g>
    </g>
    <g id="xtick_2">
     <g id="line2d_2">
      <g>
       <use style="stroke:#000000;stroke-width:0.8;" x="109.804993" xlink:href="#mb5d22c84ae" y="307.584"/>
      </g>
     </g>
     <g id="text_2">
      <!-- −300 -->
      <defs>
       <path d="M 40.578125 39.3125 
Q 47.65625 37.796875 51.625 33 
Q 55.609375 28.21875 55.609375 21.1875 
Q 55.609375 10.40625 48.1875 4.484375 
Q 40.765625 -1.421875 27.09375 -1.421875 
Q 22.515625 -1.421875 17.65625 -0.515625 
Q 12.796875 0.390625 7.625 2.203125 
L 7.625 11.71875 
Q 11.71875 9.328125 16.59375 8.109375 
Q 21.484375 6.890625 26.8125 6.890625 
Q 36.078125 6.890625 40.9375 10.546875 
Q 45.796875 14.203125 45.796875 21.1875 
Q 45.796875 27.640625 41.28125 31.265625 
Q 36.765625 34.90625 28.71875 34.90625 
L 20.21875 34.90625 
L 20.21875 43.015625 
L 29.109375 43.015625 
Q 36.375 43.015625 40.234375 45.921875 
Q 44.09375 48.828125 44.09375 54.296875 
Q 44.09375 59.90625 40.109375 62.90625 
Q 36.140625 65.921875 28.71875 65.921875 
Q 24.65625 65.921875 20.015625 65.03125 
Q 15.375 64.15625 9.8125 62.3125 
L 9.8125 71.09375 
Q 15.4375 72.65625 20.34375 73.4375 
Q 25.25 74.21875 29.59375 74.21875 
Q 40.828125 74.21875 47.359375 69.109375 
Q 53.90625 64.015625 53.90625 55.328125 
Q 53.90625 49.265625 50.4375 45.09375 
Q 46.96875 40.921875 40.578125 39.3125 
z
" id="DejaVuSans-51"/>
      </defs>
      <g transform="translate(96.0714 322.182437)scale(0.1 -0.1)">
       <use xlink:href="#DejaVuSans-8722"/>
       <use x="83.789062" xlink:href="#DejaVuSans-51"/>
       <use x="147.412109" xlink:href="#DejaVuSans-48"/>
       <use x="211.035156" xlink:href="#DejaVuSans-48"/>
      </g>
     </g>
    </g>
    <g id="xtick_3">
     <g id="line2d_3">
      <g>
       <use style="stroke:#000000;stroke-width:0.8;" x="149.904948" xlink:href="#mb5d22c84ae" y="307.584"/>
      </g>
     </g>
     <g id="text_3">
      <!-- −200 -->
      <defs>
       <path d="M 19.1875 8.296875 
L 53.609375 8.296875 
L 53.609375 0 
L 7.328125 0 
L 7.328125 8.296875 
Q 12.9375 14.109375 22.625 23.890625 
Q 32.328125 33.6875 34.8125 36.53125 
Q 39.546875 41.84375 41.421875 45.53125 
Q 43.3125 49.21875 43.3125 52.78125 
Q 43.3125 58.59375 39.234375 62.25 
Q 35.15625 65.921875 28.609375 65.921875 
Q 23.96875 65.921875 18.8125 64.3125 
Q 13.671875 62.703125 7.8125 59.421875 
L 7.8125 69.390625 
Q 13.765625 71.78125 18.9375 73 
Q 24.125 74.21875 28.421875 74.21875 
Q 39.75 74.21875 46.484375 68.546875 
Q 53.21875 62.890625 53.21875 53.421875 
Q 53.21875 48.921875 51.53125 44.890625 
Q 49.859375 40.875 45.40625 35.40625 
Q 44.1875 33.984375 37.640625 27.21875 
Q 31.109375 20.453125 19.1875 8.296875 
z
" id="DejaVuSans-50"/>
      </defs>
      <g transform="translate(136.171355 322.182437)scale(0.1 -0.1)">
       <use xlink:href="#DejaVuSans-8722"/>
       <use x="83.789062" xlink:href="#DejaVuSans-50"/>
       <use x="147.412109" xlink:href="#DejaVuSans-48"/>
       <use x="211.035156" xlink:href="#DejaVuSans-48"/>
      </g>
     </g>
    </g>
    <g id="xtick_4">
     <g id="line2d_4">
      <g>
       <use style="stroke:#000000;stroke-width:0.8;" x="190.004903" xlink:href="#mb5d22c84ae" y="307.584"/>
      </g>
     </g>
     <g id="text_4">
      <!-- −100 -->
      <defs>
       <path d="M 12.40625 8.296875 
L 28.515625 8.296875 
L 28.515625 63.921875 
L 10.984375 60.40625 
L 10.984375 69.390625 
L 28.421875 72.90625 
L 38.28125 72.90625 
L 38.28125 8.296875 
L 54.390625 8.296875 
L 54.390625 0 
L 12.40625 0 
z
" id="DejaVuSans-49"/>
      </defs>
      <g transform="translate(176.271309 322.182437)scale(0.1 -0.1)">
       <use xlink:href="#DejaVuSans-8722"/>
       <use x="83.789062" xlink:href="#DejaVuSans-49"/>
       <use x="147.412109" xlink:href="#DejaVuSans-48"/>
       <use x="211.035156" xlink:href="#DejaVuSans-48"/>
      </g>
     </g>
    </g>
    <g id="xtick_5">
     <g id="line2d_5">
      <g>
       <use style="stroke:#000000;stroke-width:0.8;" x="230.104858" xlink:href="#mb5d22c84ae" y="307.584"/>
      </g>
     </g>
     <g id="text_5">
      <!-- 0 -->
      <g transform="translate(226.923608 322.182437)scale(0.1 -0.1)">
       <use xlink:href="#DejaVuSans-48"/>
      </g>
     </g>
    </g>
    <g id="xtick_6">
     <g id="line2d_6">
      <g>
       <use style="stroke:#000000;stroke-width:0.8;" x="270.204813" xlink:href="#mb5d22c84ae" y="307.584"/>
      </g>
     </g>
     <g id="text_6">
      <!-- 100 -->
      <g transform="translate(260.661063 322.182437)scale(0.1 -0.1)">
       <use xlink:href="#DejaVuSans-49"/>
       <use x="63.623047" xlink:href="#DejaVuSans-48"/>
       <use x="127.246094" xlink:href="#DejaVuSans-48"/>
      </g>
     </g>
    </g>
    <g id="xtick_7">
     <g id="line2d_7">
      <g>
       <use style="stroke:#000000;stroke-width:0.8;" x="310.304768" xlink:href="#mb5d22c84ae" y="307.584"/>
      </g>
     </g>
     <g id="text_7">
      <!-- 200 -->
      <g transform="translate(300.761018 322.182437)scale(0.1 -0.1)">
       <use xlink:href="#DejaVuSans-50"/>
       <use x="63.623047" xlink:href="#DejaVuSans-48"/>
       <use x="127.246094" xlink:href="#DejaVuSans-48"/>
      </g>
     </g>
    </g>
    <g id="xtick_8">
     <g id="line2d_8">
      <g>
       <use style="stroke:#000000;stroke-width:0.8;" x="350.404723" xlink:href="#mb5d22c84ae" y="307.584"/>
      </g>
     </g>
     <g id="text_8">
      <!-- 300 -->
      <g transform="translate(340.860973 322.182437)scale(0.1 -0.1)">
       <use xlink:href="#DejaVuSans-51"/>
       <use x="63.623047" xlink:href="#DejaVuSans-48"/>
       <use x="127.246094" xlink:href="#DejaVuSans-48"/>
      </g>
     </g>
    </g>
    <g id="xtick_9">
     <g id="line2d_9">
      <g>
       <use style="stroke:#000000;stroke-width:0.8;" x="390.504678" xlink:href="#mb5d22c84ae" y="307.584"/>
      </g>
     </g>
     <g id="text_9">
      <!-- 400 -->
      <g transform="translate(380.960928 322.182437)scale(0.1 -0.1)">
       <use xlink:href="#DejaVuSans-52"/>
       <use x="63.623047" xlink:href="#DejaVuSans-48"/>
       <use x="127.246094" xlink:href="#DejaVuSans-48"/>
      </g>
     </g>
    </g>
   </g>
   <g id="matplotlib.axis_2">
    <g id="ytick_1">
     <g id="line2d_10">
      <defs>
       <path d="M 0 0 
L -3.5 0 
" id="m616e80556c" style="stroke:#000000;stroke-width:0.8;"/>
      </defs>
      <g>
       <use style="stroke:#000000;stroke-width:0.8;" x="57.6" xlink:href="#m616e80556c" y="294.257919"/>
      </g>
     </g>
     <g id="text_10">
      <!-- −100 -->
      <g transform="translate(23.132812 298.057137)scale(0.1 -0.1)">
       <use xlink:href="#DejaVuSans-8722"/>
       <use x="83.789062" xlink:href="#DejaVuSans-49"/>
       <use x="147.412109" xlink:href="#DejaVuSans-48"/>
       <use x="211.035156" xlink:href="#DejaVuSans-48"/>
      </g>
     </g>
    </g>
    <g id="ytick_2">
     <g id="line2d_11">
      <g>
       <use style="stroke:#000000;stroke-width:0.8;" x="57.6" xlink:href="#m616e80556c" y="254.157964"/>
      </g>
     </g>
     <g id="text_11">
      <!-- 0 -->
      <g transform="translate(44.2375 257.957182)scale(0.1 -0.1)">
       <use xlink:href="#DejaVuSans-48"/>
      </g>
     </g>
    </g>
    <g id="ytick_3">
     <g id="line2d_12">
      <g>
       <use style="stroke:#000000;stroke-width:0.8;" x="57.6" xlink:href="#m616e80556c" y="214.058009"/>
      </g>
     </g>
     <g id="text_12">
      <!-- 100 -->
      <g transform="translate(31.5125 217.857227)scale(0.1 -0.1)">
       <use xlink:href="#DejaVuSans-49"/>
       <use x="63.623047" xlink:href="#DejaVuSans-48"/>
       <use x="127.246094" xlink:href="#DejaVuSans-48"/>
      </g>
     </g>
    </g>
    <g id="ytick_4">
     <g id="line2d_13">
      <g>
       <use style="stroke:#000000;stroke-width:0.8;" x="57.6" xlink:href="#m616e80556c" y="173.958054"/>
      </g>
     </g>
     <g id="text_13">
      <!-- 200 -->
      <g transform="translate(31.5125 177.757273)scale(0.1 -0.1)">
       <use xlink:href="#DejaVuSans-50"/>
       <use x="63.623047" xlink:href="#DejaVuSans-48"/>
       <use x="127.246094" xlink:href="#DejaVuSans-48"/>
      </g>
     </g>
    </g>
    <g id="ytick_5">
     <g id="line2d_14">
      <g>
       <use style="stroke:#000000;stroke-width:0.8;" x="57.6" xlink:href="#m616e80556c" y="133.858099"/>
      </g>
     </g>
     <g id="text_14">
      <!-- 300 -->
      <g transform="translate(31.5125 137.657318)scale(0.1 -0.1)">
       <use xlink:href="#DejaVuSans-51"/>
       <use x="63.623047" xlink:href="#DejaVuSans-48"/>
       <use x="127.246094" xlink:href="#DejaVuSans-48"/>
      </g>
     </g>
    </g>
    <g id="ytick_6">
     <g id="line2d_15">
      <g>
       <use style="stroke:#000000;stroke-width:0.8;" x="57.6" xlink:href="#m616e80556c" y="93.758144"/>
      </g>
     </g>
     <g id="text_15">
      <!-- 400 -->
      <g transform="translate(31.5125 97.557363)scale(0.1 -0.1)">
       <use xlink:href="#DejaVuSans-52"/>
       <use x="63.623047" xlink:href="#DejaVuSans-48"/>
       <use x="127.246094" xlink:href="#DejaVuSans-48"/>
      </g>
     </g>
    </g>
    <g id="ytick_7">
     <g id="line2d_16">
      <g>
       <use style="stroke:#000000;stroke-width:0.8;" x="57.6" xlink:href="#m616e80556c" y="53.658189"/>
      </g>
     </g>
     <g id="text_16">
      <!-- 500 -->
      <defs>
       <path d="M 10.796875 72.90625 
L 49.515625 72.90625 
L 49.515625 64.59375 
L 19.828125 64.59375 
L 19.828125 46.734375 
Q 21.96875 47.46875 24.109375 47.828125 
Q 26.265625 48.1875 28.421875 48.1875 
Q 40.625 48.1875 47.75 41.5 
Q 54.890625 34.8125 54.890625 23.390625 
Q 54.890625 11.625 47.5625 5.09375 
Q 40.234375 -1.421875 26.90625 -1.421875 
Q 22.3125 -1.421875 17.546875 -0.640625 
Q 12.796875 0.140625 7.71875 1.703125 
L 7.71875 11.625 
Q 12.109375 9.234375 16.796875 8.0625 
Q 21.484375 6.890625 26.703125 6.890625 
Q 35.15625 6.890625 40.078125 11.328125 
Q 45.015625 15.765625 45.015625 23.390625 
Q 45.015625 31 40.078125 35.4375 
Q 35.15625 39.890625 26.703125 39.890625 
Q 22.75 39.890625 18.8125 39.015625 
Q 14.890625 38.140625 10.796875 36.28125 
z
" id="DejaVuSans-53"/>
      </defs>
      <g transform="translate(31.5125 57.457408)scale(0.1 -0.1)">
       <use xlink:href="#DejaVuSans-53"/>
       <use x="63.623047" xlink:href="#DejaVuSans-48"/>
       <use x="127.246094" xlink:href="#DejaVuSans-48"/>
      </g>
     </g>
    </g>
   </g>
   <g id="line2d_17">
    <path clip-path="url(#pe7d0d1c57b)" d="M 230.104858 254.157964 
L 230.033316 248.605443 
L 229.709949 248.075193 
L 229.22922 247.638549 
L 228.510732 247.223619 
L 227.744069 246.956866 
L 226.257755 246.806226 
L 223.065929 246.937105 
L 218.262311 247.187521 
L 214.704198 247.460718 
L 208.480629 248.186174 
L 205.31112 248.530027 
L 199.612548 248.798597 
L 177.44648 249.331633 
L 165.432693 249.675635 
L 156.079379 249.837707 
L 128.341679 250.19588 
L 115.377484 250.69083 
L 81.421684 251.597998 
L 80.080661 251.379859 
L 78.970213 250.939905 
L 78.222229 250.421142 
L 77.434666 249.569262 
L 76.933537 248.729164 
L 76.433169 247.480716 
L 76.023067 245.693914 
L 75.780302 243.624034 
L 75.165369 234.306184 
L 75.134492 228.226887 
L 75.353197 227.031026 
L 75.741405 225.959326 
L 76.649749 224.344746 
L 77.637251 223.28573 
L 78.205587 222.883584 
L 79.58274 222.325585 
L 81.20354 222.030056 
L 83.97156 221.818312 
L 87.416066 221.822042 
L 93.502597 221.895244 
L 106.578431 221.374033 
L 117.980813 220.83288 
L 128.714247 220.725095 
L 134.139771 220.267603 
L 136.606921 220.275627 
L 143.89986 220.517879 
L 144.784826 220.132358 
L 145.399919 219.672139 
L 145.848878 219.19442 
L 146.422067 218.153774 
L 146.842595 216.737472 
L 147.005401 215.301192 
L 147.003356 212.962318 
L 146.898735 208.382462 
L 146.915497 198.627466 
L 146.68027 197.356618 
L 146.283241 196.406289 
L 145.690684 195.562706 
L 144.883391 194.827153 
L 143.829043 194.265513 
L 142.540912 193.934648 
L 140.466461 193.771081 
L 129.732626 193.492827 
L 125.859451 193.732825 
L 118.728877 194.252882 
L 99.190936 194.794271 
L 86.61924 195.198719 
L 80.527375 195.388151 
L 78.925381 195.276513 
L 77.640178 195.004034 
L 76.603514 194.531897 
L 75.745656 193.827501 
L 74.9852 192.799579 
L 74.595829 191.900698 
L 74.283772 190.541711 
L 74.115111 188.646707 
L 73.942641 180.998403 
L 73.860517 174.005773 
L 74.06266 172.68496 
L 74.421796 171.695654 
L 75.140066 170.632204 
L 76.143367 169.771578 
L 77.661912 169.041559 
L 78.826455 168.705922 
L 81.150167 168.333955 
L 84.943823 168.004333 
L 89.047051 167.813377 
L 94.856933 167.807282 
L 104.233265 168.062679 
L 113.596564 167.529911 
L 119.529273 167.331657 
L 132.566329 167.043899 
L 139.463481 166.840633 
L 141.457371 166.970035 
L 142.686716 167.27287 
L 143.50676 167.658912 
L 144.078786 168.113084 
L 144.589378 168.817801 
L 144.911622 169.598948 
L 145.149695 170.81542 
L 145.198697 172.340582 
L 145.214096 177.312976 
L 145.517011 186.169092 
L 146.134751 194.845398 
L 146.514537 198.150076 
L 146.524803 200.401207 
L 146.332523 209.334194 
L 146.774746 219.85163 
L 147.343323 225.070563 
L 147.254301 226.88975 
L 146.843758 231.657771 
L 146.880449 236.166445 
L 147.116277 245.607623 
L 147.380776 246.693389 
L 147.826487 247.541644 
L 148.538863 248.29037 
L 149.376712 248.833355 
L 150.785944 249.406961 
L 152.279547 249.827249 
L 153.479739 249.947573 
L 156.530584 249.87828 
L 160.950962 249.583962 
L 165.778957 249.056672 
L 169.091373 248.753617 
L 171.656688 248.764736 
L 176.52402 248.850775 
L 194.46225 248.695267 
L 216.867061 247.680245 
L 219.332073 247.590646 
L 223.673808 247.551308 
L 224.841511 247.442849 
L 225.580881 247.125558 
L 226.183775 246.671214 
L 226.803284 245.886831 
L 227.424479 244.755852 
L 227.867033 243.476635 
L 228.105656 242.215772 
L 228.198984 240.392567 
L 228.114233 237.489503 
L 227.424391 223.683959 
L 227.523029 221.989864 
L 227.807285 221.119426 
L 228.283257 220.372601 
L 228.868541 219.903772 
L 229.570296 219.625563 
L 231.613078 219.421225 
L 234.518909 219.266383 
L 237.903874 219.26891 
L 240.491565 219.033631 
L 245.635879 218.992934 
L 252.25155 218.817115 
L 257.694269 218.699583 
L 273.559054 218.43682 
L 274.020163 218.061644 
L 274.443138 217.374139 
L 274.710845 216.480259 
L 274.768108 215.385626 
L 274.652901 213.343267 
L 273.689339 195.403229 
L 273.857919 193.306683 
L 274.005166 192.30262 
L 274.104373 189.64676 
L 274.065436 178.244298 
L 274.013346 174.09684 
L 274.042299 170.501758 
L 274.092183 166.37808 
L 273.933507 161.94908 
L 273.226625 156.859353 
L 272.907309 147.080257 
L 272.815962 143.070462 
L 272.839861 141.139168 
L 273.071439 140.308497 
L 273.501029 139.566608 
L 274.263731 138.588691 
L 274.463188 138.008524 
L 274.411258 137.494764 
L 272.953745 134.0914 
L 272.695822 132.337709 
L 272.388376 128.047335 
L 272.198703 109.618238 
L 272.512686 108.859306 
L 273.079017 108.160123 
L 273.62951 107.7096 
L 275.004457 106.981706 
L 276.686209 106.48595 
L 278.155231 106.324026 
L 281.23615 106.2893 
L 287.814027 106.211786 
L 309.843418 105.443271 
L 319.937619 105.096807 
L 330.997909 104.770795 
L 340.467112 104.471007 
L 348.857226 104.215891 
L 363.903009 103.891804 
L 365.786584 103.454634 
L 367.590802 102.780233 
L 369.665453 101.722476 
L 374.307223 99.010396 
L 376.007662 98.316065 
L 377.783689 97.854274 
L 379.623796 97.62398 
L 382.310613 97.577344 
L 385.544233 97.803668 
L 392.499009 98.611201 
L 393.814247 98.947399 
L 394.900796 99.413842 
L 396.296876 100.52834 
L 397.165 102.035938 
L 397.485599 103.556127 
L 397.556977 105.139393 
L 397.66669 121.650389 
L 397.471323 124.037901 
L 397.057973 125.719412 
L 396.457356 127.339009 
L 395.676088 128.866577 
L 394.062065 131.436102 
L 392.284514 133.831954 
L 389.656764 137.400048 
L 387.516189 140.757296 
L 385.174431 144.787823 
L 381.335984 151.409087 
L 380.185636 153.32374 
L 376.073747 160.11972 
L 373.929201 163.729678 
L 371.827763 167.143307 
L 367.892474 173.314169 
L 355.27386 194.16791 
L 352.705057 198.112542 
L 349.136682 203.400122 
L 345.303527 209.575074 
L 339.22666 219.375122 
L 335.976158 224.560267 
L 331.522015 231.937151 
L 331.089377 233.277183 
L 330.796446 234.970532 
L 330.693831 237.239247 
L 330.64952 239.278246 
L 330.360801 240.614344 
L 329.947811 241.588388 
L 329.390382 242.410213 
L 328.681134 243.100205 
L 327.86125 243.607068 
L 326.993768 243.927667 
L 325.917685 244.059716 
L 325.191636 243.947813 
L 324.668411 243.725944 
L 323.966702 243.07574 
L 323.424551 241.877818 
L 323.1955 240.698843 
L 323.021145 238.530281 
L 322.16834 219.524326 
L 321.015105 190.46123 
L 320.717523 181.767159 
L 320.081338 165.532933 
L 319.807335 161.768349 
L 319.304361 154.614397 
L 318.953767 147.787941 
L 318.801547 141.241423 
L 318.852996 138.713041 
L 318.656025 137.736286 
L 318.193873 136.802558 
L 317.738538 136.237911 
L 317.127134 135.701694 
L 316.498006 135.301657 
L 315.026738 134.894081 
L 313.970746 134.833971 
L 302.184327 135.201447 
L 294.873944 135.398699 
L 284.029112 135.648121 
L 279.45479 135.938204 
L 274.633532 136.559633 
L 270.389914 137.057033 
L 266.909242 137.226174 
L 232.37909 137.985788 
L 229.928675 137.618552 
L 227.911539 137.12015 
L 226.9637 136.713095 
L 226.464294 136.305439 
L 225.566634 135.049108 
L 225.136851 133.904174 
L 224.819564 132.447944 
L 224.622513 130.378586 
L 224.5677 129.387235 
L 224.5677 129.387235 
" style="fill:none;stroke:#008000;stroke-linecap:square;stroke-width:1.5;"/>
   </g>
   <g id="line2d_18">
    <path clip-path="url(#pe7d0d1c57b)" d="M 230.104858 254.157964 
L 230.061025 248.670319 
L 229.809945 248.076593 
L 229.260555 247.388869 
L 228.502285 246.859179 
L 227.705097 246.531568 
L 226.520749 246.34987 
L 224.807228 246.390884 
L 212.2456 247.121527 
L 206.897128 247.504318 
L 201.878204 247.604615 
L 182.178093 247.724223 
L 173.267504 247.820435 
L 139.519421 247.558949 
L 130.851005 247.466558 
L 113.84004 247.567417 
L 85.590837 247.433774 
L 83.757318 247.279034 
L 82.539553 246.936731 
L 81.774019 246.504862 
L 81.093455 245.851558 
L 80.600564 245.112674 
L 80.084983 243.926821 
L 79.731724 242.587025 
L 79.434498 240.345959 
L 79.268331 235.656403 
L 79.265714 229.632039 
L 79.426429 224.722402 
L 79.7165 223.028989 
L 80.14496 221.854161 
L 80.745959 220.842585 
L 81.413117 220.139251 
L 82.185806 219.599645 
L 83.375436 219.080975 
L 84.677197 218.764448 
L 86.443853 218.589375 
L 89.434093 218.527598 
L 93.472351 218.713916 
L 97.0628 218.859079 
L 111.887116 218.79179 
L 117.34174 218.603115 
L 121.143502 218.570683 
L 126.905773 218.799805 
L 130.753749 218.929497 
L 133.706804 218.806014 
L 139.242624 218.531021 
L 141.682919 218.64389 
L 147.856107 219.077631 
L 148.582405 218.898514 
L 149.388579 218.4585 
L 149.95948 217.82823 
L 150.358007 217.047902 
L 150.731127 215.840546 
L 150.911613 214.493117 
L 150.958306 212.234284 
L 150.960348 208.460972 
L 151.161722 197.623414 
L 150.869366 196.333011 
L 150.3566 195.302328 
L 149.744169 194.540569 
L 149.091348 193.97883 
L 148.200155 193.489172 
L 147.149231 193.180325 
L 145.057585 192.954538 
L 136.298097 192.37139 
L 132.848778 192.384422 
L 121.485069 192.74338 
L 114.203822 192.704719 
L 105.830313 192.675896 
L 94.121234 192.63552 
L 86.587641 192.709485 
L 84.987253 192.567854 
L 83.836342 192.26535 
L 83.071603 191.835164 
L 82.410025 191.193469 
L 81.695758 190.084286 
L 81.382846 189.165279 
L 81.170936 187.829192 
L 81.096712 185.600379 
L 81.365929 171.247036 
L 81.697652 170.141414 
L 82.269896 169.102156 
L 82.989774 168.358254 
L 83.903747 167.763953 
L 85.203162 167.251737 
L 86.641983 166.941572 
L 89.462371 166.633923 
L 95.045239 166.327257 
L 99.229084 166.30412 
L 102.913178 166.464149 
L 110.14292 166.901234 
L 114.529917 166.801311 
L 123.606081 166.512155 
L 146.013733 166.478832 
L 147.988142 166.638898 
L 149.15903 166.991137 
L 149.853328 167.414058 
L 150.344833 167.945306 
L 150.627715 168.599667 
L 150.778883 169.528791 
L 150.778245 171.079493 
L 150.683975 175.149121 
L 150.755376 184.714609 
L 151.086154 190.925841 
L 151.385113 194.791327 
L 151.261911 197.483792 
L 150.924135 204.595757 
L 151.091619 213.201705 
L 151.321937 215.666888 
L 151.572074 218.326805 
L 151.529427 219.888275 
L 150.963727 226.108978 
L 150.789112 237.373956 
L 150.967522 238.652814 
L 151.292385 239.249353 
L 151.810728 239.784854 
L 152.783282 240.368935 
L 154.400083 240.981248 
L 155.736763 241.216975 
L 158.069884 241.274724 
L 163.221411 241.048024 
L 167.4535 240.697374 
L 171.84 240.354323 
L 174.749546 240.401713 
L 179.589614 240.585351 
L 199.140491 240.839564 
L 221.82635 240.625906 
L 225.332087 240.621578 
L 225.962104 240.333285 
L 226.55447 239.823902 
L 227.054357 238.957549 
L 227.526593 237.769298 
L 228.019697 235.622909 
L 228.136639 233.763015 
L 228.08303 229.070564 
L 228.02326 220.118269 
L 228.149951 215.764384 
L 228.478898 214.934011 
L 229.006094 214.309075 
L 229.72863 213.907017 
L 230.675196 213.76559 
L 236.426785 213.809923 
L 237.810025 213.740781 
L 240.112288 213.610727 
L 244.666944 213.647754 
L 253.156762 213.618133 
L 261.174473 213.643814 
L 267.857987 213.687214 
L 273.718113 213.61338 
L 274.485332 213.099433 
L 274.830351 212.625578 
L 275.177735 211.787886 
L 275.315719 210.898914 
L 275.427788 207.005557 
L 275.391667 201.811969 
L 275.290783 194.031096 
L 275.410498 187.681549 
L 275.540023 183.112221 
L 275.659812 173.557254 
L 275.627369 169.842371 
L 275.631519 165.613335 
L 275.686376 161.968949 
L 275.6674 158.272333 
L 275.543124 156.086019 
L 275.031666 151.736396 
L 274.986413 148.380807 
L 275.099424 134.90963 
L 275.466945 133.98116 
L 276.515228 132.188434 
L 276.431354 131.545694 
L 275.695846 130.146127 
L 275.34836 129.275664 
L 274.978524 127.391244 
L 274.720951 124.342965 
L 274.682635 120.955071 
L 274.773714 112.485364 
L 274.747763 104.421747 
L 274.933498 103.311712 
L 275.257174 102.731833 
L 275.879873 102.170005 
L 277.205123 101.470175 
L 278.315966 101.123791 
L 279.648797 100.919061 
L 281.626419 100.868908 
L 308.553246 100.862269 
L 318.380256 100.828855 
L 345.145887 100.750881 
L 353.068107 100.767464 
L 363.602357 100.789634 
L 365.725118 100.553719 
L 367.572064 100.087047 
L 369.358389 99.374362 
L 371.739897 98.126345 
L 374.787755 96.462066 
L 376.858609 95.612577 
L 378.2869 95.23155 
L 380.080528 94.959003 
L 382.323791 94.906169 
L 385.336537 95.122786 
L 390.344045 95.730437 
L 393.814283 96.287527 
L 395.130898 96.65313 
L 396.190801 97.152761 
L 397.138674 97.863494 
L 397.691818 98.558193 
L 398.176158 99.576784 
L 398.428697 100.709976 
L 398.484054 102.311258 
L 398.046657 119.379854 
L 397.703452 121.598545 
L 397.178551 123.245372 
L 396.523639 124.639821 
L 395.404978 126.484909 
L 393.905703 128.594522 
L 390.403806 133.311884 
L 386.609045 139.442693 
L 382.736749 145.934419 
L 378.238717 152.566083 
L 374.306446 158.512038 
L 370.725668 163.62178 
L 365.775954 170.823756 
L 362.349151 176.090717 
L 356.513613 185.062661 
L 349.882233 194.752609 
L 346.310472 199.984763 
L 342.247606 206.020513 
L 330.541427 223.388126 
L 329.926856 224.919938 
L 329.540294 226.593435 
L 329.35548 228.526697 
L 329.141529 231.385967 
L 328.827973 232.439785 
L 328.391065 233.257898 
L 327.820765 233.845093 
L 326.944297 234.409594 
L 325.906845 234.835079 
L 324.980093 234.973409 
L 324.352857 234.868124 
L 323.889766 234.633882 
L 323.398253 234.119209 
L 323.10025 233.352732 
L 322.913526 232.359427 
L 322.805935 230.28498 
L 322.843634 224.469193 
L 322.942795 216.832799 
L 323.009686 203.36557 
L 323.104957 184.376114 
L 323.127521 168.332601 
L 323.142673 164.386272 
L 323.360609 149.781776 
L 323.364188 143.097608 
L 323.592546 132.515478 
L 323.739678 130.783496 
L 323.626979 129.878487 
L 323.223895 128.931051 
L 322.686976 128.208054 
L 322.055357 127.673495 
L 321.110865 127.181523 
L 320.453211 127.021836 
L 318.802888 126.892666 
L 306.894526 126.5854 
L 285.722796 126.423501 
L 281.895965 126.714762 
L 275.970775 127.155177 
L 272.005638 127.13225 
L 257.141788 126.86548 
L 240.252846 126.495811 
L 238.287073 126.258239 
L 236.016854 125.679733 
L 234.926058 125.168688 
L 234.679879 124.871608 
L 234.270332 124.278415 
L 233.979534 123.396323 
L 233.698718 121.718965 
L 233.598147 119.637994 
L 233.586019 118.97173 
L 233.586019 118.97173 
" style="fill:none;stroke:#0000ff;stroke-linecap:square;stroke-width:1.5;"/>
   </g>
   <g id="line2d_19">
    <path clip-path="url(#pe7d0d1c57b)" d="M 230.104858 254.157964 
L 230.059507 248.670267 
L 229.807755 248.076816 
L 229.257583 247.389719 
L 228.49883 246.860725 
L 227.701303 246.533968 
L 226.516688 246.353818 
L 224.803152 246.393929 
L 212.677394 247.1052 
L 207.678527 247.509343 
L 201.876288 247.642597 
L 179.187838 247.82795 
L 163.883406 247.912254 
L 147.74763 247.895609 
L 140.879733 247.745046 
L 134.248041 247.618628 
L 92.753565 247.740091 
L 83.756104 247.571759 
L 82.537199 247.233634 
L 81.770144 246.804577 
L 81.087346 246.153682 
L 80.589397 245.417945 
L 80.070424 244.233601 
L 79.713557 242.894717 
L 79.412625 240.653759 
L 79.231285 235.964269 
L 79.209148 229.939109 
L 79.354372 225.02824 
L 79.639472 223.333653 
L 80.064439 222.157274 
L 80.660966 221.143018 
L 81.326304 220.43774 
L 82.09567 219.893089 
L 83.284597 219.372349 
L 84.585758 219.053131 
L 86.352047 218.874547 
L 89.342121 218.806177 
L 93.380664 218.984374 
L 97.676114 219.117164 
L 117.250372 218.836917 
L 121.052078 218.801068 
L 126.814663 219.020772 
L 130.66267 219.147225 
L 133.61558 219.01991 
L 139.151301 218.740018 
L 141.591662 218.84966 
L 147.765072 219.27597 
L 148.491148 219.0957 
L 149.296363 218.653564 
L 149.867405 218.022981 
L 150.266644 217.242627 
L 150.640615 216.035101 
L 150.821349 214.687332 
L 150.868922 212.428004 
L 150.886068 208.255211 
L 151.117569 198.239554 
L 150.91335 196.960629 
L 150.60988 196.106232 
L 149.958041 195.062522 
L 149.194528 194.302612 
L 148.363554 193.784617 
L 147.334707 193.419656 
L 145.902462 193.209393 
L 137.06708 192.564036 
L 133.632451 192.521543 
L 128.849725 192.732718 
L 124.046517 192.910768 
L 107.941067 192.830685 
L 93.671347 192.753701 
L 86.506994 192.813135 
L 84.906756 192.670258 
L 83.75617 192.36674 
L 82.991824 191.935912 
L 82.330784 191.293686 
L 81.617661 190.183698 
L 81.305766 189.264174 
L 81.092439 187.928139 
L 81.02033 185.698839 
L 81.300437 171.341762 
L 81.633841 170.236302 
L 82.210414 169.19909 
L 82.925484 168.448284 
L 83.840487 167.854999 
L 85.140301 167.343475 
L 86.579133 167.033003 
L 89.027033 166.756799 
L 94.144691 166.445771 
L 99.166247 166.403871 
L 102.850079 166.563495 
L 110.079551 167.000732 
L 114.466436 166.906178 
L 123.92613 166.623102 
L 130.765185 166.68184 
L 140.758465 166.643958 
L 145.542085 166.648155 
L 147.626619 166.773012 
L 148.673648 167.020907 
L 149.544905 167.422673 
L 150.100253 167.902277 
L 150.451783 168.476885 
L 150.664681 169.366495 
L 150.72168 170.530522 
L 150.570564 181.582139 
L 150.660946 185.876722 
L 151.026477 192.044378 
L 151.211344 194.723321 
L 151.102515 197.355582 
L 150.71972 203.728659 
L 150.743862 207.729184 
L 150.941542 214.825388 
L 151.249294 220.091088 
L 150.655242 226.309735 
L 150.423393 237.060269 
L 150.552555 238.645639 
L 150.805075 239.264213 
L 151.252734 239.818207 
L 151.964138 240.335062 
L 153.227547 240.918705 
L 154.473102 241.299621 
L 155.878673 241.46356 
L 158.448244 241.480176 
L 164.218185 241.219819 
L 173.151237 240.637397 
L 182.453766 240.951843 
L 198.267264 241.227469 
L 225.29797 240.884104 
L 225.853713 240.553057 
L 226.288139 240.084847 
L 226.994622 238.663853 
L 227.546067 236.685244 
L 227.739675 234.929196 
L 227.752105 232.034045 
L 227.62487 220.166227 
L 227.714801 216.281222 
L 228.000022 215.45126 
L 228.441697 214.836963 
L 229.066054 214.388089 
L 229.604778 214.230169 
L 230.415898 214.153409 
L 263.956956 213.879477 
L 272.999357 213.871801 
L 273.294823 213.757256 
L 274.059267 213.239164 
L 274.401566 212.763343 
L 274.743741 211.923503 
L 274.875396 211.033586 
L 274.957389 207.139116 
L 274.884431 201.945426 
L 274.72773 194.164927 
L 274.806777 187.681722 
L 274.895791 180.508945 
L 274.811442 157.474479 
L 274.571486 155.405713 
L 274.199296 152.505003 
L 274.101855 149.567776 
L 274.102775 135.177284 
L 274.414331 134.260769 
L 274.876773 133.58768 
L 275.424909 132.812307 
L 275.532396 132.311971 
L 275.447389 131.669483 
L 274.708488 130.271842 
L 274.358743 129.402275 
L 273.984242 127.518492 
L 273.720242 124.470574 
L 273.675027 121.082491 
L 273.740352 112.231076 
L 273.830842 103.613799 
L 274.113583 102.98752 
L 274.572783 102.507739 
L 275.139693 102.118235 
L 276.597939 101.438269 
L 277.782705 101.149865 
L 279.248212 101.013799 
L 283.107609 101.023993 
L 288.970419 101.048672 
L 299.016814 101.028324 
L 310.851183 101.005457 
L 327.857366 100.959573 
L 338.448936 100.992914 
L 355.482042 101.00749 
L 362.532249 101.036171 
L 364.6554 100.809549 
L 366.503637 100.349337 
L 368.295717 99.65187 
L 370.681617 98.413815 
L 373.736343 96.764075 
L 375.809546 95.922583 
L 377.59211 95.475632 
L 379.396266 95.254222 
L 381.657718 95.254984 
L 384.706736 95.518327 
L 391.375769 96.421048 
L 393.781541 96.950222 
L 394.87112 97.412237 
L 395.929956 98.13472 
L 396.618469 98.970286 
L 397.09747 99.991388 
L 397.344123 101.125943 
L 397.391313 102.727619 
L 396.870199 119.795891 
L 396.518961 122.013713 
L 395.990562 123.659445 
L 395.329422 125.05106 
L 394.203824 126.892018 
L 392.695676 128.995312 
L 389.173412 133.697366 
L 385.17979 140.104531 
L 381.636755 146.012202 
L 376.928645 152.90147 
L 373.178799 158.522595 
L 370.361814 162.549591 
L 365.821524 168.977041 
L 362.101409 174.517734 
L 354.618849 185.868975 
L 336.267485 212.401156 
L 330.529001 220.638102 
L 329.120227 222.843132 
L 328.3636 224.432472 
L 327.905962 225.973047 
L 327.660699 227.569984 
L 327.196101 232.030081 
L 326.758465 233.032297 
L 326.303176 233.624816 
L 325.735266 234.086509 
L 324.604996 234.676516 
L 323.623592 234.946162 
L 322.848148 234.947381 
L 322.257025 234.748011 
L 321.77013 234.358503 
L 321.501032 233.933828 
L 321.24412 233.149086 
L 321.1014 232.150517 
L 321.02948 230.530457 
L 321.10868 224.463191 
L 321.25781 216.827803 
L 321.424459 203.361146 
L 321.819107 162.975046 
L 322.069526 144.90056 
L 322.228294 133.874801 
L 322.437233 129.995498 
L 322.133698 129.146759 
L 321.517759 128.24631 
L 320.991583 127.76114 
L 320.108494 127.247456 
L 319.239606 127.003377 
L 317.59029 126.866396 
L 299.900333 126.39432 
L 283.281551 126.275908 
L 273.88927 126.897944 
L 270.344789 126.82489 
L 237.77608 125.874586 
L 235.677716 125.42705 
L 234.216618 124.922297 
L 233.545504 124.49106 
L 233.583609 124.441647 
L 233.496248 124.393569 
L 232.938982 123.795739 
L 232.551373 123.030902 
L 232.007687 121.419138 
L 231.571149 119.381305 
L 231.451886 118.725539 
L 231.451886 118.725539 
" style="fill:none;stroke:#ff0000;stroke-linecap:square;stroke-width:1.5;"/>
   </g>
   <g id="patch_3">
    <path d="M 57.6 307.584 
L 57.6 41.472 
" style="fill:none;stroke:#000000;stroke-linecap:square;stroke-linejoin:miter;stroke-width:0.8;"/>
   </g>
   <g id="patch_4">
    <path d="M 414.72 307.584 
L 414.72 41.472 
" style="fill:none;stroke:#000000;stroke-linecap:square;stroke-linejoin:miter;stroke-width:0.8;"/>
   </g>
   <g id="patch_5">
    <path d="M 57.6 307.584 
L 414.72 307.584 
" style="fill:none;stroke:#000000;stroke-linecap:square;stroke-linejoin:miter;stroke-width:0.8;"/>
   </g>
   <g id="patch_6">
    <path d="M 57.6 41.472 
L 414.72 41.472 
" style="fill:none;stroke:#000000;stroke-linecap:square;stroke-linejoin:miter;stroke-width:0.8;"/>
   </g>
  </g>
 </g>
 <defs>
  <clipPath id="pe7d0d1c57b">
   <rect height="266.112" width="357.12" x="57.6" y="41.472"/>
  </clipPath>
 </defs>
</svg>
