<?xml version="1.0" encoding="utf-8" standalone="no"?>
<!DOCTYPE svg PUBLIC "-//W3C//DTD SVG 1.1//EN"
  "http://www.w3.org/Graphics/SVG/1.1/DTD/svg11.dtd">
<!-- Created with matplotlib (https://matplotlib.org/) -->
<svg height="345.6pt" version="1.1" viewBox="0 0 460.8 345.6" width="460.8pt" xmlns="http://www.w3.org/2000/svg" xmlns:xlink="http://www.w3.org/1999/xlink">
 <defs>
  <style type="text/css">
*{stroke-linecap:butt;stroke-linejoin:round;}
  </style>
 </defs>
 <g id="figure_1">
  <g id="patch_1">
   <path d="M 0 345.6 
L 460.8 345.6 
L 460.8 0 
L 0 0 
z
" style="fill:#ffffff;"/>
  </g>
  <g id="axes_1">
   <g id="patch_2">
    <path d="M 57.6 307.584 
L 414.72 307.584 
L 414.72 41.472 
L 57.6 41.472 
z
" style="fill:#ffffff;"/>
   </g>
   <g id="matplotlib.axis_1">
    <g id="xtick_1">
     <g id="line2d_1">
      <defs>
       <path d="M 0 0 
L 0 3.5 
" id="m0bf381ee0b" style="stroke:#000000;stroke-width:0.8;"/>
      </defs>
      <g>
       <use style="stroke:#000000;stroke-width:0.8;" x="59.897682" xlink:href="#m0bf381ee0b" y="307.584"/>
      </g>
     </g>
     <g id="text_1">
      <!-- −20 -->
      <defs>
       <path d="M 10.59375 35.5 
L 73.1875 35.5 
L 73.1875 27.203125 
L 10.59375 27.203125 
z
" id="DejaVuSans-8722"/>
       <path d="M 19.1875 8.296875 
L 53.609375 8.296875 
L 53.609375 0 
L 7.328125 0 
L 7.328125 8.296875 
Q 12.9375 14.109375 22.625 23.890625 
Q 32.328125 33.6875 34.8125 36.53125 
Q 39.546875 41.84375 41.421875 45.53125 
Q 43.3125 49.21875 43.3125 52.78125 
Q 43.3125 58.59375 39.234375 62.25 
Q 35.15625 65.921875 28.609375 65.921875 
Q 23.96875 65.921875 18.8125 64.3125 
Q 13.671875 62.703125 7.8125 59.421875 
L 7.8125 69.390625 
Q 13.765625 71.78125 18.9375 73 
Q 24.125 74.21875 28.421875 74.21875 
Q 39.75 74.21875 46.484375 68.546875 
Q 53.21875 62.890625 53.21875 53.421875 
Q 53.21875 48.921875 51.53125 44.890625 
Q 49.859375 40.875 45.40625 35.40625 
Q 44.1875 33.984375 37.640625 27.21875 
Q 31.109375 20.453125 19.1875 8.296875 
z
" id="DejaVuSans-50"/>
       <path d="M 31.78125 66.40625 
Q 24.171875 66.40625 20.328125 58.90625 
Q 16.5 51.421875 16.5 36.375 
Q 16.5 21.390625 20.328125 13.890625 
Q 24.171875 6.390625 31.78125 6.390625 
Q 39.453125 6.390625 43.28125 13.890625 
Q 47.125 21.390625 47.125 36.375 
Q 47.125 51.421875 43.28125 58.90625 
Q 39.453125 66.40625 31.78125 66.40625 
z
M 31.78125 74.21875 
Q 44.046875 74.21875 50.515625 64.515625 
Q 56.984375 54.828125 56.984375 36.375 
Q 56.984375 17.96875 50.515625 8.265625 
Q 44.046875 -1.421875 31.78125 -1.421875 
Q 19.53125 -1.421875 13.0625 8.265625 
Q 6.59375 17.96875 6.59375 36.375 
Q 6.59375 54.828125 13.0625 64.515625 
Q 19.53125 74.21875 31.78125 74.21875 
z
" id="DejaVuSans-48"/>
      </defs>
      <g transform="translate(49.345339 322.182437)scale(0.1 -0.1)">
       <use xlink:href="#DejaVuSans-8722"/>
       <use x="83.789062" xlink:href="#DejaVuSans-50"/>
       <use x="147.412109" xlink:href="#DejaVuSans-48"/>
      </g>
     </g>
    </g>
    <g id="xtick_2">
     <g id="line2d_2">
      <g>
       <use style="stroke:#000000;stroke-width:0.8;" x="105.491579" xlink:href="#m0bf381ee0b" y="307.584"/>
      </g>
     </g>
     <g id="text_2">
      <!-- −15 -->
      <defs>
       <path d="M 12.40625 8.296875 
L 28.515625 8.296875 
L 28.515625 63.921875 
L 10.984375 60.40625 
L 10.984375 69.390625 
L 28.421875 72.90625 
L 38.28125 72.90625 
L 38.28125 8.296875 
L 54.390625 8.296875 
L 54.390625 0 
L 12.40625 0 
z
" id="DejaVuSans-49"/>
       <path d="M 10.796875 72.90625 
L 49.515625 72.90625 
L 49.515625 64.59375 
L 19.828125 64.59375 
L 19.828125 46.734375 
Q 21.96875 47.46875 24.109375 47.828125 
Q 26.265625 48.1875 28.421875 48.1875 
Q 40.625 48.1875 47.75 41.5 
Q 54.890625 34.8125 54.890625 23.390625 
Q 54.890625 11.625 47.5625 5.09375 
Q 40.234375 -1.421875 26.90625 -1.421875 
Q 22.3125 -1.421875 17.546875 -0.640625 
Q 12.796875 0.140625 7.71875 1.703125 
L 7.71875 11.625 
Q 12.109375 9.234375 16.796875 8.0625 
Q 21.484375 6.890625 26.703125 6.890625 
Q 35.15625 6.890625 40.078125 11.328125 
Q 45.015625 15.765625 45.015625 23.390625 
Q 45.015625 31 40.078125 35.4375 
Q 35.15625 39.890625 26.703125 39.890625 
Q 22.75 39.890625 18.8125 39.015625 
Q 14.890625 38.140625 10.796875 36.28125 
z
" id="DejaVuSans-53"/>
      </defs>
      <g transform="translate(94.939235 322.182437)scale(0.1 -0.1)">
       <use xlink:href="#DejaVuSans-8722"/>
       <use x="83.789062" xlink:href="#DejaVuSans-49"/>
       <use x="147.412109" xlink:href="#DejaVuSans-53"/>
      </g>
     </g>
    </g>
    <g id="xtick_3">
     <g id="line2d_3">
      <g>
       <use style="stroke:#000000;stroke-width:0.8;" x="151.085476" xlink:href="#m0bf381ee0b" y="307.584"/>
      </g>
     </g>
     <g id="text_3">
      <!-- −10 -->
      <g transform="translate(140.533132 322.182437)scale(0.1 -0.1)">
       <use xlink:href="#DejaVuSans-8722"/>
       <use x="83.789062" xlink:href="#DejaVuSans-49"/>
       <use x="147.412109" xlink:href="#DejaVuSans-48"/>
      </g>
     </g>
    </g>
    <g id="xtick_4">
     <g id="line2d_4">
      <g>
       <use style="stroke:#000000;stroke-width:0.8;" x="196.679372" xlink:href="#m0bf381ee0b" y="307.584"/>
      </g>
     </g>
     <g id="text_4">
      <!-- −5 -->
      <g transform="translate(189.308278 322.182437)scale(0.1 -0.1)">
       <use xlink:href="#DejaVuSans-8722"/>
       <use x="83.789062" xlink:href="#DejaVuSans-53"/>
      </g>
     </g>
    </g>
    <g id="xtick_5">
     <g id="line2d_5">
      <g>
       <use style="stroke:#000000;stroke-width:0.8;" x="242.273269" xlink:href="#m0bf381ee0b" y="307.584"/>
      </g>
     </g>
     <g id="text_5">
      <!-- 0 -->
      <g transform="translate(239.092019 322.182437)scale(0.1 -0.1)">
       <use xlink:href="#DejaVuSans-48"/>
      </g>
     </g>
    </g>
    <g id="xtick_6">
     <g id="line2d_6">
      <g>
       <use style="stroke:#000000;stroke-width:0.8;" x="287.867165" xlink:href="#m0bf381ee0b" y="307.584"/>
      </g>
     </g>
     <g id="text_6">
      <!-- 5 -->
      <g transform="translate(284.685915 322.182437)scale(0.1 -0.1)">
       <use xlink:href="#DejaVuSans-53"/>
      </g>
     </g>
    </g>
    <g id="xtick_7">
     <g id="line2d_7">
      <g>
       <use style="stroke:#000000;stroke-width:0.8;" x="333.461062" xlink:href="#m0bf381ee0b" y="307.584"/>
      </g>
     </g>
     <g id="text_7">
      <!-- 10 -->
      <g transform="translate(327.098562 322.182437)scale(0.1 -0.1)">
       <use xlink:href="#DejaVuSans-49"/>
       <use x="63.623047" xlink:href="#DejaVuSans-48"/>
      </g>
     </g>
    </g>
    <g id="xtick_8">
     <g id="line2d_8">
      <g>
       <use style="stroke:#000000;stroke-width:0.8;" x="379.054959" xlink:href="#m0bf381ee0b" y="307.584"/>
      </g>
     </g>
     <g id="text_8">
      <!-- 15 -->
      <g transform="translate(372.692459 322.182437)scale(0.1 -0.1)">
       <use xlink:href="#DejaVuSans-49"/>
       <use x="63.623047" xlink:href="#DejaVuSans-53"/>
      </g>
     </g>
    </g>
   </g>
   <g id="matplotlib.axis_2">
    <g id="ytick_1">
     <g id="line2d_9">
      <defs>
       <path d="M 0 0 
L -3.5 0 
" id="m743a4eddfb" style="stroke:#000000;stroke-width:0.8;"/>
      </defs>
      <g>
       <use style="stroke:#000000;stroke-width:0.8;" x="57.6" xlink:href="#m743a4eddfb" y="303.545998"/>
      </g>
     </g>
     <g id="text_9">
      <!-- −10 -->
      <g transform="translate(29.495313 307.345216)scale(0.1 -0.1)">
       <use xlink:href="#DejaVuSans-8722"/>
       <use x="83.789062" xlink:href="#DejaVuSans-49"/>
       <use x="147.412109" xlink:href="#DejaVuSans-48"/>
      </g>
     </g>
    </g>
    <g id="ytick_2">
     <g id="line2d_10">
      <g>
       <use style="stroke:#000000;stroke-width:0.8;" x="57.6" xlink:href="#m743a4eddfb" y="257.952101"/>
      </g>
     </g>
     <g id="text_10">
      <!-- −5 -->
      <g transform="translate(35.857813 261.75132)scale(0.1 -0.1)">
       <use xlink:href="#DejaVuSans-8722"/>
       <use x="83.789062" xlink:href="#DejaVuSans-53"/>
      </g>
     </g>
    </g>
    <g id="ytick_3">
     <g id="line2d_11">
      <g>
       <use style="stroke:#000000;stroke-width:0.8;" x="57.6" xlink:href="#m743a4eddfb" y="212.358204"/>
      </g>
     </g>
     <g id="text_11">
      <!-- 0 -->
      <g transform="translate(44.2375 216.157423)scale(0.1 -0.1)">
       <use xlink:href="#DejaVuSans-48"/>
      </g>
     </g>
    </g>
    <g id="ytick_4">
     <g id="line2d_12">
      <g>
       <use style="stroke:#000000;stroke-width:0.8;" x="57.6" xlink:href="#m743a4eddfb" y="166.764308"/>
      </g>
     </g>
     <g id="text_12">
      <!-- 5 -->
      <g transform="translate(44.2375 170.563526)scale(0.1 -0.1)">
       <use xlink:href="#DejaVuSans-53"/>
      </g>
     </g>
    </g>
    <g id="ytick_5">
     <g id="line2d_13">
      <g>
       <use style="stroke:#000000;stroke-width:0.8;" x="57.6" xlink:href="#m743a4eddfb" y="121.170411"/>
      </g>
     </g>
     <g id="text_13">
      <!-- 10 -->
      <g transform="translate(37.875 124.96963)scale(0.1 -0.1)">
       <use xlink:href="#DejaVuSans-49"/>
       <use x="63.623047" xlink:href="#DejaVuSans-48"/>
      </g>
     </g>
    </g>
    <g id="ytick_6">
     <g id="line2d_14">
      <g>
       <use style="stroke:#000000;stroke-width:0.8;" x="57.6" xlink:href="#m743a4eddfb" y="75.576514"/>
      </g>
     </g>
     <g id="text_14">
      <!-- 15 -->
      <g transform="translate(37.875 79.375733)scale(0.1 -0.1)">
       <use xlink:href="#DejaVuSans-49"/>
       <use x="63.623047" xlink:href="#DejaVuSans-53"/>
      </g>
     </g>
    </g>
   </g>
   <g id="line2d_15">
    <path clip-path="url(#pb6deaaa3b4)" d="M 242.273269 212.358204 
L 242.273269 212.358204 
L 242.231352 211.523446 
L 242.181979 210.664507 
L 242.113383 209.773329 
L 242.012181 208.82641 
L 241.88356 207.788423 
L 241.726141 206.632195 
L 241.518627 205.364651 
L 241.278869 203.9764 
L 240.982656 202.492478 
L 240.617246 200.947165 
L 240.152566 199.35808 
L 239.597281 197.730406 
L 238.975451 196.047991 
L 238.291788 194.310034 
L 237.50878 192.542914 
L 236.618768 190.758178 
L 235.663565 188.962253 
L 234.618114 187.206012 
L 233.439368 185.454012 
L 232.209483 183.706225 
L 230.940778 181.964355 
L 229.575596 180.232489 
L 228.007431 178.561573 
L 226.209919 176.97093 
L 224.3151 175.431726 
L 222.322884 173.914488 
L 220.246611 172.396148 
L 217.988628 170.951888 
L 215.563315 169.612285 
L 212.951724 168.365255 
L 210.194871 167.236861 
L 207.284923 166.242066 
L 204.182942 165.364867 
L 200.925668 164.632392 
L 197.49026 164.006324 
L 193.949857 163.472948 
L 190.283852 163.101349 
L 186.447272 162.922657 
L 182.46325 162.864443 
L 178.358915 162.89779 
L 174.124746 163.019252 
L 169.775225 163.214531 
L 165.268715 163.539506 
L 160.632774 163.930839 
L 155.823803 164.358145 
L 150.875561 164.838175 
L 145.803787 165.368451 
L 140.573894 165.958572 
L 135.22418 166.528314 
L 129.709963 167.084915 
L 124.054952 167.659662 
L 118.256502 168.262696 
L 112.315709 168.886932 
L 106.281174 169.523988 
L 100.077577 170.138265 
L 93.719417 170.74646 
L 87.210432 171.372665 
L 80.567949 171.993636 
L 73.832727 172.607175 
" style="fill:none;stroke:#008000;stroke-linecap:square;stroke-width:1.5;"/>
   </g>
   <g id="line2d_16">
    <path clip-path="url(#pb6deaaa3b4)" d="M 242.273269 212.358204 
L 242.273269 212.358204 
L 242.186229 211.526859 
L 242.098601 210.671001 
L 242.022579 209.780393 
L 241.941841 208.832005 
L 241.908848 207.787138 
L 241.845354 206.622205 
L 241.812757 205.339902 
L 241.788428 203.932222 
L 241.798001 202.41928 
L 241.886347 200.833598 
L 242.066596 199.186812 
L 242.339099 197.486983 
L 242.569429 195.706623 
L 242.845975 193.860035 
L 243.278872 191.976391 
L 243.757619 190.040554 
L 244.302876 188.081937 
L 244.979047 186.15341 
L 245.750903 184.187959 
L 246.520232 182.195164 
L 247.335463 180.201938 
L 248.299512 178.218809 
L 249.494331 176.263559 
L 250.877712 174.301842 
L 252.350177 172.354957 
L 253.970441 170.445633 
L 255.658981 168.505567 
L 257.543563 166.600934 
L 259.642149 164.792001 
L 261.850785 162.92198 
L 264.261509 161.173831 
L 266.883117 159.567105 
L 269.703838 158.007477 
L 272.720043 156.576624 
L 275.910357 155.156779 
L 279.240864 153.843272 
L 282.741021 152.691808 
L 286.446621 151.682722 
L 290.31734 150.737106 
L 294.342649 149.931084 
L 298.504501 149.141386 
L 302.788054 148.362255 
L 307.26011 147.71645 
L 311.873939 147.117238 
L 316.660613 146.488212 
L 321.597719 145.902807 
L 326.660527 145.291443 
L 331.891181 144.707382 
L 337.237304 144.100655 
L 342.740245 143.436944 
L 348.378501 142.71143 
L 354.173703 142.076549 
L 360.109676 141.405596 
L 366.129464 140.638562 
L 372.324345 139.937593 
L 378.658852 139.121251 
L 385.153171 138.353457 
L 391.773102 137.520484 
L 398.487273 136.697796 
" style="fill:none;stroke:#0000ff;stroke-linecap:square;stroke-width:1.5;"/>
   </g>
   <g id="line2d_17">
    <path clip-path="url(#pb6deaaa3b4)" d="M 242.273269 212.358204 
L 242.273269 212.358204 
L 242.150296 211.531358 
L 242.058687 210.67565 
L 241.948544 209.788401 
L 241.831029 208.843368 
L 241.646855 207.813773 
L 241.467694 206.660797 
L 241.234049 205.397992 
L 240.966432 204.014795 
L 240.643783 202.536476 
L 240.229043 201.003439 
L 239.711797 199.429947 
L 239.093392 197.824178 
L 238.499619 196.131161 
L 237.84691 194.381026 
L 237.03367 192.627766 
L 236.164749 190.832571 
L 235.225955 189.027888 
L 234.165262 187.280828 
L 233.003331 185.51775 
L 231.838021 183.725876 
L 230.627656 181.942755 
L 229.273983 180.202202 
L 227.700288 178.536607 
L 225.940971 176.905575 
L 224.097321 175.305452 
L 222.116889 173.77316 
L 220.063235 172.224558 
L 217.82505 170.749856 
L 215.397414 169.414932 
L 212.849447 168.042879 
L 210.128794 166.829907 
L 207.231172 165.799366 
L 204.148453 164.855594 
L 200.901243 164.078473 
L 197.486057 163.349311 
L 193.955688 162.752769 
L 190.292892 162.34951 
L 186.458433 162.126911 
L 182.475495 162.000195 
L 178.370248 162.04236 
L 174.134761 162.128313 
L 169.782456 162.250427 
L 165.273364 162.542357 
L 160.635081 162.908141 
L 155.821389 163.279327 
L 154.483906 158.499882 
L 149.405405 158.963149 
L 144.168564 159.488747 
L 138.813861 160.014764 
L 133.293739 160.516807 
L 127.628418 160.987268 
L 121.828703 161.579814 
L 115.883816 162.166682 
L 109.836643 162.675719 
L 103.631961 163.284863 
L 97.266388 163.808916 
L 90.754971 164.41593 
L 84.107193 164.98652 
L 77.369311 165.586031 
" style="fill:none;stroke:#ff0000;stroke-linecap:square;stroke-width:1.5;"/>
   </g>
   <g id="patch_3">
    <path d="M 57.6 307.584 
L 57.6 41.472 
" style="fill:none;stroke:#000000;stroke-linecap:square;stroke-linejoin:miter;stroke-width:0.8;"/>
   </g>
   <g id="patch_4">
    <path d="M 414.72 307.584 
L 414.72 41.472 
" style="fill:none;stroke:#000000;stroke-linecap:square;stroke-linejoin:miter;stroke-width:0.8;"/>
   </g>
   <g id="patch_5">
    <path d="M 57.6 307.584 
L 414.72 307.584 
" style="fill:none;stroke:#000000;stroke-linecap:square;stroke-linejoin:miter;stroke-width:0.8;"/>
   </g>
   <g id="patch_6">
    <path d="M 57.6 41.472 
L 414.72 41.472 
" style="fill:none;stroke:#000000;stroke-linecap:square;stroke-linejoin:miter;stroke-width:0.8;"/>
   </g>
  </g>
 </g>
 <defs>
  <clipPath id="pb6deaaa3b4">
   <rect height="266.112" width="357.12" x="57.6" y="41.472"/>
  </clipPath>
 </defs>
</svg>
