<?xml version="1.0" encoding="utf-8" standalone="no"?>
<!DOCTYPE svg PUBLIC "-//W3C//DTD SVG 1.1//EN"
  "http://www.w3.org/Graphics/SVG/1.1/DTD/svg11.dtd">
<!-- Created with matplotlib (https://matplotlib.org/) -->
<svg height="345.6pt" version="1.1" viewBox="0 0 460.8 345.6" width="460.8pt" xmlns="http://www.w3.org/2000/svg" xmlns:xlink="http://www.w3.org/1999/xlink">
 <defs>
  <style type="text/css">
*{stroke-linecap:butt;stroke-linejoin:round;}
  </style>
 </defs>
 <g id="figure_1">
  <g id="patch_1">
   <path d="M 0 345.6 
L 460.8 345.6 
L 460.8 0 
L 0 0 
z
" style="fill:#ffffff;"/>
  </g>
  <g id="axes_1">
   <g id="patch_2">
    <path d="M 57.6 307.584 
L 414.72 307.584 
L 414.72 41.472 
L 57.6 41.472 
z
" style="fill:#ffffff;"/>
   </g>
   <g id="matplotlib.axis_1">
    <g id="xtick_1">
     <g id="line2d_1">
      <defs>
       <path d="M 0 0 
L 0 3.5 
" id="m90ee51481b" style="stroke:#000000;stroke-width:0.8;"/>
      </defs>
      <g>
       <use style="stroke:#000000;stroke-width:0.8;" x="86.035652" xlink:href="#m90ee51481b" y="307.584"/>
      </g>
     </g>
     <g id="text_1">
      <!-- −40 -->
      <defs>
       <path d="M 10.59375 35.5 
L 73.1875 35.5 
L 73.1875 27.203125 
L 10.59375 27.203125 
z
" id="DejaVuSans-8722"/>
       <path d="M 37.796875 64.3125 
L 12.890625 25.390625 
L 37.796875 25.390625 
z
M 35.203125 72.90625 
L 47.609375 72.90625 
L 47.609375 25.390625 
L 58.015625 25.390625 
L 58.015625 17.1875 
L 47.609375 17.1875 
L 47.609375 0 
L 37.796875 0 
L 37.796875 17.1875 
L 4.890625 17.1875 
L 4.890625 26.703125 
z
" id="DejaVuSans-52"/>
       <path d="M 31.78125 66.40625 
Q 24.171875 66.40625 20.328125 58.90625 
Q 16.5 51.421875 16.5 36.375 
Q 16.5 21.390625 20.328125 13.890625 
Q 24.171875 6.390625 31.78125 6.390625 
Q 39.453125 6.390625 43.28125 13.890625 
Q 47.125 21.390625 47.125 36.375 
Q 47.125 51.421875 43.28125 58.90625 
Q 39.453125 66.40625 31.78125 66.40625 
z
M 31.78125 74.21875 
Q 44.046875 74.21875 50.515625 64.515625 
Q 56.984375 54.828125 56.984375 36.375 
Q 56.984375 17.96875 50.515625 8.265625 
Q 44.046875 -1.421875 31.78125 -1.421875 
Q 19.53125 -1.421875 13.0625 8.265625 
Q 6.59375 17.96875 6.59375 36.375 
Q 6.59375 54.828125 13.0625 64.515625 
Q 19.53125 74.21875 31.78125 74.21875 
z
" id="DejaVuSans-48"/>
      </defs>
      <g transform="translate(75.483309 322.182437)scale(0.1 -0.1)">
       <use xlink:href="#DejaVuSans-8722"/>
       <use x="83.789062" xlink:href="#DejaVuSans-52"/>
       <use x="147.412109" xlink:href="#DejaVuSans-48"/>
      </g>
     </g>
    </g>
    <g id="xtick_2">
     <g id="line2d_2">
      <g>
       <use style="stroke:#000000;stroke-width:0.8;" x="162.508738" xlink:href="#m90ee51481b" y="307.584"/>
      </g>
     </g>
     <g id="text_2">
      <!-- −20 -->
      <defs>
       <path d="M 19.1875 8.296875 
L 53.609375 8.296875 
L 53.609375 0 
L 7.328125 0 
L 7.328125 8.296875 
Q 12.9375 14.109375 22.625 23.890625 
Q 32.328125 33.6875 34.8125 36.53125 
Q 39.546875 41.84375 41.421875 45.53125 
Q 43.3125 49.21875 43.3125 52.78125 
Q 43.3125 58.59375 39.234375 62.25 
Q 35.15625 65.921875 28.609375 65.921875 
Q 23.96875 65.921875 18.8125 64.3125 
Q 13.671875 62.703125 7.8125 59.421875 
L 7.8125 69.390625 
Q 13.765625 71.78125 18.9375 73 
Q 24.125 74.21875 28.421875 74.21875 
Q 39.75 74.21875 46.484375 68.546875 
Q 53.21875 62.890625 53.21875 53.421875 
Q 53.21875 48.921875 51.53125 44.890625 
Q 49.859375 40.875 45.40625 35.40625 
Q 44.1875 33.984375 37.640625 27.21875 
Q 31.109375 20.453125 19.1875 8.296875 
z
" id="DejaVuSans-50"/>
      </defs>
      <g transform="translate(151.956394 322.182437)scale(0.1 -0.1)">
       <use xlink:href="#DejaVuSans-8722"/>
       <use x="83.789062" xlink:href="#DejaVuSans-50"/>
       <use x="147.412109" xlink:href="#DejaVuSans-48"/>
      </g>
     </g>
    </g>
    <g id="xtick_3">
     <g id="line2d_3">
      <g>
       <use style="stroke:#000000;stroke-width:0.8;" x="238.981824" xlink:href="#m90ee51481b" y="307.584"/>
      </g>
     </g>
     <g id="text_3">
      <!-- 0 -->
      <g transform="translate(235.800574 322.182437)scale(0.1 -0.1)">
       <use xlink:href="#DejaVuSans-48"/>
      </g>
     </g>
    </g>
    <g id="xtick_4">
     <g id="line2d_4">
      <g>
       <use style="stroke:#000000;stroke-width:0.8;" x="315.454909" xlink:href="#m90ee51481b" y="307.584"/>
      </g>
     </g>
     <g id="text_4">
      <!-- 20 -->
      <g transform="translate(309.092409 322.182437)scale(0.1 -0.1)">
       <use xlink:href="#DejaVuSans-50"/>
       <use x="63.623047" xlink:href="#DejaVuSans-48"/>
      </g>
     </g>
    </g>
    <g id="xtick_5">
     <g id="line2d_5">
      <g>
       <use style="stroke:#000000;stroke-width:0.8;" x="391.927995" xlink:href="#m90ee51481b" y="307.584"/>
      </g>
     </g>
     <g id="text_5">
      <!-- 40 -->
      <g transform="translate(385.565495 322.182437)scale(0.1 -0.1)">
       <use xlink:href="#DejaVuSans-52"/>
       <use x="63.623047" xlink:href="#DejaVuSans-48"/>
      </g>
     </g>
    </g>
   </g>
   <g id="matplotlib.axis_2">
    <g id="ytick_1">
     <g id="line2d_6">
      <defs>
       <path d="M 0 0 
L -3.5 0 
" id="m24abe4fbc5" style="stroke:#000000;stroke-width:0.8;"/>
      </defs>
      <g>
       <use style="stroke:#000000;stroke-width:0.8;" x="57.6" xlink:href="#m24abe4fbc5" y="282.137444"/>
      </g>
     </g>
     <g id="text_6">
      <!-- −20 -->
      <g transform="translate(29.495313 285.936663)scale(0.1 -0.1)">
       <use xlink:href="#DejaVuSans-8722"/>
       <use x="83.789062" xlink:href="#DejaVuSans-50"/>
       <use x="147.412109" xlink:href="#DejaVuSans-48"/>
      </g>
     </g>
    </g>
    <g id="ytick_2">
     <g id="line2d_7">
      <g>
       <use style="stroke:#000000;stroke-width:0.8;" x="57.6" xlink:href="#m24abe4fbc5" y="243.900901"/>
      </g>
     </g>
     <g id="text_7">
      <!-- −10 -->
      <defs>
       <path d="M 12.40625 8.296875 
L 28.515625 8.296875 
L 28.515625 63.921875 
L 10.984375 60.40625 
L 10.984375 69.390625 
L 28.421875 72.90625 
L 38.28125 72.90625 
L 38.28125 8.296875 
L 54.390625 8.296875 
L 54.390625 0 
L 12.40625 0 
z
" id="DejaVuSans-49"/>
      </defs>
      <g transform="translate(29.495313 247.70012)scale(0.1 -0.1)">
       <use xlink:href="#DejaVuSans-8722"/>
       <use x="83.789062" xlink:href="#DejaVuSans-49"/>
       <use x="147.412109" xlink:href="#DejaVuSans-48"/>
      </g>
     </g>
    </g>
    <g id="ytick_3">
     <g id="line2d_8">
      <g>
       <use style="stroke:#000000;stroke-width:0.8;" x="57.6" xlink:href="#m24abe4fbc5" y="205.664358"/>
      </g>
     </g>
     <g id="text_8">
      <!-- 0 -->
      <g transform="translate(44.2375 209.463577)scale(0.1 -0.1)">
       <use xlink:href="#DejaVuSans-48"/>
      </g>
     </g>
    </g>
    <g id="ytick_4">
     <g id="line2d_9">
      <g>
       <use style="stroke:#000000;stroke-width:0.8;" x="57.6" xlink:href="#m24abe4fbc5" y="167.427815"/>
      </g>
     </g>
     <g id="text_9">
      <!-- 10 -->
      <g transform="translate(37.875 171.227034)scale(0.1 -0.1)">
       <use xlink:href="#DejaVuSans-49"/>
       <use x="63.623047" xlink:href="#DejaVuSans-48"/>
      </g>
     </g>
    </g>
    <g id="ytick_5">
     <g id="line2d_10">
      <g>
       <use style="stroke:#000000;stroke-width:0.8;" x="57.6" xlink:href="#m24abe4fbc5" y="129.191272"/>
      </g>
     </g>
     <g id="text_10">
      <!-- 20 -->
      <g transform="translate(37.875 132.990491)scale(0.1 -0.1)">
       <use xlink:href="#DejaVuSans-50"/>
       <use x="63.623047" xlink:href="#DejaVuSans-48"/>
      </g>
     </g>
    </g>
    <g id="ytick_6">
     <g id="line2d_11">
      <g>
       <use style="stroke:#000000;stroke-width:0.8;" x="57.6" xlink:href="#m24abe4fbc5" y="90.95473"/>
      </g>
     </g>
     <g id="text_11">
      <!-- 30 -->
      <defs>
       <path d="M 40.578125 39.3125 
Q 47.65625 37.796875 51.625 33 
Q 55.609375 28.21875 55.609375 21.1875 
Q 55.609375 10.40625 48.1875 4.484375 
Q 40.765625 -1.421875 27.09375 -1.421875 
Q 22.515625 -1.421875 17.65625 -0.515625 
Q 12.796875 0.390625 7.625 2.203125 
L 7.625 11.71875 
Q 11.71875 9.328125 16.59375 8.109375 
Q 21.484375 6.890625 26.8125 6.890625 
Q 36.078125 6.890625 40.9375 10.546875 
Q 45.796875 14.203125 45.796875 21.1875 
Q 45.796875 27.640625 41.28125 31.265625 
Q 36.765625 34.90625 28.71875 34.90625 
L 20.21875 34.90625 
L 20.21875 43.015625 
L 29.109375 43.015625 
Q 36.375 43.015625 40.234375 45.921875 
Q 44.09375 48.828125 44.09375 54.296875 
Q 44.09375 59.90625 40.109375 62.90625 
Q 36.140625 65.921875 28.71875 65.921875 
Q 24.65625 65.921875 20.015625 65.03125 
Q 15.375 64.15625 9.8125 62.3125 
L 9.8125 71.09375 
Q 15.4375 72.65625 20.34375 73.4375 
Q 25.25 74.21875 29.59375 74.21875 
Q 40.828125 74.21875 47.359375 69.109375 
Q 53.90625 64.015625 53.90625 55.328125 
Q 53.90625 49.265625 50.4375 45.09375 
Q 46.96875 40.921875 40.578125 39.3125 
z
" id="DejaVuSans-51"/>
      </defs>
      <g transform="translate(37.875 94.753948)scale(0.1 -0.1)">
       <use xlink:href="#DejaVuSans-51"/>
       <use x="63.623047" xlink:href="#DejaVuSans-48"/>
      </g>
     </g>
    </g>
    <g id="ytick_7">
     <g id="line2d_12">
      <g>
       <use style="stroke:#000000;stroke-width:0.8;" x="57.6" xlink:href="#m24abe4fbc5" y="52.718187"/>
      </g>
     </g>
     <g id="text_12">
      <!-- 40 -->
      <g transform="translate(37.875 56.517406)scale(0.1 -0.1)">
       <use xlink:href="#DejaVuSans-52"/>
       <use x="63.623047" xlink:href="#DejaVuSans-48"/>
      </g>
     </g>
    </g>
   </g>
   <g id="line2d_13">
    <path clip-path="url(#p184e35d436)" d="M 238.981824 205.664358 
L 238.981824 205.664358 
L 238.964247 205.31433 
L 238.943544 204.954163 
L 238.914781 204.580478 
L 238.872345 204.183419 
L 238.818412 203.748174 
L 238.752404 203.263348 
L 238.66539 202.731846 
L 238.564855 202.14973 
L 238.440648 201.527497 
L 238.287426 200.879521 
L 238.092578 200.213192 
L 237.859738 199.530681 
L 237.598994 198.825217 
L 237.312323 198.096463 
L 236.983995 197.355481 
L 236.610799 196.607111 
L 236.210266 195.85405 
L 235.771891 195.11763 
L 235.277624 194.382987 
L 234.761913 193.650111 
L 234.229924 192.919717 
L 233.657481 192.193517 
L 232.999923 191.492874 
L 232.246197 190.825892 
L 231.451668 190.180478 
L 230.616299 189.544275 
L 229.745683 188.90761 
L 228.798874 188.302008 
L 227.781901 187.74029 
L 226.686817 187.21739 
L 225.530823 186.744236 
L 224.310634 186.327102 
L 223.009923 185.959278 
L 221.644094 185.652139 
L 220.203571 185.389619 
L 218.719022 185.165965 
L 217.181806 185.010148 
L 215.573064 184.935219 
L 213.902498 184.910809 
L 212.181483 184.924792 
L 210.406026 184.975723 
L 208.582201 185.057607 
L 206.692547 185.193874 
L 204.74862 185.357966 
L 202.732139 185.537143 
L 200.65726 185.738428 
L 198.530582 185.960781 
L 196.337602 186.208229 
L 194.094378 186.447131 
L 191.782176 186.680523 
L 189.410937 186.921524 
L 186.979552 187.174386 
L 184.488479 187.436138 
L 181.9581 187.703266 
L 179.356829 187.960843 
L 176.690748 188.215869 
L 173.961424 188.478447 
L 171.176121 188.73883 
L 168.351932 188.996097 
L 165.474861 189.257119 
L 162.55336 189.5166 
L 159.552671 189.75058 
L 156.526707 189.986546 
L 153.468893 190.232239 
L 150.410122 190.480554 
L 147.330742 190.717808 
L 144.19546 190.946914 
L 141.02416 191.187701 
L 137.802731 191.454347 
L 134.567193 191.728087 
L 131.334982 192.015667 
L 128.10495 192.308724 
L 124.894648 192.593349 
L 121.694134 192.870235 
L 118.476071 193.1534 
L 115.269707 193.433173 
L 112.05497 193.720692 
L 108.877169 193.997391 
L 105.689082 194.268499 
L 102.491169 194.53515 
L 99.290541 194.793185 
L 96.077524 195.05345 
L 92.861793 195.313783 
L 89.671259 195.574289 
L 86.488105 195.828937 
L 83.314319 196.086846 
L 80.153343 196.349347 
L 76.991945 196.628788 
L 73.832727 196.907406 
" style="fill:none;stroke:#008000;stroke-linecap:square;stroke-width:1.5;"/>
   </g>
   <g id="line2d_14">
    <path clip-path="url(#p184e35d436)" d="M 238.981824 205.664358 
L 238.981824 205.664358 
L 238.945326 205.315761 
L 238.908583 204.956886 
L 238.876705 204.58344 
L 238.842851 204.185765 
L 238.829016 203.747635 
L 238.802392 203.259159 
L 238.788723 202.721468 
L 238.778522 202.131205 
L 238.782536 201.496803 
L 238.819581 200.831901 
L 238.895162 200.141376 
L 239.009427 199.42861 
L 239.106009 198.682076 
L 239.221969 197.907771 
L 239.40349 197.117928 
L 239.604236 196.3062 
L 239.832871 195.48492 
L 240.116401 194.676257 
L 240.440053 193.85211 
L 240.762645 193.016499 
L 241.104485 192.180706 
L 241.508726 191.349148 
L 242.009734 190.529279 
L 242.589808 189.706699 
L 243.207237 188.890338 
L 243.886641 188.089727 
L 244.594673 187.276226 
L 245.384909 186.477581 
L 246.264881 185.719066 
L 247.190998 184.934935 
L 248.201855 184.201908 
L 249.301138 183.528181 
L 250.483913 182.874204 
L 251.748657 182.274223 
L 253.086409 181.678859 
L 254.482945 181.128084 
L 255.950618 180.645256 
L 257.504437 180.22213 
L 259.127494 179.825617 
L 260.815372 179.487639 
L 262.560505 179.156505 
L 264.356669 178.829803 
L 266.231876 178.559007 
L 268.166531 178.307747 
L 270.173662 178.043986 
L 272.243871 177.798516 
L 274.36679 177.542161 
L 276.560089 177.297255 
L 278.801807 177.042844 
L 281.109281 176.764539 
L 283.473494 176.460319 
L 285.903518 176.194103 
L 288.392569 175.912761 
L 290.916765 175.591131 
L 293.514381 175.297204 
L 296.170544 174.954898 
L 298.893719 174.63295 
L 301.669565 174.28367 
L 304.484927 173.938703 
L 307.352462 173.588234 
L 310.267714 173.261283 
L 313.24637 172.826971 
L 316.248925 172.381704 
L 319.28738 171.955451 
L 322.329073 171.545765 
L 325.386195 171.105613 
L 328.499609 170.669432 
L 331.65487 170.26775 
L 334.85771 169.829523 
L 338.07936 169.422388 
L 341.298812 169.011913 
L 344.513076 168.57625 
L 347.706545 168.140565 
L 350.88863 167.697376 
L 354.094465 167.295128 
L 357.28629 166.878723 
L 360.487052 166.461563 
L 363.648468 166.036497 
L 366.822873 165.63388 
L 369.999297 165.178037 
L 373.178732 164.728889 
L 376.372406 164.291052 
L 379.558346 163.782546 
L 382.733269 163.372322 
L 385.893772 162.914909 
L 389.050305 162.491759 
L 392.196021 162.082009 
L 395.341857 161.662281 
L 398.487273 161.254666 
" style="fill:none;stroke:#0000ff;stroke-linecap:square;stroke-width:1.5;"/>
   </g>
   <g id="line2d_15">
    <path clip-path="url(#p184e35d436)" d="M 238.981824 205.664358 
L 238.981824 205.664358 
L 238.720023 205.536241 
L 238.704981 205.175682 
L 238.68219 204.801466 
L 238.307865 204.670072 
L 237.888242 204.542743 
L 237.432992 204.366601 
L 237.296181 203.84781 
L 237.17308 203.270283 
L 236.600559 203.001877 
L 236.59244 202.340739 
L 235.909667 202.246866 
L 235.954687 201.542035 
L 235.621279 200.867146 
L 234.85467 200.866919 
L 234.657738 200.081388 
L 233.838954 199.935308 
L 233.49153 199.159008 
L 233.220742 198.34584 
L 232.978389 197.494664 
L 232.095905 197.375837 
L 231.769703 196.533189 
L 231.416036 195.67891 
L 231.028351 194.799912 
L 230.42333 193.996016 
L 229.796111 193.18723 
L 228.768361 193.328737 
L 228.090023 192.492131 
L 227.009416 192.799161 
L 225.908382 192.43729 
L 224.85702 192.992997 
L 223.718543 193.495448 
L 222.758368 192.637562 
L 221.762587 191.727135 
L 220.519629 191.08425 
L 219.567859 192.194043 
L 218.529208 193.274838 
L 217.440913 194.363149 
L 216.075475 193.511706 
L 215.232567 194.889592 
L 214.391009 196.354501 
L 212.844601 195.480103 
L 211.301206 194.511288 
L 209.572736 193.735138 
L 207.644042 193.455441 
L 205.659817 193.054481 
L 203.652429 192.49911 
L 201.675066 191.685458 
L 199.618636 190.885259 
L 197.514266 190.072416 
L 195.328063 189.283794 
L 193.150016 188.315355 
L 190.914765 187.325975 
L 188.645214 186.26619 
L 186.349087 185.168997 
L 183.951835 184.12539 
L 181.490963 183.066572 
L 178.964212 182.000395 
L 176.403753 180.873191 
L 173.812599 179.71992 
L 171.166468 178.558028 
L 168.473371 177.394434 
L 165.75119 176.108426 
L 162.957124 174.921225 
L 160.131452 173.72611 
L 157.31607 172.50441 
L 154.443959 171.367964 
L 151.536453 170.172297 
L 148.589645 168.978225 
L 145.554505 167.866045 
L 142.492898 166.783126 
L 139.523373 165.474138 
L 136.535576 164.213796 
L 133.548645 163.00318 
L 130.584 161.766425 
L 127.60185 160.523644 
L 124.629041 159.289905 
L 121.655604 158.038243 
L 118.682583 156.880762 
L 115.71692 155.681224 
L 112.794258 154.357626 
L 109.842091 153.096023 
L 106.854225 151.893216 
L 103.902126 150.590269 
L 100.936525 149.383487 
L 97.971408 148.197898 
L 95.007763 147.03428 
L 92.088343 145.79777 
L 89.177071 144.539781 
L 86.221477 143.391642 
" style="fill:none;stroke:#ff0000;stroke-linecap:square;stroke-width:1.5;"/>
   </g>
   <g id="patch_3">
    <path d="M 57.6 307.584 
L 57.6 41.472 
" style="fill:none;stroke:#000000;stroke-linecap:square;stroke-linejoin:miter;stroke-width:0.8;"/>
   </g>
   <g id="patch_4">
    <path d="M 414.72 307.584 
L 414.72 41.472 
" style="fill:none;stroke:#000000;stroke-linecap:square;stroke-linejoin:miter;stroke-width:0.8;"/>
   </g>
   <g id="patch_5">
    <path d="M 57.6 307.584 
L 414.72 307.584 
" style="fill:none;stroke:#000000;stroke-linecap:square;stroke-linejoin:miter;stroke-width:0.8;"/>
   </g>
   <g id="patch_6">
    <path d="M 57.6 41.472 
L 414.72 41.472 
" style="fill:none;stroke:#000000;stroke-linecap:square;stroke-linejoin:miter;stroke-width:0.8;"/>
   </g>
  </g>
 </g>
 <defs>
  <clipPath id="p184e35d436">
   <rect height="266.112" width="357.12" x="57.6" y="41.472"/>
  </clipPath>
 </defs>
</svg>
