<?xml version="1.0" encoding="utf-8" standalone="no"?>
<!DOCTYPE svg PUBLIC "-//W3C//DTD SVG 1.1//EN"
  "http://www.w3.org/Graphics/SVG/1.1/DTD/svg11.dtd">
<!-- Created with matplotlib (https://matplotlib.org/) -->
<svg height="345.6pt" version="1.1" viewBox="0 0 460.8 345.6" width="460.8pt" xmlns="http://www.w3.org/2000/svg" xmlns:xlink="http://www.w3.org/1999/xlink">
 <defs>
  <style type="text/css">
*{stroke-linecap:butt;stroke-linejoin:round;}
  </style>
 </defs>
 <g id="figure_1">
  <g id="patch_1">
   <path d="M 0 345.6 
L 460.8 345.6 
L 460.8 0 
L 0 0 
z
" style="fill:#ffffff;"/>
  </g>
  <g id="axes_1">
   <g id="patch_2">
    <path d="M 57.6 307.584 
L 414.72 307.584 
L 414.72 41.472 
L 57.6 41.472 
z
" style="fill:#ffffff;"/>
   </g>
   <g id="matplotlib.axis_1">
    <g id="xtick_1">
     <g id="line2d_1">
      <defs>
       <path d="M 0 0 
L 0 3.5 
" id="m8e1e8cb93d" style="stroke:#000000;stroke-width:0.8;"/>
      </defs>
      <g>
       <use style="stroke:#000000;stroke-width:0.8;" x="64.541988" xlink:href="#m8e1e8cb93d" y="307.584"/>
      </g>
     </g>
     <g id="text_1">
      <!-- −35 -->
      <defs>
       <path d="M 10.59375 35.5 
L 73.1875 35.5 
L 73.1875 27.203125 
L 10.59375 27.203125 
z
" id="DejaVuSans-8722"/>
       <path d="M 40.578125 39.3125 
Q 47.65625 37.796875 51.625 33 
Q 55.609375 28.21875 55.609375 21.1875 
Q 55.609375 10.40625 48.1875 4.484375 
Q 40.765625 -1.421875 27.09375 -1.421875 
Q 22.515625 -1.421875 17.65625 -0.515625 
Q 12.796875 0.390625 7.625 2.203125 
L 7.625 11.71875 
Q 11.71875 9.328125 16.59375 8.109375 
Q 21.484375 6.890625 26.8125 6.890625 
Q 36.078125 6.890625 40.9375 10.546875 
Q 45.796875 14.203125 45.796875 21.1875 
Q 45.796875 27.640625 41.28125 31.265625 
Q 36.765625 34.90625 28.71875 34.90625 
L 20.21875 34.90625 
L 20.21875 43.015625 
L 29.109375 43.015625 
Q 36.375 43.015625 40.234375 45.921875 
Q 44.09375 48.828125 44.09375 54.296875 
Q 44.09375 59.90625 40.109375 62.90625 
Q 36.140625 65.921875 28.71875 65.921875 
Q 24.65625 65.921875 20.015625 65.03125 
Q 15.375 64.15625 9.8125 62.3125 
L 9.8125 71.09375 
Q 15.4375 72.65625 20.34375 73.4375 
Q 25.25 74.21875 29.59375 74.21875 
Q 40.828125 74.21875 47.359375 69.109375 
Q 53.90625 64.015625 53.90625 55.328125 
Q 53.90625 49.265625 50.4375 45.09375 
Q 46.96875 40.921875 40.578125 39.3125 
z
" id="DejaVuSans-51"/>
       <path d="M 10.796875 72.90625 
L 49.515625 72.90625 
L 49.515625 64.59375 
L 19.828125 64.59375 
L 19.828125 46.734375 
Q 21.96875 47.46875 24.109375 47.828125 
Q 26.265625 48.1875 28.421875 48.1875 
Q 40.625 48.1875 47.75 41.5 
Q 54.890625 34.8125 54.890625 23.390625 
Q 54.890625 11.625 47.5625 5.09375 
Q 40.234375 -1.421875 26.90625 -1.421875 
Q 22.3125 -1.421875 17.546875 -0.640625 
Q 12.796875 0.140625 7.71875 1.703125 
L 7.71875 11.625 
Q 12.109375 9.234375 16.796875 8.0625 
Q 21.484375 6.890625 26.703125 6.890625 
Q 35.15625 6.890625 40.078125 11.328125 
Q 45.015625 15.765625 45.015625 23.390625 
Q 45.015625 31 40.078125 35.4375 
Q 35.15625 39.890625 26.703125 39.890625 
Q 22.75 39.890625 18.8125 39.015625 
Q 14.890625 38.140625 10.796875 36.28125 
z
" id="DejaVuSans-53"/>
      </defs>
      <g transform="translate(53.989644 322.182437)scale(0.1 -0.1)">
       <use xlink:href="#DejaVuSans-8722"/>
       <use x="83.789062" xlink:href="#DejaVuSans-51"/>
       <use x="147.412109" xlink:href="#DejaVuSans-53"/>
      </g>
     </g>
    </g>
    <g id="xtick_2">
     <g id="line2d_2">
      <g>
       <use style="stroke:#000000;stroke-width:0.8;" x="112.248457" xlink:href="#m8e1e8cb93d" y="307.584"/>
      </g>
     </g>
     <g id="text_2">
      <!-- −30 -->
      <defs>
       <path d="M 31.78125 66.40625 
Q 24.171875 66.40625 20.328125 58.90625 
Q 16.5 51.421875 16.5 36.375 
Q 16.5 21.390625 20.328125 13.890625 
Q 24.171875 6.390625 31.78125 6.390625 
Q 39.453125 6.390625 43.28125 13.890625 
Q 47.125 21.390625 47.125 36.375 
Q 47.125 51.421875 43.28125 58.90625 
Q 39.453125 66.40625 31.78125 66.40625 
z
M 31.78125 74.21875 
Q 44.046875 74.21875 50.515625 64.515625 
Q 56.984375 54.828125 56.984375 36.375 
Q 56.984375 17.96875 50.515625 8.265625 
Q 44.046875 -1.421875 31.78125 -1.421875 
Q 19.53125 -1.421875 13.0625 8.265625 
Q 6.59375 17.96875 6.59375 36.375 
Q 6.59375 54.828125 13.0625 64.515625 
Q 19.53125 74.21875 31.78125 74.21875 
z
" id="DejaVuSans-48"/>
      </defs>
      <g transform="translate(101.696113 322.182437)scale(0.1 -0.1)">
       <use xlink:href="#DejaVuSans-8722"/>
       <use x="83.789062" xlink:href="#DejaVuSans-51"/>
       <use x="147.412109" xlink:href="#DejaVuSans-48"/>
      </g>
     </g>
    </g>
    <g id="xtick_3">
     <g id="line2d_3">
      <g>
       <use style="stroke:#000000;stroke-width:0.8;" x="159.954926" xlink:href="#m8e1e8cb93d" y="307.584"/>
      </g>
     </g>
     <g id="text_3">
      <!-- −25 -->
      <defs>
       <path d="M 19.1875 8.296875 
L 53.609375 8.296875 
L 53.609375 0 
L 7.328125 0 
L 7.328125 8.296875 
Q 12.9375 14.109375 22.625 23.890625 
Q 32.328125 33.6875 34.8125 36.53125 
Q 39.546875 41.84375 41.421875 45.53125 
Q 43.3125 49.21875 43.3125 52.78125 
Q 43.3125 58.59375 39.234375 62.25 
Q 35.15625 65.921875 28.609375 65.921875 
Q 23.96875 65.921875 18.8125 64.3125 
Q 13.671875 62.703125 7.8125 59.421875 
L 7.8125 69.390625 
Q 13.765625 71.78125 18.9375 73 
Q 24.125 74.21875 28.421875 74.21875 
Q 39.75 74.21875 46.484375 68.546875 
Q 53.21875 62.890625 53.21875 53.421875 
Q 53.21875 48.921875 51.53125 44.890625 
Q 49.859375 40.875 45.40625 35.40625 
Q 44.1875 33.984375 37.640625 27.21875 
Q 31.109375 20.453125 19.1875 8.296875 
z
" id="DejaVuSans-50"/>
      </defs>
      <g transform="translate(149.402583 322.182437)scale(0.1 -0.1)">
       <use xlink:href="#DejaVuSans-8722"/>
       <use x="83.789062" xlink:href="#DejaVuSans-50"/>
       <use x="147.412109" xlink:href="#DejaVuSans-53"/>
      </g>
     </g>
    </g>
    <g id="xtick_4">
     <g id="line2d_4">
      <g>
       <use style="stroke:#000000;stroke-width:0.8;" x="207.661396" xlink:href="#m8e1e8cb93d" y="307.584"/>
      </g>
     </g>
     <g id="text_4">
      <!-- −20 -->
      <g transform="translate(197.109052 322.182437)scale(0.1 -0.1)">
       <use xlink:href="#DejaVuSans-8722"/>
       <use x="83.789062" xlink:href="#DejaVuSans-50"/>
       <use x="147.412109" xlink:href="#DejaVuSans-48"/>
      </g>
     </g>
    </g>
    <g id="xtick_5">
     <g id="line2d_5">
      <g>
       <use style="stroke:#000000;stroke-width:0.8;" x="255.367865" xlink:href="#m8e1e8cb93d" y="307.584"/>
      </g>
     </g>
     <g id="text_5">
      <!-- −15 -->
      <defs>
       <path d="M 12.40625 8.296875 
L 28.515625 8.296875 
L 28.515625 63.921875 
L 10.984375 60.40625 
L 10.984375 69.390625 
L 28.421875 72.90625 
L 38.28125 72.90625 
L 38.28125 8.296875 
L 54.390625 8.296875 
L 54.390625 0 
L 12.40625 0 
z
" id="DejaVuSans-49"/>
      </defs>
      <g transform="translate(244.815521 322.182437)scale(0.1 -0.1)">
       <use xlink:href="#DejaVuSans-8722"/>
       <use x="83.789062" xlink:href="#DejaVuSans-49"/>
       <use x="147.412109" xlink:href="#DejaVuSans-53"/>
      </g>
     </g>
    </g>
    <g id="xtick_6">
     <g id="line2d_6">
      <g>
       <use style="stroke:#000000;stroke-width:0.8;" x="303.074334" xlink:href="#m8e1e8cb93d" y="307.584"/>
      </g>
     </g>
     <g id="text_6">
      <!-- −10 -->
      <g transform="translate(292.52199 322.182437)scale(0.1 -0.1)">
       <use xlink:href="#DejaVuSans-8722"/>
       <use x="83.789062" xlink:href="#DejaVuSans-49"/>
       <use x="147.412109" xlink:href="#DejaVuSans-48"/>
      </g>
     </g>
    </g>
    <g id="xtick_7">
     <g id="line2d_7">
      <g>
       <use style="stroke:#000000;stroke-width:0.8;" x="350.780803" xlink:href="#m8e1e8cb93d" y="307.584"/>
      </g>
     </g>
     <g id="text_7">
      <!-- −5 -->
      <g transform="translate(343.40971 322.182437)scale(0.1 -0.1)">
       <use xlink:href="#DejaVuSans-8722"/>
       <use x="83.789062" xlink:href="#DejaVuSans-53"/>
      </g>
     </g>
    </g>
    <g id="xtick_8">
     <g id="line2d_8">
      <g>
       <use style="stroke:#000000;stroke-width:0.8;" x="398.487273" xlink:href="#m8e1e8cb93d" y="307.584"/>
      </g>
     </g>
     <g id="text_8">
      <!-- 0 -->
      <g transform="translate(395.306023 322.182437)scale(0.1 -0.1)">
       <use xlink:href="#DejaVuSans-48"/>
      </g>
     </g>
    </g>
   </g>
   <g id="matplotlib.axis_2">
    <g id="ytick_1">
     <g id="line2d_9">
      <defs>
       <path d="M 0 0 
L -3.5 0 
" id="m69c130fa0b" style="stroke:#000000;stroke-width:0.8;"/>
      </defs>
      <g>
       <use style="stroke:#000000;stroke-width:0.8;" x="57.6" xlink:href="#m69c130fa0b" y="295.834455"/>
      </g>
     </g>
     <g id="text_9">
      <!-- −10 -->
      <g transform="translate(29.495313 299.633674)scale(0.1 -0.1)">
       <use xlink:href="#DejaVuSans-8722"/>
       <use x="83.789062" xlink:href="#DejaVuSans-49"/>
       <use x="147.412109" xlink:href="#DejaVuSans-48"/>
      </g>
     </g>
    </g>
    <g id="ytick_2">
     <g id="line2d_10">
      <g>
       <use style="stroke:#000000;stroke-width:0.8;" x="57.6" xlink:href="#m69c130fa0b" y="248.127986"/>
      </g>
     </g>
     <g id="text_10">
      <!-- −5 -->
      <g transform="translate(35.857813 251.927204)scale(0.1 -0.1)">
       <use xlink:href="#DejaVuSans-8722"/>
       <use x="83.789062" xlink:href="#DejaVuSans-53"/>
      </g>
     </g>
    </g>
    <g id="ytick_3">
     <g id="line2d_11">
      <g>
       <use style="stroke:#000000;stroke-width:0.8;" x="57.6" xlink:href="#m69c130fa0b" y="200.421516"/>
      </g>
     </g>
     <g id="text_11">
      <!-- 0 -->
      <g transform="translate(44.2375 204.220735)scale(0.1 -0.1)">
       <use xlink:href="#DejaVuSans-48"/>
      </g>
     </g>
    </g>
    <g id="ytick_4">
     <g id="line2d_12">
      <g>
       <use style="stroke:#000000;stroke-width:0.8;" x="57.6" xlink:href="#m69c130fa0b" y="152.715047"/>
      </g>
     </g>
     <g id="text_12">
      <!-- 5 -->
      <g transform="translate(44.2375 156.514266)scale(0.1 -0.1)">
       <use xlink:href="#DejaVuSans-53"/>
      </g>
     </g>
    </g>
    <g id="ytick_5">
     <g id="line2d_13">
      <g>
       <use style="stroke:#000000;stroke-width:0.8;" x="57.6" xlink:href="#m69c130fa0b" y="105.008578"/>
      </g>
     </g>
     <g id="text_13">
      <!-- 10 -->
      <g transform="translate(37.875 108.807796)scale(0.1 -0.1)">
       <use xlink:href="#DejaVuSans-49"/>
       <use x="63.623047" xlink:href="#DejaVuSans-48"/>
      </g>
     </g>
    </g>
    <g id="ytick_6">
     <g id="line2d_14">
      <g>
       <use style="stroke:#000000;stroke-width:0.8;" x="57.6" xlink:href="#m69c130fa0b" y="57.302108"/>
      </g>
     </g>
     <g id="text_14">
      <!-- 15 -->
      <g transform="translate(37.875 61.101327)scale(0.1 -0.1)">
       <use xlink:href="#DejaVuSans-49"/>
       <use x="63.623047" xlink:href="#DejaVuSans-53"/>
      </g>
     </g>
    </g>
   </g>
   <g id="line2d_15">
    <path clip-path="url(#p9be2a865d9)" d="M 398.487273 200.421516 
L 398.443414 199.54808 
L 398.391753 198.649342 
L 398.319978 197.716872 
L 398.214087 196.726078 
L 398.079507 195.639996 
L 397.914794 194.430195 
L 397.697665 193.10392 
L 397.446797 191.651345 
L 397.13686 190.098666 
L 396.754519 188.481751 
L 396.268308 186.819038 
L 395.687294 185.115945 
L 395.036652 183.355576 
L 394.321312 181.537092 
L 393.502024 179.688094 
L 392.570774 177.820662 
L 391.571312 175.941524 
L 390.47742 174.103909 
L 389.244057 172.27073 
L 387.957186 170.44196 
L 386.629696 168.619382 
L 385.20126 166.807271 
L 383.560434 165.058934 
L 381.679635 163.394589 
L 379.697021 161.784066 
L 377.612496 160.196528 
L 375.44002 158.607836 
L 373.077414 157.096657 
L 370.539726 155.694984 
L 367.807128 154.390174 
L 364.922537 153.209496 
L 361.877758 152.168608 
L 358.632048 151.250764 
L 355.22385 150.48435 
L 351.629263 149.829273 
L 347.924817 149.271184 
L 344.08895 148.882367 
L 340.074603 148.695395 
L 335.905984 148.634484 
L 331.611476 148.669376 
L 327.181119 148.796466 
L 322.630065 149.000793 
L 317.914748 149.340826 
L 313.064002 149.75029 
L 308.03221 150.197395 
L 302.854694 150.699668 
L 297.547921 151.254513 
L 292.075703 151.871978 
L 286.478112 152.468118 
L 280.708396 153.050509 
L 274.791363 153.651888 
L 268.724245 154.282863 
L 262.508188 154.936022 
L 256.194046 155.602596 
L 249.703008 156.245335 
L 243.050245 156.881711 
L 236.23967 157.536931 
L 229.28941 158.186674 
L 222.242115 158.828641 
L 215.062864 159.479977 
L 207.772743 160.127468 
L 200.285021 160.711329 
L 192.734232 161.300141 
L 185.103964 161.913226 
L 177.471311 162.532857 
L 169.78723 163.124885 
L 161.963655 163.69658 
L 154.050201 164.297424 
L 146.011661 164.962796 
L 137.937914 165.645866 
L 129.872467 166.363477 
L 121.812459 167.09475 
L 113.801684 167.804985 
L 105.815335 168.495908 
L 97.785191 169.202498 
L 89.784244 169.900625 
L 81.762401 170.618083 
L 73.832727 171.308538 
" style="fill:none;stroke:#008000;stroke-linecap:square;stroke-width:1.5;"/>
   </g>
   <g id="line2d_16">
    <path clip-path="url(#p9be2a865d9)" d="M 398.487273 200.421516 
L 398.427488 199.774481 
L 398.372517 199.115911 
L 398.323433 198.425829 
L 398.204127 197.624442 
L 398.094741 196.853263 
L 397.951022 195.988201 
L 397.78328 195.030465 
L 397.587792 194.009079 
L 397.36865 192.914345 
L 397.089163 191.768812 
L 396.732459 190.684765 
L 396.337873 189.633147 
L 395.879826 188.507291 
L 395.399241 187.366372 
L 394.852307 186.149289 
L 394.251545 184.923671 
L 393.626324 183.745953 
L 392.940592 182.595281 
L 392.154045 181.409188 
L 391.343796 180.193422 
L 390.518421 179.029737 
L 389.633196 177.868198 
L 388.680803 176.759587 
L 387.509528 175.656337 
L 386.288929 174.593782 
L 384.989258 173.602518 
L 383.639476 172.508555 
L 382.227091 171.541468 
L 380.703103 170.596472 
L 379.031781 169.758505 
L 377.290244 168.94594 
L 375.404423 168.257525 
L 373.393475 167.634555 
L 371.23056 167.088124 
L 369.03216 166.6349 
L 366.54632 166.214753 
L 363.961781 165.884746 
L 361.129121 165.727192 
L 358.349096 165.647203 
L 355.405115 165.614016 
L 352.348682 165.652321 
L 348.645866 165.735194 
L 344.528137 165.968101 
L 340.124048 166.286286 
L 336.215735 166.555852 
L 332.810528 166.812845 
L 329.397218 167.108626 
L 325.931578 167.414599 
L 322.460159 167.745441 
L 318.880495 168.019917 
L 315.182955 168.326891 
L 311.390292 168.621618 
L 307.439038 168.980309 
L 303.362571 169.316515 
L 299.407589 169.600133 
L 295.230143 169.932024 
L 290.727261 170.263665 
L 283.762984 170.767784 
L 278.681707 171.161789 
L 269.912398 171.916069 
L 265.120487 172.276986 
L 259.973132 172.57915 
L 254.61226 172.881625 
L 248.870836 173.228099 
L 243.459282 173.523517 
L 238.070105 173.836322 
L 232.855911 174.182991 
L 228.001051 174.428102 
L 222.961294 174.710256 
L 217.909399 175.036809 
L 212.767253 175.344462 
L 207.504962 175.689162 
L 202.065841 176.072042 
L 196.981735 176.379628 
L 191.409476 176.769551 
L 185.443737 177.122888 
L 178.087736 177.643446 
L 170.823187 178.089111 
" style="fill:none;stroke:#0000ff;stroke-linecap:square;stroke-width:1.5;"/>
   </g>
   <g id="line2d_17">
    <path clip-path="url(#p9be2a865d9)" d="M 398.487273 200.421516 
L 398.427488 199.774481 
L 398.372517 199.115911 
L 398.323432 198.425829 
L 398.204126 197.624442 
L 398.09474 196.853263 
L 397.95102 195.988201 
L 397.783277 195.030465 
L 397.587788 194.009079 
L 397.368645 192.914346 
L 397.089157 191.768813 
L 396.732452 190.684766 
L 396.337865 189.633149 
L 395.879817 188.507294 
L 395.399231 187.366375 
L 394.852296 186.149292 
L 394.251534 184.923674 
L 393.626312 183.745956 
L 392.940579 182.595286 
L 392.154032 181.409193 
L 391.343781 180.193427 
L 390.518406 179.029742 
L 389.633181 177.868204 
L 388.680787 176.759593 
L 387.509512 175.656345 
L 386.288968 174.59372 
L 384.989373 173.602356 
L 383.63954 172.508458 
L 382.225865 171.543333 
L 380.754194 170.519622 
L 379.118024 169.61566 
L 377.365282 168.827359 
L 375.528952 168.019635 
L 373.553746 167.29314 
L 371.386891 166.762492 
L 369.185219 166.32528 
L 366.696351 165.923232 
L 364.109451 165.612059 
L 361.27568 165.47511 
L 358.495107 165.415339 
L 355.550878 165.403468 
L 352.494741 165.463947 
L 348.792607 165.573802 
L 344.676648 165.83668 
L 340.274944 166.186889 
L 336.368622 166.48481 
L 332.965323 166.766529 
L 329.554251 167.087194 
L 326.09095 167.418485 
L 322.621989 167.774555 
L 319.044381 168.075067 
L 315.349115 168.408887 
L 311.558683 168.731247 
L 307.610116 169.118695 
L 303.536166 169.484557 
L 299.583277 169.797033 
L 295.408246 170.158997 
L 290.907802 170.523328 
L 283.947358 171.079035 
L 278.869008 171.510563 
L 270.105275 172.329548 
L 265.316052 172.725863 
L 260.170958 173.066071 
L 254.812369 173.4082 
L 249.073619 173.797977 
L 243.664431 174.135465 
L 238.277806 174.490563 
L 233.066315 174.877369 
L 228.213254 175.158908 
L 223.175721 175.479419 
L 218.126355 175.84433 
L 212.986557 176.190981 
L 207.726904 176.5756 
L 202.290758 176.999797 
L 197.209001 177.345945 
L 191.639746 177.778161 
L 185.676721 178.176764 
L 178.324721 178.753148 
L 171.063624 179.253971 
" style="fill:none;stroke:#ff0000;stroke-linecap:square;stroke-width:1.5;"/>
   </g>
   <g id="patch_3">
    <path d="M 57.6 307.584 
L 57.6 41.472 
" style="fill:none;stroke:#000000;stroke-linecap:square;stroke-linejoin:miter;stroke-width:0.8;"/>
   </g>
   <g id="patch_4">
    <path d="M 414.72 307.584 
L 414.72 41.472 
" style="fill:none;stroke:#000000;stroke-linecap:square;stroke-linejoin:miter;stroke-width:0.8;"/>
   </g>
   <g id="patch_5">
    <path d="M 57.6 307.584 
L 414.72 307.584 
" style="fill:none;stroke:#000000;stroke-linecap:square;stroke-linejoin:miter;stroke-width:0.8;"/>
   </g>
   <g id="patch_6">
    <path d="M 57.6 41.472 
L 414.72 41.472 
" style="fill:none;stroke:#000000;stroke-linecap:square;stroke-linejoin:miter;stroke-width:0.8;"/>
   </g>
  </g>
 </g>
 <defs>
  <clipPath id="p9be2a865d9">
   <rect height="266.112" width="357.12" x="57.6" y="41.472"/>
  </clipPath>
 </defs>
</svg>
