<?xml version="1.0" encoding="utf-8" standalone="no"?>
<!DOCTYPE svg PUBLIC "-//W3C//DTD SVG 1.1//EN"
  "http://www.w3.org/Graphics/SVG/1.1/DTD/svg11.dtd">
<!-- Created with matplotlib (https://matplotlib.org/) -->
<svg height="345.6pt" version="1.1" viewBox="0 0 460.8 345.6" width="460.8pt" xmlns="http://www.w3.org/2000/svg" xmlns:xlink="http://www.w3.org/1999/xlink">
 <defs>
  <style type="text/css">
*{stroke-linecap:butt;stroke-linejoin:round;}
  </style>
 </defs>
 <g id="figure_1">
  <g id="patch_1">
   <path d="M 0 345.6 
L 460.8 345.6 
L 460.8 0 
L 0 0 
z
" style="fill:#ffffff;"/>
  </g>
  <g id="axes_1">
   <g id="patch_2">
    <path d="M 57.6 307.584 
L 414.72 307.584 
L 414.72 41.472 
L 57.6 41.472 
z
" style="fill:#ffffff;"/>
   </g>
   <g id="matplotlib.axis_1">
    <g id="xtick_1">
     <g id="line2d_1">
      <defs>
       <path d="M 0 0 
L 0 3.5 
" id="m886a3f3d1d" style="stroke:#000000;stroke-width:0.8;"/>
      </defs>
      <g>
       <use style="stroke:#000000;stroke-width:0.8;" x="134.480963" xlink:href="#m886a3f3d1d" y="307.584"/>
      </g>
     </g>
     <g id="text_1">
      <!-- −100 -->
      <defs>
       <path d="M 10.59375 35.5 
L 73.1875 35.5 
L 73.1875 27.203125 
L 10.59375 27.203125 
z
" id="DejaVuSans-8722"/>
       <path d="M 12.40625 8.296875 
L 28.515625 8.296875 
L 28.515625 63.921875 
L 10.984375 60.40625 
L 10.984375 69.390625 
L 28.421875 72.90625 
L 38.28125 72.90625 
L 38.28125 8.296875 
L 54.390625 8.296875 
L 54.390625 0 
L 12.40625 0 
z
" id="DejaVuSans-49"/>
       <path d="M 31.78125 66.40625 
Q 24.171875 66.40625 20.328125 58.90625 
Q 16.5 51.421875 16.5 36.375 
Q 16.5 21.390625 20.328125 13.890625 
Q 24.171875 6.390625 31.78125 6.390625 
Q 39.453125 6.390625 43.28125 13.890625 
Q 47.125 21.390625 47.125 36.375 
Q 47.125 51.421875 43.28125 58.90625 
Q 39.453125 66.40625 31.78125 66.40625 
z
M 31.78125 74.21875 
Q 44.046875 74.21875 50.515625 64.515625 
Q 56.984375 54.828125 56.984375 36.375 
Q 56.984375 17.96875 50.515625 8.265625 
Q 44.046875 -1.421875 31.78125 -1.421875 
Q 19.53125 -1.421875 13.0625 8.265625 
Q 6.59375 17.96875 6.59375 36.375 
Q 6.59375 54.828125 13.0625 64.515625 
Q 19.53125 74.21875 31.78125 74.21875 
z
" id="DejaVuSans-48"/>
      </defs>
      <g transform="translate(120.747369 322.182437)scale(0.1 -0.1)">
       <use xlink:href="#DejaVuSans-8722"/>
       <use x="83.789062" xlink:href="#DejaVuSans-49"/>
       <use x="147.412109" xlink:href="#DejaVuSans-48"/>
       <use x="211.035156" xlink:href="#DejaVuSans-48"/>
      </g>
     </g>
    </g>
    <g id="xtick_2">
     <g id="line2d_2">
      <g>
       <use style="stroke:#000000;stroke-width:0.8;" x="213.190857" xlink:href="#m886a3f3d1d" y="307.584"/>
      </g>
     </g>
     <g id="text_2">
      <!-- 0 -->
      <g transform="translate(210.009607 322.182437)scale(0.1 -0.1)">
       <use xlink:href="#DejaVuSans-48"/>
      </g>
     </g>
    </g>
    <g id="xtick_3">
     <g id="line2d_3">
      <g>
       <use style="stroke:#000000;stroke-width:0.8;" x="291.900751" xlink:href="#m886a3f3d1d" y="307.584"/>
      </g>
     </g>
     <g id="text_3">
      <!-- 100 -->
      <g transform="translate(282.357001 322.182437)scale(0.1 -0.1)">
       <use xlink:href="#DejaVuSans-49"/>
       <use x="63.623047" xlink:href="#DejaVuSans-48"/>
       <use x="127.246094" xlink:href="#DejaVuSans-48"/>
      </g>
     </g>
    </g>
    <g id="xtick_4">
     <g id="line2d_4">
      <g>
       <use style="stroke:#000000;stroke-width:0.8;" x="370.610645" xlink:href="#m886a3f3d1d" y="307.584"/>
      </g>
     </g>
     <g id="text_4">
      <!-- 200 -->
      <defs>
       <path d="M 19.1875 8.296875 
L 53.609375 8.296875 
L 53.609375 0 
L 7.328125 0 
L 7.328125 8.296875 
Q 12.9375 14.109375 22.625 23.890625 
Q 32.328125 33.6875 34.8125 36.53125 
Q 39.546875 41.84375 41.421875 45.53125 
Q 43.3125 49.21875 43.3125 52.78125 
Q 43.3125 58.59375 39.234375 62.25 
Q 35.15625 65.921875 28.609375 65.921875 
Q 23.96875 65.921875 18.8125 64.3125 
Q 13.671875 62.703125 7.8125 59.421875 
L 7.8125 69.390625 
Q 13.765625 71.78125 18.9375 73 
Q 24.125 74.21875 28.421875 74.21875 
Q 39.75 74.21875 46.484375 68.546875 
Q 53.21875 62.890625 53.21875 53.421875 
Q 53.21875 48.921875 51.53125 44.890625 
Q 49.859375 40.875 45.40625 35.40625 
Q 44.1875 33.984375 37.640625 27.21875 
Q 31.109375 20.453125 19.1875 8.296875 
z
" id="DejaVuSans-50"/>
      </defs>
      <g transform="translate(361.066895 322.182437)scale(0.1 -0.1)">
       <use xlink:href="#DejaVuSans-50"/>
       <use x="63.623047" xlink:href="#DejaVuSans-48"/>
       <use x="127.246094" xlink:href="#DejaVuSans-48"/>
      </g>
     </g>
    </g>
   </g>
   <g id="matplotlib.axis_2">
    <g id="ytick_1">
     <g id="line2d_5">
      <defs>
       <path d="M 0 0 
L -3.5 0 
" id="m4b06512698" style="stroke:#000000;stroke-width:0.8;"/>
      </defs>
      <g>
       <use style="stroke:#000000;stroke-width:0.8;" x="57.6" xlink:href="#m4b06512698" y="295.488"/>
      </g>
     </g>
     <g id="text_5">
      <!-- 0 -->
      <g transform="translate(44.2375 299.287219)scale(0.1 -0.1)">
       <use xlink:href="#DejaVuSans-48"/>
      </g>
     </g>
    </g>
    <g id="ytick_2">
     <g id="line2d_6">
      <g>
       <use style="stroke:#000000;stroke-width:0.8;" x="57.6" xlink:href="#m4b06512698" y="256.133053"/>
      </g>
     </g>
     <g id="text_6">
      <!-- 50 -->
      <defs>
       <path d="M 10.796875 72.90625 
L 49.515625 72.90625 
L 49.515625 64.59375 
L 19.828125 64.59375 
L 19.828125 46.734375 
Q 21.96875 47.46875 24.109375 47.828125 
Q 26.265625 48.1875 28.421875 48.1875 
Q 40.625 48.1875 47.75 41.5 
Q 54.890625 34.8125 54.890625 23.390625 
Q 54.890625 11.625 47.5625 5.09375 
Q 40.234375 -1.421875 26.90625 -1.421875 
Q 22.3125 -1.421875 17.546875 -0.640625 
Q 12.796875 0.140625 7.71875 1.703125 
L 7.71875 11.625 
Q 12.109375 9.234375 16.796875 8.0625 
Q 21.484375 6.890625 26.703125 6.890625 
Q 35.15625 6.890625 40.078125 11.328125 
Q 45.015625 15.765625 45.015625 23.390625 
Q 45.015625 31 40.078125 35.4375 
Q 35.15625 39.890625 26.703125 39.890625 
Q 22.75 39.890625 18.8125 39.015625 
Q 14.890625 38.140625 10.796875 36.28125 
z
" id="DejaVuSans-53"/>
      </defs>
      <g transform="translate(37.875 259.932272)scale(0.1 -0.1)">
       <use xlink:href="#DejaVuSans-53"/>
       <use x="63.623047" xlink:href="#DejaVuSans-48"/>
      </g>
     </g>
    </g>
    <g id="ytick_3">
     <g id="line2d_7">
      <g>
       <use style="stroke:#000000;stroke-width:0.8;" x="57.6" xlink:href="#m4b06512698" y="216.778106"/>
      </g>
     </g>
     <g id="text_7">
      <!-- 100 -->
      <g transform="translate(31.5125 220.577325)scale(0.1 -0.1)">
       <use xlink:href="#DejaVuSans-49"/>
       <use x="63.623047" xlink:href="#DejaVuSans-48"/>
       <use x="127.246094" xlink:href="#DejaVuSans-48"/>
      </g>
     </g>
    </g>
    <g id="ytick_4">
     <g id="line2d_8">
      <g>
       <use style="stroke:#000000;stroke-width:0.8;" x="57.6" xlink:href="#m4b06512698" y="177.423159"/>
      </g>
     </g>
     <g id="text_8">
      <!-- 150 -->
      <g transform="translate(31.5125 181.222378)scale(0.1 -0.1)">
       <use xlink:href="#DejaVuSans-49"/>
       <use x="63.623047" xlink:href="#DejaVuSans-53"/>
       <use x="127.246094" xlink:href="#DejaVuSans-48"/>
      </g>
     </g>
    </g>
    <g id="ytick_5">
     <g id="line2d_9">
      <g>
       <use style="stroke:#000000;stroke-width:0.8;" x="57.6" xlink:href="#m4b06512698" y="138.068212"/>
      </g>
     </g>
     <g id="text_9">
      <!-- 200 -->
      <g transform="translate(31.5125 141.86743)scale(0.1 -0.1)">
       <use xlink:href="#DejaVuSans-50"/>
       <use x="63.623047" xlink:href="#DejaVuSans-48"/>
       <use x="127.246094" xlink:href="#DejaVuSans-48"/>
      </g>
     </g>
    </g>
    <g id="ytick_6">
     <g id="line2d_10">
      <g>
       <use style="stroke:#000000;stroke-width:0.8;" x="57.6" xlink:href="#m4b06512698" y="98.713265"/>
      </g>
     </g>
     <g id="text_10">
      <!-- 250 -->
      <g transform="translate(31.5125 102.512483)scale(0.1 -0.1)">
       <use xlink:href="#DejaVuSans-50"/>
       <use x="63.623047" xlink:href="#DejaVuSans-53"/>
       <use x="127.246094" xlink:href="#DejaVuSans-48"/>
      </g>
     </g>
    </g>
    <g id="ytick_7">
     <g id="line2d_11">
      <g>
       <use style="stroke:#000000;stroke-width:0.8;" x="57.6" xlink:href="#m4b06512698" y="59.358318"/>
      </g>
     </g>
     <g id="text_11">
      <!-- 300 -->
      <defs>
       <path d="M 40.578125 39.3125 
Q 47.65625 37.796875 51.625 33 
Q 55.609375 28.21875 55.609375 21.1875 
Q 55.609375 10.40625 48.1875 4.484375 
Q 40.765625 -1.421875 27.09375 -1.421875 
Q 22.515625 -1.421875 17.65625 -0.515625 
Q 12.796875 0.390625 7.625 2.203125 
L 7.625 11.71875 
Q 11.71875 9.328125 16.59375 8.109375 
Q 21.484375 6.890625 26.8125 6.890625 
Q 36.078125 6.890625 40.9375 10.546875 
Q 45.796875 14.203125 45.796875 21.1875 
Q 45.796875 27.640625 41.28125 31.265625 
Q 36.765625 34.90625 28.71875 34.90625 
L 20.21875 34.90625 
L 20.21875 43.015625 
L 29.109375 43.015625 
Q 36.375 43.015625 40.234375 45.921875 
Q 44.09375 48.828125 44.09375 54.296875 
Q 44.09375 59.90625 40.109375 62.90625 
Q 36.140625 65.921875 28.71875 65.921875 
Q 24.65625 65.921875 20.015625 65.03125 
Q 15.375 64.15625 9.8125 62.3125 
L 9.8125 71.09375 
Q 15.4375 72.65625 20.34375 73.4375 
Q 25.25 74.21875 29.59375 74.21875 
Q 40.828125 74.21875 47.359375 69.109375 
Q 53.90625 64.015625 53.90625 55.328125 
Q 53.90625 49.265625 50.4375 45.09375 
Q 46.96875 40.921875 40.578125 39.3125 
z
" id="DejaVuSans-51"/>
      </defs>
      <g transform="translate(31.5125 63.157536)scale(0.1 -0.1)">
       <use xlink:href="#DejaVuSans-51"/>
       <use x="63.623047" xlink:href="#DejaVuSans-48"/>
       <use x="127.246094" xlink:href="#DejaVuSans-48"/>
      </g>
     </g>
    </g>
   </g>
   <g id="line2d_12">
    <path clip-path="url(#p77e77326e7)" d="M 213.190857 295.488 
L 211.042931 258.027793 
L 209.092063 230.508301 
L 209.3068 229.125021 
L 209.633805 228.189688 
L 210.118128 227.383565 
L 210.972967 226.542841 
L 211.736583 226.075319 
L 212.836645 225.634576 
L 215.286704 225.143308 
L 217.893436 224.947391 
L 233.882743 224.325173 
L 238.333347 224.17361 
L 242.048761 224.300773 
L 245.576625 224.646806 
L 251.626055 225.336265 
L 253.285212 225.285426 
L 254.485271 225.081261 
L 255.607186 224.692174 
L 256.586132 224.128839 
L 257.393113 223.373752 
L 258.030254 222.472822 
L 258.480467 221.452522 
L 258.970294 219.609946 
L 268.165483 180.705507 
L 268.88072 176.303892 
L 269.364825 171.806408 
L 269.657004 166.617379 
L 269.822909 160.735703 
L 269.704939 156.084578 
L 268.910496 142.11113 
L 268.322462 132.491127 
L 268.283564 130.401852 
L 268.2926 124.771496 
L 268.256724 121.047416 
L 268.24779 115.671687 
L 268.063113 109.404096 
L 267.835531 107.81085 
L 267.518134 106.716783 
L 267.040191 105.724329 
L 266.40612 104.882842 
L 265.669034 104.167684 
L 264.841116 103.605459 
L 263.675619 103.062518 
L 261.943498 102.739729 
L 260.375408 102.686521 
L 256.755343 102.829064 
L 253.49558 103.072672 
L 249.69797 103.324858 
L 223.062652 104.651671 
L 214.576209 105.416101 
L 210.863146 105.547153 
L 208.1146 105.413032 
L 207.806152 105.385562 
L 206.468353 105.199256 
L 205.427223 104.846557 
L 204.299882 104.185866 
L 203.495632 103.33997 
L 203.142397 102.829301 
L 202.708053 101.87754 
L 202.306766 100.38402 
L 202.089983 98.58054 
L 201.912603 94.349411 
L 201.32963 77.323278 
L 200.843352 65.722226 
L 200.201024 53.568 
L 200.201024 53.568 
" style="fill:none;stroke:#008000;stroke-linecap:square;stroke-width:1.5;"/>
   </g>
   <g id="line2d_13">
    <path clip-path="url(#p77e77326e7)" d="M 213.190857 295.488 
L 213.088245 291.428861 
L 212.541624 281.171184 
L 210.466189 250.362132 
L 209.837566 243.197565 
L 208.729735 230.867184 
L 208.96243 229.120403 
L 209.42999 227.904331 
L 210.157176 226.913821 
L 211.092828 226.172925 
L 212.161995 225.65206 
L 213.925725 225.18924 
L 215.945454 224.934549 
L 219.246197 224.758827 
L 227.710866 224.357199 
L 236.663694 223.758952 
L 240.419112 223.762831 
L 244.601185 224.055479 
L 251.656309 224.70502 
L 253.301639 224.582259 
L 254.481657 224.300006 
L 255.554929 223.831277 
L 256.442369 223.180514 
L 257.188252 222.365331 
L 257.770594 221.420922 
L 258.177548 220.369998 
L 258.825794 217.712978 
L 259.355228 215.166596 
L 260.079775 212.295888 
L 261.262787 207.4207 
L 266.555051 184.272526 
L 267.943107 176.735619 
L 268.334777 173.553637 
L 268.66465 169.674374 
L 268.937357 165.123389 
L 269.078234 157.932979 
L 268.600874 148.556621 
L 267.789948 137.215121 
L 267.512504 132.211042 
L 267.503451 128.059031 
L 267.493249 122.84612 
L 267.426554 118.592147 
L 267.018627 108.154453 
L 266.736358 106.590462 
L 266.360169 105.524762 
L 265.827548 104.575813 
L 264.89734 103.545047 
L 263.796702 102.78539 
L 262.295303 102.179375 
L 261.246099 102.005047 
L 260.106162 101.958253 
L 255.171631 102.187086 
L 247.927868 102.495201 
L 241.089364 102.807152 
L 219.02828 104.416466 
L 213.94569 104.883206 
L 210.425548 105.048945 
L 207.059663 105.096403 
L 207.095918 106.512859 
L 207.335145 107.577499 
L 207.729285 108.468561 
L 208.353665 109.304703 
L 208.992182 109.84946 
L 210.085984 110.368757 
L 211.445821 110.707256 
L 213.02529 110.888241 
L 219.385273 111.322641 
L 237.488044 112.67486 
L 249.613833 113.838858 
L 249.613833 113.838858 
" style="fill:none;stroke:#0000ff;stroke-linecap:square;stroke-width:1.5;"/>
   </g>
   <g id="line2d_14">
    <path clip-path="url(#p77e77326e7)" d="M 213.190857 295.488 
L 213.070187 291.429671 
L 212.33812 278.285205 
L 210.360894 248.110585 
L 209.295132 236.559205 
L 208.768512 232.428536 
L 208.73103 230.877225 
L 208.897727 229.819511 
L 209.296286 228.530088 
L 210.348143 226.998981 
L 211.17223 226.139899 
L 211.95243 225.717996 
L 212.75276 225.307936 
L 214.539649 224.798141 
L 216.671563 224.522718 
L 218.30645 224.358719 
L 220.675797 224.379652 
L 230.891798 224.680364 
L 236.65026 224.800334 
L 239.77714 225.056881 
L 242.799855 225.462803 
L 251.492132 227.107748 
L 253.139546 227.130168 
L 254.725135 226.896595 
L 255.798261 226.507733 
L 256.759372 225.959664 
L 257.559561 225.201279 
L 258.162477 224.271234 
L 258.839231 222.09199 
L 259.542592 219.290401 
L 260.855021 215.66464 
L 261.510053 213.645316 
L 268.584381 187.970377 
L 270.539954 179.256149 
L 271.195993 174.127333 
L 271.899978 165.717101 
L 272.116305 161.107269 
L 271.999089 151.722773 
L 271.635091 142.719203 
L 271.464899 137.157383 
L 271.698169 131.899853 
L 271.859845 127.240216 
L 271.807694 123.527775 
L 271.257421 111.670205 
L 271.011036 110.912767 
L 270.39104 109.54593 
L 269.830115 108.618442 
L 269.144041 107.415494 
L 267.969763 106.265097 
L 267.16068 105.760388 
L 266.579308 105.429107 
L 265.901005 105.21476 
L 265.154355 105.221161 
L 264.373788 105.222924 
L 257.668455 105.333833 
L 245.077332 105.711933 
L 227.254455 106.607276 
L 225.440034 106.833636 
L 221.018508 107.339465 
L 218.183753 107.646882 
L 216.168603 107.634434 
L 215.136424 107.480002 
L 214.508792 107.420958 
L 213.199446 107.251915 
L 212.720437 107.480683 
L 212.219135 107.491675 
L 211.931996 108.118791 
L 212.09646 108.42087 
L 212.525477 108.789313 
L 212.66988 109.884352 
L 212.687556 110.373599 
L 213.050812 111.996912 
L 213.792082 113.177717 
L 214.907244 114.283276 
L 215.935515 115.182466 
L 218.018629 116.626865 
L 226.053648 121.640003 
L 230.473084 124.37236 
L 240.83628 130.810913 
L 253.802182 139.166242 
L 253.802182 139.166242 
" style="fill:none;stroke:#ff0000;stroke-linecap:square;stroke-width:1.5;"/>
   </g>
   <g id="patch_3">
    <path d="M 57.6 307.584 
L 57.6 41.472 
" style="fill:none;stroke:#000000;stroke-linecap:square;stroke-linejoin:miter;stroke-width:0.8;"/>
   </g>
   <g id="patch_4">
    <path d="M 414.72 307.584 
L 414.72 41.472 
" style="fill:none;stroke:#000000;stroke-linecap:square;stroke-linejoin:miter;stroke-width:0.8;"/>
   </g>
   <g id="patch_5">
    <path d="M 57.6 307.584 
L 414.72 307.584 
" style="fill:none;stroke:#000000;stroke-linecap:square;stroke-linejoin:miter;stroke-width:0.8;"/>
   </g>
   <g id="patch_6">
    <path d="M 57.6 41.472 
L 414.72 41.472 
" style="fill:none;stroke:#000000;stroke-linecap:square;stroke-linejoin:miter;stroke-width:0.8;"/>
   </g>
  </g>
 </g>
 <defs>
  <clipPath id="p77e77326e7">
   <rect height="266.112" width="357.12" x="57.6" y="41.472"/>
  </clipPath>
 </defs>
</svg>
