<?xml version="1.0" encoding="utf-8" standalone="no"?>
<!DOCTYPE svg PUBLIC "-//W3C//DTD SVG 1.1//EN"
  "http://www.w3.org/Graphics/SVG/1.1/DTD/svg11.dtd">
<!-- Created with matplotlib (https://matplotlib.org/) -->
<svg height="345.6pt" version="1.1" viewBox="0 0 460.8 345.6" width="460.8pt" xmlns="http://www.w3.org/2000/svg" xmlns:xlink="http://www.w3.org/1999/xlink">
 <defs>
  <style type="text/css">
*{stroke-linecap:butt;stroke-linejoin:round;}
  </style>
 </defs>
 <g id="figure_1">
  <g id="patch_1">
   <path d="M 0 345.6 
L 460.8 345.6 
L 460.8 0 
L 0 0 
z
" style="fill:#ffffff;"/>
  </g>
  <g id="axes_1">
   <g id="patch_2">
    <path d="M 57.6 307.584 
L 414.72 307.584 
L 414.72 41.472 
L 57.6 41.472 
z
" style="fill:#ffffff;"/>
   </g>
   <g id="matplotlib.axis_1">
    <g id="xtick_1">
     <g id="line2d_1">
      <defs>
       <path d="M 0 0 
L 0 3.5 
" id="m0e843722d9" style="stroke:#000000;stroke-width:0.8;"/>
      </defs>
      <g>
       <use style="stroke:#000000;stroke-width:0.8;" x="73.832727" xlink:href="#m0e843722d9" y="307.584"/>
      </g>
     </g>
     <g id="text_1">
      <!-- 0 -->
      <defs>
       <path d="M 31.78125 66.40625 
Q 24.171875 66.40625 20.328125 58.90625 
Q 16.5 51.421875 16.5 36.375 
Q 16.5 21.390625 20.328125 13.890625 
Q 24.171875 6.390625 31.78125 6.390625 
Q 39.453125 6.390625 43.28125 13.890625 
Q 47.125 21.390625 47.125 36.375 
Q 47.125 51.421875 43.28125 58.90625 
Q 39.453125 66.40625 31.78125 66.40625 
z
M 31.78125 74.21875 
Q 44.046875 74.21875 50.515625 64.515625 
Q 56.984375 54.828125 56.984375 36.375 
Q 56.984375 17.96875 50.515625 8.265625 
Q 44.046875 -1.421875 31.78125 -1.421875 
Q 19.53125 -1.421875 13.0625 8.265625 
Q 6.59375 17.96875 6.59375 36.375 
Q 6.59375 54.828125 13.0625 64.515625 
Q 19.53125 74.21875 31.78125 74.21875 
z
" id="DejaVuSans-48"/>
      </defs>
      <g transform="translate(70.651477 322.182437)scale(0.1 -0.1)">
       <use xlink:href="#DejaVuSans-48"/>
      </g>
     </g>
    </g>
    <g id="xtick_2">
     <g id="line2d_2">
      <g>
       <use style="stroke:#000000;stroke-width:0.8;" x="123.972271" xlink:href="#m0e843722d9" y="307.584"/>
      </g>
     </g>
     <g id="text_2">
      <!-- 20 -->
      <defs>
       <path d="M 19.1875 8.296875 
L 53.609375 8.296875 
L 53.609375 0 
L 7.328125 0 
L 7.328125 8.296875 
Q 12.9375 14.109375 22.625 23.890625 
Q 32.328125 33.6875 34.8125 36.53125 
Q 39.546875 41.84375 41.421875 45.53125 
Q 43.3125 49.21875 43.3125 52.78125 
Q 43.3125 58.59375 39.234375 62.25 
Q 35.15625 65.921875 28.609375 65.921875 
Q 23.96875 65.921875 18.8125 64.3125 
Q 13.671875 62.703125 7.8125 59.421875 
L 7.8125 69.390625 
Q 13.765625 71.78125 18.9375 73 
Q 24.125 74.21875 28.421875 74.21875 
Q 39.75 74.21875 46.484375 68.546875 
Q 53.21875 62.890625 53.21875 53.421875 
Q 53.21875 48.921875 51.53125 44.890625 
Q 49.859375 40.875 45.40625 35.40625 
Q 44.1875 33.984375 37.640625 27.21875 
Q 31.109375 20.453125 19.1875 8.296875 
z
" id="DejaVuSans-50"/>
      </defs>
      <g transform="translate(117.609771 322.182437)scale(0.1 -0.1)">
       <use xlink:href="#DejaVuSans-50"/>
       <use x="63.623047" xlink:href="#DejaVuSans-48"/>
      </g>
     </g>
    </g>
    <g id="xtick_3">
     <g id="line2d_3">
      <g>
       <use style="stroke:#000000;stroke-width:0.8;" x="174.111814" xlink:href="#m0e843722d9" y="307.584"/>
      </g>
     </g>
     <g id="text_3">
      <!-- 40 -->
      <defs>
       <path d="M 37.796875 64.3125 
L 12.890625 25.390625 
L 37.796875 25.390625 
z
M 35.203125 72.90625 
L 47.609375 72.90625 
L 47.609375 25.390625 
L 58.015625 25.390625 
L 58.015625 17.1875 
L 47.609375 17.1875 
L 47.609375 0 
L 37.796875 0 
L 37.796875 17.1875 
L 4.890625 17.1875 
L 4.890625 26.703125 
z
" id="DejaVuSans-52"/>
      </defs>
      <g transform="translate(167.749314 322.182437)scale(0.1 -0.1)">
       <use xlink:href="#DejaVuSans-52"/>
       <use x="63.623047" xlink:href="#DejaVuSans-48"/>
      </g>
     </g>
    </g>
    <g id="xtick_4">
     <g id="line2d_4">
      <g>
       <use style="stroke:#000000;stroke-width:0.8;" x="224.251357" xlink:href="#m0e843722d9" y="307.584"/>
      </g>
     </g>
     <g id="text_4">
      <!-- 60 -->
      <defs>
       <path d="M 33.015625 40.375 
Q 26.375 40.375 22.484375 35.828125 
Q 18.609375 31.296875 18.609375 23.390625 
Q 18.609375 15.53125 22.484375 10.953125 
Q 26.375 6.390625 33.015625 6.390625 
Q 39.65625 6.390625 43.53125 10.953125 
Q 47.40625 15.53125 47.40625 23.390625 
Q 47.40625 31.296875 43.53125 35.828125 
Q 39.65625 40.375 33.015625 40.375 
z
M 52.59375 71.296875 
L 52.59375 62.3125 
Q 48.875 64.0625 45.09375 64.984375 
Q 41.3125 65.921875 37.59375 65.921875 
Q 27.828125 65.921875 22.671875 59.328125 
Q 17.53125 52.734375 16.796875 39.40625 
Q 19.671875 43.65625 24.015625 45.921875 
Q 28.375 48.1875 33.59375 48.1875 
Q 44.578125 48.1875 50.953125 41.515625 
Q 57.328125 34.859375 57.328125 23.390625 
Q 57.328125 12.15625 50.6875 5.359375 
Q 44.046875 -1.421875 33.015625 -1.421875 
Q 20.359375 -1.421875 13.671875 8.265625 
Q 6.984375 17.96875 6.984375 36.375 
Q 6.984375 53.65625 15.1875 63.9375 
Q 23.390625 74.21875 37.203125 74.21875 
Q 40.921875 74.21875 44.703125 73.484375 
Q 48.484375 72.75 52.59375 71.296875 
z
" id="DejaVuSans-54"/>
      </defs>
      <g transform="translate(217.888857 322.182437)scale(0.1 -0.1)">
       <use xlink:href="#DejaVuSans-54"/>
       <use x="63.623047" xlink:href="#DejaVuSans-48"/>
      </g>
     </g>
    </g>
    <g id="xtick_5">
     <g id="line2d_5">
      <g>
       <use style="stroke:#000000;stroke-width:0.8;" x="274.3909" xlink:href="#m0e843722d9" y="307.584"/>
      </g>
     </g>
     <g id="text_5">
      <!-- 80 -->
      <defs>
       <path d="M 31.78125 34.625 
Q 24.75 34.625 20.71875 30.859375 
Q 16.703125 27.09375 16.703125 20.515625 
Q 16.703125 13.921875 20.71875 10.15625 
Q 24.75 6.390625 31.78125 6.390625 
Q 38.8125 6.390625 42.859375 10.171875 
Q 46.921875 13.96875 46.921875 20.515625 
Q 46.921875 27.09375 42.890625 30.859375 
Q 38.875 34.625 31.78125 34.625 
z
M 21.921875 38.8125 
Q 15.578125 40.375 12.03125 44.71875 
Q 8.5 49.078125 8.5 55.328125 
Q 8.5 64.0625 14.71875 69.140625 
Q 20.953125 74.21875 31.78125 74.21875 
Q 42.671875 74.21875 48.875 69.140625 
Q 55.078125 64.0625 55.078125 55.328125 
Q 55.078125 49.078125 51.53125 44.71875 
Q 48 40.375 41.703125 38.8125 
Q 48.828125 37.15625 52.796875 32.3125 
Q 56.78125 27.484375 56.78125 20.515625 
Q 56.78125 9.90625 50.3125 4.234375 
Q 43.84375 -1.421875 31.78125 -1.421875 
Q 19.734375 -1.421875 13.25 4.234375 
Q 6.78125 9.90625 6.78125 20.515625 
Q 6.78125 27.484375 10.78125 32.3125 
Q 14.796875 37.15625 21.921875 38.8125 
z
M 18.3125 54.390625 
Q 18.3125 48.734375 21.84375 45.5625 
Q 25.390625 42.390625 31.78125 42.390625 
Q 38.140625 42.390625 41.71875 45.5625 
Q 45.3125 48.734375 45.3125 54.390625 
Q 45.3125 60.0625 41.71875 63.234375 
Q 38.140625 66.40625 31.78125 66.40625 
Q 25.390625 66.40625 21.84375 63.234375 
Q 18.3125 60.0625 18.3125 54.390625 
z
" id="DejaVuSans-56"/>
      </defs>
      <g transform="translate(268.0284 322.182437)scale(0.1 -0.1)">
       <use xlink:href="#DejaVuSans-56"/>
       <use x="63.623047" xlink:href="#DejaVuSans-48"/>
      </g>
     </g>
    </g>
    <g id="xtick_6">
     <g id="line2d_6">
      <g>
       <use style="stroke:#000000;stroke-width:0.8;" x="324.530444" xlink:href="#m0e843722d9" y="307.584"/>
      </g>
     </g>
     <g id="text_6">
      <!-- 100 -->
      <defs>
       <path d="M 12.40625 8.296875 
L 28.515625 8.296875 
L 28.515625 63.921875 
L 10.984375 60.40625 
L 10.984375 69.390625 
L 28.421875 72.90625 
L 38.28125 72.90625 
L 38.28125 8.296875 
L 54.390625 8.296875 
L 54.390625 0 
L 12.40625 0 
z
" id="DejaVuSans-49"/>
      </defs>
      <g transform="translate(314.986694 322.182437)scale(0.1 -0.1)">
       <use xlink:href="#DejaVuSans-49"/>
       <use x="63.623047" xlink:href="#DejaVuSans-48"/>
       <use x="127.246094" xlink:href="#DejaVuSans-48"/>
      </g>
     </g>
    </g>
    <g id="xtick_7">
     <g id="line2d_7">
      <g>
       <use style="stroke:#000000;stroke-width:0.8;" x="374.669987" xlink:href="#m0e843722d9" y="307.584"/>
      </g>
     </g>
     <g id="text_7">
      <!-- 120 -->
      <g transform="translate(365.126237 322.182437)scale(0.1 -0.1)">
       <use xlink:href="#DejaVuSans-49"/>
       <use x="63.623047" xlink:href="#DejaVuSans-50"/>
       <use x="127.246094" xlink:href="#DejaVuSans-48"/>
      </g>
     </g>
    </g>
   </g>
   <g id="matplotlib.axis_2">
    <g id="ytick_1">
     <g id="line2d_8">
      <defs>
       <path d="M 0 0 
L -3.5 0 
" id="me4a896fd7f" style="stroke:#000000;stroke-width:0.8;"/>
      </defs>
      <g>
       <use style="stroke:#000000;stroke-width:0.8;" x="57.6" xlink:href="#me4a896fd7f" y="301.432052"/>
      </g>
     </g>
     <g id="text_8">
      <!-- −40 -->
      <defs>
       <path d="M 10.59375 35.5 
L 73.1875 35.5 
L 73.1875 27.203125 
L 10.59375 27.203125 
z
" id="DejaVuSans-8722"/>
      </defs>
      <g transform="translate(29.495313 305.23127)scale(0.1 -0.1)">
       <use xlink:href="#DejaVuSans-8722"/>
       <use x="83.789062" xlink:href="#DejaVuSans-52"/>
       <use x="147.412109" xlink:href="#DejaVuSans-48"/>
      </g>
     </g>
    </g>
    <g id="ytick_2">
     <g id="line2d_9">
      <g>
       <use style="stroke:#000000;stroke-width:0.8;" x="57.6" xlink:href="#me4a896fd7f" y="251.292508"/>
      </g>
     </g>
     <g id="text_9">
      <!-- −20 -->
      <g transform="translate(29.495313 255.091727)scale(0.1 -0.1)">
       <use xlink:href="#DejaVuSans-8722"/>
       <use x="83.789062" xlink:href="#DejaVuSans-50"/>
       <use x="147.412109" xlink:href="#DejaVuSans-48"/>
      </g>
     </g>
    </g>
    <g id="ytick_3">
     <g id="line2d_10">
      <g>
       <use style="stroke:#000000;stroke-width:0.8;" x="57.6" xlink:href="#me4a896fd7f" y="201.152965"/>
      </g>
     </g>
     <g id="text_10">
      <!-- 0 -->
      <g transform="translate(44.2375 204.952184)scale(0.1 -0.1)">
       <use xlink:href="#DejaVuSans-48"/>
      </g>
     </g>
    </g>
    <g id="ytick_4">
     <g id="line2d_11">
      <g>
       <use style="stroke:#000000;stroke-width:0.8;" x="57.6" xlink:href="#me4a896fd7f" y="151.013422"/>
      </g>
     </g>
     <g id="text_11">
      <!-- 20 -->
      <g transform="translate(37.875 154.812641)scale(0.1 -0.1)">
       <use xlink:href="#DejaVuSans-50"/>
       <use x="63.623047" xlink:href="#DejaVuSans-48"/>
      </g>
     </g>
    </g>
    <g id="ytick_5">
     <g id="line2d_12">
      <g>
       <use style="stroke:#000000;stroke-width:0.8;" x="57.6" xlink:href="#me4a896fd7f" y="100.873879"/>
      </g>
     </g>
     <g id="text_12">
      <!-- 40 -->
      <g transform="translate(37.875 104.673097)scale(0.1 -0.1)">
       <use xlink:href="#DejaVuSans-52"/>
       <use x="63.623047" xlink:href="#DejaVuSans-48"/>
      </g>
     </g>
    </g>
    <g id="ytick_6">
     <g id="line2d_13">
      <g>
       <use style="stroke:#000000;stroke-width:0.8;" x="57.6" xlink:href="#me4a896fd7f" y="50.734335"/>
      </g>
     </g>
     <g id="text_13">
      <!-- 60 -->
      <g transform="translate(37.875 54.533554)scale(0.1 -0.1)">
       <use xlink:href="#DejaVuSans-54"/>
       <use x="63.623047" xlink:href="#DejaVuSans-48"/>
      </g>
     </g>
    </g>
   </g>
   <g id="line2d_14">
    <path clip-path="url(#p89ae3bc937)" d="M 73.832727 201.152965 
L 73.961953 198.64417 
L 74.199907 196.149893 
L 74.554537 193.665398 
L 75.000353 191.215695 
L 75.580503 188.781937 
L 76.268428 186.392757 
L 77.061912 184.039831 
L 77.972576 181.739052 
L 78.973279 179.477037 
L 80.071804 177.268008 
L 81.269154 175.120085 
L 82.564699 173.035709 
L 83.952617 171.022155 
L 85.443639 169.088573 
L 86.999682 167.232107 
L 88.657639 165.46035 
L 90.385402 163.768517 
L 92.17373 162.157358 
L 94.038096 160.652745 
L 95.956668 159.231941 
L 97.943578 157.911741 
L 99.994839 156.689665 
L 102.094859 155.554531 
L 104.263519 154.509622 
L 106.483247 153.55835 
L 108.736919 152.67983 
L 111.050483 151.87687 
L 113.413359 151.142326 
L 115.814792 150.487979 
L 118.2337 149.903076 
L 120.689986 149.395313 
L 123.199269 148.966495 
L 125.749015 148.609476 
L 128.338347 148.31967 
L 130.968642 148.102365 
L 133.633283 147.968241 
L 136.334476 147.903035 
L 139.072997 147.904088 
L 141.840073 147.965835 
L 144.636005 148.08103 
L 147.463198 148.237165 
L 150.302826 148.432233 
L 153.158398 148.657259 
L 156.028536 148.915177 
L 158.925348 149.211928 
L 161.864553 149.546008 
L 164.858862 149.917918 
L 167.911558 150.314221 
L 171.021538 150.735518 
L 174.172056 151.182563 
L 177.384672 151.648986 
L 180.646977 152.139927 
L 183.971203 152.648317 
L 187.352088 153.17561 
L 190.779451 153.715161 
L 194.256854 154.273891 
L 197.782717 154.84112 
L 201.365789 155.425847 
L 204.988597 156.013057 
L 208.668338 156.608439 
L 212.407419 157.209035 
L 216.196189 157.808654 
L 220.038883 158.416571 
L 223.92555 159.021831 
L 227.884769 159.637193 
L 231.886707 160.252055 
L 235.937531 160.876994 
L 240.027087 161.506897 
L 244.140661 162.133642 
L 248.296928 162.769511 
L 252.488644 163.396682 
L 256.715633 164.03195 
L 260.995595 164.666867 
L 265.305189 165.313642 
L 269.657903 165.960894 
L 274.050378 166.616568 
L 278.468649 167.271892 
L 282.92252 167.937269 
L 287.411563 168.612398 
L 291.953228 169.296527 
L 296.521166 169.995172 
L 301.131848 170.696674 
L 305.768552 171.417029 
L 310.451686 172.148866 
L 315.1638 172.905572 
L 319.902238 173.678974 
L 324.662561 174.479026 
L 329.432336 175.306254 
L 334.231944 176.168107 
L 339.048348 177.056856 
L 343.896341 177.972494 
L 348.768651 178.912102 
L 353.663022 179.877178 
L 358.578954 180.879237 
L 363.508423 181.913937 
L 368.448171 182.985078 
L 373.407222 184.084766 
L 378.395606 185.23059 
L 383.398529 186.403795 
L 388.406718 187.60644 
L 393.444488 188.841166 
L 398.487273 190.116551 
" style="fill:none;stroke:#008000;stroke-linecap:square;stroke-width:1.5;"/>
   </g>
   <g id="line2d_15">
    <path clip-path="url(#p89ae3bc937)" d="M 73.832727 201.152965 
L 73.947133 199.637806 
L 74.045191 198.388514 
L 74.225573 197.158716 
L 74.404022 196.131636 
L 74.940886 193.823633 
L 75.114446 193.200273 
L 75.542239 191.894417 
L 76.027311 190.689975 
L 76.958151 188.537477 
L 77.993159 186.461128 
L 79.170508 184.358856 
L 80.391439 182.357836 
L 81.738184 180.390263 
L 83.068997 178.622897 
L 84.466391 176.92317 
L 85.980058 175.333669 
L 87.69104 173.689758 
L 89.441559 172.105595 
L 91.201607 170.643979 
L 93.03816 169.244769 
L 94.976896 167.932431 
L 96.992476 166.739111 
L 99.149525 165.474917 
L 101.221152 164.447701 
L 103.324429 163.509035 
L 105.54344 162.613813 
L 107.779019 161.834976 
L 110.262582 161.025968 
L 113.251344 160.148413 
L 115.619121 159.52972 
L 118.014303 159.036088 
L 119.553953 158.746254 
L 121.104682 158.490671 
L 123.254748 158.221734 
L 125.063684 158.037246 
L 126.722248 157.925267 
L 128.406046 157.867168 
L 130.209931 157.870492 
L 132.115358 157.903883 
L 134.433262 157.926062 
L 136.520873 157.996466 
L 138.502847 158.098893 
L 140.839239 158.248014 
L 143.005992 158.405985 
L 145.116966 158.586172 
L 147.340693 158.777398 
L 149.65274 159.006612 
L 152.474781 159.303354 
L 154.758044 159.577819 
L 157.594861 159.925227 
L 160.210475 160.233882 
L 163.156058 160.616726 
L 166.148555 160.993643 
L 169.407386 161.420792 
L 172.593916 161.869972 
L 175.945162 162.367565 
L 178.667949 162.754979 
L 182.077564 163.251078 
L 185.45044 163.751247 
L 188.769909 164.219702 
L 192.148036 164.719347 
L 195.741228 165.230728 
L 198.947776 165.679123 
L 202.936872 166.193762 
L 206.760918 166.698229 
L 210.240953 167.178721 
L 213.732848 167.647716 
L 217.394176 168.126691 
L 220.825892 168.578876 
L 224.793194 169.074005 
L 228.326866 169.532723 
L 231.769443 170.012226 
L 235.248497 170.453859 
L 238.990083 170.937263 
L 242.709479 171.363533 
L 246.460842 171.858628 
L 250.033691 172.316448 
L 253.961028 172.79558 
L 257.863471 173.299083 
L 261.350299 173.769192 
L 265.188104 174.306261 
L 269.273604 174.817436 
L 272.895448 175.336987 
L 277.093641 175.930291 
L 280.895358 176.489129 
L 284.382955 176.991481 
L 289.245552 177.70304 
L 293.234915 178.332902 
L 297.412159 179.008099 
L 301.178778 179.776911 
L 307.930105 180.880897 
L 312.194395 181.656935 
L 316.180658 182.324762 
L 321.260849 183.321009 
L 325.59662 184.137064 
L 331.473841 185.311288 
L 342.383526 187.825862 
L 348.607193 189.145367 
L 352.286181 189.917627 
L 355.704963 190.585107 
L 360.565667 191.711799 
L 363.783168 192.577274 
" style="fill:none;stroke:#0000ff;stroke-linecap:square;stroke-width:1.5;"/>
   </g>
   <g id="line2d_16">
    <path clip-path="url(#p89ae3bc937)" d="M 73.832727 201.152965 
L 73.925172 199.636188 
L 73.994879 198.385255 
L 74.061099 197.144322 
L 74.152849 196.105535 
L 74.62104 193.782307 
L 74.798767 193.160232 
L 75.245663 191.860683 
L 75.60384 190.612455 
L 76.410886 188.409738 
L 77.459202 186.340102 
L 78.650595 184.245787 
L 79.885681 182.253553 
L 81.185316 180.255128 
L 82.528629 178.496433 
L 83.892069 176.769123 
L 85.392699 175.167617 
L 87.056303 173.475261 
L 88.785652 171.867473 
L 90.554073 170.416608 
L 92.398961 169.027834 
L 94.345999 167.727992 
L 96.370316 166.547489 
L 98.537411 165.300609 
L 100.614761 164.284698 
L 102.723617 163.359035 
L 104.947911 162.477456 
L 107.188087 161.712265 
L 109.677766 160.923421 
L 112.673594 160.071412 
L 115.045356 159.468615 
L 117.443021 158.987423 
L 118.984147 158.705676 
L 120.536431 158.460262 
L 122.688252 158.206361 
L 124.498357 158.034339 
L 126.157572 157.932969 
L 127.841677 157.886068 
L 129.645542 157.883061 
L 131.550888 157.920179 
L 133.868542 157.957899 
L 135.95561 158.042787 
L 137.936791 158.159352 
L 140.272028 158.325534 
L 142.437571 158.499651 
L 144.54715 158.695879 
L 146.769353 158.903894 
L 149.079583 159.150848 
L 151.899254 159.469543 
L 154.180324 159.762008 
L 157.014373 160.131847 
L 159.627369 160.461931 
L 162.569499 160.870464 
L 165.558605 161.273679 
L 168.813756 161.727955 
L 171.99696 162.200181 
L 175.344904 162.72031 
L 178.064723 163.128304 
L 181.470273 163.651866 
L 184.839122 164.178767 
L 188.154747 164.674192 
L 191.528733 165.201097 
L 195.117694 165.741457 
L 198.320507 166.215792 
L 202.301697 166.788503 
L 206.121327 167.325373 
L 209.599729 167.817765 
L 213.087735 168.314767 
L 216.745028 168.82378 
L 220.172977 169.303925 
L 224.129781 169.876934 
L 227.655406 170.394187 
L 231.096215 170.886307 
L 234.571644 171.355917 
L 238.309303 171.869043 
L 242.025127 172.325634 
L 245.773007 172.846263 
L 249.342086 173.33226 
L 253.265178 173.844987 
L 257.163236 174.381267 
L 260.646785 174.875077 
L 264.481161 175.436084 
L 268.561904 175.983969 
L 272.180152 176.528456 
L 276.374248 177.149955 
L 280.172067 177.735057 
L 283.655766 178.263151 
L 288.512176 179.015424 
L 292.491201 179.707595 
L 296.663718 180.411484 
L 300.441421 181.123442 
L 307.18461 182.275397 
L 311.4369 183.11451 
L 315.41339 183.838263 
L 320.489706 184.854486 
L 324.826168 185.666941 
L 330.703907 186.838472 
L 341.594223 189.435305 
L 347.799505 190.838541 
L 351.476399 191.620353 
L 354.891973 192.303268 
L 359.693197 193.569915 
L 362.871995 194.542909 
" style="fill:none;stroke:#ff0000;stroke-linecap:square;stroke-width:1.5;"/>
   </g>
   <g id="patch_3">
    <path d="M 57.6 307.584 
L 57.6 41.472 
" style="fill:none;stroke:#000000;stroke-linecap:square;stroke-linejoin:miter;stroke-width:0.8;"/>
   </g>
   <g id="patch_4">
    <path d="M 414.72 307.584 
L 414.72 41.472 
" style="fill:none;stroke:#000000;stroke-linecap:square;stroke-linejoin:miter;stroke-width:0.8;"/>
   </g>
   <g id="patch_5">
    <path d="M 57.6 307.584 
L 414.72 307.584 
" style="fill:none;stroke:#000000;stroke-linecap:square;stroke-linejoin:miter;stroke-width:0.8;"/>
   </g>
   <g id="patch_6">
    <path d="M 57.6 41.472 
L 414.72 41.472 
" style="fill:none;stroke:#000000;stroke-linecap:square;stroke-linejoin:miter;stroke-width:0.8;"/>
   </g>
  </g>
 </g>
 <defs>
  <clipPath id="p89ae3bc937">
   <rect height="266.112" width="357.12" x="57.6" y="41.472"/>
  </clipPath>
 </defs>
</svg>
