<?xml version="1.0" encoding="utf-8" standalone="no"?>
<!DOCTYPE svg PUBLIC "-//W3C//DTD SVG 1.1//EN"
  "http://www.w3.org/Graphics/SVG/1.1/DTD/svg11.dtd">
<!-- Created with matplotlib (https://matplotlib.org/) -->
<svg height="345.6pt" version="1.1" viewBox="0 0 460.8 345.6" width="460.8pt" xmlns="http://www.w3.org/2000/svg" xmlns:xlink="http://www.w3.org/1999/xlink">
 <defs>
  <style type="text/css">
*{stroke-linecap:butt;stroke-linejoin:round;}
  </style>
 </defs>
 <g id="figure_1">
  <g id="patch_1">
   <path d="M 0 345.6 
L 460.8 345.6 
L 460.8 0 
L 0 0 
z
" style="fill:#ffffff;"/>
  </g>
  <g id="axes_1">
   <g id="patch_2">
    <path d="M 57.6 307.584 
L 414.72 307.584 
L 414.72 41.472 
L 57.6 41.472 
z
" style="fill:#ffffff;"/>
   </g>
   <g id="matplotlib.axis_1">
    <g id="xtick_1">
     <g id="line2d_1">
      <defs>
       <path d="M 0 0 
L 0 3.5 
" id="m51bc36cf42" style="stroke:#000000;stroke-width:0.8;"/>
      </defs>
      <g>
       <use style="stroke:#000000;stroke-width:0.8;" x="69.226081" xlink:href="#m51bc36cf42" y="307.584"/>
      </g>
     </g>
     <g id="text_1">
      <!-- −150 -->
      <defs>
       <path d="M 10.59375 35.5 
L 73.1875 35.5 
L 73.1875 27.203125 
L 10.59375 27.203125 
z
" id="DejaVuSans-8722"/>
       <path d="M 12.40625 8.296875 
L 28.515625 8.296875 
L 28.515625 63.921875 
L 10.984375 60.40625 
L 10.984375 69.390625 
L 28.421875 72.90625 
L 38.28125 72.90625 
L 38.28125 8.296875 
L 54.390625 8.296875 
L 54.390625 0 
L 12.40625 0 
z
" id="DejaVuSans-49"/>
       <path d="M 10.796875 72.90625 
L 49.515625 72.90625 
L 49.515625 64.59375 
L 19.828125 64.59375 
L 19.828125 46.734375 
Q 21.96875 47.46875 24.109375 47.828125 
Q 26.265625 48.1875 28.421875 48.1875 
Q 40.625 48.1875 47.75 41.5 
Q 54.890625 34.8125 54.890625 23.390625 
Q 54.890625 11.625 47.5625 5.09375 
Q 40.234375 -1.421875 26.90625 -1.421875 
Q 22.3125 -1.421875 17.546875 -0.640625 
Q 12.796875 0.140625 7.71875 1.703125 
L 7.71875 11.625 
Q 12.109375 9.234375 16.796875 8.0625 
Q 21.484375 6.890625 26.703125 6.890625 
Q 35.15625 6.890625 40.078125 11.328125 
Q 45.015625 15.765625 45.015625 23.390625 
Q 45.015625 31 40.078125 35.4375 
Q 35.15625 39.890625 26.703125 39.890625 
Q 22.75 39.890625 18.8125 39.015625 
Q 14.890625 38.140625 10.796875 36.28125 
z
" id="DejaVuSans-53"/>
       <path d="M 31.78125 66.40625 
Q 24.171875 66.40625 20.328125 58.90625 
Q 16.5 51.421875 16.5 36.375 
Q 16.5 21.390625 20.328125 13.890625 
Q 24.171875 6.390625 31.78125 6.390625 
Q 39.453125 6.390625 43.28125 13.890625 
Q 47.125 21.390625 47.125 36.375 
Q 47.125 51.421875 43.28125 58.90625 
Q 39.453125 66.40625 31.78125 66.40625 
z
M 31.78125 74.21875 
Q 44.046875 74.21875 50.515625 64.515625 
Q 56.984375 54.828125 56.984375 36.375 
Q 56.984375 17.96875 50.515625 8.265625 
Q 44.046875 -1.421875 31.78125 -1.421875 
Q 19.53125 -1.421875 13.0625 8.265625 
Q 6.59375 17.96875 6.59375 36.375 
Q 6.59375 54.828125 13.0625 64.515625 
Q 19.53125 74.21875 31.78125 74.21875 
z
" id="DejaVuSans-48"/>
      </defs>
      <g transform="translate(55.492487 322.182437)scale(0.1 -0.1)">
       <use xlink:href="#DejaVuSans-8722"/>
       <use x="83.789062" xlink:href="#DejaVuSans-49"/>
       <use x="147.412109" xlink:href="#DejaVuSans-53"/>
       <use x="211.035156" xlink:href="#DejaVuSans-48"/>
      </g>
     </g>
    </g>
    <g id="xtick_2">
     <g id="line2d_2">
      <g>
       <use style="stroke:#000000;stroke-width:0.8;" x="117.460357" xlink:href="#m51bc36cf42" y="307.584"/>
      </g>
     </g>
     <g id="text_2">
      <!-- −100 -->
      <g transform="translate(103.726763 322.182437)scale(0.1 -0.1)">
       <use xlink:href="#DejaVuSans-8722"/>
       <use x="83.789062" xlink:href="#DejaVuSans-49"/>
       <use x="147.412109" xlink:href="#DejaVuSans-48"/>
       <use x="211.035156" xlink:href="#DejaVuSans-48"/>
      </g>
     </g>
    </g>
    <g id="xtick_3">
     <g id="line2d_3">
      <g>
       <use style="stroke:#000000;stroke-width:0.8;" x="165.694633" xlink:href="#m51bc36cf42" y="307.584"/>
      </g>
     </g>
     <g id="text_3">
      <!-- −50 -->
      <g transform="translate(155.142289 322.182437)scale(0.1 -0.1)">
       <use xlink:href="#DejaVuSans-8722"/>
       <use x="83.789062" xlink:href="#DejaVuSans-53"/>
       <use x="147.412109" xlink:href="#DejaVuSans-48"/>
      </g>
     </g>
    </g>
    <g id="xtick_4">
     <g id="line2d_4">
      <g>
       <use style="stroke:#000000;stroke-width:0.8;" x="213.928909" xlink:href="#m51bc36cf42" y="307.584"/>
      </g>
     </g>
     <g id="text_4">
      <!-- 0 -->
      <g transform="translate(210.747659 322.182437)scale(0.1 -0.1)">
       <use xlink:href="#DejaVuSans-48"/>
      </g>
     </g>
    </g>
    <g id="xtick_5">
     <g id="line2d_5">
      <g>
       <use style="stroke:#000000;stroke-width:0.8;" x="262.163185" xlink:href="#m51bc36cf42" y="307.584"/>
      </g>
     </g>
     <g id="text_5">
      <!-- 50 -->
      <g transform="translate(255.800685 322.182437)scale(0.1 -0.1)">
       <use xlink:href="#DejaVuSans-53"/>
       <use x="63.623047" xlink:href="#DejaVuSans-48"/>
      </g>
     </g>
    </g>
    <g id="xtick_6">
     <g id="line2d_6">
      <g>
       <use style="stroke:#000000;stroke-width:0.8;" x="310.39746" xlink:href="#m51bc36cf42" y="307.584"/>
      </g>
     </g>
     <g id="text_6">
      <!-- 100 -->
      <g transform="translate(300.85371 322.182437)scale(0.1 -0.1)">
       <use xlink:href="#DejaVuSans-49"/>
       <use x="63.623047" xlink:href="#DejaVuSans-48"/>
       <use x="127.246094" xlink:href="#DejaVuSans-48"/>
      </g>
     </g>
    </g>
    <g id="xtick_7">
     <g id="line2d_7">
      <g>
       <use style="stroke:#000000;stroke-width:0.8;" x="358.631736" xlink:href="#m51bc36cf42" y="307.584"/>
      </g>
     </g>
     <g id="text_7">
      <!-- 150 -->
      <g transform="translate(349.087986 322.182437)scale(0.1 -0.1)">
       <use xlink:href="#DejaVuSans-49"/>
       <use x="63.623047" xlink:href="#DejaVuSans-53"/>
       <use x="127.246094" xlink:href="#DejaVuSans-48"/>
      </g>
     </g>
    </g>
    <g id="xtick_8">
     <g id="line2d_8">
      <g>
       <use style="stroke:#000000;stroke-width:0.8;" x="406.866012" xlink:href="#m51bc36cf42" y="307.584"/>
      </g>
     </g>
     <g id="text_8">
      <!-- 200 -->
      <defs>
       <path d="M 19.1875 8.296875 
L 53.609375 8.296875 
L 53.609375 0 
L 7.328125 0 
L 7.328125 8.296875 
Q 12.9375 14.109375 22.625 23.890625 
Q 32.328125 33.6875 34.8125 36.53125 
Q 39.546875 41.84375 41.421875 45.53125 
Q 43.3125 49.21875 43.3125 52.78125 
Q 43.3125 58.59375 39.234375 62.25 
Q 35.15625 65.921875 28.609375 65.921875 
Q 23.96875 65.921875 18.8125 64.3125 
Q 13.671875 62.703125 7.8125 59.421875 
L 7.8125 69.390625 
Q 13.765625 71.78125 18.9375 73 
Q 24.125 74.21875 28.421875 74.21875 
Q 39.75 74.21875 46.484375 68.546875 
Q 53.21875 62.890625 53.21875 53.421875 
Q 53.21875 48.921875 51.53125 44.890625 
Q 49.859375 40.875 45.40625 35.40625 
Q 44.1875 33.984375 37.640625 27.21875 
Q 31.109375 20.453125 19.1875 8.296875 
z
" id="DejaVuSans-50"/>
      </defs>
      <g transform="translate(397.322262 322.182437)scale(0.1 -0.1)">
       <use xlink:href="#DejaVuSans-50"/>
       <use x="63.623047" xlink:href="#DejaVuSans-48"/>
       <use x="127.246094" xlink:href="#DejaVuSans-48"/>
      </g>
     </g>
    </g>
   </g>
   <g id="matplotlib.axis_2">
    <g id="ytick_1">
     <g id="line2d_9">
      <defs>
       <path d="M 0 0 
L -3.5 0 
" id="m1c173b0500" style="stroke:#000000;stroke-width:0.8;"/>
      </defs>
      <g>
       <use style="stroke:#000000;stroke-width:0.8;" x="57.6" xlink:href="#m1c173b0500" y="295.488"/>
      </g>
     </g>
     <g id="text_9">
      <!-- 0 -->
      <g transform="translate(44.2375 299.287219)scale(0.1 -0.1)">
       <use xlink:href="#DejaVuSans-48"/>
      </g>
     </g>
    </g>
    <g id="ytick_2">
     <g id="line2d_10">
      <g>
       <use style="stroke:#000000;stroke-width:0.8;" x="57.6" xlink:href="#m1c173b0500" y="247.253724"/>
      </g>
     </g>
     <g id="text_10">
      <!-- 50 -->
      <g transform="translate(37.875 251.052943)scale(0.1 -0.1)">
       <use xlink:href="#DejaVuSans-53"/>
       <use x="63.623047" xlink:href="#DejaVuSans-48"/>
      </g>
     </g>
    </g>
    <g id="ytick_3">
     <g id="line2d_11">
      <g>
       <use style="stroke:#000000;stroke-width:0.8;" x="57.6" xlink:href="#m1c173b0500" y="199.019448"/>
      </g>
     </g>
     <g id="text_11">
      <!-- 100 -->
      <g transform="translate(31.5125 202.818667)scale(0.1 -0.1)">
       <use xlink:href="#DejaVuSans-49"/>
       <use x="63.623047" xlink:href="#DejaVuSans-48"/>
       <use x="127.246094" xlink:href="#DejaVuSans-48"/>
      </g>
     </g>
    </g>
    <g id="ytick_4">
     <g id="line2d_12">
      <g>
       <use style="stroke:#000000;stroke-width:0.8;" x="57.6" xlink:href="#m1c173b0500" y="150.785172"/>
      </g>
     </g>
     <g id="text_12">
      <!-- 150 -->
      <g transform="translate(31.5125 154.584391)scale(0.1 -0.1)">
       <use xlink:href="#DejaVuSans-49"/>
       <use x="63.623047" xlink:href="#DejaVuSans-53"/>
       <use x="127.246094" xlink:href="#DejaVuSans-48"/>
      </g>
     </g>
    </g>
    <g id="ytick_5">
     <g id="line2d_13">
      <g>
       <use style="stroke:#000000;stroke-width:0.8;" x="57.6" xlink:href="#m1c173b0500" y="102.550896"/>
      </g>
     </g>
     <g id="text_13">
      <!-- 200 -->
      <g transform="translate(31.5125 106.350115)scale(0.1 -0.1)">
       <use xlink:href="#DejaVuSans-50"/>
       <use x="63.623047" xlink:href="#DejaVuSans-48"/>
       <use x="127.246094" xlink:href="#DejaVuSans-48"/>
      </g>
     </g>
    </g>
    <g id="ytick_6">
     <g id="line2d_14">
      <g>
       <use style="stroke:#000000;stroke-width:0.8;" x="57.6" xlink:href="#m1c173b0500" y="54.31662"/>
      </g>
     </g>
     <g id="text_14">
      <!-- 250 -->
      <g transform="translate(31.5125 58.115839)scale(0.1 -0.1)">
       <use xlink:href="#DejaVuSans-50"/>
       <use x="63.623047" xlink:href="#DejaVuSans-53"/>
       <use x="127.246094" xlink:href="#DejaVuSans-48"/>
      </g>
     </g>
    </g>
   </g>
   <g id="line2d_15">
    <path clip-path="url(#p9c6cd78c3b)" d="M 213.928909 295.488 
L 211.420711 251.499474 
L 210.286222 234.793087 
L 209.262228 222.647059 
L 208.878578 217.217866 
L 208.905339 215.847472 
L 209.168524 214.152095 
L 209.569308 213.00573 
L 210.162906 212.017728 
L 210.923534 211.227506 
L 211.823384 210.587823 
L 213.14648 209.976733 
L 215.31283 209.427856 
L 217.340779 209.175436 
L 219.692492 209.031901 
L 225.57712 208.936233 
L 230.670765 208.778555 
L 244.74409 208.083538 
L 248.550652 208.19357 
L 252.211132 208.49623 
L 261.552027 209.514128 
L 263.568529 209.384156 
L 265.018499 209.059201 
L 266.341758 208.507903 
L 267.115099 208.028666 
L 267.793022 207.440063 
L 268.648225 206.393476 
L 269.272965 205.183181 
L 269.699713 203.860617 
L 271.047707 197.948059 
L 272.108263 193.817564 
L 273.617995 187.762329 
L 275.543691 179.240875 
L 277.467698 171.100472 
L 279.469546 163.256324 
L 281.161855 155.581189 
L 282.068573 150.191587 
L 282.564624 146.284996 
L 282.894952 142.315218 
L 283.169598 136.735669 
L 283.338379 130.332665 
L 283.230045 125.446629 
L 282.553598 112.336455 
L 281.701038 99.121805 
L 281.451724 93.154839 
L 281.463107 87.543745 
L 281.414941 83.598374 
L 281.430704 81.033082 
L 281.407879 75.10123 
L 281.181535 67.419535 
L 280.902606 65.466818 
L 280.513596 64.125905 
L 279.92782 62.909533 
L 279.150689 61.878188 
L 278.247299 61.001674 
L 277.232585 60.312599 
L 276.170823 59.79601 
L 275.40877 59.553006 
L 274.13035 59.308748 
L 272.738019 59.196555 
L 270.204195 59.234467 
L 264.038639 59.595452 
L 258.672817 59.968689 
L 226.781028 61.516817 
L 216.734036 62.452272 
L 212.27242 62.679938 
L 208.916781 62.636913 
L 206.570958 62.421981 
L 205.446113 62.207146 
L 204.413631 61.833716 
L 203.031937 61.023959 
L 202.046231 59.987211 
L 201.613299 59.361323 
L 201.080957 58.194825 
L 200.589131 56.364334 
L 200.323437 54.15395 
L 200.285969 53.568 
L 200.285969 53.568 
" style="fill:none;stroke:#008000;stroke-linecap:square;stroke-width:1.5;"/>
   </g>
   <g id="line2d_16">
    <path clip-path="url(#p9c6cd78c3b)" d="M 213.928909 295.488 
L 213.8342 291.34139 
L 213.386145 282.228008 
L 212.779127 272.600303 
L 212.216206 263.316028 
L 211.211345 248.604846 
L 209.819042 231.39971 
L 208.461261 216.287327 
L 208.657569 214.560176 
L 208.994532 213.370211 
L 209.521687 212.323756 
L 210.210764 211.442 
L 211.052054 210.729334 
L 212.328847 210.037632 
L 213.378026 209.696992 
L 215.606814 209.209736 
L 219.717784 208.870708 
L 225.770112 208.659322 
L 230.176867 208.40662 
L 241.919226 207.601632 
L 245.777676 207.550388 
L 248.799653 207.652602 
L 253.822529 208.089434 
L 260.032973 208.709158 
L 262.086127 208.691771 
L 263.577613 208.498284 
L 264.986141 208.073905 
L 266.233102 207.427418 
L 267.269372 206.545533 
L 268.11958 205.491977 
L 268.758511 204.287133 
L 269.308215 202.517826 
L 269.860076 200.165248 
L 270.381605 197.585766 
L 272.191893 190.331083 
L 273.354225 185.366892 
L 279.967811 156.096574 
L 280.803016 151.468042 
L 281.603188 145.260518 
L 282.034063 139.706027 
L 282.433851 130.121216 
L 282.349563 125.246335 
L 281.666845 112.925565 
L 280.471675 94.001898 
L 280.302301 74.722316 
L 279.840194 65.400564 
L 279.421569 63.515419 
L 278.897361 62.250178 
L 278.167859 61.157824 
L 277.301495 60.238557 
L 275.952529 59.307505 
L 274.501266 58.684529 
L 273.272296 58.405606 
L 271.909637 58.29152 
L 268.895409 58.403207 
L 260.513442 58.807121 
L 248.121924 59.334178 
L 233.223968 60.254383 
L 227.748069 60.613076 
L 210.954336 62.070588 
L 207.599047 62.055924 
L 206.420722 62.083836 
L 206.402481 63.171756 
L 206.602329 64.641713 
L 206.96211 65.731807 
L 207.400947 66.546827 
L 208.21883 67.518645 
L 209.073768 68.137303 
L 210.51655 68.727971 
L 212.241241 69.097114 
L 213.216765 69.203518 
L 213.216765 69.203518 
" style="fill:none;stroke:#0000ff;stroke-linecap:square;stroke-width:1.5;"/>
   </g>
   <g id="line2d_17">
    <path clip-path="url(#p9c6cd78c3b)" d="M 213.928909 295.488 
L 213.769685 289.683699 
L 213.288201 280.540939 
L 213.01204 275.296184 
L 212.435549 266.147755 
L 211.653114 255.381282 
L 209.540906 230.605448 
L 208.472941 220.90141 
L 208.139272 217.735259 
L 208.113517 216.328328 
L 208.184532 215.449301 
L 208.31421 214.604512 
L 208.282107 214.182885 
L 209.533628 211.758611 
L 210.59735 210.765722 
L 211.440745 210.106657 
L 211.71684 210.347695 
L 213.607168 209.194539 
L 215.96312 208.646906 
L 220.396646 207.866524 
L 223.436457 207.386298 
L 224.087965 207.271287 
L 224.75372 207.409053 
L 232.169768 206.114757 
L 238.356904 204.940274 
L 242.200471 204.257641 
L 248.970342 203.550784 
L 255.230656 203.452323 
L 259.815429 203.281881 
L 261.802383 202.917861 
L 262.28179 202.797503 
L 262.481524 202.404854 
L 262.956687 202.257407 
L 263.775983 201.761837 
L 263.79382 201.286009 
L 264.910521 200.532189 
L 265.75722 199.473981 
L 266.770067 197.433793 
L 267.022233 196.075288 
L 267.347775 194.187508 
L 267.383785 192.147575 
L 269.068217 183.051755 
L 270.267037 177.227476 
L 276.035942 149.361945 
L 276.802175 149.255856 
L 277.101593 145.337551 
L 277.24945 139.081277 
L 277.088061 134.30477 
L 276.617025 126.357912 
L 276.117442 120.734327 
L 275.37855 115.879568 
L 274.935416 113.442505 
L 273.964085 107.746414 
L 274.850146 106.378636 
L 274.35562 104.836823 
L 274.293971 104.02759 
L 273.773416 102.495808 
L 273.354349 100.953913 
L 271.804026 96.21808 
L 271.482438 94.895628 
L 270.145921 91.025075 
L 266.7681 78.667477 
L 263.925223 70.655391 
L 263.124892 68.19497 
L 260.557759 59.937131 
L 259.746011 58.842035 
L 259.103555 58.251803 
L 257.928704 57.756971 
L 256.694912 57.532072 
L 255.896058 57.44844 
L 254.748826 57.183783 
L 253.580975 57.552021 
L 252.719906 57.729027 
L 251.846113 58.014904 
L 251.470473 58.311291 
L 250.554076 58.647092 
L 248.59849 59.416001 
L 246.413962 60.253948 
L 241.959212 61.89617 
L 232.747247 65.218142 
L 232.419273 65.982178 
L 231.894754 66.637255 
L 231.946436 67.454351 
L 231.170978 67.772396 
L 224.450374 68.291459 
L 218.699874 68.618398 
L 218.633003 69.420377 
L 217.02622 69.386848 
L 215.442795 69.442247 
L 201.558101 69.682698 
L 199.757032 69.825093 
L 198.073021 69.858847 
L 197.037892 69.896088 
L 191.032008 69.055751 
L 190.710492 68.864537 
L 190.728555 68.887987 
L 190.717823 68.884378 
L 190.758486 68.804074 
L 190.748414 68.836069 
L 191.204852 68.162158 
L 192.106342 66.340869 
L 192.164909 65.412952 
L 192.186874 63.359099 
L 191.897402 62.214337 
L 191.544615 61.452876 
L 191.20035 60.627785 
L 190.1237 58.896604 
L 188.981621 57.627799 
L 188.981621 57.627799 
" style="fill:none;stroke:#ff0000;stroke-linecap:square;stroke-width:1.5;"/>
   </g>
   <g id="patch_3">
    <path d="M 57.6 307.584 
L 57.6 41.472 
" style="fill:none;stroke:#000000;stroke-linecap:square;stroke-linejoin:miter;stroke-width:0.8;"/>
   </g>
   <g id="patch_4">
    <path d="M 414.72 307.584 
L 414.72 41.472 
" style="fill:none;stroke:#000000;stroke-linecap:square;stroke-linejoin:miter;stroke-width:0.8;"/>
   </g>
   <g id="patch_5">
    <path d="M 57.6 307.584 
L 414.72 307.584 
" style="fill:none;stroke:#000000;stroke-linecap:square;stroke-linejoin:miter;stroke-width:0.8;"/>
   </g>
   <g id="patch_6">
    <path d="M 57.6 41.472 
L 414.72 41.472 
" style="fill:none;stroke:#000000;stroke-linecap:square;stroke-linejoin:miter;stroke-width:0.8;"/>
   </g>
  </g>
 </g>
 <defs>
  <clipPath id="p9c6cd78c3b">
   <rect height="266.112" width="357.12" x="57.6" y="41.472"/>
  </clipPath>
 </defs>
</svg>
