<?xml version="1.0" encoding="utf-8" standalone="no"?>
<!DOCTYPE svg PUBLIC "-//W3C//DTD SVG 1.1//EN"
  "http://www.w3.org/Graphics/SVG/1.1/DTD/svg11.dtd">
<!-- Created with matplotlib (https://matplotlib.org/) -->
<svg height="345.6pt" version="1.1" viewBox="0 0 460.8 345.6" width="460.8pt" xmlns="http://www.w3.org/2000/svg" xmlns:xlink="http://www.w3.org/1999/xlink">
 <defs>
  <style type="text/css">
*{stroke-linecap:butt;stroke-linejoin:round;}
  </style>
 </defs>
 <g id="figure_1">
  <g id="patch_1">
   <path d="M 0 345.6 
L 460.8 345.6 
L 460.8 0 
L 0 0 
z
" style="fill:#ffffff;"/>
  </g>
  <g id="axes_1">
   <g id="patch_2">
    <path d="M 57.6 307.584 
L 414.72 307.584 
L 414.72 41.472 
L 57.6 41.472 
z
" style="fill:#ffffff;"/>
   </g>
   <g id="matplotlib.axis_1">
    <g id="xtick_1">
     <g id="line2d_1">
      <defs>
       <path d="M 0 0 
L 0 3.5 
" id="m3fa0bc2644" style="stroke:#000000;stroke-width:0.8;"/>
      </defs>
      <g>
       <use style="stroke:#000000;stroke-width:0.8;" x="73.832727" xlink:href="#m3fa0bc2644" y="307.584"/>
      </g>
     </g>
     <g id="text_1">
      <!-- 0 -->
      <defs>
       <path d="M 31.78125 66.40625 
Q 24.171875 66.40625 20.328125 58.90625 
Q 16.5 51.421875 16.5 36.375 
Q 16.5 21.390625 20.328125 13.890625 
Q 24.171875 6.390625 31.78125 6.390625 
Q 39.453125 6.390625 43.28125 13.890625 
Q 47.125 21.390625 47.125 36.375 
Q 47.125 51.421875 43.28125 58.90625 
Q 39.453125 66.40625 31.78125 66.40625 
z
M 31.78125 74.21875 
Q 44.046875 74.21875 50.515625 64.515625 
Q 56.984375 54.828125 56.984375 36.375 
Q 56.984375 17.96875 50.515625 8.265625 
Q 44.046875 -1.421875 31.78125 -1.421875 
Q 19.53125 -1.421875 13.0625 8.265625 
Q 6.59375 17.96875 6.59375 36.375 
Q 6.59375 54.828125 13.0625 64.515625 
Q 19.53125 74.21875 31.78125 74.21875 
z
" id="DejaVuSans-48"/>
      </defs>
      <g transform="translate(70.651477 322.182437)scale(0.1 -0.1)">
       <use xlink:href="#DejaVuSans-48"/>
      </g>
     </g>
    </g>
    <g id="xtick_2">
     <g id="line2d_2">
      <g>
       <use style="stroke:#000000;stroke-width:0.8;" x="142.492841" xlink:href="#m3fa0bc2644" y="307.584"/>
      </g>
     </g>
     <g id="text_2">
      <!-- 20 -->
      <defs>
       <path d="M 19.1875 8.296875 
L 53.609375 8.296875 
L 53.609375 0 
L 7.328125 0 
L 7.328125 8.296875 
Q 12.9375 14.109375 22.625 23.890625 
Q 32.328125 33.6875 34.8125 36.53125 
Q 39.546875 41.84375 41.421875 45.53125 
Q 43.3125 49.21875 43.3125 52.78125 
Q 43.3125 58.59375 39.234375 62.25 
Q 35.15625 65.921875 28.609375 65.921875 
Q 23.96875 65.921875 18.8125 64.3125 
Q 13.671875 62.703125 7.8125 59.421875 
L 7.8125 69.390625 
Q 13.765625 71.78125 18.9375 73 
Q 24.125 74.21875 28.421875 74.21875 
Q 39.75 74.21875 46.484375 68.546875 
Q 53.21875 62.890625 53.21875 53.421875 
Q 53.21875 48.921875 51.53125 44.890625 
Q 49.859375 40.875 45.40625 35.40625 
Q 44.1875 33.984375 37.640625 27.21875 
Q 31.109375 20.453125 19.1875 8.296875 
z
" id="DejaVuSans-50"/>
      </defs>
      <g transform="translate(136.130341 322.182437)scale(0.1 -0.1)">
       <use xlink:href="#DejaVuSans-50"/>
       <use x="63.623047" xlink:href="#DejaVuSans-48"/>
      </g>
     </g>
    </g>
    <g id="xtick_3">
     <g id="line2d_3">
      <g>
       <use style="stroke:#000000;stroke-width:0.8;" x="211.152955" xlink:href="#m3fa0bc2644" y="307.584"/>
      </g>
     </g>
     <g id="text_3">
      <!-- 40 -->
      <defs>
       <path d="M 37.796875 64.3125 
L 12.890625 25.390625 
L 37.796875 25.390625 
z
M 35.203125 72.90625 
L 47.609375 72.90625 
L 47.609375 25.390625 
L 58.015625 25.390625 
L 58.015625 17.1875 
L 47.609375 17.1875 
L 47.609375 0 
L 37.796875 0 
L 37.796875 17.1875 
L 4.890625 17.1875 
L 4.890625 26.703125 
z
" id="DejaVuSans-52"/>
      </defs>
      <g transform="translate(204.790455 322.182437)scale(0.1 -0.1)">
       <use xlink:href="#DejaVuSans-52"/>
       <use x="63.623047" xlink:href="#DejaVuSans-48"/>
      </g>
     </g>
    </g>
    <g id="xtick_4">
     <g id="line2d_4">
      <g>
       <use style="stroke:#000000;stroke-width:0.8;" x="279.813068" xlink:href="#m3fa0bc2644" y="307.584"/>
      </g>
     </g>
     <g id="text_4">
      <!-- 60 -->
      <defs>
       <path d="M 33.015625 40.375 
Q 26.375 40.375 22.484375 35.828125 
Q 18.609375 31.296875 18.609375 23.390625 
Q 18.609375 15.53125 22.484375 10.953125 
Q 26.375 6.390625 33.015625 6.390625 
Q 39.65625 6.390625 43.53125 10.953125 
Q 47.40625 15.53125 47.40625 23.390625 
Q 47.40625 31.296875 43.53125 35.828125 
Q 39.65625 40.375 33.015625 40.375 
z
M 52.59375 71.296875 
L 52.59375 62.3125 
Q 48.875 64.0625 45.09375 64.984375 
Q 41.3125 65.921875 37.59375 65.921875 
Q 27.828125 65.921875 22.671875 59.328125 
Q 17.53125 52.734375 16.796875 39.40625 
Q 19.671875 43.65625 24.015625 45.921875 
Q 28.375 48.1875 33.59375 48.1875 
Q 44.578125 48.1875 50.953125 41.515625 
Q 57.328125 34.859375 57.328125 23.390625 
Q 57.328125 12.15625 50.6875 5.359375 
Q 44.046875 -1.421875 33.015625 -1.421875 
Q 20.359375 -1.421875 13.671875 8.265625 
Q 6.984375 17.96875 6.984375 36.375 
Q 6.984375 53.65625 15.1875 63.9375 
Q 23.390625 74.21875 37.203125 74.21875 
Q 40.921875 74.21875 44.703125 73.484375 
Q 48.484375 72.75 52.59375 71.296875 
z
" id="DejaVuSans-54"/>
      </defs>
      <g transform="translate(273.450568 322.182437)scale(0.1 -0.1)">
       <use xlink:href="#DejaVuSans-54"/>
       <use x="63.623047" xlink:href="#DejaVuSans-48"/>
      </g>
     </g>
    </g>
    <g id="xtick_5">
     <g id="line2d_5">
      <g>
       <use style="stroke:#000000;stroke-width:0.8;" x="348.473182" xlink:href="#m3fa0bc2644" y="307.584"/>
      </g>
     </g>
     <g id="text_5">
      <!-- 80 -->
      <defs>
       <path d="M 31.78125 34.625 
Q 24.75 34.625 20.71875 30.859375 
Q 16.703125 27.09375 16.703125 20.515625 
Q 16.703125 13.921875 20.71875 10.15625 
Q 24.75 6.390625 31.78125 6.390625 
Q 38.8125 6.390625 42.859375 10.171875 
Q 46.921875 13.96875 46.921875 20.515625 
Q 46.921875 27.09375 42.890625 30.859375 
Q 38.875 34.625 31.78125 34.625 
z
M 21.921875 38.8125 
Q 15.578125 40.375 12.03125 44.71875 
Q 8.5 49.078125 8.5 55.328125 
Q 8.5 64.0625 14.71875 69.140625 
Q 20.953125 74.21875 31.78125 74.21875 
Q 42.671875 74.21875 48.875 69.140625 
Q 55.078125 64.0625 55.078125 55.328125 
Q 55.078125 49.078125 51.53125 44.71875 
Q 48 40.375 41.703125 38.8125 
Q 48.828125 37.15625 52.796875 32.3125 
Q 56.78125 27.484375 56.78125 20.515625 
Q 56.78125 9.90625 50.3125 4.234375 
Q 43.84375 -1.421875 31.78125 -1.421875 
Q 19.734375 -1.421875 13.25 4.234375 
Q 6.78125 9.90625 6.78125 20.515625 
Q 6.78125 27.484375 10.78125 32.3125 
Q 14.796875 37.15625 21.921875 38.8125 
z
M 18.3125 54.390625 
Q 18.3125 48.734375 21.84375 45.5625 
Q 25.390625 42.390625 31.78125 42.390625 
Q 38.140625 42.390625 41.71875 45.5625 
Q 45.3125 48.734375 45.3125 54.390625 
Q 45.3125 60.0625 41.71875 63.234375 
Q 38.140625 66.40625 31.78125 66.40625 
Q 25.390625 66.40625 21.84375 63.234375 
Q 18.3125 60.0625 18.3125 54.390625 
z
" id="DejaVuSans-56"/>
      </defs>
      <g transform="translate(342.110682 322.182437)scale(0.1 -0.1)">
       <use xlink:href="#DejaVuSans-56"/>
       <use x="63.623047" xlink:href="#DejaVuSans-48"/>
      </g>
     </g>
    </g>
   </g>
   <g id="matplotlib.axis_2">
    <g id="ytick_1">
     <g id="line2d_6">
      <defs>
       <path d="M 0 0 
L -3.5 0 
" id="mf014356f76" style="stroke:#000000;stroke-width:0.8;"/>
      </defs>
      <g>
       <use style="stroke:#000000;stroke-width:0.8;" x="57.6" xlink:href="#mf014356f76" y="279.972694"/>
      </g>
     </g>
     <g id="text_6">
      <!-- −20 -->
      <defs>
       <path d="M 10.59375 35.5 
L 73.1875 35.5 
L 73.1875 27.203125 
L 10.59375 27.203125 
z
" id="DejaVuSans-8722"/>
      </defs>
      <g transform="translate(29.495313 283.771913)scale(0.1 -0.1)">
       <use xlink:href="#DejaVuSans-8722"/>
       <use x="83.789062" xlink:href="#DejaVuSans-50"/>
       <use x="147.412109" xlink:href="#DejaVuSans-48"/>
      </g>
     </g>
    </g>
    <g id="ytick_2">
     <g id="line2d_7">
      <g>
       <use style="stroke:#000000;stroke-width:0.8;" x="57.6" xlink:href="#mf014356f76" y="245.642637"/>
      </g>
     </g>
     <g id="text_7">
      <!-- −10 -->
      <defs>
       <path d="M 12.40625 8.296875 
L 28.515625 8.296875 
L 28.515625 63.921875 
L 10.984375 60.40625 
L 10.984375 69.390625 
L 28.421875 72.90625 
L 38.28125 72.90625 
L 38.28125 8.296875 
L 54.390625 8.296875 
L 54.390625 0 
L 12.40625 0 
z
" id="DejaVuSans-49"/>
      </defs>
      <g transform="translate(29.495313 249.441856)scale(0.1 -0.1)">
       <use xlink:href="#DejaVuSans-8722"/>
       <use x="83.789062" xlink:href="#DejaVuSans-49"/>
       <use x="147.412109" xlink:href="#DejaVuSans-48"/>
      </g>
     </g>
    </g>
    <g id="ytick_3">
     <g id="line2d_8">
      <g>
       <use style="stroke:#000000;stroke-width:0.8;" x="57.6" xlink:href="#mf014356f76" y="211.31258"/>
      </g>
     </g>
     <g id="text_8">
      <!-- 0 -->
      <g transform="translate(44.2375 215.111799)scale(0.1 -0.1)">
       <use xlink:href="#DejaVuSans-48"/>
      </g>
     </g>
    </g>
    <g id="ytick_4">
     <g id="line2d_9">
      <g>
       <use style="stroke:#000000;stroke-width:0.8;" x="57.6" xlink:href="#mf014356f76" y="176.982523"/>
      </g>
     </g>
     <g id="text_9">
      <!-- 10 -->
      <g transform="translate(37.875 180.781742)scale(0.1 -0.1)">
       <use xlink:href="#DejaVuSans-49"/>
       <use x="63.623047" xlink:href="#DejaVuSans-48"/>
      </g>
     </g>
    </g>
    <g id="ytick_5">
     <g id="line2d_10">
      <g>
       <use style="stroke:#000000;stroke-width:0.8;" x="57.6" xlink:href="#mf014356f76" y="142.652467"/>
      </g>
     </g>
     <g id="text_10">
      <!-- 20 -->
      <g transform="translate(37.875 146.451685)scale(0.1 -0.1)">
       <use xlink:href="#DejaVuSans-50"/>
       <use x="63.623047" xlink:href="#DejaVuSans-48"/>
      </g>
     </g>
    </g>
    <g id="ytick_6">
     <g id="line2d_11">
      <g>
       <use style="stroke:#000000;stroke-width:0.8;" x="57.6" xlink:href="#mf014356f76" y="108.32241"/>
      </g>
     </g>
     <g id="text_11">
      <!-- 30 -->
      <defs>
       <path d="M 40.578125 39.3125 
Q 47.65625 37.796875 51.625 33 
Q 55.609375 28.21875 55.609375 21.1875 
Q 55.609375 10.40625 48.1875 4.484375 
Q 40.765625 -1.421875 27.09375 -1.421875 
Q 22.515625 -1.421875 17.65625 -0.515625 
Q 12.796875 0.390625 7.625 2.203125 
L 7.625 11.71875 
Q 11.71875 9.328125 16.59375 8.109375 
Q 21.484375 6.890625 26.8125 6.890625 
Q 36.078125 6.890625 40.9375 10.546875 
Q 45.796875 14.203125 45.796875 21.1875 
Q 45.796875 27.640625 41.28125 31.265625 
Q 36.765625 34.90625 28.71875 34.90625 
L 20.21875 34.90625 
L 20.21875 43.015625 
L 29.109375 43.015625 
Q 36.375 43.015625 40.234375 45.921875 
Q 44.09375 48.828125 44.09375 54.296875 
Q 44.09375 59.90625 40.109375 62.90625 
Q 36.140625 65.921875 28.71875 65.921875 
Q 24.65625 65.921875 20.015625 65.03125 
Q 15.375 64.15625 9.8125 62.3125 
L 9.8125 71.09375 
Q 15.4375 72.65625 20.34375 73.4375 
Q 25.25 74.21875 29.59375 74.21875 
Q 40.828125 74.21875 47.359375 69.109375 
Q 53.90625 64.015625 53.90625 55.328125 
Q 53.90625 49.265625 50.4375 45.09375 
Q 46.96875 40.921875 40.578125 39.3125 
z
" id="DejaVuSans-51"/>
      </defs>
      <g transform="translate(37.875 112.121629)scale(0.1 -0.1)">
       <use xlink:href="#DejaVuSans-51"/>
       <use x="63.623047" xlink:href="#DejaVuSans-48"/>
      </g>
     </g>
    </g>
    <g id="ytick_7">
     <g id="line2d_12">
      <g>
       <use style="stroke:#000000;stroke-width:0.8;" x="57.6" xlink:href="#mf014356f76" y="73.992353"/>
      </g>
     </g>
     <g id="text_12">
      <!-- 40 -->
      <g transform="translate(37.875 77.791572)scale(0.1 -0.1)">
       <use xlink:href="#DejaVuSans-52"/>
       <use x="63.623047" xlink:href="#DejaVuSans-48"/>
      </g>
     </g>
    </g>
   </g>
   <g id="line2d_13">
    <path clip-path="url(#pc213ca913b)" d="M 73.832727 211.31258 
L 74.009687 207.877085 
L 74.335536 204.461471 
L 74.82116 201.059252 
L 75.431651 197.704677 
L 76.226097 194.371935 
L 77.168129 191.100239 
L 78.25471 187.878188 
L 79.501756 184.727546 
L 80.872099 181.629986 
L 82.376397 178.604986 
L 84.016025 175.663662 
L 85.79012 172.809358 
L 87.690707 170.052036 
L 89.732484 167.404227 
L 91.863299 164.862018 
L 94.133672 162.435809 
L 96.499638 160.119045 
L 98.948538 157.912755 
L 101.501565 155.852368 
L 104.12882 153.906746 
L 106.849656 152.098891 
L 109.658613 150.425403 
L 112.534339 148.870973 
L 115.504061 147.440096 
L 118.543713 146.137442 
L 121.629847 144.934413 
L 124.797997 143.834856 
L 128.033673 142.828985 
L 131.322149 141.932936 
L 134.634554 141.131981 
L 137.998144 140.43666 
L 141.434308 139.849445 
L 144.925881 139.36055 
L 148.471661 138.963695 
L 152.073536 138.666122 
L 155.722443 138.482456 
L 159.421404 138.393164 
L 163.171482 138.394605 
L 166.960662 138.47916 
L 170.789356 138.636907 
L 174.660859 138.850715 
L 178.549391 139.117837 
L 182.459756 139.425983 
L 186.390067 139.779171 
L 190.356905 140.185536 
L 194.381795 140.643018 
L 198.482143 141.152305 
L 202.662445 141.694994 
L 206.921191 142.271911 
L 211.23545 142.884085 
L 215.634743 143.522796 
L 220.102079 144.195081 
L 224.654211 144.89126 
L 229.283928 145.613325 
L 233.977293 146.352176 
L 238.739181 147.11729 
L 243.567428 147.894042 
L 248.474018 148.694756 
L 253.43502 149.498869 
L 258.473985 150.314174 
L 263.59421 151.136619 
L 268.782478 151.957726 
L 274.044589 152.790195 
L 279.366915 153.619026 
L 284.788592 154.461692 
L 290.268768 155.303671 
L 295.815887 156.15945 
L 301.416046 157.022027 
L 307.049093 157.880279 
L 312.740605 158.751027 
L 318.480659 159.609862 
L 324.269016 160.479785 
L 330.129911 161.349229 
L 336.031386 162.23491 
L 341.991907 163.121243 
L 348.006877 164.019112 
L 354.057171 164.916499 
L 360.156215 165.827654 
L 366.303424 166.752162 
L 372.522691 167.688995 
L 378.777936 168.645705 
L 385.091714 169.606329 
L 391.441127 170.592769 
L 397.854119 171.594932 
" style="fill:none;stroke:#008000;stroke-linecap:square;stroke-width:1.5;"/>
   </g>
   <g id="line2d_14">
    <path clip-path="url(#pc213ca913b)" d="M 73.832727 211.31258 
L 73.9588 207.878736 
L 74.165877 204.453228 
L 74.616576 201.047061 
L 75.000489 197.658838 
L 75.788344 194.323709 
L 76.710928 191.044771 
L 77.816927 187.827822 
L 79.099259 184.691613 
L 80.4933 181.604775 
L 81.997368 178.578286 
L 83.619104 175.627052 
L 85.384551 172.766439 
L 87.305279 170.023074 
L 89.337408 167.367067 
L 91.443788 164.804565 
L 93.712961 162.376106 
L 96.026761 160.005827 
L 98.516619 157.847584 
L 100.997232 155.701176 
L 103.582074 153.700566 
L 106.268846 151.841855 
L 109.088499 150.185887 
L 111.949454 148.604379 
L 114.92415 147.183934 
L 117.954 145.860425 
L 121.046153 144.670875 
L 124.212909 143.56712 
L 127.430209 142.505458 
L 130.713967 141.590815 
L 134.014453 140.742712 
L 137.366911 139.995636 
L 140.788782 139.330912 
L 144.274023 138.798938 
L 147.813557 138.351119 
L 151.410947 138.005621 
L 155.059612 137.817704 
L 158.759049 137.752029 
L 162.50899 137.74342 
L 166.298356 137.814705 
L 170.127973 137.944571 
L 174.000417 138.140889 
L 177.893837 138.320918 
L 181.80681 138.59481 
L 185.739926 138.915993 
L 189.715497 139.227073 
L 193.749552 139.596855 
L 197.864284 139.974505 
L 202.057563 140.407117 
L 206.321409 140.945806 
L 210.647845 141.466221 
L 215.059073 142.01744 
L 219.54125 142.583018 
L 224.105754 143.19329 
L 228.744115 143.858338 
L 233.445033 144.548151 
L 238.221281 145.219816 
L 243.063954 145.902308 
L 247.984674 146.612395 
L 252.959603 147.326128 
L 258.007245 148.086689 
L 263.144956 148.791983 
L 268.354006 149.469363 
L 273.625764 150.239182 
L 278.970363 150.910454 
L 284.4065 151.654275 
L 289.897926 152.418667 
L 295.459701 153.173809 
L 301.07384 153.940647 
L 306.721101 154.700424 
L 312.434152 155.41634 
L 318.195323 156.118011 
L 323.996628 156.896679 
L 329.874762 157.64034 
L 335.786452 158.455506 
L 341.764837 159.211702 
L 347.788029 160.052938 
L 353.864688 160.748688 
L 359.969531 161.619014 
L 366.125107 162.486072 
L 372.346465 163.408798 
L 378.607566 164.326384 
L 384.9375 165.174249 
L 391.301935 166.058746 
L 397.725755 166.986602 
" style="fill:none;stroke:#0000ff;stroke-linecap:square;stroke-width:1.5;"/>
   </g>
   <g id="line2d_15">
    <path clip-path="url(#pc213ca913b)" d="M 73.832727 211.31258 
L 73.961897 207.874501 
L 73.938254 204.444506 
L 74.400049 201.040496 
L 74.961223 197.677253 
L 75.802507 194.35546 
L 76.763008 191.088123 
L 77.914784 187.887082 
L 79.191771 184.749292 
L 80.614204 181.674614 
L 82.162082 178.670562 
L 83.833862 175.74713 
L 85.64687 172.915866 
L 87.604744 170.199003 
L 89.675518 167.573141 
L 91.831283 165.052212 
L 94.137066 162.658919 
L 96.515164 160.353857 
L 99.014514 158.206063 
L 101.54227 156.115579 
L 104.134331 154.124008 
L 106.851383 152.30798 
L 109.677937 150.664871 
L 112.55163 149.107286 
L 115.548027 147.73265 
L 118.606996 146.4769 
L 121.70904 145.314508 
L 124.879443 144.223495 
L 128.128595 143.263307 
L 131.414119 142.356867 
L 134.723557 141.545347 
L 138.077196 140.805083 
L 141.504831 140.171759 
L 144.988554 139.633019 
L 148.527835 139.185719 
L 152.124995 138.840911 
L 155.770682 138.60395 
L 159.469074 138.495365 
L 163.218661 138.470661 
L 167.00835 138.527929 
L 170.837717 138.661223 
L 174.711412 138.830512 
L 178.602231 139.061962 
L 182.515232 139.33553 
L 186.447117 139.67174 
L 190.41847 140.032493 
L 194.447309 140.45541 
L 198.558516 140.869854 
L 202.747295 141.343992 
L 207.01306 141.866947 
L 211.339178 142.390011 
L 215.74693 142.968032 
L 220.228458 143.538767 
L 224.790444 144.167575 
L 229.426905 144.845203 
L 234.132407 145.503433 
L 238.908211 146.178168 
L 243.752622 146.848107 
L 248.671611 147.569345 
L 253.643041 148.306863 
L 258.690491 149.068452 
L 263.826033 149.789896 
L 269.031315 150.495745 
L 274.30668 151.240382 
L 279.646249 151.950387 
L 285.085284 152.672443 
L 290.580493 153.409779 
L 296.139077 154.187753 
L 301.755102 154.939275 
L 307.406441 155.667653 
L 313.122631 156.358497 
L 318.887093 157.034381 
L 324.693234 157.775939 
L 330.576875 158.475385 
L 336.496823 159.228259 
L 342.476597 159.97301 
L 348.505277 160.773649 
L 354.577327 161.509781 
L 360.692245 162.307439 
L 366.857632 163.101231 
L 373.089027 163.953446 
L 379.353102 164.849462 
L 385.688302 165.65702 
L 392.056822 166.511599 
L 398.487273 167.394837 
" style="fill:none;stroke:#ff0000;stroke-linecap:square;stroke-width:1.5;"/>
   </g>
   <g id="patch_3">
    <path d="M 57.6 307.584 
L 57.6 41.472 
" style="fill:none;stroke:#000000;stroke-linecap:square;stroke-linejoin:miter;stroke-width:0.8;"/>
   </g>
   <g id="patch_4">
    <path d="M 414.72 307.584 
L 414.72 41.472 
" style="fill:none;stroke:#000000;stroke-linecap:square;stroke-linejoin:miter;stroke-width:0.8;"/>
   </g>
   <g id="patch_5">
    <path d="M 57.6 307.584 
L 414.72 307.584 
" style="fill:none;stroke:#000000;stroke-linecap:square;stroke-linejoin:miter;stroke-width:0.8;"/>
   </g>
   <g id="patch_6">
    <path d="M 57.6 41.472 
L 414.72 41.472 
" style="fill:none;stroke:#000000;stroke-linecap:square;stroke-linejoin:miter;stroke-width:0.8;"/>
   </g>
  </g>
 </g>
 <defs>
  <clipPath id="pc213ca913b">
   <rect height="266.112" width="357.12" x="57.6" y="41.472"/>
  </clipPath>
 </defs>
</svg>
