<?xml version="1.0" encoding="utf-8" standalone="no"?>
<!DOCTYPE svg PUBLIC "-//W3C//DTD SVG 1.1//EN"
  "http://www.w3.org/Graphics/SVG/1.1/DTD/svg11.dtd">
<!-- Created with matplotlib (https://matplotlib.org/) -->
<svg height="345.6pt" version="1.1" viewBox="0 0 460.8 345.6" width="460.8pt" xmlns="http://www.w3.org/2000/svg" xmlns:xlink="http://www.w3.org/1999/xlink">
 <defs>
  <style type="text/css">
*{stroke-linecap:butt;stroke-linejoin:round;}
  </style>
 </defs>
 <g id="figure_1">
  <g id="patch_1">
   <path d="M 0 345.6 
L 460.8 345.6 
L 460.8 0 
L 0 0 
z
" style="fill:#ffffff;"/>
  </g>
  <g id="axes_1">
   <g id="patch_2">
    <path d="M 57.6 307.584 
L 414.72 307.584 
L 414.72 41.472 
L 57.6 41.472 
z
" style="fill:#ffffff;"/>
   </g>
   <g id="matplotlib.axis_1">
    <g id="xtick_1">
     <g id="line2d_1">
      <defs>
       <path d="M 0 0 
L 0 3.5 
" id="m81966dcf44" style="stroke:#000000;stroke-width:0.8;"/>
      </defs>
      <g>
       <use style="stroke:#000000;stroke-width:0.8;" x="71.009982" xlink:href="#m81966dcf44" y="307.584"/>
      </g>
     </g>
     <g id="text_1">
      <!-- −300 -->
      <defs>
       <path d="M 10.59375 35.5 
L 73.1875 35.5 
L 73.1875 27.203125 
L 10.59375 27.203125 
z
" id="DejaVuSans-8722"/>
       <path d="M 40.578125 39.3125 
Q 47.65625 37.796875 51.625 33 
Q 55.609375 28.21875 55.609375 21.1875 
Q 55.609375 10.40625 48.1875 4.484375 
Q 40.765625 -1.421875 27.09375 -1.421875 
Q 22.515625 -1.421875 17.65625 -0.515625 
Q 12.796875 0.390625 7.625 2.203125 
L 7.625 11.71875 
Q 11.71875 9.328125 16.59375 8.109375 
Q 21.484375 6.890625 26.8125 6.890625 
Q 36.078125 6.890625 40.9375 10.546875 
Q 45.796875 14.203125 45.796875 21.1875 
Q 45.796875 27.640625 41.28125 31.265625 
Q 36.765625 34.90625 28.71875 34.90625 
L 20.21875 34.90625 
L 20.21875 43.015625 
L 29.109375 43.015625 
Q 36.375 43.015625 40.234375 45.921875 
Q 44.09375 48.828125 44.09375 54.296875 
Q 44.09375 59.90625 40.109375 62.90625 
Q 36.140625 65.921875 28.71875 65.921875 
Q 24.65625 65.921875 20.015625 65.03125 
Q 15.375 64.15625 9.8125 62.3125 
L 9.8125 71.09375 
Q 15.4375 72.65625 20.34375 73.4375 
Q 25.25 74.21875 29.59375 74.21875 
Q 40.828125 74.21875 47.359375 69.109375 
Q 53.90625 64.015625 53.90625 55.328125 
Q 53.90625 49.265625 50.4375 45.09375 
Q 46.96875 40.921875 40.578125 39.3125 
z
" id="DejaVuSans-51"/>
       <path d="M 31.78125 66.40625 
Q 24.171875 66.40625 20.328125 58.90625 
Q 16.5 51.421875 16.5 36.375 
Q 16.5 21.390625 20.328125 13.890625 
Q 24.171875 6.390625 31.78125 6.390625 
Q 39.453125 6.390625 43.28125 13.890625 
Q 47.125 21.390625 47.125 36.375 
Q 47.125 51.421875 43.28125 58.90625 
Q 39.453125 66.40625 31.78125 66.40625 
z
M 31.78125 74.21875 
Q 44.046875 74.21875 50.515625 64.515625 
Q 56.984375 54.828125 56.984375 36.375 
Q 56.984375 17.96875 50.515625 8.265625 
Q 44.046875 -1.421875 31.78125 -1.421875 
Q 19.53125 -1.421875 13.0625 8.265625 
Q 6.59375 17.96875 6.59375 36.375 
Q 6.59375 54.828125 13.0625 64.515625 
Q 19.53125 74.21875 31.78125 74.21875 
z
" id="DejaVuSans-48"/>
      </defs>
      <g transform="translate(57.276388 322.182437)scale(0.1 -0.1)">
       <use xlink:href="#DejaVuSans-8722"/>
       <use x="83.789062" xlink:href="#DejaVuSans-51"/>
       <use x="147.412109" xlink:href="#DejaVuSans-48"/>
       <use x="211.035156" xlink:href="#DejaVuSans-48"/>
      </g>
     </g>
    </g>
    <g id="xtick_2">
     <g id="line2d_2">
      <g>
       <use style="stroke:#000000;stroke-width:0.8;" x="128.313828" xlink:href="#m81966dcf44" y="307.584"/>
      </g>
     </g>
     <g id="text_2">
      <!-- −200 -->
      <defs>
       <path d="M 19.1875 8.296875 
L 53.609375 8.296875 
L 53.609375 0 
L 7.328125 0 
L 7.328125 8.296875 
Q 12.9375 14.109375 22.625 23.890625 
Q 32.328125 33.6875 34.8125 36.53125 
Q 39.546875 41.84375 41.421875 45.53125 
Q 43.3125 49.21875 43.3125 52.78125 
Q 43.3125 58.59375 39.234375 62.25 
Q 35.15625 65.921875 28.609375 65.921875 
Q 23.96875 65.921875 18.8125 64.3125 
Q 13.671875 62.703125 7.8125 59.421875 
L 7.8125 69.390625 
Q 13.765625 71.78125 18.9375 73 
Q 24.125 74.21875 28.421875 74.21875 
Q 39.75 74.21875 46.484375 68.546875 
Q 53.21875 62.890625 53.21875 53.421875 
Q 53.21875 48.921875 51.53125 44.890625 
Q 49.859375 40.875 45.40625 35.40625 
Q 44.1875 33.984375 37.640625 27.21875 
Q 31.109375 20.453125 19.1875 8.296875 
z
" id="DejaVuSans-50"/>
      </defs>
      <g transform="translate(114.580234 322.182437)scale(0.1 -0.1)">
       <use xlink:href="#DejaVuSans-8722"/>
       <use x="83.789062" xlink:href="#DejaVuSans-50"/>
       <use x="147.412109" xlink:href="#DejaVuSans-48"/>
       <use x="211.035156" xlink:href="#DejaVuSans-48"/>
      </g>
     </g>
    </g>
    <g id="xtick_3">
     <g id="line2d_3">
      <g>
       <use style="stroke:#000000;stroke-width:0.8;" x="185.617674" xlink:href="#m81966dcf44" y="307.584"/>
      </g>
     </g>
     <g id="text_3">
      <!-- −100 -->
      <defs>
       <path d="M 12.40625 8.296875 
L 28.515625 8.296875 
L 28.515625 63.921875 
L 10.984375 60.40625 
L 10.984375 69.390625 
L 28.421875 72.90625 
L 38.28125 72.90625 
L 38.28125 8.296875 
L 54.390625 8.296875 
L 54.390625 0 
L 12.40625 0 
z
" id="DejaVuSans-49"/>
      </defs>
      <g transform="translate(171.884081 322.182437)scale(0.1 -0.1)">
       <use xlink:href="#DejaVuSans-8722"/>
       <use x="83.789062" xlink:href="#DejaVuSans-49"/>
       <use x="147.412109" xlink:href="#DejaVuSans-48"/>
       <use x="211.035156" xlink:href="#DejaVuSans-48"/>
      </g>
     </g>
    </g>
    <g id="xtick_4">
     <g id="line2d_4">
      <g>
       <use style="stroke:#000000;stroke-width:0.8;" x="242.921521" xlink:href="#m81966dcf44" y="307.584"/>
      </g>
     </g>
     <g id="text_4">
      <!-- 0 -->
      <g transform="translate(239.740271 322.182437)scale(0.1 -0.1)">
       <use xlink:href="#DejaVuSans-48"/>
      </g>
     </g>
    </g>
    <g id="xtick_5">
     <g id="line2d_5">
      <g>
       <use style="stroke:#000000;stroke-width:0.8;" x="300.225367" xlink:href="#m81966dcf44" y="307.584"/>
      </g>
     </g>
     <g id="text_5">
      <!-- 100 -->
      <g transform="translate(290.681617 322.182437)scale(0.1 -0.1)">
       <use xlink:href="#DejaVuSans-49"/>
       <use x="63.623047" xlink:href="#DejaVuSans-48"/>
       <use x="127.246094" xlink:href="#DejaVuSans-48"/>
      </g>
     </g>
    </g>
    <g id="xtick_6">
     <g id="line2d_6">
      <g>
       <use style="stroke:#000000;stroke-width:0.8;" x="357.529213" xlink:href="#m81966dcf44" y="307.584"/>
      </g>
     </g>
     <g id="text_6">
      <!-- 200 -->
      <g transform="translate(347.985463 322.182437)scale(0.1 -0.1)">
       <use xlink:href="#DejaVuSans-50"/>
       <use x="63.623047" xlink:href="#DejaVuSans-48"/>
       <use x="127.246094" xlink:href="#DejaVuSans-48"/>
      </g>
     </g>
    </g>
   </g>
   <g id="matplotlib.axis_2">
    <g id="ytick_1">
     <g id="line2d_7">
      <defs>
       <path d="M 0 0 
L -3.5 0 
" id="m5f39ff9a38" style="stroke:#000000;stroke-width:0.8;"/>
      </defs>
      <g>
       <use style="stroke:#000000;stroke-width:0.8;" x="57.6" xlink:href="#m5f39ff9a38" y="261.965815"/>
      </g>
     </g>
     <g id="text_7">
      <!-- 0 -->
      <g transform="translate(44.2375 265.765033)scale(0.1 -0.1)">
       <use xlink:href="#DejaVuSans-48"/>
      </g>
     </g>
    </g>
    <g id="ytick_2">
     <g id="line2d_8">
      <g>
       <use style="stroke:#000000;stroke-width:0.8;" x="57.6" xlink:href="#m5f39ff9a38" y="204.661968"/>
      </g>
     </g>
     <g id="text_8">
      <!-- 100 -->
      <g transform="translate(31.5125 208.461187)scale(0.1 -0.1)">
       <use xlink:href="#DejaVuSans-49"/>
       <use x="63.623047" xlink:href="#DejaVuSans-48"/>
       <use x="127.246094" xlink:href="#DejaVuSans-48"/>
      </g>
     </g>
    </g>
    <g id="ytick_3">
     <g id="line2d_9">
      <g>
       <use style="stroke:#000000;stroke-width:0.8;" x="57.6" xlink:href="#m5f39ff9a38" y="147.358122"/>
      </g>
     </g>
     <g id="text_9">
      <!-- 200 -->
      <g transform="translate(31.5125 151.157341)scale(0.1 -0.1)">
       <use xlink:href="#DejaVuSans-50"/>
       <use x="63.623047" xlink:href="#DejaVuSans-48"/>
       <use x="127.246094" xlink:href="#DejaVuSans-48"/>
      </g>
     </g>
    </g>
    <g id="ytick_4">
     <g id="line2d_10">
      <g>
       <use style="stroke:#000000;stroke-width:0.8;" x="57.6" xlink:href="#m5f39ff9a38" y="90.054276"/>
      </g>
     </g>
     <g id="text_10">
      <!-- 300 -->
      <g transform="translate(31.5125 93.853495)scale(0.1 -0.1)">
       <use xlink:href="#DejaVuSans-51"/>
       <use x="63.623047" xlink:href="#DejaVuSans-48"/>
       <use x="127.246094" xlink:href="#DejaVuSans-48"/>
      </g>
     </g>
    </g>
   </g>
   <g id="line2d_11">
    <path clip-path="url(#pbfdc8a7461)" d="M 242.921521 261.965815 
L 242.838731 257.589175 
L 242.663234 248.2993 
L 242.246767 231.46147 
L 241.403205 207.325417 
L 241.097727 202.422878 
L 241.253166 201.293763 
L 241.615357 200.297306 
L 242.186413 199.476199 
L 242.780189 198.922644 
L 243.728436 198.440662 
L 244.603174 198.206346 
L 246.470316 198.056439 
L 263.926658 198.454644 
L 271.145957 198.750962 
L 275.381353 199.012038 
L 286.852724 200.258282 
L 301.301419 202.022782 
L 309.02529 203.007606 
L 315.367737 204.103141 
L 317.770487 204.744022 
L 326.573847 207.387282 
L 328.889668 207.868468 
L 330.512685 208.018747 
L 334.264539 208.192917 
L 336.543914 208.644666 
L 341.33996 209.878607 
L 348.493486 211.911736 
L 349.617672 211.971521 
L 350.895605 211.810079 
L 351.93269 211.44832 
L 352.969145 210.797961 
L 353.778218 210.000114 
L 354.528612 208.968077 
L 355.392639 207.339714 
L 356.354427 204.999459 
L 362.401186 187.049115 
L 364.093885 181.131978 
L 364.774998 178.204324 
L 364.805598 176.979053 
L 364.63191 176.04947 
L 364.159784 175.013073 
L 363.433916 174.195462 
L 362.520206 173.6446 
L 361.04618 173.301063 
L 359.326491 173.15534 
L 357.483141 173.169322 
L 352.649676 173.271609 
L 349.725518 173.075 
L 342.113275 172.205528 
L 326.943744 170.276222 
L 319.500031 169.330938 
L 304.457829 167.97914 
L 291.716015 166.731636 
L 279.90591 165.442127 
L 269.645456 164.641191 
L 259.943262 164.14047 
L 249.187083 163.639062 
L 245.784052 163.272718 
L 244.124987 162.921789 
L 242.992857 162.494876 
L 242.162326 161.995301 
L 241.338731 161.220782 
L 240.73864 160.313204 
L 240.251799 159.163631 
L 239.98047 158.018586 
L 239.841787 156.336775 
L 239.329888 134.389631 
L 239.326091 132.612524 
L 239.506708 131.435217 
L 239.93297 130.384322 
L 240.536134 129.483505 
L 241.352477 128.700964 
L 242.188881 128.250155 
L 242.922895 127.961114 
L 244.04936 127.733847 
L 245.682652 127.57586 
L 247.948139 127.601532 
L 255.623967 127.927648 
L 274.753956 128.30339 
L 290.547647 128.950293 
L 294.39501 129.44259 
L 301.595387 130.413776 
L 310.173315 131.18159 
L 317.479727 131.641855 
L 324.45647 132.101546 
L 328.1587 132.537858 
L 331.321758 133.113016 
L 335.526198 134.16884 
L 339.748346 135.141114 
L 344.910563 136.032074 
L 357.92885 137.958572 
L 363.460276 138.710227 
L 366.18708 139.330312 
L 367.73371 139.899453 
L 368.885976 140.545497 
L 369.878651 141.364656 
L 370.636093 142.228339 
L 371.311591 143.261929 
L 371.996601 144.805809 
L 372.362944 146.209237 
L 372.493712 148.105536 
L 372.318018 150.131743 
L 371.915057 152.249865 
L 371.155667 154.865327 
L 369.501076 159.392732 
L 368.256894 163.049462 
L 365.878155 170.600677 
L 365.307523 171.619081 
L 364.581598 172.46735 
L 363.743013 173.119353 
L 362.779965 173.576809 
L 361.70632 173.84459 
L 360.209887 173.962464 
L 357.814013 173.895419 
L 352.807835 173.427074 
L 345.186538 172.537776 
L 327.020416 170.238173 
L 320.326009 169.389445 
L 292.991954 166.704932 
L 284.133587 165.639825 
L 275.522687 164.912812 
L 264.503845 164.243617 
L 252.778791 163.598949 
L 243.527178 162.337577 
L 241.007748 162.197182 
L 234.519293 161.945275 
L 210.970277 161.331092 
L 191.906966 160.948818 
L 184.38971 161.134769 
L 175.533057 161.613543 
L 147.754502 163.434544 
L 131.617853 164.588758 
L 126.480678 165.085812 
L 121.174571 165.91454 
L 118.521002 166.265813 
L 115.689447 166.367871 
L 113.515339 166.218021 
L 111.299342 165.860216 
L 108.671789 165.407172 
L 107.413683 165.418117 
L 106.514012 165.638679 
L 105.722646 166.01677 
L 104.912943 166.608604 
L 103.459316 168.075525 
L 102.818946 169.057828 
L 102.372033 170.085229 
L 101.989358 171.395195 
L 101.39953 174.168128 
L 101.036739 177.400867 
L 100.269727 187.179711 
L 99.884129 194.588067 
L 99.532857 207.112751 
L 99.319457 214.090067 
L 98.121291 241.363191 
L 97.873108 247.024547 
L 97.984392 250.34342 
L 98.236185 252.521619 
L 98.8161 255.216367 
L 99.507586 257.344588 
L 100.412242 259.437885 
L 101.545081 261.476687 
L 103.224944 263.961589 
L 108.182586 270.494724 
L 110.760686 274.120877 
L 113.747076 278.851436 
L 119.354888 287.807729 
L 121.373072 290.534647 
L 122.776099 292.087644 
L 123.88808 292.98916 
L 124.963444 293.547345 
L 126.051702 293.840644 
L 127.17331 293.958535 
L 128.599545 293.865863 
L 130.424272 293.499044 
L 132.242293 292.898442 
L 133.820098 292.161297 
L 135.907562 290.879954 
L 145.392781 284.588244 
L 149.520205 282.165707 
L 153.196534 280.224705 
L 164.27331 274.831044 
L 176.912991 268.843927 
L 181.740382 267.045391 
L 188.450192 264.787632 
L 192.798202 263.611064 
L 197.825909 262.514052 
L 204.658012 261.213173 
L 213.748259 259.737496 
L 220.193262 258.905664 
L 230.263497 257.863103 
L 238.33701 256.97376 
L 239.378033 256.52674 
L 240.149544 255.943719 
L 240.804882 255.230361 
L 241.432156 254.24819 
L 241.969261 252.97711 
L 242.403181 251.436955 
L 242.652551 249.651556 
L 242.722236 247.124267 
L 242.518374 236.510191 
L 241.413178 197.948364 
L 241.167171 184.623214 
L 240.023312 146.274621 
L 239.505653 125.638589 
L 239.184712 118.968307 
L 238.04881 89.377918 
L 238.067382 83.704838 
L 238.31895 77.552697 
L 238.837029 71.001263 
L 239.645778 60.095825 
L 239.999911 53.568 
L 239.999911 53.568 
" style="fill:none;stroke:#008000;stroke-linecap:square;stroke-width:1.5;"/>
   </g>
   <g id="line2d_12">
    <path clip-path="url(#pbfdc8a7461)" d="M 242.921521 261.965815 
L 242.861794 257.693745 
L 242.518735 245.678135 
L 242.2348 237.446296 
L 241.498039 216.117459 
L 241.213367 209.442281 
L 240.874206 203.716922 
L 241.078241 202.6647 
L 241.5383 201.763784 
L 242.100326 201.139218 
L 242.925733 200.651353 
L 243.903298 200.344446 
L 245.200417 200.179962 
L 246.669973 200.134718 
L 271.847163 200.712184 
L 276.123099 201.009499 
L 286.911739 202.185545 
L 312.124843 205.312401 
L 315.452137 205.934321 
L 318.187319 206.700938 
L 325.210366 208.741316 
L 328.267267 209.386001 
L 329.9838 209.547048 
L 334.209533 209.708105 
L 336.624885 210.176835 
L 340.564676 211.160532 
L 348.492773 213.378609 
L 349.622508 213.390438 
L 350.886856 213.182412 
L 351.921999 212.763746 
L 352.765513 212.20807 
L 353.715327 211.227014 
L 354.463931 210.12571 
L 355.477638 208.095153 
L 356.403038 205.642225 
L 359.203078 197.570539 
L 361.117181 191.880539 
L 362.793138 186.496224 
L 364.10561 181.538132 
L 364.317747 180.107224 
L 364.271616 179.09584 
L 363.964269 177.959935 
L 363.677179 177.415331 
L 361.982251 174.834026 
L 361.087777 174.015124 
L 360.153218 173.544642 
L 359.206442 173.268251 
L 357.468596 173.023633 
L 355.476205 173.010049 
L 349.78789 173.012639 
L 346.571682 172.721806 
L 327.462798 170.35217 
L 318.916879 169.242607 
L 288.789726 166.293173 
L 279.949145 165.370966 
L 268.137731 164.509003 
L 256.968295 163.994219 
L 250.643532 163.579509 
L 247.979819 163.224603 
L 246.547382 162.751543 
L 245.667573 162.199785 
L 245.023319 161.499513 
L 244.58286 160.628158 
L 244.301637 159.675196 
L 244.136813 158.23213 
L 244.123373 154.946609 
L 243.935208 145.939243 
L 243.49402 135.390014 
L 243.685235 134.282531 
L 244.147189 133.282792 
L 244.606254 132.694793 
L 245.318287 132.056203 
L 246.551272 131.452498 
L 247.666104 131.179869 
L 249.577466 130.971985 
L 252.660765 131.028459 
L 259.884075 131.283654 
L 272.988673 131.530333 
L 294.848764 132.391361 
L 300.251697 133.112406 
L 305.510784 133.781972 
L 312.299818 134.411205 
L 319.635034 134.923557 
L 328.008644 135.416739 
L 331.952005 135.863834 
L 335.089869 136.406504 
L 339.76892 137.552528 
L 343.41909 138.394251 
L 348.059128 139.21387 
L 362.357859 141.394754 
L 368.521361 142.295301 
L 370.004568 142.715216 
L 370.990106 143.22162 
L 371.779764 143.930892 
L 372.59476 144.924867 
L 373.26175 146.030854 
L 373.794827 147.281794 
L 374.144827 148.651362 
L 374.272788 150.102337 
L 374.156939 152.060803 
L 373.763659 154.344997 
L 373.075965 156.751243 
L 371.546309 160.971463 
L 370.47803 164.134164 
L 367.941755 172.117226 
L 367.288015 173.027405 
L 366.507306 173.701411 
L 365.619498 174.184884 
L 364.697453 174.470181 
L 363.501947 174.601617 
L 361.418156 174.58717 
L 356.97312 174.209111 
L 349.909977 173.450248 
L 327.750597 170.724329 
L 324.413972 170.400336 
L 298.614734 167.99464 
L 292.706032 167.304468 
L 283.865826 166.568944 
L 267.800466 165.804823 
L 263.488025 165.571335 
L 260.986965 165.215101 
L 256.582493 164.524106 
L 252.597073 164.282469 
L 241.756844 163.974533 
L 237.028879 163.844648 
L 220.098918 163.468808 
L 205.6653 163.320611 
L 198.643676 163.559792 
L 188.892276 164.128399 
L 160.47374 166.077758 
L 144.235076 167.497551 
L 137.490357 168.466051 
L 134.826649 168.53235 
L 132.853077 168.360096 
L 128.185028 167.744286 
L 127.118394 167.9757 
L 126.365589 168.335395 
L 125.329171 169.16084 
L 124.210797 170.444479 
L 123.624683 171.62884 
L 123.138639 173.290171 
L 122.6477 175.627952 
L 122.196269 179.815349 
L 121.492082 189.318511 
L 121.192462 195.083899 
L 119.634925 237.984696 
L 119.155615 250.113306 
L 119.368692 253.295646 
L 119.734858 255.423022 
L 120.319374 257.569258 
L 121.126533 259.685858 
L 122.144766 261.746628 
L 123.349975 263.71464 
L 125.498319 266.693388 
L 131.950209 275.354518 
L 134.574133 279.495758 
L 140.34575 288.635625 
L 142.310152 291.278359 
L 143.607324 292.72549 
L 144.592767 293.540342 
L 145.604963 294.057475 
L 146.798821 294.345227 
L 147.98884 294.411267 
L 149.442088 294.246744 
L 151.038843 293.871387 
L 152.803399 293.237695 
L 154.40001 292.438399 
L 156.498081 291.11969 
L 165.533157 285.172647 
L 169.045021 283.121066 
L 173.278473 280.881269 
L 180.726868 277.261157 
L 196.413263 269.805396 
L 200.592888 268.241759 
L 207.229605 265.952484 
L 211.482421 264.754302 
L 215.838426 263.776099 
L 226.435373 261.790992 
L 235.419903 260.462578 
L 242.978626 259.595272 
L 256.230219 258.1763 
L 256.223698 258.176959 
L 256.245352 258.15315 
L 256.254476 258.186172 
L 256.322071 258.170587 
L 257.02174 257.923613 
L 257.703606 257.464691 
L 258.528248 256.61774 
L 259.243142 255.5307 
L 259.768131 254.272308 
L 260.195082 252.697407 
L 260.43442 250.841134 
L 260.508902 247.216881 
L 260.412607 234.029783 
L 259.921594 201.939756 
L 259.851443 185.34468 
L 259.171168 136.305134 
L 259.117124 131.773379 
L 258.787177 122.709261 
L 258.131192 90.647773 
L 258.371006 85.318641 
L 258.84128 79.547616 
L 259.964802 67.15692 
L 260.442955 60.086326 
L 260.442955 60.086326 
" style="fill:none;stroke:#0000ff;stroke-linecap:square;stroke-width:1.5;"/>
   </g>
   <g id="line2d_13">
    <path clip-path="url(#pbfdc8a7461)" d="M 242.921521 261.965815 
L 242.873193 258.06423 
L 242.501394 245.678607 
L 242.194789 236.848216 
L 241.461439 215.537262 
L 241.073366 207.679138 
L 240.852445 203.717679 
L 241.05653 202.665431 
L 241.515786 201.763922 
L 242.077674 201.139155 
L 242.689958 200.753859 
L 243.616932 200.412236 
L 244.640459 200.233145 
L 246.648337 200.134336 
L 271.826344 200.724421 
L 276.102099 201.02612 
L 287.351028 202.274631 
L 300.393046 203.863294 
L 307.319561 204.698536 
L 312.955046 205.570606 
L 316.179762 206.252653 
L 320.085269 207.439374 
L 325.518362 208.979449 
L 328.902509 209.642413 
L 330.590635 209.722857 
L 333.210873 209.781368 
L 335.451613 210.072776 
L 339.33648 211.011516 
L 342.933762 212.105368 
L 347.736846 213.495912 
L 349.123064 213.650293 
L 350.402851 213.528682 
L 351.453994 213.220189 
L 352.490759 212.631427 
L 353.288249 211.938144 
L 354.080006 210.94466 
L 354.947142 209.43538 
L 355.930122 207.20096 
L 358.856611 198.800225 
L 361.717783 190.325117 
L 363.239587 185.299989 
L 364.347172 180.639084 
L 364.354222 179.65424 
L 364.166751 178.678341 
L 363.754483 177.702842 
L 362.269842 174.998628 
L 361.372029 174.184475 
L 360.438622 173.711493 
L 359.489396 173.444689 
L 357.749708 173.214405 
L 355.757418 173.221482 
L 350.464178 173.287552 
L 347.782282 173.108229 
L 336.156247 171.825032 
L 323.059775 170.17942 
L 318.17033 169.671969 
L 308.208699 168.811473 
L 292.594899 167.426846 
L 281.874862 166.315242 
L 272.8994 165.651245 
L 260.426393 165.067803 
L 252.116399 164.7027 
L 248.959043 164.410103 
L 247.341859 164.055308 
L 246.34516 163.603783 
L 245.562919 163.002619 
L 245.081962 162.376834 
L 244.605668 161.267188 
L 244.382248 160.220023 
L 244.279404 158.649471 
L 244.049122 147.5372 
L 243.603978 138.905922 
L 243.511318 136.489085 
L 243.694031 135.380392 
L 244.148307 134.377457 
L 244.603872 133.786554 
L 245.310584 133.142443 
L 246.538225 132.528524 
L 247.650561 132.246763 
L 249.559915 132.023842 
L 252.643284 132.059856 
L 259.867733 132.259257 
L 272.972469 132.397446 
L 294.836514 133.095606 
L 300.244496 133.775179 
L 305.507978 134.405681 
L 313.430382 135.051851 
L 320.205477 135.429077 
L 329.153221 135.944366 
L 334.050803 136.567984 
L 337.172161 137.203733 
L 344.47478 138.848378 
L 352.801903 140.160179 
L 359.020306 141.080367 
L 369.575397 142.541288 
L 370.710937 142.982234 
L 371.51265 143.543682 
L 372.30657 144.378351 
L 373.072389 145.433108 
L 373.811778 146.901543 
L 374.217941 148.223468 
L 374.427217 149.671364 
L 374.420748 151.187078 
L 374.185386 153.215574 
L 373.786177 155.126271 
L 373.051879 157.534574 
L 370.676222 164.598119 
L 368.466152 171.931159 
L 367.874537 172.875956 
L 367.185954 173.551448 
L 366.311655 174.110246 
L 365.177052 174.546965 
L 363.984011 174.69448 
L 361.90076 174.684628 
L 357.45502 174.322547 
L 350.390848 173.582123 
L 324.293224 170.586067 
L 310.226983 169.451712 
L 303.840703 168.893387 
L 287.330123 167.165816 
L 280.207243 166.738442 
L 262.092406 165.850165 
L 257.03681 165.076415 
L 253.0505 164.858246 
L 241.653879 164.600132 
L 238.053827 164.535203 
L 228.226609 164.342463 
L 205.455899 164.158509 
L 199.098782 164.388238 
L 191.860947 164.813815 
L 157.34167 167.308122 
L 145.194848 168.415109 
L 141.612921 168.99844 
L 137.964294 169.462772 
L 135.300923 169.533356 
L 133.327233 169.364024 
L 128.658932 168.753674 
L 127.592608 168.985516 
L 126.742434 169.414446 
L 125.708402 170.276238 
L 124.883644 171.175 
L 124.342925 172.094501 
L 123.855739 173.474086 
L 123.213363 176.265527 
L 122.884844 178.848461 
L 122.123835 188.266362 
L 121.650435 197.463786 
L 121.353086 207.876583 
L 121.126296 216.34125 
L 119.700995 250.601302 
L 119.828156 253.32349 
L 120.206417 255.921807 
L 120.728279 258.066651 
L 121.480638 260.20044 
L 122.429932 262.253369 
L 123.574807 264.230586 
L 125.308098 266.722024 
L 129.96886 272.823808 
L 132.503283 276.392265 
L 135.427489 281.034857 
L 140.617256 289.342151 
L 142.821141 292.342275 
L 144.115709 293.791654 
L 145.09937 294.608661 
L 146.110576 295.127747 
L 147.303936 295.4177 
L 148.493849 295.486562 
L 149.947192 295.325522 
L 151.544669 294.953444 
L 153.311113 294.324916 
L 154.911053 293.532753 
L 157.010475 292.216677 
L 164.944057 286.980033 
L 168.384637 284.897154 
L 173.204715 282.281598 
L 195.192768 271.673186 
L 198.131776 270.453151 
L 207.14749 267.295685 
L 211.412396 266.069724 
L 215.755781 265.085446 
L 223.273843 263.64392 
L 229.997521 262.539825 
L 237.857428 261.455403 
L 249.853988 260.235398 
L 256.232021 259.63676 
L 257.794221 259.074623 
L 258.565488 258.494803 
L 259.439248 257.44711 
L 260.001703 256.469663 
L 260.475981 255.235702 
L 260.881984 253.587127 
L 261.092176 251.701813 
L 261.186884 248.568649 
L 261.24299 236.030731 
L 261.063075 205.081076 
L 261.239947 190.015819 
L 261.184098 140.771242 
L 261.244025 133.400782 
L 261.080136 126.871415 
L 260.97305 116.529908 
L 260.853636 106.669293 
L 260.726725 98.315634 
L 260.833263 92.930023 
L 261.116636 87.664645 
L 261.587303 82.587016 
L 263.191206 67.050223 
L 263.600094 61.935081 
L 263.600094 61.935081 
" style="fill:none;stroke:#ff0000;stroke-linecap:square;stroke-width:1.5;"/>
   </g>
   <g id="patch_3">
    <path d="M 57.6 307.584 
L 57.6 41.472 
" style="fill:none;stroke:#000000;stroke-linecap:square;stroke-linejoin:miter;stroke-width:0.8;"/>
   </g>
   <g id="patch_4">
    <path d="M 414.72 307.584 
L 414.72 41.472 
" style="fill:none;stroke:#000000;stroke-linecap:square;stroke-linejoin:miter;stroke-width:0.8;"/>
   </g>
   <g id="patch_5">
    <path d="M 57.6 307.584 
L 414.72 307.584 
" style="fill:none;stroke:#000000;stroke-linecap:square;stroke-linejoin:miter;stroke-width:0.8;"/>
   </g>
   <g id="patch_6">
    <path d="M 57.6 41.472 
L 414.72 41.472 
" style="fill:none;stroke:#000000;stroke-linecap:square;stroke-linejoin:miter;stroke-width:0.8;"/>
   </g>
  </g>
 </g>
 <defs>
  <clipPath id="pbfdc8a7461">
   <rect height="266.112" width="357.12" x="57.6" y="41.472"/>
  </clipPath>
 </defs>
</svg>
