<?xml version="1.0" encoding="utf-8" standalone="no"?>
<!DOCTYPE svg PUBLIC "-//W3C//DTD SVG 1.1//EN"
  "http://www.w3.org/Graphics/SVG/1.1/DTD/svg11.dtd">
<!-- Created with matplotlib (https://matplotlib.org/) -->
<svg height="345.6pt" version="1.1" viewBox="0 0 460.8 345.6" width="460.8pt" xmlns="http://www.w3.org/2000/svg" xmlns:xlink="http://www.w3.org/1999/xlink">
 <defs>
  <style type="text/css">
*{stroke-linecap:butt;stroke-linejoin:round;}
  </style>
 </defs>
 <g id="figure_1">
  <g id="patch_1">
   <path d="M 0 345.6 
L 460.8 345.6 
L 460.8 0 
L 0 0 
z
" style="fill:#ffffff;"/>
  </g>
  <g id="axes_1">
   <g id="patch_2">
    <path d="M 57.6 307.584 
L 414.72 307.584 
L 414.72 41.472 
L 57.6 41.472 
z
" style="fill:#ffffff;"/>
   </g>
   <g id="matplotlib.axis_1">
    <g id="xtick_1">
     <g id="line2d_1">
      <defs>
       <path d="M 0 0 
L 0 3.5 
" id="mc0a3e82206" style="stroke:#000000;stroke-width:0.8;"/>
      </defs>
      <g>
       <use style="stroke:#000000;stroke-width:0.8;" x="67.926811" xlink:href="#mc0a3e82206" y="307.584"/>
      </g>
     </g>
     <g id="text_1">
      <!-- −300 -->
      <defs>
       <path d="M 10.59375 35.5 
L 73.1875 35.5 
L 73.1875 27.203125 
L 10.59375 27.203125 
z
" id="DejaVuSans-8722"/>
       <path d="M 40.578125 39.3125 
Q 47.65625 37.796875 51.625 33 
Q 55.609375 28.21875 55.609375 21.1875 
Q 55.609375 10.40625 48.1875 4.484375 
Q 40.765625 -1.421875 27.09375 -1.421875 
Q 22.515625 -1.421875 17.65625 -0.515625 
Q 12.796875 0.390625 7.625 2.203125 
L 7.625 11.71875 
Q 11.71875 9.328125 16.59375 8.109375 
Q 21.484375 6.890625 26.8125 6.890625 
Q 36.078125 6.890625 40.9375 10.546875 
Q 45.796875 14.203125 45.796875 21.1875 
Q 45.796875 27.640625 41.28125 31.265625 
Q 36.765625 34.90625 28.71875 34.90625 
L 20.21875 34.90625 
L 20.21875 43.015625 
L 29.109375 43.015625 
Q 36.375 43.015625 40.234375 45.921875 
Q 44.09375 48.828125 44.09375 54.296875 
Q 44.09375 59.90625 40.109375 62.90625 
Q 36.140625 65.921875 28.71875 65.921875 
Q 24.65625 65.921875 20.015625 65.03125 
Q 15.375 64.15625 9.8125 62.3125 
L 9.8125 71.09375 
Q 15.4375 72.65625 20.34375 73.4375 
Q 25.25 74.21875 29.59375 74.21875 
Q 40.828125 74.21875 47.359375 69.109375 
Q 53.90625 64.015625 53.90625 55.328125 
Q 53.90625 49.265625 50.4375 45.09375 
Q 46.96875 40.921875 40.578125 39.3125 
z
" id="DejaVuSans-51"/>
       <path d="M 31.78125 66.40625 
Q 24.171875 66.40625 20.328125 58.90625 
Q 16.5 51.421875 16.5 36.375 
Q 16.5 21.390625 20.328125 13.890625 
Q 24.171875 6.390625 31.78125 6.390625 
Q 39.453125 6.390625 43.28125 13.890625 
Q 47.125 21.390625 47.125 36.375 
Q 47.125 51.421875 43.28125 58.90625 
Q 39.453125 66.40625 31.78125 66.40625 
z
M 31.78125 74.21875 
Q 44.046875 74.21875 50.515625 64.515625 
Q 56.984375 54.828125 56.984375 36.375 
Q 56.984375 17.96875 50.515625 8.265625 
Q 44.046875 -1.421875 31.78125 -1.421875 
Q 19.53125 -1.421875 13.0625 8.265625 
Q 6.59375 17.96875 6.59375 36.375 
Q 6.59375 54.828125 13.0625 64.515625 
Q 19.53125 74.21875 31.78125 74.21875 
z
" id="DejaVuSans-48"/>
      </defs>
      <g transform="translate(54.193217 322.182437)scale(0.1 -0.1)">
       <use xlink:href="#DejaVuSans-8722"/>
       <use x="83.789062" xlink:href="#DejaVuSans-51"/>
       <use x="147.412109" xlink:href="#DejaVuSans-48"/>
       <use x="211.035156" xlink:href="#DejaVuSans-48"/>
      </g>
     </g>
    </g>
    <g id="xtick_2">
     <g id="line2d_2">
      <g>
       <use style="stroke:#000000;stroke-width:0.8;" x="110.54907" xlink:href="#mc0a3e82206" y="307.584"/>
      </g>
     </g>
     <g id="text_2">
      <!-- −200 -->
      <defs>
       <path d="M 19.1875 8.296875 
L 53.609375 8.296875 
L 53.609375 0 
L 7.328125 0 
L 7.328125 8.296875 
Q 12.9375 14.109375 22.625 23.890625 
Q 32.328125 33.6875 34.8125 36.53125 
Q 39.546875 41.84375 41.421875 45.53125 
Q 43.3125 49.21875 43.3125 52.78125 
Q 43.3125 58.59375 39.234375 62.25 
Q 35.15625 65.921875 28.609375 65.921875 
Q 23.96875 65.921875 18.8125 64.3125 
Q 13.671875 62.703125 7.8125 59.421875 
L 7.8125 69.390625 
Q 13.765625 71.78125 18.9375 73 
Q 24.125 74.21875 28.421875 74.21875 
Q 39.75 74.21875 46.484375 68.546875 
Q 53.21875 62.890625 53.21875 53.421875 
Q 53.21875 48.921875 51.53125 44.890625 
Q 49.859375 40.875 45.40625 35.40625 
Q 44.1875 33.984375 37.640625 27.21875 
Q 31.109375 20.453125 19.1875 8.296875 
z
" id="DejaVuSans-50"/>
      </defs>
      <g transform="translate(96.815476 322.182437)scale(0.1 -0.1)">
       <use xlink:href="#DejaVuSans-8722"/>
       <use x="83.789062" xlink:href="#DejaVuSans-50"/>
       <use x="147.412109" xlink:href="#DejaVuSans-48"/>
       <use x="211.035156" xlink:href="#DejaVuSans-48"/>
      </g>
     </g>
    </g>
    <g id="xtick_3">
     <g id="line2d_3">
      <g>
       <use style="stroke:#000000;stroke-width:0.8;" x="153.171329" xlink:href="#mc0a3e82206" y="307.584"/>
      </g>
     </g>
     <g id="text_3">
      <!-- −100 -->
      <defs>
       <path d="M 12.40625 8.296875 
L 28.515625 8.296875 
L 28.515625 63.921875 
L 10.984375 60.40625 
L 10.984375 69.390625 
L 28.421875 72.90625 
L 38.28125 72.90625 
L 38.28125 8.296875 
L 54.390625 8.296875 
L 54.390625 0 
L 12.40625 0 
z
" id="DejaVuSans-49"/>
      </defs>
      <g transform="translate(139.437735 322.182437)scale(0.1 -0.1)">
       <use xlink:href="#DejaVuSans-8722"/>
       <use x="83.789062" xlink:href="#DejaVuSans-49"/>
       <use x="147.412109" xlink:href="#DejaVuSans-48"/>
       <use x="211.035156" xlink:href="#DejaVuSans-48"/>
      </g>
     </g>
    </g>
    <g id="xtick_4">
     <g id="line2d_4">
      <g>
       <use style="stroke:#000000;stroke-width:0.8;" x="195.793588" xlink:href="#mc0a3e82206" y="307.584"/>
      </g>
     </g>
     <g id="text_4">
      <!-- 0 -->
      <g transform="translate(192.612338 322.182437)scale(0.1 -0.1)">
       <use xlink:href="#DejaVuSans-48"/>
      </g>
     </g>
    </g>
    <g id="xtick_5">
     <g id="line2d_5">
      <g>
       <use style="stroke:#000000;stroke-width:0.8;" x="238.415847" xlink:href="#mc0a3e82206" y="307.584"/>
      </g>
     </g>
     <g id="text_5">
      <!-- 100 -->
      <g transform="translate(228.872097 322.182437)scale(0.1 -0.1)">
       <use xlink:href="#DejaVuSans-49"/>
       <use x="63.623047" xlink:href="#DejaVuSans-48"/>
       <use x="127.246094" xlink:href="#DejaVuSans-48"/>
      </g>
     </g>
    </g>
    <g id="xtick_6">
     <g id="line2d_6">
      <g>
       <use style="stroke:#000000;stroke-width:0.8;" x="281.038106" xlink:href="#mc0a3e82206" y="307.584"/>
      </g>
     </g>
     <g id="text_6">
      <!-- 200 -->
      <g transform="translate(271.494356 322.182437)scale(0.1 -0.1)">
       <use xlink:href="#DejaVuSans-50"/>
       <use x="63.623047" xlink:href="#DejaVuSans-48"/>
       <use x="127.246094" xlink:href="#DejaVuSans-48"/>
      </g>
     </g>
    </g>
    <g id="xtick_7">
     <g id="line2d_7">
      <g>
       <use style="stroke:#000000;stroke-width:0.8;" x="323.660365" xlink:href="#mc0a3e82206" y="307.584"/>
      </g>
     </g>
     <g id="text_7">
      <!-- 300 -->
      <g transform="translate(314.116615 322.182437)scale(0.1 -0.1)">
       <use xlink:href="#DejaVuSans-51"/>
       <use x="63.623047" xlink:href="#DejaVuSans-48"/>
       <use x="127.246094" xlink:href="#DejaVuSans-48"/>
      </g>
     </g>
    </g>
    <g id="xtick_8">
     <g id="line2d_8">
      <g>
       <use style="stroke:#000000;stroke-width:0.8;" x="366.282624" xlink:href="#mc0a3e82206" y="307.584"/>
      </g>
     </g>
     <g id="text_8">
      <!-- 400 -->
      <defs>
       <path d="M 37.796875 64.3125 
L 12.890625 25.390625 
L 37.796875 25.390625 
z
M 35.203125 72.90625 
L 47.609375 72.90625 
L 47.609375 25.390625 
L 58.015625 25.390625 
L 58.015625 17.1875 
L 47.609375 17.1875 
L 47.609375 0 
L 37.796875 0 
L 37.796875 17.1875 
L 4.890625 17.1875 
L 4.890625 26.703125 
z
" id="DejaVuSans-52"/>
      </defs>
      <g transform="translate(356.738874 322.182437)scale(0.1 -0.1)">
       <use xlink:href="#DejaVuSans-52"/>
       <use x="63.623047" xlink:href="#DejaVuSans-48"/>
       <use x="127.246094" xlink:href="#DejaVuSans-48"/>
      </g>
     </g>
    </g>
    <g id="xtick_9">
     <g id="line2d_9">
      <g>
       <use style="stroke:#000000;stroke-width:0.8;" x="408.904883" xlink:href="#mc0a3e82206" y="307.584"/>
      </g>
     </g>
     <g id="text_9">
      <!-- 500 -->
      <defs>
       <path d="M 10.796875 72.90625 
L 49.515625 72.90625 
L 49.515625 64.59375 
L 19.828125 64.59375 
L 19.828125 46.734375 
Q 21.96875 47.46875 24.109375 47.828125 
Q 26.265625 48.1875 28.421875 48.1875 
Q 40.625 48.1875 47.75 41.5 
Q 54.890625 34.8125 54.890625 23.390625 
Q 54.890625 11.625 47.5625 5.09375 
Q 40.234375 -1.421875 26.90625 -1.421875 
Q 22.3125 -1.421875 17.546875 -0.640625 
Q 12.796875 0.140625 7.71875 1.703125 
L 7.71875 11.625 
Q 12.109375 9.234375 16.796875 8.0625 
Q 21.484375 6.890625 26.703125 6.890625 
Q 35.15625 6.890625 40.078125 11.328125 
Q 45.015625 15.765625 45.015625 23.390625 
Q 45.015625 31 40.078125 35.4375 
Q 35.15625 39.890625 26.703125 39.890625 
Q 22.75 39.890625 18.8125 39.015625 
Q 14.890625 38.140625 10.796875 36.28125 
z
" id="DejaVuSans-53"/>
      </defs>
      <g transform="translate(399.361133 322.182437)scale(0.1 -0.1)">
       <use xlink:href="#DejaVuSans-53"/>
       <use x="63.623047" xlink:href="#DejaVuSans-48"/>
       <use x="127.246094" xlink:href="#DejaVuSans-48"/>
      </g>
     </g>
    </g>
   </g>
   <g id="matplotlib.axis_2">
    <g id="ytick_1">
     <g id="line2d_10">
      <defs>
       <path d="M 0 0 
L -3.5 0 
" id="me447319886" style="stroke:#000000;stroke-width:0.8;"/>
      </defs>
      <g>
       <use style="stroke:#000000;stroke-width:0.8;" x="57.6" xlink:href="#me447319886" y="278.510979"/>
      </g>
     </g>
     <g id="text_10">
      <!-- 0 -->
      <g transform="translate(44.2375 282.310198)scale(0.1 -0.1)">
       <use xlink:href="#DejaVuSans-48"/>
      </g>
     </g>
    </g>
    <g id="ytick_2">
     <g id="line2d_11">
      <g>
       <use style="stroke:#000000;stroke-width:0.8;" x="57.6" xlink:href="#me447319886" y="235.88872"/>
      </g>
     </g>
     <g id="text_11">
      <!-- 100 -->
      <g transform="translate(31.5125 239.687938)scale(0.1 -0.1)">
       <use xlink:href="#DejaVuSans-49"/>
       <use x="63.623047" xlink:href="#DejaVuSans-48"/>
       <use x="127.246094" xlink:href="#DejaVuSans-48"/>
      </g>
     </g>
    </g>
    <g id="ytick_3">
     <g id="line2d_12">
      <g>
       <use style="stroke:#000000;stroke-width:0.8;" x="57.6" xlink:href="#me447319886" y="193.266461"/>
      </g>
     </g>
     <g id="text_12">
      <!-- 200 -->
      <g transform="translate(31.5125 197.065679)scale(0.1 -0.1)">
       <use xlink:href="#DejaVuSans-50"/>
       <use x="63.623047" xlink:href="#DejaVuSans-48"/>
       <use x="127.246094" xlink:href="#DejaVuSans-48"/>
      </g>
     </g>
    </g>
    <g id="ytick_4">
     <g id="line2d_13">
      <g>
       <use style="stroke:#000000;stroke-width:0.8;" x="57.6" xlink:href="#me447319886" y="150.644202"/>
      </g>
     </g>
     <g id="text_13">
      <!-- 300 -->
      <g transform="translate(31.5125 154.44342)scale(0.1 -0.1)">
       <use xlink:href="#DejaVuSans-51"/>
       <use x="63.623047" xlink:href="#DejaVuSans-48"/>
       <use x="127.246094" xlink:href="#DejaVuSans-48"/>
      </g>
     </g>
    </g>
    <g id="ytick_5">
     <g id="line2d_14">
      <g>
       <use style="stroke:#000000;stroke-width:0.8;" x="57.6" xlink:href="#me447319886" y="108.021942"/>
      </g>
     </g>
     <g id="text_14">
      <!-- 400 -->
      <g transform="translate(31.5125 111.821161)scale(0.1 -0.1)">
       <use xlink:href="#DejaVuSans-52"/>
       <use x="63.623047" xlink:href="#DejaVuSans-48"/>
       <use x="127.246094" xlink:href="#DejaVuSans-48"/>
      </g>
     </g>
    </g>
    <g id="ytick_6">
     <g id="line2d_15">
      <g>
       <use style="stroke:#000000;stroke-width:0.8;" x="57.6" xlink:href="#me447319886" y="65.399683"/>
      </g>
     </g>
     <g id="text_15">
      <!-- 500 -->
      <g transform="translate(31.5125 69.198902)scale(0.1 -0.1)">
       <use xlink:href="#DejaVuSans-53"/>
       <use x="63.623047" xlink:href="#DejaVuSans-48"/>
       <use x="127.246094" xlink:href="#DejaVuSans-48"/>
      </g>
     </g>
    </g>
   </g>
   <g id="line2d_16">
    <path clip-path="url(#p9d1b50dc12)" d="M 195.793588 278.510979 
L 195.795044 277.285371 
L 195.568683 275.899163 
L 194.909936 273.221105 
L 194.000799 270.497551 
L 192.855351 267.691352 
L 191.342008 264.662129 
L 188.337894 259.352388 
L 186.818636 257.073338 
L 184.079913 253.421535 
L 181.65977 250.597691 
L 179.650331 248.563731 
L 176.759207 245.900799 
L 173.248246 242.965468 
L 170.69721 241.141363 
L 167.974819 239.475332 
L 164.623687 237.709423 
L 159.3678 235.22654 
L 153.664511 232.59875 
L 151.653806 231.422035 
L 149.413921 229.884394 
L 147.082569 228.005903 
L 144.774062 225.839457 
L 143.329423 224.188952 
L 142.085151 222.441567 
L 140.819569 220.25918 
L 139.252476 217.117237 
L 138.277364 214.74923 
L 137.636837 212.567226 
L 137.224424 210.201222 
L 137.059476 207.660722 
L 137.143953 205.004247 
L 137.501426 202.254941 
L 138.12972 199.42478 
L 139.018821 196.560522 
L 139.943681 194.269192 
L 141.098574 192.027091 
L 142.518321 189.900027 
L 144.173045 187.915833 
L 146.01177 186.077066 
L 147.996859 184.388798 
L 150.056878 182.917137 
L 152.178102 181.688934 
L 154.327436 180.712671 
L 156.990232 179.809377 
L 159.597252 179.203928 
L 162.142044 178.871261 
L 165.056853 178.745142 
L 175.407903 178.482887 
L 179.046795 178.025423 
L 183.015038 177.264999 
L 187.090059 176.329313 
L 189.883824 175.445455 
L 192.973756 174.196836 
L 195.886644 172.762597 
L 198.631122 171.141331 
L 201.994428 168.867689 
L 209.887652 163.451935 
L 212.143772 161.58687 
L 214.308378 159.46816 
L 216.045222 157.433629 
L 217.656292 155.21595 
L 219.937563 151.648723 
L 223.202104 146.255814 
L 224.462052 143.657177 
L 225.656614 140.559434 
L 227.003912 136.550725 
L 228.863363 130.692466 
L 229.70884 128.021329 
L 230.062784 126.096551 
L 230.138221 124.535297 
L 229.980156 122.562143 
L 229.139922 115.721227 
L 228.43746 110.534866 
L 227.737825 107.291994 
L 226.646516 103.222165 
L 217.586285 71.737358 
L 217.441254 70.071211 
L 217.521866 68.389848 
L 217.825132 66.697957 
L 218.432401 64.663512 
L 219.290613 62.654256 
L 220.385664 60.712812 
L 221.277027 59.507582 
L 222.549332 58.175935 
L 224.257372 56.74826 
L 225.838078 55.692379 
L 227.568179 54.825485 
L 229.447297 54.156827 
L 231.048777 53.801442 
L 232.719126 53.606488 
L 234.445988 53.574265 
L 236.646064 53.778298 
L 238.868964 54.250595 
L 241.088604 54.965072 
L 243.278578 55.908644 
L 251.442744 59.917225 
L 285.922745 77.396443 
L 290.528677 79.823951 
L 292.949621 80.746254 
L 295.027072 81.284445 
L 297.138835 81.590345 
L 298.87484 81.636377 
L 300.650611 81.467721 
L 302.414661 81.091239 
L 304.601566 80.320713 
L 306.301171 79.476324 
L 307.935692 78.462937 
L 309.878372 76.98582 
L 312.501815 74.68848 
L 319.398224 68.437116 
L 321.250545 67.191907 
L 322.744157 66.434168 
L 323.960042 66.06621 
L 325.528584 65.89099 
L 327.057146 66.075928 
L 329.141417 66.718203 
L 330.888674 67.503603 
L 332.213715 68.400589 
L 333.301819 69.539839 
L 334.223695 71.066654 
L 334.891288 72.717883 
L 335.15772 73.876995 
L 335.256859 75.707408 
L 335.003256 77.626944 
L 334.423807 79.988899 
L 331.708428 88.921757 
L 330.315618 93.490821 
L 329.637583 96.439429 
L 329.280536 98.989561 
L 329.143506 101.551926 
L 329.197167 104.116848 
L 329.476599 107.097167 
L 330.035462 110.429802 
L 330.951244 114.37462 
L 332.469491 120.346765 
L 332.43437 121.42042 
L 332.104772 122.747123 
L 331.61159 123.775769 
L 330.758335 124.960113 
L 329.199597 126.586323 
L 323.444483 132.179472 
L 320.381051 135.4795 
L 318.968379 137.258596 
L 317.463941 139.542978 
L 315.885383 142.384306 
L 313.11613 148.049401 
L 309.68393 155.07811 
L 307.787495 158.40141 
L 304.816681 163.124042 
L 293.68754 180.042734 
L 283.812091 194.549476 
L 281.236001 198.795164 
L 278.86143 203.135773 
L 276.383244 208.086518 
L 272.683461 215.921811 
L 268.2048 225.376707 
L 266.679946 228.012211 
L 264.64469 231.047129 
L 262.061483 234.407127 
L 258.926872 238.133928 
L 256.022207 241.276953 
L 242.989258 254.769025 
L 227.713653 270.0825 
L 211.263618 287.16756 
L 207.554945 291.460751 
L 205.685537 293.585496 
L 204.447309 294.631105 
L 203.497139 295.152405 
L 202.544481 295.43823 
L 201.614689 295.477029 
L 200.758668 295.314425 
L 199.966177 294.975872 
L 199.24106 294.447416 
L 198.460173 293.549233 
L 197.976916 292.649481 
L 197.548802 291.334908 
L 197.203098 289.555919 
L 196.27296 283.008744 
L 195.753594 279.73083 
L 195.076454 276.766983 
L 194.512115 275.0063 
L 194.512115 275.0063 
" style="fill:none;stroke:#008000;stroke-linecap:square;stroke-width:1.5;"/>
   </g>
   <g id="line2d_17">
    <path clip-path="url(#p9d1b50dc12)" d="M 195.793588 278.510979 
L 195.755932 277.466523 
L 195.391125 275.50336 
L 194.874283 273.604517 
L 193.931539 270.822024 
L 192.821085 268.016848 
L 190.975188 264.324917 
L 187.695436 258.672207 
L 185.899796 256.075166 
L 183.680473 253.145628 
L 181.927366 251.066185 
L 180.00997 249.009634 
L 176.43105 245.645978 
L 173.319312 243.033744 
L 171.65897 241.807854 
L 168.608849 239.837725 
L 165.279054 238.04509 
L 161.360411 236.146925 
L 156.481011 233.861917 
L 153.659616 232.385448 
L 151.012324 230.684778 
L 148.917933 229.00865 
L 146.136882 226.428368 
L 144.411546 224.498554 
L 143.273613 222.912526 
L 141.897369 220.563859 
L 140.563983 217.809457 
L 139.450448 215.062981 
L 138.799305 212.851989 
L 138.397519 210.545096 
L 138.222496 208.064341 
L 138.266196 205.950795 
L 138.546324 203.275983 
L 139.028912 200.862061 
L 139.725032 198.564816 
L 140.547312 196.621059 
L 141.427497 194.962364 
L 142.494813 193.389493 
L 143.567497 192.147126 
L 145.306915 190.441247 
L 147.835675 188.340589 
L 149.877508 186.954276 
L 151.996067 185.769773 
L 154.488935 184.718193 
L 157.141974 183.917533 
L 159.735765 183.427327 
L 162.227188 183.196105 
L 166.424335 183.109351 
L 171.547764 183.040698 
L 175.264732 182.74946 
L 178.781995 182.252789 
L 184.337446 181.110132 
L 187.504228 180.240618 
L 190.601126 179.073233 
L 193.555873 177.721677 
L 196.6826 175.975588 
L 200.482476 173.518391 
L 205.614313 170.101883 
L 208.617766 167.915422 
L 210.825655 166.072369 
L 212.841514 164.069899 
L 214.543958 162.053045 
L 216.377929 159.496315 
L 219.141664 155.113873 
L 221.76081 150.62717 
L 222.951058 148.024086 
L 224.254779 144.502106 
L 225.561624 140.342274 
L 226.71157 136.671812 
L 227.731372 133.672765 
L 228.118309 131.882166 
L 228.237908 130.085093 
L 228.08053 128.12051 
L 227.319486 121.832841 
L 226.737563 117.14645 
L 226.201914 114.357851 
L 225.283592 110.661187 
L 223.148801 103.375844 
L 221.124493 96.585175 
L 215.593968 76.919352 
L 215.494327 75.271538 
L 215.627072 73.588388 
L 215.991875 71.810099 
L 216.694683 69.601128 
L 217.596033 67.5746 
L 218.551897 65.914761 
L 219.684445 64.427563 
L 220.967182 63.138184 
L 222.599143 61.818617 
L 224.202722 60.800856 
L 225.888448 60.009535 
L 227.81727 59.376733 
L 229.784638 59.024744 
L 231.823035 58.922263 
L 233.609416 59.028049 
L 236.15464 59.500876 
L 238.247725 60.118846 
L 240.36814 60.981897 
L 247.509901 64.430171 
L 281.318423 81.385137 
L 287.57006 84.677113 
L 290.069035 85.599933 
L 292.139353 86.116215 
L 294.313678 86.427042 
L 296.104523 86.489312 
L 297.891473 86.330128 
L 299.70362 85.935762 
L 301.41026 85.373774 
L 303.503695 84.376144 
L 305.119059 83.368467 
L 306.998153 81.92909 
L 309.56252 79.666541 
L 316.216798 73.556972 
L 318.091984 72.257237 
L 319.568362 71.496034 
L 320.741837 71.137637 
L 321.873643 70.967384 
L 322.95558 71.012103 
L 324.221883 71.329305 
L 325.88904 71.93224 
L 327.328814 72.654625 
L 328.254633 73.330849 
L 328.963343 74.112734 
L 329.738538 75.436333 
L 330.200336 76.792839 
L 330.432218 78.426263 
L 330.426671 79.68838 
L 330.200729 81.271072 
L 329.623113 83.665759 
L 326.674386 93.39507 
L 325.5308 97.241199 
L 324.92079 100.017623 
L 324.577882 102.854055 
L 324.500213 105.68695 
L 324.645046 108.235159 
L 325.074964 111.383531 
L 325.724768 114.501284 
L 326.689989 117.928034 
L 327.538241 121.113487 
L 327.543984 121.911127 
L 327.375816 123.043874 
L 326.998527 124.129285 
L 326.292172 125.299682 
L 325.340959 126.415873 
L 323.401435 128.302004 
L 320.117352 131.531709 
L 316.472469 135.324177 
L 314.754819 137.346415 
L 313.448178 139.212591 
L 311.814787 141.988102 
L 309.832683 145.888497 
L 304.246512 157.085671 
L 301.974686 160.723401 
L 297.400619 167.741223 
L 285.190725 185.778765 
L 281.059543 191.83659 
L 278.224553 196.264455 
L 275.858386 200.436189 
L 272.827417 206.285548 
L 268.68335 214.8458 
L 264.288532 223.740459 
L 262.798159 226.261526 
L 260.826232 229.191887 
L 258.136723 232.669203 
L 254.718235 236.715828 
L 251.550742 240.12503 
L 233.68568 258.104973 
L 227.910284 263.76612 
L 216.207517 275.553362 
L 210.225585 281.660487 
L 207.261019 284.827826 
L 202.8803 289.579282 
L 202.00533 290.068622 
L 201.164902 290.270391 
L 200.369315 290.266784 
L 199.652438 290.04248 
L 198.893153 289.506286 
L 198.233597 288.769694 
L 197.707479 287.865778 
L 197.245471 286.572994 
L 196.838231 284.532151 
L 194.936876 272.324524 
L 194.454627 270.561707 
L 194.454627 270.561707 
" style="fill:none;stroke:#0000ff;stroke-linecap:square;stroke-width:1.5;"/>
   </g>
   <g id="line2d_18">
    <path clip-path="url(#p9d1b50dc12)" d="M 195.793588 278.510979 
L 195.755689 277.466521 
L 195.388245 275.503851 
L 194.86821 273.605873 
L 193.91948 270.825377 
L 192.804203 268.022055 
L 191.326472 265.03688 
L 188.577733 260.229853 
L 187.147701 257.946033 
L 184.473594 254.272188 
L 182.160285 251.45039 
L 176.700596 246.047296 
L 173.206284 243.11481 
L 170.665293 241.29914 
L 168.03155 239.661762 
L 164.439513 237.75476 
L 160.756103 235.980919 
L 154.712382 233.115266 
L 151.977838 231.519619 
L 149.892004 230.013051 
L 147.698562 228.153438 
L 145.482409 225.983922 
L 143.872309 224.074711 
L 142.447045 221.903984 
L 141.113736 219.38088 
L 139.609272 215.973753 
L 138.891413 213.8682 
L 138.389429 211.612168 
L 138.153883 209.682161 
L 138.069256 207.123712 
L 138.254062 204.480549 
L 138.673064 201.853815 
L 139.257459 199.583021 
L 139.938112 197.673732 
L 140.975405 195.577596 
L 141.980865 193.978363 
L 143.399291 192.245276 
L 145.137361 190.537563 
L 147.664708 188.433302 
L 149.701284 187.039377 
L 151.818373 185.850587 
L 156.373147 183.965009 
L 158.447797 183.507438 
L 160.894986 183.193612 
L 163.941423 183.057188 
L 174.198395 182.783637 
L 177.714021 182.34975 
L 181.694825 181.594686 
L 185.67212 180.676371 
L 188.048619 179.936118 
L 191.113181 178.726389 
L 194.022026 177.329707 
L 196.442468 175.954656 
L 200.250343 173.507476 
L 206.393799 169.402988 
L 209.339193 167.165648 
L 211.539797 165.164549 
L 213.193665 163.396653 
L 214.861424 161.313685 
L 216.923604 158.286122 
L 220.881287 151.919431 
L 222.194993 149.340142 
L 223.270135 146.710463 
L 224.760889 142.39927 
L 227.901138 131.886612 
L 228.013272 130.517896 
L 227.948743 128.910501 
L 227.032613 121.386453 
L 226.414219 116.683194 
L 225.630199 112.987276 
L 224.371823 108.384973 
L 215.455764 77.934447 
L 215.217362 76.268857 
L 215.205116 74.632019 
L 215.423741 72.907554 
L 215.865556 71.102611 
L 216.638689 68.931771 
L 217.620057 66.908962 
L 218.645422 65.297802 
L 219.845232 63.886748 
L 221.180367 62.668327 
L 223.193344 61.200394 
L 224.857446 60.309049 
L 226.67308 59.60322 
L 228.626657 59.125725 
L 230.552753 58.920358 
L 232.795609 58.959587 
L 235.352849 59.375847 
L 237.450538 59.946175 
L 239.659802 60.794938 
L 243.497664 62.618294 
L 250.591918 66.129995 
L 282.823568 82.437488 
L 287.176669 84.689519 
L 289.672467 85.61837 
L 291.739779 86.141639 
L 293.913302 86.451624 
L 295.70382 86.506507 
L 297.490014 86.348278 
L 299.301404 85.954442 
L 301.007395 85.392842 
L 302.689661 84.615404 
L 304.305791 83.662345 
L 306.217959 82.259739 
L 308.444065 80.351991 
L 316.424196 73.126552 
L 318.290757 71.935652 
L 319.45253 71.41406 
L 320.937886 71.009993 
L 322.053513 70.955652 
L 323.182893 71.15764 
L 324.879337 71.704833 
L 326.62166 72.508719 
L 327.643155 73.192259 
L 328.423541 73.95918 
L 329.053452 74.944041 
L 329.555122 76.06412 
L 329.836209 77.145021 
L 330.010995 78.714509 
L 329.95871 80.004351 
L 329.619538 81.952967 
L 328.865432 84.747542 
L 326.721995 91.786122 
L 324.939313 97.656422 
L 324.430068 100.021628 
L 324.081567 102.857458 
L 324.001709 105.690354 
L 324.145682 108.238724 
L 324.567245 111.388341 
L 325.204985 114.508666 
L 326.160713 117.938587 
L 326.959921 120.823685 
L 327.007429 121.92706 
L 326.832798 123.059093 
L 326.454035 124.143989 
L 325.746546 125.313667 
L 324.791216 126.426349 
L 322.84944 128.310143 
L 319.559182 131.533523 
L 315.598786 135.636845 
L 313.918158 137.680824 
L 312.370946 139.986439 
L 310.994904 142.42643 
L 308.295429 147.822084 
L 304.163953 156.232496 
L 302.284406 159.388433 
L 291.133699 176.405837 
L 285.393967 184.805024 
L 280.574884 191.881796 
L 277.427013 196.855367 
L 275.117651 201.040975 
L 271.886089 207.356269 
L 266.8537 217.685606 
L 264.926741 221.605975 
L 262.862402 225.279091 
L 260.930421 228.244622 
L 258.908808 230.946246 
L 256.002672 234.507441 
L 252.625702 238.314448 
L 248.407968 242.604656 
L 239.199736 251.92894 
L 218.872538 271.782068 
L 206.05028 284.95281 
L 202.196821 289.149825 
L 201.311813 289.70183 
L 200.464637 289.976279 
L 199.503548 290.036011 
L 198.644415 289.765905 
L 197.87919 289.16863 
L 197.239068 288.324534 
L 196.691724 287.116399 
L 196.348782 285.756234 
L 196.012 283.324369 
L 194.419849 271.17908 
L 194.173075 270.231299 
L 194.173075 270.231299 
" style="fill:none;stroke:#ff0000;stroke-linecap:square;stroke-width:1.5;"/>
   </g>
   <g id="patch_3">
    <path d="M 57.6 307.584 
L 57.6 41.472 
" style="fill:none;stroke:#000000;stroke-linecap:square;stroke-linejoin:miter;stroke-width:0.8;"/>
   </g>
   <g id="patch_4">
    <path d="M 414.72 307.584 
L 414.72 41.472 
" style="fill:none;stroke:#000000;stroke-linecap:square;stroke-linejoin:miter;stroke-width:0.8;"/>
   </g>
   <g id="patch_5">
    <path d="M 57.6 307.584 
L 414.72 307.584 
" style="fill:none;stroke:#000000;stroke-linecap:square;stroke-linejoin:miter;stroke-width:0.8;"/>
   </g>
   <g id="patch_6">
    <path d="M 57.6 41.472 
L 414.72 41.472 
" style="fill:none;stroke:#000000;stroke-linecap:square;stroke-linejoin:miter;stroke-width:0.8;"/>
   </g>
  </g>
 </g>
 <defs>
  <clipPath id="p9d1b50dc12">
   <rect height="266.112" width="357.12" x="57.6" y="41.472"/>
  </clipPath>
 </defs>
</svg>
