<?xml version="1.0" encoding="utf-8" standalone="no"?>
<!DOCTYPE svg PUBLIC "-//W3C//DTD SVG 1.1//EN"
  "http://www.w3.org/Graphics/SVG/1.1/DTD/svg11.dtd">
<!-- Created with matplotlib (https://matplotlib.org/) -->
<svg height="345.6pt" version="1.1" viewBox="0 0 460.8 345.6" width="460.8pt" xmlns="http://www.w3.org/2000/svg" xmlns:xlink="http://www.w3.org/1999/xlink">
 <defs>
  <style type="text/css">
*{stroke-linecap:butt;stroke-linejoin:round;}
  </style>
 </defs>
 <g id="figure_1">
  <g id="patch_1">
   <path d="M 0 345.6 
L 460.8 345.6 
L 460.8 0 
L 0 0 
z
" style="fill:#ffffff;"/>
  </g>
  <g id="axes_1">
   <g id="patch_2">
    <path d="M 57.6 307.584 
L 414.72 307.584 
L 414.72 41.472 
L 57.6 41.472 
z
" style="fill:#ffffff;"/>
   </g>
   <g id="matplotlib.axis_1">
    <g id="xtick_1">
     <g id="line2d_1">
      <defs>
       <path d="M 0 0 
L 0 3.5 
" id="m7a3d3307e5" style="stroke:#000000;stroke-width:0.8;"/>
      </defs>
      <g>
       <use style="stroke:#000000;stroke-width:0.8;" x="62.231208" xlink:href="#m7a3d3307e5" y="307.584"/>
      </g>
     </g>
     <g id="text_1">
      <!-- −100 -->
      <defs>
       <path d="M 10.59375 35.5 
L 73.1875 35.5 
L 73.1875 27.203125 
L 10.59375 27.203125 
z
" id="DejaVuSans-8722"/>
       <path d="M 12.40625 8.296875 
L 28.515625 8.296875 
L 28.515625 63.921875 
L 10.984375 60.40625 
L 10.984375 69.390625 
L 28.421875 72.90625 
L 38.28125 72.90625 
L 38.28125 8.296875 
L 54.390625 8.296875 
L 54.390625 0 
L 12.40625 0 
z
" id="DejaVuSans-49"/>
       <path d="M 31.78125 66.40625 
Q 24.171875 66.40625 20.328125 58.90625 
Q 16.5 51.421875 16.5 36.375 
Q 16.5 21.390625 20.328125 13.890625 
Q 24.171875 6.390625 31.78125 6.390625 
Q 39.453125 6.390625 43.28125 13.890625 
Q 47.125 21.390625 47.125 36.375 
Q 47.125 51.421875 43.28125 58.90625 
Q 39.453125 66.40625 31.78125 66.40625 
z
M 31.78125 74.21875 
Q 44.046875 74.21875 50.515625 64.515625 
Q 56.984375 54.828125 56.984375 36.375 
Q 56.984375 17.96875 50.515625 8.265625 
Q 44.046875 -1.421875 31.78125 -1.421875 
Q 19.53125 -1.421875 13.0625 8.265625 
Q 6.59375 17.96875 6.59375 36.375 
Q 6.59375 54.828125 13.0625 64.515625 
Q 19.53125 74.21875 31.78125 74.21875 
z
" id="DejaVuSans-48"/>
      </defs>
      <g transform="translate(48.497614 322.182437)scale(0.1 -0.1)">
       <use xlink:href="#DejaVuSans-8722"/>
       <use x="83.789062" xlink:href="#DejaVuSans-49"/>
       <use x="147.412109" xlink:href="#DejaVuSans-48"/>
       <use x="211.035156" xlink:href="#DejaVuSans-48"/>
      </g>
     </g>
    </g>
    <g id="xtick_2">
     <g id="line2d_2">
      <g>
       <use style="stroke:#000000;stroke-width:0.8;" x="129.482421" xlink:href="#m7a3d3307e5" y="307.584"/>
      </g>
     </g>
     <g id="text_2">
      <!-- −80 -->
      <defs>
       <path d="M 31.78125 34.625 
Q 24.75 34.625 20.71875 30.859375 
Q 16.703125 27.09375 16.703125 20.515625 
Q 16.703125 13.921875 20.71875 10.15625 
Q 24.75 6.390625 31.78125 6.390625 
Q 38.8125 6.390625 42.859375 10.171875 
Q 46.921875 13.96875 46.921875 20.515625 
Q 46.921875 27.09375 42.890625 30.859375 
Q 38.875 34.625 31.78125 34.625 
z
M 21.921875 38.8125 
Q 15.578125 40.375 12.03125 44.71875 
Q 8.5 49.078125 8.5 55.328125 
Q 8.5 64.0625 14.71875 69.140625 
Q 20.953125 74.21875 31.78125 74.21875 
Q 42.671875 74.21875 48.875 69.140625 
Q 55.078125 64.0625 55.078125 55.328125 
Q 55.078125 49.078125 51.53125 44.71875 
Q 48 40.375 41.703125 38.8125 
Q 48.828125 37.15625 52.796875 32.3125 
Q 56.78125 27.484375 56.78125 20.515625 
Q 56.78125 9.90625 50.3125 4.234375 
Q 43.84375 -1.421875 31.78125 -1.421875 
Q 19.734375 -1.421875 13.25 4.234375 
Q 6.78125 9.90625 6.78125 20.515625 
Q 6.78125 27.484375 10.78125 32.3125 
Q 14.796875 37.15625 21.921875 38.8125 
z
M 18.3125 54.390625 
Q 18.3125 48.734375 21.84375 45.5625 
Q 25.390625 42.390625 31.78125 42.390625 
Q 38.140625 42.390625 41.71875 45.5625 
Q 45.3125 48.734375 45.3125 54.390625 
Q 45.3125 60.0625 41.71875 63.234375 
Q 38.140625 66.40625 31.78125 66.40625 
Q 25.390625 66.40625 21.84375 63.234375 
Q 18.3125 60.0625 18.3125 54.390625 
z
" id="DejaVuSans-56"/>
      </defs>
      <g transform="translate(118.930077 322.182437)scale(0.1 -0.1)">
       <use xlink:href="#DejaVuSans-8722"/>
       <use x="83.789062" xlink:href="#DejaVuSans-56"/>
       <use x="147.412109" xlink:href="#DejaVuSans-48"/>
      </g>
     </g>
    </g>
    <g id="xtick_3">
     <g id="line2d_3">
      <g>
       <use style="stroke:#000000;stroke-width:0.8;" x="196.733634" xlink:href="#m7a3d3307e5" y="307.584"/>
      </g>
     </g>
     <g id="text_3">
      <!-- −60 -->
      <defs>
       <path d="M 33.015625 40.375 
Q 26.375 40.375 22.484375 35.828125 
Q 18.609375 31.296875 18.609375 23.390625 
Q 18.609375 15.53125 22.484375 10.953125 
Q 26.375 6.390625 33.015625 6.390625 
Q 39.65625 6.390625 43.53125 10.953125 
Q 47.40625 15.53125 47.40625 23.390625 
Q 47.40625 31.296875 43.53125 35.828125 
Q 39.65625 40.375 33.015625 40.375 
z
M 52.59375 71.296875 
L 52.59375 62.3125 
Q 48.875 64.0625 45.09375 64.984375 
Q 41.3125 65.921875 37.59375 65.921875 
Q 27.828125 65.921875 22.671875 59.328125 
Q 17.53125 52.734375 16.796875 39.40625 
Q 19.671875 43.65625 24.015625 45.921875 
Q 28.375 48.1875 33.59375 48.1875 
Q 44.578125 48.1875 50.953125 41.515625 
Q 57.328125 34.859375 57.328125 23.390625 
Q 57.328125 12.15625 50.6875 5.359375 
Q 44.046875 -1.421875 33.015625 -1.421875 
Q 20.359375 -1.421875 13.671875 8.265625 
Q 6.984375 17.96875 6.984375 36.375 
Q 6.984375 53.65625 15.1875 63.9375 
Q 23.390625 74.21875 37.203125 74.21875 
Q 40.921875 74.21875 44.703125 73.484375 
Q 48.484375 72.75 52.59375 71.296875 
z
" id="DejaVuSans-54"/>
      </defs>
      <g transform="translate(186.18129 322.182437)scale(0.1 -0.1)">
       <use xlink:href="#DejaVuSans-8722"/>
       <use x="83.789062" xlink:href="#DejaVuSans-54"/>
       <use x="147.412109" xlink:href="#DejaVuSans-48"/>
      </g>
     </g>
    </g>
    <g id="xtick_4">
     <g id="line2d_4">
      <g>
       <use style="stroke:#000000;stroke-width:0.8;" x="263.984847" xlink:href="#m7a3d3307e5" y="307.584"/>
      </g>
     </g>
     <g id="text_4">
      <!-- −40 -->
      <defs>
       <path d="M 37.796875 64.3125 
L 12.890625 25.390625 
L 37.796875 25.390625 
z
M 35.203125 72.90625 
L 47.609375 72.90625 
L 47.609375 25.390625 
L 58.015625 25.390625 
L 58.015625 17.1875 
L 47.609375 17.1875 
L 47.609375 0 
L 37.796875 0 
L 37.796875 17.1875 
L 4.890625 17.1875 
L 4.890625 26.703125 
z
" id="DejaVuSans-52"/>
      </defs>
      <g transform="translate(253.432503 322.182437)scale(0.1 -0.1)">
       <use xlink:href="#DejaVuSans-8722"/>
       <use x="83.789062" xlink:href="#DejaVuSans-52"/>
       <use x="147.412109" xlink:href="#DejaVuSans-48"/>
      </g>
     </g>
    </g>
    <g id="xtick_5">
     <g id="line2d_5">
      <g>
       <use style="stroke:#000000;stroke-width:0.8;" x="331.23606" xlink:href="#m7a3d3307e5" y="307.584"/>
      </g>
     </g>
     <g id="text_5">
      <!-- −20 -->
      <defs>
       <path d="M 19.1875 8.296875 
L 53.609375 8.296875 
L 53.609375 0 
L 7.328125 0 
L 7.328125 8.296875 
Q 12.9375 14.109375 22.625 23.890625 
Q 32.328125 33.6875 34.8125 36.53125 
Q 39.546875 41.84375 41.421875 45.53125 
Q 43.3125 49.21875 43.3125 52.78125 
Q 43.3125 58.59375 39.234375 62.25 
Q 35.15625 65.921875 28.609375 65.921875 
Q 23.96875 65.921875 18.8125 64.3125 
Q 13.671875 62.703125 7.8125 59.421875 
L 7.8125 69.390625 
Q 13.765625 71.78125 18.9375 73 
Q 24.125 74.21875 28.421875 74.21875 
Q 39.75 74.21875 46.484375 68.546875 
Q 53.21875 62.890625 53.21875 53.421875 
Q 53.21875 48.921875 51.53125 44.890625 
Q 49.859375 40.875 45.40625 35.40625 
Q 44.1875 33.984375 37.640625 27.21875 
Q 31.109375 20.453125 19.1875 8.296875 
z
" id="DejaVuSans-50"/>
      </defs>
      <g transform="translate(320.683716 322.182437)scale(0.1 -0.1)">
       <use xlink:href="#DejaVuSans-8722"/>
       <use x="83.789062" xlink:href="#DejaVuSans-50"/>
       <use x="147.412109" xlink:href="#DejaVuSans-48"/>
      </g>
     </g>
    </g>
    <g id="xtick_6">
     <g id="line2d_6">
      <g>
       <use style="stroke:#000000;stroke-width:0.8;" x="398.487273" xlink:href="#m7a3d3307e5" y="307.584"/>
      </g>
     </g>
     <g id="text_6">
      <!-- 0 -->
      <g transform="translate(395.306023 322.182437)scale(0.1 -0.1)">
       <use xlink:href="#DejaVuSans-48"/>
      </g>
     </g>
    </g>
   </g>
   <g id="matplotlib.axis_2">
    <g id="ytick_1">
     <g id="line2d_7">
      <defs>
       <path d="M 0 0 
L -3.5 0 
" id="m5eec4d3c03" style="stroke:#000000;stroke-width:0.8;"/>
      </defs>
      <g>
       <use style="stroke:#000000;stroke-width:0.8;" x="57.6" xlink:href="#m5eec4d3c03" y="289.680157"/>
      </g>
     </g>
     <g id="text_7">
      <!-- −20 -->
      <g transform="translate(29.495313 293.479375)scale(0.1 -0.1)">
       <use xlink:href="#DejaVuSans-8722"/>
       <use x="83.789062" xlink:href="#DejaVuSans-50"/>
       <use x="147.412109" xlink:href="#DejaVuSans-48"/>
      </g>
     </g>
    </g>
    <g id="ytick_2">
     <g id="line2d_8">
      <g>
       <use style="stroke:#000000;stroke-width:0.8;" x="57.6" xlink:href="#m5eec4d3c03" y="256.05455"/>
      </g>
     </g>
     <g id="text_8">
      <!-- −10 -->
      <g transform="translate(29.495313 259.853769)scale(0.1 -0.1)">
       <use xlink:href="#DejaVuSans-8722"/>
       <use x="83.789062" xlink:href="#DejaVuSans-49"/>
       <use x="147.412109" xlink:href="#DejaVuSans-48"/>
      </g>
     </g>
    </g>
    <g id="ytick_3">
     <g id="line2d_9">
      <g>
       <use style="stroke:#000000;stroke-width:0.8;" x="57.6" xlink:href="#m5eec4d3c03" y="222.428944"/>
      </g>
     </g>
     <g id="text_9">
      <!-- 0 -->
      <g transform="translate(44.2375 226.228162)scale(0.1 -0.1)">
       <use xlink:href="#DejaVuSans-48"/>
      </g>
     </g>
    </g>
    <g id="ytick_4">
     <g id="line2d_10">
      <g>
       <use style="stroke:#000000;stroke-width:0.8;" x="57.6" xlink:href="#m5eec4d3c03" y="188.803337"/>
      </g>
     </g>
     <g id="text_10">
      <!-- 10 -->
      <g transform="translate(37.875 192.602556)scale(0.1 -0.1)">
       <use xlink:href="#DejaVuSans-49"/>
       <use x="63.623047" xlink:href="#DejaVuSans-48"/>
      </g>
     </g>
    </g>
    <g id="ytick_5">
     <g id="line2d_11">
      <g>
       <use style="stroke:#000000;stroke-width:0.8;" x="57.6" xlink:href="#m5eec4d3c03" y="155.177731"/>
      </g>
     </g>
     <g id="text_11">
      <!-- 20 -->
      <g transform="translate(37.875 158.976949)scale(0.1 -0.1)">
       <use xlink:href="#DejaVuSans-50"/>
       <use x="63.623047" xlink:href="#DejaVuSans-48"/>
      </g>
     </g>
    </g>
    <g id="ytick_6">
     <g id="line2d_12">
      <g>
       <use style="stroke:#000000;stroke-width:0.8;" x="57.6" xlink:href="#m5eec4d3c03" y="121.552124"/>
      </g>
     </g>
     <g id="text_12">
      <!-- 30 -->
      <defs>
       <path d="M 40.578125 39.3125 
Q 47.65625 37.796875 51.625 33 
Q 55.609375 28.21875 55.609375 21.1875 
Q 55.609375 10.40625 48.1875 4.484375 
Q 40.765625 -1.421875 27.09375 -1.421875 
Q 22.515625 -1.421875 17.65625 -0.515625 
Q 12.796875 0.390625 7.625 2.203125 
L 7.625 11.71875 
Q 11.71875 9.328125 16.59375 8.109375 
Q 21.484375 6.890625 26.8125 6.890625 
Q 36.078125 6.890625 40.9375 10.546875 
Q 45.796875 14.203125 45.796875 21.1875 
Q 45.796875 27.640625 41.28125 31.265625 
Q 36.765625 34.90625 28.71875 34.90625 
L 20.21875 34.90625 
L 20.21875 43.015625 
L 29.109375 43.015625 
Q 36.375 43.015625 40.234375 45.921875 
Q 44.09375 48.828125 44.09375 54.296875 
Q 44.09375 59.90625 40.109375 62.90625 
Q 36.140625 65.921875 28.71875 65.921875 
Q 24.65625 65.921875 20.015625 65.03125 
Q 15.375 64.15625 9.8125 62.3125 
L 9.8125 71.09375 
Q 15.4375 72.65625 20.34375 73.4375 
Q 25.25 74.21875 29.59375 74.21875 
Q 40.828125 74.21875 47.359375 69.109375 
Q 53.90625 64.015625 53.90625 55.328125 
Q 53.90625 49.265625 50.4375 45.09375 
Q 46.96875 40.921875 40.578125 39.3125 
z
" id="DejaVuSans-51"/>
      </defs>
      <g transform="translate(37.875 125.351343)scale(0.1 -0.1)">
       <use xlink:href="#DejaVuSans-51"/>
       <use x="63.623047" xlink:href="#DejaVuSans-48"/>
      </g>
     </g>
    </g>
    <g id="ytick_7">
     <g id="line2d_13">
      <g>
       <use style="stroke:#000000;stroke-width:0.8;" x="57.6" xlink:href="#m5eec4d3c03" y="87.926518"/>
      </g>
     </g>
     <g id="text_13">
      <!-- 40 -->
      <g transform="translate(37.875 91.725736)scale(0.1 -0.1)">
       <use xlink:href="#DejaVuSans-52"/>
       <use x="63.623047" xlink:href="#DejaVuSans-48"/>
      </g>
     </g>
    </g>
    <g id="ytick_8">
     <g id="line2d_14">
      <g>
       <use style="stroke:#000000;stroke-width:0.8;" x="57.6" xlink:href="#m5eec4d3c03" y="54.300911"/>
      </g>
     </g>
     <g id="text_14">
      <!-- 50 -->
      <defs>
       <path d="M 10.796875 72.90625 
L 49.515625 72.90625 
L 49.515625 64.59375 
L 19.828125 64.59375 
L 19.828125 46.734375 
Q 21.96875 47.46875 24.109375 47.828125 
Q 26.265625 48.1875 28.421875 48.1875 
Q 40.625 48.1875 47.75 41.5 
Q 54.890625 34.8125 54.890625 23.390625 
Q 54.890625 11.625 47.5625 5.09375 
Q 40.234375 -1.421875 26.90625 -1.421875 
Q 22.3125 -1.421875 17.546875 -0.640625 
Q 12.796875 0.140625 7.71875 1.703125 
L 7.71875 11.625 
Q 12.109375 9.234375 16.796875 8.0625 
Q 21.484375 6.890625 26.703125 6.890625 
Q 35.15625 6.890625 40.078125 11.328125 
Q 45.015625 15.765625 45.015625 23.390625 
Q 45.015625 31 40.078125 35.4375 
Q 35.15625 39.890625 26.703125 39.890625 
Q 22.75 39.890625 18.8125 39.015625 
Q 14.890625 38.140625 10.796875 36.28125 
z
" id="DejaVuSans-53"/>
      </defs>
      <g transform="translate(37.875 58.10013)scale(0.1 -0.1)">
       <use xlink:href="#DejaVuSans-53"/>
       <use x="63.623047" xlink:href="#DejaVuSans-48"/>
      </g>
     </g>
    </g>
   </g>
   <g id="line2d_15">
    <path clip-path="url(#pe56aa8d0f4)" d="M 398.487273 222.428944 
L 398.471816 222.121126 
L 398.45361 221.804391 
L 398.428315 221.475768 
L 398.390996 221.12659 
L 398.343567 220.743831 
L 398.285519 220.317471 
L 398.208998 219.850063 
L 398.120586 219.338143 
L 398.011358 218.790946 
L 397.876613 218.221109 
L 397.705261 217.635133 
L 397.500499 217.034926 
L 397.271199 216.414533 
L 397.019097 215.773659 
L 396.730362 215.122032 
L 396.402169 214.463908 
L 396.049937 213.801659 
L 395.664425 213.154043 
L 395.229761 212.507991 
L 394.77624 211.863492 
L 394.308403 211.221176 
L 393.804991 210.582548 
L 393.226728 209.966396 
L 392.563893 209.379844 
L 391.865177 208.812261 
L 391.130545 208.252778 
L 390.364917 207.692888 
L 389.532283 207.160316 
L 388.637946 206.666335 
L 387.674919 206.206492 
L 386.658326 205.790395 
L 385.585279 205.423563 
L 384.44142 205.100095 
L 383.240296 204.829994 
L 381.973485 204.599131 
L 380.667958 204.402448 
L 379.316114 204.26542 
L 377.90137 204.199527 
L 376.432258 204.178061 
L 374.918779 204.190358 
L 373.357425 204.235147 
L 371.753534 204.307156 
L 370.091753 204.426991 
L 368.382244 204.571295 
L 366.60893 204.728865 
L 364.78426 204.905877 
L 362.914037 205.101416 
L 360.985508 205.319025 
L 359.012795 205.529117 
L 356.979421 205.734365 
L 354.894129 205.946304 
L 352.755944 206.168673 
L 350.565269 206.39886 
L 348.340027 206.633776 
L 346.052443 206.860291 
L 343.707864 207.084564 
L 341.307669 207.315478 
L 338.858245 207.544461 
L 336.374624 207.770705 
L 333.844499 208.00025 
L 331.275301 208.22844 
L 328.636464 208.434205 
L 325.975401 208.641715 
L 323.286327 208.85778 
L 320.596413 209.076151 
L 317.888375 209.284795 
L 315.131176 209.486273 
L 312.342302 209.698023 
L 309.509345 209.932515 
L 306.66398 210.173244 
L 303.82154 210.426146 
L 300.981017 210.683862 
L 298.157845 210.934165 
L 295.34328 211.177661 
L 292.513282 211.426679 
L 289.693573 211.672714 
L 286.8665 211.925562 
L 284.07191 212.168893 
L 281.268274 212.407309 
L 278.455996 212.641804 
L 275.641331 212.868723 
L 272.815772 213.097602 
L 269.987825 213.326542 
L 267.182037 213.555634 
L 264.382739 213.779573 
L 261.591679 214.006382 
L 258.811883 214.237228 
L 256.031718 214.482971 
L 253.25347 214.72799 
L 250.483527 214.951675 
L 247.713987 215.162759 
L 244.948685 215.378935 
L 242.184189 215.60882 
L 239.413137 215.841277 
L 236.669657 216.072046 
L 233.946622 216.308091 
L 231.248537 216.575751 
L 228.568609 216.849225 
L 225.891372 217.131888 
L 223.221331 217.406112 
L 220.55435 217.664844 
L 217.911175 217.931589 
L 215.281518 218.1955 
L 212.661983 218.445311 
L 210.05583 218.693959 
L 207.457714 218.956639 
L 204.889188 219.212523 
L 202.347799 219.459591 
L 199.835293 219.705245 
L 197.371175 219.954206 
L 194.929351 220.201696 
L 192.545632 220.438483 
L 190.209156 220.66777 
L 187.922985 220.876389 
" style="fill:none;stroke:#008000;stroke-linecap:square;stroke-width:1.5;"/>
   </g>
   <g id="line2d_16">
    <path clip-path="url(#pe56aa8d0f4)" d="M 398.487273 222.428944 
L 398.177941 219.081104 
L 397.885554 215.578229 
L 397.626605 211.937641 
L 397.131505 208.612021 
L 396.604313 204.895253 
L 395.938935 200.890281 
L 395.358836 197.578151 
L 394.683172 194.047951 
L 393.952604 190.39836 
L 393.155792 187.132474 
L 392.051369 183.77605 
L 390.774573 180.37324 
L 389.50863 177.261619 
L 388.148752 174.033244 
L 386.670441 170.743582 
L 385.190477 167.724294 
L 383.557317 164.647942 
L 381.767146 161.644001 
L 379.90878 158.841629 
L 377.981885 155.950356 
L 375.890067 153.001129 
L 373.85231 150.327307 
L 371.537433 147.632728 
L 368.785146 145.040287 
L 366.250053 142.83344 
L 363.489922 140.728278 
L 360.686945 138.456539 
L 357.912574 136.556874 
L 354.980772 134.738919 
L 351.792671 133.140469 
L 348.746141 131.719021 
L 345.601339 130.571018 
L 342.640562 129.653802 
L 339.380465 128.830183 
L 336.16469 128.167215 
L 333.019538 127.635634 
L 329.684153 127.209756 
L 326.462268 127.030552 
L 323.436565 126.943495 
L 320.075343 126.905605 
L 316.892178 126.945498 
L 313.838998 127.013831 
L 310.481937 127.203713 
L 307.486786 127.420106 
L 304.801014 127.60535 
L 301.448408 127.858374 
L 298.368891 128.125229 
L 295.653954 128.364925 
L 292.30685 128.683919 
L 288.606743 128.96763 
L 284.709444 129.291188 
L 281.357041 129.551703 
L 277.837371 129.871215 
L 274.362517 130.157803 
L 271.00915 130.398278 
L 267.334246 130.690243 
L 264.297102 130.913931 
L 260.943541 131.156683 
L 257.447922 131.427736 
L 253.870663 131.735429 
L 250.518234 131.987927 
L 247.397834 132.171103 
L 244.529754 132.332928 
L 241.173711 132.535453 
L 237.471355 132.737566 
L 233.274844 132.981144 
L 229.919909 133.204199 
L 226.70198 133.366665 
L 222.910259 133.578947 
L 219.555037 133.795827 
L 216.284346 133.991512 
L 213.217418 134.192408 
L 209.863422 134.428508 
L 206.339028 134.641732 
L 202.718428 134.895086 
L 199.362233 135.093866 
L 196.032642 135.329489 
L 192.859584 135.52415 
L 189.504705 135.744797 
L 186.094014 135.997253 
L 182.599121 136.209145 
L 179.241316 136.382718 
L 175.697564 136.603306 
L 172.313769 136.825805 
L 168.95801 137.031304 
L 165.630544 137.234725 
L 162.228377 137.45429 
L 158.876207 137.713416 
L 155.818433 137.898424 
L 152.697215 138.051193 
L 149.33895 138.217407 
L 145.919058 138.427815 
L 142.441061 138.651292 
L 139.083201 138.826826 
L 135.889096 139.054538 
L 132.610957 139.279556 
L 129.25931 139.547954 
L 125.95817 139.799292 
L 122.751945 140.065957 
L 119.401917 140.355017 
L 115.854133 140.616675 
L 112.739971 140.868922 
L 109.386771 141.119221 
L 106.158358 141.38564 
L 103.415078 141.615007 
L 100.064123 141.892922 
L 96.889454 142.144808 
L 93.748557 142.389614 
L 90.393782 142.614712 
L 87.140368 142.890957 
L 84.026756 143.179257 
L 80.673163 143.424082 
L 77.38771 143.719939 
L 73.832727 143.95766 
" style="fill:none;stroke:#0000ff;stroke-linecap:square;stroke-width:1.5;"/>
   </g>
   <g id="line2d_17">
    <path clip-path="url(#pe56aa8d0f4)" d="M 398.487273 222.428944 
L 398.177932 219.081103 
L 397.885313 215.578245 
L 397.625843 211.937693 
L 397.129612 208.612255 
L 396.598094 204.896126 
L 395.929188 200.891776 
L 395.34721 197.579963 
L 394.674596 194.049219 
L 393.94258 190.400011 
L 393.141349 187.135308 
L 392.038332 183.778609 
L 390.75664 180.378 
L 389.54358 177.245766 
L 388.257015 173.987489 
L 386.809679 170.683639 
L 385.327352 167.665532 
L 383.692277 164.590245 
L 381.899266 161.588038 
L 380.036869 158.788344 
L 378.105366 155.900111 
L 376.009065 152.95408 
L 373.942904 150.301561 
L 371.569026 147.658772 
L 368.785823 145.100275 
L 366.258929 142.883366 
L 363.53218 140.735699 
L 360.738902 138.452213 
L 357.965119 136.551442 
L 355.085389 134.653496 
L 351.94488 132.964624 
L 348.888317 131.563342 
L 345.763216 130.362843 
L 342.808868 129.426141 
L 339.555948 128.574742 
L 336.34822 127.873171 
L 333.204606 127.331565 
L 329.867619 126.917842 
L 326.64565 126.739857 
L 323.620236 126.649414 
L 320.258383 126.627056 
L 317.075165 126.679202 
L 314.022366 126.763068 
L 310.665889 126.963367 
L 307.67056 127.17639 
L 304.985635 127.375134 
L 301.634461 127.64983 
L 298.557097 127.94065 
L 295.844021 128.200512 
L 292.498417 128.535261 
L 288.799826 128.837453 
L 284.903725 129.177819 
L 281.552751 129.456429 
L 278.034818 129.795007 
L 274.561508 130.100343 
L 271.209361 130.359348 
L 267.535966 130.671387 
L 264.500084 130.913637 
L 261.14777 131.174262 
L 257.653339 131.462716 
L 254.077424 131.787408 
L 250.725846 132.053239 
L 247.606332 132.253834 
L 244.739191 132.433378 
L 241.385363 132.669924 
L 237.685001 132.907487 
L 233.489526 133.170364 
L 230.135446 133.40706 
L 226.918227 133.585721 
L 223.127645 133.818541 
L 219.773011 134.045407 
L 216.503902 134.269998 
L 213.438301 134.493041 
L 210.085424 134.744283 
L 206.561873 134.973038 
L 202.942312 135.241673 
L 199.587229 135.461325 
L 196.258387 135.710461 
L 193.085992 135.917196 
L 189.731966 136.152462 
L 186.322171 136.417574 
L 182.828235 136.644564 
L 179.472292 136.852954 
L 175.929782 137.089507 
L 172.545994 137.312955 
L 169.190782 137.525699 
L 165.86285 137.727617 
L 162.460936 137.953886 
L 159.108803 138.213626 
L 156.051995 138.413973 
L 152.932233 138.593286 
L 149.574865 138.778098 
L 146.15465 138.983264 
L 142.676767 139.2094 
L 139.319925 139.403862 
L 136.126112 139.634765 
L 132.848567 139.86772 
L 129.498549 140.15685 
L 126.200098 140.441722 
L 122.995919 140.731821 
L 119.646375 141.027081 
L 116.100665 141.315456 
L 112.988199 141.58814 
L 109.636992 141.863809 
L 106.409834 142.145784 
L 103.667547 142.384875 
L 100.31787 142.6777 
L 97.145183 142.952142 
L 94.006087 143.219 
L 90.654529 143.48823 
L 87.401729 143.771446 
L 84.287521 144.055118 
L 80.935263 144.317077 
L 77.651449 144.630755 
L 74.098468 144.897947 
" style="fill:none;stroke:#ff0000;stroke-linecap:square;stroke-width:1.5;"/>
   </g>
   <g id="patch_3">
    <path d="M 57.6 307.584 
L 57.6 41.472 
" style="fill:none;stroke:#000000;stroke-linecap:square;stroke-linejoin:miter;stroke-width:0.8;"/>
   </g>
   <g id="patch_4">
    <path d="M 414.72 307.584 
L 414.72 41.472 
" style="fill:none;stroke:#000000;stroke-linecap:square;stroke-linejoin:miter;stroke-width:0.8;"/>
   </g>
   <g id="patch_5">
    <path d="M 57.6 307.584 
L 414.72 307.584 
" style="fill:none;stroke:#000000;stroke-linecap:square;stroke-linejoin:miter;stroke-width:0.8;"/>
   </g>
   <g id="patch_6">
    <path d="M 57.6 41.472 
L 414.72 41.472 
" style="fill:none;stroke:#000000;stroke-linecap:square;stroke-linejoin:miter;stroke-width:0.8;"/>
   </g>
  </g>
 </g>
 <defs>
  <clipPath id="pe56aa8d0f4">
   <rect height="266.112" width="357.12" x="57.6" y="41.472"/>
  </clipPath>
 </defs>
</svg>
