<?xml version="1.0" encoding="utf-8" standalone="no"?>
<!DOCTYPE svg PUBLIC "-//W3C//DTD SVG 1.1//EN"
  "http://www.w3.org/Graphics/SVG/1.1/DTD/svg11.dtd">
<!-- Created with matplotlib (https://matplotlib.org/) -->
<svg height="345.6pt" version="1.1" viewBox="0 0 460.8 345.6" width="460.8pt" xmlns="http://www.w3.org/2000/svg" xmlns:xlink="http://www.w3.org/1999/xlink">
 <defs>
  <style type="text/css">
*{stroke-linecap:butt;stroke-linejoin:round;}
  </style>
 </defs>
 <g id="figure_1">
  <g id="patch_1">
   <path d="M 0 345.6 
L 460.8 345.6 
L 460.8 0 
L 0 0 
z
" style="fill:#ffffff;"/>
  </g>
  <g id="axes_1">
   <g id="patch_2">
    <path d="M 57.6 307.584 
L 414.72 307.584 
L 414.72 41.472 
L 57.6 41.472 
z
" style="fill:#ffffff;"/>
   </g>
   <g id="matplotlib.axis_1">
    <g id="xtick_1">
     <g id="line2d_1">
      <defs>
       <path d="M 0 0 
L 0 3.5 
" id="mc0386e382c" style="stroke:#000000;stroke-width:0.8;"/>
      </defs>
      <g>
       <use style="stroke:#000000;stroke-width:0.8;" x="63.400859" xlink:href="#mc0386e382c" y="307.584"/>
      </g>
     </g>
     <g id="text_1">
      <!-- −300 -->
      <defs>
       <path d="M 10.59375 35.5 
L 73.1875 35.5 
L 73.1875 27.203125 
L 10.59375 27.203125 
z
" id="DejaVuSans-8722"/>
       <path d="M 40.578125 39.3125 
Q 47.65625 37.796875 51.625 33 
Q 55.609375 28.21875 55.609375 21.1875 
Q 55.609375 10.40625 48.1875 4.484375 
Q 40.765625 -1.421875 27.09375 -1.421875 
Q 22.515625 -1.421875 17.65625 -0.515625 
Q 12.796875 0.390625 7.625 2.203125 
L 7.625 11.71875 
Q 11.71875 9.328125 16.59375 8.109375 
Q 21.484375 6.890625 26.8125 6.890625 
Q 36.078125 6.890625 40.9375 10.546875 
Q 45.796875 14.203125 45.796875 21.1875 
Q 45.796875 27.640625 41.28125 31.265625 
Q 36.765625 34.90625 28.71875 34.90625 
L 20.21875 34.90625 
L 20.21875 43.015625 
L 29.109375 43.015625 
Q 36.375 43.015625 40.234375 45.921875 
Q 44.09375 48.828125 44.09375 54.296875 
Q 44.09375 59.90625 40.109375 62.90625 
Q 36.140625 65.921875 28.71875 65.921875 
Q 24.65625 65.921875 20.015625 65.03125 
Q 15.375 64.15625 9.8125 62.3125 
L 9.8125 71.09375 
Q 15.4375 72.65625 20.34375 73.4375 
Q 25.25 74.21875 29.59375 74.21875 
Q 40.828125 74.21875 47.359375 69.109375 
Q 53.90625 64.015625 53.90625 55.328125 
Q 53.90625 49.265625 50.4375 45.09375 
Q 46.96875 40.921875 40.578125 39.3125 
z
" id="DejaVuSans-51"/>
       <path d="M 31.78125 66.40625 
Q 24.171875 66.40625 20.328125 58.90625 
Q 16.5 51.421875 16.5 36.375 
Q 16.5 21.390625 20.328125 13.890625 
Q 24.171875 6.390625 31.78125 6.390625 
Q 39.453125 6.390625 43.28125 13.890625 
Q 47.125 21.390625 47.125 36.375 
Q 47.125 51.421875 43.28125 58.90625 
Q 39.453125 66.40625 31.78125 66.40625 
z
M 31.78125 74.21875 
Q 44.046875 74.21875 50.515625 64.515625 
Q 56.984375 54.828125 56.984375 36.375 
Q 56.984375 17.96875 50.515625 8.265625 
Q 44.046875 -1.421875 31.78125 -1.421875 
Q 19.53125 -1.421875 13.0625 8.265625 
Q 6.59375 17.96875 6.59375 36.375 
Q 6.59375 54.828125 13.0625 64.515625 
Q 19.53125 74.21875 31.78125 74.21875 
z
" id="DejaVuSans-48"/>
      </defs>
      <g transform="translate(49.667265 322.182437)scale(0.1 -0.1)">
       <use xlink:href="#DejaVuSans-8722"/>
       <use x="83.789062" xlink:href="#DejaVuSans-51"/>
       <use x="147.412109" xlink:href="#DejaVuSans-48"/>
       <use x="211.035156" xlink:href="#DejaVuSans-48"/>
      </g>
     </g>
    </g>
    <g id="xtick_2">
     <g id="line2d_2">
      <g>
       <use style="stroke:#000000;stroke-width:0.8;" x="116.291521" xlink:href="#mc0386e382c" y="307.584"/>
      </g>
     </g>
     <g id="text_2">
      <!-- −200 -->
      <defs>
       <path d="M 19.1875 8.296875 
L 53.609375 8.296875 
L 53.609375 0 
L 7.328125 0 
L 7.328125 8.296875 
Q 12.9375 14.109375 22.625 23.890625 
Q 32.328125 33.6875 34.8125 36.53125 
Q 39.546875 41.84375 41.421875 45.53125 
Q 43.3125 49.21875 43.3125 52.78125 
Q 43.3125 58.59375 39.234375 62.25 
Q 35.15625 65.921875 28.609375 65.921875 
Q 23.96875 65.921875 18.8125 64.3125 
Q 13.671875 62.703125 7.8125 59.421875 
L 7.8125 69.390625 
Q 13.765625 71.78125 18.9375 73 
Q 24.125 74.21875 28.421875 74.21875 
Q 39.75 74.21875 46.484375 68.546875 
Q 53.21875 62.890625 53.21875 53.421875 
Q 53.21875 48.921875 51.53125 44.890625 
Q 49.859375 40.875 45.40625 35.40625 
Q 44.1875 33.984375 37.640625 27.21875 
Q 31.109375 20.453125 19.1875 8.296875 
z
" id="DejaVuSans-50"/>
      </defs>
      <g transform="translate(102.557927 322.182437)scale(0.1 -0.1)">
       <use xlink:href="#DejaVuSans-8722"/>
       <use x="83.789062" xlink:href="#DejaVuSans-50"/>
       <use x="147.412109" xlink:href="#DejaVuSans-48"/>
       <use x="211.035156" xlink:href="#DejaVuSans-48"/>
      </g>
     </g>
    </g>
    <g id="xtick_3">
     <g id="line2d_3">
      <g>
       <use style="stroke:#000000;stroke-width:0.8;" x="169.182183" xlink:href="#mc0386e382c" y="307.584"/>
      </g>
     </g>
     <g id="text_3">
      <!-- −100 -->
      <defs>
       <path d="M 12.40625 8.296875 
L 28.515625 8.296875 
L 28.515625 63.921875 
L 10.984375 60.40625 
L 10.984375 69.390625 
L 28.421875 72.90625 
L 38.28125 72.90625 
L 38.28125 8.296875 
L 54.390625 8.296875 
L 54.390625 0 
L 12.40625 0 
z
" id="DejaVuSans-49"/>
      </defs>
      <g transform="translate(155.44859 322.182437)scale(0.1 -0.1)">
       <use xlink:href="#DejaVuSans-8722"/>
       <use x="83.789062" xlink:href="#DejaVuSans-49"/>
       <use x="147.412109" xlink:href="#DejaVuSans-48"/>
       <use x="211.035156" xlink:href="#DejaVuSans-48"/>
      </g>
     </g>
    </g>
    <g id="xtick_4">
     <g id="line2d_4">
      <g>
       <use style="stroke:#000000;stroke-width:0.8;" x="222.072846" xlink:href="#mc0386e382c" y="307.584"/>
      </g>
     </g>
     <g id="text_4">
      <!-- 0 -->
      <g transform="translate(218.891596 322.182437)scale(0.1 -0.1)">
       <use xlink:href="#DejaVuSans-48"/>
      </g>
     </g>
    </g>
    <g id="xtick_5">
     <g id="line2d_5">
      <g>
       <use style="stroke:#000000;stroke-width:0.8;" x="274.963508" xlink:href="#mc0386e382c" y="307.584"/>
      </g>
     </g>
     <g id="text_5">
      <!-- 100 -->
      <g transform="translate(265.419758 322.182437)scale(0.1 -0.1)">
       <use xlink:href="#DejaVuSans-49"/>
       <use x="63.623047" xlink:href="#DejaVuSans-48"/>
       <use x="127.246094" xlink:href="#DejaVuSans-48"/>
      </g>
     </g>
    </g>
    <g id="xtick_6">
     <g id="line2d_6">
      <g>
       <use style="stroke:#000000;stroke-width:0.8;" x="327.85417" xlink:href="#mc0386e382c" y="307.584"/>
      </g>
     </g>
     <g id="text_6">
      <!-- 200 -->
      <g transform="translate(318.31042 322.182437)scale(0.1 -0.1)">
       <use xlink:href="#DejaVuSans-50"/>
       <use x="63.623047" xlink:href="#DejaVuSans-48"/>
       <use x="127.246094" xlink:href="#DejaVuSans-48"/>
      </g>
     </g>
    </g>
    <g id="xtick_7">
     <g id="line2d_7">
      <g>
       <use style="stroke:#000000;stroke-width:0.8;" x="380.744833" xlink:href="#mc0386e382c" y="307.584"/>
      </g>
     </g>
     <g id="text_7">
      <!-- 300 -->
      <g transform="translate(371.201083 322.182437)scale(0.1 -0.1)">
       <use xlink:href="#DejaVuSans-51"/>
       <use x="63.623047" xlink:href="#DejaVuSans-48"/>
       <use x="127.246094" xlink:href="#DejaVuSans-48"/>
      </g>
     </g>
    </g>
   </g>
   <g id="matplotlib.axis_2">
    <g id="ytick_1">
     <g id="line2d_8">
      <defs>
       <path d="M 0 0 
L -3.5 0 
" id="m5ad642bf8d" style="stroke:#000000;stroke-width:0.8;"/>
      </defs>
      <g>
       <use style="stroke:#000000;stroke-width:0.8;" x="57.6" xlink:href="#m5ad642bf8d" y="295.488"/>
      </g>
     </g>
     <g id="text_8">
      <!-- 0 -->
      <g transform="translate(44.2375 299.287219)scale(0.1 -0.1)">
       <use xlink:href="#DejaVuSans-48"/>
      </g>
     </g>
    </g>
    <g id="ytick_2">
     <g id="line2d_9">
      <g>
       <use style="stroke:#000000;stroke-width:0.8;" x="57.6" xlink:href="#m5ad642bf8d" y="242.597338"/>
      </g>
     </g>
     <g id="text_9">
      <!-- 100 -->
      <g transform="translate(31.5125 246.396556)scale(0.1 -0.1)">
       <use xlink:href="#DejaVuSans-49"/>
       <use x="63.623047" xlink:href="#DejaVuSans-48"/>
       <use x="127.246094" xlink:href="#DejaVuSans-48"/>
      </g>
     </g>
    </g>
    <g id="ytick_3">
     <g id="line2d_10">
      <g>
       <use style="stroke:#000000;stroke-width:0.8;" x="57.6" xlink:href="#m5ad642bf8d" y="189.706675"/>
      </g>
     </g>
     <g id="text_10">
      <!-- 200 -->
      <g transform="translate(31.5125 193.505894)scale(0.1 -0.1)">
       <use xlink:href="#DejaVuSans-50"/>
       <use x="63.623047" xlink:href="#DejaVuSans-48"/>
       <use x="127.246094" xlink:href="#DejaVuSans-48"/>
      </g>
     </g>
    </g>
    <g id="ytick_4">
     <g id="line2d_11">
      <g>
       <use style="stroke:#000000;stroke-width:0.8;" x="57.6" xlink:href="#m5ad642bf8d" y="136.816013"/>
      </g>
     </g>
     <g id="text_11">
      <!-- 300 -->
      <g transform="translate(31.5125 140.615232)scale(0.1 -0.1)">
       <use xlink:href="#DejaVuSans-51"/>
       <use x="63.623047" xlink:href="#DejaVuSans-48"/>
       <use x="127.246094" xlink:href="#DejaVuSans-48"/>
      </g>
     </g>
    </g>
    <g id="ytick_5">
     <g id="line2d_12">
      <g>
       <use style="stroke:#000000;stroke-width:0.8;" x="57.6" xlink:href="#m5ad642bf8d" y="83.925351"/>
      </g>
     </g>
     <g id="text_12">
      <!-- 400 -->
      <defs>
       <path d="M 37.796875 64.3125 
L 12.890625 25.390625 
L 37.796875 25.390625 
z
M 35.203125 72.90625 
L 47.609375 72.90625 
L 47.609375 25.390625 
L 58.015625 25.390625 
L 58.015625 17.1875 
L 47.609375 17.1875 
L 47.609375 0 
L 37.796875 0 
L 37.796875 17.1875 
L 4.890625 17.1875 
L 4.890625 26.703125 
z
" id="DejaVuSans-52"/>
      </defs>
      <g transform="translate(31.5125 87.724569)scale(0.1 -0.1)">
       <use xlink:href="#DejaVuSans-52"/>
       <use x="63.623047" xlink:href="#DejaVuSans-48"/>
       <use x="127.246094" xlink:href="#DejaVuSans-48"/>
      </g>
     </g>
    </g>
   </g>
   <g id="line2d_13">
    <path clip-path="url(#pa4d2f5f84a)" d="M 222.072846 295.488 
L 220.41727 267.210015 
L 219.684898 257.386965 
L 219.303053 252.066343 
L 219.462877 250.89409 
L 219.779325 250.079389 
L 220.278231 249.422566 
L 220.918453 248.939912 
L 221.834826 248.548617 
L 223.707041 248.193699 
L 225.513184 248.077726 
L 236.406263 247.644255 
L 239.808497 247.57619 
L 242.668729 247.7533 
L 249.015037 248.313999 
L 250.083656 248.101818 
L 251.024607 247.680866 
L 251.775422 247.029412 
L 252.203561 246.424014 
L 252.582496 245.502098 
L 253.179955 242.882482 
L 254.893152 236.027571 
L 259.165861 217.506264 
L 259.750398 213.252215 
L 260.016385 208.89085 
L 260.124625 204.05749 
L 260.026815 201.370273 
L 259.088936 185.239889 
L 258.918623 170.173242 
L 258.665309 168.870439 
L 258.257966 167.972567 
L 257.677925 167.231939 
L 256.971411 166.650988 
L 255.780313 166.132289 
L 254.833142 165.967006 
L 253.50145 165.934584 
L 249.54643 166.155561 
L 245.688569 166.404888 
L 227.895642 167.336081 
L 222.435069 167.798239 
L 219.458379 167.828176 
L 217.812115 167.671778 
L 216.855919 167.38273 
L 215.955422 166.808126 
L 215.320586 166.027195 
L 214.948696 165.143604 
L 214.711016 164.095628 
L 214.556622 162.173 
L 214.168865 151.029994 
L 213.775697 141.092366 
L 212.784383 121.200345 
L 212.784383 121.200345 
" style="fill:none;stroke:#008000;stroke-linecap:square;stroke-width:1.5;"/>
   </g>
   <g id="line2d_14">
    <path clip-path="url(#pa4d2f5f84a)" d="M 222.072846 295.488 
L 221.951088 291.234316 
L 221.548041 284.133165 
L 219.382307 253.518796 
L 218.292633 242.267254 
L 218.136465 240.06981 
L 218.182975 238.742583 
L 218.44756 237.4541 
L 218.785511 236.593067 
L 219.283648 235.85185 
L 219.902923 235.252191 
L 220.894542 234.63241 
L 221.727118 234.291072 
L 224.066949 233.776217 
L 227.470988 233.499908 
L 238.479287 232.920497 
L 248.237038 232.397298 
L 252.002533 232.561239 
L 260.577624 233.223861 
L 262.029441 232.989296 
L 263.040235 232.613902 
L 264.405481 231.81923 
L 265.288493 231.088577 
L 265.899406 230.33645 
L 266.321273 229.512014 
L 266.729322 228.183047 
L 267.507447 224.563058 
L 268.830613 219.170203 
L 270.019522 214.08373 
L 271.765497 206.321879 
L 274.433681 194.787009 
L 276.509896 183.438254 
L 276.907048 179.559426 
L 277.214015 174.092962 
L 277.364905 169.064825 
L 277.190189 163.950811 
L 276.975184 159.734327 
L 276.73275 155.591056 
L 276.035252 145.652253 
L 275.860556 141.203506 
L 275.884563 136.762813 
L 275.653515 125.235669 
L 275.317097 119.028428 
L 274.968441 117.69553 
L 274.443377 116.716367 
L 273.69977 115.877361 
L 272.956462 115.326785 
L 271.739755 114.723869 
L 270.808884 114.47222 
L 269.73685 114.338332 
L 266.192761 114.374531 
L 242.756331 115.745601 
L 234.412626 116.234406 
L 228.480214 116.644983 
L 218.056256 117.663247 
L 212.110022 118.027492 
L 209.020119 117.979248 
L 209.020119 117.979248 
L 210.132053 117.911792 
L 209.119971 117.782778 
L 208.433928 116.913196 
L 207.319671 116.880213 
L 207.172751 116.38067 
L 206.363191 115.626269 
L 206.363191 115.626269 
L 205.388073 116.145237 
L 204.274085 116.170154 
L 204.274085 116.170154 
L 201.573498 115.74512 
L 200.65456 115.291148 
L 199.874648 114.663374 
L 199.304578 113.961659 
L 198.856021 113.140768 
L 198.445222 111.861698 
L 198.2061 110.425344 
L 198.033604 107.462982 
L 197.334203 91.702262 
L 196.523821 77.867534 
L 195.285763 58.854586 
L 194.955095 53.568 
L 194.955095 53.568 
" style="fill:none;stroke:#0000ff;stroke-linecap:square;stroke-width:1.5;"/>
   </g>
   <g id="line2d_15">
    <path clip-path="url(#pa4d2f5f84a)" d="M 222.072846 295.488 
L 221.951088 291.234316 
L 221.548041 284.133165 
L 219.382307 253.518796 
L 218.292633 242.267254 
L 218.136465 240.06981 
L 218.182975 238.742583 
L 218.44756 237.4541 
L 218.785511 236.593067 
L 219.283648 235.85185 
L 219.902923 235.252191 
L 220.894542 234.63241 
L 221.727118 234.291072 
L 224.066949 233.776217 
L 227.470988 233.499908 
L 238.479287 232.920497 
L 248.237038 232.397298 
L 252.002533 232.561239 
L 260.577624 233.223861 
L 262.029441 232.989296 
L 263.040235 232.613902 
L 264.405481 231.81923 
L 265.288493 231.088577 
L 265.899406 230.33645 
L 266.321273 229.512014 
L 266.729322 228.183047 
L 267.507447 224.563058 
L 268.830613 219.170203 
L 270.019522 214.08373 
L 271.765497 206.321879 
L 274.433681 194.787009 
L 276.509896 183.438254 
L 276.907048 179.559426 
L 277.214015 174.092962 
L 277.364905 169.064825 
L 277.190189 163.950811 
L 276.975184 159.734327 
L 276.732751 155.591056 
L 276.035252 145.652253 
L 275.860556 141.203506 
L 275.884563 136.762814 
L 275.653515 125.235669 
L 275.317097 119.028428 
L 274.968441 117.69553 
L 274.443377 116.716368 
L 273.69977 115.877361 
L 272.956462 115.326785 
L 271.739755 114.72387 
L 270.808884 114.47222 
L 269.73685 114.338332 
L 266.192761 114.374531 
L 242.756331 115.745601 
L 234.412626 116.234406 
L 228.480214 116.644983 
L 218.056256 117.663247 
L 212.110022 118.027492 
L 209.020119 117.979248 
L 209.020119 117.979248 
L 210.132053 117.911792 
L 209.119971 117.782778 
L 208.433928 116.913196 
L 207.319671 116.880213 
L 207.172751 116.38067 
L 206.363191 115.626269 
L 206.363191 115.626269 
L 205.388073 116.145237 
L 204.274085 116.170154 
L 204.274085 116.170154 
L 201.573498 115.74512 
L 200.65456 115.291149 
L 199.874648 114.663374 
L 199.304578 113.96166 
L 198.856021 113.140768 
L 198.445222 111.861698 
L 198.2061 110.425344 
L 198.033604 107.462982 
L 197.334203 91.702262 
L 196.523821 77.867534 
L 195.285763 58.854586 
L 194.955095 53.568 
L 194.955095 53.568 
" style="fill:none;stroke:#ff0000;stroke-linecap:square;stroke-width:1.5;"/>
   </g>
   <g id="patch_3">
    <path d="M 57.6 307.584 
L 57.6 41.472 
" style="fill:none;stroke:#000000;stroke-linecap:square;stroke-linejoin:miter;stroke-width:0.8;"/>
   </g>
   <g id="patch_4">
    <path d="M 414.72 307.584 
L 414.72 41.472 
" style="fill:none;stroke:#000000;stroke-linecap:square;stroke-linejoin:miter;stroke-width:0.8;"/>
   </g>
   <g id="patch_5">
    <path d="M 57.6 307.584 
L 414.72 307.584 
" style="fill:none;stroke:#000000;stroke-linecap:square;stroke-linejoin:miter;stroke-width:0.8;"/>
   </g>
   <g id="patch_6">
    <path d="M 57.6 41.472 
L 414.72 41.472 
" style="fill:none;stroke:#000000;stroke-linecap:square;stroke-linejoin:miter;stroke-width:0.8;"/>
   </g>
  </g>
 </g>
 <defs>
  <clipPath id="pa4d2f5f84a">
   <rect height="266.112" width="357.12" x="57.6" y="41.472"/>
  </clipPath>
 </defs>
</svg>
