<?xml version="1.0" encoding="utf-8" standalone="no"?>
<!DOCTYPE svg PUBLIC "-//W3C//DTD SVG 1.1//EN"
  "http://www.w3.org/Graphics/SVG/1.1/DTD/svg11.dtd">
<!-- Created with matplotlib (https://matplotlib.org/) -->
<svg height="345.6pt" version="1.1" viewBox="0 0 460.8 345.6" width="460.8pt" xmlns="http://www.w3.org/2000/svg" xmlns:xlink="http://www.w3.org/1999/xlink">
 <defs>
  <style type="text/css">
*{stroke-linecap:butt;stroke-linejoin:round;}
  </style>
 </defs>
 <g id="figure_1">
  <g id="patch_1">
   <path d="M 0 345.6 
L 460.8 345.6 
L 460.8 0 
L 0 0 
z
" style="fill:#ffffff;"/>
  </g>
  <g id="axes_1">
   <g id="patch_2">
    <path d="M 57.6 307.584 
L 414.72 307.584 
L 414.72 41.472 
L 57.6 41.472 
z
" style="fill:#ffffff;"/>
   </g>
   <g id="matplotlib.axis_1">
    <g id="xtick_1">
     <g id="line2d_1">
      <defs>
       <path d="M 0 0 
L 0 3.5 
" id="mfde8391f02" style="stroke:#000000;stroke-width:0.8;"/>
      </defs>
      <g>
       <use style="stroke:#000000;stroke-width:0.8;" x="88.294582" xlink:href="#mfde8391f02" y="307.584"/>
      </g>
     </g>
     <g id="text_1">
      <!-- −60 -->
      <defs>
       <path d="M 10.59375 35.5 
L 73.1875 35.5 
L 73.1875 27.203125 
L 10.59375 27.203125 
z
" id="DejaVuSans-8722"/>
       <path d="M 33.015625 40.375 
Q 26.375 40.375 22.484375 35.828125 
Q 18.609375 31.296875 18.609375 23.390625 
Q 18.609375 15.53125 22.484375 10.953125 
Q 26.375 6.390625 33.015625 6.390625 
Q 39.65625 6.390625 43.53125 10.953125 
Q 47.40625 15.53125 47.40625 23.390625 
Q 47.40625 31.296875 43.53125 35.828125 
Q 39.65625 40.375 33.015625 40.375 
z
M 52.59375 71.296875 
L 52.59375 62.3125 
Q 48.875 64.0625 45.09375 64.984375 
Q 41.3125 65.921875 37.59375 65.921875 
Q 27.828125 65.921875 22.671875 59.328125 
Q 17.53125 52.734375 16.796875 39.40625 
Q 19.671875 43.65625 24.015625 45.921875 
Q 28.375 48.1875 33.59375 48.1875 
Q 44.578125 48.1875 50.953125 41.515625 
Q 57.328125 34.859375 57.328125 23.390625 
Q 57.328125 12.15625 50.6875 5.359375 
Q 44.046875 -1.421875 33.015625 -1.421875 
Q 20.359375 -1.421875 13.671875 8.265625 
Q 6.984375 17.96875 6.984375 36.375 
Q 6.984375 53.65625 15.1875 63.9375 
Q 23.390625 74.21875 37.203125 74.21875 
Q 40.921875 74.21875 44.703125 73.484375 
Q 48.484375 72.75 52.59375 71.296875 
z
" id="DejaVuSans-54"/>
       <path d="M 31.78125 66.40625 
Q 24.171875 66.40625 20.328125 58.90625 
Q 16.5 51.421875 16.5 36.375 
Q 16.5 21.390625 20.328125 13.890625 
Q 24.171875 6.390625 31.78125 6.390625 
Q 39.453125 6.390625 43.28125 13.890625 
Q 47.125 21.390625 47.125 36.375 
Q 47.125 51.421875 43.28125 58.90625 
Q 39.453125 66.40625 31.78125 66.40625 
z
M 31.78125 74.21875 
Q 44.046875 74.21875 50.515625 64.515625 
Q 56.984375 54.828125 56.984375 36.375 
Q 56.984375 17.96875 50.515625 8.265625 
Q 44.046875 -1.421875 31.78125 -1.421875 
Q 19.53125 -1.421875 13.0625 8.265625 
Q 6.59375 17.96875 6.59375 36.375 
Q 6.59375 54.828125 13.0625 64.515625 
Q 19.53125 74.21875 31.78125 74.21875 
z
" id="DejaVuSans-48"/>
      </defs>
      <g transform="translate(77.742238 322.182437)scale(0.1 -0.1)">
       <use xlink:href="#DejaVuSans-8722"/>
       <use x="83.789062" xlink:href="#DejaVuSans-54"/>
       <use x="147.412109" xlink:href="#DejaVuSans-48"/>
      </g>
     </g>
    </g>
    <g id="xtick_2">
     <g id="line2d_2">
      <g>
       <use style="stroke:#000000;stroke-width:0.8;" x="138.237445" xlink:href="#mfde8391f02" y="307.584"/>
      </g>
     </g>
     <g id="text_2">
      <!-- −40 -->
      <defs>
       <path d="M 37.796875 64.3125 
L 12.890625 25.390625 
L 37.796875 25.390625 
z
M 35.203125 72.90625 
L 47.609375 72.90625 
L 47.609375 25.390625 
L 58.015625 25.390625 
L 58.015625 17.1875 
L 47.609375 17.1875 
L 47.609375 0 
L 37.796875 0 
L 37.796875 17.1875 
L 4.890625 17.1875 
L 4.890625 26.703125 
z
" id="DejaVuSans-52"/>
      </defs>
      <g transform="translate(127.685101 322.182437)scale(0.1 -0.1)">
       <use xlink:href="#DejaVuSans-8722"/>
       <use x="83.789062" xlink:href="#DejaVuSans-52"/>
       <use x="147.412109" xlink:href="#DejaVuSans-48"/>
      </g>
     </g>
    </g>
    <g id="xtick_3">
     <g id="line2d_3">
      <g>
       <use style="stroke:#000000;stroke-width:0.8;" x="188.180308" xlink:href="#mfde8391f02" y="307.584"/>
      </g>
     </g>
     <g id="text_3">
      <!-- −20 -->
      <defs>
       <path d="M 19.1875 8.296875 
L 53.609375 8.296875 
L 53.609375 0 
L 7.328125 0 
L 7.328125 8.296875 
Q 12.9375 14.109375 22.625 23.890625 
Q 32.328125 33.6875 34.8125 36.53125 
Q 39.546875 41.84375 41.421875 45.53125 
Q 43.3125 49.21875 43.3125 52.78125 
Q 43.3125 58.59375 39.234375 62.25 
Q 35.15625 65.921875 28.609375 65.921875 
Q 23.96875 65.921875 18.8125 64.3125 
Q 13.671875 62.703125 7.8125 59.421875 
L 7.8125 69.390625 
Q 13.765625 71.78125 18.9375 73 
Q 24.125 74.21875 28.421875 74.21875 
Q 39.75 74.21875 46.484375 68.546875 
Q 53.21875 62.890625 53.21875 53.421875 
Q 53.21875 48.921875 51.53125 44.890625 
Q 49.859375 40.875 45.40625 35.40625 
Q 44.1875 33.984375 37.640625 27.21875 
Q 31.109375 20.453125 19.1875 8.296875 
z
" id="DejaVuSans-50"/>
      </defs>
      <g transform="translate(177.627964 322.182437)scale(0.1 -0.1)">
       <use xlink:href="#DejaVuSans-8722"/>
       <use x="83.789062" xlink:href="#DejaVuSans-50"/>
       <use x="147.412109" xlink:href="#DejaVuSans-48"/>
      </g>
     </g>
    </g>
    <g id="xtick_4">
     <g id="line2d_4">
      <g>
       <use style="stroke:#000000;stroke-width:0.8;" x="238.123171" xlink:href="#mfde8391f02" y="307.584"/>
      </g>
     </g>
     <g id="text_4">
      <!-- 0 -->
      <g transform="translate(234.941921 322.182437)scale(0.1 -0.1)">
       <use xlink:href="#DejaVuSans-48"/>
      </g>
     </g>
    </g>
    <g id="xtick_5">
     <g id="line2d_5">
      <g>
       <use style="stroke:#000000;stroke-width:0.8;" x="288.066034" xlink:href="#mfde8391f02" y="307.584"/>
      </g>
     </g>
     <g id="text_5">
      <!-- 20 -->
      <g transform="translate(281.703534 322.182437)scale(0.1 -0.1)">
       <use xlink:href="#DejaVuSans-50"/>
       <use x="63.623047" xlink:href="#DejaVuSans-48"/>
      </g>
     </g>
    </g>
    <g id="xtick_6">
     <g id="line2d_6">
      <g>
       <use style="stroke:#000000;stroke-width:0.8;" x="338.008897" xlink:href="#mfde8391f02" y="307.584"/>
      </g>
     </g>
     <g id="text_6">
      <!-- 40 -->
      <g transform="translate(331.646397 322.182437)scale(0.1 -0.1)">
       <use xlink:href="#DejaVuSans-52"/>
       <use x="63.623047" xlink:href="#DejaVuSans-48"/>
      </g>
     </g>
    </g>
    <g id="xtick_7">
     <g id="line2d_7">
      <g>
       <use style="stroke:#000000;stroke-width:0.8;" x="387.95176" xlink:href="#mfde8391f02" y="307.584"/>
      </g>
     </g>
     <g id="text_7">
      <!-- 60 -->
      <g transform="translate(381.58926 322.182437)scale(0.1 -0.1)">
       <use xlink:href="#DejaVuSans-54"/>
       <use x="63.623047" xlink:href="#DejaVuSans-48"/>
      </g>
     </g>
    </g>
   </g>
   <g id="matplotlib.axis_2">
    <g id="ytick_1">
     <g id="line2d_8">
      <defs>
       <path d="M 0 0 
L -3.5 0 
" id="m4706020a7f" style="stroke:#000000;stroke-width:0.8;"/>
      </defs>
      <g>
       <use style="stroke:#000000;stroke-width:0.8;" x="57.6" xlink:href="#m4706020a7f" y="290.518908"/>
      </g>
     </g>
     <g id="text_8">
      <!-- −40 -->
      <g transform="translate(29.495313 294.318127)scale(0.1 -0.1)">
       <use xlink:href="#DejaVuSans-8722"/>
       <use x="83.789062" xlink:href="#DejaVuSans-52"/>
       <use x="147.412109" xlink:href="#DejaVuSans-48"/>
      </g>
     </g>
    </g>
    <g id="ytick_2">
     <g id="line2d_9">
      <g>
       <use style="stroke:#000000;stroke-width:0.8;" x="57.6" xlink:href="#m4706020a7f" y="240.576045"/>
      </g>
     </g>
     <g id="text_9">
      <!-- −20 -->
      <g transform="translate(29.495313 244.375264)scale(0.1 -0.1)">
       <use xlink:href="#DejaVuSans-8722"/>
       <use x="83.789062" xlink:href="#DejaVuSans-50"/>
       <use x="147.412109" xlink:href="#DejaVuSans-48"/>
      </g>
     </g>
    </g>
    <g id="ytick_3">
     <g id="line2d_10">
      <g>
       <use style="stroke:#000000;stroke-width:0.8;" x="57.6" xlink:href="#m4706020a7f" y="190.633182"/>
      </g>
     </g>
     <g id="text_10">
      <!-- 0 -->
      <g transform="translate(44.2375 194.432401)scale(0.1 -0.1)">
       <use xlink:href="#DejaVuSans-48"/>
      </g>
     </g>
    </g>
    <g id="ytick_4">
     <g id="line2d_11">
      <g>
       <use style="stroke:#000000;stroke-width:0.8;" x="57.6" xlink:href="#m4706020a7f" y="140.690319"/>
      </g>
     </g>
     <g id="text_11">
      <!-- 20 -->
      <g transform="translate(37.875 144.489538)scale(0.1 -0.1)">
       <use xlink:href="#DejaVuSans-50"/>
       <use x="63.623047" xlink:href="#DejaVuSans-48"/>
      </g>
     </g>
    </g>
    <g id="ytick_5">
     <g id="line2d_12">
      <g>
       <use style="stroke:#000000;stroke-width:0.8;" x="57.6" xlink:href="#m4706020a7f" y="90.747456"/>
      </g>
     </g>
     <g id="text_12">
      <!-- 40 -->
      <g transform="translate(37.875 94.546675)scale(0.1 -0.1)">
       <use xlink:href="#DejaVuSans-52"/>
       <use x="63.623047" xlink:href="#DejaVuSans-48"/>
      </g>
     </g>
    </g>
   </g>
   <g id="line2d_13">
    <path clip-path="url(#p6dd8140d58)" d="M 238.123171 190.633182 
L 238.123171 190.633182 
L 238.111692 190.404587 
L 238.098172 190.16937 
L 238.079387 189.925324 
L 238.051673 189.666014 
L 238.016451 189.381765 
L 237.973342 189.065136 
L 237.916515 188.718024 
L 237.850858 188.337857 
L 237.769742 187.931491 
L 237.669676 187.508312 
L 237.542425 187.073148 
L 237.390362 186.627415 
L 237.220076 186.166692 
L 237.032858 185.690759 
L 236.818434 185.20684 
L 236.574708 184.718097 
L 236.313129 184.22629 
L 236.026836 183.74535 
L 235.704041 183.265571 
L 235.367242 182.786946 
L 235.019812 182.309942 
L 234.645962 181.835677 
L 234.216526 181.378103 
L 233.724284 180.942511 
L 233.205395 180.521006 
L 232.659834 180.105516 
L 232.091254 179.689725 
L 231.472914 179.29422 
L 230.808752 178.927374 
L 230.093577 178.58588 
L 229.338624 178.276873 
L 228.541745 178.004453 
L 227.69228 177.764235 
L 226.800288 177.563649 
L 225.859514 177.392203 
L 224.889988 177.24614 
L 223.886067 177.144379 
L 222.835434 177.095445 
L 221.744424 177.079503 
L 220.620468 177.088635 
L 219.460957 177.121897 
L 218.269857 177.175374 
L 217.035766 177.264367 
L 215.766231 177.371532 
L 214.449313 177.488548 
L 213.094255 177.620002 
L 211.705369 177.765216 
L 210.273183 177.926819 
L 208.808184 178.08284 
L 207.298136 178.235264 
L 205.749533 178.392656 
L 204.16165 178.557795 
L 202.534786 178.728739 
L 200.882252 178.903194 
L 199.18342 179.071412 
L 197.442262 179.237964 
L 195.659801 179.409448 
L 193.840782 179.579498 
L 191.996367 179.747513 
L 190.117417 179.917981 
L 188.20945 180.087442 
L 186.249767 180.24025 
L 184.273578 180.394353 
L 182.276587 180.55481 
L 180.278973 180.716979 
L 178.267898 180.871925 
L 176.220316 181.021548 
L 174.14921 181.178801 
L 172.045367 181.352942 
L 169.93231 181.531715 
L 167.821425 181.719527 
L 165.711963 181.910916 
L 163.615387 182.096798 
L 161.525203 182.277626 
L 159.423557 182.462555 
L 157.329553 182.645268 
L 155.23008 182.833041 
L 153.154729 183.013747 
L 151.072661 183.190802 
L 148.984175 183.364945 
L 146.893917 183.533462 
L 144.795567 183.703435 
L 142.695445 183.873453 
L 140.611779 184.043584 
L 138.532932 184.209888 
L 136.460203 184.378323 
L 134.39584 184.549757 
L 132.331202 184.732253 
L 130.267988 184.914212 
L 128.210941 185.080327 
L 126.154194 185.237086 
L 124.100593 185.397624 
L 122.047592 185.568344 
L 119.989721 185.740974 
L 117.952327 185.912351 
L 115.930116 186.087645 
L 113.926433 186.286418 
L 111.936235 186.489508 
L 109.948035 186.699423 
L 107.965178 186.90307 
L 105.984594 187.095212 
L 104.02169 187.293306 
L 102.068824 187.489294 
L 100.123474 187.674812 
L 98.188064 187.859465 
L 96.258621 188.05454 
L 94.351153 188.244567 
L 92.463837 188.428047 
L 90.597972 188.610478 
L 88.768041 188.795364 
L 86.954665 188.979158 
L 85.18444 189.155004 
L 83.4493 189.325279 
L 81.751518 189.480207 
L 80.090193 189.612248 
L 78.467175 189.728479 
L 76.881464 189.833628 
L 75.334634 189.919104 
L 73.832727 189.977016 
" style="fill:none;stroke:#008000;stroke-linecap:square;stroke-width:1.5;"/>
   </g>
   <g id="line2d_14">
    <path clip-path="url(#p6dd8140d58)" d="M 238.123171 190.633182 
L 238.123171 190.633182 
L 238.099336 190.405522 
L 238.075339 190.171148 
L 238.054521 189.927258 
L 238.032411 189.667546 
L 238.023376 189.381413 
L 238.005988 189.062401 
L 237.997062 188.711247 
L 237.990399 188.325759 
L 237.993021 187.911445 
L 238.017214 187.477213 
L 238.066575 187.026246 
L 238.141198 186.560755 
L 238.204274 186.07321 
L 238.280005 185.567529 
L 238.398552 185.0517 
L 238.529655 184.521578 
L 238.678971 183.985218 
L 238.864138 183.457099 
L 239.075508 182.918867 
L 239.286186 182.373148 
L 239.509434 181.827311 
L 239.773435 181.284238 
L 240.100632 180.7488 
L 240.479465 180.211592 
L 240.882694 179.678445 
L 241.326398 179.155583 
L 241.788798 178.624304 
L 242.304883 178.102727 
L 242.879573 177.607358 
L 243.4844 177.09526 
L 244.144567 176.616536 
L 244.862485 176.17654 
L 245.634928 175.749442 
L 246.460905 175.357608 
L 247.33456 174.968789 
L 248.246607 174.60909 
L 249.205112 174.293766 
L 250.219876 174.017431 
L 251.279858 173.758478 
L 252.382173 173.537752 
L 253.521881 173.321496 
L 254.694916 173.108134 
L 255.919571 172.931283 
L 257.183051 172.767191 
L 258.493863 172.594935 
L 259.845871 172.434623 
L 261.232302 172.267204 
L 262.664697 172.107261 
L 264.128712 171.941111 
L 265.635672 171.759356 
L 267.179687 171.560677 
L 268.766681 171.386817 
L 270.392225 171.203079 
L 272.040721 170.99303 
L 273.737165 170.801072 
L 275.471846 170.57752 
L 277.250291 170.367263 
L 279.063134 170.139156 
L 280.901784 169.913866 
L 282.774507 169.684982 
L 284.678393 169.471458 
L 286.623687 169.187819 
L 288.584588 168.897025 
L 290.568935 168.618649 
L 292.555397 168.351091 
L 294.551935 168.063638 
L 296.585236 167.778778 
L 298.645866 167.516449 
L 300.73757 167.230252 
L 302.841557 166.964361 
L 304.944109 166.69629 
L 307.043273 166.411768 
L 309.128857 166.127232 
L 311.207005 165.837795 
L 313.300664 165.575095 
L 315.385174 165.303151 
L 317.47552 165.030713 
L 319.54017 164.753112 
L 321.613303 164.490172 
L 323.687755 164.192471 
L 325.764173 163.899142 
L 327.84989 163.613201 
L 329.930556 163.281107 
L 332.004027 163.013198 
L 334.068081 162.714472 
L 336.129542 162.438123 
L 338.183939 162.170524 
L 340.238414 161.896409 
L 342.292615 161.630205 
L 344.337417 161.35016 
L 346.378919 161.054343 
L 348.418554 160.766928 
L 350.456542 160.465536 
L 352.502027 160.180935 
L 354.52968 159.917903 
L 356.542199 159.652835 
L 358.541182 159.410181 
L 360.526446 159.162551 
L 362.51314 158.936647 
L 364.49536 158.726399 
L 366.470337 158.483028 
L 368.430594 158.259157 
L 370.379587 158.027864 
L 372.321695 157.810626 
L 374.252699 157.583973 
L 376.180128 157.368164 
L 378.08374 157.141298 
L 379.966455 156.916482 
L 381.829957 156.709477 
L 383.657095 156.499472 
L 385.466706 156.281314 
L 387.2341 156.078442 
L 388.964428 155.864617 
L 390.656302 155.654681 
L 392.304048 155.404907 
L 393.91264 155.159509 
L 395.483356 154.9179 
L 397.009701 154.652633 
L 398.487273 154.376743 
" style="fill:none;stroke:#0000ff;stroke-linecap:square;stroke-width:1.5;"/>
   </g>
   <g id="line2d_15">
    <path clip-path="url(#p6dd8140d58)" d="M 238.123171 190.633182 
L 238.123171 190.633182 
L 238.156634 190.411916 
L 238.134874 190.177254 
L 238.109627 189.933717 
L 238.078708 189.674787 
L 238.035785 189.391595 
L 237.987034 189.075794 
L 237.923015 188.729929 
L 237.852659 188.350658 
L 237.770909 187.944404 
L 237.661684 187.523435 
L 237.519953 187.092639 
L 237.355996 186.650945 
L 237.184479 186.190551 
L 237.000754 185.71324 
L 236.781022 185.231757 
L 236.540238 184.741587 
L 236.279554 184.249271 
L 235.990791 183.769804 
L 235.672684 183.286884 
L 235.347032 182.800494 
L 235.010219 182.315843 
L 234.640315 181.838601 
L 234.212282 181.379787 
L 233.728384 180.935349 
L 233.223647 180.497025 
L 232.682757 180.075531 
L 232.12237 179.6488 
L 231.5172 179.233431 
L 230.863185 178.848815 
L 230.167849 178.468566 
L 229.419084 178.145069 
L 228.634158 177.839805 
L 227.793153 177.571151 
L 226.907116 177.3455 
L 225.969965 177.155011 
L 225.003077 176.992346 
L 224.00008 176.881679 
L 222.949893 176.823715 
L 221.859037 176.794775 
L 220.734885 176.80286 
L 219.575093 176.827969 
L 218.383711 176.875335 
L 217.149176 176.959011 
L 215.879253 177.061499 
L 214.561511 177.168728 
L 215.401027 176.097251 
L 214.016371 176.278765 
L 212.588929 176.47808 
L 211.128919 176.676501 
L 209.623289 176.869244 
L 208.077717 177.055734 
L 206.495662 177.270107 
L 204.874606 177.4901 
L 203.224862 177.690565 
L 201.532928 177.919454 
L 199.796239 178.127866 
L 198.020059 178.357113 
L 196.20641 178.579187 
L 194.368353 178.809781 
L 192.495841 179.041729 
L 190.595448 179.284803 
L 188.64002 179.488122 
L 186.667526 179.686605 
L 184.675619 179.904963 
L 182.684376 180.134704 
L 180.678273 180.345872 
L 178.636464 180.562116 
L 176.573571 180.806179 
L 174.4756 181.042079 
L 172.36972 181.293074 
L 170.26491 181.54307 
L 168.159658 181.778996 
L 166.067202 182.008324 
L 163.981608 182.239098 
L 161.886832 182.493306 
L 159.798957 182.738493 
L 157.705318 182.985188 
L 155.635082 183.218481 
L 153.560385 183.469246 
L 151.476129 183.688886 
L 149.391191 183.914263 
L 148.282725 182.124511 
L 146.203124 182.465232 
L 144.149575 182.857803 
L 142.09594 183.221878 
L 140.052309 183.608838 
L 138.00842 183.947776 
L 135.97232 184.335754 
L 133.938544 184.728701 
L 131.909891 185.108409 
L 129.867189 185.396114 
L 127.841387 185.769121 
L 125.813518 186.132557 
L 123.762878 186.372441 
L 121.756483 186.766193 
L 119.764732 187.158045 
L 117.793582 187.569646 
L 115.834405 187.975026 
L 113.879013 188.39272 
L 111.933074 188.824959 
L 109.983731 189.224916 
L 108.054711 189.639208 
L 106.133561 190.04084 
L 104.223438 190.453764 
L 102.321132 190.855563 
L 100.426053 191.268157 
L 98.524966 191.512723 
L 98.024866 193.3383 
L 96.163906 193.566128 
L 94.328973 193.694073 
L 92.518076 193.900481 
L 90.751494 194.109708 
L 89.025505 194.356223 
L 87.330454 194.538217 
L 85.66992 194.679257 
L 84.561617 193.495643 
L 82.99116 193.736823 
L 81.456257 193.944605 
L 79.953289 193.962178 
" style="fill:none;stroke:#ff0000;stroke-linecap:square;stroke-width:1.5;"/>
   </g>
   <g id="patch_3">
    <path d="M 57.6 307.584 
L 57.6 41.472 
" style="fill:none;stroke:#000000;stroke-linecap:square;stroke-linejoin:miter;stroke-width:0.8;"/>
   </g>
   <g id="patch_4">
    <path d="M 414.72 307.584 
L 414.72 41.472 
" style="fill:none;stroke:#000000;stroke-linecap:square;stroke-linejoin:miter;stroke-width:0.8;"/>
   </g>
   <g id="patch_5">
    <path d="M 57.6 307.584 
L 414.72 307.584 
" style="fill:none;stroke:#000000;stroke-linecap:square;stroke-linejoin:miter;stroke-width:0.8;"/>
   </g>
   <g id="patch_6">
    <path d="M 57.6 41.472 
L 414.72 41.472 
" style="fill:none;stroke:#000000;stroke-linecap:square;stroke-linejoin:miter;stroke-width:0.8;"/>
   </g>
  </g>
 </g>
 <defs>
  <clipPath id="p6dd8140d58">
   <rect height="266.112" width="357.12" x="57.6" y="41.472"/>
  </clipPath>
 </defs>
</svg>
