<?xml version="1.0" encoding="utf-8" standalone="no"?>
<!DOCTYPE svg PUBLIC "-//W3C//DTD SVG 1.1//EN"
  "http://www.w3.org/Graphics/SVG/1.1/DTD/svg11.dtd">
<!-- Created with matplotlib (https://matplotlib.org/) -->
<svg height="345.6pt" version="1.1" viewBox="0 0 460.8 345.6" width="460.8pt" xmlns="http://www.w3.org/2000/svg" xmlns:xlink="http://www.w3.org/1999/xlink">
 <defs>
  <style type="text/css">
*{stroke-linecap:butt;stroke-linejoin:round;}
  </style>
 </defs>
 <g id="figure_1">
  <g id="patch_1">
   <path d="M 0 345.6 
L 460.8 345.6 
L 460.8 0 
L 0 0 
z
" style="fill:#ffffff;"/>
  </g>
  <g id="axes_1">
   <g id="patch_2">
    <path d="M 57.6 307.584 
L 414.72 307.584 
L 414.72 41.472 
L 57.6 41.472 
z
" style="fill:#ffffff;"/>
   </g>
   <g id="matplotlib.axis_1">
    <g id="xtick_1">
     <g id="line2d_1">
      <defs>
       <path d="M 0 0 
L 0 3.5 
" id="m7e51648a9d" style="stroke:#000000;stroke-width:0.8;"/>
      </defs>
      <g>
       <use style="stroke:#000000;stroke-width:0.8;" x="83.352528" xlink:href="#m7e51648a9d" y="307.584"/>
      </g>
     </g>
     <g id="text_1">
      <!-- −40 -->
      <defs>
       <path d="M 10.59375 35.5 
L 73.1875 35.5 
L 73.1875 27.203125 
L 10.59375 27.203125 
z
" id="DejaVuSans-8722"/>
       <path d="M 37.796875 64.3125 
L 12.890625 25.390625 
L 37.796875 25.390625 
z
M 35.203125 72.90625 
L 47.609375 72.90625 
L 47.609375 25.390625 
L 58.015625 25.390625 
L 58.015625 17.1875 
L 47.609375 17.1875 
L 47.609375 0 
L 37.796875 0 
L 37.796875 17.1875 
L 4.890625 17.1875 
L 4.890625 26.703125 
z
" id="DejaVuSans-52"/>
       <path d="M 31.78125 66.40625 
Q 24.171875 66.40625 20.328125 58.90625 
Q 16.5 51.421875 16.5 36.375 
Q 16.5 21.390625 20.328125 13.890625 
Q 24.171875 6.390625 31.78125 6.390625 
Q 39.453125 6.390625 43.28125 13.890625 
Q 47.125 21.390625 47.125 36.375 
Q 47.125 51.421875 43.28125 58.90625 
Q 39.453125 66.40625 31.78125 66.40625 
z
M 31.78125 74.21875 
Q 44.046875 74.21875 50.515625 64.515625 
Q 56.984375 54.828125 56.984375 36.375 
Q 56.984375 17.96875 50.515625 8.265625 
Q 44.046875 -1.421875 31.78125 -1.421875 
Q 19.53125 -1.421875 13.0625 8.265625 
Q 6.59375 17.96875 6.59375 36.375 
Q 6.59375 54.828125 13.0625 64.515625 
Q 19.53125 74.21875 31.78125 74.21875 
z
" id="DejaVuSans-48"/>
      </defs>
      <g transform="translate(72.800184 322.182437)scale(0.1 -0.1)">
       <use xlink:href="#DejaVuSans-8722"/>
       <use x="83.789062" xlink:href="#DejaVuSans-52"/>
       <use x="147.412109" xlink:href="#DejaVuSans-48"/>
      </g>
     </g>
    </g>
    <g id="xtick_2">
     <g id="line2d_2">
      <g>
       <use style="stroke:#000000;stroke-width:0.8;" x="143.011056" xlink:href="#m7e51648a9d" y="307.584"/>
      </g>
     </g>
     <g id="text_2">
      <!-- −20 -->
      <defs>
       <path d="M 19.1875 8.296875 
L 53.609375 8.296875 
L 53.609375 0 
L 7.328125 0 
L 7.328125 8.296875 
Q 12.9375 14.109375 22.625 23.890625 
Q 32.328125 33.6875 34.8125 36.53125 
Q 39.546875 41.84375 41.421875 45.53125 
Q 43.3125 49.21875 43.3125 52.78125 
Q 43.3125 58.59375 39.234375 62.25 
Q 35.15625 65.921875 28.609375 65.921875 
Q 23.96875 65.921875 18.8125 64.3125 
Q 13.671875 62.703125 7.8125 59.421875 
L 7.8125 69.390625 
Q 13.765625 71.78125 18.9375 73 
Q 24.125 74.21875 28.421875 74.21875 
Q 39.75 74.21875 46.484375 68.546875 
Q 53.21875 62.890625 53.21875 53.421875 
Q 53.21875 48.921875 51.53125 44.890625 
Q 49.859375 40.875 45.40625 35.40625 
Q 44.1875 33.984375 37.640625 27.21875 
Q 31.109375 20.453125 19.1875 8.296875 
z
" id="DejaVuSans-50"/>
      </defs>
      <g transform="translate(132.458712 322.182437)scale(0.1 -0.1)">
       <use xlink:href="#DejaVuSans-8722"/>
       <use x="83.789062" xlink:href="#DejaVuSans-50"/>
       <use x="147.412109" xlink:href="#DejaVuSans-48"/>
      </g>
     </g>
    </g>
    <g id="xtick_3">
     <g id="line2d_3">
      <g>
       <use style="stroke:#000000;stroke-width:0.8;" x="202.669583" xlink:href="#m7e51648a9d" y="307.584"/>
      </g>
     </g>
     <g id="text_3">
      <!-- 0 -->
      <g transform="translate(199.488333 322.182437)scale(0.1 -0.1)">
       <use xlink:href="#DejaVuSans-48"/>
      </g>
     </g>
    </g>
    <g id="xtick_4">
     <g id="line2d_4">
      <g>
       <use style="stroke:#000000;stroke-width:0.8;" x="262.328111" xlink:href="#m7e51648a9d" y="307.584"/>
      </g>
     </g>
     <g id="text_4">
      <!-- 20 -->
      <g transform="translate(255.965611 322.182437)scale(0.1 -0.1)">
       <use xlink:href="#DejaVuSans-50"/>
       <use x="63.623047" xlink:href="#DejaVuSans-48"/>
      </g>
     </g>
    </g>
    <g id="xtick_5">
     <g id="line2d_5">
      <g>
       <use style="stroke:#000000;stroke-width:0.8;" x="321.986639" xlink:href="#m7e51648a9d" y="307.584"/>
      </g>
     </g>
     <g id="text_5">
      <!-- 40 -->
      <g transform="translate(315.624139 322.182437)scale(0.1 -0.1)">
       <use xlink:href="#DejaVuSans-52"/>
       <use x="63.623047" xlink:href="#DejaVuSans-48"/>
      </g>
     </g>
    </g>
    <g id="xtick_6">
     <g id="line2d_6">
      <g>
       <use style="stroke:#000000;stroke-width:0.8;" x="381.645166" xlink:href="#m7e51648a9d" y="307.584"/>
      </g>
     </g>
     <g id="text_6">
      <!-- 60 -->
      <defs>
       <path d="M 33.015625 40.375 
Q 26.375 40.375 22.484375 35.828125 
Q 18.609375 31.296875 18.609375 23.390625 
Q 18.609375 15.53125 22.484375 10.953125 
Q 26.375 6.390625 33.015625 6.390625 
Q 39.65625 6.390625 43.53125 10.953125 
Q 47.40625 15.53125 47.40625 23.390625 
Q 47.40625 31.296875 43.53125 35.828125 
Q 39.65625 40.375 33.015625 40.375 
z
M 52.59375 71.296875 
L 52.59375 62.3125 
Q 48.875 64.0625 45.09375 64.984375 
Q 41.3125 65.921875 37.59375 65.921875 
Q 27.828125 65.921875 22.671875 59.328125 
Q 17.53125 52.734375 16.796875 39.40625 
Q 19.671875 43.65625 24.015625 45.921875 
Q 28.375 48.1875 33.59375 48.1875 
Q 44.578125 48.1875 50.953125 41.515625 
Q 57.328125 34.859375 57.328125 23.390625 
Q 57.328125 12.15625 50.6875 5.359375 
Q 44.046875 -1.421875 33.015625 -1.421875 
Q 20.359375 -1.421875 13.671875 8.265625 
Q 6.984375 17.96875 6.984375 36.375 
Q 6.984375 53.65625 15.1875 63.9375 
Q 23.390625 74.21875 37.203125 74.21875 
Q 40.921875 74.21875 44.703125 73.484375 
Q 48.484375 72.75 52.59375 71.296875 
z
" id="DejaVuSans-54"/>
      </defs>
      <g transform="translate(375.282666 322.182437)scale(0.1 -0.1)">
       <use xlink:href="#DejaVuSans-54"/>
       <use x="63.623047" xlink:href="#DejaVuSans-48"/>
      </g>
     </g>
    </g>
   </g>
   <g id="matplotlib.axis_2">
    <g id="ytick_1">
     <g id="line2d_7">
      <defs>
       <path d="M 0 0 
L -3.5 0 
" id="m71db425def" style="stroke:#000000;stroke-width:0.8;"/>
      </defs>
      <g>
       <use style="stroke:#000000;stroke-width:0.8;" x="57.6" xlink:href="#m71db425def" y="290.428294"/>
      </g>
     </g>
     <g id="text_7">
      <!-- −20 -->
      <g transform="translate(29.495313 294.227513)scale(0.1 -0.1)">
       <use xlink:href="#DejaVuSans-8722"/>
       <use x="83.789062" xlink:href="#DejaVuSans-50"/>
       <use x="147.412109" xlink:href="#DejaVuSans-48"/>
      </g>
     </g>
    </g>
    <g id="ytick_2">
     <g id="line2d_8">
      <g>
       <use style="stroke:#000000;stroke-width:0.8;" x="57.6" xlink:href="#m71db425def" y="260.59903"/>
      </g>
     </g>
     <g id="text_8">
      <!-- −10 -->
      <defs>
       <path d="M 12.40625 8.296875 
L 28.515625 8.296875 
L 28.515625 63.921875 
L 10.984375 60.40625 
L 10.984375 69.390625 
L 28.421875 72.90625 
L 38.28125 72.90625 
L 38.28125 8.296875 
L 54.390625 8.296875 
L 54.390625 0 
L 12.40625 0 
z
" id="DejaVuSans-49"/>
      </defs>
      <g transform="translate(29.495313 264.398249)scale(0.1 -0.1)">
       <use xlink:href="#DejaVuSans-8722"/>
       <use x="83.789062" xlink:href="#DejaVuSans-49"/>
       <use x="147.412109" xlink:href="#DejaVuSans-48"/>
      </g>
     </g>
    </g>
    <g id="ytick_3">
     <g id="line2d_9">
      <g>
       <use style="stroke:#000000;stroke-width:0.8;" x="57.6" xlink:href="#m71db425def" y="230.769766"/>
      </g>
     </g>
     <g id="text_9">
      <!-- 0 -->
      <g transform="translate(44.2375 234.568985)scale(0.1 -0.1)">
       <use xlink:href="#DejaVuSans-48"/>
      </g>
     </g>
    </g>
    <g id="ytick_4">
     <g id="line2d_10">
      <g>
       <use style="stroke:#000000;stroke-width:0.8;" x="57.6" xlink:href="#m71db425def" y="200.940503"/>
      </g>
     </g>
     <g id="text_10">
      <!-- 10 -->
      <g transform="translate(37.875 204.739721)scale(0.1 -0.1)">
       <use xlink:href="#DejaVuSans-49"/>
       <use x="63.623047" xlink:href="#DejaVuSans-48"/>
      </g>
     </g>
    </g>
    <g id="ytick_5">
     <g id="line2d_11">
      <g>
       <use style="stroke:#000000;stroke-width:0.8;" x="57.6" xlink:href="#m71db425def" y="171.111239"/>
      </g>
     </g>
     <g id="text_11">
      <!-- 20 -->
      <g transform="translate(37.875 174.910457)scale(0.1 -0.1)">
       <use xlink:href="#DejaVuSans-50"/>
       <use x="63.623047" xlink:href="#DejaVuSans-48"/>
      </g>
     </g>
    </g>
    <g id="ytick_6">
     <g id="line2d_12">
      <g>
       <use style="stroke:#000000;stroke-width:0.8;" x="57.6" xlink:href="#m71db425def" y="141.281975"/>
      </g>
     </g>
     <g id="text_12">
      <!-- 30 -->
      <defs>
       <path d="M 40.578125 39.3125 
Q 47.65625 37.796875 51.625 33 
Q 55.609375 28.21875 55.609375 21.1875 
Q 55.609375 10.40625 48.1875 4.484375 
Q 40.765625 -1.421875 27.09375 -1.421875 
Q 22.515625 -1.421875 17.65625 -0.515625 
Q 12.796875 0.390625 7.625 2.203125 
L 7.625 11.71875 
Q 11.71875 9.328125 16.59375 8.109375 
Q 21.484375 6.890625 26.8125 6.890625 
Q 36.078125 6.890625 40.9375 10.546875 
Q 45.796875 14.203125 45.796875 21.1875 
Q 45.796875 27.640625 41.28125 31.265625 
Q 36.765625 34.90625 28.71875 34.90625 
L 20.21875 34.90625 
L 20.21875 43.015625 
L 29.109375 43.015625 
Q 36.375 43.015625 40.234375 45.921875 
Q 44.09375 48.828125 44.09375 54.296875 
Q 44.09375 59.90625 40.109375 62.90625 
Q 36.140625 65.921875 28.71875 65.921875 
Q 24.65625 65.921875 20.015625 65.03125 
Q 15.375 64.15625 9.8125 62.3125 
L 9.8125 71.09375 
Q 15.4375 72.65625 20.34375 73.4375 
Q 25.25 74.21875 29.59375 74.21875 
Q 40.828125 74.21875 47.359375 69.109375 
Q 53.90625 64.015625 53.90625 55.328125 
Q 53.90625 49.265625 50.4375 45.09375 
Q 46.96875 40.921875 40.578125 39.3125 
z
" id="DejaVuSans-51"/>
      </defs>
      <g transform="translate(37.875 145.081194)scale(0.1 -0.1)">
       <use xlink:href="#DejaVuSans-51"/>
       <use x="63.623047" xlink:href="#DejaVuSans-48"/>
      </g>
     </g>
    </g>
    <g id="ytick_7">
     <g id="line2d_13">
      <g>
       <use style="stroke:#000000;stroke-width:0.8;" x="57.6" xlink:href="#m71db425def" y="111.452711"/>
      </g>
     </g>
     <g id="text_13">
      <!-- 40 -->
      <g transform="translate(37.875 115.25193)scale(0.1 -0.1)">
       <use xlink:href="#DejaVuSans-52"/>
       <use x="63.623047" xlink:href="#DejaVuSans-48"/>
      </g>
     </g>
    </g>
    <g id="ytick_8">
     <g id="line2d_14">
      <g>
       <use style="stroke:#000000;stroke-width:0.8;" x="57.6" xlink:href="#m71db425def" y="81.623447"/>
      </g>
     </g>
     <g id="text_14">
      <!-- 50 -->
      <defs>
       <path d="M 10.796875 72.90625 
L 49.515625 72.90625 
L 49.515625 64.59375 
L 19.828125 64.59375 
L 19.828125 46.734375 
Q 21.96875 47.46875 24.109375 47.828125 
Q 26.265625 48.1875 28.421875 48.1875 
Q 40.625 48.1875 47.75 41.5 
Q 54.890625 34.8125 54.890625 23.390625 
Q 54.890625 11.625 47.5625 5.09375 
Q 40.234375 -1.421875 26.90625 -1.421875 
Q 22.3125 -1.421875 17.546875 -0.640625 
Q 12.796875 0.140625 7.71875 1.703125 
L 7.71875 11.625 
Q 12.109375 9.234375 16.796875 8.0625 
Q 21.484375 6.890625 26.703125 6.890625 
Q 35.15625 6.890625 40.078125 11.328125 
Q 45.015625 15.765625 45.015625 23.390625 
Q 45.015625 31 40.078125 35.4375 
Q 35.15625 39.890625 26.703125 39.890625 
Q 22.75 39.890625 18.8125 39.015625 
Q 14.890625 38.140625 10.796875 36.28125 
z
" id="DejaVuSans-53"/>
      </defs>
      <g transform="translate(37.875 85.422666)scale(0.1 -0.1)">
       <use xlink:href="#DejaVuSans-53"/>
       <use x="63.623047" xlink:href="#DejaVuSans-48"/>
      </g>
     </g>
    </g>
    <g id="ytick_9">
     <g id="line2d_15">
      <g>
       <use style="stroke:#000000;stroke-width:0.8;" x="57.6" xlink:href="#m71db425def" y="51.794183"/>
      </g>
     </g>
     <g id="text_15">
      <!-- 60 -->
      <g transform="translate(37.875 55.593402)scale(0.1 -0.1)">
       <use xlink:href="#DejaVuSans-54"/>
       <use x="63.623047" xlink:href="#DejaVuSans-48"/>
      </g>
     </g>
    </g>
   </g>
   <g id="line2d_16">
    <path clip-path="url(#p79d195c9d2)" d="M 202.669583 230.769766 
L 202.669583 230.769766 
L 202.655872 230.496701 
L 202.639721 230.215726 
L 202.617282 229.924205 
L 202.584176 229.614449 
L 202.542102 229.274904 
L 202.490607 228.89668 
L 202.422726 228.482042 
L 202.344296 228.027919 
L 202.247399 227.5425 
L 202.127867 227.036998 
L 201.975861 226.517178 
L 201.794217 225.984735 
L 201.590804 225.434385 
L 201.367165 224.865866 
L 201.111028 224.287808 
L 200.819889 223.703986 
L 200.507423 223.116505 
L 200.165436 222.542005 
L 199.779846 221.968893 
L 199.377527 221.397158 
L 198.96251 220.82736 
L 198.515933 220.260833 
L 198.002956 219.714245 
L 197.414956 219.193915 
L 196.795124 218.690412 
L 196.143433 218.194095 
L 195.464244 217.697417 
L 194.725615 217.224972 
L 193.932249 216.786762 
L 193.077948 216.378835 
L 192.176129 216.009716 
L 191.224229 215.684299 
L 190.209512 215.397351 
L 189.143996 215.157744 
L 188.020208 214.952945 
L 186.862075 214.778468 
L 185.662855 214.656911 
L 184.407837 214.598457 
L 183.104587 214.579414 
L 181.761981 214.590323 
L 180.376904 214.630056 
L 178.954093 214.693935 
L 177.479927 214.80024 
L 175.963423 214.928253 
L 174.390317 215.068033 
L 172.771653 215.22506 
L 171.112579 215.398523 
L 169.401781 215.591563 
L 167.651788 215.777936 
L 165.847982 215.960011 
L 163.99812 216.148022 
L 162.101337 216.345286 
L 160.15799 216.549485 
L 158.183979 216.757878 
L 156.154665 216.95882 
L 154.074789 217.157772 
L 151.945576 217.362616 
L 149.772694 217.565747 
L 147.569474 217.766448 
L 145.325001 217.970077 
L 143.045866 218.172504 
L 140.704955 218.355039 
L 138.344327 218.539121 
L 135.958851 218.730792 
L 133.572629 218.924509 
L 131.170329 219.109597 
L 128.724419 219.288328 
L 126.25041 219.476171 
L 123.737294 219.684189 
L 121.213172 219.897739 
L 118.691645 220.122088 
L 116.171818 220.350709 
L 113.667382 220.572752 
L 111.170584 220.788757 
L 108.660093 221.009661 
L 106.15873 221.227919 
L 103.650835 221.45222 
L 101.171755 221.668079 
L 98.68465 221.879578 
L 96.18988 222.087598 
L 93.692991 222.288898 
L 91.186438 222.491937 
L 88.677768 222.695029 
L 86.188754 222.898256 
L 83.705498 223.096913 
L 81.229549 223.298114 
L 78.763594 223.502898 
L 76.297311 223.720897 
L 73.832727 223.938253 
" style="fill:none;stroke:#008000;stroke-linecap:square;stroke-width:1.5;"/>
   </g>
   <g id="line2d_17">
    <path clip-path="url(#p79d195c9d2)" d="M 202.669583 230.769766 
L 202.669583 230.769766 
L 202.359021 227.803481 
L 202.055304 224.837079 
L 201.801676 221.865818 
L 201.548781 218.895184 
L 201.454688 215.915315 
L 201.292381 212.937455 
L 201.216679 209.959507 
L 201.16517 206.979071 
L 201.184039 203.996787 
L 201.349952 201.018906 
L 201.674488 198.053879 
L 202.146657 195.108567 
L 202.529377 192.150298 
L 202.971002 189.201424 
L 203.639041 186.294616 
L 204.355019 183.399525 
L 205.154551 180.527523 
L 206.141331 177.713101 
L 207.231583 174.936886 
L 208.305202 172.155891 
L 209.433524 169.397163 
L 210.737545 166.714681 
L 212.292785 164.169624 
L 214.011785 161.731978 
L 215.810928 159.353164 
L 217.740889 157.078891 
L 219.699043 154.829049 
L 221.796353 152.709424 
L 224.055699 150.76192 
L 226.332143 148.834486 
L 228.746094 147.083998 
L 231.288808 145.525624 
L 233.898503 144.082676 
L 236.593061 142.804409 
L 239.318156 141.591609 
L 242.092869 140.4973 
L 244.926195 139.565206 
L 247.803769 138.781603 
L 250.700751 138.073871 
L 253.625116 137.4883 
L 256.555204 136.932325 
L 259.489634 136.398585 
L 262.441741 135.972274 
L 265.399361 135.58816 
L 268.356057 135.199615 
L 271.317966 134.848413 
L 274.279379 134.490805 
L 277.243875 134.159786 
L 280.207677 133.823426 
L 283.168809 133.466283 
L 286.127157 133.085612 
L 289.09225 132.760778 
L 292.056199 132.425758 
L 295.014927 132.04876 
L 297.978408 131.713434 
L 300.935848 131.332302 
L 303.897745 130.98213 
L 306.857131 130.609756 
L 309.817531 130.247018 
L 312.777237 129.885283 
L 315.741127 129.552878 
L 318.692235 129.122583 
L 321.642395 128.685085 
L 324.596155 128.270714 
L 327.552156 127.87257 
L 330.504413 127.447516 
L 333.458163 127.033704 
L 336.417163 126.657007 
L 339.372552 126.252637 
L 342.331715 125.878674 
L 345.290554 125.501426 
L 348.246215 125.100815 
L 351.201264 124.697657 
L 354.15517 124.286248 
L 357.114517 123.914928 
L 360.072186 123.529071 
L 363.029811 123.143599 
L 365.985591 122.746182 
L 368.944592 122.370885 
L 371.896957 121.947197 
L 374.850417 121.529971 
L 377.805365 121.124862 
L 380.750416 120.654805 
L 383.70824 120.272631 
L 386.659738 119.845467 
L 389.615686 119.449207 
L 392.573367 119.063949 
L 395.529484 118.669534 
L 398.487273 118.286234 
" style="fill:none;stroke:#0000ff;stroke-linecap:square;stroke-width:1.5;"/>
   </g>
   <g id="line2d_18">
    <path clip-path="url(#p79d195c9d2)" d="M 202.669583 230.769766 
L 202.669583 230.769766 
L 202.641122 230.497816 
L 202.612484 230.217846 
L 202.587638 229.926509 
L 202.561245 229.616272 
L 202.550471 229.274475 
L 202.530024 228.893378 
L 202.519286 228.473936 
L 202.511589 228.013429 
L 202.515329 227.518513 
L 202.544163 226.999777 
L 202.60348 226.461097 
L 202.692372 225.90502 
L 202.765559 225.322356 
L 202.855232 224.718165 
L 202.995744 224.101726 
L 203.15169 223.468297 
L 203.329261 222.827356 
L 203.549425 222.196126 
L 203.799398 221.552195 
L 204.051786 220.900571 
L 204.319445 220.248956 
L 204.635317 219.600472 
L 205.027703 218.961795 
L 205.477741 218.318317 
L 205.95729 217.679859 
L 206.484705 217.053111 
L 207.035894 216.417476 
L 207.651574 215.793627 
L 208.336734 215.200372 
L 209.058648 214.588005 
L 209.846675 214.015316 
L 210.703456 213.488433 
L 211.625636 212.977262 
L 212.611622 212.507789 
L 213.655076 212.042962 
L 214.744486 211.613119 
L 215.889599 211.236904 
L 217.10189 210.90715 
L 218.368141 210.598023 
L 219.685052 210.335258 
L 221.046503 210.077037 
L 222.447881 209.822876 
L 223.910886 209.612202 
L 225.420261 209.416922 
L 226.986246 209.212048 
L 228.601427 209.021689 
L 230.257718 208.822953 
L 231.968915 208.6333 
L 233.717913 208.436275 
L 235.518235 208.220674 
L 237.36284 207.984899 
L 239.258765 207.778934 
L 241.200744 207.561155 
L 243.170182 207.311974 
L 245.196884 207.084392 
L 247.269298 206.818999 
L 249.393952 206.569515 
L 251.559697 206.298711 
L 253.756274 206.031252 
L 255.993585 205.75951 
L 258.268072 205.506081 
L 260.592082 205.16885 
L 262.934745 204.823145 
L 265.305418 204.492445 
L 267.678569 204.174472 
L 270.063768 203.832686 
L 272.492885 203.494017 
L 274.954597 203.182234 
L 277.453417 202.841863 
L 279.966919 202.525672 
L 282.478701 202.206886 
L 284.986461 201.868491 
L 287.478027 201.530148 
L 289.960715 201.18594 
L 292.461896 200.873627 
L 294.95214 200.550252 
L 297.449371 200.226348 
L 299.91594 199.89636 
L 302.392618 199.583957 
L 304.870924 199.230147 
L 307.351582 198.881708 
L 309.843359 198.542114 
L 312.32919 198.147557 
L 314.806356 197.829687 
L 317.272306 197.474929 
L 319.735143 197.147015 
L 322.189518 196.829578 
L 324.644018 196.504392 
L 327.098169 196.18864 
" style="fill:none;stroke:#ff0000;stroke-linecap:square;stroke-width:1.5;"/>
   </g>
   <g id="patch_3">
    <path d="M 57.6 307.584 
L 57.6 41.472 
" style="fill:none;stroke:#000000;stroke-linecap:square;stroke-linejoin:miter;stroke-width:0.8;"/>
   </g>
   <g id="patch_4">
    <path d="M 414.72 307.584 
L 414.72 41.472 
" style="fill:none;stroke:#000000;stroke-linecap:square;stroke-linejoin:miter;stroke-width:0.8;"/>
   </g>
   <g id="patch_5">
    <path d="M 57.6 307.584 
L 414.72 307.584 
" style="fill:none;stroke:#000000;stroke-linecap:square;stroke-linejoin:miter;stroke-width:0.8;"/>
   </g>
   <g id="patch_6">
    <path d="M 57.6 41.472 
L 414.72 41.472 
" style="fill:none;stroke:#000000;stroke-linecap:square;stroke-linejoin:miter;stroke-width:0.8;"/>
   </g>
  </g>
 </g>
 <defs>
  <clipPath id="p79d195c9d2">
   <rect height="266.112" width="357.12" x="57.6" y="41.472"/>
  </clipPath>
 </defs>
</svg>
