<?xml version="1.0" encoding="utf-8" standalone="no"?>
<!DOCTYPE svg PUBLIC "-//W3C//DTD SVG 1.1//EN"
  "http://www.w3.org/Graphics/SVG/1.1/DTD/svg11.dtd">
<!-- Created with matplotlib (https://matplotlib.org/) -->
<svg height="345.6pt" version="1.1" viewBox="0 0 460.8 345.6" width="460.8pt" xmlns="http://www.w3.org/2000/svg" xmlns:xlink="http://www.w3.org/1999/xlink">
 <defs>
  <style type="text/css">
*{stroke-linecap:butt;stroke-linejoin:round;}
  </style>
 </defs>
 <g id="figure_1">
  <g id="patch_1">
   <path d="M 0 345.6 
L 460.8 345.6 
L 460.8 0 
L 0 0 
z
" style="fill:#ffffff;"/>
  </g>
  <g id="axes_1">
   <g id="patch_2">
    <path d="M 57.6 307.584 
L 414.72 307.584 
L 414.72 41.472 
L 57.6 41.472 
z
" style="fill:#ffffff;"/>
   </g>
   <g id="matplotlib.axis_1">
    <g id="xtick_1">
     <g id="line2d_1">
      <defs>
       <path d="M 0 0 
L 0 3.5 
" id="mb175c466e6" style="stroke:#000000;stroke-width:0.8;"/>
      </defs>
      <g>
       <use style="stroke:#000000;stroke-width:0.8;" x="75.930077" xlink:href="#mb175c466e6" y="307.584"/>
      </g>
     </g>
     <g id="text_1">
      <!-- −160 -->
      <defs>
       <path d="M 10.59375 35.5 
L 73.1875 35.5 
L 73.1875 27.203125 
L 10.59375 27.203125 
z
" id="DejaVuSans-8722"/>
       <path d="M 12.40625 8.296875 
L 28.515625 8.296875 
L 28.515625 63.921875 
L 10.984375 60.40625 
L 10.984375 69.390625 
L 28.421875 72.90625 
L 38.28125 72.90625 
L 38.28125 8.296875 
L 54.390625 8.296875 
L 54.390625 0 
L 12.40625 0 
z
" id="DejaVuSans-49"/>
       <path d="M 33.015625 40.375 
Q 26.375 40.375 22.484375 35.828125 
Q 18.609375 31.296875 18.609375 23.390625 
Q 18.609375 15.53125 22.484375 10.953125 
Q 26.375 6.390625 33.015625 6.390625 
Q 39.65625 6.390625 43.53125 10.953125 
Q 47.40625 15.53125 47.40625 23.390625 
Q 47.40625 31.296875 43.53125 35.828125 
Q 39.65625 40.375 33.015625 40.375 
z
M 52.59375 71.296875 
L 52.59375 62.3125 
Q 48.875 64.0625 45.09375 64.984375 
Q 41.3125 65.921875 37.59375 65.921875 
Q 27.828125 65.921875 22.671875 59.328125 
Q 17.53125 52.734375 16.796875 39.40625 
Q 19.671875 43.65625 24.015625 45.921875 
Q 28.375 48.1875 33.59375 48.1875 
Q 44.578125 48.1875 50.953125 41.515625 
Q 57.328125 34.859375 57.328125 23.390625 
Q 57.328125 12.15625 50.6875 5.359375 
Q 44.046875 -1.421875 33.015625 -1.421875 
Q 20.359375 -1.421875 13.671875 8.265625 
Q 6.984375 17.96875 6.984375 36.375 
Q 6.984375 53.65625 15.1875 63.9375 
Q 23.390625 74.21875 37.203125 74.21875 
Q 40.921875 74.21875 44.703125 73.484375 
Q 48.484375 72.75 52.59375 71.296875 
z
" id="DejaVuSans-54"/>
       <path d="M 31.78125 66.40625 
Q 24.171875 66.40625 20.328125 58.90625 
Q 16.5 51.421875 16.5 36.375 
Q 16.5 21.390625 20.328125 13.890625 
Q 24.171875 6.390625 31.78125 6.390625 
Q 39.453125 6.390625 43.28125 13.890625 
Q 47.125 21.390625 47.125 36.375 
Q 47.125 51.421875 43.28125 58.90625 
Q 39.453125 66.40625 31.78125 66.40625 
z
M 31.78125 74.21875 
Q 44.046875 74.21875 50.515625 64.515625 
Q 56.984375 54.828125 56.984375 36.375 
Q 56.984375 17.96875 50.515625 8.265625 
Q 44.046875 -1.421875 31.78125 -1.421875 
Q 19.53125 -1.421875 13.0625 8.265625 
Q 6.59375 17.96875 6.59375 36.375 
Q 6.59375 54.828125 13.0625 64.515625 
Q 19.53125 74.21875 31.78125 74.21875 
z
" id="DejaVuSans-48"/>
      </defs>
      <g transform="translate(62.196483 322.182437)scale(0.1 -0.1)">
       <use xlink:href="#DejaVuSans-8722"/>
       <use x="83.789062" xlink:href="#DejaVuSans-49"/>
       <use x="147.412109" xlink:href="#DejaVuSans-54"/>
       <use x="211.035156" xlink:href="#DejaVuSans-48"/>
      </g>
     </g>
    </g>
    <g id="xtick_2">
     <g id="line2d_2">
      <g>
       <use style="stroke:#000000;stroke-width:0.8;" x="116.249726" xlink:href="#mb175c466e6" y="307.584"/>
      </g>
     </g>
     <g id="text_2">
      <!-- −140 -->
      <defs>
       <path d="M 37.796875 64.3125 
L 12.890625 25.390625 
L 37.796875 25.390625 
z
M 35.203125 72.90625 
L 47.609375 72.90625 
L 47.609375 25.390625 
L 58.015625 25.390625 
L 58.015625 17.1875 
L 47.609375 17.1875 
L 47.609375 0 
L 37.796875 0 
L 37.796875 17.1875 
L 4.890625 17.1875 
L 4.890625 26.703125 
z
" id="DejaVuSans-52"/>
      </defs>
      <g transform="translate(102.516133 322.182437)scale(0.1 -0.1)">
       <use xlink:href="#DejaVuSans-8722"/>
       <use x="83.789062" xlink:href="#DejaVuSans-49"/>
       <use x="147.412109" xlink:href="#DejaVuSans-52"/>
       <use x="211.035156" xlink:href="#DejaVuSans-48"/>
      </g>
     </g>
    </g>
    <g id="xtick_3">
     <g id="line2d_3">
      <g>
       <use style="stroke:#000000;stroke-width:0.8;" x="156.569376" xlink:href="#mb175c466e6" y="307.584"/>
      </g>
     </g>
     <g id="text_3">
      <!-- −120 -->
      <defs>
       <path d="M 19.1875 8.296875 
L 53.609375 8.296875 
L 53.609375 0 
L 7.328125 0 
L 7.328125 8.296875 
Q 12.9375 14.109375 22.625 23.890625 
Q 32.328125 33.6875 34.8125 36.53125 
Q 39.546875 41.84375 41.421875 45.53125 
Q 43.3125 49.21875 43.3125 52.78125 
Q 43.3125 58.59375 39.234375 62.25 
Q 35.15625 65.921875 28.609375 65.921875 
Q 23.96875 65.921875 18.8125 64.3125 
Q 13.671875 62.703125 7.8125 59.421875 
L 7.8125 69.390625 
Q 13.765625 71.78125 18.9375 73 
Q 24.125 74.21875 28.421875 74.21875 
Q 39.75 74.21875 46.484375 68.546875 
Q 53.21875 62.890625 53.21875 53.421875 
Q 53.21875 48.921875 51.53125 44.890625 
Q 49.859375 40.875 45.40625 35.40625 
Q 44.1875 33.984375 37.640625 27.21875 
Q 31.109375 20.453125 19.1875 8.296875 
z
" id="DejaVuSans-50"/>
      </defs>
      <g transform="translate(142.835782 322.182437)scale(0.1 -0.1)">
       <use xlink:href="#DejaVuSans-8722"/>
       <use x="83.789062" xlink:href="#DejaVuSans-49"/>
       <use x="147.412109" xlink:href="#DejaVuSans-50"/>
       <use x="211.035156" xlink:href="#DejaVuSans-48"/>
      </g>
     </g>
    </g>
    <g id="xtick_4">
     <g id="line2d_4">
      <g>
       <use style="stroke:#000000;stroke-width:0.8;" x="196.889025" xlink:href="#mb175c466e6" y="307.584"/>
      </g>
     </g>
     <g id="text_4">
      <!-- −100 -->
      <g transform="translate(183.155432 322.182437)scale(0.1 -0.1)">
       <use xlink:href="#DejaVuSans-8722"/>
       <use x="83.789062" xlink:href="#DejaVuSans-49"/>
       <use x="147.412109" xlink:href="#DejaVuSans-48"/>
       <use x="211.035156" xlink:href="#DejaVuSans-48"/>
      </g>
     </g>
    </g>
    <g id="xtick_5">
     <g id="line2d_5">
      <g>
       <use style="stroke:#000000;stroke-width:0.8;" x="237.208675" xlink:href="#mb175c466e6" y="307.584"/>
      </g>
     </g>
     <g id="text_5">
      <!-- −80 -->
      <defs>
       <path d="M 31.78125 34.625 
Q 24.75 34.625 20.71875 30.859375 
Q 16.703125 27.09375 16.703125 20.515625 
Q 16.703125 13.921875 20.71875 10.15625 
Q 24.75 6.390625 31.78125 6.390625 
Q 38.8125 6.390625 42.859375 10.171875 
Q 46.921875 13.96875 46.921875 20.515625 
Q 46.921875 27.09375 42.890625 30.859375 
Q 38.875 34.625 31.78125 34.625 
z
M 21.921875 38.8125 
Q 15.578125 40.375 12.03125 44.71875 
Q 8.5 49.078125 8.5 55.328125 
Q 8.5 64.0625 14.71875 69.140625 
Q 20.953125 74.21875 31.78125 74.21875 
Q 42.671875 74.21875 48.875 69.140625 
Q 55.078125 64.0625 55.078125 55.328125 
Q 55.078125 49.078125 51.53125 44.71875 
Q 48 40.375 41.703125 38.8125 
Q 48.828125 37.15625 52.796875 32.3125 
Q 56.78125 27.484375 56.78125 20.515625 
Q 56.78125 9.90625 50.3125 4.234375 
Q 43.84375 -1.421875 31.78125 -1.421875 
Q 19.734375 -1.421875 13.25 4.234375 
Q 6.78125 9.90625 6.78125 20.515625 
Q 6.78125 27.484375 10.78125 32.3125 
Q 14.796875 37.15625 21.921875 38.8125 
z
M 18.3125 54.390625 
Q 18.3125 48.734375 21.84375 45.5625 
Q 25.390625 42.390625 31.78125 42.390625 
Q 38.140625 42.390625 41.71875 45.5625 
Q 45.3125 48.734375 45.3125 54.390625 
Q 45.3125 60.0625 41.71875 63.234375 
Q 38.140625 66.40625 31.78125 66.40625 
Q 25.390625 66.40625 21.84375 63.234375 
Q 18.3125 60.0625 18.3125 54.390625 
z
" id="DejaVuSans-56"/>
      </defs>
      <g transform="translate(226.656331 322.182437)scale(0.1 -0.1)">
       <use xlink:href="#DejaVuSans-8722"/>
       <use x="83.789062" xlink:href="#DejaVuSans-56"/>
       <use x="147.412109" xlink:href="#DejaVuSans-48"/>
      </g>
     </g>
    </g>
    <g id="xtick_6">
     <g id="line2d_6">
      <g>
       <use style="stroke:#000000;stroke-width:0.8;" x="277.528324" xlink:href="#mb175c466e6" y="307.584"/>
      </g>
     </g>
     <g id="text_6">
      <!-- −60 -->
      <g transform="translate(266.975981 322.182437)scale(0.1 -0.1)">
       <use xlink:href="#DejaVuSans-8722"/>
       <use x="83.789062" xlink:href="#DejaVuSans-54"/>
       <use x="147.412109" xlink:href="#DejaVuSans-48"/>
      </g>
     </g>
    </g>
    <g id="xtick_7">
     <g id="line2d_7">
      <g>
       <use style="stroke:#000000;stroke-width:0.8;" x="317.847974" xlink:href="#mb175c466e6" y="307.584"/>
      </g>
     </g>
     <g id="text_7">
      <!-- −40 -->
      <g transform="translate(307.29563 322.182437)scale(0.1 -0.1)">
       <use xlink:href="#DejaVuSans-8722"/>
       <use x="83.789062" xlink:href="#DejaVuSans-52"/>
       <use x="147.412109" xlink:href="#DejaVuSans-48"/>
      </g>
     </g>
    </g>
    <g id="xtick_8">
     <g id="line2d_8">
      <g>
       <use style="stroke:#000000;stroke-width:0.8;" x="358.167623" xlink:href="#mb175c466e6" y="307.584"/>
      </g>
     </g>
     <g id="text_8">
      <!-- −20 -->
      <g transform="translate(347.615279 322.182437)scale(0.1 -0.1)">
       <use xlink:href="#DejaVuSans-8722"/>
       <use x="83.789062" xlink:href="#DejaVuSans-50"/>
       <use x="147.412109" xlink:href="#DejaVuSans-48"/>
      </g>
     </g>
    </g>
    <g id="xtick_9">
     <g id="line2d_9">
      <g>
       <use style="stroke:#000000;stroke-width:0.8;" x="398.487273" xlink:href="#mb175c466e6" y="307.584"/>
      </g>
     </g>
     <g id="text_9">
      <!-- 0 -->
      <g transform="translate(395.306023 322.182437)scale(0.1 -0.1)">
       <use xlink:href="#DejaVuSans-48"/>
      </g>
     </g>
    </g>
   </g>
   <g id="matplotlib.axis_2">
    <g id="ytick_1">
     <g id="line2d_10">
      <defs>
       <path d="M 0 0 
L -3.5 0 
" id="m8b605bc765" style="stroke:#000000;stroke-width:0.8;"/>
      </defs>
      <g>
       <use style="stroke:#000000;stroke-width:0.8;" x="57.6" xlink:href="#m8b605bc765" y="297.621948"/>
      </g>
     </g>
     <g id="text_10">
      <!-- 0 -->
      <g transform="translate(44.2375 301.421166)scale(0.1 -0.1)">
       <use xlink:href="#DejaVuSans-48"/>
      </g>
     </g>
    </g>
    <g id="ytick_2">
     <g id="line2d_11">
      <g>
       <use style="stroke:#000000;stroke-width:0.8;" x="57.6" xlink:href="#m8b605bc765" y="257.302298"/>
      </g>
     </g>
     <g id="text_11">
      <!-- 20 -->
      <g transform="translate(37.875 261.101517)scale(0.1 -0.1)">
       <use xlink:href="#DejaVuSans-50"/>
       <use x="63.623047" xlink:href="#DejaVuSans-48"/>
      </g>
     </g>
    </g>
    <g id="ytick_3">
     <g id="line2d_12">
      <g>
       <use style="stroke:#000000;stroke-width:0.8;" x="57.6" xlink:href="#m8b605bc765" y="216.982649"/>
      </g>
     </g>
     <g id="text_12">
      <!-- 40 -->
      <g transform="translate(37.875 220.781867)scale(0.1 -0.1)">
       <use xlink:href="#DejaVuSans-52"/>
       <use x="63.623047" xlink:href="#DejaVuSans-48"/>
      </g>
     </g>
    </g>
    <g id="ytick_4">
     <g id="line2d_13">
      <g>
       <use style="stroke:#000000;stroke-width:0.8;" x="57.6" xlink:href="#m8b605bc765" y="176.662999"/>
      </g>
     </g>
     <g id="text_13">
      <!-- 60 -->
      <g transform="translate(37.875 180.462218)scale(0.1 -0.1)">
       <use xlink:href="#DejaVuSans-54"/>
       <use x="63.623047" xlink:href="#DejaVuSans-48"/>
      </g>
     </g>
    </g>
    <g id="ytick_5">
     <g id="line2d_14">
      <g>
       <use style="stroke:#000000;stroke-width:0.8;" x="57.6" xlink:href="#m8b605bc765" y="136.34335"/>
      </g>
     </g>
     <g id="text_14">
      <!-- 80 -->
      <g transform="translate(37.875 140.142568)scale(0.1 -0.1)">
       <use xlink:href="#DejaVuSans-56"/>
       <use x="63.623047" xlink:href="#DejaVuSans-48"/>
      </g>
     </g>
    </g>
    <g id="ytick_6">
     <g id="line2d_15">
      <g>
       <use style="stroke:#000000;stroke-width:0.8;" x="57.6" xlink:href="#m8b605bc765" y="96.0237"/>
      </g>
     </g>
     <g id="text_15">
      <!-- 100 -->
      <g transform="translate(31.5125 99.822919)scale(0.1 -0.1)">
       <use xlink:href="#DejaVuSans-49"/>
       <use x="63.623047" xlink:href="#DejaVuSans-48"/>
       <use x="127.246094" xlink:href="#DejaVuSans-48"/>
      </g>
     </g>
    </g>
    <g id="ytick_7">
     <g id="line2d_16">
      <g>
       <use style="stroke:#000000;stroke-width:0.8;" x="57.6" xlink:href="#m8b605bc765" y="55.704051"/>
      </g>
     </g>
     <g id="text_16">
      <!-- 120 -->
      <g transform="translate(31.5125 59.503269)scale(0.1 -0.1)">
       <use xlink:href="#DejaVuSans-49"/>
       <use x="63.623047" xlink:href="#DejaVuSans-50"/>
       <use x="127.246094" xlink:href="#DejaVuSans-48"/>
      </g>
     </g>
    </g>
   </g>
   <g id="line2d_17">
    <path clip-path="url(#p547b984f7d)" d="M 398.487273 297.621948 
L 398.320436 296.075811 
L 398.018427 294.747876 
L 397.433938 293.241177 
L 396.534271 291.673961 
L 395.333377 290.150178 
L 394.076636 289.122799 
L 393.118417 288.467827 
L 392.004857 287.895973 
L 390.752039 287.426578 
L 389.346133 287.070711 
L 386.993437 286.732227 
L 384.357068 286.687224 
L 381.463083 286.829095 
L 374.820828 287.489862 
L 356.609067 289.231572 
L 334.951851 291.025673 
L 308.092977 293.265595 
L 298.221316 294.112737 
L 270.904794 296.797732 
L 265.853044 297.092214 
L 262.455368 297.028906 
L 260.428479 296.78233 
L 258.570509 296.390003 
L 256.823237 295.816484 
L 255.2142 295.029906 
L 253.711124 294.086259 
L 252.313585 292.991349 
L 250.543915 291.128825 
L 249.479295 289.736896 
L 248.494729 288.109514 
L 247.640174 286.285766 
L 246.522736 283.203689 
L 245.60125 279.731305 
L 244.508487 274.609528 
L 243.666713 268.969797 
L 242.855825 261.347186 
L 242.206033 253.586923 
L 239.570156 216.247742 
L 237.142974 185.091701 
L 236.100449 171.595525 
L 235.303208 163.439585 
L 234.342673 155.454259 
L 232.800588 146.219164 
L 231.301161 138.746864 
L 229.834412 132.864409 
L 228.151309 127.101763 
L 226.18369 121.390788 
L 224.54772 117.148959 
L 222.136545 111.50947 
L 214.768693 96.206147 
L 210.429956 88.040208 
L 205.968587 80.252065 
L 200.433626 70.978545 
L 196.084043 64.048605 
L 193.852956 60.943388 
L 192.394997 59.079612 
L 191.039047 57.757127 
L 189.282522 56.462463 
L 187.749367 55.645386 
L 186.11622 55.042204 
L 184.106084 54.588003 
L 182.886011 54.452932 
L 181.506877 54.406968 
L 179.327197 54.633967 
L 177.729329 54.945235 
L 175.245841 55.766949 
L 172.612766 57.065242 
L 170.762094 58.186532 
L 166.900076 60.994997 
L 162.661675 64.297579 
L 153.168413 72.118785 
L 142.382504 81.270942 
L 118.285667 101.703348 
L 80.241457 133.668726 
L 80.241457 133.668726 
" style="fill:none;stroke:#008000;stroke-linecap:square;stroke-width:1.5;"/>
   </g>
   <g id="line2d_18">
    <path clip-path="url(#p547b984f7d)" d="M 398.487273 297.621948 
L 398.227134 295.773948 
L 397.963797 294.757014 
L 397.151297 292.867521 
L 396.451097 291.693083 
L 395.287858 290.139337 
L 394.054493 289.085553 
L 393.123787 288.392723 
L 392.031262 287.783162 
L 390.795976 287.271641 
L 389.399438 286.879912 
L 387.054788 286.488942 
L 384.418863 286.406215 
L 381.522643 286.495904 
L 371.110081 287.33623 
L 362.761992 287.989036 
L 353.414124 288.631953 
L 336.633368 289.650335 
L 319.723482 290.734946 
L 294.926949 292.353378 
L 280.787589 293.487761 
L 265.725531 294.450058 
L 263.415866 294.420501 
L 260.306663 294.049494 
L 258.45374 293.633992 
L 256.716284 293.031247 
L 255.109405 292.23893 
L 252.877353 290.785951 
L 251.551261 289.642264 
L 249.816701 287.745318 
L 248.769613 286.26104 
L 247.84319 284.547625 
L 246.638663 281.605203 
L 245.654301 278.254059 
L 244.447414 273.281373 
L 243.44616 267.77757 
L 242.65634 261.838191 
L 241.648079 252.528171 
L 239.297406 224.933282 
L 238.891051 220.166526 
L 237.324836 203.460591 
L 235.939697 187.719448 
L 233.960551 165.801541 
L 231.850739 149.846281 
L 230.236965 140.701015 
L 229.324036 136.23464 
L 228.215006 131.800553 
L 226.044116 124.626669 
L 224.573179 120.336946 
L 222.360706 114.703847 
L 219.956572 109.061509 
L 212.646221 93.730197 
L 201.211834 72.75593 
L 199.160846 69.438691 
L 193.780799 60.715685 
L 190.986796 56.80359 
L 189.616164 55.339339 
L 188.276217 54.244794 
L 187.226519 53.461428 
L 185.688176 52.638057 
L 184.045647 52.024877 
L 182.478125 51.649005 
L 180.589528 51.4358 
L 178.435063 51.491383 
L 176.902139 51.684139 
L 174.454575 52.325239 
L 172.724275 52.976056 
L 170.920807 53.835327 
L 168.0769 55.504928 
L 164.000579 58.275738 
L 159.574932 61.557968 
L 142.748213 74.666755 
L 135.390581 80.50672 
L 122.976625 90.394534 
L 104.27186 105.477147 
L 98.07997 110.497884 
L 76.347653 127.708345 
L 76.347653 127.708345 
" style="fill:none;stroke:#0000ff;stroke-linecap:square;stroke-width:1.5;"/>
   </g>
   <g id="line2d_19">
    <path clip-path="url(#p547b984f7d)" d="M 398.487273 297.621948 
L 398.225952 295.779216 
L 397.936889 294.76921 
L 397.089029 292.895543 
L 396.090133 291.350645 
L 395.160313 290.213488 
L 393.456906 288.834869 
L 392.435604 288.196233 
L 390.616503 287.423416 
L 388.461385 286.884105 
L 386.871711 286.658417 
L 384.235678 286.587272 
L 381.340413 286.696684 
L 373.472941 287.41996 
L 350.01899 289.362424 
L 336.488506 290.322479 
L 294.823353 293.558585 
L 272.046256 295.653691 
L 265.650636 296.003226 
L 263.341608 295.997665 
L 260.227209 295.676839 
L 258.367561 295.292415 
L 256.62049 294.719383 
L 254.231293 293.486634 
L 252.759078 292.511143 
L 251.432745 291.365813 
L 249.670688 289.493276 
L 248.60864 288.018418 
L 247.664041 286.314883 
L 246.419414 283.389307 
L 245.399823 280.048455 
L 244.137287 275.089669 
L 243.097913 269.593132 
L 242.444524 265.187202 
L 240.750896 249.719675 
L 239.577118 237.520115 
L 238.427256 223.612979 
L 235.185171 189.575527 
L 233.104819 167.666553 
L 231.375374 154.828521 
L 229.699824 145.61629 
L 228.131589 138.157533 
L 226.947688 133.742962 
L 225.147006 128.05076 
L 222.56863 120.938296 
L 220.25777 115.33381 
L 218.366332 111.121854 
L 211.567636 97.281795 
L 207.158982 89.114342 
L 202.672712 81.288676 
L 198.399522 73.957365 
L 190.236159 61.236977 
L 188.383264 58.813021 
L 187.037837 57.480349 
L 185.3138 56.143731 
L 183.807523 55.277445 
L 181.776635 54.460747 
L 180.212941 54.070711 
L 178.325463 53.850912 
L 176.171686 53.891346 
L 174.637869 54.076519 
L 172.188666 54.710213 
L 170.456464 55.355596 
L 168.649942 56.207865 
L 165.80882 57.881104 
L 161.740825 60.663064 
L 158.441145 63.069659 
L 143.267272 74.787458 
L 123.742295 90.163832 
L 83.086241 122.436435 
L 73.832727 129.748399 
L 73.832727 129.748399 
" style="fill:none;stroke:#ff0000;stroke-linecap:square;stroke-width:1.5;"/>
   </g>
   <g id="patch_3">
    <path d="M 57.6 307.584 
L 57.6 41.472 
" style="fill:none;stroke:#000000;stroke-linecap:square;stroke-linejoin:miter;stroke-width:0.8;"/>
   </g>
   <g id="patch_4">
    <path d="M 414.72 307.584 
L 414.72 41.472 
" style="fill:none;stroke:#000000;stroke-linecap:square;stroke-linejoin:miter;stroke-width:0.8;"/>
   </g>
   <g id="patch_5">
    <path d="M 57.6 307.584 
L 414.72 307.584 
" style="fill:none;stroke:#000000;stroke-linecap:square;stroke-linejoin:miter;stroke-width:0.8;"/>
   </g>
   <g id="patch_6">
    <path d="M 57.6 41.472 
L 414.72 41.472 
" style="fill:none;stroke:#000000;stroke-linecap:square;stroke-linejoin:miter;stroke-width:0.8;"/>
   </g>
  </g>
 </g>
 <defs>
  <clipPath id="p547b984f7d">
   <rect height="266.112" width="357.12" x="57.6" y="41.472"/>
  </clipPath>
 </defs>
</svg>
