<?xml version="1.0" encoding="utf-8" standalone="no"?>
<!DOCTYPE svg PUBLIC "-//W3C//DTD SVG 1.1//EN"
  "http://www.w3.org/Graphics/SVG/1.1/DTD/svg11.dtd">
<!-- Created with matplotlib (https://matplotlib.org/) -->
<svg height="345.6pt" version="1.1" viewBox="0 0 460.8 345.6" width="460.8pt" xmlns="http://www.w3.org/2000/svg" xmlns:xlink="http://www.w3.org/1999/xlink">
 <defs>
  <style type="text/css">
*{stroke-linecap:butt;stroke-linejoin:round;}
  </style>
 </defs>
 <g id="figure_1">
  <g id="patch_1">
   <path d="M 0 345.6 
L 460.8 345.6 
L 460.8 0 
L 0 0 
z
" style="fill:#ffffff;"/>
  </g>
  <g id="axes_1">
   <g id="patch_2">
    <path d="M 57.6 307.584 
L 414.72 307.584 
L 414.72 41.472 
L 57.6 41.472 
z
" style="fill:#ffffff;"/>
   </g>
   <g id="matplotlib.axis_1">
    <g id="xtick_1">
     <g id="line2d_1">
      <defs>
       <path d="M 0 0 
L 0 3.5 
" id="m941faabc39" style="stroke:#000000;stroke-width:0.8;"/>
      </defs>
      <g>
       <use style="stroke:#000000;stroke-width:0.8;" x="88.352343" xlink:href="#m941faabc39" y="307.584"/>
      </g>
     </g>
     <g id="text_1">
      <!-- −75 -->
      <defs>
       <path d="M 10.59375 35.5 
L 73.1875 35.5 
L 73.1875 27.203125 
L 10.59375 27.203125 
z
" id="DejaVuSans-8722"/>
       <path d="M 8.203125 72.90625 
L 55.078125 72.90625 
L 55.078125 68.703125 
L 28.609375 0 
L 18.3125 0 
L 43.21875 64.59375 
L 8.203125 64.59375 
z
" id="DejaVuSans-55"/>
       <path d="M 10.796875 72.90625 
L 49.515625 72.90625 
L 49.515625 64.59375 
L 19.828125 64.59375 
L 19.828125 46.734375 
Q 21.96875 47.46875 24.109375 47.828125 
Q 26.265625 48.1875 28.421875 48.1875 
Q 40.625 48.1875 47.75 41.5 
Q 54.890625 34.8125 54.890625 23.390625 
Q 54.890625 11.625 47.5625 5.09375 
Q 40.234375 -1.421875 26.90625 -1.421875 
Q 22.3125 -1.421875 17.546875 -0.640625 
Q 12.796875 0.140625 7.71875 1.703125 
L 7.71875 11.625 
Q 12.109375 9.234375 16.796875 8.0625 
Q 21.484375 6.890625 26.703125 6.890625 
Q 35.15625 6.890625 40.078125 11.328125 
Q 45.015625 15.765625 45.015625 23.390625 
Q 45.015625 31 40.078125 35.4375 
Q 35.15625 39.890625 26.703125 39.890625 
Q 22.75 39.890625 18.8125 39.015625 
Q 14.890625 38.140625 10.796875 36.28125 
z
" id="DejaVuSans-53"/>
      </defs>
      <g transform="translate(77.799999 322.182437)scale(0.1 -0.1)">
       <use xlink:href="#DejaVuSans-8722"/>
       <use x="83.789062" xlink:href="#DejaVuSans-55"/>
       <use x="147.412109" xlink:href="#DejaVuSans-53"/>
      </g>
     </g>
    </g>
    <g id="xtick_2">
     <g id="line2d_2">
      <g>
       <use style="stroke:#000000;stroke-width:0.8;" x="137.81729" xlink:href="#m941faabc39" y="307.584"/>
      </g>
     </g>
     <g id="text_2">
      <!-- −50 -->
      <defs>
       <path d="M 31.78125 66.40625 
Q 24.171875 66.40625 20.328125 58.90625 
Q 16.5 51.421875 16.5 36.375 
Q 16.5 21.390625 20.328125 13.890625 
Q 24.171875 6.390625 31.78125 6.390625 
Q 39.453125 6.390625 43.28125 13.890625 
Q 47.125 21.390625 47.125 36.375 
Q 47.125 51.421875 43.28125 58.90625 
Q 39.453125 66.40625 31.78125 66.40625 
z
M 31.78125 74.21875 
Q 44.046875 74.21875 50.515625 64.515625 
Q 56.984375 54.828125 56.984375 36.375 
Q 56.984375 17.96875 50.515625 8.265625 
Q 44.046875 -1.421875 31.78125 -1.421875 
Q 19.53125 -1.421875 13.0625 8.265625 
Q 6.59375 17.96875 6.59375 36.375 
Q 6.59375 54.828125 13.0625 64.515625 
Q 19.53125 74.21875 31.78125 74.21875 
z
" id="DejaVuSans-48"/>
      </defs>
      <g transform="translate(127.264947 322.182437)scale(0.1 -0.1)">
       <use xlink:href="#DejaVuSans-8722"/>
       <use x="83.789062" xlink:href="#DejaVuSans-53"/>
       <use x="147.412109" xlink:href="#DejaVuSans-48"/>
      </g>
     </g>
    </g>
    <g id="xtick_3">
     <g id="line2d_3">
      <g>
       <use style="stroke:#000000;stroke-width:0.8;" x="187.282238" xlink:href="#m941faabc39" y="307.584"/>
      </g>
     </g>
     <g id="text_3">
      <!-- −25 -->
      <defs>
       <path d="M 19.1875 8.296875 
L 53.609375 8.296875 
L 53.609375 0 
L 7.328125 0 
L 7.328125 8.296875 
Q 12.9375 14.109375 22.625 23.890625 
Q 32.328125 33.6875 34.8125 36.53125 
Q 39.546875 41.84375 41.421875 45.53125 
Q 43.3125 49.21875 43.3125 52.78125 
Q 43.3125 58.59375 39.234375 62.25 
Q 35.15625 65.921875 28.609375 65.921875 
Q 23.96875 65.921875 18.8125 64.3125 
Q 13.671875 62.703125 7.8125 59.421875 
L 7.8125 69.390625 
Q 13.765625 71.78125 18.9375 73 
Q 24.125 74.21875 28.421875 74.21875 
Q 39.75 74.21875 46.484375 68.546875 
Q 53.21875 62.890625 53.21875 53.421875 
Q 53.21875 48.921875 51.53125 44.890625 
Q 49.859375 40.875 45.40625 35.40625 
Q 44.1875 33.984375 37.640625 27.21875 
Q 31.109375 20.453125 19.1875 8.296875 
z
" id="DejaVuSans-50"/>
      </defs>
      <g transform="translate(176.729894 322.182437)scale(0.1 -0.1)">
       <use xlink:href="#DejaVuSans-8722"/>
       <use x="83.789062" xlink:href="#DejaVuSans-50"/>
       <use x="147.412109" xlink:href="#DejaVuSans-53"/>
      </g>
     </g>
    </g>
    <g id="xtick_4">
     <g id="line2d_4">
      <g>
       <use style="stroke:#000000;stroke-width:0.8;" x="236.747186" xlink:href="#m941faabc39" y="307.584"/>
      </g>
     </g>
     <g id="text_4">
      <!-- 0 -->
      <g transform="translate(233.565936 322.182437)scale(0.1 -0.1)">
       <use xlink:href="#DejaVuSans-48"/>
      </g>
     </g>
    </g>
    <g id="xtick_5">
     <g id="line2d_5">
      <g>
       <use style="stroke:#000000;stroke-width:0.8;" x="286.212133" xlink:href="#m941faabc39" y="307.584"/>
      </g>
     </g>
     <g id="text_5">
      <!-- 25 -->
      <g transform="translate(279.849633 322.182437)scale(0.1 -0.1)">
       <use xlink:href="#DejaVuSans-50"/>
       <use x="63.623047" xlink:href="#DejaVuSans-53"/>
      </g>
     </g>
    </g>
    <g id="xtick_6">
     <g id="line2d_6">
      <g>
       <use style="stroke:#000000;stroke-width:0.8;" x="335.677081" xlink:href="#m941faabc39" y="307.584"/>
      </g>
     </g>
     <g id="text_6">
      <!-- 50 -->
      <g transform="translate(329.314581 322.182437)scale(0.1 -0.1)">
       <use xlink:href="#DejaVuSans-53"/>
       <use x="63.623047" xlink:href="#DejaVuSans-48"/>
      </g>
     </g>
    </g>
    <g id="xtick_7">
     <g id="line2d_7">
      <g>
       <use style="stroke:#000000;stroke-width:0.8;" x="385.142029" xlink:href="#m941faabc39" y="307.584"/>
      </g>
     </g>
     <g id="text_7">
      <!-- 75 -->
      <g transform="translate(378.779529 322.182437)scale(0.1 -0.1)">
       <use xlink:href="#DejaVuSans-55"/>
       <use x="63.623047" xlink:href="#DejaVuSans-53"/>
      </g>
     </g>
    </g>
   </g>
   <g id="matplotlib.axis_2">
    <g id="ytick_1">
     <g id="line2d_8">
      <defs>
       <path d="M 0 0 
L -3.5 0 
" id="mf1a6862817" style="stroke:#000000;stroke-width:0.8;"/>
      </defs>
      <g>
       <use style="stroke:#000000;stroke-width:0.8;" x="57.6" xlink:href="#mf1a6862817" y="295.488"/>
      </g>
     </g>
     <g id="text_8">
      <!-- 0 -->
      <g transform="translate(44.2375 299.287219)scale(0.1 -0.1)">
       <use xlink:href="#DejaVuSans-48"/>
      </g>
     </g>
    </g>
    <g id="ytick_2">
     <g id="line2d_9">
      <g>
       <use style="stroke:#000000;stroke-width:0.8;" x="57.6" xlink:href="#mf1a6862817" y="255.916042"/>
      </g>
     </g>
     <g id="text_9">
      <!-- 20 -->
      <g transform="translate(37.875 259.715261)scale(0.1 -0.1)">
       <use xlink:href="#DejaVuSans-50"/>
       <use x="63.623047" xlink:href="#DejaVuSans-48"/>
      </g>
     </g>
    </g>
    <g id="ytick_3">
     <g id="line2d_10">
      <g>
       <use style="stroke:#000000;stroke-width:0.8;" x="57.6" xlink:href="#mf1a6862817" y="216.344084"/>
      </g>
     </g>
     <g id="text_10">
      <!-- 40 -->
      <defs>
       <path d="M 37.796875 64.3125 
L 12.890625 25.390625 
L 37.796875 25.390625 
z
M 35.203125 72.90625 
L 47.609375 72.90625 
L 47.609375 25.390625 
L 58.015625 25.390625 
L 58.015625 17.1875 
L 47.609375 17.1875 
L 47.609375 0 
L 37.796875 0 
L 37.796875 17.1875 
L 4.890625 17.1875 
L 4.890625 26.703125 
z
" id="DejaVuSans-52"/>
      </defs>
      <g transform="translate(37.875 220.143303)scale(0.1 -0.1)">
       <use xlink:href="#DejaVuSans-52"/>
       <use x="63.623047" xlink:href="#DejaVuSans-48"/>
      </g>
     </g>
    </g>
    <g id="ytick_4">
     <g id="line2d_11">
      <g>
       <use style="stroke:#000000;stroke-width:0.8;" x="57.6" xlink:href="#mf1a6862817" y="176.772126"/>
      </g>
     </g>
     <g id="text_11">
      <!-- 60 -->
      <defs>
       <path d="M 33.015625 40.375 
Q 26.375 40.375 22.484375 35.828125 
Q 18.609375 31.296875 18.609375 23.390625 
Q 18.609375 15.53125 22.484375 10.953125 
Q 26.375 6.390625 33.015625 6.390625 
Q 39.65625 6.390625 43.53125 10.953125 
Q 47.40625 15.53125 47.40625 23.390625 
Q 47.40625 31.296875 43.53125 35.828125 
Q 39.65625 40.375 33.015625 40.375 
z
M 52.59375 71.296875 
L 52.59375 62.3125 
Q 48.875 64.0625 45.09375 64.984375 
Q 41.3125 65.921875 37.59375 65.921875 
Q 27.828125 65.921875 22.671875 59.328125 
Q 17.53125 52.734375 16.796875 39.40625 
Q 19.671875 43.65625 24.015625 45.921875 
Q 28.375 48.1875 33.59375 48.1875 
Q 44.578125 48.1875 50.953125 41.515625 
Q 57.328125 34.859375 57.328125 23.390625 
Q 57.328125 12.15625 50.6875 5.359375 
Q 44.046875 -1.421875 33.015625 -1.421875 
Q 20.359375 -1.421875 13.671875 8.265625 
Q 6.984375 17.96875 6.984375 36.375 
Q 6.984375 53.65625 15.1875 63.9375 
Q 23.390625 74.21875 37.203125 74.21875 
Q 40.921875 74.21875 44.703125 73.484375 
Q 48.484375 72.75 52.59375 71.296875 
z
" id="DejaVuSans-54"/>
      </defs>
      <g transform="translate(37.875 180.571344)scale(0.1 -0.1)">
       <use xlink:href="#DejaVuSans-54"/>
       <use x="63.623047" xlink:href="#DejaVuSans-48"/>
      </g>
     </g>
    </g>
    <g id="ytick_5">
     <g id="line2d_12">
      <g>
       <use style="stroke:#000000;stroke-width:0.8;" x="57.6" xlink:href="#mf1a6862817" y="137.200168"/>
      </g>
     </g>
     <g id="text_12">
      <!-- 80 -->
      <defs>
       <path d="M 31.78125 34.625 
Q 24.75 34.625 20.71875 30.859375 
Q 16.703125 27.09375 16.703125 20.515625 
Q 16.703125 13.921875 20.71875 10.15625 
Q 24.75 6.390625 31.78125 6.390625 
Q 38.8125 6.390625 42.859375 10.171875 
Q 46.921875 13.96875 46.921875 20.515625 
Q 46.921875 27.09375 42.890625 30.859375 
Q 38.875 34.625 31.78125 34.625 
z
M 21.921875 38.8125 
Q 15.578125 40.375 12.03125 44.71875 
Q 8.5 49.078125 8.5 55.328125 
Q 8.5 64.0625 14.71875 69.140625 
Q 20.953125 74.21875 31.78125 74.21875 
Q 42.671875 74.21875 48.875 69.140625 
Q 55.078125 64.0625 55.078125 55.328125 
Q 55.078125 49.078125 51.53125 44.71875 
Q 48 40.375 41.703125 38.8125 
Q 48.828125 37.15625 52.796875 32.3125 
Q 56.78125 27.484375 56.78125 20.515625 
Q 56.78125 9.90625 50.3125 4.234375 
Q 43.84375 -1.421875 31.78125 -1.421875 
Q 19.734375 -1.421875 13.25 4.234375 
Q 6.78125 9.90625 6.78125 20.515625 
Q 6.78125 27.484375 10.78125 32.3125 
Q 14.796875 37.15625 21.921875 38.8125 
z
M 18.3125 54.390625 
Q 18.3125 48.734375 21.84375 45.5625 
Q 25.390625 42.390625 31.78125 42.390625 
Q 38.140625 42.390625 41.71875 45.5625 
Q 45.3125 48.734375 45.3125 54.390625 
Q 45.3125 60.0625 41.71875 63.234375 
Q 38.140625 66.40625 31.78125 66.40625 
Q 25.390625 66.40625 21.84375 63.234375 
Q 18.3125 60.0625 18.3125 54.390625 
z
" id="DejaVuSans-56"/>
      </defs>
      <g transform="translate(37.875 140.999386)scale(0.1 -0.1)">
       <use xlink:href="#DejaVuSans-56"/>
       <use x="63.623047" xlink:href="#DejaVuSans-48"/>
      </g>
     </g>
    </g>
    <g id="ytick_6">
     <g id="line2d_13">
      <g>
       <use style="stroke:#000000;stroke-width:0.8;" x="57.6" xlink:href="#mf1a6862817" y="97.62821"/>
      </g>
     </g>
     <g id="text_13">
      <!-- 100 -->
      <defs>
       <path d="M 12.40625 8.296875 
L 28.515625 8.296875 
L 28.515625 63.921875 
L 10.984375 60.40625 
L 10.984375 69.390625 
L 28.421875 72.90625 
L 38.28125 72.90625 
L 38.28125 8.296875 
L 54.390625 8.296875 
L 54.390625 0 
L 12.40625 0 
z
" id="DejaVuSans-49"/>
      </defs>
      <g transform="translate(31.5125 101.427428)scale(0.1 -0.1)">
       <use xlink:href="#DejaVuSans-49"/>
       <use x="63.623047" xlink:href="#DejaVuSans-48"/>
       <use x="127.246094" xlink:href="#DejaVuSans-48"/>
      </g>
     </g>
    </g>
    <g id="ytick_7">
     <g id="line2d_14">
      <g>
       <use style="stroke:#000000;stroke-width:0.8;" x="57.6" xlink:href="#mf1a6862817" y="58.056251"/>
      </g>
     </g>
     <g id="text_14">
      <!-- 120 -->
      <g transform="translate(31.5125 61.85547)scale(0.1 -0.1)">
       <use xlink:href="#DejaVuSans-49"/>
       <use x="63.623047" xlink:href="#DejaVuSans-50"/>
       <use x="127.246094" xlink:href="#DejaVuSans-48"/>
      </g>
     </g>
    </g>
   </g>
   <g id="line2d_15">
    <path clip-path="url(#pe3b26fd142)" d="M 236.747186 295.488 
L 236.747186 295.488 
L 236.749736 292.894765 
L 236.748066 290.293589 
L 236.751217 287.688901 
L 236.752682 285.078563 
L 236.755413 282.465585 
L 236.762166 279.839714 
L 236.763655 277.207809 
L 236.762477 274.574952 
L 236.760602 271.934256 
L 236.753951 269.287248 
L 236.743501 266.639093 
L 236.735607 263.96763 
L 236.738742 261.293436 
L 236.748141 258.617441 
L 236.757091 255.942357 
L 236.755367 253.262208 
L 236.745671 250.562451 
L 236.732605 247.858993 
L 236.727955 245.135295 
L 236.737172 242.421411 
L 236.751068 239.701986 
L 236.757636 236.980623 
L 236.762894 234.250711 
L 236.760694 231.509423 
L 236.763618 228.774032 
L 236.767315 226.017785 
L 236.771165 223.253565 
L 236.777092 220.487485 
L 236.78076 217.726016 
L 236.785629 214.950419 
L 236.785102 212.167264 
L 236.789417 209.382229 
L 236.799072 206.593138 
L 236.808246 203.79726 
L 236.814617 200.996021 
L 236.813651 198.181287 
L 236.810017 195.366633 
L 236.804482 192.544895 
L 236.797382 189.717775 
L 236.788399 186.893366 
L 236.780443 184.060093 
L 236.773361 181.232875 
L 236.767121 178.40714 
L 236.760095 175.578675 
L 236.752655 172.759628 
L 236.744597 169.942045 
L 236.7415 167.132654 
L 236.735405 164.327932 
L 236.72736 161.530768 
L 236.708871 158.735366 
L 236.693719 155.93749 
L 236.677669 153.148102 
L 236.663795 150.377907 
L 236.654635 147.602745 
L 236.641772 144.828652 
L 236.639184 142.065955 
L 236.642571 139.307454 
L 236.649161 136.556233 
L 236.650567 133.814886 
L 236.651445 131.072034 
L 236.642932 128.328788 
L 236.627045 125.594464 
L 236.598434 122.855036 
L 236.580239 120.126668 
L 236.553021 117.401644 
L 236.527467 114.693142 
L 236.493262 111.990298 
L 236.459378 109.29523 
L 236.411408 106.60954 
L 236.368599 103.932379 
L 236.327661 101.258046 
L 236.283391 98.587572 
L 236.255363 95.926022 
L 236.214147 93.26461 
L 236.179803 90.612299 
L 236.143069 87.963748 
L 236.123145 85.319748 
L 236.085723 82.659523 
L 236.053068 80.006025 
L 236.007633 77.358265 
L 235.966995 74.722773 
L 235.928614 72.094404 
L 235.91228 69.475531 
L 235.8972 66.841028 
L 235.889507 64.203755 
L 235.889631 61.563514 
L 235.895174 58.924262 
L 235.889632 56.26661 
L 235.862172 53.568 
" style="fill:none;stroke:#008000;stroke-linecap:square;stroke-width:1.5;"/>
   </g>
   <g id="line2d_16">
    <path clip-path="url(#pe3b26fd142)" d="M 236.747186 295.488 
L 236.747186 295.488 
L 236.732606 292.894809 
L 236.723842 290.293464 
L 236.745553 287.688625 
L 236.762941 285.078708 
L 236.749984 282.465856 
L 236.755953 279.840173 
L 236.713527 277.208552 
L 236.722146 274.575781 
L 236.715529 271.935235 
L 236.674827 269.288732 
L 236.659495 266.640571 
L 236.639888 263.969024 
L 236.642292 261.294765 
L 236.629051 258.61888 
L 236.645432 255.944043 
L 236.64003 253.263752 
L 236.619706 250.563845 
L 236.602359 247.860255 
L 236.590936 245.136443 
L 236.607148 242.422485 
L 236.58773 239.702802 
L 236.609532 236.981469 
L 236.623108 234.251335 
L 236.632569 231.5098 
L 236.641381 228.774275 
L 236.629742 226.017783 
L 236.651094 223.253558 
L 236.670791 220.487465 
L 236.650693 217.725864 
L 236.588485 214.950925 
L 236.588185 212.167707 
L 236.558064 209.382664 
L 236.549717 206.59386 
L 236.525011 203.797964 
L 236.523779 200.996966 
L 236.51112 198.182446 
L 236.502569 195.367609 
L 236.462207 192.546113 
L 236.439467 189.719195 
L 236.425069 186.894811 
L 236.387047 184.061692 
L 236.377438 181.234418 
L 236.339394 178.409116 
L 236.324043 175.580897 
L 236.293346 172.762065 
L 236.254659 169.944376 
L 236.222297 167.135038 
L 236.155681 164.330946 
L 236.163528 161.534044 
L 236.185373 158.738549 
L 236.156912 155.940672 
L 236.158634 153.151217 
L 236.122812 150.381175 
L 236.119987 147.606057 
L 236.092842 144.83194 
L 236.082002 142.069428 
L 236.10711 139.311018 
L 236.129618 136.560145 
L 236.053254 133.819663 
L 236.058378 131.076917 
L 236.091707 128.333905 
L 236.103945 125.599636 
L 236.105994 122.859755 
L 236.089623 120.131427 
L 236.065916 117.406265 
L 236.052529 114.697785 
L 236.057163 111.995264 
L 236.041945 109.300128 
L 236.035143 106.614066 
L 236.021217 103.93698 
L 236.00434 101.262355 
L 236.022119 98.591336 
L 236.0112 95.929681 
L 236.010768 93.267904 
L 235.999565 90.61544 
L 235.994804 87.966898 
L 235.96855 85.323136 
L 235.960124 82.662591 
L 235.951664 80.009127 
L 235.94437 77.361027 
L 235.951414 74.725208 
L 235.93626 72.09627 
L 235.94059 69.477534 
L 235.930979 66.843236 
L 235.918495 64.206085 
L 235.915113 61.565972 
L 235.936453 58.927002 
L 235.960637 56.269334 
L 235.959189 53.570285 
" style="fill:none;stroke:#0000ff;stroke-linecap:square;stroke-width:1.5;"/>
   </g>
   <g id="line2d_17">
    <path clip-path="url(#pe3b26fd142)" d="M 236.747186 295.488 
L 236.747186 295.488 
L 236.730484 292.894815 
L 236.885902 290.298674 
L 236.895248 287.69377 
L 236.842973 285.084064 
L 236.825357 282.471243 
L 236.832059 279.845574 
L 236.781349 277.214172 
L 236.787595 274.581372 
L 236.787199 271.940806 
L 236.758596 269.294106 
L 236.316987 266.683016 
L 236.316625 264.011421 
L 236.309148 261.337202 
L 236.309706 258.661266 
L 236.337802 255.986506 
L 236.344822 253.306207 
L 236.343806 250.60621 
L 236.341931 247.902507 
L 235.873369 245.2303 
L 235.906367 242.516554 
L 235.905356 239.796857 
L 235.942536 237.075745 
L 235.815615 234.348295 
L 235.84633 231.607017 
L 235.878581 228.871746 
L 235.914454 226.115848 
L 235.955811 223.35192 
L 235.991627 220.586095 
L 235.987675 217.824513 
L 235.969288 215.048991 
L 236.011448 212.266154 
L 236.011214 209.481061 
L 236.027787 206.692556 
L 236.011555 203.896796 
L 236.131494 201.098557 
L 236.134107 198.284447 
L 236.13807 195.470747 
L 236.112836 192.649062 
L 235.858942 189.833548 
L 235.871627 187.009178 
L 235.804308 184.176436 
L 235.798896 181.349604 
L 235.775724 178.523995 
L 235.729147 175.696447 
L 235.726714 172.877338 
L 235.544351 170.065385 
L 235.443223 167.257804 
L 235.637181 164.460654 
L 235.908293 161.680936 
L 235.907654 158.885019 
L 235.991434 156.088673 
L 235.777978 153.307199 
L 235.751293 150.537374 
L 235.643472 147.764235 
L 236.416466 145.126088 
L 235.533245 142.554659 
L 237.774012 140.989528 
L 239.901407 139.287562 
L 241.858144 137.405182 
L 241.185836 134.745819 
L 238.508939 134.660686 
L 240.339527 132.659457 
L 242.007965 130.549713 
L 243.09913 128.12032 
L 244.353159 125.707006 
L 246.17002 123.729264 
L 245.295153 121.176462 
L 244.508043 118.600581 
L 246.118112 116.455962 
L 245.116309 113.976441 
L 244.124433 111.496865 
L 243.159808 109.009768 
L 242.173146 106.541424 
L 241.026874 104.13893 
L 240.042226 101.68077 
L 239.058473 99.225604 
L 238.062575 96.781015 
L 237.07182 94.316283 
L 236.08864 91.855329 
L 235.110389 89.398683 
L 234.146487 86.95018 
L 232.821486 84.70354 
L 231.870992 82.26743 
L 230.922013 79.81376 
L 229.97712 77.356032 
L 229.010082 74.904041 
L 228.057905 72.447302 
L 227.109598 69.96977 
L 226.14998 67.455849 
" style="fill:none;stroke:#ff0000;stroke-linecap:square;stroke-width:1.5;"/>
   </g>
   <g id="patch_3">
    <path d="M 57.6 307.584 
L 57.6 41.472 
" style="fill:none;stroke:#000000;stroke-linecap:square;stroke-linejoin:miter;stroke-width:0.8;"/>
   </g>
   <g id="patch_4">
    <path d="M 414.72 307.584 
L 414.72 41.472 
" style="fill:none;stroke:#000000;stroke-linecap:square;stroke-linejoin:miter;stroke-width:0.8;"/>
   </g>
   <g id="patch_5">
    <path d="M 57.6 307.584 
L 414.72 307.584 
" style="fill:none;stroke:#000000;stroke-linecap:square;stroke-linejoin:miter;stroke-width:0.8;"/>
   </g>
   <g id="patch_6">
    <path d="M 57.6 41.472 
L 414.72 41.472 
" style="fill:none;stroke:#000000;stroke-linecap:square;stroke-linejoin:miter;stroke-width:0.8;"/>
   </g>
  </g>
 </g>
 <defs>
  <clipPath id="pe3b26fd142">
   <rect height="266.112" width="357.12" x="57.6" y="41.472"/>
  </clipPath>
 </defs>
</svg>
