<?xml version="1.0" encoding="utf-8" standalone="no"?>
<!DOCTYPE svg PUBLIC "-//W3C//DTD SVG 1.1//EN"
  "http://www.w3.org/Graphics/SVG/1.1/DTD/svg11.dtd">
<!-- Created with matplotlib (https://matplotlib.org/) -->
<svg height="345.6pt" version="1.1" viewBox="0 0 460.8 345.6" width="460.8pt" xmlns="http://www.w3.org/2000/svg" xmlns:xlink="http://www.w3.org/1999/xlink">
 <defs>
  <style type="text/css">
*{stroke-linecap:butt;stroke-linejoin:round;}
  </style>
 </defs>
 <g id="figure_1">
  <g id="patch_1">
   <path d="M 0 345.6 
L 460.8 345.6 
L 460.8 0 
L 0 0 
z
" style="fill:#ffffff;"/>
  </g>
  <g id="axes_1">
   <g id="patch_2">
    <path d="M 57.6 307.584 
L 414.72 307.584 
L 414.72 41.472 
L 57.6 41.472 
z
" style="fill:#ffffff;"/>
   </g>
   <g id="matplotlib.axis_1">
    <g id="xtick_1">
     <g id="line2d_1">
      <defs>
       <path d="M 0 0 
L 0 3.5 
" id="m908ac9567c" style="stroke:#000000;stroke-width:0.8;"/>
      </defs>
      <g>
       <use style="stroke:#000000;stroke-width:0.8;" x="92.280848" xlink:href="#m908ac9567c" y="307.584"/>
      </g>
     </g>
     <g id="text_1">
      <!-- 0 -->
      <defs>
       <path d="M 31.78125 66.40625 
Q 24.171875 66.40625 20.328125 58.90625 
Q 16.5 51.421875 16.5 36.375 
Q 16.5 21.390625 20.328125 13.890625 
Q 24.171875 6.390625 31.78125 6.390625 
Q 39.453125 6.390625 43.28125 13.890625 
Q 47.125 21.390625 47.125 36.375 
Q 47.125 51.421875 43.28125 58.90625 
Q 39.453125 66.40625 31.78125 66.40625 
z
M 31.78125 74.21875 
Q 44.046875 74.21875 50.515625 64.515625 
Q 56.984375 54.828125 56.984375 36.375 
Q 56.984375 17.96875 50.515625 8.265625 
Q 44.046875 -1.421875 31.78125 -1.421875 
Q 19.53125 -1.421875 13.0625 8.265625 
Q 6.59375 17.96875 6.59375 36.375 
Q 6.59375 54.828125 13.0625 64.515625 
Q 19.53125 74.21875 31.78125 74.21875 
z
" id="DejaVuSans-48"/>
      </defs>
      <g transform="translate(89.099598 322.182437)scale(0.1 -0.1)">
       <use xlink:href="#DejaVuSans-48"/>
      </g>
     </g>
    </g>
    <g id="xtick_2">
     <g id="line2d_2">
      <g>
       <use style="stroke:#000000;stroke-width:0.8;" x="143.112475" xlink:href="#m908ac9567c" y="307.584"/>
      </g>
     </g>
     <g id="text_2">
      <!-- 200 -->
      <defs>
       <path d="M 19.1875 8.296875 
L 53.609375 8.296875 
L 53.609375 0 
L 7.328125 0 
L 7.328125 8.296875 
Q 12.9375 14.109375 22.625 23.890625 
Q 32.328125 33.6875 34.8125 36.53125 
Q 39.546875 41.84375 41.421875 45.53125 
Q 43.3125 49.21875 43.3125 52.78125 
Q 43.3125 58.59375 39.234375 62.25 
Q 35.15625 65.921875 28.609375 65.921875 
Q 23.96875 65.921875 18.8125 64.3125 
Q 13.671875 62.703125 7.8125 59.421875 
L 7.8125 69.390625 
Q 13.765625 71.78125 18.9375 73 
Q 24.125 74.21875 28.421875 74.21875 
Q 39.75 74.21875 46.484375 68.546875 
Q 53.21875 62.890625 53.21875 53.421875 
Q 53.21875 48.921875 51.53125 44.890625 
Q 49.859375 40.875 45.40625 35.40625 
Q 44.1875 33.984375 37.640625 27.21875 
Q 31.109375 20.453125 19.1875 8.296875 
z
" id="DejaVuSans-50"/>
      </defs>
      <g transform="translate(133.568725 322.182437)scale(0.1 -0.1)">
       <use xlink:href="#DejaVuSans-50"/>
       <use x="63.623047" xlink:href="#DejaVuSans-48"/>
       <use x="127.246094" xlink:href="#DejaVuSans-48"/>
      </g>
     </g>
    </g>
    <g id="xtick_3">
     <g id="line2d_3">
      <g>
       <use style="stroke:#000000;stroke-width:0.8;" x="193.944102" xlink:href="#m908ac9567c" y="307.584"/>
      </g>
     </g>
     <g id="text_3">
      <!-- 400 -->
      <defs>
       <path d="M 37.796875 64.3125 
L 12.890625 25.390625 
L 37.796875 25.390625 
z
M 35.203125 72.90625 
L 47.609375 72.90625 
L 47.609375 25.390625 
L 58.015625 25.390625 
L 58.015625 17.1875 
L 47.609375 17.1875 
L 47.609375 0 
L 37.796875 0 
L 37.796875 17.1875 
L 4.890625 17.1875 
L 4.890625 26.703125 
z
" id="DejaVuSans-52"/>
      </defs>
      <g transform="translate(184.400352 322.182437)scale(0.1 -0.1)">
       <use xlink:href="#DejaVuSans-52"/>
       <use x="63.623047" xlink:href="#DejaVuSans-48"/>
       <use x="127.246094" xlink:href="#DejaVuSans-48"/>
      </g>
     </g>
    </g>
    <g id="xtick_4">
     <g id="line2d_4">
      <g>
       <use style="stroke:#000000;stroke-width:0.8;" x="244.77573" xlink:href="#m908ac9567c" y="307.584"/>
      </g>
     </g>
     <g id="text_4">
      <!-- 600 -->
      <defs>
       <path d="M 33.015625 40.375 
Q 26.375 40.375 22.484375 35.828125 
Q 18.609375 31.296875 18.609375 23.390625 
Q 18.609375 15.53125 22.484375 10.953125 
Q 26.375 6.390625 33.015625 6.390625 
Q 39.65625 6.390625 43.53125 10.953125 
Q 47.40625 15.53125 47.40625 23.390625 
Q 47.40625 31.296875 43.53125 35.828125 
Q 39.65625 40.375 33.015625 40.375 
z
M 52.59375 71.296875 
L 52.59375 62.3125 
Q 48.875 64.0625 45.09375 64.984375 
Q 41.3125 65.921875 37.59375 65.921875 
Q 27.828125 65.921875 22.671875 59.328125 
Q 17.53125 52.734375 16.796875 39.40625 
Q 19.671875 43.65625 24.015625 45.921875 
Q 28.375 48.1875 33.59375 48.1875 
Q 44.578125 48.1875 50.953125 41.515625 
Q 57.328125 34.859375 57.328125 23.390625 
Q 57.328125 12.15625 50.6875 5.359375 
Q 44.046875 -1.421875 33.015625 -1.421875 
Q 20.359375 -1.421875 13.671875 8.265625 
Q 6.984375 17.96875 6.984375 36.375 
Q 6.984375 53.65625 15.1875 63.9375 
Q 23.390625 74.21875 37.203125 74.21875 
Q 40.921875 74.21875 44.703125 73.484375 
Q 48.484375 72.75 52.59375 71.296875 
z
" id="DejaVuSans-54"/>
      </defs>
      <g transform="translate(235.23198 322.182437)scale(0.1 -0.1)">
       <use xlink:href="#DejaVuSans-54"/>
       <use x="63.623047" xlink:href="#DejaVuSans-48"/>
       <use x="127.246094" xlink:href="#DejaVuSans-48"/>
      </g>
     </g>
    </g>
    <g id="xtick_5">
     <g id="line2d_5">
      <g>
       <use style="stroke:#000000;stroke-width:0.8;" x="295.607357" xlink:href="#m908ac9567c" y="307.584"/>
      </g>
     </g>
     <g id="text_5">
      <!-- 800 -->
      <defs>
       <path d="M 31.78125 34.625 
Q 24.75 34.625 20.71875 30.859375 
Q 16.703125 27.09375 16.703125 20.515625 
Q 16.703125 13.921875 20.71875 10.15625 
Q 24.75 6.390625 31.78125 6.390625 
Q 38.8125 6.390625 42.859375 10.171875 
Q 46.921875 13.96875 46.921875 20.515625 
Q 46.921875 27.09375 42.890625 30.859375 
Q 38.875 34.625 31.78125 34.625 
z
M 21.921875 38.8125 
Q 15.578125 40.375 12.03125 44.71875 
Q 8.5 49.078125 8.5 55.328125 
Q 8.5 64.0625 14.71875 69.140625 
Q 20.953125 74.21875 31.78125 74.21875 
Q 42.671875 74.21875 48.875 69.140625 
Q 55.078125 64.0625 55.078125 55.328125 
Q 55.078125 49.078125 51.53125 44.71875 
Q 48 40.375 41.703125 38.8125 
Q 48.828125 37.15625 52.796875 32.3125 
Q 56.78125 27.484375 56.78125 20.515625 
Q 56.78125 9.90625 50.3125 4.234375 
Q 43.84375 -1.421875 31.78125 -1.421875 
Q 19.734375 -1.421875 13.25 4.234375 
Q 6.78125 9.90625 6.78125 20.515625 
Q 6.78125 27.484375 10.78125 32.3125 
Q 14.796875 37.15625 21.921875 38.8125 
z
M 18.3125 54.390625 
Q 18.3125 48.734375 21.84375 45.5625 
Q 25.390625 42.390625 31.78125 42.390625 
Q 38.140625 42.390625 41.71875 45.5625 
Q 45.3125 48.734375 45.3125 54.390625 
Q 45.3125 60.0625 41.71875 63.234375 
Q 38.140625 66.40625 31.78125 66.40625 
Q 25.390625 66.40625 21.84375 63.234375 
Q 18.3125 60.0625 18.3125 54.390625 
z
" id="DejaVuSans-56"/>
      </defs>
      <g transform="translate(286.063607 322.182437)scale(0.1 -0.1)">
       <use xlink:href="#DejaVuSans-56"/>
       <use x="63.623047" xlink:href="#DejaVuSans-48"/>
       <use x="127.246094" xlink:href="#DejaVuSans-48"/>
      </g>
     </g>
    </g>
    <g id="xtick_6">
     <g id="line2d_6">
      <g>
       <use style="stroke:#000000;stroke-width:0.8;" x="346.438985" xlink:href="#m908ac9567c" y="307.584"/>
      </g>
     </g>
     <g id="text_6">
      <!-- 1000 -->
      <defs>
       <path d="M 12.40625 8.296875 
L 28.515625 8.296875 
L 28.515625 63.921875 
L 10.984375 60.40625 
L 10.984375 69.390625 
L 28.421875 72.90625 
L 38.28125 72.90625 
L 38.28125 8.296875 
L 54.390625 8.296875 
L 54.390625 0 
L 12.40625 0 
z
" id="DejaVuSans-49"/>
      </defs>
      <g transform="translate(333.713985 322.182437)scale(0.1 -0.1)">
       <use xlink:href="#DejaVuSans-49"/>
       <use x="63.623047" xlink:href="#DejaVuSans-48"/>
       <use x="127.246094" xlink:href="#DejaVuSans-48"/>
       <use x="190.869141" xlink:href="#DejaVuSans-48"/>
      </g>
     </g>
    </g>
    <g id="xtick_7">
     <g id="line2d_7">
      <g>
       <use style="stroke:#000000;stroke-width:0.8;" x="397.270612" xlink:href="#m908ac9567c" y="307.584"/>
      </g>
     </g>
     <g id="text_7">
      <!-- 1200 -->
      <g transform="translate(384.545612 322.182437)scale(0.1 -0.1)">
       <use xlink:href="#DejaVuSans-49"/>
       <use x="63.623047" xlink:href="#DejaVuSans-50"/>
       <use x="127.246094" xlink:href="#DejaVuSans-48"/>
       <use x="190.869141" xlink:href="#DejaVuSans-48"/>
      </g>
     </g>
    </g>
   </g>
   <g id="matplotlib.axis_2">
    <g id="ytick_1">
     <g id="line2d_8">
      <defs>
       <path d="M 0 0 
L -3.5 0 
" id="m5ab10d52de" style="stroke:#000000;stroke-width:0.8;"/>
      </defs>
      <g>
       <use style="stroke:#000000;stroke-width:0.8;" x="57.6" xlink:href="#m5ab10d52de" y="289.016973"/>
      </g>
     </g>
     <g id="text_8">
      <!-- 0 -->
      <g transform="translate(44.2375 292.816192)scale(0.1 -0.1)">
       <use xlink:href="#DejaVuSans-48"/>
      </g>
     </g>
    </g>
    <g id="ytick_2">
     <g id="line2d_9">
      <g>
       <use style="stroke:#000000;stroke-width:0.8;" x="57.6" xlink:href="#m5ab10d52de" y="238.185346"/>
      </g>
     </g>
     <g id="text_9">
      <!-- 200 -->
      <g transform="translate(31.5125 241.984564)scale(0.1 -0.1)">
       <use xlink:href="#DejaVuSans-50"/>
       <use x="63.623047" xlink:href="#DejaVuSans-48"/>
       <use x="127.246094" xlink:href="#DejaVuSans-48"/>
      </g>
     </g>
    </g>
    <g id="ytick_3">
     <g id="line2d_10">
      <g>
       <use style="stroke:#000000;stroke-width:0.8;" x="57.6" xlink:href="#m5ab10d52de" y="187.353718"/>
      </g>
     </g>
     <g id="text_10">
      <!-- 400 -->
      <g transform="translate(31.5125 191.152937)scale(0.1 -0.1)">
       <use xlink:href="#DejaVuSans-52"/>
       <use x="63.623047" xlink:href="#DejaVuSans-48"/>
       <use x="127.246094" xlink:href="#DejaVuSans-48"/>
      </g>
     </g>
    </g>
    <g id="ytick_4">
     <g id="line2d_11">
      <g>
       <use style="stroke:#000000;stroke-width:0.8;" x="57.6" xlink:href="#m5ab10d52de" y="136.522091"/>
      </g>
     </g>
     <g id="text_11">
      <!-- 600 -->
      <g transform="translate(31.5125 140.32131)scale(0.1 -0.1)">
       <use xlink:href="#DejaVuSans-54"/>
       <use x="63.623047" xlink:href="#DejaVuSans-48"/>
       <use x="127.246094" xlink:href="#DejaVuSans-48"/>
      </g>
     </g>
    </g>
    <g id="ytick_5">
     <g id="line2d_12">
      <g>
       <use style="stroke:#000000;stroke-width:0.8;" x="57.6" xlink:href="#m5ab10d52de" y="85.690463"/>
      </g>
     </g>
     <g id="text_12">
      <!-- 800 -->
      <g transform="translate(31.5125 89.489682)scale(0.1 -0.1)">
       <use xlink:href="#DejaVuSans-56"/>
       <use x="63.623047" xlink:href="#DejaVuSans-48"/>
       <use x="127.246094" xlink:href="#DejaVuSans-48"/>
      </g>
     </g>
    </g>
   </g>
   <g id="line2d_13">
    <path clip-path="url(#p3454893315)" d="M 92.280848 289.016973 
L 92.197308 282.57127 
L 92.138503 274.96683 
L 92.31679 273.292617 
L 92.71786 271.770763 
L 93.339612 270.429827 
L 94.022584 269.461569 
L 94.850226 268.663586 
L 96.009566 267.895726 
L 97.110729 267.445632 
L 98.30544 267.220943 
L 99.788455 267.194948 
L 102.834291 267.454167 
L 108.776471 268.183189 
L 115.524306 269.011663 
L 122.710718 269.944248 
L 124.783302 270.55191 
L 126.745784 271.374686 
L 128.626325 272.432157 
L 130.15346 273.550727 
L 131.56691 274.863215 
L 132.828042 276.388522 
L 133.701762 277.775799 
L 134.559723 279.546412 
L 135.479979 282.006722 
L 137.233136 287.214894 
L 138.201072 289.263983 
L 139.188451 290.89385 
L 140.346345 292.355501 
L 141.451501 293.38766 
L 142.658574 294.254093 
L 143.988889 294.914251 
L 145.121493 295.272931 
L 146.576828 295.478815 
L 148.047387 295.421634 
L 149.50778 295.134207 
L 150.927202 294.623372 
L 152.265319 293.895341 
L 153.511025 292.977964 
L 154.886046 291.690369 
L 156.1149 290.224436 
L 157.39174 288.319902 
L 159.405613 284.804942 
L 164.048777 276.01659 
L 167.66682 268.964578 
L 168.55711 267.746868 
L 169.577936 266.683147 
L 170.72546 265.826309 
L 171.972004 265.201255 
L 173.28895 264.813212 
L 174.656702 264.652782 
L 176.010831 264.738858 
L 177.36186 265.082416 
L 178.561385 265.635622 
L 179.661635 266.392728 
L 180.446425 267.16895 
L 181.099814 268.094294 
L 181.604827 269.089087 
L 182.088591 270.655596 
L 182.634192 273.653341 
L 183.210903 277.595377 
L 183.591428 278.535773 
L 184.179143 279.280883 
L 184.94388 279.790038 
L 185.72961 280.025353 
L 186.84173 280.107029 
L 188.021735 279.966119 
L 189.191193 279.628449 
L 190.312767 279.110668 
L 191.326655 278.398065 
L 192.185735 277.496815 
L 193.166938 276.07312 
L 193.923389 274.545967 
L 194.35533 273.149869 
L 194.537638 271.924768 
L 194.556217 270.106622 
L 194.241264 264.252091 
L 193.725196 259.477009 
L 192.877782 254.173973 
L 192.155947 249.276244 
L 191.121625 240.808888 
L 190.940487 237.276039 
L 190.992462 233.725271 
L 191.244028 230.478579 
L 191.745025 226.878962 
L 192.539675 222.900269 
L 193.441301 220.002306 
L 195.342836 215.132941 
L 199.438874 205.456708 
L 201.078677 202.554552 
L 208.91943 189.881845 
L 211.733063 185.802352 
L 214.985423 181.414693 
L 218.283556 177.073239 
L 218.537105 176.272819 
L 218.516874 175.252018 
L 218.297052 174.47742 
L 217.848031 173.543668 
L 210.367293 160.051733 
L 208.040577 156.144382 
L 207.650698 155.880871 
L 206.609997 155.655509 
L 205.537195 155.885878 
L 204.382428 156.442586 
L 202.712787 157.557832 
L 201.336851 158.721876 
L 200.149323 160.01178 
L 199.050876 161.559018 
L 198.006973 163.447413 
L 196.583738 166.672985 
L 195.169348 170.502996 
L 193.246286 175.690593 
L 190.792974 181.303041 
L 188.5636 185.602711 
L 186.646282 188.888798 
L 183.795136 193.227837 
L 179.600713 198.81192 
L 178.728214 199.699924 
L 178.018986 200.142616 
L 177.35609 200.318163 
L 176.77633 200.307819 
L 175.952527 200.019096 
L 175.291284 199.595566 
L 172.548384 197.574043 
L 171.40086 197.076706 
L 170.155511 196.756696 
L 168.833685 196.620899 
L 166.993148 196.676763 
L 159.995412 197.129165 
L 158.171573 196.906751 
L 156.594522 196.524192 
L 155.045072 195.929132 
L 153.55413 195.103422 
L 152.372015 194.22007 
L 151.134621 193.027052 
L 150.052085 191.680141 
L 149.179357 190.181141 
L 148.604909 188.775062 
L 148.154134 186.993566 
L 147.955814 185.335184 
L 147.942166 183.618803 
L 148.190453 181.007938 
L 148.875307 176.884323 
L 150.86412 166.62256 
L 152.83377 157.438225 
L 153.826435 152.429072 
L 154.843601 147.364717 
L 155.749141 143.92278 
L 156.811395 140.939573 
L 158.478927 136.21612 
L 159.310812 134.038467 
L 160.151897 132.451224 
L 161.211101 130.960637 
L 162.456908 129.59901 
L 163.854397 128.429095 
L 165.422934 127.452645 
L 167.412865 126.493757 
L 170.987243 125.079545 
L 175.984297 123.118003 
L 179.129199 121.529692 
L 184.907586 118.308187 
L 185.13732 117.828133 
L 185.243049 117.007202 
L 184.969524 115.725889 
L 184.512955 114.656239 
L 182.090319 110.37347 
L 172.803483 93.845819 
L 170.592764 90.066335 
L 168.993424 87.801582 
L 167.183995 85.671102 
L 164.749847 83.121895 
L 162.63154 81.264228 
L 160.424914 79.637997 
L 157.159999 77.566404 
L 155.28543 76.550128 
L 152.504686 75.245762 
L 149.063817 73.627944 
L 148.490461 73.528162 
L 147.451869 73.729963 
L 146.925635 74.031801 
L 146.159729 74.903208 
L 145.587086 76.040668 
L 145.004936 77.836625 
L 142.99696 85.418214 
L 141.050134 92.375921 
L 139.316191 97.917814 
L 138.350568 102.123801 
L 137.358868 107.424677 
L 136.326809 114.042879 
L 133.248471 134.609942 
L 131.800811 143.569449 
L 129.575021 159.076147 
L 126.776867 180.66579 
L 126.516965 185.562884 
L 126.519049 190.515868 
L 126.755061 195.277165 
L 127.034101 197.293503 
L 127.525998 199.183449 
L 128.270555 201.223424 
L 129.092019 202.887423 
L 130.014715 204.226074 
L 130.999069 205.294123 
L 132.152185 206.22396 
L 133.466869 206.97543 
L 134.932904 207.501664 
L 136.782311 207.901277 
L 146.384481 209.639948 
L 148.645015 210.380158 
L 150.446818 211.210874 
L 152.078335 212.207149 
L 153.678667 213.443552 
L 154.914613 214.654336 
L 155.727538 215.771208 
L 156.089357 216.698784 
L 156.151728 217.530085 
L 155.965099 218.236161 
L 155.531302 218.934766 
L 154.861113 219.579413 
L 150.895229 222.831621 
L 148.905984 224.900976 
L 146.635818 227.633583 
L 144.927571 229.785159 
L 144.116273 230.377144 
L 143.345995 230.654787 
L 142.515025 230.700713 
L 141.687588 230.497132 
L 140.731877 229.958647 
L 138.744818 228.745983 
L 137.184008 228.010271 
L 135.386983 227.419811 
L 132.950877 226.821904 
L 129.034249 226.084133 
L 123.091625 224.972064 
L 121.095061 224.356925 
L 119.649358 223.687244 
L 118.065521 222.68581 
L 116.624371 221.469358 
L 115.298573 220.050596 
L 114.136058 218.428356 
L 113.145876 216.623985 
L 112.454744 214.961537 
L 111.725874 212.619418 
L 111.290623 210.511151 
L 111.030497 208.043504 
L 111.031855 205.875306 
L 111.145451 203.106456 
L 111.291907 198.183387 
L 111.229796 195.152043 
L 110.919036 191.189285 
L 110.373847 187.287322 
L 109.242241 181.634692 
L 108.35116 176.531501 
L 108.069654 173.173436 
L 107.956178 168.622404 
L 108.106433 162.503673 
L 108.342112 156.414577 
L 108.688636 149.673261 
L 108.966263 144.040938 
L 109.261801 137.533549 
L 109.552853 131.190091 
L 110.006339 126.804338 
L 110.787736 119.860229 
L 111.246189 116.030269 
L 112.221322 110.279661 
L 113.684305 102.183859 
L 114.661731 97.830714 
L 115.881416 93.23312 
L 117.530831 87.844866 
L 118.954312 83.797168 
L 120.898012 78.807154 
L 122.244923 75.76882 
L 123.352849 73.884618 
L 126.645188 69.585381 
L 129.719205 66.319321 
L 131.327925 65.498517 
L 131.903745 65.491401 
L 132.559346 65.641964 
L 133.418909 65.995956 
L 136.199247 67.469234 
L 144.307476 71.612241 
L 144.952097 71.68 
L 145.883205 71.482188 
L 146.742666 70.924438 
L 147.236724 70.392536 
L 148.010509 69.190139 
L 148.744416 67.505121 
L 150.49948 62.954318 
L 151.755478 59.686403 
L 152.444476 58.468452 
L 153.285459 57.407774 
L 154.107737 56.661819 
L 155.040981 56.054559 
L 156.067042 55.605004 
L 157.177663 55.300548 
L 158.871499 55.167903 
L 161.844845 55.246692 
L 164.162716 55.517675 
L 167.119287 56.080992 
L 169.463108 56.713744 
L 174.333261 58.353089 
L 183.096608 61.56453 
L 201.885985 69.105479 
L 205.139565 70.741699 
L 209.445385 72.932161 
L 218.742973 77.133573 
L 225.798555 80.201542 
L 230.79289 82.422223 
L 231.973632 83.316758 
L 232.882908 84.497043 
L 233.279878 85.309765 
L 233.769768 87.202659 
L 236.185769 98.40961 
L 239.1292 112.135879 
L 239.771509 116.768776 
L 240.201341 121.426123 
L 240.420679 126.988933 
L 240.575843 132.652848 
L 241.068046 143.793058 
L 241.534832 146.305233 
L 244.062791 158.676153 
L 244.215667 160.075421 
L 244.031174 161.226249 
L 243.700107 161.990528 
L 243.154786 162.715184 
L 242.395691 163.327502 
L 241.262985 163.900272 
L 236.918482 165.820666 
L 229.296483 169.73859 
L 223.872773 172.711834 
L 221.199589 174.203565 
L 220.418332 174.377078 
L 219.76939 174.388338 
L 218.840824 174.139085 
L 218.24284 173.798208 
L 217.467912 172.986198 
L 216.635976 171.462266 
L 214.269612 166.995766 
L 209.173156 157.967585 
L 182.274635 111.015423 
L 176.180736 100.348837 
L 170.906523 91.121955 
L 169.187168 88.537167 
L 167.467788 86.328939 
L 165.781398 84.496993 
L 162.927914 81.873165 
L 160.781879 80.162401 
L 157.954954 78.286358 
L 154.499217 76.31953 
L 146.197929 71.964759 
L 138.293535 67.903032 
L 133.958665 65.458564 
L 132.036568 64.112542 
L 129.965917 62.357707 
L 125.939925 58.653758 
L 125.939925 58.653758 
" style="fill:none;stroke:#008000;stroke-linecap:square;stroke-width:1.5;"/>
   </g>
   <g id="line2d_14">
    <path clip-path="url(#p3454893315)" d="M 92.280848 289.016973 
L 92.150503 281.478465 
L 92.105557 275.853625 
L 92.277368 273.562784 
L 92.639957 272.012728 
L 93.10207 270.852881 
L 93.731313 269.827319 
L 94.662412 268.797544 
L 95.381639 268.231334 
L 96.414734 267.667035 
L 97.561487 267.309055 
L 98.77566 267.173519 
L 100.522801 267.239069 
L 106.545209 267.85216 
L 119.602801 269.319288 
L 122.09794 269.66926 
L 124.202635 270.185091 
L 126.200755 270.931457 
L 128.111374 271.896789 
L 129.675806 272.934363 
L 131.138734 274.169531 
L 132.248482 275.365968 
L 133.372391 276.989973 
L 134.281056 278.732104 
L 135.133628 280.863405 
L 137.889085 288.123725 
L 138.988515 290.08364 
L 139.898699 291.359273 
L 140.930013 292.490282 
L 142.092115 293.442226 
L 143.357441 294.216215 
L 144.930312 294.975593 
L 146.393008 295.191609 
L 147.861499 295.145542 
L 149.315824 294.865135 
L 150.731625 294.359987 
L 152.062771 293.630652 
L 153.52656 292.490899 
L 154.856166 291.155532 
L 156.027048 289.642129 
L 157.236079 287.692348 
L 159.145804 284.117364 
L 164.836439 272.501756 
L 166.406423 269.123734 
L 167.339551 267.556078 
L 168.449601 266.147595 
L 169.528394 265.174745 
L 170.720391 264.426772 
L 171.998012 263.910569 
L 173.337904 263.618497 
L 174.706979 263.57617 
L 176.071464 263.783722 
L 177.33659 264.22511 
L 178.480522 264.885741 
L 179.313096 265.581427 
L 180.218636 266.657541 
L 180.89797 267.874786 
L 181.346595 269.159503 
L 181.886012 271.595136 
L 182.933931 276.90203 
L 183.336338 277.570875 
L 183.872991 278.09921 
L 184.68958 278.539086 
L 185.730442 278.747775 
L 186.877488 278.71443 
L 188.052149 278.466996 
L 189.203226 278.0336 
L 190.282927 277.430271 
L 191.23885 276.622008 
L 192.026347 275.659294 
L 192.929906 274.195538 
L 193.512034 272.854568 
L 193.896661 271.439301 
L 194.048996 269.944832 
L 193.971566 267.818668 
L 193.601523 263.421418 
L 193.059903 258.976814 
L 191.752521 251.213323 
L 190.256871 241.304129 
L 189.893017 237.466647 
L 189.791055 233.921991 
L 189.9356 229.706985 
L 190.332537 226.103553 
L 190.856208 223.126237 
L 191.599638 220.147849 
L 192.698756 216.672314 
L 195.360183 209.600037 
L 197.342455 204.752664 
L 198.704587 202.123217 
L 201.768569 196.98822 
L 209.996526 183.84498 
L 213.136497 179.437558 
L 216.362522 174.833158 
L 216.486126 174.011032 
L 216.368372 173.094668 
L 216.009829 172.160788 
L 213.757805 168.14683 
L 205.827616 154.508928 
L 205.236896 154.103429 
L 204.603878 153.923959 
L 203.86593 153.939272 
L 203.081476 154.184372 
L 201.922858 154.801069 
L 200.269692 155.948 
L 198.921104 157.143218 
L 197.636505 158.596249 
L 196.668041 159.998518 
L 195.539461 162.086443 
L 194.352361 164.741318 
L 193.128624 168.038858 
L 190.92605 173.951475 
L 188.35702 179.76992 
L 185.98911 184.299166 
L 184.18319 187.372555 
L 181.04431 192.119354 
L 178.089522 196.137631 
L 176.886407 197.591267 
L 176.098434 198.247212 
L 175.479509 198.538779 
L 174.783645 198.644954 
L 174.06989 198.526829 
L 173.264012 198.104326 
L 171.902115 197.033023 
L 170.590681 196.134175 
L 169.463801 195.605861 
L 168.238552 195.255062 
L 166.711481 195.068208 
L 165.118463 195.09837 
L 161.340349 195.493781 
L 158.806046 195.703635 
L 156.974129 195.645983 
L 154.923503 195.321717 
L 153.133436 194.757434 
L 151.608854 194.017057 
L 150.191713 193.036975 
L 148.923574 191.874949 
L 147.808812 190.552672 
L 147.018171 189.294969 
L 146.280397 187.694308 
L 145.835887 186.199631 
L 145.538556 184.299767 
L 145.487906 182.300556 
L 145.686045 179.983129 
L 146.236298 176.153101 
L 148.306124 163.998311 
L 151.90855 145.104473 
L 152.681537 142.215558 
L 154.567661 136.724249 
L 156.453993 131.608176 
L 157.398816 130.060628 
L 158.37533 128.819167 
L 159.670669 127.515602 
L 160.900471 126.554866 
L 162.745942 125.470474 
L 164.799597 124.523507 
L 168.955537 122.836979 
L 171.985953 121.58102 
L 176.290021 119.371453 
L 180.310709 117.23361 
L 181.159783 116.692498 
L 181.515018 116.167973 
L 181.685973 115.418243 
L 181.608675 114.656322 
L 181.234162 113.479177 
L 180.579824 112.20894 
L 175.327854 103.274394 
L 166.179068 87.846225 
L 164.717401 85.900036 
L 162.853786 83.8184 
L 160.866974 81.821636 
L 158.739744 79.970721 
L 156.791655 78.539795 
L 154.288049 76.948865 
L 151.0703 75.125984 
L 145.198041 72.181972 
L 144.331968 72.020524 
L 143.579267 72.103648 
L 142.877626 72.42214 
L 142.277658 72.961265 
L 141.798717 73.662323 
L 141.343354 74.686713 
L 140.727693 76.749523 
L 138.202249 86.473752 
L 137.034325 90.586349 
L 135.300277 96.116814 
L 134.482811 99.668521 
L 133.374709 105.623262 
L 132.153943 113.858789 
L 130.330444 127.009829 
L 127.563452 146.913138 
L 123.449754 178.014934 
L 123.15073 183.568309 
L 123.149656 188.276407 
L 123.335333 192.869949 
L 123.650472 195.710139 
L 124.130562 197.605227 
L 124.948751 199.880502 
L 125.773148 201.543494 
L 126.699671 202.879503 
L 127.69497 203.936774 
L 128.846996 204.867854 
L 130.164469 205.61442 
L 131.634522 206.129067 
L 133.761267 206.565032 
L 143.115872 208.162559 
L 145.385575 208.886159 
L 147.196435 209.705166 
L 149.053153 210.842776 
L 150.626902 212.066594 
L 151.815618 213.270231 
L 152.506792 214.237966 
L 152.841931 215.03103 
L 152.948565 215.857426 
L 152.818402 216.565873 
L 152.441642 217.272043 
L 151.826317 217.929001 
L 150.118518 219.266274 
L 148.157558 220.966047 
L 146.379256 222.779928 
L 144.346899 225.164735 
L 141.344177 228.766823 
L 140.615974 229.128371 
L 139.803755 229.276586 
L 138.96986 229.180574 
L 138.14731 228.843296 
L 134.546865 226.883562 
L 133.057919 226.362349 
L 130.652031 225.738812 
L 126.734952 225.012545 
L 119.686667 223.774213 
L 117.690855 223.156979 
L 116.007196 222.356261 
L 114.442747 221.328354 
L 113.002284 220.078732 
L 111.694448 218.629902 
L 110.550551 216.971474 
L 109.57139 215.1408 
L 108.790471 213.169906 
L 108.181932 211.111147 
L 107.722019 208.685775 
L 107.501609 206.209736 
L 107.403963 202.202235 
L 107.281326 193.323366 
L 106.951529 189.980374 
L 106.556672 187.282459 
L 105.765212 183.426277 
L 104.32687 176.587063 
L 103.971744 173.831948 
L 103.736458 169.88899 
L 103.656249 165.333072 
L 103.699004 161.021069 
L 103.767123 157.824557 
L 104.170567 148.493719 
L 104.338319 143.176007 
L 104.537563 136.97428 
L 104.784895 129.730497 
L 105.324989 124.515834 
L 105.74026 119.796059 
L 106.121604 114.85134 
L 107.348983 106.277568 
L 108.115186 101.546945 
L 109.051304 97.181315 
L 110.198473 92.563263 
L 111.711569 87.450228 
L 113.68138 81.658516 
L 115.446522 76.990709 
L 116.802465 73.97309 
L 118.043153 71.882861 
L 119.95867 69.333671 
L 121.874436 67.104536 
L 124.121239 64.753979 
L 124.825298 64.379148 
L 125.546259 64.245784 
L 126.288595 64.317932 
L 127.128602 64.592773 
L 129.252532 65.689133 
L 138.048674 70.141411 
L 138.851117 70.25803 
L 139.64245 70.151703 
L 140.381937 69.801807 
L 141.038436 69.207743 
L 141.71335 68.252016 
L 142.380703 66.888959 
L 144.190822 62.192255 
L 145.672003 58.18784 
L 146.34851 56.966413 
L 147.180519 55.902135 
L 148.164236 55.002191 
L 149.303344 54.300515 
L 150.56662 53.833183 
L 151.965818 53.61364 
L 153.747105 53.577618 
L 157.118771 53.86416 
L 160.06132 54.333804 
L 163.010188 55.017461 
L 165.888488 55.899678 
L 172.652898 58.212813 
L 176.965377 59.803161 
L 197.757485 68.088523 
L 205.015519 71.646113 
L 225.089543 80.512741 
L 225.910632 81.176941 
L 226.722092 82.15888 
L 227.2371 83.166711 
L 227.642182 84.560987 
L 228.604485 89.135739 
L 230.738488 98.492656 
L 232.722586 107.086773 
L 233.445449 111.305897 
L 234.121151 116.646409 
L 234.445376 120.9211 
L 235.389615 141.344389 
L 235.85993 143.856658 
L 237.848061 153.427513 
L 238.630184 158.265232 
L 238.371753 159.391368 
L 237.961819 160.147797 
L 237.189858 160.952554 
L 236.32255 161.489807 
L 234.472341 162.294219 
L 231.665453 163.586347 
L 226.961424 166.047289 
L 220.437399 169.603871 
L 217.432551 171.396677 
L 216.003121 172.17375 
L 215.231061 172.389434 
L 214.429957 172.437271 
L 213.645042 172.264003 
L 212.898376 171.856448 
L 212.237342 171.198063 
L 211.576211 170.14759 
L 208.214443 164.002658 
L 198.375088 146.829969 
L 194.851767 140.682978 
L 186.055769 125.231027 
L 165.147645 88.934946 
L 162.764772 85.524676 
L 160.951512 83.365309 
L 159.205645 81.565831 
L 156.868059 79.48048 
L 154.664559 77.844135 
L 152.097299 76.206735 
L 147.770872 73.817021 
L 136.529488 68.038155 
L 130.411071 64.788119 
L 128.136944 63.40799 
L 126.225282 62.034456 
L 123.913561 60.031617 
L 120.41541 56.767267 
L 120.41541 56.767267 
" style="fill:none;stroke:#0000ff;stroke-linecap:square;stroke-width:1.5;"/>
   </g>
   <g id="line2d_15">
    <path clip-path="url(#p3454893315)" d="M 92.280848 289.016973 
L 92.242129 279.707547 
L 92.23127 274.681253 
L 92.467365 272.497135 
L 92.901521 270.791807 
L 93.489071 269.494894 
L 94.12641 268.548337 
L 95.091649 267.584988 
L 96.062304 266.935801 
L 97.152203 266.441786 
L 98.777382 265.971493 
L 104.651932 264.420874 
L 116.630488 261.518619 
L 120.487943 260.605667 
L 123.155921 260.265143 
L 125.519156 260.165573 
L 127.651778 260.258172 
L 129.828624 260.597404 
L 132.664079 261.43178 
L 134.201428 262.002572 
L 137.78789 263.642016 
L 141.34986 265.221919 
L 145.780757 267.102004 
L 152.013059 269.399061 
L 152.14025 269.283188 
L 152.392987 269.364628 
L 152.375857 269.60312 
L 153.682005 269.772558 
L 154.665617 269.724172 
L 155.80911 269.420555 
L 156.864738 268.881752 
L 157.791627 268.125078 
L 158.617207 267.157704 
L 159.864222 265.000272 
L 160.82767 262.438456 
L 162.849059 258.66442 
L 172.686921 239.31091 
L 173.64874 238.080581 
L 174.116383 237.794532 
L 174.454923 237.799295 
L 174.790944 238.040512 
L 175.152498 238.562847 
L 175.543807 239.534256 
L 176.262642 242.36142 
L 177.080061 246.950605 
L 177.058317 247.819468 
L 176.903728 248.247166 
L 176.716225 248.283181 
L 176.388559 248.063662 
L 175.454359 247.127875 
L 174.60262 245.975353 
L 173.749758 244.410991 
L 172.758958 242.253443 
L 172.127246 240.423806 
L 171.573233 237.981335 
L 170.469501 231.863929 
L 167.76315 216.719607 
L 167.75519 216.121529 
L 166.111047 208.574079 
L 164.628535 202.769034 
L 162.974755 197.246097 
L 161.132143 191.928416 
L 159.326983 187.322339 
L 154.574329 176.271125 
L 151.599758 170.06117 
L 141.875397 150.385029 
L 139.909843 146.857516 
L 138.576655 144.424952 
L 138.281473 143.420832 
L 138.267927 142.649399 
L 139.102322 140.511486 
L 139.641067 139.207946 
L 140.858742 136.136585 
L 143.335137 129.832013 
L 143.592168 129.58542 
L 144.076498 129.449404 
L 144.638376 129.509221 
L 145.426497 129.84079 
L 146.962971 130.85087 
L 149.008105 132.419741 
L 150.74508 133.990532 
L 152.559842 135.932235 
L 155.215869 139.214078 
L 159.07087 144.229659 
L 159.927853 145.550108 
L 160.541935 146.332472 
L 166.724915 153.847651 
L 179.006109 167.924523 
L 180.105576 168.785002 
L 180.929419 169.135876 
L 181.633484 169.169431 
L 182.675184 168.728631 
L 183.445253 168.464973 
L 184.336987 168.483273 
L 185.192545 168.745017 
L 186.210958 169.271657 
L 194.060727 174.272301 
L 194.647186 174.375773 
L 195.194136 174.353203 
L 195.616625 174.114299 
L 196.027275 173.612287 
L 196.482409 172.603927 
L 196.894417 170.749034 
L 197.721256 165.815437 
L 198.562303 158.360364 
L 198.579175 154.124033 
L 197.984441 145.056728 
L 197.013333 138.332627 
L 196.279709 134.675921 
L 194.447039 127.076304 
L 194.260962 126.537874 
L 194.244065 126.776208 
L 194.55464 139.073195 
L 194.45913 145.792234 
L 194.52603 146.638155 
L 194.678351 152.14858 
L 194.663377 155.318839 
L 194.660398 161.336024 
L 194.828523 168.278928 
L 195.20048 169.279771 
L 195.80974 170.136334 
L 196.539975 170.722807 
L 197.471391 171.178474 
L 199.853291 172.028065 
L 208.191262 174.797647 
L 210.788796 175.473528 
L 220.289619 177.592735 
L 223.914697 178.338587 
L 224.231069 178.50646 
L 225.745481 178.792552 
L 226.090797 179.015364 
L 231.167145 179.841714 
L 231.311148 180.069574 
L 232.945814 180.117824 
L 234.450763 180.114483 
L 241.979395 181.023391 
L 242.355523 180.904518 
L 251.440192 182.165723 
L 251.538873 182.346353 
L 255.904888 182.78538 
L 261.601083 183.014942 
L 263.472491 182.947743 
L 264.719713 182.672892 
L 266.562132 182.057945 
L 267.65725 181.443164 
L 268.787011 180.499581 
L 268.994642 180.169119 
L 269.956083 179.23514 
L 271.37118 177.452267 
L 273.984044 174.115236 
L 279.677928 167.088884 
L 281.292471 164.961808 
L 281.756977 164.728737 
L 281.937154 164.924542 
L 282.216118 165.68074 
L 282.445999 167.22058 
L 282.960965 173.445406 
L 283.131257 179.093854 
L 283.194081 181.035615 
L 283.244441 183.499108 
L 283.046494 186.026252 
L 282.224144 191.028425 
L 280.300329 201.215091 
L 279.190368 207.081749 
L 279.061674 208.622712 
L 278.915297 212.78475 
L 278.865289 213.180844 
L 278.568896 215.389798 
L 278.197364 216.818025 
L 277.469066 218.922989 
L 276.608071 221.19087 
L 275.651298 223.180085 
L 274.447847 225.212158 
L 272.642894 227.589353 
L 271.468311 228.834182 
L 269.735804 230.377584 
L 267.608289 231.869578 
L 264.897872 233.183446 
L 262.521977 233.922581 
L 260.758692 234.282964 
L 258.907883 234.461897 
L 256.20707 234.275104 
L 253.081779 233.608847 
L 252.556326 233.270609 
L 251.180833 231.937293 
L 250.811695 231.289261 
L 250.912319 230.912633 
L 251.386623 230.262935 
L 253.264894 228.407491 
L 259.498928 222.244301 
L 260.250654 221.304863 
L 260.553134 220.643839 
L 260.578981 220.140864 
L 260.360133 219.730983 
L 260.065874 219.585309 
L 259.287614 219.238736 
L 252.765214 216.710114 
L 251.959726 216.09829 
L 251.384118 215.435382 
L 250.957526 214.579958 
L 250.732598 213.385593 
L 250.77151 212.181797 
L 251.18699 209.347408 
L 252.054666 205.070493 
L 254.420596 194.670084 
L 256.768157 185.139928 
L 257.44351 182.526137 
L 259.121142 176.411563 
L 261.235738 168.218546 
L 262.079219 165.440601 
L 264.498521 156.6146 
L 265.661149 151.392026 
L 265.881801 150.345746 
L 266.910426 145.742282 
L 267.153971 144.383109 
L 268.334966 138.766896 
L 268.634514 138.205113 
L 268.806948 138.08645 
L 269.56864 138.335117 
L 270.003506 137.367962 
L 270.149258 137.205781 
L 270.191462 137.422113 
L 270.533979 137.066829 
L 270.894859 136.789987 
L 273.658877 133.329368 
L 281.88814 122.435043 
L 282.075631 122.17857 
L 282.554612 121.79864 
L 286.090309 116.937518 
L 292.279591 109.119898 
L 301.56367 97.883221 
L 305.751769 92.481857 
L 307.001741 90.749944 
L 307.271069 90.584743 
L 314.433048 80.087386 
L 315.525936 79.247591 
L 316.213775 78.881171 
L 316.345514 78.859276 
L 316.252826 78.975884 
L 316.201804 79.310438 
L 316.328556 79.408484 
L 316.50778 79.346239 
L 316.782102 79.593549 
L 316.75087 79.771221 
L 316.850205 79.935248 
L 318.26837 79.862432 
L 326.246433 79.962096 
L 331.156296 79.854793 
L 331.976729 79.737629 
L 334.586522 79.641611 
L 339.952449 79.467118 
L 340.690475 79.704546 
L 341.515207 80.178955 
L 342.168326 80.969475 
L 342.560268 81.804332 
L 342.929225 83.186048 
L 348.81111 108.345845 
L 349.059661 108.591824 
L 355.593219 139.864711 
L 357.423252 151.002845 
L 357.561914 151.976992 
L 359.593858 163.584794 
L 359.80467 164.947637 
L 360.938303 170.693918 
L 361.813576 174.336534 
L 362.842141 177.675185 
L 364.842897 183.315052 
L 368.500881 193.43163 
L 373.4937 206.130792 
L 374.99336 209.436225 
L 375.384088 210.343148 
L 375.589405 210.971859 
L 376.690833 213.387943 
L 377.229616 214.964063 
L 377.314994 215.28453 
L 377.268706 215.621131 
L 379.493678 221.622477 
L 380.229776 223.137453 
L 380.229776 223.137453 
" style="fill:none;stroke:#ff0000;stroke-linecap:square;stroke-width:1.5;"/>
   </g>
   <g id="patch_3">
    <path d="M 57.6 307.584 
L 57.6 41.472 
" style="fill:none;stroke:#000000;stroke-linecap:square;stroke-linejoin:miter;stroke-width:0.8;"/>
   </g>
   <g id="patch_4">
    <path d="M 414.72 307.584 
L 414.72 41.472 
" style="fill:none;stroke:#000000;stroke-linecap:square;stroke-linejoin:miter;stroke-width:0.8;"/>
   </g>
   <g id="patch_5">
    <path d="M 57.6 307.584 
L 414.72 307.584 
" style="fill:none;stroke:#000000;stroke-linecap:square;stroke-linejoin:miter;stroke-width:0.8;"/>
   </g>
   <g id="patch_6">
    <path d="M 57.6 41.472 
L 414.72 41.472 
" style="fill:none;stroke:#000000;stroke-linecap:square;stroke-linejoin:miter;stroke-width:0.8;"/>
   </g>
  </g>
 </g>
 <defs>
  <clipPath id="p3454893315">
   <rect height="266.112" width="357.12" x="57.6" y="41.472"/>
  </clipPath>
 </defs>
</svg>
