<?xml version="1.0" encoding="utf-8" standalone="no"?>
<!DOCTYPE svg PUBLIC "-//W3C//DTD SVG 1.1//EN"
  "http://www.w3.org/Graphics/SVG/1.1/DTD/svg11.dtd">
<!-- Created with matplotlib (https://matplotlib.org/) -->
<svg height="345.6pt" version="1.1" viewBox="0 0 460.8 345.6" width="460.8pt" xmlns="http://www.w3.org/2000/svg" xmlns:xlink="http://www.w3.org/1999/xlink">
 <defs>
  <style type="text/css">
*{stroke-linecap:butt;stroke-linejoin:round;}
  </style>
 </defs>
 <g id="figure_1">
  <g id="patch_1">
   <path d="M 0 345.6 
L 460.8 345.6 
L 460.8 0 
L 0 0 
z
" style="fill:#ffffff;"/>
  </g>
  <g id="axes_1">
   <g id="patch_2">
    <path d="M 57.6 307.584 
L 414.72 307.584 
L 414.72 41.472 
L 57.6 41.472 
z
" style="fill:#ffffff;"/>
   </g>
   <g id="matplotlib.axis_1">
    <g id="xtick_1">
     <g id="line2d_1">
      <defs>
       <path d="M 0 0 
L 0 3.5 
" id="m462719dd8e" style="stroke:#000000;stroke-width:0.8;"/>
      </defs>
      <g>
       <use style="stroke:#000000;stroke-width:0.8;" x="74.410473" xlink:href="#m462719dd8e" y="307.584"/>
      </g>
     </g>
     <g id="text_1">
      <!-- −40 -->
      <defs>
       <path d="M 10.59375 35.5 
L 73.1875 35.5 
L 73.1875 27.203125 
L 10.59375 27.203125 
z
" id="DejaVuSans-8722"/>
       <path d="M 37.796875 64.3125 
L 12.890625 25.390625 
L 37.796875 25.390625 
z
M 35.203125 72.90625 
L 47.609375 72.90625 
L 47.609375 25.390625 
L 58.015625 25.390625 
L 58.015625 17.1875 
L 47.609375 17.1875 
L 47.609375 0 
L 37.796875 0 
L 37.796875 17.1875 
L 4.890625 17.1875 
L 4.890625 26.703125 
z
" id="DejaVuSans-52"/>
       <path d="M 31.78125 66.40625 
Q 24.171875 66.40625 20.328125 58.90625 
Q 16.5 51.421875 16.5 36.375 
Q 16.5 21.390625 20.328125 13.890625 
Q 24.171875 6.390625 31.78125 6.390625 
Q 39.453125 6.390625 43.28125 13.890625 
Q 47.125 21.390625 47.125 36.375 
Q 47.125 51.421875 43.28125 58.90625 
Q 39.453125 66.40625 31.78125 66.40625 
z
M 31.78125 74.21875 
Q 44.046875 74.21875 50.515625 64.515625 
Q 56.984375 54.828125 56.984375 36.375 
Q 56.984375 17.96875 50.515625 8.265625 
Q 44.046875 -1.421875 31.78125 -1.421875 
Q 19.53125 -1.421875 13.0625 8.265625 
Q 6.59375 17.96875 6.59375 36.375 
Q 6.59375 54.828125 13.0625 64.515625 
Q 19.53125 74.21875 31.78125 74.21875 
z
" id="DejaVuSans-48"/>
      </defs>
      <g transform="translate(63.858129 322.182437)scale(0.1 -0.1)">
       <use xlink:href="#DejaVuSans-8722"/>
       <use x="83.789062" xlink:href="#DejaVuSans-52"/>
       <use x="147.412109" xlink:href="#DejaVuSans-48"/>
      </g>
     </g>
    </g>
    <g id="xtick_2">
     <g id="line2d_2">
      <g>
       <use style="stroke:#000000;stroke-width:0.8;" x="117.327018" xlink:href="#m462719dd8e" y="307.584"/>
      </g>
     </g>
     <g id="text_2">
      <!-- −30 -->
      <defs>
       <path d="M 40.578125 39.3125 
Q 47.65625 37.796875 51.625 33 
Q 55.609375 28.21875 55.609375 21.1875 
Q 55.609375 10.40625 48.1875 4.484375 
Q 40.765625 -1.421875 27.09375 -1.421875 
Q 22.515625 -1.421875 17.65625 -0.515625 
Q 12.796875 0.390625 7.625 2.203125 
L 7.625 11.71875 
Q 11.71875 9.328125 16.59375 8.109375 
Q 21.484375 6.890625 26.8125 6.890625 
Q 36.078125 6.890625 40.9375 10.546875 
Q 45.796875 14.203125 45.796875 21.1875 
Q 45.796875 27.640625 41.28125 31.265625 
Q 36.765625 34.90625 28.71875 34.90625 
L 20.21875 34.90625 
L 20.21875 43.015625 
L 29.109375 43.015625 
Q 36.375 43.015625 40.234375 45.921875 
Q 44.09375 48.828125 44.09375 54.296875 
Q 44.09375 59.90625 40.109375 62.90625 
Q 36.140625 65.921875 28.71875 65.921875 
Q 24.65625 65.921875 20.015625 65.03125 
Q 15.375 64.15625 9.8125 62.3125 
L 9.8125 71.09375 
Q 15.4375 72.65625 20.34375 73.4375 
Q 25.25 74.21875 29.59375 74.21875 
Q 40.828125 74.21875 47.359375 69.109375 
Q 53.90625 64.015625 53.90625 55.328125 
Q 53.90625 49.265625 50.4375 45.09375 
Q 46.96875 40.921875 40.578125 39.3125 
z
" id="DejaVuSans-51"/>
      </defs>
      <g transform="translate(106.774674 322.182437)scale(0.1 -0.1)">
       <use xlink:href="#DejaVuSans-8722"/>
       <use x="83.789062" xlink:href="#DejaVuSans-51"/>
       <use x="147.412109" xlink:href="#DejaVuSans-48"/>
      </g>
     </g>
    </g>
    <g id="xtick_3">
     <g id="line2d_3">
      <g>
       <use style="stroke:#000000;stroke-width:0.8;" x="160.243563" xlink:href="#m462719dd8e" y="307.584"/>
      </g>
     </g>
     <g id="text_3">
      <!-- −20 -->
      <defs>
       <path d="M 19.1875 8.296875 
L 53.609375 8.296875 
L 53.609375 0 
L 7.328125 0 
L 7.328125 8.296875 
Q 12.9375 14.109375 22.625 23.890625 
Q 32.328125 33.6875 34.8125 36.53125 
Q 39.546875 41.84375 41.421875 45.53125 
Q 43.3125 49.21875 43.3125 52.78125 
Q 43.3125 58.59375 39.234375 62.25 
Q 35.15625 65.921875 28.609375 65.921875 
Q 23.96875 65.921875 18.8125 64.3125 
Q 13.671875 62.703125 7.8125 59.421875 
L 7.8125 69.390625 
Q 13.765625 71.78125 18.9375 73 
Q 24.125 74.21875 28.421875 74.21875 
Q 39.75 74.21875 46.484375 68.546875 
Q 53.21875 62.890625 53.21875 53.421875 
Q 53.21875 48.921875 51.53125 44.890625 
Q 49.859375 40.875 45.40625 35.40625 
Q 44.1875 33.984375 37.640625 27.21875 
Q 31.109375 20.453125 19.1875 8.296875 
z
" id="DejaVuSans-50"/>
      </defs>
      <g transform="translate(149.691219 322.182437)scale(0.1 -0.1)">
       <use xlink:href="#DejaVuSans-8722"/>
       <use x="83.789062" xlink:href="#DejaVuSans-50"/>
       <use x="147.412109" xlink:href="#DejaVuSans-48"/>
      </g>
     </g>
    </g>
    <g id="xtick_4">
     <g id="line2d_4">
      <g>
       <use style="stroke:#000000;stroke-width:0.8;" x="203.160108" xlink:href="#m462719dd8e" y="307.584"/>
      </g>
     </g>
     <g id="text_4">
      <!-- −10 -->
      <defs>
       <path d="M 12.40625 8.296875 
L 28.515625 8.296875 
L 28.515625 63.921875 
L 10.984375 60.40625 
L 10.984375 69.390625 
L 28.421875 72.90625 
L 38.28125 72.90625 
L 38.28125 8.296875 
L 54.390625 8.296875 
L 54.390625 0 
L 12.40625 0 
z
" id="DejaVuSans-49"/>
      </defs>
      <g transform="translate(192.607764 322.182437)scale(0.1 -0.1)">
       <use xlink:href="#DejaVuSans-8722"/>
       <use x="83.789062" xlink:href="#DejaVuSans-49"/>
       <use x="147.412109" xlink:href="#DejaVuSans-48"/>
      </g>
     </g>
    </g>
    <g id="xtick_5">
     <g id="line2d_5">
      <g>
       <use style="stroke:#000000;stroke-width:0.8;" x="246.076653" xlink:href="#m462719dd8e" y="307.584"/>
      </g>
     </g>
     <g id="text_5">
      <!-- 0 -->
      <g transform="translate(242.895403 322.182437)scale(0.1 -0.1)">
       <use xlink:href="#DejaVuSans-48"/>
      </g>
     </g>
    </g>
    <g id="xtick_6">
     <g id="line2d_6">
      <g>
       <use style="stroke:#000000;stroke-width:0.8;" x="288.993198" xlink:href="#m462719dd8e" y="307.584"/>
      </g>
     </g>
     <g id="text_6">
      <!-- 10 -->
      <g transform="translate(282.630698 322.182437)scale(0.1 -0.1)">
       <use xlink:href="#DejaVuSans-49"/>
       <use x="63.623047" xlink:href="#DejaVuSans-48"/>
      </g>
     </g>
    </g>
    <g id="xtick_7">
     <g id="line2d_7">
      <g>
       <use style="stroke:#000000;stroke-width:0.8;" x="331.909743" xlink:href="#m462719dd8e" y="307.584"/>
      </g>
     </g>
     <g id="text_7">
      <!-- 20 -->
      <g transform="translate(325.547243 322.182437)scale(0.1 -0.1)">
       <use xlink:href="#DejaVuSans-50"/>
       <use x="63.623047" xlink:href="#DejaVuSans-48"/>
      </g>
     </g>
    </g>
    <g id="xtick_8">
     <g id="line2d_8">
      <g>
       <use style="stroke:#000000;stroke-width:0.8;" x="374.826288" xlink:href="#m462719dd8e" y="307.584"/>
      </g>
     </g>
     <g id="text_8">
      <!-- 30 -->
      <g transform="translate(368.463788 322.182437)scale(0.1 -0.1)">
       <use xlink:href="#DejaVuSans-51"/>
       <use x="63.623047" xlink:href="#DejaVuSans-48"/>
      </g>
     </g>
    </g>
   </g>
   <g id="matplotlib.axis_2">
    <g id="ytick_1">
     <g id="line2d_9">
      <defs>
       <path d="M 0 0 
L -3.5 0 
" id="mffa5b04a96" style="stroke:#000000;stroke-width:0.8;"/>
      </defs>
      <g>
       <use style="stroke:#000000;stroke-width:0.8;" x="57.6" xlink:href="#mffa5b04a96" y="295.488"/>
      </g>
     </g>
     <g id="text_9">
      <!-- 0 -->
      <g transform="translate(44.2375 299.287219)scale(0.1 -0.1)">
       <use xlink:href="#DejaVuSans-48"/>
      </g>
     </g>
    </g>
    <g id="ytick_2">
     <g id="line2d_10">
      <g>
       <use style="stroke:#000000;stroke-width:0.8;" x="57.6" xlink:href="#mffa5b04a96" y="252.571455"/>
      </g>
     </g>
     <g id="text_10">
      <!-- 10 -->
      <g transform="translate(37.875 256.370674)scale(0.1 -0.1)">
       <use xlink:href="#DejaVuSans-49"/>
       <use x="63.623047" xlink:href="#DejaVuSans-48"/>
      </g>
     </g>
    </g>
    <g id="ytick_3">
     <g id="line2d_11">
      <g>
       <use style="stroke:#000000;stroke-width:0.8;" x="57.6" xlink:href="#mffa5b04a96" y="209.65491"/>
      </g>
     </g>
     <g id="text_11">
      <!-- 20 -->
      <g transform="translate(37.875 213.454129)scale(0.1 -0.1)">
       <use xlink:href="#DejaVuSans-50"/>
       <use x="63.623047" xlink:href="#DejaVuSans-48"/>
      </g>
     </g>
    </g>
    <g id="ytick_4">
     <g id="line2d_12">
      <g>
       <use style="stroke:#000000;stroke-width:0.8;" x="57.6" xlink:href="#mffa5b04a96" y="166.738365"/>
      </g>
     </g>
     <g id="text_12">
      <!-- 30 -->
      <g transform="translate(37.875 170.537584)scale(0.1 -0.1)">
       <use xlink:href="#DejaVuSans-51"/>
       <use x="63.623047" xlink:href="#DejaVuSans-48"/>
      </g>
     </g>
    </g>
    <g id="ytick_5">
     <g id="line2d_13">
      <g>
       <use style="stroke:#000000;stroke-width:0.8;" x="57.6" xlink:href="#mffa5b04a96" y="123.82182"/>
      </g>
     </g>
     <g id="text_13">
      <!-- 40 -->
      <g transform="translate(37.875 127.621039)scale(0.1 -0.1)">
       <use xlink:href="#DejaVuSans-52"/>
       <use x="63.623047" xlink:href="#DejaVuSans-48"/>
      </g>
     </g>
    </g>
    <g id="ytick_6">
     <g id="line2d_14">
      <g>
       <use style="stroke:#000000;stroke-width:0.8;" x="57.6" xlink:href="#mffa5b04a96" y="80.905275"/>
      </g>
     </g>
     <g id="text_14">
      <!-- 50 -->
      <defs>
       <path d="M 10.796875 72.90625 
L 49.515625 72.90625 
L 49.515625 64.59375 
L 19.828125 64.59375 
L 19.828125 46.734375 
Q 21.96875 47.46875 24.109375 47.828125 
Q 26.265625 48.1875 28.421875 48.1875 
Q 40.625 48.1875 47.75 41.5 
Q 54.890625 34.8125 54.890625 23.390625 
Q 54.890625 11.625 47.5625 5.09375 
Q 40.234375 -1.421875 26.90625 -1.421875 
Q 22.3125 -1.421875 17.546875 -0.640625 
Q 12.796875 0.140625 7.71875 1.703125 
L 7.71875 11.625 
Q 12.109375 9.234375 16.796875 8.0625 
Q 21.484375 6.890625 26.703125 6.890625 
Q 35.15625 6.890625 40.078125 11.328125 
Q 45.015625 15.765625 45.015625 23.390625 
Q 45.015625 31 40.078125 35.4375 
Q 35.15625 39.890625 26.703125 39.890625 
Q 22.75 39.890625 18.8125 39.015625 
Q 14.890625 38.140625 10.796875 36.28125 
z
" id="DejaVuSans-53"/>
      </defs>
      <g transform="translate(37.875 84.704494)scale(0.1 -0.1)">
       <use xlink:href="#DejaVuSans-53"/>
       <use x="63.623047" xlink:href="#DejaVuSans-48"/>
      </g>
     </g>
    </g>
   </g>
   <g id="line2d_15">
    <path clip-path="url(#p8cdeab9c79)" d="M 246.076653 295.488 
L 245.875362 291.802781 
L 245.674338 288.12234 
L 245.473062 284.437143 
L 245.272028 280.756259 
L 245.070767 277.071071 
L 244.869756 273.390325 
L 244.668484 269.704694 
L 244.467477 266.023742 
L 244.266275 262.339103 
L 244.065013 258.653215 
L 243.864101 254.973597 
L 243.662893 251.288418 
L 243.46171 247.60356 
L 243.260447 243.922007 
L 243.064431 240.255903 
L 242.858667 236.557312 
L 242.646543 232.828722 
L 242.408729 229.055027 
L 242.182891 225.236184 
L 241.952732 221.375583 
L 241.735262 217.494983 
L 241.50065 213.585585 
L 241.275789 209.666832 
L 241.04752 205.733702 
L 240.82247 201.756454 
L 240.579872 197.748477 
L 240.347976 193.734879 
L 240.129505 189.691196 
L 239.91112 185.634766 
L 239.694774 181.567265 
L 239.475981 177.483498 
L 239.267724 173.370418 
L 239.066823 169.214938 
L 238.862506 165.0286 
L 238.656841 160.825954 
L 238.484819 156.622321 
L 238.283721 152.420061 
L 238.048413 148.197502 
L 237.794704 143.859669 
L 237.520175 139.325364 
L 237.231072 134.857794 
L 236.948505 130.381555 
L 236.673779 125.951966 
L 236.394187 121.510532 
L 236.077355 117.122058 
L 235.777849 112.73633 
L 235.496806 108.401801 
L 235.19351 104.089203 
L 234.918282 99.7936 
L 234.652779 95.505335 
L 234.365097 91.23634 
L 234.056613 87.005584 
L 233.753871 82.810749 
L 233.468051 78.597502 
L 233.191119 74.38859 
L 232.91911 70.197532 
L 232.64298 66.034755 
L 232.379752 61.901634 
L 232.133878 57.765595 
L 231.867319 53.651571 
" style="fill:none;stroke:#008000;stroke-linecap:square;stroke-width:1.5;"/>
   </g>
   <g id="line2d_16">
    <path clip-path="url(#p8cdeab9c79)" d="M 246.076653 295.488 
L 246.079505 291.795307 
L 246.018656 288.107897 
L 245.901796 284.417046 
L 245.799179 280.730302 
L 245.655317 277.040725 
L 245.517163 273.355557 
L 245.35704 269.666513 
L 245.194096 265.981997 
L 245.042574 262.293182 
L 244.867431 258.60404 
L 244.641405 254.924017 
L 244.410301 251.238661 
L 244.254032 247.549781 
L 244.040297 243.867053 
L 243.87702 240.197676 
L 243.662028 236.497475 
L 243.464747 232.7661 
L 243.229017 228.989957 
L 242.971441 225.171038 
L 242.763035 221.307326 
L 242.536711 217.425607 
L 242.286943 213.515461 
L 242.027559 209.597162 
L 241.756605 205.664945 
L 241.500844 201.687861 
L 241.253021 197.678207 
L 240.961551 193.666125 
L 240.668433 189.625428 
L 240.396304 185.570908 
L 240.113667 181.506225 
L 239.868706 177.422431 
L 239.606794 173.310847 
L 239.38735 169.154506 
L 239.151923 164.968342 
L 238.918797 160.765779 
L 238.722959 156.562319 
L 238.457252 152.362615 
L 238.20047 148.140309 
L 237.927661 143.800599 
L 237.636286 139.259316 
L 237.323468 134.787414 
L 237.030116 130.306401 
L 236.756912 125.873294 
L 236.417878 121.432053 
L 236.097862 117.041419 
L 235.784364 112.654562 
L 235.511265 108.317859 
L 235.15291 104.007236 
L 234.88735 99.708526 
L 234.60792 95.418965 
L 234.30377 91.148593 
L 233.986862 86.916092 
L 233.670695 82.719963 
L 233.329025 78.5092 
L 233.010958 74.300494 
L 232.737689 70.107627 
L 232.43095 65.945126 
L 232.102589 61.815081 
L 231.810529 57.680626 
L 231.503876 53.568 
" style="fill:none;stroke:#0000ff;stroke-linecap:square;stroke-width:1.5;"/>
   </g>
   <g id="line2d_17">
    <path clip-path="url(#p8cdeab9c79)" d="M 246.076653 295.488 
L 245.900062 291.799682 
L 245.80822 288.112924 
L 245.657497 284.423301 
L 245.514801 280.737926 
L 245.329843 277.050218 
L 245.147898 273.367054 
L 244.937589 269.680582 
L 244.719163 265.999033 
L 244.504087 262.313445 
L 244.255893 258.628502 
L 243.956688 254.953732 
L 243.641494 251.274591 
L 243.402433 247.590272 
L 243.107986 243.913117 
L 242.870487 240.247833 
L 242.579707 236.552774 
L 242.31039 232.825951 
L 241.990414 229.056014 
L 241.626486 225.245661 
L 241.322928 221.388585 
L 240.990584 217.514413 
L 240.665923 213.609771 
L 240.315817 209.698314 
L 239.938729 205.775036 
L 239.547738 201.809396 
L 239.13652 197.813884 
L 238.705086 193.814484 
L 238.27011 189.786618 
L 237.880759 185.741629 
L 237.50332 181.684806 
L 237.121962 177.611386 
L 236.744725 173.508628 
L 236.408311 169.361154 
L 236.085271 165.18075 
L 235.787018 160.981958 
L 235.532105 156.781212 
L 235.248578 152.582513 
L 234.922843 148.364638 
L 234.559604 144.031763 
L 234.178467 139.498 
L 233.761119 135.034877 
L 233.367399 130.56279 
L 232.902942 126.146689 
L 232.48664 121.713351 
L 232.102228 117.327894 
L 231.721148 112.946144 
L 231.376279 108.614502 
L 230.978522 104.30726 
L 230.610382 100.015761 
L 230.248696 95.732557 
L 229.931996 91.468708 
L 229.563891 87.240142 
L 229.161596 83.051275 
L 228.691083 78.853486 
L 228.252426 74.655678 
L 227.821596 70.490836 
L 227.422418 66.335957 
L 227.031352 62.211229 
L 226.656548 58.083281 
L 226.240495 53.980173 
" style="fill:none;stroke:#ff0000;stroke-linecap:square;stroke-width:1.5;"/>
   </g>
   <g id="patch_3">
    <path d="M 57.6 307.584 
L 57.6 41.472 
" style="fill:none;stroke:#000000;stroke-linecap:square;stroke-linejoin:miter;stroke-width:0.8;"/>
   </g>
   <g id="patch_4">
    <path d="M 414.72 307.584 
L 414.72 41.472 
" style="fill:none;stroke:#000000;stroke-linecap:square;stroke-linejoin:miter;stroke-width:0.8;"/>
   </g>
   <g id="patch_5">
    <path d="M 57.6 307.584 
L 414.72 307.584 
" style="fill:none;stroke:#000000;stroke-linecap:square;stroke-linejoin:miter;stroke-width:0.8;"/>
   </g>
   <g id="patch_6">
    <path d="M 57.6 41.472 
L 414.72 41.472 
" style="fill:none;stroke:#000000;stroke-linecap:square;stroke-linejoin:miter;stroke-width:0.8;"/>
   </g>
  </g>
 </g>
 <defs>
  <clipPath id="p8cdeab9c79">
   <rect height="266.112" width="357.12" x="57.6" y="41.472"/>
  </clipPath>
 </defs>
</svg>
