<?xml version="1.0" encoding="utf-8" standalone="no"?>
<!DOCTYPE svg PUBLIC "-//W3C//DTD SVG 1.1//EN"
  "http://www.w3.org/Graphics/SVG/1.1/DTD/svg11.dtd">
<!-- Created with matplotlib (https://matplotlib.org/) -->
<svg height="345.6pt" version="1.1" viewBox="0 0 460.8 345.6" width="460.8pt" xmlns="http://www.w3.org/2000/svg" xmlns:xlink="http://www.w3.org/1999/xlink">
 <defs>
  <style type="text/css">
*{stroke-linecap:butt;stroke-linejoin:round;}
  </style>
 </defs>
 <g id="figure_1">
  <g id="patch_1">
   <path d="M 0 345.6 
L 460.8 345.6 
L 460.8 0 
L 0 0 
z
" style="fill:#ffffff;"/>
  </g>
  <g id="axes_1">
   <g id="patch_2">
    <path d="M 57.6 307.584 
L 414.72 307.584 
L 414.72 41.472 
L 57.6 41.472 
z
" style="fill:#ffffff;"/>
   </g>
   <g id="matplotlib.axis_1">
    <g id="xtick_1">
     <g id="line2d_1">
      <defs>
       <path d="M 0 0 
L 0 3.5 
" id="m66d6ae1f2e" style="stroke:#000000;stroke-width:0.8;"/>
      </defs>
      <g>
       <use style="stroke:#000000;stroke-width:0.8;" x="64.296967" xlink:href="#m66d6ae1f2e" y="307.584"/>
      </g>
     </g>
     <g id="text_1">
      <!-- −80 -->
      <defs>
       <path d="M 10.59375 35.5 
L 73.1875 35.5 
L 73.1875 27.203125 
L 10.59375 27.203125 
z
" id="DejaVuSans-8722"/>
       <path d="M 31.78125 34.625 
Q 24.75 34.625 20.71875 30.859375 
Q 16.703125 27.09375 16.703125 20.515625 
Q 16.703125 13.921875 20.71875 10.15625 
Q 24.75 6.390625 31.78125 6.390625 
Q 38.8125 6.390625 42.859375 10.171875 
Q 46.921875 13.96875 46.921875 20.515625 
Q 46.921875 27.09375 42.890625 30.859375 
Q 38.875 34.625 31.78125 34.625 
z
M 21.921875 38.8125 
Q 15.578125 40.375 12.03125 44.71875 
Q 8.5 49.078125 8.5 55.328125 
Q 8.5 64.0625 14.71875 69.140625 
Q 20.953125 74.21875 31.78125 74.21875 
Q 42.671875 74.21875 48.875 69.140625 
Q 55.078125 64.0625 55.078125 55.328125 
Q 55.078125 49.078125 51.53125 44.71875 
Q 48 40.375 41.703125 38.8125 
Q 48.828125 37.15625 52.796875 32.3125 
Q 56.78125 27.484375 56.78125 20.515625 
Q 56.78125 9.90625 50.3125 4.234375 
Q 43.84375 -1.421875 31.78125 -1.421875 
Q 19.734375 -1.421875 13.25 4.234375 
Q 6.78125 9.90625 6.78125 20.515625 
Q 6.78125 27.484375 10.78125 32.3125 
Q 14.796875 37.15625 21.921875 38.8125 
z
M 18.3125 54.390625 
Q 18.3125 48.734375 21.84375 45.5625 
Q 25.390625 42.390625 31.78125 42.390625 
Q 38.140625 42.390625 41.71875 45.5625 
Q 45.3125 48.734375 45.3125 54.390625 
Q 45.3125 60.0625 41.71875 63.234375 
Q 38.140625 66.40625 31.78125 66.40625 
Q 25.390625 66.40625 21.84375 63.234375 
Q 18.3125 60.0625 18.3125 54.390625 
z
" id="DejaVuSans-56"/>
       <path d="M 31.78125 66.40625 
Q 24.171875 66.40625 20.328125 58.90625 
Q 16.5 51.421875 16.5 36.375 
Q 16.5 21.390625 20.328125 13.890625 
Q 24.171875 6.390625 31.78125 6.390625 
Q 39.453125 6.390625 43.28125 13.890625 
Q 47.125 21.390625 47.125 36.375 
Q 47.125 51.421875 43.28125 58.90625 
Q 39.453125 66.40625 31.78125 66.40625 
z
M 31.78125 74.21875 
Q 44.046875 74.21875 50.515625 64.515625 
Q 56.984375 54.828125 56.984375 36.375 
Q 56.984375 17.96875 50.515625 8.265625 
Q 44.046875 -1.421875 31.78125 -1.421875 
Q 19.53125 -1.421875 13.0625 8.265625 
Q 6.59375 17.96875 6.59375 36.375 
Q 6.59375 54.828125 13.0625 64.515625 
Q 19.53125 74.21875 31.78125 74.21875 
z
" id="DejaVuSans-48"/>
      </defs>
      <g transform="translate(53.744623 322.182437)scale(0.1 -0.1)">
       <use xlink:href="#DejaVuSans-8722"/>
       <use x="83.789062" xlink:href="#DejaVuSans-56"/>
       <use x="147.412109" xlink:href="#DejaVuSans-48"/>
      </g>
     </g>
    </g>
    <g id="xtick_2">
     <g id="line2d_2">
      <g>
       <use style="stroke:#000000;stroke-width:0.8;" x="109.105517" xlink:href="#m66d6ae1f2e" y="307.584"/>
      </g>
     </g>
     <g id="text_2">
      <!-- −60 -->
      <defs>
       <path d="M 33.015625 40.375 
Q 26.375 40.375 22.484375 35.828125 
Q 18.609375 31.296875 18.609375 23.390625 
Q 18.609375 15.53125 22.484375 10.953125 
Q 26.375 6.390625 33.015625 6.390625 
Q 39.65625 6.390625 43.53125 10.953125 
Q 47.40625 15.53125 47.40625 23.390625 
Q 47.40625 31.296875 43.53125 35.828125 
Q 39.65625 40.375 33.015625 40.375 
z
M 52.59375 71.296875 
L 52.59375 62.3125 
Q 48.875 64.0625 45.09375 64.984375 
Q 41.3125 65.921875 37.59375 65.921875 
Q 27.828125 65.921875 22.671875 59.328125 
Q 17.53125 52.734375 16.796875 39.40625 
Q 19.671875 43.65625 24.015625 45.921875 
Q 28.375 48.1875 33.59375 48.1875 
Q 44.578125 48.1875 50.953125 41.515625 
Q 57.328125 34.859375 57.328125 23.390625 
Q 57.328125 12.15625 50.6875 5.359375 
Q 44.046875 -1.421875 33.015625 -1.421875 
Q 20.359375 -1.421875 13.671875 8.265625 
Q 6.984375 17.96875 6.984375 36.375 
Q 6.984375 53.65625 15.1875 63.9375 
Q 23.390625 74.21875 37.203125 74.21875 
Q 40.921875 74.21875 44.703125 73.484375 
Q 48.484375 72.75 52.59375 71.296875 
z
" id="DejaVuSans-54"/>
      </defs>
      <g transform="translate(98.553173 322.182437)scale(0.1 -0.1)">
       <use xlink:href="#DejaVuSans-8722"/>
       <use x="83.789062" xlink:href="#DejaVuSans-54"/>
       <use x="147.412109" xlink:href="#DejaVuSans-48"/>
      </g>
     </g>
    </g>
    <g id="xtick_3">
     <g id="line2d_3">
      <g>
       <use style="stroke:#000000;stroke-width:0.8;" x="153.914068" xlink:href="#m66d6ae1f2e" y="307.584"/>
      </g>
     </g>
     <g id="text_3">
      <!-- −40 -->
      <defs>
       <path d="M 37.796875 64.3125 
L 12.890625 25.390625 
L 37.796875 25.390625 
z
M 35.203125 72.90625 
L 47.609375 72.90625 
L 47.609375 25.390625 
L 58.015625 25.390625 
L 58.015625 17.1875 
L 47.609375 17.1875 
L 47.609375 0 
L 37.796875 0 
L 37.796875 17.1875 
L 4.890625 17.1875 
L 4.890625 26.703125 
z
" id="DejaVuSans-52"/>
      </defs>
      <g transform="translate(143.361724 322.182437)scale(0.1 -0.1)">
       <use xlink:href="#DejaVuSans-8722"/>
       <use x="83.789062" xlink:href="#DejaVuSans-52"/>
       <use x="147.412109" xlink:href="#DejaVuSans-48"/>
      </g>
     </g>
    </g>
    <g id="xtick_4">
     <g id="line2d_4">
      <g>
       <use style="stroke:#000000;stroke-width:0.8;" x="198.722618" xlink:href="#m66d6ae1f2e" y="307.584"/>
      </g>
     </g>
     <g id="text_4">
      <!-- −20 -->
      <defs>
       <path d="M 19.1875 8.296875 
L 53.609375 8.296875 
L 53.609375 0 
L 7.328125 0 
L 7.328125 8.296875 
Q 12.9375 14.109375 22.625 23.890625 
Q 32.328125 33.6875 34.8125 36.53125 
Q 39.546875 41.84375 41.421875 45.53125 
Q 43.3125 49.21875 43.3125 52.78125 
Q 43.3125 58.59375 39.234375 62.25 
Q 35.15625 65.921875 28.609375 65.921875 
Q 23.96875 65.921875 18.8125 64.3125 
Q 13.671875 62.703125 7.8125 59.421875 
L 7.8125 69.390625 
Q 13.765625 71.78125 18.9375 73 
Q 24.125 74.21875 28.421875 74.21875 
Q 39.75 74.21875 46.484375 68.546875 
Q 53.21875 62.890625 53.21875 53.421875 
Q 53.21875 48.921875 51.53125 44.890625 
Q 49.859375 40.875 45.40625 35.40625 
Q 44.1875 33.984375 37.640625 27.21875 
Q 31.109375 20.453125 19.1875 8.296875 
z
" id="DejaVuSans-50"/>
      </defs>
      <g transform="translate(188.170274 322.182437)scale(0.1 -0.1)">
       <use xlink:href="#DejaVuSans-8722"/>
       <use x="83.789062" xlink:href="#DejaVuSans-50"/>
       <use x="147.412109" xlink:href="#DejaVuSans-48"/>
      </g>
     </g>
    </g>
    <g id="xtick_5">
     <g id="line2d_5">
      <g>
       <use style="stroke:#000000;stroke-width:0.8;" x="243.531168" xlink:href="#m66d6ae1f2e" y="307.584"/>
      </g>
     </g>
     <g id="text_5">
      <!-- 0 -->
      <g transform="translate(240.349918 322.182437)scale(0.1 -0.1)">
       <use xlink:href="#DejaVuSans-48"/>
      </g>
     </g>
    </g>
    <g id="xtick_6">
     <g id="line2d_6">
      <g>
       <use style="stroke:#000000;stroke-width:0.8;" x="288.339719" xlink:href="#m66d6ae1f2e" y="307.584"/>
      </g>
     </g>
     <g id="text_6">
      <!-- 20 -->
      <g transform="translate(281.977219 322.182437)scale(0.1 -0.1)">
       <use xlink:href="#DejaVuSans-50"/>
       <use x="63.623047" xlink:href="#DejaVuSans-48"/>
      </g>
     </g>
    </g>
    <g id="xtick_7">
     <g id="line2d_7">
      <g>
       <use style="stroke:#000000;stroke-width:0.8;" x="333.148269" xlink:href="#m66d6ae1f2e" y="307.584"/>
      </g>
     </g>
     <g id="text_7">
      <!-- 40 -->
      <g transform="translate(326.785769 322.182437)scale(0.1 -0.1)">
       <use xlink:href="#DejaVuSans-52"/>
       <use x="63.623047" xlink:href="#DejaVuSans-48"/>
      </g>
     </g>
    </g>
    <g id="xtick_8">
     <g id="line2d_8">
      <g>
       <use style="stroke:#000000;stroke-width:0.8;" x="377.95682" xlink:href="#m66d6ae1f2e" y="307.584"/>
      </g>
     </g>
     <g id="text_8">
      <!-- 60 -->
      <g transform="translate(371.59432 322.182437)scale(0.1 -0.1)">
       <use xlink:href="#DejaVuSans-54"/>
       <use x="63.623047" xlink:href="#DejaVuSans-48"/>
      </g>
     </g>
    </g>
   </g>
   <g id="matplotlib.axis_2">
    <g id="ytick_1">
     <g id="line2d_9">
      <defs>
       <path d="M 0 0 
L -3.5 0 
" id="mca226216ab" style="stroke:#000000;stroke-width:0.8;"/>
      </defs>
      <g>
       <use style="stroke:#000000;stroke-width:0.8;" x="57.6" xlink:href="#mca226216ab" y="295.488"/>
      </g>
     </g>
     <g id="text_9">
      <!-- 0 -->
      <g transform="translate(44.2375 299.287219)scale(0.1 -0.1)">
       <use xlink:href="#DejaVuSans-48"/>
      </g>
     </g>
    </g>
    <g id="ytick_2">
     <g id="line2d_10">
      <g>
       <use style="stroke:#000000;stroke-width:0.8;" x="57.6" xlink:href="#mca226216ab" y="250.67945"/>
      </g>
     </g>
     <g id="text_10">
      <!-- 20 -->
      <g transform="translate(37.875 254.478668)scale(0.1 -0.1)">
       <use xlink:href="#DejaVuSans-50"/>
       <use x="63.623047" xlink:href="#DejaVuSans-48"/>
      </g>
     </g>
    </g>
    <g id="ytick_3">
     <g id="line2d_11">
      <g>
       <use style="stroke:#000000;stroke-width:0.8;" x="57.6" xlink:href="#mca226216ab" y="205.870899"/>
      </g>
     </g>
     <g id="text_11">
      <!-- 40 -->
      <g transform="translate(37.875 209.670118)scale(0.1 -0.1)">
       <use xlink:href="#DejaVuSans-52"/>
       <use x="63.623047" xlink:href="#DejaVuSans-48"/>
      </g>
     </g>
    </g>
    <g id="ytick_4">
     <g id="line2d_12">
      <g>
       <use style="stroke:#000000;stroke-width:0.8;" x="57.6" xlink:href="#mca226216ab" y="161.062349"/>
      </g>
     </g>
     <g id="text_12">
      <!-- 60 -->
      <g transform="translate(37.875 164.861567)scale(0.1 -0.1)">
       <use xlink:href="#DejaVuSans-54"/>
       <use x="63.623047" xlink:href="#DejaVuSans-48"/>
      </g>
     </g>
    </g>
    <g id="ytick_5">
     <g id="line2d_13">
      <g>
       <use style="stroke:#000000;stroke-width:0.8;" x="57.6" xlink:href="#mca226216ab" y="116.253798"/>
      </g>
     </g>
     <g id="text_13">
      <!-- 80 -->
      <g transform="translate(37.875 120.053017)scale(0.1 -0.1)">
       <use xlink:href="#DejaVuSans-56"/>
       <use x="63.623047" xlink:href="#DejaVuSans-48"/>
      </g>
     </g>
    </g>
    <g id="ytick_6">
     <g id="line2d_14">
      <g>
       <use style="stroke:#000000;stroke-width:0.8;" x="57.6" xlink:href="#mca226216ab" y="71.445248"/>
      </g>
     </g>
     <g id="text_14">
      <!-- 100 -->
      <defs>
       <path d="M 12.40625 8.296875 
L 28.515625 8.296875 
L 28.515625 63.921875 
L 10.984375 60.40625 
L 10.984375 69.390625 
L 28.421875 72.90625 
L 38.28125 72.90625 
L 38.28125 8.296875 
L 54.390625 8.296875 
L 54.390625 0 
L 12.40625 0 
z
" id="DejaVuSans-49"/>
      </defs>
      <g transform="translate(31.5125 75.244467)scale(0.1 -0.1)">
       <use xlink:href="#DejaVuSans-49"/>
       <use x="63.623047" xlink:href="#DejaVuSans-48"/>
       <use x="127.246094" xlink:href="#DejaVuSans-48"/>
      </g>
     </g>
    </g>
   </g>
   <g id="line2d_15">
    <path clip-path="url(#p1d220c2fd5)" d="M 243.531168 295.488 
L 243.426086 293.564158 
L 243.321143 291.64281 
L 243.216068 289.718979 
L 243.11112 287.7974 
L 243.006053 285.873574 
L 242.901117 283.952067 
L 242.796044 282.02801 
L 242.69111 280.106395 
L 242.586074 278.182855 
L 242.481006 276.258664 
L 242.376122 274.337746 
L 242.271083 272.413924 
L 242.166056 270.490271 
L 242.060988 268.568342 
L 241.95866 266.654479 
L 241.851242 264.723656 
L 241.740504 262.777172 
L 241.616355 260.807142 
L 241.498458 258.813542 
L 241.378305 256.798143 
L 241.264777 254.772303 
L 241.142299 252.73143 
L 241.024912 250.685673 
L 240.905746 248.632411 
L 240.78826 246.556117 
L 240.661613 244.463782 
L 240.540554 242.368511 
L 240.426503 240.257535 
L 240.312496 238.139905 
L 240.199554 236.016495 
L 240.085335 233.884594 
L 239.976616 231.73739 
L 239.871737 229.568051 
L 239.765075 227.382604 
L 239.657709 225.188642 
L 239.567906 222.994166 
L 239.462924 220.800406 
L 239.340084 218.596049 
L 239.207636 216.331515 
L 239.064321 213.964413 
L 238.913396 211.63215 
L 238.765884 209.295362 
L 238.622466 206.982926 
L 238.476506 204.664308 
L 238.311107 202.373336 
L 238.154752 200.083798 
L 238.008035 197.820988 
L 237.849702 195.569627 
L 237.706021 193.327139 
L 237.567417 191.088481 
L 237.417234 188.859882 
L 237.256192 186.651246 
L 237.098148 184.461363 
L 236.948938 182.261868 
L 236.804368 180.064635 
L 236.662367 177.876723 
L 236.518216 175.703575 
L 236.380799 173.545909 
L 236.252443 171.386719 
L 236.113288 169.239023 
L 235.977536 167.083462 
L 235.826352 164.929314 
L 235.664326 162.797771 
L 235.512246 160.689685 
L 235.372015 158.617468 
L 235.234005 156.56732 
L 235.071236 154.5275 
L 234.919099 152.514678 
L 234.765267 150.537119 
L 234.618237 148.590501 
L 234.464998 146.675137 
L 234.313059 144.786636 
L 234.166195 142.929926 
L 234.020876 141.100258 
L 233.868157 139.298282 
L 233.713761 137.519943 
L 233.571325 135.78052 
L 233.415918 134.093522 
L 233.26954 132.456755 
L 233.125855 130.859913 
L 232.979888 129.303398 
L 232.831491 127.78869 
L 232.693067 126.319036 
L 232.571246 124.905685 
L 232.468661 123.534946 
L 232.360762 122.204155 
L 232.241569 120.901906 
L 232.121271 119.626431 
L 232.029259 118.38324 
L 231.971073 117.167203 
L 231.918233 115.978118 
L 231.862419 114.832117 
L 231.802062 113.710044 
L 231.771406 112.61788 
L 231.798435 111.555581 
L 231.864212 110.527381 
L 231.962625 109.513543 
L 232.092397 108.514133 
L 232.262804 107.549046 
L 232.475445 106.589964 
L 232.738364 105.659492 
L 233.043866 104.786823 
L 233.406244 103.927597 
L 233.815904 103.138921 
L 234.278003 102.363106 
L 234.78484 101.633018 
L 235.339314 100.991763 
L 235.92925 100.356646 
L 236.551356 99.797771 
L 237.218085 99.23995 
" style="fill:none;stroke:#008000;stroke-linecap:square;stroke-width:1.5;"/>
   </g>
   <g id="line2d_16">
    <path clip-path="url(#p1d220c2fd5)" d="M 243.531168 295.488 
L 243.51195 293.247787 
L 243.471981 291.007791 
L 243.425442 288.767867 
L 243.381135 286.528106 
L 243.311061 284.289047 
L 243.232402 282.050241 
L 243.1308 279.812279 
L 243.035564 277.57404 
L 242.945922 275.335524 
L 242.825163 273.098674 
L 242.707695 270.861441 
L 242.595617 268.623916 
L 242.497966 266.385726 
L 242.38562 264.148217 
L 242.261479 261.911415 
L 242.126355 259.675235 
L 241.988005 257.439251 
L 241.840208 255.20384 
L 241.69637 252.968219 
L 241.561585 250.731995 
L 241.417757 248.496501 
L 241.266857 246.261415 
L 241.115446 244.026386 
L 240.970604 241.790791 
L 240.81782 239.5557 
L 240.668573 237.320551 
L 240.506235 235.08607 
L 240.360807 232.85039 
L 240.222943 230.614255 
L 240.070762 228.379108 
L 239.925827 226.143457 
L 239.794141 223.906997 
L 239.665363 221.670317 
L 239.540877 219.433498 
L 239.42022 217.196472 
L 239.311858 214.958702 
L 239.177755 212.722352 
L 239.026557 210.487227 
L 238.875817 208.252076 
L 238.74364 206.015994 
L 238.593694 203.780754 
L 238.430266 201.546386 
L 238.275327 199.311344 
L 238.122429 197.076182 
L 237.941141 194.843113 
L 237.778427 192.608683 
L 237.631637 190.373099 
L 237.460988 188.139248 
L 237.30429 185.904372 
L 237.148344 183.669397 
L 236.970846 181.436101 
L 236.794868 179.202687 
L 236.623676 176.968984 
L 236.460064 174.734581 
L 236.272968 172.50208 
L 236.125803 170.266802 
L 235.955308 168.033055 
L 235.798865 165.798214 
L 235.642042 163.563351 
L 235.470488 161.329573 
L 235.30913 159.095106 
L 235.151344 156.860243 
L 234.968545 154.627324 
L 234.781644 152.394747 
L 234.594808 150.162123 
L 234.399708 147.930323 
L 234.192753 145.699655 
L 233.981752 143.469441 
L 233.770462 141.239147 
L 233.578637 139.007038 
L 233.371753 136.776376 
L 233.156156 134.546609 
L 232.968607 132.31428 
L 232.752336 130.084331 
L 232.534574 127.854628 
L 232.301404 125.626372 
L 232.084746 123.396605 
L 231.84148 121.169444 
L 231.646004 118.937941 
L 231.406074 116.710463 
L 231.181175 114.481535 
L 230.937732 112.254896 
L 230.688298 110.028843 
L 230.461511 107.800136 
L 230.267646 105.568496 
L 230.042835 103.339684 
L 229.829853 101.109663 
L 229.578164 98.883552 
L 229.401358 96.650617 
L 229.256254 94.415791 
L 229.1496 92.178653 
L 229.0108 89.942926 
L 228.863535 87.707483 
L 228.788832 85.468428 
L 228.837855 83.228643 
L 228.961632 80.991729 
L 229.173926 78.761808 
L 229.447318 76.538556 
L 229.83409 74.331879 
L 230.304791 72.141577 
L 230.902512 69.982531 
L 231.588178 67.850129 
L 232.469635 65.79073 
L 233.472278 63.787471 
L 234.603616 61.853996 
L 235.842286 59.987359 
L 237.24255 58.239841 
L 238.769157 56.60195 
L 240.370085 55.035337 
L 242.062159 53.568 
" style="fill:none;stroke:#0000ff;stroke-linecap:square;stroke-width:1.5;"/>
   </g>
   <g id="line2d_17">
    <path clip-path="url(#p1d220c2fd5)" d="M 243.531168 295.488 
L 243.51195 293.247787 
L 243.471981 291.007791 
L 243.425442 288.767867 
L 243.381135 286.528106 
L 243.311061 284.289047 
L 243.232402 282.050241 
L 243.1308 279.812279 
L 243.035564 277.57404 
L 242.945922 275.335524 
L 242.825163 273.098674 
L 242.707695 270.861441 
L 242.595617 268.623916 
L 242.497966 266.385726 
L 242.38562 264.148217 
L 242.261479 261.911415 
L 242.126355 259.675235 
L 241.988005 257.439251 
L 241.840208 255.20384 
L 241.69637 252.968219 
L 241.561585 250.731995 
L 241.417757 248.496501 
L 241.266857 246.261415 
L 241.115446 244.026386 
L 240.970604 241.790791 
L 240.81782 239.5557 
L 240.668573 237.320551 
L 240.506235 235.08607 
L 240.360807 232.85039 
L 240.222943 230.614255 
L 240.070762 228.379108 
L 239.925827 226.143457 
L 239.794141 223.906997 
L 239.665363 221.670317 
L 239.540877 219.433498 
L 239.42022 217.196472 
L 239.311858 214.958702 
L 239.177755 212.722352 
L 239.026557 210.487227 
L 238.875817 208.252076 
L 238.74364 206.015994 
L 238.593694 203.780754 
L 238.430266 201.546386 
L 238.275327 199.311344 
L 238.122429 197.076182 
L 237.941141 194.843113 
L 237.778427 192.608683 
L 237.631637 190.373099 
L 237.460988 188.139248 
L 237.30429 185.904372 
L 237.148344 183.669397 
L 236.970846 181.436101 
L 236.794868 179.202687 
L 236.623676 176.968984 
L 236.460064 174.734581 
L 236.272968 172.50208 
L 236.125803 170.266802 
L 235.955308 168.033055 
L 235.798865 165.798214 
L 235.642042 163.563351 
L 235.470488 161.329573 
L 235.30913 159.095106 
L 235.151344 156.860243 
L 234.968545 154.627324 
L 234.781644 152.394747 
L 234.594808 150.162123 
L 234.399708 147.930323 
L 234.192753 145.699655 
L 233.981752 143.469441 
L 233.770462 141.239147 
L 233.578637 139.007038 
L 233.371753 136.776376 
L 233.156156 134.546609 
L 232.968607 132.31428 
L 232.752336 130.084331 
L 232.534574 127.854628 
L 232.301404 125.626372 
L 232.084746 123.396605 
L 231.84148 121.169444 
L 231.646004 118.937941 
L 231.406074 116.710463 
L 231.181175 114.481535 
L 230.937732 112.254896 
L 230.688298 110.028843 
L 230.461511 107.800136 
L 230.267646 105.568496 
L 230.042835 103.339684 
L 229.829853 101.109663 
L 229.578164 98.883552 
L 229.401358 96.650617 
L 229.256254 94.415791 
L 229.1496 92.178653 
L 229.0108 89.942926 
L 228.863535 87.707483 
L 228.788832 85.468428 
L 228.837855 83.228643 
L 228.961632 80.991729 
L 229.173926 78.761808 
L 229.447317 76.538556 
L 229.83409 74.331879 
L 230.304791 72.141577 
L 230.902512 69.982531 
L 231.588178 67.850129 
L 232.469635 65.79073 
L 233.472278 63.787471 
L 234.603616 61.853996 
L 235.842286 59.987359 
L 237.24255 58.239841 
L 238.769157 56.60195 
L 240.370085 55.035337 
L 242.062159 53.568 
" style="fill:none;stroke:#ff0000;stroke-linecap:square;stroke-width:1.5;"/>
   </g>
   <g id="patch_3">
    <path d="M 57.6 307.584 
L 57.6 41.472 
" style="fill:none;stroke:#000000;stroke-linecap:square;stroke-linejoin:miter;stroke-width:0.8;"/>
   </g>
   <g id="patch_4">
    <path d="M 414.72 307.584 
L 414.72 41.472 
" style="fill:none;stroke:#000000;stroke-linecap:square;stroke-linejoin:miter;stroke-width:0.8;"/>
   </g>
   <g id="patch_5">
    <path d="M 57.6 307.584 
L 414.72 307.584 
" style="fill:none;stroke:#000000;stroke-linecap:square;stroke-linejoin:miter;stroke-width:0.8;"/>
   </g>
   <g id="patch_6">
    <path d="M 57.6 41.472 
L 414.72 41.472 
" style="fill:none;stroke:#000000;stroke-linecap:square;stroke-linejoin:miter;stroke-width:0.8;"/>
   </g>
  </g>
 </g>
 <defs>
  <clipPath id="p1d220c2fd5">
   <rect height="266.112" width="357.12" x="57.6" y="41.472"/>
  </clipPath>
 </defs>
</svg>
