<?xml version="1.0" encoding="utf-8" standalone="no"?>
<!DOCTYPE svg PUBLIC "-//W3C//DTD SVG 1.1//EN"
  "http://www.w3.org/Graphics/SVG/1.1/DTD/svg11.dtd">
<!-- Created with matplotlib (https://matplotlib.org/) -->
<svg height="345.6pt" version="1.1" viewBox="0 0 460.8 345.6" width="460.8pt" xmlns="http://www.w3.org/2000/svg" xmlns:xlink="http://www.w3.org/1999/xlink">
 <defs>
  <style type="text/css">
*{stroke-linecap:butt;stroke-linejoin:round;}
  </style>
 </defs>
 <g id="figure_1">
  <g id="patch_1">
   <path d="M 0 345.6 
L 460.8 345.6 
L 460.8 0 
L 0 0 
z
" style="fill:#ffffff;"/>
  </g>
  <g id="axes_1">
   <g id="patch_2">
    <path d="M 57.6 307.584 
L 414.72 307.584 
L 414.72 41.472 
L 57.6 41.472 
z
" style="fill:#ffffff;"/>
   </g>
   <g id="matplotlib.axis_1">
    <g id="xtick_1">
     <g id="line2d_1">
      <defs>
       <path d="M 0 0 
L 0 3.5 
" id="m4c04a21976" style="stroke:#000000;stroke-width:0.8;"/>
      </defs>
      <g>
       <use style="stroke:#000000;stroke-width:0.8;" x="77.175952" xlink:href="#m4c04a21976" y="307.584"/>
      </g>
     </g>
     <g id="text_1">
      <!-- −200 -->
      <defs>
       <path d="M 10.59375 35.5 
L 73.1875 35.5 
L 73.1875 27.203125 
L 10.59375 27.203125 
z
" id="DejaVuSans-8722"/>
       <path d="M 19.1875 8.296875 
L 53.609375 8.296875 
L 53.609375 0 
L 7.328125 0 
L 7.328125 8.296875 
Q 12.9375 14.109375 22.625 23.890625 
Q 32.328125 33.6875 34.8125 36.53125 
Q 39.546875 41.84375 41.421875 45.53125 
Q 43.3125 49.21875 43.3125 52.78125 
Q 43.3125 58.59375 39.234375 62.25 
Q 35.15625 65.921875 28.609375 65.921875 
Q 23.96875 65.921875 18.8125 64.3125 
Q 13.671875 62.703125 7.8125 59.421875 
L 7.8125 69.390625 
Q 13.765625 71.78125 18.9375 73 
Q 24.125 74.21875 28.421875 74.21875 
Q 39.75 74.21875 46.484375 68.546875 
Q 53.21875 62.890625 53.21875 53.421875 
Q 53.21875 48.921875 51.53125 44.890625 
Q 49.859375 40.875 45.40625 35.40625 
Q 44.1875 33.984375 37.640625 27.21875 
Q 31.109375 20.453125 19.1875 8.296875 
z
" id="DejaVuSans-50"/>
       <path d="M 31.78125 66.40625 
Q 24.171875 66.40625 20.328125 58.90625 
Q 16.5 51.421875 16.5 36.375 
Q 16.5 21.390625 20.328125 13.890625 
Q 24.171875 6.390625 31.78125 6.390625 
Q 39.453125 6.390625 43.28125 13.890625 
Q 47.125 21.390625 47.125 36.375 
Q 47.125 51.421875 43.28125 58.90625 
Q 39.453125 66.40625 31.78125 66.40625 
z
M 31.78125 74.21875 
Q 44.046875 74.21875 50.515625 64.515625 
Q 56.984375 54.828125 56.984375 36.375 
Q 56.984375 17.96875 50.515625 8.265625 
Q 44.046875 -1.421875 31.78125 -1.421875 
Q 19.53125 -1.421875 13.0625 8.265625 
Q 6.59375 17.96875 6.59375 36.375 
Q 6.59375 54.828125 13.0625 64.515625 
Q 19.53125 74.21875 31.78125 74.21875 
z
" id="DejaVuSans-48"/>
      </defs>
      <g transform="translate(63.442358 322.182437)scale(0.1 -0.1)">
       <use xlink:href="#DejaVuSans-8722"/>
       <use x="83.789062" xlink:href="#DejaVuSans-50"/>
       <use x="147.412109" xlink:href="#DejaVuSans-48"/>
       <use x="211.035156" xlink:href="#DejaVuSans-48"/>
      </g>
     </g>
    </g>
    <g id="xtick_2">
     <g id="line2d_2">
      <g>
       <use style="stroke:#000000;stroke-width:0.8;" x="139.689078" xlink:href="#m4c04a21976" y="307.584"/>
      </g>
     </g>
     <g id="text_2">
      <!-- −100 -->
      <defs>
       <path d="M 12.40625 8.296875 
L 28.515625 8.296875 
L 28.515625 63.921875 
L 10.984375 60.40625 
L 10.984375 69.390625 
L 28.421875 72.90625 
L 38.28125 72.90625 
L 38.28125 8.296875 
L 54.390625 8.296875 
L 54.390625 0 
L 12.40625 0 
z
" id="DejaVuSans-49"/>
      </defs>
      <g transform="translate(125.955484 322.182437)scale(0.1 -0.1)">
       <use xlink:href="#DejaVuSans-8722"/>
       <use x="83.789062" xlink:href="#DejaVuSans-49"/>
       <use x="147.412109" xlink:href="#DejaVuSans-48"/>
       <use x="211.035156" xlink:href="#DejaVuSans-48"/>
      </g>
     </g>
    </g>
    <g id="xtick_3">
     <g id="line2d_3">
      <g>
       <use style="stroke:#000000;stroke-width:0.8;" x="202.202204" xlink:href="#m4c04a21976" y="307.584"/>
      </g>
     </g>
     <g id="text_3">
      <!-- 0 -->
      <g transform="translate(199.020954 322.182437)scale(0.1 -0.1)">
       <use xlink:href="#DejaVuSans-48"/>
      </g>
     </g>
    </g>
    <g id="xtick_4">
     <g id="line2d_4">
      <g>
       <use style="stroke:#000000;stroke-width:0.8;" x="264.71533" xlink:href="#m4c04a21976" y="307.584"/>
      </g>
     </g>
     <g id="text_4">
      <!-- 100 -->
      <g transform="translate(255.17158 322.182437)scale(0.1 -0.1)">
       <use xlink:href="#DejaVuSans-49"/>
       <use x="63.623047" xlink:href="#DejaVuSans-48"/>
       <use x="127.246094" xlink:href="#DejaVuSans-48"/>
      </g>
     </g>
    </g>
    <g id="xtick_5">
     <g id="line2d_5">
      <g>
       <use style="stroke:#000000;stroke-width:0.8;" x="327.228457" xlink:href="#m4c04a21976" y="307.584"/>
      </g>
     </g>
     <g id="text_5">
      <!-- 200 -->
      <g transform="translate(317.684707 322.182437)scale(0.1 -0.1)">
       <use xlink:href="#DejaVuSans-50"/>
       <use x="63.623047" xlink:href="#DejaVuSans-48"/>
       <use x="127.246094" xlink:href="#DejaVuSans-48"/>
      </g>
     </g>
    </g>
    <g id="xtick_6">
     <g id="line2d_6">
      <g>
       <use style="stroke:#000000;stroke-width:0.8;" x="389.741583" xlink:href="#m4c04a21976" y="307.584"/>
      </g>
     </g>
     <g id="text_6">
      <!-- 300 -->
      <defs>
       <path d="M 40.578125 39.3125 
Q 47.65625 37.796875 51.625 33 
Q 55.609375 28.21875 55.609375 21.1875 
Q 55.609375 10.40625 48.1875 4.484375 
Q 40.765625 -1.421875 27.09375 -1.421875 
Q 22.515625 -1.421875 17.65625 -0.515625 
Q 12.796875 0.390625 7.625 2.203125 
L 7.625 11.71875 
Q 11.71875 9.328125 16.59375 8.109375 
Q 21.484375 6.890625 26.8125 6.890625 
Q 36.078125 6.890625 40.9375 10.546875 
Q 45.796875 14.203125 45.796875 21.1875 
Q 45.796875 27.640625 41.28125 31.265625 
Q 36.765625 34.90625 28.71875 34.90625 
L 20.21875 34.90625 
L 20.21875 43.015625 
L 29.109375 43.015625 
Q 36.375 43.015625 40.234375 45.921875 
Q 44.09375 48.828125 44.09375 54.296875 
Q 44.09375 59.90625 40.109375 62.90625 
Q 36.140625 65.921875 28.71875 65.921875 
Q 24.65625 65.921875 20.015625 65.03125 
Q 15.375 64.15625 9.8125 62.3125 
L 9.8125 71.09375 
Q 15.4375 72.65625 20.34375 73.4375 
Q 25.25 74.21875 29.59375 74.21875 
Q 40.828125 74.21875 47.359375 69.109375 
Q 53.90625 64.015625 53.90625 55.328125 
Q 53.90625 49.265625 50.4375 45.09375 
Q 46.96875 40.921875 40.578125 39.3125 
z
" id="DejaVuSans-51"/>
      </defs>
      <g transform="translate(380.197833 322.182437)scale(0.1 -0.1)">
       <use xlink:href="#DejaVuSans-51"/>
       <use x="63.623047" xlink:href="#DejaVuSans-48"/>
       <use x="127.246094" xlink:href="#DejaVuSans-48"/>
      </g>
     </g>
    </g>
   </g>
   <g id="matplotlib.axis_2">
    <g id="ytick_1">
     <g id="line2d_7">
      <defs>
       <path d="M 0 0 
L -3.5 0 
" id="mda56d06cac" style="stroke:#000000;stroke-width:0.8;"/>
      </defs>
      <g>
       <use style="stroke:#000000;stroke-width:0.8;" x="57.6" xlink:href="#mda56d06cac" y="288.087767"/>
      </g>
     </g>
     <g id="text_7">
      <!-- 0 -->
      <g transform="translate(44.2375 291.886985)scale(0.1 -0.1)">
       <use xlink:href="#DejaVuSans-48"/>
      </g>
     </g>
    </g>
    <g id="ytick_2">
     <g id="line2d_8">
      <g>
       <use style="stroke:#000000;stroke-width:0.8;" x="57.6" xlink:href="#mda56d06cac" y="256.831203"/>
      </g>
     </g>
     <g id="text_8">
      <!-- 50 -->
      <defs>
       <path d="M 10.796875 72.90625 
L 49.515625 72.90625 
L 49.515625 64.59375 
L 19.828125 64.59375 
L 19.828125 46.734375 
Q 21.96875 47.46875 24.109375 47.828125 
Q 26.265625 48.1875 28.421875 48.1875 
Q 40.625 48.1875 47.75 41.5 
Q 54.890625 34.8125 54.890625 23.390625 
Q 54.890625 11.625 47.5625 5.09375 
Q 40.234375 -1.421875 26.90625 -1.421875 
Q 22.3125 -1.421875 17.546875 -0.640625 
Q 12.796875 0.140625 7.71875 1.703125 
L 7.71875 11.625 
Q 12.109375 9.234375 16.796875 8.0625 
Q 21.484375 6.890625 26.703125 6.890625 
Q 35.15625 6.890625 40.078125 11.328125 
Q 45.015625 15.765625 45.015625 23.390625 
Q 45.015625 31 40.078125 35.4375 
Q 35.15625 39.890625 26.703125 39.890625 
Q 22.75 39.890625 18.8125 39.015625 
Q 14.890625 38.140625 10.796875 36.28125 
z
" id="DejaVuSans-53"/>
      </defs>
      <g transform="translate(37.875 260.630422)scale(0.1 -0.1)">
       <use xlink:href="#DejaVuSans-53"/>
       <use x="63.623047" xlink:href="#DejaVuSans-48"/>
      </g>
     </g>
    </g>
    <g id="ytick_3">
     <g id="line2d_9">
      <g>
       <use style="stroke:#000000;stroke-width:0.8;" x="57.6" xlink:href="#mda56d06cac" y="225.57464"/>
      </g>
     </g>
     <g id="text_9">
      <!-- 100 -->
      <g transform="translate(31.5125 229.373859)scale(0.1 -0.1)">
       <use xlink:href="#DejaVuSans-49"/>
       <use x="63.623047" xlink:href="#DejaVuSans-48"/>
       <use x="127.246094" xlink:href="#DejaVuSans-48"/>
      </g>
     </g>
    </g>
    <g id="ytick_4">
     <g id="line2d_10">
      <g>
       <use style="stroke:#000000;stroke-width:0.8;" x="57.6" xlink:href="#mda56d06cac" y="194.318077"/>
      </g>
     </g>
     <g id="text_10">
      <!-- 150 -->
      <g transform="translate(31.5125 198.117296)scale(0.1 -0.1)">
       <use xlink:href="#DejaVuSans-49"/>
       <use x="63.623047" xlink:href="#DejaVuSans-53"/>
       <use x="127.246094" xlink:href="#DejaVuSans-48"/>
      </g>
     </g>
    </g>
    <g id="ytick_5">
     <g id="line2d_11">
      <g>
       <use style="stroke:#000000;stroke-width:0.8;" x="57.6" xlink:href="#mda56d06cac" y="163.061514"/>
      </g>
     </g>
     <g id="text_11">
      <!-- 200 -->
      <g transform="translate(31.5125 166.860733)scale(0.1 -0.1)">
       <use xlink:href="#DejaVuSans-50"/>
       <use x="63.623047" xlink:href="#DejaVuSans-48"/>
       <use x="127.246094" xlink:href="#DejaVuSans-48"/>
      </g>
     </g>
    </g>
    <g id="ytick_6">
     <g id="line2d_12">
      <g>
       <use style="stroke:#000000;stroke-width:0.8;" x="57.6" xlink:href="#mda56d06cac" y="131.804951"/>
      </g>
     </g>
     <g id="text_12">
      <!-- 250 -->
      <g transform="translate(31.5125 135.60417)scale(0.1 -0.1)">
       <use xlink:href="#DejaVuSans-50"/>
       <use x="63.623047" xlink:href="#DejaVuSans-53"/>
       <use x="127.246094" xlink:href="#DejaVuSans-48"/>
      </g>
     </g>
    </g>
    <g id="ytick_7">
     <g id="line2d_13">
      <g>
       <use style="stroke:#000000;stroke-width:0.8;" x="57.6" xlink:href="#mda56d06cac" y="100.548388"/>
      </g>
     </g>
     <g id="text_13">
      <!-- 300 -->
      <g transform="translate(31.5125 104.347607)scale(0.1 -0.1)">
       <use xlink:href="#DejaVuSans-51"/>
       <use x="63.623047" xlink:href="#DejaVuSans-48"/>
       <use x="127.246094" xlink:href="#DejaVuSans-48"/>
      </g>
     </g>
    </g>
    <g id="ytick_8">
     <g id="line2d_14">
      <g>
       <use style="stroke:#000000;stroke-width:0.8;" x="57.6" xlink:href="#mda56d06cac" y="69.291825"/>
      </g>
     </g>
     <g id="text_14">
      <!-- 350 -->
      <g transform="translate(31.5125 73.091044)scale(0.1 -0.1)">
       <use xlink:href="#DejaVuSans-51"/>
       <use x="63.623047" xlink:href="#DejaVuSans-53"/>
       <use x="127.246094" xlink:href="#DejaVuSans-48"/>
      </g>
     </g>
    </g>
   </g>
   <g id="line2d_15">
    <path clip-path="url(#p01164f03e9)" d="M 202.202204 288.087767 
L 200.365609 256.495048 
L 199.379815 243.054963 
L 198.928499 236.766354 
L 199.117401 235.380832 
L 199.49142 234.417911 
L 200.081093 233.641591 
L 200.837792 233.071128 
L 201.920881 232.608643 
L 203.866773 232.218467 
L 206.268447 232.052082 
L 218.636155 231.568687 
L 222.170922 231.448312 
L 225.601386 231.58419 
L 229.254528 231.99849 
L 232.728283 232.371718 
L 234.369452 232.291133 
L 235.309056 232.080557 
L 236.166548 231.723307 
L 236.891669 231.237324 
L 237.661175 230.353125 
L 238.172207 229.287164 
L 238.633173 227.522312 
L 239.793998 222.60251 
L 240.993549 217.809628 
L 246.043597 195.918717 
L 246.73448 190.890723 
L 247.027591 186.260688 
L 247.176792 180.02319 
L 247.086929 177.370508 
L 246.380749 165.2559 
L 245.966256 156.575327 
L 245.934206 150.779984 
L 245.951578 148.263206 
L 245.825608 140.95317 
L 245.661873 139.342331 
L 245.350121 138.161521 
L 244.970528 137.373293 
L 244.284959 136.497921 
L 243.668561 135.965685 
L 242.771873 135.440449 
L 241.50265 135.072685 
L 239.677211 134.960598 
L 235.972601 135.106942 
L 219.783727 136.002755 
L 212.017684 136.341764 
L 207.251565 136.807674 
L 202.630327 137.16725 
L 199.286863 137.208008 
L 197.304313 137.041411 
L 196.208301 136.745223 
L 195.31664 136.269248 
L 194.808271 135.827656 
L 194.357801 135.301545 
L 193.876531 134.318089 
L 193.55782 133.131902 
L 193.361367 131.319834 
L 193.170733 125.903133 
L 192.58401 109.577954 
L 190.700908 72.302186 
L 189.826131 57.918789 
L 189.441337 56.622142 
L 188.933212 55.689946 
L 188.199227 54.842643 
L 186.967499 54.003216 
L 185.069863 53.568 
L 178.682103 54.186692 
L 174.710113 54.49582 
L 151.742953 55.714889 
L 145.260779 55.691821 
L 141.853408 55.807345 
L 137.78299 56.207867 
L 129.44849 57.046793 
L 126.017145 57.219017 
L 108.29011 57.701431 
L 90.336028 58.851735 
L 89.027816 59.128918 
L 88.111436 59.476679 
L 87.283762 59.963156 
L 86.805474 60.38712 
L 86.354129 60.828775 
L 85.567902 62.313275 
L 85.262713 63.738262 
L 85.180445 65.278898 
L 85.224392 67.777423 
L 85.651794 72.566429 
L 86.416392 79.822453 
L 87.002828 87.420236 
L 87.540941 97.510356 
L 88.577221 118.856966 
L 90.037278 142.873823 
L 90.247009 148.630783 
L 90.547635 149.684817 
L 91.054304 150.613637 
L 91.771329 151.484945 
L 92.470288 152.058253 
L 93.352536 152.540667 
L 94.752018 152.979321 
L 95.968085 153.168861 
L 97.7047 153.277384 
L 102.425691 153.364215 
L 108.835225 153.323769 
L 115.024462 153.004764 
L 126.126105 152.159524 
L 133.135327 151.94823 
L 134.506177 151.620786 
L 135.767692 151.049416 
L 136.609994 150.477108 
L 137.347774 149.787838 
L 137.98197 148.995922 
L 138.482012 148.150369 
L 138.916041 146.901107 
L 139.466719 143.981931 
L 139.939406 142.190805 
L 140.316529 141.457026 
L 141.059697 140.506951 
L 142.030726 139.974714 
L 143.574306 139.464732 
L 145.564987 139.177047 
L 152.229124 138.761209 
L 162.890937 138.210031 
L 177.859687 137.190692 
L 184.590744 136.55087 
L 186.999818 136.532554 
L 188.547318 136.76254 
L 189.852805 137.204757 
L 190.572544 137.634848 
L 191.38804 138.390131 
L 191.967905 139.280819 
L 192.313165 140.099491 
L 192.621136 141.435084 
L 192.834344 143.457508 
L 192.928651 146.318109 
L 193.197026 156.623274 
L 193.705733 165.104056 
L 194.346224 176.348543 
L 195.873851 206.329466 
L 197.01517 225.868758 
L 197.439631 227.297709 
L 197.914787 228.246921 
L 198.73996 229.330717 
L 199.757612 230.179564 
L 200.654421 230.65337 
L 201.929145 231.037119 
L 204.264529 231.299137 
L 210.773917 231.632588 
L 213.295121 231.603482 
L 217.608114 231.266242 
L 220.809099 231.119455 
L 223.95891 231.239699 
L 234.396702 232.136088 
L 236.564732 232.584344 
L 239.171579 233.380193 
L 244.965071 235.526237 
L 248.198437 236.902464 
L 254.236761 239.997714 
L 257.444541 241.788684 
L 259.929326 243.441444 
L 262.227658 245.252862 
L 267.415772 249.553359 
L 271.050848 252.47371 
L 275.680383 256.223091 
L 281.800168 260.694024 
L 301.976717 275.916403 
L 303.48022 277.046372 
L 304.460926 277.528536 
L 305.80252 277.94111 
L 307.265827 278.122329 
L 309.999964 278.103713 
L 313.394614 278.1899 
L 317.988391 278.521794 
L 365.39222 282.607559 
L 372.518404 283.820348 
L 373.28444 283.624788 
L 373.930825 283.314945 
L 374.399674 282.921397 
L 376.171358 278.721343 
L 376.499177 276.245623 
L 376.688092 273.297228 
L 376.961087 268.807335 
L 379.946088 229.109883 
L 380.416812 225.383469 
L 383.234341 207.997004 
L 384.018944 204.826838 
L 384.71659 202.178219 
L 384.890252 200.52656 
L 384.820299 199.521098 
L 381.856177 195.79244 
L 380.885598 194.751722 
L 368.732859 188.517599 
L 365.575946 186.673087 
L 362.590819 184.618718 
L 358.587729 181.804064 
L 354.902267 179.484702 
L 350.551916 177.082072 
L 341.582471 172.286815 
L 333.365745 168.002665 
L 330.18514 166.248671 
L 329.336774 165.61385 
L 328.444587 164.733415 
L 326.904639 163.418764 
L 324.88609 161.891256 
L 323.032638 160.727136 
L 310.513009 153.66459 
L 303.609997 149.881483 
L 301.572882 148.977105 
L 300.186403 148.608841 
L 298.438349 148.445431 
L 296.186501 148.567707 
L 292.246799 148.906091 
L 292.246799 148.906091 
" style="fill:none;stroke:#008000;stroke-linecap:square;stroke-width:1.5;"/>
   </g>
   <g id="line2d_16">
    <path clip-path="url(#p01164f03e9)" d="M 202.202204 288.087767 
L 202.051338 283.410467 
L 201.337591 271.913302 
L 200.443356 258.616181 
L 199.464399 246.716675 
L 198.805682 238.934987 
L 198.987776 237.877892 
L 199.30711 237.174048 
L 199.737695 236.66714 
L 200.275289 236.298608 
L 201.158013 235.977411 
L 202.862236 235.635974 
L 205.259612 235.446617 
L 217.13576 234.806501 
L 222.099118 234.548099 
L 225.129337 234.616889 
L 228.301036 234.899894 
L 232.358907 235.261385 
L 233.753437 235.196812 
L 234.832954 234.968265 
L 235.937455 234.456128 
L 236.314264 234.144778 
L 237.063688 233.221476 
L 237.437859 232.449026 
L 237.850211 230.903049 
L 238.903069 226.053203 
L 240.109229 220.998879 
L 244.522806 201.16405 
L 245.148866 197.242719 
L 245.520746 193.139868 
L 245.791303 186.952523 
L 245.781988 183.185305 
L 244.951152 169.422864 
L 244.563224 162.389198 
L 244.580052 156.982143 
L 244.484994 151.360209 
L 244.204618 144.762718 
L 243.893721 143.442089 
L 243.417841 142.484776 
L 242.738067 141.594717 
L 242.053056 141.060303 
L 240.960641 140.607951 
L 240.106324 140.4959 
L 237.953939 140.540993 
L 232.123874 140.806366 
L 221.650253 141.355125 
L 209.87344 142.109274 
L 205.09075 142.484089 
L 202.288424 142.4762 
L 202.318234 142.476163 
L 201.461164 142.34027 
L 200.631952 141.979986 
L 200.104149 141.52824 
L 199.613467 140.761358 
L 199.273191 139.884534 
L 198.986386 138.598299 
L 198.832377 136.841498 
L 197.344975 103.575524 
L 196.978859 96.648462 
L 195.268593 66.163399 
L 194.891753 65.022279 
L 194.269238 63.892857 
L 193.742994 63.276335 
L 192.843312 62.472138 
L 192.468358 62.232049 
L 189.643948 60.918509 
L 188.378719 60.659735 
L 186.573842 60.687286 
L 171.494539 61.712099 
L 164.320717 62.157519 
L 155.426671 62.65388 
L 151.132091 62.624388 
L 146.412645 62.706346 
L 142.089467 63.157884 
L 136.022908 63.706586 
L 133.356628 63.786426 
L 121.751114 63.948085 
L 114.840862 64.285247 
L 98.371036 65.36131 
L 96.929655 65.784788 
L 95.893067 66.307676 
L 95.058814 66.971979 
L 94.363068 67.791909 
L 93.85292 68.734802 
L 93.458514 69.952581 
L 93.267157 71.500116 
L 93.206915 74.422776 
L 93.498904 79.095528 
L 94.349147 89.399786 
L 94.700515 96.335692 
L 96.131748 131.922048 
L 96.573152 139.871515 
L 96.924085 150.289878 
L 96.992966 154.650791 
L 97.219424 155.946342 
L 97.515575 156.762378 
L 98.192175 157.935042 
L 98.992942 158.804862 
L 99.781949 159.26618 
L 100.901625 159.715468 
L 102.162847 159.987501 
L 103.937952 160.163597 
L 110.106197 160.31553 
L 116.566416 160.280023 
L 121.61968 160.027208 
L 132.318816 159.370616 
L 137.213631 159.439733 
L 139.485018 159.407576 
L 140.844038 159.200779 
L 142.268376 158.715917 
L 143.324755 158.134994 
L 144.365437 157.100844 
L 145.013964 156.107716 
L 145.460849 155.139296 
L 145.877831 153.65905 
L 146.307508 151.835552 
L 146.696498 150.531864 
L 147.149615 149.743829 
L 147.768581 149.042046 
L 148.523257 148.655672 
L 149.528544 148.361006 
L 151.603441 148.134618 
L 157.44747 147.888895 
L 179.102757 147.306249 
L 191.413122 146.749143 
L 193.281601 146.915778 
L 194.402775 147.200544 
L 195.078968 147.527955 
L 195.863255 148.170716 
L 196.195904 148.640868 
L 196.585246 149.5891 
L 196.826836 150.991145 
L 196.937515 153.445815 
L 197.008 168.023693 
L 197.638339 192.502634 
L 197.921115 207.574349 
L 198.568017 232.211415 
L 198.81 233.476644 
L 199.188646 234.574013 
L 199.80643 235.703912 
L 200.450972 236.414114 
L 201.363812 237.181084 
L 202.320989 237.704242 
L 203.716117 238.146025 
L 205.864389 238.413307 
L 214.182535 238.853398 
L 217.527286 238.755328 
L 222.388585 238.580037 
L 225.513159 238.723236 
L 236.078211 239.821238 
L 238.186097 240.238838 
L 240.177019 240.838627 
L 244.154255 242.363362 
L 249.362207 244.58452 
L 253.619629 246.9107 
L 258.783569 249.903931 
L 261.201614 251.616562 
L 263.336634 253.400146 
L 268.186833 257.661508 
L 271.718254 260.671255 
L 276.600826 264.843695 
L 282.703849 269.637564 
L 301.855347 285.080346 
L 303.047415 286.047738 
L 304.078472 286.643149 
L 305.491221 287.1907 
L 307.059056 287.50795 
L 309.116631 287.640201 
L 312.511464 287.820001 
L 315.968888 288.161225 
L 321.135792 288.763211 
L 330.151696 289.883665 
L 335.719864 290.542675 
L 341.123712 291.182923 
L 367.127245 294.432852 
L 369.357399 295.0237 
L 371.059197 295.457327 
L 371.905435 295.45915 
L 372.742221 295.222856 
L 373.580077 294.772219 
L 374.200092 294.119945 
L 374.655781 293.406257 
L 375.125106 292.279991 
L 375.750191 290.121744 
L 376.104853 287.993381 
L 376.458808 284.457633 
L 376.952726 279.415182 
L 379.361984 258.994768 
L 380.071958 252.680284 
L 380.743762 246.876841 
L 381.979549 238.28171 
L 385.903526 218.987967 
L 386.700649 216.424078 
L 387.007389 215.259097 
L 387.144424 214.026138 
L 387.058351 212.659284 
L 386.752768 211.506281 
L 386.239595 210.423042 
L 385.505402 209.397006 
L 384.606143 208.50441 
L 383.490843 207.681521 
L 381.146255 206.367931 
L 376.917546 203.96214 
L 369.957965 199.662313 
L 367.205001 197.693809 
L 360.649411 192.671102 
L 356.940869 190.224937 
L 352.640897 187.676032 
L 345.269722 183.249512 
L 339.700894 179.972436 
L 336.102234 177.841228 
L 335.100822 177.031797 
L 333.603068 175.649328 
L 331.851528 174.157526 
L 329.821912 172.661539 
L 325.910791 170.183449 
L 315.952356 163.993541 
L 311.057617 161.080873 
L 309.418479 160.333491 
L 308.046691 159.95832 
L 306.663214 159.789531 
L 303.88711 159.812193 
L 300.76312 159.895281 
L 300.76312 159.895281 
" style="fill:none;stroke:#0000ff;stroke-linecap:square;stroke-width:1.5;"/>
   </g>
   <g id="line2d_17">
    <path clip-path="url(#p01164f03e9)" d="M 202.202204 288.087767 
L 202.051338 283.410467 
L 201.337591 271.913302 
L 200.443356 258.616181 
L 199.464399 246.716675 
L 198.805682 238.934987 
L 198.987776 237.877892 
L 199.30711 237.174048 
L 199.737695 236.66714 
L 200.275289 236.298608 
L 201.158013 235.977411 
L 202.862236 235.635974 
L 205.259612 235.446617 
L 217.13576 234.806501 
L 222.099118 234.548099 
L 225.129337 234.616889 
L 228.301036 234.899894 
L 232.358907 235.261385 
L 233.753437 235.196812 
L 234.832954 234.968265 
L 235.937455 234.456128 
L 236.314264 234.144778 
L 237.063688 233.221476 
L 237.437859 232.449026 
L 237.850211 230.903049 
L 238.903069 226.053203 
L 240.109229 220.998879 
L 244.522806 201.16405 
L 245.148866 197.242719 
L 245.520746 193.139868 
L 245.791302 186.952523 
L 245.781988 183.185305 
L 244.951152 169.422864 
L 244.563224 162.389198 
L 244.580052 156.982143 
L 244.484994 151.360209 
L 244.204618 144.762718 
L 243.893721 143.442089 
L 243.417841 142.484776 
L 242.738067 141.594717 
L 242.053056 141.060303 
L 240.960641 140.607951 
L 240.106324 140.4959 
L 237.953939 140.540993 
L 232.123874 140.806366 
L 221.650253 141.355125 
L 209.87344 142.109274 
L 205.09075 142.484089 
L 202.288424 142.4762 
L 202.318233 142.476163 
L 201.461164 142.34027 
L 200.631952 141.979985 
L 200.104149 141.52824 
L 199.613467 140.761358 
L 199.273191 139.884534 
L 198.986386 138.598299 
L 198.832377 136.841498 
L 197.344975 103.575524 
L 196.978859 96.648462 
L 195.268593 66.163399 
L 194.891753 65.022279 
L 194.269238 63.892857 
L 193.742994 63.276335 
L 192.843312 62.472138 
L 192.468358 62.232049 
L 189.643948 60.918509 
L 188.378719 60.659735 
L 186.573842 60.687286 
L 171.494539 61.712099 
L 164.320717 62.157519 
L 155.426671 62.65388 
L 151.132091 62.624388 
L 146.412645 62.706346 
L 142.089467 63.157884 
L 136.022908 63.706586 
L 133.356628 63.786426 
L 121.751114 63.948085 
L 114.840862 64.285247 
L 98.371036 65.36131 
L 96.929655 65.784788 
L 95.893067 66.307676 
L 95.058814 66.971979 
L 94.363068 67.791909 
L 93.85292 68.734802 
L 93.458514 69.952581 
L 93.267157 71.500116 
L 93.206915 74.422776 
L 93.498904 79.095528 
L 94.349148 89.399786 
L 94.700515 96.335692 
L 96.131749 131.922048 
L 96.573153 139.871515 
L 96.924085 150.289878 
L 96.992966 154.650791 
L 97.219424 155.946342 
L 97.515576 156.762378 
L 98.192176 157.935042 
L 98.992943 158.804862 
L 99.78195 159.266181 
L 100.901625 159.715468 
L 102.162848 159.987501 
L 103.937953 160.163597 
L 110.106197 160.31553 
L 116.566416 160.280023 
L 121.619681 160.027208 
L 132.318816 159.370616 
L 137.213631 159.439733 
L 139.485019 159.407576 
L 140.844039 159.200778 
L 142.268376 158.715917 
L 143.324756 158.134994 
L 144.365438 157.100844 
L 145.013965 156.107716 
L 145.460849 155.139296 
L 145.877831 153.65905 
L 146.307508 151.835552 
L 146.696499 150.531864 
L 147.149615 149.743828 
L 147.768581 149.042046 
L 148.523258 148.655672 
L 149.528544 148.361006 
L 151.603441 148.134618 
L 157.44747 147.888894 
L 179.102757 147.306249 
L 191.413122 146.749142 
L 193.281601 146.915777 
L 194.402775 147.200543 
L 195.078968 147.527955 
L 195.863255 148.170715 
L 196.195904 148.640867 
L 196.585247 149.589099 
L 196.826837 150.991144 
L 196.937515 153.445815 
L 197.008 168.023693 
L 197.63834 192.502634 
L 197.921116 207.574349 
L 198.568018 232.211414 
L 198.810001 233.476644 
L 199.188647 234.574012 
L 199.806431 235.703912 
L 200.450973 236.414113 
L 201.363813 237.181083 
L 202.32099 237.704242 
L 203.716118 238.146024 
L 205.86439 238.413307 
L 214.182535 238.853397 
L 217.527287 238.755327 
L 222.388586 238.580037 
L 225.513159 238.723236 
L 236.078212 239.821237 
L 238.186098 240.238837 
L 240.17702 240.838627 
L 244.154255 242.363361 
L 249.362208 244.584519 
L 253.61963 246.910699 
L 258.78357 249.90393 
L 261.201615 251.616561 
L 263.336635 253.400145 
L 268.186834 257.661507 
L 271.718255 260.671254 
L 276.600827 264.843695 
L 282.70385 269.637563 
L 301.855348 285.080345 
L 303.047416 286.047737 
L 304.078473 286.643148 
L 305.491222 287.190699 
L 307.059057 287.507949 
L 309.116632 287.6402 
L 312.511465 287.82 
L 315.968889 288.161224 
L 321.135793 288.763209 
L 330.151697 289.883664 
L 335.719865 290.542674 
L 341.123713 291.182922 
L 367.127246 294.432851 
L 369.3574 295.023699 
L 371.059198 295.457326 
L 371.905436 295.459149 
L 372.742222 295.222855 
L 373.580078 294.772218 
L 374.200093 294.119944 
L 374.655782 293.406256 
L 375.125107 292.279989 
L 375.750192 290.121742 
L 376.104854 287.99338 
L 376.458809 284.457631 
L 376.952727 279.415181 
L 379.361985 258.994767 
L 380.071958 252.680283 
L 380.743762 246.87684 
L 381.97955 238.281709 
L 385.903527 218.987965 
L 386.700649 216.424077 
L 387.00739 215.259096 
L 387.144425 214.026137 
L 387.058352 212.659283 
L 386.752769 211.506279 
L 386.239595 210.423041 
L 385.505403 209.397004 
L 384.606144 208.504409 
L 383.490844 207.68152 
L 381.146256 206.36793 
L 376.917547 203.962139 
L 369.957965 199.662312 
L 367.205001 197.693807 
L 360.649412 192.671101 
L 356.94087 190.224936 
L 352.640897 187.67603 
L 345.269722 183.249511 
L 339.700895 179.972435 
L 336.102235 177.841227 
L 335.100822 177.031796 
L 333.603069 175.649327 
L 331.851529 174.157525 
L 329.821912 172.661538 
L 325.910792 170.183448 
L 315.952357 163.99354 
L 311.057618 161.080872 
L 309.418479 160.33349 
L 308.046692 159.958319 
L 306.663215 159.78953 
L 303.88711 159.812192 
L 300.76312 159.89528 
L 300.76312 159.89528 
" style="fill:none;stroke:#ff0000;stroke-linecap:square;stroke-width:1.5;"/>
   </g>
   <g id="patch_3">
    <path d="M 57.6 307.584 
L 57.6 41.472 
" style="fill:none;stroke:#000000;stroke-linecap:square;stroke-linejoin:miter;stroke-width:0.8;"/>
   </g>
   <g id="patch_4">
    <path d="M 414.72 307.584 
L 414.72 41.472 
" style="fill:none;stroke:#000000;stroke-linecap:square;stroke-linejoin:miter;stroke-width:0.8;"/>
   </g>
   <g id="patch_5">
    <path d="M 57.6 307.584 
L 414.72 307.584 
" style="fill:none;stroke:#000000;stroke-linecap:square;stroke-linejoin:miter;stroke-width:0.8;"/>
   </g>
   <g id="patch_6">
    <path d="M 57.6 41.472 
L 414.72 41.472 
" style="fill:none;stroke:#000000;stroke-linecap:square;stroke-linejoin:miter;stroke-width:0.8;"/>
   </g>
  </g>
 </g>
 <defs>
  <clipPath id="p01164f03e9">
   <rect height="266.112" width="357.12" x="57.6" y="41.472"/>
  </clipPath>
 </defs>
</svg>
