<?xml version="1.0" encoding="utf-8" standalone="no"?>
<!DOCTYPE svg PUBLIC "-//W3C//DTD SVG 1.1//EN"
  "http://www.w3.org/Graphics/SVG/1.1/DTD/svg11.dtd">
<!-- Created with matplotlib (https://matplotlib.org/) -->
<svg height="345.6pt" version="1.1" viewBox="0 0 460.8 345.6" width="460.8pt" xmlns="http://www.w3.org/2000/svg" xmlns:xlink="http://www.w3.org/1999/xlink">
 <defs>
  <style type="text/css">
*{stroke-linecap:butt;stroke-linejoin:round;}
  </style>
 </defs>
 <g id="figure_1">
  <g id="patch_1">
   <path d="M 0 345.6 
L 460.8 345.6 
L 460.8 0 
L 0 0 
z
" style="fill:#ffffff;"/>
  </g>
  <g id="axes_1">
   <g id="patch_2">
    <path d="M 57.6 307.584 
L 414.72 307.584 
L 414.72 41.472 
L 57.6 41.472 
z
" style="fill:#ffffff;"/>
   </g>
   <g id="matplotlib.axis_1">
    <g id="xtick_1">
     <g id="line2d_1">
      <defs>
       <path d="M 0 0 
L 0 3.5 
" id="mad22e419bc" style="stroke:#000000;stroke-width:0.8;"/>
      </defs>
      <g>
       <use style="stroke:#000000;stroke-width:0.8;" x="73.832727" xlink:href="#mad22e419bc" y="307.584"/>
      </g>
     </g>
     <g id="text_1">
      <!-- 0 -->
      <defs>
       <path d="M 31.78125 66.40625 
Q 24.171875 66.40625 20.328125 58.90625 
Q 16.5 51.421875 16.5 36.375 
Q 16.5 21.390625 20.328125 13.890625 
Q 24.171875 6.390625 31.78125 6.390625 
Q 39.453125 6.390625 43.28125 13.890625 
Q 47.125 21.390625 47.125 36.375 
Q 47.125 51.421875 43.28125 58.90625 
Q 39.453125 66.40625 31.78125 66.40625 
z
M 31.78125 74.21875 
Q 44.046875 74.21875 50.515625 64.515625 
Q 56.984375 54.828125 56.984375 36.375 
Q 56.984375 17.96875 50.515625 8.265625 
Q 44.046875 -1.421875 31.78125 -1.421875 
Q 19.53125 -1.421875 13.0625 8.265625 
Q 6.59375 17.96875 6.59375 36.375 
Q 6.59375 54.828125 13.0625 64.515625 
Q 19.53125 74.21875 31.78125 74.21875 
z
" id="DejaVuSans-48"/>
      </defs>
      <g transform="translate(70.651477 322.182437)scale(0.1 -0.1)">
       <use xlink:href="#DejaVuSans-48"/>
      </g>
     </g>
    </g>
    <g id="xtick_2">
     <g id="line2d_2">
      <g>
       <use style="stroke:#000000;stroke-width:0.8;" x="122.226967" xlink:href="#mad22e419bc" y="307.584"/>
      </g>
     </g>
     <g id="text_2">
      <!-- 100 -->
      <defs>
       <path d="M 12.40625 8.296875 
L 28.515625 8.296875 
L 28.515625 63.921875 
L 10.984375 60.40625 
L 10.984375 69.390625 
L 28.421875 72.90625 
L 38.28125 72.90625 
L 38.28125 8.296875 
L 54.390625 8.296875 
L 54.390625 0 
L 12.40625 0 
z
" id="DejaVuSans-49"/>
      </defs>
      <g transform="translate(112.683217 322.182437)scale(0.1 -0.1)">
       <use xlink:href="#DejaVuSans-49"/>
       <use x="63.623047" xlink:href="#DejaVuSans-48"/>
       <use x="127.246094" xlink:href="#DejaVuSans-48"/>
      </g>
     </g>
    </g>
    <g id="xtick_3">
     <g id="line2d_3">
      <g>
       <use style="stroke:#000000;stroke-width:0.8;" x="170.621206" xlink:href="#mad22e419bc" y="307.584"/>
      </g>
     </g>
     <g id="text_3">
      <!-- 200 -->
      <defs>
       <path d="M 19.1875 8.296875 
L 53.609375 8.296875 
L 53.609375 0 
L 7.328125 0 
L 7.328125 8.296875 
Q 12.9375 14.109375 22.625 23.890625 
Q 32.328125 33.6875 34.8125 36.53125 
Q 39.546875 41.84375 41.421875 45.53125 
Q 43.3125 49.21875 43.3125 52.78125 
Q 43.3125 58.59375 39.234375 62.25 
Q 35.15625 65.921875 28.609375 65.921875 
Q 23.96875 65.921875 18.8125 64.3125 
Q 13.671875 62.703125 7.8125 59.421875 
L 7.8125 69.390625 
Q 13.765625 71.78125 18.9375 73 
Q 24.125 74.21875 28.421875 74.21875 
Q 39.75 74.21875 46.484375 68.546875 
Q 53.21875 62.890625 53.21875 53.421875 
Q 53.21875 48.921875 51.53125 44.890625 
Q 49.859375 40.875 45.40625 35.40625 
Q 44.1875 33.984375 37.640625 27.21875 
Q 31.109375 20.453125 19.1875 8.296875 
z
" id="DejaVuSans-50"/>
      </defs>
      <g transform="translate(161.077456 322.182437)scale(0.1 -0.1)">
       <use xlink:href="#DejaVuSans-50"/>
       <use x="63.623047" xlink:href="#DejaVuSans-48"/>
       <use x="127.246094" xlink:href="#DejaVuSans-48"/>
      </g>
     </g>
    </g>
    <g id="xtick_4">
     <g id="line2d_4">
      <g>
       <use style="stroke:#000000;stroke-width:0.8;" x="219.015445" xlink:href="#mad22e419bc" y="307.584"/>
      </g>
     </g>
     <g id="text_4">
      <!-- 300 -->
      <defs>
       <path d="M 40.578125 39.3125 
Q 47.65625 37.796875 51.625 33 
Q 55.609375 28.21875 55.609375 21.1875 
Q 55.609375 10.40625 48.1875 4.484375 
Q 40.765625 -1.421875 27.09375 -1.421875 
Q 22.515625 -1.421875 17.65625 -0.515625 
Q 12.796875 0.390625 7.625 2.203125 
L 7.625 11.71875 
Q 11.71875 9.328125 16.59375 8.109375 
Q 21.484375 6.890625 26.8125 6.890625 
Q 36.078125 6.890625 40.9375 10.546875 
Q 45.796875 14.203125 45.796875 21.1875 
Q 45.796875 27.640625 41.28125 31.265625 
Q 36.765625 34.90625 28.71875 34.90625 
L 20.21875 34.90625 
L 20.21875 43.015625 
L 29.109375 43.015625 
Q 36.375 43.015625 40.234375 45.921875 
Q 44.09375 48.828125 44.09375 54.296875 
Q 44.09375 59.90625 40.109375 62.90625 
Q 36.140625 65.921875 28.71875 65.921875 
Q 24.65625 65.921875 20.015625 65.03125 
Q 15.375 64.15625 9.8125 62.3125 
L 9.8125 71.09375 
Q 15.4375 72.65625 20.34375 73.4375 
Q 25.25 74.21875 29.59375 74.21875 
Q 40.828125 74.21875 47.359375 69.109375 
Q 53.90625 64.015625 53.90625 55.328125 
Q 53.90625 49.265625 50.4375 45.09375 
Q 46.96875 40.921875 40.578125 39.3125 
z
" id="DejaVuSans-51"/>
      </defs>
      <g transform="translate(209.471695 322.182437)scale(0.1 -0.1)">
       <use xlink:href="#DejaVuSans-51"/>
       <use x="63.623047" xlink:href="#DejaVuSans-48"/>
       <use x="127.246094" xlink:href="#DejaVuSans-48"/>
      </g>
     </g>
    </g>
    <g id="xtick_5">
     <g id="line2d_5">
      <g>
       <use style="stroke:#000000;stroke-width:0.8;" x="267.409685" xlink:href="#mad22e419bc" y="307.584"/>
      </g>
     </g>
     <g id="text_5">
      <!-- 400 -->
      <defs>
       <path d="M 37.796875 64.3125 
L 12.890625 25.390625 
L 37.796875 25.390625 
z
M 35.203125 72.90625 
L 47.609375 72.90625 
L 47.609375 25.390625 
L 58.015625 25.390625 
L 58.015625 17.1875 
L 47.609375 17.1875 
L 47.609375 0 
L 37.796875 0 
L 37.796875 17.1875 
L 4.890625 17.1875 
L 4.890625 26.703125 
z
" id="DejaVuSans-52"/>
      </defs>
      <g transform="translate(257.865935 322.182437)scale(0.1 -0.1)">
       <use xlink:href="#DejaVuSans-52"/>
       <use x="63.623047" xlink:href="#DejaVuSans-48"/>
       <use x="127.246094" xlink:href="#DejaVuSans-48"/>
      </g>
     </g>
    </g>
    <g id="xtick_6">
     <g id="line2d_6">
      <g>
       <use style="stroke:#000000;stroke-width:0.8;" x="315.803924" xlink:href="#mad22e419bc" y="307.584"/>
      </g>
     </g>
     <g id="text_6">
      <!-- 500 -->
      <defs>
       <path d="M 10.796875 72.90625 
L 49.515625 72.90625 
L 49.515625 64.59375 
L 19.828125 64.59375 
L 19.828125 46.734375 
Q 21.96875 47.46875 24.109375 47.828125 
Q 26.265625 48.1875 28.421875 48.1875 
Q 40.625 48.1875 47.75 41.5 
Q 54.890625 34.8125 54.890625 23.390625 
Q 54.890625 11.625 47.5625 5.09375 
Q 40.234375 -1.421875 26.90625 -1.421875 
Q 22.3125 -1.421875 17.546875 -0.640625 
Q 12.796875 0.140625 7.71875 1.703125 
L 7.71875 11.625 
Q 12.109375 9.234375 16.796875 8.0625 
Q 21.484375 6.890625 26.703125 6.890625 
Q 35.15625 6.890625 40.078125 11.328125 
Q 45.015625 15.765625 45.015625 23.390625 
Q 45.015625 31 40.078125 35.4375 
Q 35.15625 39.890625 26.703125 39.890625 
Q 22.75 39.890625 18.8125 39.015625 
Q 14.890625 38.140625 10.796875 36.28125 
z
" id="DejaVuSans-53"/>
      </defs>
      <g transform="translate(306.260174 322.182437)scale(0.1 -0.1)">
       <use xlink:href="#DejaVuSans-53"/>
       <use x="63.623047" xlink:href="#DejaVuSans-48"/>
       <use x="127.246094" xlink:href="#DejaVuSans-48"/>
      </g>
     </g>
    </g>
    <g id="xtick_7">
     <g id="line2d_7">
      <g>
       <use style="stroke:#000000;stroke-width:0.8;" x="364.198164" xlink:href="#mad22e419bc" y="307.584"/>
      </g>
     </g>
     <g id="text_7">
      <!-- 600 -->
      <defs>
       <path d="M 33.015625 40.375 
Q 26.375 40.375 22.484375 35.828125 
Q 18.609375 31.296875 18.609375 23.390625 
Q 18.609375 15.53125 22.484375 10.953125 
Q 26.375 6.390625 33.015625 6.390625 
Q 39.65625 6.390625 43.53125 10.953125 
Q 47.40625 15.53125 47.40625 23.390625 
Q 47.40625 31.296875 43.53125 35.828125 
Q 39.65625 40.375 33.015625 40.375 
z
M 52.59375 71.296875 
L 52.59375 62.3125 
Q 48.875 64.0625 45.09375 64.984375 
Q 41.3125 65.921875 37.59375 65.921875 
Q 27.828125 65.921875 22.671875 59.328125 
Q 17.53125 52.734375 16.796875 39.40625 
Q 19.671875 43.65625 24.015625 45.921875 
Q 28.375 48.1875 33.59375 48.1875 
Q 44.578125 48.1875 50.953125 41.515625 
Q 57.328125 34.859375 57.328125 23.390625 
Q 57.328125 12.15625 50.6875 5.359375 
Q 44.046875 -1.421875 33.015625 -1.421875 
Q 20.359375 -1.421875 13.671875 8.265625 
Q 6.984375 17.96875 6.984375 36.375 
Q 6.984375 53.65625 15.1875 63.9375 
Q 23.390625 74.21875 37.203125 74.21875 
Q 40.921875 74.21875 44.703125 73.484375 
Q 48.484375 72.75 52.59375 71.296875 
z
" id="DejaVuSans-54"/>
      </defs>
      <g transform="translate(354.654414 322.182437)scale(0.1 -0.1)">
       <use xlink:href="#DejaVuSans-54"/>
       <use x="63.623047" xlink:href="#DejaVuSans-48"/>
       <use x="127.246094" xlink:href="#DejaVuSans-48"/>
      </g>
     </g>
    </g>
    <g id="xtick_8">
     <g id="line2d_8">
      <g>
       <use style="stroke:#000000;stroke-width:0.8;" x="412.592403" xlink:href="#mad22e419bc" y="307.584"/>
      </g>
     </g>
     <g id="text_8">
      <!-- 700 -->
      <defs>
       <path d="M 8.203125 72.90625 
L 55.078125 72.90625 
L 55.078125 68.703125 
L 28.609375 0 
L 18.3125 0 
L 43.21875 64.59375 
L 8.203125 64.59375 
z
" id="DejaVuSans-55"/>
      </defs>
      <g transform="translate(403.048653 322.182437)scale(0.1 -0.1)">
       <use xlink:href="#DejaVuSans-55"/>
       <use x="63.623047" xlink:href="#DejaVuSans-48"/>
       <use x="127.246094" xlink:href="#DejaVuSans-48"/>
      </g>
     </g>
    </g>
   </g>
   <g id="matplotlib.axis_2">
    <g id="ytick_1">
     <g id="line2d_9">
      <defs>
       <path d="M 0 0 
L -3.5 0 
" id="m5ea9baabe3" style="stroke:#000000;stroke-width:0.8;"/>
      </defs>
      <g>
       <use style="stroke:#000000;stroke-width:0.8;" x="57.6" xlink:href="#m5ea9baabe3" y="294.163981"/>
      </g>
     </g>
     <g id="text_9">
      <!-- −200 -->
      <defs>
       <path d="M 10.59375 35.5 
L 73.1875 35.5 
L 73.1875 27.203125 
L 10.59375 27.203125 
z
" id="DejaVuSans-8722"/>
      </defs>
      <g transform="translate(23.132812 297.963199)scale(0.1 -0.1)">
       <use xlink:href="#DejaVuSans-8722"/>
       <use x="83.789062" xlink:href="#DejaVuSans-50"/>
       <use x="147.412109" xlink:href="#DejaVuSans-48"/>
       <use x="211.035156" xlink:href="#DejaVuSans-48"/>
      </g>
     </g>
    </g>
    <g id="ytick_2">
     <g id="line2d_10">
      <g>
       <use style="stroke:#000000;stroke-width:0.8;" x="57.6" xlink:href="#m5ea9baabe3" y="245.769741"/>
      </g>
     </g>
     <g id="text_10">
      <!-- −100 -->
      <g transform="translate(23.132812 249.56896)scale(0.1 -0.1)">
       <use xlink:href="#DejaVuSans-8722"/>
       <use x="83.789062" xlink:href="#DejaVuSans-49"/>
       <use x="147.412109" xlink:href="#DejaVuSans-48"/>
       <use x="211.035156" xlink:href="#DejaVuSans-48"/>
      </g>
     </g>
    </g>
    <g id="ytick_3">
     <g id="line2d_11">
      <g>
       <use style="stroke:#000000;stroke-width:0.8;" x="57.6" xlink:href="#m5ea9baabe3" y="197.375502"/>
      </g>
     </g>
     <g id="text_11">
      <!-- 0 -->
      <g transform="translate(44.2375 201.174721)scale(0.1 -0.1)">
       <use xlink:href="#DejaVuSans-48"/>
      </g>
     </g>
    </g>
    <g id="ytick_4">
     <g id="line2d_12">
      <g>
       <use style="stroke:#000000;stroke-width:0.8;" x="57.6" xlink:href="#m5ea9baabe3" y="148.981262"/>
      </g>
     </g>
     <g id="text_12">
      <!-- 100 -->
      <g transform="translate(31.5125 152.780481)scale(0.1 -0.1)">
       <use xlink:href="#DejaVuSans-49"/>
       <use x="63.623047" xlink:href="#DejaVuSans-48"/>
       <use x="127.246094" xlink:href="#DejaVuSans-48"/>
      </g>
     </g>
    </g>
    <g id="ytick_5">
     <g id="line2d_13">
      <g>
       <use style="stroke:#000000;stroke-width:0.8;" x="57.6" xlink:href="#m5ea9baabe3" y="100.587023"/>
      </g>
     </g>
     <g id="text_13">
      <!-- 200 -->
      <g transform="translate(31.5125 104.386242)scale(0.1 -0.1)">
       <use xlink:href="#DejaVuSans-50"/>
       <use x="63.623047" xlink:href="#DejaVuSans-48"/>
       <use x="127.246094" xlink:href="#DejaVuSans-48"/>
      </g>
     </g>
    </g>
    <g id="ytick_6">
     <g id="line2d_14">
      <g>
       <use style="stroke:#000000;stroke-width:0.8;" x="57.6" xlink:href="#m5ea9baabe3" y="52.192784"/>
      </g>
     </g>
     <g id="text_14">
      <!-- 300 -->
      <g transform="translate(31.5125 55.992002)scale(0.1 -0.1)">
       <use xlink:href="#DejaVuSans-51"/>
       <use x="63.623047" xlink:href="#DejaVuSans-48"/>
       <use x="127.246094" xlink:href="#DejaVuSans-48"/>
      </g>
     </g>
    </g>
   </g>
   <g id="line2d_15">
    <path clip-path="url(#pf17b995def)" d="M 73.832727 197.375502 
L 73.988583 196.801811 
L 74.316235 196.268772 
L 74.88102 195.744744 
L 75.72463 195.245126 
L 76.895959 194.795739 
L 79.790765 193.987537 
L 82.474482 193.480609 
L 84.071143 193.353435 
L 85.691653 193.443531 
L 87.291944 193.756323 
L 89.213888 194.395534 
L 91.028217 195.263639 
L 93.712336 196.87576 
L 96.70067 198.659262 
L 106.888974 204.532744 
L 116.615834 210.52789 
L 119.037317 211.601027 
L 123.142247 213.088623 
L 126.882734 214.199101 
L 130.25349 214.994804 
L 134.895659 215.91337 
L 141.732458 217.126275 
L 144.404788 217.384023 
L 146.974184 217.365928 
L 150.955868 217.276684 
L 155.391587 217.205187 
L 157.270978 216.911487 
L 159.897478 216.248379 
L 164.299563 214.844656 
L 167.039306 213.62484 
L 173.324266 210.900153 
L 176.398414 209.852674 
L 181.715392 207.964631 
L 185.938709 206.158858 
L 190.471071 203.997513 
L 197.08216 200.543185 
L 200.137675 198.740299 
L 202.368021 197.094059 
L 204.31918 195.760543 
L 208.790904 193.163366 
L 212.762813 190.870343 
L 215.294848 189.180925 
L 219.298648 186.233048 
L 221.856332 184.102109 
L 225.240348 180.884763 
L 228.666805 177.181278 
L 232.777654 172.808016 
L 235.217401 170.566453 
L 239.325927 167.145401 
L 243.600445 163.872538 
L 260.98564 151.078587 
L 264.22244 149.336002 
L 267.324608 147.878067 
L 269.964949 146.863869 
L 271.621097 146.442501 
L 274.487197 146.049249 
L 284.714594 145.105319 
L 286.438106 145.270925 
L 288.932055 145.598747 
L 290.107938 145.577405 
L 291.497192 145.266714 
L 292.783849 144.701276 
L 296.075287 143.000122 
L 301.279361 139.832912 
L 310.635419 134.063012 
L 313.06239 132.982417 
L 315.084689 132.328901 
L 317.173868 131.94107 
L 319.323298 131.783934 
L 322.050217 131.841862 
L 328.844817 132.292751 
L 337.485511 133.063284 
L 344.114457 133.917975 
L 365.473255 137.205057 
L 380.407136 139.393299 
L 395.433741 141.632549 
L 396.516272 142.057789 
L 397.367333 142.669637 
L 398.147013 143.893479 
L 398.364593 144.606762 
L 398.422231 145.113885 
L 398.487273 145.639253 
L 398.019058 147.285044 
L 397.558249 148.104504 
L 396.746677 149.189755 
L 395.238519 150.836199 
L 393.740621 152.119585 
L 392.034869 153.22506 
L 385.06484 157.458559 
L 381.372021 159.850454 
L 376.143943 163.449635 
L 369.687958 168.241531 
L 366.812517 170.661848 
L 365.104781 172.387219 
L 361.619331 176.122596 
L 337.856937 202.527872 
L 337.856937 202.527872 
" style="fill:none;stroke:#008000;stroke-linecap:square;stroke-width:1.5;"/>
   </g>
   <g id="line2d_16">
    <path clip-path="url(#pf17b995def)" d="M 73.832727 197.375502 
L 74.005089 196.827369 
L 74.379385 196.406297 
L 75.285799 195.859047 
L 76.532018 195.374055 
L 79.416851 194.558017 
L 82.091442 194.041763 
L 83.619199 193.924826 
L 85.228809 194.008377 
L 86.813948 194.317628 
L 88.562893 194.890666 
L 90.3667 195.733755 
L 92.7149 197.100253 
L 96.058079 199.075655 
L 105.498756 204.42482 
L 111.971335 208.501802 
L 114.569751 210.038385 
L 117.057896 211.216536 
L 120.758624 212.609789 
L 123.987832 213.619633 
L 127.403797 214.442857 
L 138.148524 216.363412 
L 140.828337 216.638833 
L 143.818279 216.623923 
L 147.475507 216.554397 
L 152.40776 216.506426 
L 154.188615 216.22747 
L 157.100106 215.490266 
L 161.155518 214.205668 
L 163.569269 213.141261 
L 170.917838 209.956364 
L 180.009371 206.734879 
L 183.544416 205.190857 
L 188.365076 202.858913 
L 197.382138 197.900847 
L 202.632932 194.331743 
L 211.904994 188.854245 
L 214.76095 186.762097 
L 217.910741 184.080858 
L 221.169255 181.026801 
L 224.330093 177.708638 
L 229.579639 172.105147 
L 231.673391 170.180624 
L 235.415105 167.061275 
L 240.513878 163.161775 
L 256.985519 151.010403 
L 259.516126 149.627735 
L 262.275607 148.267327 
L 265.566361 146.888573 
L 267.926474 146.143043 
L 269.972449 145.793939 
L 273.204885 145.450002 
L 278.975305 144.912023 
L 281.399625 144.748081 
L 283.309546 144.919378 
L 286.804866 145.398811 
L 288.026818 145.219085 
L 289.494685 144.765273 
L 291.307843 143.961133 
L 294.911833 141.873347 
L 307.911665 134.096834 
L 310.117072 133.190646 
L 312.226587 132.620477 
L 314.426198 132.295795 
L 316.284096 132.214993 
L 319.533496 132.362714 
L 325.259197 132.826076 
L 336.160293 133.933816 
L 343.724728 135.020306 
L 376.669577 140.180891 
L 391.001892 142.252439 
L 391.911128 142.625689 
L 392.653613 143.16704 
L 393.183566 143.867222 
L 393.488218 144.534585 
L 393.66298 145.441888 
L 393.579839 146.124997 
L 393.285928 146.84576 
L 392.672284 147.773776 
L 391.212918 149.406862 
L 389.619192 150.80709 
L 388.047985 151.835176 
L 383.617297 154.519363 
L 377.593816 158.409976 
L 371.33852 162.7687 
L 364.885891 167.687962 
L 362.754111 169.857139 
L 358.783033 174.128843 
L 336.581242 198.945545 
L 336.581242 198.945545 
" style="fill:none;stroke:#0000ff;stroke-linecap:square;stroke-width:1.5;"/>
   </g>
   <g id="line2d_17">
    <path clip-path="url(#pf17b995def)" d="M 73.832727 197.375502 
L 74.005204 196.827414 
L 74.471117 196.339036 
L 75.286709 195.859091 
L 76.532664 195.373462 
L 79.418014 194.558949 
L 82.092065 194.039178 
L 83.619302 193.915548 
L 85.228939 193.998556 
L 86.813808 194.309223 
L 88.553967 194.898261 
L 90.356153 195.743845 
L 92.704112 197.109667 
L 96.04501 199.087433 
L 105.485012 204.43311 
L 109.409358 206.886461 
L 113.795876 209.618398 
L 116.314502 210.890877 
L 118.936113 211.935638 
L 123.159827 213.357943 
L 126.227122 214.19225 
L 131.561839 215.249869 
L 139.267025 216.526108 
L 141.579967 216.681472 
L 145.633356 216.600934 
L 149.619593 216.622858 
L 152.06423 216.570191 
L 153.928553 216.320955 
L 157.081035 215.52596 
L 161.427 214.118852 
L 164.488717 212.737605 
L 170.892321 209.973259 
L 179.263586 207.008969 
L 183.512151 205.177461 
L 188.330987 202.836412 
L 197.349404 197.871034 
L 202.596665 194.291615 
L 211.854275 188.78242 
L 214.705727 186.682115 
L 217.505247 184.303361 
L 220.777181 181.260441 
L 223.949087 177.935541 
L 229.142925 172.305425 
L 231.577171 170.047638 
L 235.314809 166.9204 
L 241.188978 162.413573 
L 251.116082 154.958594 
L 255.329061 151.753348 
L 257.470517 150.383314 
L 260.714255 148.653946 
L 263.540976 147.339614 
L 266.122125 146.330668 
L 268.081041 145.75935 
L 270.1659 145.418434 
L 275.657244 144.876058 
L 281.508881 144.380557 
L 283.132627 144.534053 
L 286.629029 144.995936 
L 287.849803 144.810108 
L 289.315089 144.348706 
L 291.122339 143.532119 
L 294.715691 141.426157 
L 303.869101 135.680306 
L 306.696943 134.02539 
L 309.18691 132.901295 
L 310.885221 132.331971 
L 312.513944 131.951164 
L 314.694184 131.689348 
L 317.112016 131.672297 
L 322.093691 132.010694 
L 336.514196 133.466123 
L 342.773089 134.354686 
L 371.639255 138.766003 
L 380.373351 139.875497 
L 390.420436 141.173989 
L 391.385956 141.496222 
L 392.172194 141.991212 
L 393.125592 142.906468 
L 393.419776 143.832657 
L 393.440189 144.611221 
L 393.347025 145.167545 
L 393.149167 145.705026 
L 392.501596 146.614378 
L 390.986242 148.204216 
L 389.337533 149.544661 
L 388.087222 150.316612 
L 384.735597 152.153293 
L 378.678421 155.650058 
L 371.802138 159.935269 
L 364.622272 164.781346 
L 362.801658 166.352443 
L 357.52526 171.543984 
L 334.188378 195.396189 
L 334.188378 195.396189 
" style="fill:none;stroke:#ff0000;stroke-linecap:square;stroke-width:1.5;"/>
   </g>
   <g id="patch_3">
    <path d="M 57.6 307.584 
L 57.6 41.472 
" style="fill:none;stroke:#000000;stroke-linecap:square;stroke-linejoin:miter;stroke-width:0.8;"/>
   </g>
   <g id="patch_4">
    <path d="M 414.72 307.584 
L 414.72 41.472 
" style="fill:none;stroke:#000000;stroke-linecap:square;stroke-linejoin:miter;stroke-width:0.8;"/>
   </g>
   <g id="patch_5">
    <path d="M 57.6 307.584 
L 414.72 307.584 
" style="fill:none;stroke:#000000;stroke-linecap:square;stroke-linejoin:miter;stroke-width:0.8;"/>
   </g>
   <g id="patch_6">
    <path d="M 57.6 41.472 
L 414.72 41.472 
" style="fill:none;stroke:#000000;stroke-linecap:square;stroke-linejoin:miter;stroke-width:0.8;"/>
   </g>
  </g>
 </g>
 <defs>
  <clipPath id="pf17b995def">
   <rect height="266.112" width="357.12" x="57.6" y="41.472"/>
  </clipPath>
 </defs>
</svg>
