<?xml version="1.0" encoding="utf-8" standalone="no"?>
<!DOCTYPE svg PUBLIC "-//W3C//DTD SVG 1.1//EN"
  "http://www.w3.org/Graphics/SVG/1.1/DTD/svg11.dtd">
<!-- Created with matplotlib (https://matplotlib.org/) -->
<svg height="345.6pt" version="1.1" viewBox="0 0 460.8 345.6" width="460.8pt" xmlns="http://www.w3.org/2000/svg" xmlns:xlink="http://www.w3.org/1999/xlink">
 <defs>
  <style type="text/css">
*{stroke-linecap:butt;stroke-linejoin:round;}
  </style>
 </defs>
 <g id="figure_1">
  <g id="patch_1">
   <path d="M 0 345.6 
L 460.8 345.6 
L 460.8 0 
L 0 0 
z
" style="fill:#ffffff;"/>
  </g>
  <g id="axes_1">
   <g id="patch_2">
    <path d="M 57.6 307.584 
L 414.72 307.584 
L 414.72 41.472 
L 57.6 41.472 
z
" style="fill:#ffffff;"/>
   </g>
   <g id="matplotlib.axis_1">
    <g id="xtick_1">
     <g id="line2d_1">
      <defs>
       <path d="M 0 0 
L 0 3.5 
" id="m7bc9fb531c" style="stroke:#000000;stroke-width:0.8;"/>
      </defs>
      <g>
       <use style="stroke:#000000;stroke-width:0.8;" x="108.684972" xlink:href="#m7bc9fb531c" y="307.584"/>
      </g>
     </g>
     <g id="text_1">
      <!-- −200 -->
      <defs>
       <path d="M 10.59375 35.5 
L 73.1875 35.5 
L 73.1875 27.203125 
L 10.59375 27.203125 
z
" id="DejaVuSans-8722"/>
       <path d="M 19.1875 8.296875 
L 53.609375 8.296875 
L 53.609375 0 
L 7.328125 0 
L 7.328125 8.296875 
Q 12.9375 14.109375 22.625 23.890625 
Q 32.328125 33.6875 34.8125 36.53125 
Q 39.546875 41.84375 41.421875 45.53125 
Q 43.3125 49.21875 43.3125 52.78125 
Q 43.3125 58.59375 39.234375 62.25 
Q 35.15625 65.921875 28.609375 65.921875 
Q 23.96875 65.921875 18.8125 64.3125 
Q 13.671875 62.703125 7.8125 59.421875 
L 7.8125 69.390625 
Q 13.765625 71.78125 18.9375 73 
Q 24.125 74.21875 28.421875 74.21875 
Q 39.75 74.21875 46.484375 68.546875 
Q 53.21875 62.890625 53.21875 53.421875 
Q 53.21875 48.921875 51.53125 44.890625 
Q 49.859375 40.875 45.40625 35.40625 
Q 44.1875 33.984375 37.640625 27.21875 
Q 31.109375 20.453125 19.1875 8.296875 
z
" id="DejaVuSans-50"/>
       <path d="M 31.78125 66.40625 
Q 24.171875 66.40625 20.328125 58.90625 
Q 16.5 51.421875 16.5 36.375 
Q 16.5 21.390625 20.328125 13.890625 
Q 24.171875 6.390625 31.78125 6.390625 
Q 39.453125 6.390625 43.28125 13.890625 
Q 47.125 21.390625 47.125 36.375 
Q 47.125 51.421875 43.28125 58.90625 
Q 39.453125 66.40625 31.78125 66.40625 
z
M 31.78125 74.21875 
Q 44.046875 74.21875 50.515625 64.515625 
Q 56.984375 54.828125 56.984375 36.375 
Q 56.984375 17.96875 50.515625 8.265625 
Q 44.046875 -1.421875 31.78125 -1.421875 
Q 19.53125 -1.421875 13.0625 8.265625 
Q 6.59375 17.96875 6.59375 36.375 
Q 6.59375 54.828125 13.0625 64.515625 
Q 19.53125 74.21875 31.78125 74.21875 
z
" id="DejaVuSans-48"/>
      </defs>
      <g transform="translate(94.951378 322.182437)scale(0.1 -0.1)">
       <use xlink:href="#DejaVuSans-8722"/>
       <use x="83.789062" xlink:href="#DejaVuSans-50"/>
       <use x="147.412109" xlink:href="#DejaVuSans-48"/>
       <use x="211.035156" xlink:href="#DejaVuSans-48"/>
      </g>
     </g>
    </g>
    <g id="xtick_2">
     <g id="line2d_2">
      <g>
       <use style="stroke:#000000;stroke-width:0.8;" x="159.823479" xlink:href="#m7bc9fb531c" y="307.584"/>
      </g>
     </g>
     <g id="text_2">
      <!-- 0 -->
      <g transform="translate(156.642229 322.182437)scale(0.1 -0.1)">
       <use xlink:href="#DejaVuSans-48"/>
      </g>
     </g>
    </g>
    <g id="xtick_3">
     <g id="line2d_3">
      <g>
       <use style="stroke:#000000;stroke-width:0.8;" x="210.961986" xlink:href="#m7bc9fb531c" y="307.584"/>
      </g>
     </g>
     <g id="text_3">
      <!-- 200 -->
      <g transform="translate(201.418236 322.182437)scale(0.1 -0.1)">
       <use xlink:href="#DejaVuSans-50"/>
       <use x="63.623047" xlink:href="#DejaVuSans-48"/>
       <use x="127.246094" xlink:href="#DejaVuSans-48"/>
      </g>
     </g>
    </g>
    <g id="xtick_4">
     <g id="line2d_4">
      <g>
       <use style="stroke:#000000;stroke-width:0.8;" x="262.100494" xlink:href="#m7bc9fb531c" y="307.584"/>
      </g>
     </g>
     <g id="text_4">
      <!-- 400 -->
      <defs>
       <path d="M 37.796875 64.3125 
L 12.890625 25.390625 
L 37.796875 25.390625 
z
M 35.203125 72.90625 
L 47.609375 72.90625 
L 47.609375 25.390625 
L 58.015625 25.390625 
L 58.015625 17.1875 
L 47.609375 17.1875 
L 47.609375 0 
L 37.796875 0 
L 37.796875 17.1875 
L 4.890625 17.1875 
L 4.890625 26.703125 
z
" id="DejaVuSans-52"/>
      </defs>
      <g transform="translate(252.556744 322.182437)scale(0.1 -0.1)">
       <use xlink:href="#DejaVuSans-52"/>
       <use x="63.623047" xlink:href="#DejaVuSans-48"/>
       <use x="127.246094" xlink:href="#DejaVuSans-48"/>
      </g>
     </g>
    </g>
    <g id="xtick_5">
     <g id="line2d_5">
      <g>
       <use style="stroke:#000000;stroke-width:0.8;" x="313.239001" xlink:href="#m7bc9fb531c" y="307.584"/>
      </g>
     </g>
     <g id="text_5">
      <!-- 600 -->
      <defs>
       <path d="M 33.015625 40.375 
Q 26.375 40.375 22.484375 35.828125 
Q 18.609375 31.296875 18.609375 23.390625 
Q 18.609375 15.53125 22.484375 10.953125 
Q 26.375 6.390625 33.015625 6.390625 
Q 39.65625 6.390625 43.53125 10.953125 
Q 47.40625 15.53125 47.40625 23.390625 
Q 47.40625 31.296875 43.53125 35.828125 
Q 39.65625 40.375 33.015625 40.375 
z
M 52.59375 71.296875 
L 52.59375 62.3125 
Q 48.875 64.0625 45.09375 64.984375 
Q 41.3125 65.921875 37.59375 65.921875 
Q 27.828125 65.921875 22.671875 59.328125 
Q 17.53125 52.734375 16.796875 39.40625 
Q 19.671875 43.65625 24.015625 45.921875 
Q 28.375 48.1875 33.59375 48.1875 
Q 44.578125 48.1875 50.953125 41.515625 
Q 57.328125 34.859375 57.328125 23.390625 
Q 57.328125 12.15625 50.6875 5.359375 
Q 44.046875 -1.421875 33.015625 -1.421875 
Q 20.359375 -1.421875 13.671875 8.265625 
Q 6.984375 17.96875 6.984375 36.375 
Q 6.984375 53.65625 15.1875 63.9375 
Q 23.390625 74.21875 37.203125 74.21875 
Q 40.921875 74.21875 44.703125 73.484375 
Q 48.484375 72.75 52.59375 71.296875 
z
" id="DejaVuSans-54"/>
      </defs>
      <g transform="translate(303.695251 322.182437)scale(0.1 -0.1)">
       <use xlink:href="#DejaVuSans-54"/>
       <use x="63.623047" xlink:href="#DejaVuSans-48"/>
       <use x="127.246094" xlink:href="#DejaVuSans-48"/>
      </g>
     </g>
    </g>
    <g id="xtick_6">
     <g id="line2d_6">
      <g>
       <use style="stroke:#000000;stroke-width:0.8;" x="364.377508" xlink:href="#m7bc9fb531c" y="307.584"/>
      </g>
     </g>
     <g id="text_6">
      <!-- 800 -->
      <defs>
       <path d="M 31.78125 34.625 
Q 24.75 34.625 20.71875 30.859375 
Q 16.703125 27.09375 16.703125 20.515625 
Q 16.703125 13.921875 20.71875 10.15625 
Q 24.75 6.390625 31.78125 6.390625 
Q 38.8125 6.390625 42.859375 10.171875 
Q 46.921875 13.96875 46.921875 20.515625 
Q 46.921875 27.09375 42.890625 30.859375 
Q 38.875 34.625 31.78125 34.625 
z
M 21.921875 38.8125 
Q 15.578125 40.375 12.03125 44.71875 
Q 8.5 49.078125 8.5 55.328125 
Q 8.5 64.0625 14.71875 69.140625 
Q 20.953125 74.21875 31.78125 74.21875 
Q 42.671875 74.21875 48.875 69.140625 
Q 55.078125 64.0625 55.078125 55.328125 
Q 55.078125 49.078125 51.53125 44.71875 
Q 48 40.375 41.703125 38.8125 
Q 48.828125 37.15625 52.796875 32.3125 
Q 56.78125 27.484375 56.78125 20.515625 
Q 56.78125 9.90625 50.3125 4.234375 
Q 43.84375 -1.421875 31.78125 -1.421875 
Q 19.734375 -1.421875 13.25 4.234375 
Q 6.78125 9.90625 6.78125 20.515625 
Q 6.78125 27.484375 10.78125 32.3125 
Q 14.796875 37.15625 21.921875 38.8125 
z
M 18.3125 54.390625 
Q 18.3125 48.734375 21.84375 45.5625 
Q 25.390625 42.390625 31.78125 42.390625 
Q 38.140625 42.390625 41.71875 45.5625 
Q 45.3125 48.734375 45.3125 54.390625 
Q 45.3125 60.0625 41.71875 63.234375 
Q 38.140625 66.40625 31.78125 66.40625 
Q 25.390625 66.40625 21.84375 63.234375 
Q 18.3125 60.0625 18.3125 54.390625 
z
" id="DejaVuSans-56"/>
      </defs>
      <g transform="translate(354.833758 322.182437)scale(0.1 -0.1)">
       <use xlink:href="#DejaVuSans-56"/>
       <use x="63.623047" xlink:href="#DejaVuSans-48"/>
       <use x="127.246094" xlink:href="#DejaVuSans-48"/>
      </g>
     </g>
    </g>
   </g>
   <g id="matplotlib.axis_2">
    <g id="ytick_1">
     <g id="line2d_7">
      <defs>
       <path d="M 0 0 
L -3.5 0 
" id="me3dc243a6a" style="stroke:#000000;stroke-width:0.8;"/>
      </defs>
      <g>
       <use style="stroke:#000000;stroke-width:0.8;" x="57.6" xlink:href="#me3dc243a6a" y="288.83157"/>
      </g>
     </g>
     <g id="text_7">
      <!-- 0 -->
      <g transform="translate(44.2375 292.630789)scale(0.1 -0.1)">
       <use xlink:href="#DejaVuSans-48"/>
      </g>
     </g>
    </g>
    <g id="ytick_2">
     <g id="line2d_8">
      <g>
       <use style="stroke:#000000;stroke-width:0.8;" x="57.6" xlink:href="#me3dc243a6a" y="237.693063"/>
      </g>
     </g>
     <g id="text_8">
      <!-- 200 -->
      <g transform="translate(31.5125 241.492281)scale(0.1 -0.1)">
       <use xlink:href="#DejaVuSans-50"/>
       <use x="63.623047" xlink:href="#DejaVuSans-48"/>
       <use x="127.246094" xlink:href="#DejaVuSans-48"/>
      </g>
     </g>
    </g>
    <g id="ytick_3">
     <g id="line2d_9">
      <g>
       <use style="stroke:#000000;stroke-width:0.8;" x="57.6" xlink:href="#me3dc243a6a" y="186.554555"/>
      </g>
     </g>
     <g id="text_9">
      <!-- 400 -->
      <g transform="translate(31.5125 190.353774)scale(0.1 -0.1)">
       <use xlink:href="#DejaVuSans-52"/>
       <use x="63.623047" xlink:href="#DejaVuSans-48"/>
       <use x="127.246094" xlink:href="#DejaVuSans-48"/>
      </g>
     </g>
    </g>
    <g id="ytick_4">
     <g id="line2d_10">
      <g>
       <use style="stroke:#000000;stroke-width:0.8;" x="57.6" xlink:href="#me3dc243a6a" y="135.416048"/>
      </g>
     </g>
     <g id="text_10">
      <!-- 600 -->
      <g transform="translate(31.5125 139.215267)scale(0.1 -0.1)">
       <use xlink:href="#DejaVuSans-54"/>
       <use x="63.623047" xlink:href="#DejaVuSans-48"/>
       <use x="127.246094" xlink:href="#DejaVuSans-48"/>
      </g>
     </g>
    </g>
    <g id="ytick_5">
     <g id="line2d_11">
      <g>
       <use style="stroke:#000000;stroke-width:0.8;" x="57.6" xlink:href="#me3dc243a6a" y="84.277541"/>
      </g>
     </g>
     <g id="text_11">
      <!-- 800 -->
      <g transform="translate(31.5125 88.07676)scale(0.1 -0.1)">
       <use xlink:href="#DejaVuSans-56"/>
       <use x="63.623047" xlink:href="#DejaVuSans-48"/>
       <use x="127.246094" xlink:href="#DejaVuSans-48"/>
      </g>
     </g>
    </g>
   </g>
   <g id="line2d_12">
    <path clip-path="url(#p9cd788fea1)" d="M 159.823479 288.83157 
L 159.739435 282.346953 
L 159.680275 274.696604 
L 159.859638 273.012283 
L 160.26313 271.481242 
L 160.888635 270.13221 
L 161.575731 269.158106 
L 162.408369 268.355306 
L 163.574708 267.58281 
L 164.682519 267.129999 
L 165.884443 266.903954 
L 167.376412 266.877801 
L 170.440636 267.138585 
L 176.418689 267.872008 
L 183.207262 268.705484 
L 190.13363 269.573673 
L 192.23146 270.153742 
L 194.221489 270.950657 
L 196.123407 271.9784 
L 197.675051 273.070506 
L 199.120302 274.357295 
L 200.416127 275.861212 
L 201.334907 277.235058 
L 202.3576 279.303833 
L 203.283412 281.778996 
L 205.047153 287.018611 
L 206.020933 289.080071 
L 207.014272 290.719778 
L 208.179157 292.190253 
L 209.290984 293.228643 
L 210.505345 294.100307 
L 211.843691 294.76445 
L 212.983133 295.125297 
L 214.447255 295.332423 
L 215.926692 295.274897 
L 217.395901 294.985734 
L 218.823893 294.471815 
L 220.170088 293.739389 
L 221.423314 292.816475 
L 222.806636 291.521105 
L 224.04291 290.046322 
L 225.327458 288.130291 
L 227.353489 284.59411 
L 232.024685 275.752701 
L 235.66457 268.658115 
L 236.560235 267.433053 
L 237.587224 266.362911 
L 238.741676 265.5009 
L 239.995746 264.872072 
L 241.320642 264.481686 
L 242.696652 264.320288 
L 244.058956 264.406883 
L 245.418141 264.752516 
L 246.624907 265.309061 
L 247.7318 266.070739 
L 248.521328 266.851647 
L 249.178662 267.782577 
L 249.686723 268.783376 
L 250.173408 270.359342 
L 250.722303 273.375185 
L 251.302495 277.34102 
L 251.685318 278.287092 
L 252.276582 279.036701 
L 253.045935 279.54893 
L 253.836408 279.785666 
L 254.955242 279.867835 
L 256.142372 279.726074 
L 257.31889 279.386366 
L 258.447235 278.865459 
L 259.467244 278.148553 
L 260.33151 277.241862 
L 261.318637 275.809572 
L 262.079655 274.2732 
L 262.514204 272.868673 
L 262.697612 271.636176 
L 262.716303 269.807054 
L 262.399449 263.917178 
L 261.880266 259.113267 
L 261.027735 253.778216 
L 260.343272 249.161738 
L 259.260977 240.332444 
L 259.078745 236.778266 
L 259.131034 233.206062 
L 259.384118 229.939769 
L 259.888139 226.31842 
L 260.687588 222.315707 
L 261.594657 219.400249 
L 263.507672 214.501486 
L 267.628438 204.766836 
L 269.278141 201.847159 
L 277.16623 189.097945 
L 279.996849 184.993823 
L 283.268844 180.579675 
L 286.586889 176.212011 
L 286.841968 175.406759 
L 286.837084 174.537966 
L 286.652219 173.760763 
L 286.23342 172.820096 
L 282.314548 165.698905 
L 278.622834 159.087743 
L 276.282071 155.156803 
L 275.889839 154.891701 
L 274.842854 154.664978 
L 273.763576 154.896738 
L 272.601837 155.456807 
L 270.922116 156.578786 
L 269.537873 157.749858 
L 268.343176 159.047548 
L 267.238098 160.604128 
L 266.187892 162.503924 
L 264.756065 165.748969 
L 263.333136 169.602103 
L 261.398464 174.821018 
L 258.930341 180.467349 
L 256.687508 184.792977 
L 254.758615 188.098903 
L 251.890256 192.464137 
L 247.670511 198.081933 
L 246.792744 198.975297 
L 246.079234 199.420662 
L 245.412337 199.597269 
L 244.829076 199.586863 
L 244.0003 199.296396 
L 243.335065 198.87031 
L 240.575605 196.836582 
L 239.421154 196.336243 
L 238.168286 196.014301 
L 236.83848 195.877684 
L 234.986831 195.933885 
L 227.946849 196.389018 
L 226.111999 196.165261 
L 224.525427 195.780393 
L 222.966623 195.18174 
L 221.466679 194.351046 
L 220.277428 193.462361 
L 219.032563 192.26214 
L 217.943492 190.907097 
L 217.065495 189.399048 
L 216.487579 187.98448 
L 216.034082 186.192229 
L 215.834566 184.523835 
L 215.820835 182.797092 
L 216.070621 180.170464 
L 216.75961 176.021955 
L 218.76043 165.69824 
L 220.74197 156.458457 
L 221.740628 151.419063 
L 222.763936 146.324133 
L 223.674942 142.861417 
L 224.743609 139.8602 
L 226.421208 135.10823 
L 227.258115 132.917431 
L 228.104279 131.320605 
L 229.169877 129.821019 
L 230.423205 128.451172 
L 231.829131 127.274194 
L 233.407137 126.291848 
L 235.409082 125.327171 
L 239.00504 123.904421 
L 244.032262 121.931037 
L 247.19615 120.333138 
L 253.009422 117.092183 
L 253.240543 116.609231 
L 253.346911 115.783344 
L 253.071734 114.494296 
L 252.612408 113.418188 
L 250.175147 109.109564 
L 240.832244 92.482132 
L 238.608179 88.67983 
L 236.999183 86.401405 
L 235.178831 84.258062 
L 232.729987 81.693466 
L 230.598892 79.824583 
L 228.378944 78.188534 
L 225.094317 76.104436 
L 223.208431 75.082023 
L 220.410899 73.769783 
L 216.949257 72.142198 
L 216.37244 72.041813 
L 215.327578 72.244833 
L 214.798167 72.548494 
L 214.027637 73.425161 
L 213.451537 74.569488 
L 212.865873 76.376288 
L 210.920462 83.722847 
L 208.887195 91.00336 
L 207.142784 96.578711 
L 206.171331 100.81009 
L 205.173644 106.142968 
L 204.135354 112.801125 
L 201.038431 133.492355 
L 199.582032 142.505953 
L 197.342805 158.106267 
L 194.527758 179.826251 
L 194.266286 184.75291 
L 194.268383 189.735795 
L 194.505819 194.525837 
L 194.786544 196.554349 
L 195.281411 198.455704 
L 196.030463 200.507995 
L 196.856886 202.18204 
L 197.785153 203.528773 
L 198.77545 204.603269 
L 199.935527 205.538721 
L 201.258148 206.294727 
L 202.733033 206.824138 
L 204.593606 207.226164 
L 214.253746 208.975331 
L 216.527927 209.72001 
L 218.340608 210.555741 
L 219.981975 211.55803 
L 221.591969 212.801898 
L 222.835376 214.019992 
L 223.653209 215.143607 
L 224.017212 216.076783 
L 224.079959 216.913102 
L 223.892204 217.623442 
L 223.455788 218.326264 
L 222.781553 218.974802 
L 218.791726 222.246644 
L 216.790472 224.328493 
L 214.506601 227.077597 
L 212.78804 229.242163 
L 211.971844 229.837722 
L 211.196917 230.11704 
L 210.36093 230.163244 
L 209.528497 229.958434 
L 208.567017 229.416698 
L 206.567961 228.196712 
L 204.997728 227.456559 
L 203.189854 226.862534 
L 200.739041 226.261018 
L 196.798768 225.518793 
L 190.820267 224.40001 
L 188.811649 223.781158 
L 187.357218 223.107433 
L 185.763819 222.099953 
L 184.313968 220.876158 
L 182.980166 219.448831 
L 181.810634 217.816796 
L 180.814473 216.001532 
L 180.119169 214.329047 
L 179.385899 211.972789 
L 178.94802 209.851794 
L 178.686324 207.369249 
L 178.687689 205.187962 
L 178.801971 202.402396 
L 178.949311 197.449605 
L 178.886825 194.39996 
L 178.610859 190.718089 
L 177.971615 186.187626 
L 176.707315 179.908814 
L 176.028784 175.975189 
L 175.722418 172.593655 
L 175.593444 167.710157 
L 175.744607 161.554486 
L 175.981708 155.428629 
L 176.330324 148.646614 
L 176.609628 142.980288 
L 176.906949 136.433612 
L 177.199758 130.051859 
L 177.655983 125.639628 
L 178.442097 118.653596 
L 178.903317 114.800513 
L 179.884338 109.015188 
L 181.356153 100.87051 
L 182.33948 96.491085 
L 183.566528 91.865734 
L 185.225901 86.44495 
L 186.657976 82.372815 
L 188.61341 77.352676 
L 189.968453 74.295999 
L 191.083068 72.400422 
L 194.395283 68.075229 
L 197.487859 64.789452 
L 199.10629 63.963692 
L 199.685587 63.956533 
L 200.345146 64.108005 
L 201.209899 64.464134 
L 204.007021 65.946307 
L 212.164201 70.114326 
L 212.812714 70.182494 
L 213.749444 69.983488 
L 214.614094 69.422371 
L 215.111135 68.887257 
L 215.889591 67.677601 
L 216.627928 65.982411 
L 218.393588 61.404133 
L 219.657169 58.116489 
L 220.350326 56.891185 
L 221.196387 55.824103 
L 222.023629 55.073646 
L 222.962506 54.462719 
L 223.994763 54.01045 
L 225.112088 53.704156 
L 226.816151 53.57071 
L 229.807447 53.649975 
L 232.139311 53.922594 
L 235.113732 54.489311 
L 237.471703 55.125884 
L 242.371257 56.775126 
L 251.18751 60.005955 
L 270.090323 67.59243 
L 273.363545 69.238528 
L 277.69536 71.442214 
L 287.049079 75.668991 
L 294.147257 78.755482 
L 299.171743 80.98957 
L 300.359614 81.889505 
L 301.27438 83.076916 
L 301.673746 83.894544 
L 302.166593 85.798866 
L 304.597181 97.073476 
L 307.558382 110.882613 
L 308.204568 115.543479 
L 308.636995 120.228943 
L 308.857658 125.825337 
L 309.013758 131.523446 
L 309.508932 142.730911 
L 309.978537 145.258253 
L 312.164709 156.033982 
L 312.673307 158.943788 
L 312.603503 159.784122 
L 312.379158 160.581346 
L 311.959771 161.341034 
L 311.32481 162.033424 
L 310.492377 162.586078 
L 309.081057 163.215184 
L 305.823636 164.654043 
L 300.796312 167.195754 
L 293.473047 171.089569 
L 289.210218 173.418314 
L 288.40719 173.519696 
L 287.761796 173.469581 
L 286.841917 173.10642 
L 286.011019 172.396643 
L 285.660055 171.930976 
L 285.035372 170.781127 
L 283.000034 166.89575 
L 278.570724 159.043432 
L 254.8983 117.544708 
L 242.637791 96.192564 
L 238.558447 89.157029 
L 236.78164 86.576555 
L 235.00652 84.382354 
L 233.508034 82.825826 
L 230.635533 80.210909 
L 228.738064 78.716105 
L 225.894072 76.828736 
L 222.417472 74.850033 
L 214.066068 70.468972 
L 206.113954 66.382723 
L 201.752913 63.923498 
L 199.819212 62.56935 
L 197.73606 60.803921 
L 193.429277 56.849661 
L 193.429277 56.849661 
" style="fill:none;stroke:#008000;stroke-linecap:square;stroke-width:1.5;"/>
   </g>
   <g id="line2d_13">
    <path clip-path="url(#p9cd788fea1)" d="M 159.823479 288.83157 
L 159.746328 283.593374 
L 159.651248 276.95703 
L 159.774737 274.870288 
L 160.088582 273.379272 
L 160.6232 271.975762 
L 161.453593 270.698326 
L 162.249406 269.927862 
L 163.085659 269.357404 
L 164.087083 268.891532 
L 165.307693 268.560075 
L 166.781714 268.457833 
L 169.015666 268.61397 
L 174.187911 269.156475 
L 190.80438 271.233849 
L 192.840426 271.806275 
L 194.759943 272.592937 
L 196.618936 273.618909 
L 198.118385 274.707476 
L 199.533443 276.0065 
L 200.551782 277.24696 
L 201.55632 278.863777 
L 202.52716 280.940449 
L 203.839041 284.617902 
L 205.155543 288.206905 
L 206.103653 290.202581 
L 207.158922 291.903645 
L 208.119133 292.990014 
L 209.30152 293.991193 
L 210.451594 294.744097 
L 212.178029 295.327879 
L 213.415003 295.479367 
L 214.942698 295.419271 
L 216.382781 295.122806 
L 217.784466 294.619627 
L 219.095992 293.892468 
L 220.520413 292.765485 
L 221.751502 291.51709 
L 222.886589 290.024513 
L 224.051378 288.122393 
L 226.020032 284.346893 
L 233.862972 268.264361 
L 234.951703 266.882555 
L 236.0224 265.902702 
L 237.203644 265.155177 
L 238.433164 264.646313 
L 239.670058 264.365819 
L 240.972675 264.320336 
L 242.294173 264.517295 
L 243.523558 264.943884 
L 244.690437 265.597446 
L 245.607967 266.363309 
L 246.5705 267.496952 
L 247.25765 268.691634 
L 247.703385 269.932143 
L 248.236615 272.270538 
L 249.255388 277.390795 
L 249.591529 278.007308 
L 250.197896 278.653183 
L 250.784859 278.92794 
L 251.540391 278.989318 
L 252.70877 278.818287 
L 253.904547 278.433027 
L 255.073225 277.8468 
L 256.0731 277.047543 
L 256.908175 276.084467 
L 257.845444 274.62482 
L 258.562558 273.028363 
L 258.954273 271.583473 
L 259.106533 270.08558 
L 259.020314 267.964854 
L 258.659249 263.931444 
L 257.999921 258.664117 
L 256.955139 252.658256 
L 255.574805 243.707355 
L 255.015022 239.031032 
L 254.834257 235.223779 
L 254.896953 231.363961 
L 255.173857 228.094128 
L 255.70786 224.544316 
L 256.375379 221.667294 
L 257.411064 218.216793 
L 259.361464 212.901245 
L 262.058669 206.084106 
L 263.373549 203.486005 
L 266.322236 198.4892 
L 274.107786 185.898083 
L 277.946779 180.463475 
L 280.538579 176.960553 
L 280.852687 176.187006 
L 280.943081 175.305939 
L 280.768798 174.350719 
L 280.255621 173.276816 
L 277.069721 167.742935 
L 272.833569 160.440906 
L 270.152743 156.199857 
L 269.582853 155.883885 
L 268.890568 155.739072 
L 268.139663 155.812085 
L 267.350452 156.095567 
L 266.204352 156.744513 
L 264.619811 157.882929 
L 263.329883 159.090309 
L 262.217737 160.40377 
L 261.170847 161.987572 
L 260.086244 164.069678 
L 258.769261 167.14712 
L 254.365268 178.581591 
L 252.680671 182.090433 
L 250.609413 185.936488 
L 248.758241 189.005457 
L 246.010129 193.114814 
L 242.593583 197.686699 
L 241.796944 198.383718 
L 241.131893 198.669492 
L 240.464206 198.722459 
L 239.715796 198.532723 
L 238.819835 197.932794 
L 236.825054 196.455741 
L 235.51322 195.858345 
L 234.2849 195.527454 
L 232.917008 195.370319 
L 231.157591 195.413917 
L 227.663774 195.775495 
L 224.658651 195.992621 
L 222.823348 195.876431 
L 221.013301 195.540761 
L 219.422317 195.020452 
L 217.992219 194.325865 
L 216.534859 193.316146 
L 215.301256 192.253046 
L 214.155128 190.974127 
L 213.249076 189.638364 
L 212.549975 188.144549 
L 212.031245 186.432918 
L 211.738163 184.537449 
L 211.702675 182.603183 
L 211.906984 180.326553 
L 212.530193 176.208935 
L 214.377014 165.720046 
L 217.94079 146.89847 
L 218.859203 143.236653 
L 219.962668 140.018019 
L 221.742198 134.61053 
L 222.401517 132.970909 
L 223.282852 131.398972 
L 224.420404 129.855565 
L 225.695224 128.510361 
L 226.900632 127.518402 
L 228.47101 126.53573 
L 230.441026 125.560116 
L 234.394301 123.908419 
L 237.59703 122.587983 
L 240.558318 121.085448 
L 246.670592 117.566593 
L 246.939128 116.990354 
L 246.965892 116.330227 
L 246.769224 115.403874 
L 246.303956 114.233967 
L 244.867599 111.714417 
L 234.358666 93.754746 
L 231.935345 89.847561 
L 230.50249 87.976901 
L 228.49721 85.78602 
L 226.171706 83.557324 
L 224.038662 81.854133 
L 221.925711 80.442965 
L 218.317903 78.347477 
L 212.695543 75.535564 
L 211.873558 75.387161 
L 211.192251 75.467809 
L 210.665569 75.762128 
L 210.083766 76.345368 
L 209.547971 77.223817 
L 209.090234 78.446441 
L 208.515054 80.568267 
L 206.163526 89.914549 
L 204.993306 94.078777 
L 203.366882 99.51756 
L 202.425433 103.963005 
L 201.099232 111.901261 
L 199.224059 125.994015 
L 198.433317 132.023186 
L 196.672321 145.041897 
L 196.099671 149.24748 
L 192.266973 180.283853 
L 192.042902 185.07357 
L 192.137836 190.733196 
L 192.497482 195.965542 
L 192.889322 197.954681 
L 193.764648 200.569417 
L 194.620215 202.412122 
L 195.662866 203.995571 
L 196.616921 205.063186 
L 197.752372 206.00818 
L 198.919046 206.70763 
L 200.317638 207.245098 
L 202.111247 207.627429 
L 206.260039 208.20777 
L 209.903029 208.800747 
L 212.512498 209.43365 
L 214.483613 210.114858 
L 216.267933 210.959804 
L 217.893621 211.971308 
L 219.290746 213.050819 
L 220.535942 214.265643 
L 221.360937 215.393311 
L 221.681478 216.149181 
L 221.786268 216.94284 
L 221.668238 217.591888 
L 221.309972 218.264451 
L 220.673112 218.91668 
L 216.869329 222.154967 
L 215.073985 224.086902 
L 213.20208 226.416017 
L 211.708976 228.275469 
L 211.009649 228.742495 
L 210.255147 228.967524 
L 209.411343 228.976599 
L 208.627304 228.749901 
L 207.655027 228.189765 
L 205.602201 227.074381 
L 203.97649 226.408455 
L 201.382716 225.693975 
L 197.571329 224.96033 
L 190.385212 223.684344 
L 188.486314 223.095023 
L 187.06435 222.449733 
L 185.51808 221.476932 
L 184.094981 220.292997 
L 182.795175 218.896879 
L 181.633505 217.283202 
L 180.648219 215.529298 
L 179.953099 213.864848 
L 179.317771 211.942508 
L 178.810515 209.617204 
L 178.54127 207.197181 
L 178.413144 203.863799 
L 178.175645 192.817903 
L 177.804697 189.585161 
L 177.161265 186.040555 
L 175.233984 176.602435 
L 174.89821 173.265212 
L 174.66361 168.364409 
L 174.68528 160.077202 
L 174.897282 155.94527 
L 175.068511 150.861727 
L 175.369572 140.410963 
L 175.748326 129.320103 
L 176.490505 121.603209 
L 176.886906 116.453021 
L 178.354467 106.026344 
L 179.161719 101.631148 
L 180.428334 96.112333 
L 182.106291 90.106009 
L 183.919092 84.623948 
L 186.515173 77.741942 
L 187.486519 75.75852 
L 188.920884 73.428793 
L 190.623371 71.173219 
L 193.372867 68.008788 
L 194.545791 66.887783 
L 195.126627 66.658725 
L 195.653122 66.664323 
L 196.652993 66.928855 
L 198.035758 67.599906 
L 206.680154 72.017705 
L 207.737504 72.354422 
L 208.595238 72.378695 
L 209.380513 72.169103 
L 210.124495 71.693193 
L 210.74272 71.011816 
L 211.475095 69.813502 
L 212.084347 68.364685 
L 213.561921 64.431307 
L 214.965622 60.563898 
L 215.629987 59.356496 
L 216.440814 58.308824 
L 217.421425 57.397108 
L 218.611505 56.652462 
L 219.909644 56.154654 
L 221.126308 55.928698 
L 222.865006 55.849616 
L 225.474402 56.014773 
L 228.646147 56.439278 
L 231.284501 56.97886 
L 234.144583 57.775096 
L 244.004789 61.086175 
L 251.526227 63.997136 
L 258.31533 66.641998 
L 264.481666 69.022393 
L 267.829837 70.617108 
L 272.49982 72.94303 
L 286.255832 78.954134 
L 293.618988 82.161328 
L 294.610335 82.918967 
L 295.363024 83.796317 
L 295.910822 84.753547 
L 296.280842 85.858281 
L 296.920535 88.79699 
L 298.306171 94.929138 
L 301.743644 109.838472 
L 302.512147 114.720165 
L 303.124763 120.355019 
L 303.381129 125.209971 
L 303.579868 131.019015 
L 304.08321 140.265492 
L 304.455279 142.975163 
L 305.446652 147.441184 
L 306.62473 152.860733 
L 307.479845 157.064164 
L 307.698659 158.503334 
L 307.656555 159.488414 
L 307.420117 160.325018 
L 306.966905 161.071005 
L 306.292128 161.686785 
L 305.291376 162.24691 
L 300.569571 164.452429 
L 293.320172 168.356418 
L 288.523277 171.120647 
L 286.554044 172.244208 
L 285.950639 172.402988 
L 284.773979 172.469936 
L 283.97918 172.259093 
L 283.203713 171.790246 
L 282.577302 171.125934 
L 281.91031 170.035422 
L 278.578448 164.135393 
L 268.992299 147.782346 
L 265.029523 140.991012 
L 243.338377 104.430451 
L 239.003488 97.029025 
L 235.726956 91.686025 
L 233.909869 89.061171 
L 232.026843 86.71827 
L 229.909729 84.506285 
L 227.990107 82.849198 
L 226.243333 81.573863 
L 223.684336 79.990455 
L 220.141772 78.108151 
L 212.722947 74.42285 
L 206.131227 71.185689 
L 201.64566 68.832346 
L 199.593684 67.585197 
L 197.253706 65.876803 
L 195.320399 64.24313 
L 191.765477 61.001924 
L 191.765477 61.001924 
" style="fill:none;stroke:#0000ff;stroke-linecap:square;stroke-width:1.5;"/>
   </g>
   <g id="line2d_14">
    <path clip-path="url(#p9cd788fea1)" d="M 159.823479 288.83157 
L 159.748599 283.593333 
L 159.668139 276.384296 
L 159.814973 274.617997 
L 160.16485 273.138319 
L 160.632471 271.978223 
L 161.325732 270.861771 
L 162.091284 270.061152 
L 163.089039 269.354125 
L 164.35701 268.797935 
L 165.547613 268.525756 
L 166.787322 268.454972 
L 169.02216 268.595858 
L 173.13901 269.005618 
L 189.288124 270.850312 
L 191.407655 271.287453 
L 193.145325 271.820783 
L 195.044416 272.638495 
L 196.63543 273.531588 
L 198.13979 274.613224 
L 199.561968 275.904129 
L 200.587756 277.138457 
L 201.598909 278.75098 
L 202.578179 280.823331 
L 203.899872 284.497098 
L 205.226495 288.081857 
L 206.186587 290.071292 
L 207.631249 292.439935 
L 208.82137 293.504115 
L 210.449657 294.653464 
L 211.884792 295.081417 
L 213.449094 295.19943 
L 214.970295 295.056034 
L 216.387951 294.669484 
L 217.754282 294.080057 
L 219.016578 293.271417 
L 220.14089 292.283866 
L 221.149395 291.198303 
L 222.209213 289.725629 
L 223.306536 287.78049 
L 225.041537 283.904964 
L 229.565947 272.691184 
L 231.734299 267.231373 
L 232.68391 265.694706 
L 233.624889 264.579089 
L 234.679671 263.679882 
L 235.867941 262.981801 
L 237.049 262.537824 
L 238.347843 262.303951 
L 239.651895 262.311604 
L 240.925112 262.557455 
L 241.935719 262.921367 
L 243.361534 263.753503 
L 244.264082 264.581006 
L 244.966777 265.473699 
L 245.612448 266.645155 
L 246.153061 268.14794 
L 246.838055 270.765534 
L 247.653321 274.131929 
L 248.134596 275.141733 
L 248.777647 275.835642 
L 249.340384 276.163642 
L 249.900772 276.258237 
L 250.714575 276.157384 
L 251.883113 275.820307 
L 253.24532 275.149519 
L 254.091388 274.512643 
L 254.962493 273.561125 
L 255.76708 272.287774 
L 256.490666 270.717829 
L 256.926076 269.268328 
L 257.122086 267.781328 
L 257.078428 266.259193 
L 256.611012 263.01011 
L 255.430427 256.70773 
L 254.315316 252.166384 
L 251.773157 241.656796 
L 250.682944 236.42024 
L 250.244541 233.274649 
L 249.944372 229.441365 
L 249.904204 225.848304 
L 250.110896 222.261698 
L 250.498327 219.324373 
L 251.229853 215.7819 
L 252.313472 211.785689 
L 255.53491 201.515884 
L 256.868181 198.537699 
L 262.672443 186.898112 
L 264.815155 182.926167 
L 269.433399 175.220885 
L 271.071592 172.632173 
L 271.471733 171.721295 
L 271.573427 170.875146 
L 271.469751 170.113951 
L 271.162042 169.329536 
L 270.402189 168.14537 
L 259.441289 152.460633 
L 258.873002 152.157858 
L 258.189997 152.02741 
L 257.459835 152.108541 
L 256.534319 152.501895 
L 255.440711 153.23642 
L 253.946601 154.49175 
L 252.755535 155.797277 
L 251.64376 157.346675 
L 250.739983 159.01745 
L 249.826632 161.208291 
L 248.724394 164.526852 
L 245.853245 174.359932 
L 244.290385 178.658438 
L 242.384191 183.093455 
L 240.564395 186.760137 
L 237.899319 191.507988 
L 234.888524 196.189181 
L 234.28671 196.735365 
L 233.619578 197.042318 
L 232.938977 197.1098 
L 232.322832 196.987169 
L 231.514736 196.5478 
L 228.915424 194.995825 
L 227.488946 194.561642 
L 226.207831 194.396324 
L 224.656788 194.426915 
L 222.411268 194.757677 
L 216.641644 195.688055 
L 214.80324 195.662745 
L 213.205259 195.45877 
L 211.582773 195.041192 
L 209.916112 194.325383 
L 208.384781 193.393075 
L 207.087579 192.376385 
L 205.859888 191.130417 
L 204.973916 189.914705 
L 204.265694 188.597491 
L 203.713955 187.157983 
L 203.270053 185.291851 
L 203.082599 183.366328 
L 203.117949 180.797441 
L 203.449768 176.32045 
L 204.277723 167.558767 
L 206.545177 147.02299 
L 207.143243 143.568175 
L 207.996551 140.274855 
L 209.298841 134.994727 
L 209.899468 133.065925 
L 210.658667 131.431588 
L 211.680163 129.808861 
L 212.854331 128.37452 
L 213.985547 127.297982 
L 215.479951 126.20133 
L 217.622027 124.95311 
L 220.9184 123.303772 
L 224.804261 121.326543 
L 228.239554 119.242758 
L 231.693589 116.954585 
L 232.949026 116.028953 
L 233.219672 115.508049 
L 233.323272 115.046908 
L 233.271834 114.602065 
L 232.932937 113.680994 
L 232.288729 112.560156 
L 230.061751 109.576379 
L 221.558409 98.32639 
L 215.546602 90.500837 
L 213.924734 88.788032 
L 211.447837 86.630629 
L 208.888029 84.698187 
L 206.876914 83.436191 
L 204.327598 82.117305 
L 200.523255 80.463682 
L 194.652444 78.322524 
L 193.823649 78.27005 
L 193.085721 78.449894 
L 192.554333 78.883618 
L 192.076912 79.550176 
L 191.677603 80.50774 
L 191.339872 82.039099 
L 190.819732 85.715258 
L 189.105681 97.61941 
L 188.147707 102.886878 
L 187.768092 106.724419 
L 187.395964 112.798489 
L 187.224106 120.265543 
L 186.766827 157.45769 
L 186.833811 166.168451 
L 187.059998 185.355083 
L 187.433787 189.487776 
L 188.260714 195.087027 
L 189.246199 199.96548 
L 189.868331 201.918439 
L 190.691463 203.732531 
L 191.859018 205.769208 
L 192.842604 207.089778 
L 193.849252 208.107784 
L 194.983849 208.984509 
L 196.383686 209.754694 
L 197.803005 210.216395 
L 199.323284 210.439771 
L 202.111774 210.515005 
L 207.948194 210.582705 
L 210.634378 210.825579 
L 212.981409 211.274721 
L 214.868598 211.866532 
L 216.620022 212.647477 
L 218.152876 213.527955 
L 219.554305 214.561563 
L 220.52625 215.567092 
L 220.946839 216.272908 
L 221.160982 217.044631 
L 221.136413 217.703752 
L 220.870367 218.417924 
L 220.439488 219.029627 
L 216.212882 223.935936 
L 214.602361 226.42018 
L 212.42136 229.913323 
L 211.810621 230.325092 
L 211.026616 230.579069 
L 210.194593 230.600693 
L 209.440243 230.403517 
L 205.546267 228.959833 
L 203.746581 228.614447 
L 201.597928 228.381267 
L 197.708336 228.180062 
L 191.23488 227.903195 
L 189.00894 227.536453 
L 187.514795 227.083841 
L 186.104631 226.448895 
L 184.72857 225.628591 
L 183.223949 224.472436 
L 181.850254 223.101036 
L 180.60676 221.525851 
L 179.659025 220.017585 
L 178.490028 217.656556 
L 177.687755 215.416251 
L 177.109955 213.051122 
L 176.555661 209.761903 
L 174.913727 198.836552 
L 174.053898 195.407371 
L 172.734685 191.409764 
L 169.830734 182.823492 
L 169.223119 180.194589 
L 168.309105 175.035486 
L 167.198902 165.898266 
L 166.381487 156.378559 
L 165.850717 150.876897 
L 164.862788 141.451019 
L 164.623206 138.784025 
L 164.464879 134.46711 
L 164.263672 128.41315 
L 164.012038 123.253935 
L 164.154724 113.044455 
L 164.391752 108.578275 
L 164.907979 103.256351 
L 165.7988 97.066114 
L 166.836261 91.68162 
L 168.740135 83.644698 
L 169.461675 81.556272 
L 170.604215 79.067738 
L 172.146745 76.41843 
L 174.965929 72.30851 
L 175.609754 71.725942 
L 176.182777 71.53411 
L 177.035197 71.572205 
L 178.12 71.864169 
L 184.373798 74.115888 
L 188.626285 75.637358 
L 189.473106 75.69035 
L 190.287775 75.521389 
L 190.871606 75.216118 
L 191.407008 74.742727 
L 191.935576 73.990301 
L 192.51806 72.713103 
L 193.005175 70.977499 
L 194.030592 66.618359 
L 194.841788 63.106477 
L 195.345499 61.82418 
L 196.022925 60.686394 
L 196.883474 59.661521 
L 197.968796 58.773006 
L 199.193839 58.117915 
L 200.838769 57.601556 
L 202.573751 57.3721 
L 205.528785 57.251996 
L 208.469284 57.332291 
L 211.467485 57.634635 
L 214.359802 58.139811 
L 226.509369 60.74794 
L 244.957347 65.402285 
L 248.47437 66.572561 
L 253.611679 68.382246 
L 267.748293 72.601968 
L 275.433715 74.876809 
L 276.508932 75.507579 
L 277.538519 76.434436 
L 278.147128 77.336487 
L 278.704903 78.649984 
L 280.326305 83.434916 
L 283.001439 90.890173 
L 286.534232 100.747331 
L 287.888406 105.497734 
L 289.060243 110.403045 
L 289.93033 115.11613 
L 291.075314 122.515385 
L 292.746855 131.956521 
L 293.367244 134.284267 
L 294.852369 138.615001 
L 296.415232 143.270658 
L 298.357232 150.016366 
L 298.310003 150.418853 
L 298.185512 150.691385 
L 297.843168 151.490027 
L 297.296949 152.168885 
L 296.403154 152.848042 
L 289.913216 156.876628 
L 284.034398 160.914619 
L 280.31773 163.626489 
L 278.765365 164.759274 
L 278.037949 165.047583 
L 276.878714 165.252902 
L 276.067169 165.120428 
L 275.249168 164.729903 
L 274.560558 164.130527 
L 273.793108 163.10836 
L 269.91469 157.554006 
L 258.020461 141.09723 
L 239.831116 116.010692 
L 225.643647 96.547958 
L 220.866518 90.051957 
L 218.417113 87.040149 
L 216.304726 84.90504 
L 214.218433 83.110168 
L 212.372846 81.76265 
L 210.270106 80.478814 
L 207.492962 79.081074 
L 203.983587 77.608326 
L 196.238956 74.607314 
L 189.393906 72.033836 
L 186.632176 70.837756 
L 183.843384 69.618207 
L 181.725871 68.602027 
L 178.868792 66.947533 
L 175.260063 64.431254 
L 173.699511 63.323148 
L 173.699511 63.323148 
" style="fill:none;stroke:#ff0000;stroke-linecap:square;stroke-width:1.5;"/>
   </g>
   <g id="patch_3">
    <path d="M 57.6 307.584 
L 57.6 41.472 
" style="fill:none;stroke:#000000;stroke-linecap:square;stroke-linejoin:miter;stroke-width:0.8;"/>
   </g>
   <g id="patch_4">
    <path d="M 414.72 307.584 
L 414.72 41.472 
" style="fill:none;stroke:#000000;stroke-linecap:square;stroke-linejoin:miter;stroke-width:0.8;"/>
   </g>
   <g id="patch_5">
    <path d="M 57.6 307.584 
L 414.72 307.584 
" style="fill:none;stroke:#000000;stroke-linecap:square;stroke-linejoin:miter;stroke-width:0.8;"/>
   </g>
   <g id="patch_6">
    <path d="M 57.6 41.472 
L 414.72 41.472 
" style="fill:none;stroke:#000000;stroke-linecap:square;stroke-linejoin:miter;stroke-width:0.8;"/>
   </g>
  </g>
 </g>
 <defs>
  <clipPath id="p9cd788fea1">
   <rect height="266.112" width="357.12" x="57.6" y="41.472"/>
  </clipPath>
 </defs>
</svg>
