<?xml version="1.0" encoding="utf-8" standalone="no"?>
<!DOCTYPE svg PUBLIC "-//W3C//DTD SVG 1.1//EN"
  "http://www.w3.org/Graphics/SVG/1.1/DTD/svg11.dtd">
<!-- Created with matplotlib (https://matplotlib.org/) -->
<svg height="345.6pt" version="1.1" viewBox="0 0 460.8 345.6" width="460.8pt" xmlns="http://www.w3.org/2000/svg" xmlns:xlink="http://www.w3.org/1999/xlink">
 <defs>
  <style type="text/css">
*{stroke-linecap:butt;stroke-linejoin:round;}
  </style>
 </defs>
 <g id="figure_1">
  <g id="patch_1">
   <path d="M 0 345.6 
L 460.8 345.6 
L 460.8 0 
L 0 0 
z
" style="fill:#ffffff;"/>
  </g>
  <g id="axes_1">
   <g id="patch_2">
    <path d="M 57.6 307.584 
L 414.72 307.584 
L 414.72 41.472 
L 57.6 41.472 
z
" style="fill:#ffffff;"/>
   </g>
   <g id="matplotlib.axis_1">
    <g id="xtick_1">
     <g id="line2d_1">
      <defs>
       <path d="M 0 0 
L 0 3.5 
" id="m5051b0f171" style="stroke:#000000;stroke-width:0.8;"/>
      </defs>
      <g>
       <use style="stroke:#000000;stroke-width:0.8;" x="73.832727" xlink:href="#m5051b0f171" y="307.584"/>
      </g>
     </g>
     <g id="text_1">
      <!-- 0 -->
      <defs>
       <path d="M 31.78125 66.40625 
Q 24.171875 66.40625 20.328125 58.90625 
Q 16.5 51.421875 16.5 36.375 
Q 16.5 21.390625 20.328125 13.890625 
Q 24.171875 6.390625 31.78125 6.390625 
Q 39.453125 6.390625 43.28125 13.890625 
Q 47.125 21.390625 47.125 36.375 
Q 47.125 51.421875 43.28125 58.90625 
Q 39.453125 66.40625 31.78125 66.40625 
z
M 31.78125 74.21875 
Q 44.046875 74.21875 50.515625 64.515625 
Q 56.984375 54.828125 56.984375 36.375 
Q 56.984375 17.96875 50.515625 8.265625 
Q 44.046875 -1.421875 31.78125 -1.421875 
Q 19.53125 -1.421875 13.0625 8.265625 
Q 6.59375 17.96875 6.59375 36.375 
Q 6.59375 54.828125 13.0625 64.515625 
Q 19.53125 74.21875 31.78125 74.21875 
z
" id="DejaVuSans-48"/>
      </defs>
      <g transform="translate(70.651477 322.182437)scale(0.1 -0.1)">
       <use xlink:href="#DejaVuSans-48"/>
      </g>
     </g>
    </g>
    <g id="xtick_2">
     <g id="line2d_2">
      <g>
       <use style="stroke:#000000;stroke-width:0.8;" x="118.237095" xlink:href="#m5051b0f171" y="307.584"/>
      </g>
     </g>
     <g id="text_2">
      <!-- 250 -->
      <defs>
       <path d="M 19.1875 8.296875 
L 53.609375 8.296875 
L 53.609375 0 
L 7.328125 0 
L 7.328125 8.296875 
Q 12.9375 14.109375 22.625 23.890625 
Q 32.328125 33.6875 34.8125 36.53125 
Q 39.546875 41.84375 41.421875 45.53125 
Q 43.3125 49.21875 43.3125 52.78125 
Q 43.3125 58.59375 39.234375 62.25 
Q 35.15625 65.921875 28.609375 65.921875 
Q 23.96875 65.921875 18.8125 64.3125 
Q 13.671875 62.703125 7.8125 59.421875 
L 7.8125 69.390625 
Q 13.765625 71.78125 18.9375 73 
Q 24.125 74.21875 28.421875 74.21875 
Q 39.75 74.21875 46.484375 68.546875 
Q 53.21875 62.890625 53.21875 53.421875 
Q 53.21875 48.921875 51.53125 44.890625 
Q 49.859375 40.875 45.40625 35.40625 
Q 44.1875 33.984375 37.640625 27.21875 
Q 31.109375 20.453125 19.1875 8.296875 
z
" id="DejaVuSans-50"/>
       <path d="M 10.796875 72.90625 
L 49.515625 72.90625 
L 49.515625 64.59375 
L 19.828125 64.59375 
L 19.828125 46.734375 
Q 21.96875 47.46875 24.109375 47.828125 
Q 26.265625 48.1875 28.421875 48.1875 
Q 40.625 48.1875 47.75 41.5 
Q 54.890625 34.8125 54.890625 23.390625 
Q 54.890625 11.625 47.5625 5.09375 
Q 40.234375 -1.421875 26.90625 -1.421875 
Q 22.3125 -1.421875 17.546875 -0.640625 
Q 12.796875 0.140625 7.71875 1.703125 
L 7.71875 11.625 
Q 12.109375 9.234375 16.796875 8.0625 
Q 21.484375 6.890625 26.703125 6.890625 
Q 35.15625 6.890625 40.078125 11.328125 
Q 45.015625 15.765625 45.015625 23.390625 
Q 45.015625 31 40.078125 35.4375 
Q 35.15625 39.890625 26.703125 39.890625 
Q 22.75 39.890625 18.8125 39.015625 
Q 14.890625 38.140625 10.796875 36.28125 
z
" id="DejaVuSans-53"/>
      </defs>
      <g transform="translate(108.693345 322.182437)scale(0.1 -0.1)">
       <use xlink:href="#DejaVuSans-50"/>
       <use x="63.623047" xlink:href="#DejaVuSans-53"/>
       <use x="127.246094" xlink:href="#DejaVuSans-48"/>
      </g>
     </g>
    </g>
    <g id="xtick_3">
     <g id="line2d_3">
      <g>
       <use style="stroke:#000000;stroke-width:0.8;" x="162.641464" xlink:href="#m5051b0f171" y="307.584"/>
      </g>
     </g>
     <g id="text_3">
      <!-- 500 -->
      <g transform="translate(153.097714 322.182437)scale(0.1 -0.1)">
       <use xlink:href="#DejaVuSans-53"/>
       <use x="63.623047" xlink:href="#DejaVuSans-48"/>
       <use x="127.246094" xlink:href="#DejaVuSans-48"/>
      </g>
     </g>
    </g>
    <g id="xtick_4">
     <g id="line2d_4">
      <g>
       <use style="stroke:#000000;stroke-width:0.8;" x="207.045832" xlink:href="#m5051b0f171" y="307.584"/>
      </g>
     </g>
     <g id="text_4">
      <!-- 750 -->
      <defs>
       <path d="M 8.203125 72.90625 
L 55.078125 72.90625 
L 55.078125 68.703125 
L 28.609375 0 
L 18.3125 0 
L 43.21875 64.59375 
L 8.203125 64.59375 
z
" id="DejaVuSans-55"/>
      </defs>
      <g transform="translate(197.502082 322.182437)scale(0.1 -0.1)">
       <use xlink:href="#DejaVuSans-55"/>
       <use x="63.623047" xlink:href="#DejaVuSans-53"/>
       <use x="127.246094" xlink:href="#DejaVuSans-48"/>
      </g>
     </g>
    </g>
    <g id="xtick_5">
     <g id="line2d_5">
      <g>
       <use style="stroke:#000000;stroke-width:0.8;" x="251.4502" xlink:href="#m5051b0f171" y="307.584"/>
      </g>
     </g>
     <g id="text_5">
      <!-- 1000 -->
      <defs>
       <path d="M 12.40625 8.296875 
L 28.515625 8.296875 
L 28.515625 63.921875 
L 10.984375 60.40625 
L 10.984375 69.390625 
L 28.421875 72.90625 
L 38.28125 72.90625 
L 38.28125 8.296875 
L 54.390625 8.296875 
L 54.390625 0 
L 12.40625 0 
z
" id="DejaVuSans-49"/>
      </defs>
      <g transform="translate(238.7252 322.182437)scale(0.1 -0.1)">
       <use xlink:href="#DejaVuSans-49"/>
       <use x="63.623047" xlink:href="#DejaVuSans-48"/>
       <use x="127.246094" xlink:href="#DejaVuSans-48"/>
       <use x="190.869141" xlink:href="#DejaVuSans-48"/>
      </g>
     </g>
    </g>
    <g id="xtick_6">
     <g id="line2d_6">
      <g>
       <use style="stroke:#000000;stroke-width:0.8;" x="295.854568" xlink:href="#m5051b0f171" y="307.584"/>
      </g>
     </g>
     <g id="text_6">
      <!-- 1250 -->
      <g transform="translate(283.129568 322.182437)scale(0.1 -0.1)">
       <use xlink:href="#DejaVuSans-49"/>
       <use x="63.623047" xlink:href="#DejaVuSans-50"/>
       <use x="127.246094" xlink:href="#DejaVuSans-53"/>
       <use x="190.869141" xlink:href="#DejaVuSans-48"/>
      </g>
     </g>
    </g>
    <g id="xtick_7">
     <g id="line2d_7">
      <g>
       <use style="stroke:#000000;stroke-width:0.8;" x="340.258937" xlink:href="#m5051b0f171" y="307.584"/>
      </g>
     </g>
     <g id="text_7">
      <!-- 1500 -->
      <g transform="translate(327.533937 322.182437)scale(0.1 -0.1)">
       <use xlink:href="#DejaVuSans-49"/>
       <use x="63.623047" xlink:href="#DejaVuSans-53"/>
       <use x="127.246094" xlink:href="#DejaVuSans-48"/>
       <use x="190.869141" xlink:href="#DejaVuSans-48"/>
      </g>
     </g>
    </g>
    <g id="xtick_8">
     <g id="line2d_8">
      <g>
       <use style="stroke:#000000;stroke-width:0.8;" x="384.663305" xlink:href="#m5051b0f171" y="307.584"/>
      </g>
     </g>
     <g id="text_8">
      <!-- 1750 -->
      <g transform="translate(371.938305 322.182437)scale(0.1 -0.1)">
       <use xlink:href="#DejaVuSans-49"/>
       <use x="63.623047" xlink:href="#DejaVuSans-55"/>
       <use x="127.246094" xlink:href="#DejaVuSans-53"/>
       <use x="190.869141" xlink:href="#DejaVuSans-48"/>
      </g>
     </g>
    </g>
   </g>
   <g id="matplotlib.axis_2">
    <g id="ytick_1">
     <g id="line2d_9">
      <defs>
       <path d="M 0 0 
L -3.5 0 
" id="mef16dbd866" style="stroke:#000000;stroke-width:0.8;"/>
      </defs>
      <g>
       <use style="stroke:#000000;stroke-width:0.8;" x="57.6" xlink:href="#mef16dbd866" y="288.641239"/>
      </g>
     </g>
     <g id="text_9">
      <!-- −1200 -->
      <defs>
       <path d="M 10.59375 35.5 
L 73.1875 35.5 
L 73.1875 27.203125 
L 10.59375 27.203125 
z
" id="DejaVuSans-8722"/>
      </defs>
      <g transform="translate(16.770313 292.440457)scale(0.1 -0.1)">
       <use xlink:href="#DejaVuSans-8722"/>
       <use x="83.789062" xlink:href="#DejaVuSans-49"/>
       <use x="147.412109" xlink:href="#DejaVuSans-50"/>
       <use x="211.035156" xlink:href="#DejaVuSans-48"/>
       <use x="274.658203" xlink:href="#DejaVuSans-48"/>
      </g>
     </g>
    </g>
    <g id="ytick_2">
     <g id="line2d_10">
      <g>
       <use style="stroke:#000000;stroke-width:0.8;" x="57.6" xlink:href="#mef16dbd866" y="253.117744"/>
      </g>
     </g>
     <g id="text_10">
      <!-- −1000 -->
      <g transform="translate(16.770313 256.916963)scale(0.1 -0.1)">
       <use xlink:href="#DejaVuSans-8722"/>
       <use x="83.789062" xlink:href="#DejaVuSans-49"/>
       <use x="147.412109" xlink:href="#DejaVuSans-48"/>
       <use x="211.035156" xlink:href="#DejaVuSans-48"/>
       <use x="274.658203" xlink:href="#DejaVuSans-48"/>
      </g>
     </g>
    </g>
    <g id="ytick_3">
     <g id="line2d_11">
      <g>
       <use style="stroke:#000000;stroke-width:0.8;" x="57.6" xlink:href="#mef16dbd866" y="217.59425"/>
      </g>
     </g>
     <g id="text_11">
      <!-- −800 -->
      <defs>
       <path d="M 31.78125 34.625 
Q 24.75 34.625 20.71875 30.859375 
Q 16.703125 27.09375 16.703125 20.515625 
Q 16.703125 13.921875 20.71875 10.15625 
Q 24.75 6.390625 31.78125 6.390625 
Q 38.8125 6.390625 42.859375 10.171875 
Q 46.921875 13.96875 46.921875 20.515625 
Q 46.921875 27.09375 42.890625 30.859375 
Q 38.875 34.625 31.78125 34.625 
z
M 21.921875 38.8125 
Q 15.578125 40.375 12.03125 44.71875 
Q 8.5 49.078125 8.5 55.328125 
Q 8.5 64.0625 14.71875 69.140625 
Q 20.953125 74.21875 31.78125 74.21875 
Q 42.671875 74.21875 48.875 69.140625 
Q 55.078125 64.0625 55.078125 55.328125 
Q 55.078125 49.078125 51.53125 44.71875 
Q 48 40.375 41.703125 38.8125 
Q 48.828125 37.15625 52.796875 32.3125 
Q 56.78125 27.484375 56.78125 20.515625 
Q 56.78125 9.90625 50.3125 4.234375 
Q 43.84375 -1.421875 31.78125 -1.421875 
Q 19.734375 -1.421875 13.25 4.234375 
Q 6.78125 9.90625 6.78125 20.515625 
Q 6.78125 27.484375 10.78125 32.3125 
Q 14.796875 37.15625 21.921875 38.8125 
z
M 18.3125 54.390625 
Q 18.3125 48.734375 21.84375 45.5625 
Q 25.390625 42.390625 31.78125 42.390625 
Q 38.140625 42.390625 41.71875 45.5625 
Q 45.3125 48.734375 45.3125 54.390625 
Q 45.3125 60.0625 41.71875 63.234375 
Q 38.140625 66.40625 31.78125 66.40625 
Q 25.390625 66.40625 21.84375 63.234375 
Q 18.3125 60.0625 18.3125 54.390625 
z
" id="DejaVuSans-56"/>
      </defs>
      <g transform="translate(23.132812 221.393468)scale(0.1 -0.1)">
       <use xlink:href="#DejaVuSans-8722"/>
       <use x="83.789062" xlink:href="#DejaVuSans-56"/>
       <use x="147.412109" xlink:href="#DejaVuSans-48"/>
       <use x="211.035156" xlink:href="#DejaVuSans-48"/>
      </g>
     </g>
    </g>
    <g id="ytick_4">
     <g id="line2d_12">
      <g>
       <use style="stroke:#000000;stroke-width:0.8;" x="57.6" xlink:href="#mef16dbd866" y="182.070755"/>
      </g>
     </g>
     <g id="text_12">
      <!-- −600 -->
      <defs>
       <path d="M 33.015625 40.375 
Q 26.375 40.375 22.484375 35.828125 
Q 18.609375 31.296875 18.609375 23.390625 
Q 18.609375 15.53125 22.484375 10.953125 
Q 26.375 6.390625 33.015625 6.390625 
Q 39.65625 6.390625 43.53125 10.953125 
Q 47.40625 15.53125 47.40625 23.390625 
Q 47.40625 31.296875 43.53125 35.828125 
Q 39.65625 40.375 33.015625 40.375 
z
M 52.59375 71.296875 
L 52.59375 62.3125 
Q 48.875 64.0625 45.09375 64.984375 
Q 41.3125 65.921875 37.59375 65.921875 
Q 27.828125 65.921875 22.671875 59.328125 
Q 17.53125 52.734375 16.796875 39.40625 
Q 19.671875 43.65625 24.015625 45.921875 
Q 28.375 48.1875 33.59375 48.1875 
Q 44.578125 48.1875 50.953125 41.515625 
Q 57.328125 34.859375 57.328125 23.390625 
Q 57.328125 12.15625 50.6875 5.359375 
Q 44.046875 -1.421875 33.015625 -1.421875 
Q 20.359375 -1.421875 13.671875 8.265625 
Q 6.984375 17.96875 6.984375 36.375 
Q 6.984375 53.65625 15.1875 63.9375 
Q 23.390625 74.21875 37.203125 74.21875 
Q 40.921875 74.21875 44.703125 73.484375 
Q 48.484375 72.75 52.59375 71.296875 
z
" id="DejaVuSans-54"/>
      </defs>
      <g transform="translate(23.132812 185.869974)scale(0.1 -0.1)">
       <use xlink:href="#DejaVuSans-8722"/>
       <use x="83.789062" xlink:href="#DejaVuSans-54"/>
       <use x="147.412109" xlink:href="#DejaVuSans-48"/>
       <use x="211.035156" xlink:href="#DejaVuSans-48"/>
      </g>
     </g>
    </g>
    <g id="ytick_5">
     <g id="line2d_13">
      <g>
       <use style="stroke:#000000;stroke-width:0.8;" x="57.6" xlink:href="#mef16dbd866" y="146.54726"/>
      </g>
     </g>
     <g id="text_13">
      <!-- −400 -->
      <defs>
       <path d="M 37.796875 64.3125 
L 12.890625 25.390625 
L 37.796875 25.390625 
z
M 35.203125 72.90625 
L 47.609375 72.90625 
L 47.609375 25.390625 
L 58.015625 25.390625 
L 58.015625 17.1875 
L 47.609375 17.1875 
L 47.609375 0 
L 37.796875 0 
L 37.796875 17.1875 
L 4.890625 17.1875 
L 4.890625 26.703125 
z
" id="DejaVuSans-52"/>
      </defs>
      <g transform="translate(23.132812 150.346479)scale(0.1 -0.1)">
       <use xlink:href="#DejaVuSans-8722"/>
       <use x="83.789062" xlink:href="#DejaVuSans-52"/>
       <use x="147.412109" xlink:href="#DejaVuSans-48"/>
       <use x="211.035156" xlink:href="#DejaVuSans-48"/>
      </g>
     </g>
    </g>
    <g id="ytick_6">
     <g id="line2d_14">
      <g>
       <use style="stroke:#000000;stroke-width:0.8;" x="57.6" xlink:href="#mef16dbd866" y="111.023766"/>
      </g>
     </g>
     <g id="text_14">
      <!-- −200 -->
      <g transform="translate(23.132812 114.822985)scale(0.1 -0.1)">
       <use xlink:href="#DejaVuSans-8722"/>
       <use x="83.789062" xlink:href="#DejaVuSans-50"/>
       <use x="147.412109" xlink:href="#DejaVuSans-48"/>
       <use x="211.035156" xlink:href="#DejaVuSans-48"/>
      </g>
     </g>
    </g>
    <g id="ytick_7">
     <g id="line2d_15">
      <g>
       <use style="stroke:#000000;stroke-width:0.8;" x="57.6" xlink:href="#mef16dbd866" y="75.500271"/>
      </g>
     </g>
     <g id="text_15">
      <!-- 0 -->
      <g transform="translate(44.2375 79.29949)scale(0.1 -0.1)">
       <use xlink:href="#DejaVuSans-48"/>
      </g>
     </g>
    </g>
   </g>
   <g id="line2d_16">
    <path clip-path="url(#p298362fb15)" d="M 73.832727 75.500271 
L 73.956556 74.623793 
L 74.274761 73.80804 
L 74.765596 73.097004 
L 75.400192 72.530198 
L 76.145992 72.128228 
L 77.152529 71.83328 
L 78.26093 71.727553 
L 79.861476 71.820287 
L 83.125023 72.302142 
L 95.765235 74.455304 
L 99.740332 75.50762 
L 103.841857 76.802467 
L 108.839888 78.62765 
L 113.525757 80.579936 
L 118.564338 82.915146 
L 123.14964 85.31419 
L 128.247492 88.251729 
L 131.853713 90.523109 
L 135.805293 93.261688 
L 140.047189 96.463789 
L 144.140561 99.802678 
L 149.167829 104.212298 
L 156.296808 110.474203 
L 166.123015 118.620114 
L 184.78594 133.875592 
L 200.6348 146.511762 
L 211.055191 154.564992 
L 226.860304 166.375951 
L 234.85913 172.097206 
L 245.908606 179.64007 
L 260.472457 189.231841 
L 270.780132 195.682908 
L 279.338275 200.780584 
L 293.439859 208.931273 
L 304.438643 214.912062 
L 316.454465 221.181622 
L 326.71365 226.320895 
L 338.134987 231.785368 
L 350.710304 237.563194 
L 358.860459 241.326589 
L 365.107266 244.504912 
L 371.480891 247.694105 
L 382.516798 252.784978 
L 391.357352 256.821087 
L 393.364074 257.932084 
L 394.904551 259.05658 
L 396.059775 260.180544 
L 396.87344 261.233638 
L 397.534355 262.380869 
L 398.025112 263.60714 
L 398.349442 264.893802 
L 398.487273 266.733563 
L 398.381413 268.057347 
L 398.097047 269.367808 
L 397.640037 270.639372 
L 396.668292 272.26475 
L 395.967946 273.089605 
L 394.980749 274.006645 
L 393.359456 275.0283 
L 392.077413 275.581224 
L 390.436938 276.062389 
L 388.123116 276.477481 
L 384.211801 276.886179 
L 377.974408 277.321875 
L 376.057383 277.267879 
L 374.509802 277.002341 
L 373.025098 276.481744 
L 371.929198 275.85209 
L 370.956742 275.027767 
L 370.155332 274.046608 
L 369.533316 272.941472 
L 369.025507 271.502415 
L 368.833148 270.489108 
L 368.821247 268.940106 
L 369.11627 267.402471 
L 369.575589 266.141564 
L 370.455861 264.416188 
L 371.802201 262.182115 
L 371.802201 262.182115 
" style="fill:none;stroke:#008000;stroke-linecap:square;stroke-width:1.5;"/>
   </g>
   <g id="line2d_17">
    <path clip-path="url(#p298362fb15)" d="M 73.832727 75.500271 
L 73.988212 74.758976 
L 74.392823 74.029249 
L 74.938601 73.442287 
L 75.626404 72.972508 
L 76.625507 72.595129 
L 77.579911 72.437621 
L 79.040712 72.497994 
L 82.215279 72.918976 
L 92.086409 74.3779 
L 98.187906 75.873305 
L 102.740576 77.264544 
L 107.14528 78.88584 
L 111.810222 80.863783 
L 116.146409 82.983501 
L 120.598349 85.448308 
L 124.885327 88.088307 
L 132.286022 93.202834 
L 138.220679 99.10847 
L 142.679925 103.330918 
L 147.060567 107.5792 
L 160.167179 120.117989 
L 165.252561 124.730324 
L 164.844711 124.361164 
L 164.068464 126.245139 
L 171.597206 132.299597 
L 179.9781 138.75413 
L 185.861161 143.000502 
L 194.648895 149.080229 
L 202.486435 154.333009 
L 211.686135 160.21711 
L 218.68665 164.536295 
L 221.391923 166.147751 
L 231.601045 172.289087 
L 241.12164 177.870417 
L 247.684378 181.642623 
L 253.092762 184.799097 
L 258.796267 188.442708 
L 258.086543 188.171069 
L 258.836725 188.493483 
L 258.276498 188.341058 
L 258.986724 188.72969 
L 257.294113 187.89842 
L 258.115478 188.377241 
L 267.091953 193.568097 
L 270.147399 195.350346 
L 272.865648 197.155514 
L 274.092306 198.243232 
L 275.094153 199.434688 
L 275.9361 200.824124 
L 276.477276 202.108661 
L 276.801739 203.382865 
L 276.952967 204.965608 
L 276.850636 206.52483 
L 276.569411 207.879736 
L 276.123767 209.113005 
L 275.492679 210.295684 
L 274.560757 211.541749 
L 273.666844 212.371664 
L 272.300312 213.251095 
L 270.756458 213.896528 
L 269.390196 214.263995 
L 267.665056 214.529778 
L 265.342093 214.673069 
L 261.602866 214.700993 
L 254.841538 214.456524 
L 253.285694 214.153435 
L 251.855691 213.639597 
L 250.731134 213.001186 
L 249.812283 212.238372 
L 248.991356 211.269926 
L 248.559064 210.420193 
L 248.330519 209.676074 
L 248.058066 209.656314 
L 248.088234 209.31367 
L 248.264671 209.353628 
L 248.205355 208.843624 
L 248.297499 208.843576 
L 248.482405 208.613689 
L 248.476261 208.529227 
L 248.168658 208.479862 
L 248.077003 208.063104 
L 252.558523 198.175643 
L 253.613823 195.155657 
L 253.613823 195.155657 
" style="fill:none;stroke:#0000ff;stroke-linecap:square;stroke-width:1.5;"/>
   </g>
   <g id="line2d_18">
    <path clip-path="url(#p298362fb15)" d="M 73.832727 75.500271 
L 73.996251 74.597647 
L 74.420194 73.891163 
L 74.975661 73.305567 
L 75.678971 72.855716 
L 76.693622 72.49159 
L 77.72534 72.356898 
L 79.466149 72.449496 
L 88.148921 73.480737 
L 91.263202 74.003051 
L 93.679361 74.619836 
L 97.156011 75.685 
L 96.701367 75.563612 
L 101.733758 77.702755 
L 105.331948 79.484279 
L 110.739242 82.531898 
L 113.16364 84.08688 
L 116.684223 86.504889 
L 121.039097 89.795702 
L 123.170898 91.56632 
L 127.616571 95.468479 
L 127.810197 95.48316 
L 128.923142 96.728475 
L 135.420867 105.932187 
L 141.008592 113.867983 
L 145.437006 120.164966 
L 147.515102 123.053875 
L 153.334346 131.037121 
L 155.179495 133.341583 
L 155.502069 133.472941 
L 155.405843 133.540826 
L 155.437088 133.570973 
L 155.27272 133.390433 
L 155.311073 133.430641 
L 154.348866 135.210228 
L 156.517957 135.303452 
L 156.472985 135.306198 
L 156.545085 135.421476 
L 170.531461 150.48812 
L 189.087635 168.665597 
L 190.917489 170.437716 
L 194.573579 174.180125 
L 194.878726 174.207335 
L 195.630501 174.804638 
L 210.071775 189.025669 
L 214.230301 192.952533 
L 214.585419 193.059976 
L 214.997483 192.90378 
L 227.293273 204.413298 
L 232.637018 209.419434 
L 236.134494 212.88443 
L 236.113829 213.045739 
L 235.323487 212.898219 
L 235.373216 212.948947 
L 235.464509 213.045321 
L 235.103716 213.130801 
L 235.268515 213.117625 
L 235.410538 213.216092 
L 235.466921 213.051125 
L 235.562323 213.14631 
L 235.349065 213.106407 
L 235.455125 213.208868 
L 235.697825 213.31291 
L 234.74623 213.193675 
L 235.480326 213.391572 
L 235.368938 213.300742 
L 235.670582 213.558104 
L 236.056367 213.679971 
L 246.798944 227.076799 
L 247.573687 228.521788 
L 248.100128 229.985721 
L 248.409604 231.577635 
L 248.474824 232.965139 
L 248.298339 234.535449 
L 247.945269 235.79227 
L 247.314022 237.209739 
L 246.58692 238.368948 
L 245.751898 239.359667 
L 244.76148 240.239749 
L 243.469051 241.07332 
L 242.352125 241.533617 
L 240.775514 241.87611 
L 239.112072 241.939169 
L 237.708958 241.805402 
L 236.002764 241.453423 
L 233.48572 240.684724 
L 227.210026 238.340702 
L 224.756699 237.319446 
L 223.074214 236.415289 
L 221.852838 235.530678 
L 219.920104 233.654865 
L 218.956413 232.111138 
L 218.658245 230.844917 
L 218.652773 230.746473 
L 218.462638 230.550236 
L 218.417603 230.226168 
L 218.504705 230.227836 
L 218.681974 230.261827 
L 218.723676 229.724827 
L 218.933793 229.715488 
L 218.854918 229.566064 
L 218.586829 229.409555 
L 218.761843 229.457734 
L 222.651139 216.400171 
L 222.651139 216.400171 
" style="fill:none;stroke:#ff0000;stroke-linecap:square;stroke-width:1.5;"/>
   </g>
   <g id="patch_3">
    <path d="M 57.6 307.584 
L 57.6 41.472 
" style="fill:none;stroke:#000000;stroke-linecap:square;stroke-linejoin:miter;stroke-width:0.8;"/>
   </g>
   <g id="patch_4">
    <path d="M 414.72 307.584 
L 414.72 41.472 
" style="fill:none;stroke:#000000;stroke-linecap:square;stroke-linejoin:miter;stroke-width:0.8;"/>
   </g>
   <g id="patch_5">
    <path d="M 57.6 307.584 
L 414.72 307.584 
" style="fill:none;stroke:#000000;stroke-linecap:square;stroke-linejoin:miter;stroke-width:0.8;"/>
   </g>
   <g id="patch_6">
    <path d="M 57.6 41.472 
L 414.72 41.472 
" style="fill:none;stroke:#000000;stroke-linecap:square;stroke-linejoin:miter;stroke-width:0.8;"/>
   </g>
  </g>
 </g>
 <defs>
  <clipPath id="p298362fb15">
   <rect height="266.112" width="357.12" x="57.6" y="41.472"/>
  </clipPath>
 </defs>
</svg>
