<?xml version="1.0" encoding="utf-8" standalone="no"?>
<!DOCTYPE svg PUBLIC "-//W3C//DTD SVG 1.1//EN"
  "http://www.w3.org/Graphics/SVG/1.1/DTD/svg11.dtd">
<!-- Created with matplotlib (https://matplotlib.org/) -->
<svg height="345.6pt" version="1.1" viewBox="0 0 460.8 345.6" width="460.8pt" xmlns="http://www.w3.org/2000/svg" xmlns:xlink="http://www.w3.org/1999/xlink">
 <defs>
  <style type="text/css">
*{stroke-linecap:butt;stroke-linejoin:round;}
  </style>
 </defs>
 <g id="figure_1">
  <g id="patch_1">
   <path d="M 0 345.6 
L 460.8 345.6 
L 460.8 0 
L 0 0 
z
" style="fill:#ffffff;"/>
  </g>
  <g id="axes_1">
   <g id="patch_2">
    <path d="M 57.6 307.584 
L 414.72 307.584 
L 414.72 41.472 
L 57.6 41.472 
z
" style="fill:#ffffff;"/>
   </g>
   <g id="matplotlib.axis_1">
    <g id="xtick_1">
     <g id="line2d_1">
      <defs>
       <path d="M 0 0 
L 0 3.5 
" id="m9bcff7575a" style="stroke:#000000;stroke-width:0.8;"/>
      </defs>
      <g>
       <use style="stroke:#000000;stroke-width:0.8;" x="74.449333" xlink:href="#m9bcff7575a" y="307.584"/>
      </g>
     </g>
     <g id="text_1">
      <!-- 0 -->
      <defs>
       <path d="M 31.78125 66.40625 
Q 24.171875 66.40625 20.328125 58.90625 
Q 16.5 51.421875 16.5 36.375 
Q 16.5 21.390625 20.328125 13.890625 
Q 24.171875 6.390625 31.78125 6.390625 
Q 39.453125 6.390625 43.28125 13.890625 
Q 47.125 21.390625 47.125 36.375 
Q 47.125 51.421875 43.28125 58.90625 
Q 39.453125 66.40625 31.78125 66.40625 
z
M 31.78125 74.21875 
Q 44.046875 74.21875 50.515625 64.515625 
Q 56.984375 54.828125 56.984375 36.375 
Q 56.984375 17.96875 50.515625 8.265625 
Q 44.046875 -1.421875 31.78125 -1.421875 
Q 19.53125 -1.421875 13.0625 8.265625 
Q 6.59375 17.96875 6.59375 36.375 
Q 6.59375 54.828125 13.0625 64.515625 
Q 19.53125 74.21875 31.78125 74.21875 
z
" id="DejaVuSans-48"/>
      </defs>
      <g transform="translate(71.268083 322.182437)scale(0.1 -0.1)">
       <use xlink:href="#DejaVuSans-48"/>
      </g>
     </g>
    </g>
    <g id="xtick_2">
     <g id="line2d_2">
      <g>
       <use style="stroke:#000000;stroke-width:0.8;" x="138.682348" xlink:href="#m9bcff7575a" y="307.584"/>
      </g>
     </g>
     <g id="text_2">
      <!-- 20 -->
      <defs>
       <path d="M 19.1875 8.296875 
L 53.609375 8.296875 
L 53.609375 0 
L 7.328125 0 
L 7.328125 8.296875 
Q 12.9375 14.109375 22.625 23.890625 
Q 32.328125 33.6875 34.8125 36.53125 
Q 39.546875 41.84375 41.421875 45.53125 
Q 43.3125 49.21875 43.3125 52.78125 
Q 43.3125 58.59375 39.234375 62.25 
Q 35.15625 65.921875 28.609375 65.921875 
Q 23.96875 65.921875 18.8125 64.3125 
Q 13.671875 62.703125 7.8125 59.421875 
L 7.8125 69.390625 
Q 13.765625 71.78125 18.9375 73 
Q 24.125 74.21875 28.421875 74.21875 
Q 39.75 74.21875 46.484375 68.546875 
Q 53.21875 62.890625 53.21875 53.421875 
Q 53.21875 48.921875 51.53125 44.890625 
Q 49.859375 40.875 45.40625 35.40625 
Q 44.1875 33.984375 37.640625 27.21875 
Q 31.109375 20.453125 19.1875 8.296875 
z
" id="DejaVuSans-50"/>
      </defs>
      <g transform="translate(132.319848 322.182437)scale(0.1 -0.1)">
       <use xlink:href="#DejaVuSans-50"/>
       <use x="63.623047" xlink:href="#DejaVuSans-48"/>
      </g>
     </g>
    </g>
    <g id="xtick_3">
     <g id="line2d_3">
      <g>
       <use style="stroke:#000000;stroke-width:0.8;" x="202.915363" xlink:href="#m9bcff7575a" y="307.584"/>
      </g>
     </g>
     <g id="text_3">
      <!-- 40 -->
      <defs>
       <path d="M 37.796875 64.3125 
L 12.890625 25.390625 
L 37.796875 25.390625 
z
M 35.203125 72.90625 
L 47.609375 72.90625 
L 47.609375 25.390625 
L 58.015625 25.390625 
L 58.015625 17.1875 
L 47.609375 17.1875 
L 47.609375 0 
L 37.796875 0 
L 37.796875 17.1875 
L 4.890625 17.1875 
L 4.890625 26.703125 
z
" id="DejaVuSans-52"/>
      </defs>
      <g transform="translate(196.552863 322.182437)scale(0.1 -0.1)">
       <use xlink:href="#DejaVuSans-52"/>
       <use x="63.623047" xlink:href="#DejaVuSans-48"/>
      </g>
     </g>
    </g>
    <g id="xtick_4">
     <g id="line2d_4">
      <g>
       <use style="stroke:#000000;stroke-width:0.8;" x="267.148378" xlink:href="#m9bcff7575a" y="307.584"/>
      </g>
     </g>
     <g id="text_4">
      <!-- 60 -->
      <defs>
       <path d="M 33.015625 40.375 
Q 26.375 40.375 22.484375 35.828125 
Q 18.609375 31.296875 18.609375 23.390625 
Q 18.609375 15.53125 22.484375 10.953125 
Q 26.375 6.390625 33.015625 6.390625 
Q 39.65625 6.390625 43.53125 10.953125 
Q 47.40625 15.53125 47.40625 23.390625 
Q 47.40625 31.296875 43.53125 35.828125 
Q 39.65625 40.375 33.015625 40.375 
z
M 52.59375 71.296875 
L 52.59375 62.3125 
Q 48.875 64.0625 45.09375 64.984375 
Q 41.3125 65.921875 37.59375 65.921875 
Q 27.828125 65.921875 22.671875 59.328125 
Q 17.53125 52.734375 16.796875 39.40625 
Q 19.671875 43.65625 24.015625 45.921875 
Q 28.375 48.1875 33.59375 48.1875 
Q 44.578125 48.1875 50.953125 41.515625 
Q 57.328125 34.859375 57.328125 23.390625 
Q 57.328125 12.15625 50.6875 5.359375 
Q 44.046875 -1.421875 33.015625 -1.421875 
Q 20.359375 -1.421875 13.671875 8.265625 
Q 6.984375 17.96875 6.984375 36.375 
Q 6.984375 53.65625 15.1875 63.9375 
Q 23.390625 74.21875 37.203125 74.21875 
Q 40.921875 74.21875 44.703125 73.484375 
Q 48.484375 72.75 52.59375 71.296875 
z
" id="DejaVuSans-54"/>
      </defs>
      <g transform="translate(260.785878 322.182437)scale(0.1 -0.1)">
       <use xlink:href="#DejaVuSans-54"/>
       <use x="63.623047" xlink:href="#DejaVuSans-48"/>
      </g>
     </g>
    </g>
    <g id="xtick_5">
     <g id="line2d_5">
      <g>
       <use style="stroke:#000000;stroke-width:0.8;" x="331.381394" xlink:href="#m9bcff7575a" y="307.584"/>
      </g>
     </g>
     <g id="text_5">
      <!-- 80 -->
      <defs>
       <path d="M 31.78125 34.625 
Q 24.75 34.625 20.71875 30.859375 
Q 16.703125 27.09375 16.703125 20.515625 
Q 16.703125 13.921875 20.71875 10.15625 
Q 24.75 6.390625 31.78125 6.390625 
Q 38.8125 6.390625 42.859375 10.171875 
Q 46.921875 13.96875 46.921875 20.515625 
Q 46.921875 27.09375 42.890625 30.859375 
Q 38.875 34.625 31.78125 34.625 
z
M 21.921875 38.8125 
Q 15.578125 40.375 12.03125 44.71875 
Q 8.5 49.078125 8.5 55.328125 
Q 8.5 64.0625 14.71875 69.140625 
Q 20.953125 74.21875 31.78125 74.21875 
Q 42.671875 74.21875 48.875 69.140625 
Q 55.078125 64.0625 55.078125 55.328125 
Q 55.078125 49.078125 51.53125 44.71875 
Q 48 40.375 41.703125 38.8125 
Q 48.828125 37.15625 52.796875 32.3125 
Q 56.78125 27.484375 56.78125 20.515625 
Q 56.78125 9.90625 50.3125 4.234375 
Q 43.84375 -1.421875 31.78125 -1.421875 
Q 19.734375 -1.421875 13.25 4.234375 
Q 6.78125 9.90625 6.78125 20.515625 
Q 6.78125 27.484375 10.78125 32.3125 
Q 14.796875 37.15625 21.921875 38.8125 
z
M 18.3125 54.390625 
Q 18.3125 48.734375 21.84375 45.5625 
Q 25.390625 42.390625 31.78125 42.390625 
Q 38.140625 42.390625 41.71875 45.5625 
Q 45.3125 48.734375 45.3125 54.390625 
Q 45.3125 60.0625 41.71875 63.234375 
Q 38.140625 66.40625 31.78125 66.40625 
Q 25.390625 66.40625 21.84375 63.234375 
Q 18.3125 60.0625 18.3125 54.390625 
z
" id="DejaVuSans-56"/>
      </defs>
      <g transform="translate(325.018894 322.182437)scale(0.1 -0.1)">
       <use xlink:href="#DejaVuSans-56"/>
       <use x="63.623047" xlink:href="#DejaVuSans-48"/>
      </g>
     </g>
    </g>
    <g id="xtick_6">
     <g id="line2d_6">
      <g>
       <use style="stroke:#000000;stroke-width:0.8;" x="395.614409" xlink:href="#m9bcff7575a" y="307.584"/>
      </g>
     </g>
     <g id="text_6">
      <!-- 100 -->
      <defs>
       <path d="M 12.40625 8.296875 
L 28.515625 8.296875 
L 28.515625 63.921875 
L 10.984375 60.40625 
L 10.984375 69.390625 
L 28.421875 72.90625 
L 38.28125 72.90625 
L 38.28125 8.296875 
L 54.390625 8.296875 
L 54.390625 0 
L 12.40625 0 
z
" id="DejaVuSans-49"/>
      </defs>
      <g transform="translate(386.070659 322.182437)scale(0.1 -0.1)">
       <use xlink:href="#DejaVuSans-49"/>
       <use x="63.623047" xlink:href="#DejaVuSans-48"/>
       <use x="127.246094" xlink:href="#DejaVuSans-48"/>
      </g>
     </g>
    </g>
   </g>
   <g id="matplotlib.axis_2">
    <g id="ytick_1">
     <g id="line2d_7">
      <defs>
       <path d="M 0 0 
L -3.5 0 
" id="m4f6b5150ae" style="stroke:#000000;stroke-width:0.8;"/>
      </defs>
      <g>
       <use style="stroke:#000000;stroke-width:0.8;" x="57.6" xlink:href="#m4f6b5150ae" y="305.928695"/>
      </g>
     </g>
     <g id="text_7">
      <!-- −30 -->
      <defs>
       <path d="M 10.59375 35.5 
L 73.1875 35.5 
L 73.1875 27.203125 
L 10.59375 27.203125 
z
" id="DejaVuSans-8722"/>
       <path d="M 40.578125 39.3125 
Q 47.65625 37.796875 51.625 33 
Q 55.609375 28.21875 55.609375 21.1875 
Q 55.609375 10.40625 48.1875 4.484375 
Q 40.765625 -1.421875 27.09375 -1.421875 
Q 22.515625 -1.421875 17.65625 -0.515625 
Q 12.796875 0.390625 7.625 2.203125 
L 7.625 11.71875 
Q 11.71875 9.328125 16.59375 8.109375 
Q 21.484375 6.890625 26.8125 6.890625 
Q 36.078125 6.890625 40.9375 10.546875 
Q 45.796875 14.203125 45.796875 21.1875 
Q 45.796875 27.640625 41.28125 31.265625 
Q 36.765625 34.90625 28.71875 34.90625 
L 20.21875 34.90625 
L 20.21875 43.015625 
L 29.109375 43.015625 
Q 36.375 43.015625 40.234375 45.921875 
Q 44.09375 48.828125 44.09375 54.296875 
Q 44.09375 59.90625 40.109375 62.90625 
Q 36.140625 65.921875 28.71875 65.921875 
Q 24.65625 65.921875 20.015625 65.03125 
Q 15.375 64.15625 9.8125 62.3125 
L 9.8125 71.09375 
Q 15.4375 72.65625 20.34375 73.4375 
Q 25.25 74.21875 29.59375 74.21875 
Q 40.828125 74.21875 47.359375 69.109375 
Q 53.90625 64.015625 53.90625 55.328125 
Q 53.90625 49.265625 50.4375 45.09375 
Q 46.96875 40.921875 40.578125 39.3125 
z
" id="DejaVuSans-51"/>
      </defs>
      <g transform="translate(29.495313 309.727914)scale(0.1 -0.1)">
       <use xlink:href="#DejaVuSans-8722"/>
       <use x="83.789062" xlink:href="#DejaVuSans-51"/>
       <use x="147.412109" xlink:href="#DejaVuSans-48"/>
      </g>
     </g>
    </g>
    <g id="ytick_2">
     <g id="line2d_8">
      <g>
       <use style="stroke:#000000;stroke-width:0.8;" x="57.6" xlink:href="#m4f6b5150ae" y="273.812187"/>
      </g>
     </g>
     <g id="text_8">
      <!-- −20 -->
      <g transform="translate(29.495313 277.611406)scale(0.1 -0.1)">
       <use xlink:href="#DejaVuSans-8722"/>
       <use x="83.789062" xlink:href="#DejaVuSans-50"/>
       <use x="147.412109" xlink:href="#DejaVuSans-48"/>
      </g>
     </g>
    </g>
    <g id="ytick_3">
     <g id="line2d_9">
      <g>
       <use style="stroke:#000000;stroke-width:0.8;" x="57.6" xlink:href="#m4f6b5150ae" y="241.69568"/>
      </g>
     </g>
     <g id="text_9">
      <!-- −10 -->
      <g transform="translate(29.495313 245.494898)scale(0.1 -0.1)">
       <use xlink:href="#DejaVuSans-8722"/>
       <use x="83.789062" xlink:href="#DejaVuSans-49"/>
       <use x="147.412109" xlink:href="#DejaVuSans-48"/>
      </g>
     </g>
    </g>
    <g id="ytick_4">
     <g id="line2d_10">
      <g>
       <use style="stroke:#000000;stroke-width:0.8;" x="57.6" xlink:href="#m4f6b5150ae" y="209.579172"/>
      </g>
     </g>
     <g id="text_10">
      <!-- 0 -->
      <g transform="translate(44.2375 213.378391)scale(0.1 -0.1)">
       <use xlink:href="#DejaVuSans-48"/>
      </g>
     </g>
    </g>
    <g id="ytick_5">
     <g id="line2d_11">
      <g>
       <use style="stroke:#000000;stroke-width:0.8;" x="57.6" xlink:href="#m4f6b5150ae" y="177.462664"/>
      </g>
     </g>
     <g id="text_11">
      <!-- 10 -->
      <g transform="translate(37.875 181.261883)scale(0.1 -0.1)">
       <use xlink:href="#DejaVuSans-49"/>
       <use x="63.623047" xlink:href="#DejaVuSans-48"/>
      </g>
     </g>
    </g>
    <g id="ytick_6">
     <g id="line2d_12">
      <g>
       <use style="stroke:#000000;stroke-width:0.8;" x="57.6" xlink:href="#m4f6b5150ae" y="145.346157"/>
      </g>
     </g>
     <g id="text_12">
      <!-- 20 -->
      <g transform="translate(37.875 149.145375)scale(0.1 -0.1)">
       <use xlink:href="#DejaVuSans-50"/>
       <use x="63.623047" xlink:href="#DejaVuSans-48"/>
      </g>
     </g>
    </g>
    <g id="ytick_7">
     <g id="line2d_13">
      <g>
       <use style="stroke:#000000;stroke-width:0.8;" x="57.6" xlink:href="#m4f6b5150ae" y="113.229649"/>
      </g>
     </g>
     <g id="text_13">
      <!-- 30 -->
      <g transform="translate(37.875 117.028868)scale(0.1 -0.1)">
       <use xlink:href="#DejaVuSans-51"/>
       <use x="63.623047" xlink:href="#DejaVuSans-48"/>
      </g>
     </g>
    </g>
    <g id="ytick_8">
     <g id="line2d_14">
      <g>
       <use style="stroke:#000000;stroke-width:0.8;" x="57.6" xlink:href="#m4f6b5150ae" y="81.113141"/>
      </g>
     </g>
     <g id="text_14">
      <!-- 40 -->
      <g transform="translate(37.875 84.91236)scale(0.1 -0.1)">
       <use xlink:href="#DejaVuSans-52"/>
       <use x="63.623047" xlink:href="#DejaVuSans-48"/>
      </g>
     </g>
    </g>
    <g id="ytick_9">
     <g id="line2d_15">
      <g>
       <use style="stroke:#000000;stroke-width:0.8;" x="57.6" xlink:href="#m4f6b5150ae" y="48.996634"/>
      </g>
     </g>
     <g id="text_15">
      <!-- 50 -->
      <defs>
       <path d="M 10.796875 72.90625 
L 49.515625 72.90625 
L 49.515625 64.59375 
L 19.828125 64.59375 
L 19.828125 46.734375 
Q 21.96875 47.46875 24.109375 47.828125 
Q 26.265625 48.1875 28.421875 48.1875 
Q 40.625 48.1875 47.75 41.5 
Q 54.890625 34.8125 54.890625 23.390625 
Q 54.890625 11.625 47.5625 5.09375 
Q 40.234375 -1.421875 26.90625 -1.421875 
Q 22.3125 -1.421875 17.546875 -0.640625 
Q 12.796875 0.140625 7.71875 1.703125 
L 7.71875 11.625 
Q 12.109375 9.234375 16.796875 8.0625 
Q 21.484375 6.890625 26.703125 6.890625 
Q 35.15625 6.890625 40.078125 11.328125 
Q 45.015625 15.765625 45.015625 23.390625 
Q 45.015625 31 40.078125 35.4375 
Q 35.15625 39.890625 26.703125 39.890625 
Q 22.75 39.890625 18.8125 39.015625 
Q 14.890625 38.140625 10.796875 36.28125 
z
" id="DejaVuSans-53"/>
      </defs>
      <g transform="translate(37.875 52.795853)scale(0.1 -0.1)">
       <use xlink:href="#DejaVuSans-53"/>
       <use x="63.623047" xlink:href="#DejaVuSans-48"/>
      </g>
     </g>
    </g>
   </g>
   <g id="line2d_16">
    <path clip-path="url(#p6201a86309)" d="M 74.449333 209.579172 
L 74.614495 206.372712 
L 74.919396 203.17668 
L 75.373034 199.998544 
L 75.947785 196.840355 
L 76.692079 193.718007 
L 77.580122 190.633814 
L 78.605644 187.592822 
L 79.786824 184.608592 
L 81.085245 181.673606 
L 82.514178 178.800158 
L 84.07672 175.997117 
L 85.770786 173.27157 
L 87.59229 170.62898 
L 89.552216 168.087317 
L 91.613968 165.627505 
L 93.80714 163.283796 
L 96.100635 161.037996 
L 98.485455 158.889438 
L 100.983724 156.873242 
L 103.563506 154.962777 
L 106.237289 153.186186 
L 108.995278 151.543063 
L 111.819704 150.016362 
L 114.711975 148.622802 
L 117.662878 147.358182 
L 120.654392 146.192038 
L 123.687844 145.13923 
L 126.754142 144.186014 
L 129.852256 143.341835 
L 132.9736 142.587079 
L 136.118443 141.936978 
L 139.283907 141.396023 
L 142.464319 140.950698 
L 145.655892 140.593486 
L 148.856585 140.329057 
L 152.064165 140.167605 
L 155.27488 140.090099 
L 158.486529 140.091334 
L 161.697375 140.162983 
L 164.906289 140.295194 
L 168.113032 140.47229 
L 171.317099 140.692393 
L 174.51877 140.944693 
L 177.717454 141.232134 
L 180.912268 141.559413 
L 184.103232 141.922108 
L 187.290245 142.317954 
L 190.475042 142.731406 
L 193.657498 143.162521 
L 196.837186 143.613705 
L 200.015411 144.075135 
L 203.191235 144.553062 
L 206.365917 145.038581 
L 209.539107 145.533481 
L 212.711551 146.032902 
L 215.882345 146.542368 
L 219.053068 147.052463 
L 222.22261 147.569706 
L 225.392773 148.083548 
L 228.563116 148.596509 
L 231.734046 149.105845 
L 234.906162 149.607871 
L 238.078293 150.109704 
L 241.25162 150.603878 
L 244.425124 151.09712 
L 247.599492 151.584833 
L 250.773554 152.07451 
L 253.947732 152.56342 
L 257.122693 153.047158 
L 260.297376 153.532854 
L 263.473662 154.008095 
L 266.649635 154.485407 
L 269.8265 154.956684 
L 273.002544 155.433338 
L 276.179237 155.905714 
L 279.355668 156.379867 
L 282.532551 156.851067 
L 285.708946 157.325598 
L 288.884879 157.803242 
L 292.060698 158.281628 
L 295.235422 158.767187 
L 298.410518 159.250269 
L 301.584076 159.743311 
L 304.757199 160.239177 
L 307.928201 160.7484 
L 311.097906 161.265756 
L 314.265135 161.798061 
L 317.429548 162.346869 
L 320.590638 162.914498 
L 323.748968 163.49729 
L 326.904816 164.093334 
L 330.058359 164.701483 
L 333.209338 165.322796 
L 336.356275 165.964265 
L 339.49943 166.624015 
L 342.638134 167.304616 
L 345.773615 167.999921 
L 348.903751 168.718908 
L 352.030577 169.452161 
L 355.153446 170.202073 
L 358.272772 170.966601 
L 361.386381 171.754072 
L 364.496086 172.556782 
L 367.602363 173.372651 
L 370.706118 174.198059 
L 373.807562 175.032117 
L 376.906671 175.874795 
L 380.002117 176.730875 
L 383.093594 177.601167 
L 386.180953 178.485938 
L 389.264052 179.385455 
L 392.342975 180.299177 
L 395.417448 181.227742 
L 398.487273 182.171553 
" style="fill:none;stroke:#008000;stroke-linecap:square;stroke-width:1.5;"/>
   </g>
   <g id="line2d_17">
    <path clip-path="url(#p6201a86309)" d="M 74.449333 209.579172 
L 74.567 206.374253 
L 74.760765 203.168963 
L 75.18178 199.987138 
L 75.543217 196.797272 
L 76.281335 193.672688 
L 77.151045 190.581668 
L 78.194894 187.54549 
L 79.409496 184.57493 
L 80.730371 181.650104 
L 82.159085 178.775242 
L 83.704577 175.962758 
L 85.390386 173.231186 
L 87.231192 170.601972 
L 89.181857 168.052439 
L 91.219965 165.572992 
L 93.411978 163.22711 
L 95.654905 160.929434 
L 98.079611 158.827665 
L 100.507019 156.727294 
L 103.045155 154.762834 
L 105.685464 152.936266 
L 108.453954 151.310345 
L 111.263872 149.75705 
L 114.160989 148.37365 
L 117.102376 147.088784 
L 120.099724 145.935706 
L 123.131842 144.878878 
L 126.180725 143.872791 
L 129.274394 143.011094 
L 132.384507 142.21191 
L 135.518942 141.513419 
L 138.671239 140.901062 
L 141.845883 140.416496 
L 145.031834 140.013413 
L 148.228542 139.706396 
L 151.435909 139.541207 
L 154.647037 139.484201 
L 157.858569 139.476828 
L 161.069572 139.537233 
L 164.279261 139.646077 
L 167.486782 139.808686 
L 170.694878 139.957026 
L 173.898684 140.18128 
L 177.09965 140.442674 
L 180.301497 140.693212 
L 183.499728 140.986378 
L 186.697922 141.279908 
L 189.892605 141.609497 
L 193.078871 142.012046 
L 196.267535 142.395602 
L 199.454382 142.793824 
L 202.640757 143.195893 
L 205.824067 143.6215 
L 209.003182 144.077321 
L 212.180731 144.543595 
L 215.361087 144.990836 
L 218.541283 145.43903 
L 221.719953 145.89773 
L 224.899016 146.353817 
L 228.074818 146.832336 
L 231.256577 147.269121 
L 234.4414 147.683272 
L 237.619346 148.147338 
L 240.805952 148.54757 
L 243.98792 148.982956 
L 247.168805 149.425726 
L 250.351253 149.857819 
L 253.533355 150.292463 
L 256.716327 150.720697 
L 259.903025 151.12003 
L 263.090995 151.508303 
L 266.274073 151.935545 
L 269.460282 152.338642 
L 272.641824 152.777347 
L 275.828037 153.180365 
L 279.008811 153.624612 
L 282.199537 153.989935 
L 285.378953 154.443203 
L 288.559208 154.891165 
L 291.736096 155.362348 
L 294.913791 155.82805 
L 298.097012 156.254428 
L 301.278078 156.696516 
L 304.456559 157.155616 
L 307.635911 157.60988 
L 310.805345 158.128658 
L 313.974764 158.647751 
L 317.14401 159.16776 
L 320.31074 159.701997 
L 323.46644 160.298826 
L 326.631968 160.840842 
L 329.781786 161.467629 
L 332.934358 162.079426 
L 336.091524 162.668339 
L 339.239561 163.304381 
L 342.391972 163.918342 
L 345.530081 164.60144 
L 348.687146 165.190517 
L 351.83701 165.817355 
L 354.961001 166.56249 
L 358.116772 167.158718 
L 361.276482 167.733426 
L 364.402544 168.469887 
L 367.516265 169.256936 
L 370.633683 170.029182 
L 373.747773 170.814568 
L 376.858524 171.613255 
L 379.963583 172.433688 
L 383.075528 173.227509 
L 386.140677 174.185958 
L 389.249227 174.992727 
L 392.325272 175.915773 
L 395.395892 176.857034 
L 398.470978 177.783584 
" style="fill:none;stroke:#0000ff;stroke-linecap:square;stroke-width:1.5;"/>
   </g>
   <g id="line2d_18">
    <path clip-path="url(#p6201a86309)" d="M 74.449333 209.579172 
L 74.381678 206.368687 
L 73.832727 203.20557 
L 74.242138 200.022186 
L 74.647372 196.837461 
L 75.42979 193.723601 
L 76.343513 190.645294 
L 77.431944 187.624834 
L 78.682946 184.66892 
L 80.042491 181.761047 
L 81.509524 178.905656 
L 83.092351 176.114185 
L 84.814468 173.40553 
L 86.690149 170.801308 
L 88.674672 168.278258 
L 90.745617 165.826455 
L 92.968777 163.510309 
L 95.242245 161.243065 
L 97.694575 159.174107 
L 100.071222 157.01396 
L 102.717666 155.196252 
L 105.469538 153.542407 
L 108.254872 151.943497 
L 111.101947 150.458059 
L 114.025292 149.130117 
L 116.977477 147.869766 
L 119.985893 146.746416 
L 123.028736 145.722839 
L 126.087597 144.749151 
L 129.189949 143.920227 
L 132.307987 143.154024 
L 135.449372 142.488916 
L 138.607808 141.910896 
L 141.787387 141.461684 
L 144.977372 141.09434 
L 148.177067 140.823168 
L 151.385962 140.693892 
L 154.597538 140.672788 
L 157.808771 140.701385 
L 161.018972 140.797662 
L 164.227058 140.942448 
L 167.43256 141.140908 
L 170.638903 141.325071 
L 173.839992 141.585135 
L 177.037865 141.882292 
L 180.236722 142.168608 
L 183.431443 142.497862 
L 186.625943 142.828329 
L 189.816454 143.195401 
L 192.997868 143.635052 
L 196.181833 144.055397 
L 199.363854 144.490613 
L 202.545217 144.929972 
L 205.723337 145.392801 
L 208.896923 145.885787 
L 212.068976 146.388531 
L 215.244027 146.871822 
L 218.418912 147.35638 
L 221.592176 147.851413 
L 224.765886 148.34338 
L 227.936077 148.857317 
L 231.106285 149.371351 
L 234.278123 149.875481 
L 237.44938 150.382739 
L 240.625602 150.85838 
L 243.800913 151.339966 
L 246.982133 151.78066 
L 250.159559 152.247792 
L 253.336189 152.72073 
L 256.513836 153.186643 
L 259.69564 153.622273 
L 262.878757 154.04689 
L 266.056792 154.510324 
L 269.238432 154.94721 
L 272.415955 155.414166 
L 275.598243 155.847423 
L 278.774039 156.325423 
L 281.96038 156.725821 
L 285.134349 157.214631 
L 288.309456 157.697498 
L 291.480972 158.202943 
L 294.653467 158.702826 
L 297.830982 159.169093 
L 301.005933 159.652905 
L 304.179179 160.146069 
L 307.353195 160.635409 
L 310.516106 161.191431 
L 313.679207 161.746939 
L 316.84218 162.302638 
L 320.001382 162.87685 
L 323.14934 163.512412 
L 326.309203 164.08618 
L 329.451895 164.746707 
L 332.597369 165.391346 
L 335.796456 165.666508 
L 338.933522 166.354546 
L 342.079053 167.002728 
L 345.203167 167.747001 
L 348.330254 168.478762 
L 351.459821 169.200033 
L 354.577851 169.967888 
L 357.752522 170.300654 
L 360.901229 170.930399 
L 364.019909 171.697109 
L 367.123123 172.524614 
L 370.232211 173.328517 
L 373.336623 174.151221 
L 376.426145 175.024011 
L 379.499775 175.952166 
L 382.602701 176.780747 
L 385.662795 177.715681 
L 388.771957 178.485638 
L 391.845426 179.416151 
L 394.91409 180.363531 
L 397.987555 181.295268 
" style="fill:none;stroke:#ff0000;stroke-linecap:square;stroke-width:1.5;"/>
   </g>
   <g id="patch_3">
    <path d="M 57.6 307.584 
L 57.6 41.472 
" style="fill:none;stroke:#000000;stroke-linecap:square;stroke-linejoin:miter;stroke-width:0.8;"/>
   </g>
   <g id="patch_4">
    <path d="M 414.72 307.584 
L 414.72 41.472 
" style="fill:none;stroke:#000000;stroke-linecap:square;stroke-linejoin:miter;stroke-width:0.8;"/>
   </g>
   <g id="patch_5">
    <path d="M 57.6 307.584 
L 414.72 307.584 
" style="fill:none;stroke:#000000;stroke-linecap:square;stroke-linejoin:miter;stroke-width:0.8;"/>
   </g>
   <g id="patch_6">
    <path d="M 57.6 41.472 
L 414.72 41.472 
" style="fill:none;stroke:#000000;stroke-linecap:square;stroke-linejoin:miter;stroke-width:0.8;"/>
   </g>
  </g>
 </g>
 <defs>
  <clipPath id="p6201a86309">
   <rect height="266.112" width="357.12" x="57.6" y="41.472"/>
  </clipPath>
 </defs>
</svg>
