<?xml version="1.0" encoding="utf-8" standalone="no"?>
<!DOCTYPE svg PUBLIC "-//W3C//DTD SVG 1.1//EN"
  "http://www.w3.org/Graphics/SVG/1.1/DTD/svg11.dtd">
<!-- Created with matplotlib (https://matplotlib.org/) -->
<svg height="345.6pt" version="1.1" viewBox="0 0 460.8 345.6" width="460.8pt" xmlns="http://www.w3.org/2000/svg" xmlns:xlink="http://www.w3.org/1999/xlink">
 <defs>
  <style type="text/css">
*{stroke-linecap:butt;stroke-linejoin:round;}
  </style>
 </defs>
 <g id="figure_1">
  <g id="patch_1">
   <path d="M 0 345.6 
L 460.8 345.6 
L 460.8 0 
L 0 0 
z
" style="fill:#ffffff;"/>
  </g>
  <g id="axes_1">
   <g id="patch_2">
    <path d="M 57.6 307.584 
L 414.72 307.584 
L 414.72 41.472 
L 57.6 41.472 
z
" style="fill:#ffffff;"/>
   </g>
   <g id="matplotlib.axis_1">
    <g id="xtick_1">
     <g id="line2d_1">
      <defs>
       <path d="M 0 0 
L 0 3.5 
" id="mb1a6aaa2b1" style="stroke:#000000;stroke-width:0.8;"/>
      </defs>
      <g>
       <use style="stroke:#000000;stroke-width:0.8;" x="89.124998" xlink:href="#mb1a6aaa2b1" y="307.584"/>
      </g>
     </g>
     <g id="text_1">
      <!-- −300 -->
      <defs>
       <path d="M 10.59375 35.5 
L 73.1875 35.5 
L 73.1875 27.203125 
L 10.59375 27.203125 
z
" id="DejaVuSans-8722"/>
       <path d="M 40.578125 39.3125 
Q 47.65625 37.796875 51.625 33 
Q 55.609375 28.21875 55.609375 21.1875 
Q 55.609375 10.40625 48.1875 4.484375 
Q 40.765625 -1.421875 27.09375 -1.421875 
Q 22.515625 -1.421875 17.65625 -0.515625 
Q 12.796875 0.390625 7.625 2.203125 
L 7.625 11.71875 
Q 11.71875 9.328125 16.59375 8.109375 
Q 21.484375 6.890625 26.8125 6.890625 
Q 36.078125 6.890625 40.9375 10.546875 
Q 45.796875 14.203125 45.796875 21.1875 
Q 45.796875 27.640625 41.28125 31.265625 
Q 36.765625 34.90625 28.71875 34.90625 
L 20.21875 34.90625 
L 20.21875 43.015625 
L 29.109375 43.015625 
Q 36.375 43.015625 40.234375 45.921875 
Q 44.09375 48.828125 44.09375 54.296875 
Q 44.09375 59.90625 40.109375 62.90625 
Q 36.140625 65.921875 28.71875 65.921875 
Q 24.65625 65.921875 20.015625 65.03125 
Q 15.375 64.15625 9.8125 62.3125 
L 9.8125 71.09375 
Q 15.4375 72.65625 20.34375 73.4375 
Q 25.25 74.21875 29.59375 74.21875 
Q 40.828125 74.21875 47.359375 69.109375 
Q 53.90625 64.015625 53.90625 55.328125 
Q 53.90625 49.265625 50.4375 45.09375 
Q 46.96875 40.921875 40.578125 39.3125 
z
" id="DejaVuSans-51"/>
       <path d="M 31.78125 66.40625 
Q 24.171875 66.40625 20.328125 58.90625 
Q 16.5 51.421875 16.5 36.375 
Q 16.5 21.390625 20.328125 13.890625 
Q 24.171875 6.390625 31.78125 6.390625 
Q 39.453125 6.390625 43.28125 13.890625 
Q 47.125 21.390625 47.125 36.375 
Q 47.125 51.421875 43.28125 58.90625 
Q 39.453125 66.40625 31.78125 66.40625 
z
M 31.78125 74.21875 
Q 44.046875 74.21875 50.515625 64.515625 
Q 56.984375 54.828125 56.984375 36.375 
Q 56.984375 17.96875 50.515625 8.265625 
Q 44.046875 -1.421875 31.78125 -1.421875 
Q 19.53125 -1.421875 13.0625 8.265625 
Q 6.59375 17.96875 6.59375 36.375 
Q 6.59375 54.828125 13.0625 64.515625 
Q 19.53125 74.21875 31.78125 74.21875 
z
" id="DejaVuSans-48"/>
      </defs>
      <g transform="translate(75.391404 322.182437)scale(0.1 -0.1)">
       <use xlink:href="#DejaVuSans-8722"/>
       <use x="83.789062" xlink:href="#DejaVuSans-51"/>
       <use x="147.412109" xlink:href="#DejaVuSans-48"/>
       <use x="211.035156" xlink:href="#DejaVuSans-48"/>
      </g>
     </g>
    </g>
    <g id="xtick_2">
     <g id="line2d_2">
      <g>
       <use style="stroke:#000000;stroke-width:0.8;" x="140.498176" xlink:href="#mb1a6aaa2b1" y="307.584"/>
      </g>
     </g>
     <g id="text_2">
      <!-- −200 -->
      <defs>
       <path d="M 19.1875 8.296875 
L 53.609375 8.296875 
L 53.609375 0 
L 7.328125 0 
L 7.328125 8.296875 
Q 12.9375 14.109375 22.625 23.890625 
Q 32.328125 33.6875 34.8125 36.53125 
Q 39.546875 41.84375 41.421875 45.53125 
Q 43.3125 49.21875 43.3125 52.78125 
Q 43.3125 58.59375 39.234375 62.25 
Q 35.15625 65.921875 28.609375 65.921875 
Q 23.96875 65.921875 18.8125 64.3125 
Q 13.671875 62.703125 7.8125 59.421875 
L 7.8125 69.390625 
Q 13.765625 71.78125 18.9375 73 
Q 24.125 74.21875 28.421875 74.21875 
Q 39.75 74.21875 46.484375 68.546875 
Q 53.21875 62.890625 53.21875 53.421875 
Q 53.21875 48.921875 51.53125 44.890625 
Q 49.859375 40.875 45.40625 35.40625 
Q 44.1875 33.984375 37.640625 27.21875 
Q 31.109375 20.453125 19.1875 8.296875 
z
" id="DejaVuSans-50"/>
      </defs>
      <g transform="translate(126.764583 322.182437)scale(0.1 -0.1)">
       <use xlink:href="#DejaVuSans-8722"/>
       <use x="83.789062" xlink:href="#DejaVuSans-50"/>
       <use x="147.412109" xlink:href="#DejaVuSans-48"/>
       <use x="211.035156" xlink:href="#DejaVuSans-48"/>
      </g>
     </g>
    </g>
    <g id="xtick_3">
     <g id="line2d_3">
      <g>
       <use style="stroke:#000000;stroke-width:0.8;" x="191.871355" xlink:href="#mb1a6aaa2b1" y="307.584"/>
      </g>
     </g>
     <g id="text_3">
      <!-- −100 -->
      <defs>
       <path d="M 12.40625 8.296875 
L 28.515625 8.296875 
L 28.515625 63.921875 
L 10.984375 60.40625 
L 10.984375 69.390625 
L 28.421875 72.90625 
L 38.28125 72.90625 
L 38.28125 8.296875 
L 54.390625 8.296875 
L 54.390625 0 
L 12.40625 0 
z
" id="DejaVuSans-49"/>
      </defs>
      <g transform="translate(178.137761 322.182437)scale(0.1 -0.1)">
       <use xlink:href="#DejaVuSans-8722"/>
       <use x="83.789062" xlink:href="#DejaVuSans-49"/>
       <use x="147.412109" xlink:href="#DejaVuSans-48"/>
       <use x="211.035156" xlink:href="#DejaVuSans-48"/>
      </g>
     </g>
    </g>
    <g id="xtick_4">
     <g id="line2d_4">
      <g>
       <use style="stroke:#000000;stroke-width:0.8;" x="243.244534" xlink:href="#mb1a6aaa2b1" y="307.584"/>
      </g>
     </g>
     <g id="text_4">
      <!-- 0 -->
      <g transform="translate(240.063284 322.182437)scale(0.1 -0.1)">
       <use xlink:href="#DejaVuSans-48"/>
      </g>
     </g>
    </g>
    <g id="xtick_5">
     <g id="line2d_5">
      <g>
       <use style="stroke:#000000;stroke-width:0.8;" x="294.617712" xlink:href="#mb1a6aaa2b1" y="307.584"/>
      </g>
     </g>
     <g id="text_5">
      <!-- 100 -->
      <g transform="translate(285.073962 322.182437)scale(0.1 -0.1)">
       <use xlink:href="#DejaVuSans-49"/>
       <use x="63.623047" xlink:href="#DejaVuSans-48"/>
       <use x="127.246094" xlink:href="#DejaVuSans-48"/>
      </g>
     </g>
    </g>
    <g id="xtick_6">
     <g id="line2d_6">
      <g>
       <use style="stroke:#000000;stroke-width:0.8;" x="345.990891" xlink:href="#mb1a6aaa2b1" y="307.584"/>
      </g>
     </g>
     <g id="text_6">
      <!-- 200 -->
      <g transform="translate(336.447141 322.182437)scale(0.1 -0.1)">
       <use xlink:href="#DejaVuSans-50"/>
       <use x="63.623047" xlink:href="#DejaVuSans-48"/>
       <use x="127.246094" xlink:href="#DejaVuSans-48"/>
      </g>
     </g>
    </g>
    <g id="xtick_7">
     <g id="line2d_7">
      <g>
       <use style="stroke:#000000;stroke-width:0.8;" x="397.36407" xlink:href="#mb1a6aaa2b1" y="307.584"/>
      </g>
     </g>
     <g id="text_7">
      <!-- 300 -->
      <g transform="translate(387.82032 322.182437)scale(0.1 -0.1)">
       <use xlink:href="#DejaVuSans-51"/>
       <use x="63.623047" xlink:href="#DejaVuSans-48"/>
       <use x="127.246094" xlink:href="#DejaVuSans-48"/>
      </g>
     </g>
    </g>
   </g>
   <g id="matplotlib.axis_2">
    <g id="ytick_1">
     <g id="line2d_8">
      <defs>
       <path d="M 0 0 
L -3.5 0 
" id="m79c8e57914" style="stroke:#000000;stroke-width:0.8;"/>
      </defs>
      <g>
       <use style="stroke:#000000;stroke-width:0.8;" x="57.6" xlink:href="#m79c8e57914" y="259.229784"/>
      </g>
     </g>
     <g id="text_8">
      <!-- −100 -->
      <g transform="translate(23.132812 263.029002)scale(0.1 -0.1)">
       <use xlink:href="#DejaVuSans-8722"/>
       <use x="83.789062" xlink:href="#DejaVuSans-49"/>
       <use x="147.412109" xlink:href="#DejaVuSans-48"/>
       <use x="211.035156" xlink:href="#DejaVuSans-48"/>
      </g>
     </g>
    </g>
    <g id="ytick_2">
     <g id="line2d_9">
      <g>
       <use style="stroke:#000000;stroke-width:0.8;" x="57.6" xlink:href="#m79c8e57914" y="207.856605"/>
      </g>
     </g>
     <g id="text_9">
      <!-- 0 -->
      <g transform="translate(44.2375 211.655824)scale(0.1 -0.1)">
       <use xlink:href="#DejaVuSans-48"/>
      </g>
     </g>
    </g>
    <g id="ytick_3">
     <g id="line2d_10">
      <g>
       <use style="stroke:#000000;stroke-width:0.8;" x="57.6" xlink:href="#m79c8e57914" y="156.483426"/>
      </g>
     </g>
     <g id="text_10">
      <!-- 100 -->
      <g transform="translate(31.5125 160.282645)scale(0.1 -0.1)">
       <use xlink:href="#DejaVuSans-49"/>
       <use x="63.623047" xlink:href="#DejaVuSans-48"/>
       <use x="127.246094" xlink:href="#DejaVuSans-48"/>
      </g>
     </g>
    </g>
    <g id="ytick_4">
     <g id="line2d_11">
      <g>
       <use style="stroke:#000000;stroke-width:0.8;" x="57.6" xlink:href="#m79c8e57914" y="105.110248"/>
      </g>
     </g>
     <g id="text_11">
      <!-- 200 -->
      <g transform="translate(31.5125 108.909467)scale(0.1 -0.1)">
       <use xlink:href="#DejaVuSans-50"/>
       <use x="63.623047" xlink:href="#DejaVuSans-48"/>
       <use x="127.246094" xlink:href="#DejaVuSans-48"/>
      </g>
     </g>
    </g>
    <g id="ytick_5">
     <g id="line2d_12">
      <g>
       <use style="stroke:#000000;stroke-width:0.8;" x="57.6" xlink:href="#m79c8e57914" y="53.737069"/>
      </g>
     </g>
     <g id="text_12">
      <!-- 300 -->
      <g transform="translate(31.5125 57.536288)scale(0.1 -0.1)">
       <use xlink:href="#DejaVuSans-51"/>
       <use x="63.623047" xlink:href="#DejaVuSans-48"/>
       <use x="127.246094" xlink:href="#DejaVuSans-48"/>
      </g>
     </g>
    </g>
   </g>
   <g id="line2d_13">
    <path clip-path="url(#p42e45d6f78)" d="M 243.244534 207.856605 
L 242.866498 184.535427 
L 242.558367 165.525553 
L 242.727658 158.999366 
L 243.124284 147.962671 
L 243.032171 139.018652 
L 242.58682 113.025108 
L 242.393807 101.149684 
L 242.235962 92.219073 
L 241.937912 82.836944 
L 242.010637 74.148404 
L 242.280933 68.515026 
L 242.5191 62.06574 
L 242.424023 58.551712 
L 242.182138 57.092817 
L 241.837221 56.065969 
L 241.205554 54.988828 
L 240.537001 54.317894 
L 239.954394 53.937836 
L 239.120691 53.644032 
L 237.808589 53.61927 
L 236.638046 54.027944 
L 235.478882 54.866457 
L 234.560453 55.855391 
L 233.737752 57.153591 
L 233.206975 58.319865 
L 232.655232 60.123937 
L 232.39627 61.633281 
L 232.259109 63.851832 
L 232.348673 66.252192 
L 233.100432 76.945468 
L 233.219659 83.932991 
L 233.440502 98.426135 
L 233.734988 117.054152 
L 233.628939 127.015874 
L 233.470226 144.672168 
L 233.632119 150.282427 
L 234.524646 168.18224 
L 234.704842 180.25113 
L 235.301788 227.206611 
L 235.68608 268.951541 
L 235.799522 284.708158 
L 236.137866 285.918355 
L 236.680465 286.906724 
L 237.43004 287.655077 
L 238.09672 288.041198 
L 238.804846 288.275614 
L 239.534641 288.353393 
L 240.54132 288.200969 
L 241.272658 287.900024 
L 241.970185 287.42883 
L 242.783019 286.529953 
L 243.276543 285.678545 
L 243.629053 284.68504 
L 243.894432 283.152629 
L 243.996355 281.421815 
L 243.970528 269.757021 
L 243.845638 259.233688 
L 243.592711 239.977947 
L 242.59652 170.288843 
L 242.526699 163.852786 
L 242.469925 154.496209 
L 242.239604 148.171863 
L 242.388682 143.914516 
L 242.829329 133.972984 
L 242.742866 125.972022 
L 242.368115 103.584567 
L 242.145344 89.485301 
L 241.967427 82.332254 
L 242.046691 72.981051 
L 242.308878 60.746477 
L 242.315901 53.622404 
L 242.315901 53.622404 
" style="fill:none;stroke:#008000;stroke-linecap:square;stroke-width:1.5;"/>
   </g>
   <g id="line2d_14">
    <path clip-path="url(#p42e45d6f78)" d="M 243.244534 207.856605 
L 243.135614 190.238278 
L 242.98393 179.674623 
L 242.971422 162.172142 
L 243.413234 148.106224 
L 243.224473 125.72512 
L 242.938908 106.880045 
L 242.793899 96.805655 
L 242.561081 88.876042 
L 242.621315 81.770445 
L 242.785054 76.907931 
L 243.244335 67.932876 
L 243.20189 64.099057 
L 242.92536 62.496985 
L 242.532408 61.4803 
L 241.849751 60.436345 
L 241.191583 59.816814 
L 240.318412 59.3039 
L 239.728215 59.202316 
L 238.993098 59.274191 
L 238.450819 59.442801 
L 237.144981 60.296118 
L 236.489808 60.935694 
L 230.430878 68.115369 
L 229.666896 69.653655 
L 229.2001 70.999823 
L 228.866597 72.502448 
L 228.619918 74.71902 
L 228.627058 77.140891 
L 229.228497 89.207256 
L 229.171263 103.422488 
L 228.949821 133.26329 
L 228.371264 150.836348 
L 228.356607 152.648525 
L 228.41523 159.755618 
L 228.829047 173.55595 
L 228.834382 181.772321 
L 228.052649 233.412637 
L 227.718333 255.137795 
L 226.854145 289.41446 
L 226.801888 291.918725 
L 226.988104 293.077755 
L 227.298905 293.785189 
L 227.859968 294.452837 
L 228.666913 295.027223 
L 229.366294 295.221268 
L 230.52837 295.276353 
L 231.359337 295.083356 
L 232.369155 294.589938 
L 233.023274 294.054676 
L 233.80858 293.033855 
L 234.22142 292.151153 
L 234.553722 290.879911 
L 234.785422 289.113522 
L 235.093571 282.557046 
L 235.929594 258.755412 
L 236.323882 248.177844 
L 236.735589 234.179168 
L 237.079659 225.496894 
L 238.420978 191.617041 
L 239.561962 158.18103 
L 240.570422 147.687845 
L 240.902672 139.081887 
L 242.063615 101.268286 
L 242.375142 93.965422 
L 242.851347 86.924123 
L 243.36783 79.589799 
L 243.862404 70.143816 
L 243.884469 69.700816 
L 243.884469 69.700816 
" style="fill:none;stroke:#0000ff;stroke-linecap:square;stroke-width:1.5;"/>
   </g>
   <g id="line2d_15">
    <path clip-path="url(#p42e45d6f78)" d="M 243.244534 207.856605 
L 243.134462 190.238199 
L 242.985962 179.674337 
L 242.96501 161.73966 
L 243.386561 149.300922 
L 243.27849 134.336133 
L 242.99541 115.691106 
L 242.895993 106.880313 
L 242.746131 96.806294 
L 242.507133 88.87699 
L 242.561836 81.771503 
L 242.725388 76.909024 
L 243.158223 67.933085 
L 243.099916 64.09949 
L 242.81832 62.498471 
L 242.424016 61.482309 
L 241.738948 60.439957 
L 241.078687 59.822696 
L 240.338376 59.394375 
L 239.723848 59.245218 
L 239.109871 59.276467 
L 238.327807 59.501028 
L 237.255846 60.155398 
L 236.379899 61.005112 
L 230.479471 68.315917 
L 229.735934 69.863976 
L 229.289757 71.217097 
L 228.970148 72.722987 
L 228.756726 74.942943 
L 228.798706 77.364474 
L 229.597083 90.106297 
L 229.946553 131.373028 
L 229.670791 157.899077 
L 229.905623 163.338161 
L 230.268605 172.343816 
L 230.385245 179.712483 
L 230.340378 204.304001 
L 229.946792 265.147337 
L 229.606954 282.925194 
L 229.479815 292.984386 
L 229.761056 293.809889 
L 230.277259 294.510179 
L 231.099587 295.162364 
L 231.746044 295.395738 
L 232.89676 295.488 
L 233.60703 295.390413 
L 234.735048 294.912176 
L 235.603375 294.234965 
L 236.38242 293.209336 
L 236.791791 292.325193 
L 237.116303 291.051951 
L 237.33792 289.284306 
L 237.606238 282.726202 
L 238.529507 252.878021 
L 238.960489 235.833168 
L 239.391035 223.548735 
L 239.888087 209.588727 
L 240.733019 182.16148 
L 241.039565 171.75591 
L 241.362799 163.419673 
L 241.420865 160.112822 
L 241.781894 155.983704 
L 242.466375 148.879847 
L 242.677645 144.201255 
L 242.943416 134.035476 
L 243.678756 112.999001 
L 243.838711 105.046747 
L 243.996773 97.194815 
L 244.416419 89.309544 
L 245.172056 77.396236 
L 245.538005 69.84294 
L 245.538005 69.84294 
" style="fill:none;stroke:#ff0000;stroke-linecap:square;stroke-width:1.5;"/>
   </g>
   <g id="patch_3">
    <path d="M 57.6 307.584 
L 57.6 41.472 
" style="fill:none;stroke:#000000;stroke-linecap:square;stroke-linejoin:miter;stroke-width:0.8;"/>
   </g>
   <g id="patch_4">
    <path d="M 414.72 307.584 
L 414.72 41.472 
" style="fill:none;stroke:#000000;stroke-linecap:square;stroke-linejoin:miter;stroke-width:0.8;"/>
   </g>
   <g id="patch_5">
    <path d="M 57.6 307.584 
L 414.72 307.584 
" style="fill:none;stroke:#000000;stroke-linecap:square;stroke-linejoin:miter;stroke-width:0.8;"/>
   </g>
   <g id="patch_6">
    <path d="M 57.6 41.472 
L 414.72 41.472 
" style="fill:none;stroke:#000000;stroke-linecap:square;stroke-linejoin:miter;stroke-width:0.8;"/>
   </g>
  </g>
 </g>
 <defs>
  <clipPath id="p42e45d6f78">
   <rect height="266.112" width="357.12" x="57.6" y="41.472"/>
  </clipPath>
 </defs>
</svg>
