<?xml version="1.0" encoding="utf-8" standalone="no"?>
<!DOCTYPE svg PUBLIC "-//W3C//DTD SVG 1.1//EN"
  "http://www.w3.org/Graphics/SVG/1.1/DTD/svg11.dtd">
<!-- Created with matplotlib (https://matplotlib.org/) -->
<svg height="345.6pt" version="1.1" viewBox="0 0 460.8 345.6" width="460.8pt" xmlns="http://www.w3.org/2000/svg" xmlns:xlink="http://www.w3.org/1999/xlink">
 <defs>
  <style type="text/css">
*{stroke-linecap:butt;stroke-linejoin:round;}
  </style>
 </defs>
 <g id="figure_1">
  <g id="patch_1">
   <path d="M 0 345.6 
L 460.8 345.6 
L 460.8 0 
L 0 0 
z
" style="fill:#ffffff;"/>
  </g>
  <g id="axes_1">
   <g id="patch_2">
    <path d="M 57.6 307.584 
L 414.72 307.584 
L 414.72 41.472 
L 57.6 41.472 
z
" style="fill:#ffffff;"/>
   </g>
   <g id="matplotlib.axis_1">
    <g id="xtick_1">
     <g id="line2d_1">
      <defs>
       <path d="M 0 0 
L 0 3.5 
" id="m44c38132f3" style="stroke:#000000;stroke-width:0.8;"/>
      </defs>
      <g>
       <use style="stroke:#000000;stroke-width:0.8;" x="80.080515" xlink:href="#m44c38132f3" y="307.584"/>
      </g>
     </g>
     <g id="text_1">
      <!-- −60 -->
      <defs>
       <path d="M 10.59375 35.5 
L 73.1875 35.5 
L 73.1875 27.203125 
L 10.59375 27.203125 
z
" id="DejaVuSans-8722"/>
       <path d="M 33.015625 40.375 
Q 26.375 40.375 22.484375 35.828125 
Q 18.609375 31.296875 18.609375 23.390625 
Q 18.609375 15.53125 22.484375 10.953125 
Q 26.375 6.390625 33.015625 6.390625 
Q 39.65625 6.390625 43.53125 10.953125 
Q 47.40625 15.53125 47.40625 23.390625 
Q 47.40625 31.296875 43.53125 35.828125 
Q 39.65625 40.375 33.015625 40.375 
z
M 52.59375 71.296875 
L 52.59375 62.3125 
Q 48.875 64.0625 45.09375 64.984375 
Q 41.3125 65.921875 37.59375 65.921875 
Q 27.828125 65.921875 22.671875 59.328125 
Q 17.53125 52.734375 16.796875 39.40625 
Q 19.671875 43.65625 24.015625 45.921875 
Q 28.375 48.1875 33.59375 48.1875 
Q 44.578125 48.1875 50.953125 41.515625 
Q 57.328125 34.859375 57.328125 23.390625 
Q 57.328125 12.15625 50.6875 5.359375 
Q 44.046875 -1.421875 33.015625 -1.421875 
Q 20.359375 -1.421875 13.671875 8.265625 
Q 6.984375 17.96875 6.984375 36.375 
Q 6.984375 53.65625 15.1875 63.9375 
Q 23.390625 74.21875 37.203125 74.21875 
Q 40.921875 74.21875 44.703125 73.484375 
Q 48.484375 72.75 52.59375 71.296875 
z
" id="DejaVuSans-54"/>
       <path d="M 31.78125 66.40625 
Q 24.171875 66.40625 20.328125 58.90625 
Q 16.5 51.421875 16.5 36.375 
Q 16.5 21.390625 20.328125 13.890625 
Q 24.171875 6.390625 31.78125 6.390625 
Q 39.453125 6.390625 43.28125 13.890625 
Q 47.125 21.390625 47.125 36.375 
Q 47.125 51.421875 43.28125 58.90625 
Q 39.453125 66.40625 31.78125 66.40625 
z
M 31.78125 74.21875 
Q 44.046875 74.21875 50.515625 64.515625 
Q 56.984375 54.828125 56.984375 36.375 
Q 56.984375 17.96875 50.515625 8.265625 
Q 44.046875 -1.421875 31.78125 -1.421875 
Q 19.53125 -1.421875 13.0625 8.265625 
Q 6.59375 17.96875 6.59375 36.375 
Q 6.59375 54.828125 13.0625 64.515625 
Q 19.53125 74.21875 31.78125 74.21875 
z
" id="DejaVuSans-48"/>
      </defs>
      <g transform="translate(69.528172 322.182437)scale(0.1 -0.1)">
       <use xlink:href="#DejaVuSans-8722"/>
       <use x="83.789062" xlink:href="#DejaVuSans-54"/>
       <use x="147.412109" xlink:href="#DejaVuSans-48"/>
      </g>
     </g>
    </g>
    <g id="xtick_2">
     <g id="line2d_2">
      <g>
       <use style="stroke:#000000;stroke-width:0.8;" x="134.371218" xlink:href="#m44c38132f3" y="307.584"/>
      </g>
     </g>
     <g id="text_2">
      <!-- −40 -->
      <defs>
       <path d="M 37.796875 64.3125 
L 12.890625 25.390625 
L 37.796875 25.390625 
z
M 35.203125 72.90625 
L 47.609375 72.90625 
L 47.609375 25.390625 
L 58.015625 25.390625 
L 58.015625 17.1875 
L 47.609375 17.1875 
L 47.609375 0 
L 37.796875 0 
L 37.796875 17.1875 
L 4.890625 17.1875 
L 4.890625 26.703125 
z
" id="DejaVuSans-52"/>
      </defs>
      <g transform="translate(123.818874 322.182437)scale(0.1 -0.1)">
       <use xlink:href="#DejaVuSans-8722"/>
       <use x="83.789062" xlink:href="#DejaVuSans-52"/>
       <use x="147.412109" xlink:href="#DejaVuSans-48"/>
      </g>
     </g>
    </g>
    <g id="xtick_3">
     <g id="line2d_3">
      <g>
       <use style="stroke:#000000;stroke-width:0.8;" x="188.661921" xlink:href="#m44c38132f3" y="307.584"/>
      </g>
     </g>
     <g id="text_3">
      <!-- −20 -->
      <defs>
       <path d="M 19.1875 8.296875 
L 53.609375 8.296875 
L 53.609375 0 
L 7.328125 0 
L 7.328125 8.296875 
Q 12.9375 14.109375 22.625 23.890625 
Q 32.328125 33.6875 34.8125 36.53125 
Q 39.546875 41.84375 41.421875 45.53125 
Q 43.3125 49.21875 43.3125 52.78125 
Q 43.3125 58.59375 39.234375 62.25 
Q 35.15625 65.921875 28.609375 65.921875 
Q 23.96875 65.921875 18.8125 64.3125 
Q 13.671875 62.703125 7.8125 59.421875 
L 7.8125 69.390625 
Q 13.765625 71.78125 18.9375 73 
Q 24.125 74.21875 28.421875 74.21875 
Q 39.75 74.21875 46.484375 68.546875 
Q 53.21875 62.890625 53.21875 53.421875 
Q 53.21875 48.921875 51.53125 44.890625 
Q 49.859375 40.875 45.40625 35.40625 
Q 44.1875 33.984375 37.640625 27.21875 
Q 31.109375 20.453125 19.1875 8.296875 
z
" id="DejaVuSans-50"/>
      </defs>
      <g transform="translate(178.109577 322.182437)scale(0.1 -0.1)">
       <use xlink:href="#DejaVuSans-8722"/>
       <use x="83.789062" xlink:href="#DejaVuSans-50"/>
       <use x="147.412109" xlink:href="#DejaVuSans-48"/>
      </g>
     </g>
    </g>
    <g id="xtick_4">
     <g id="line2d_4">
      <g>
       <use style="stroke:#000000;stroke-width:0.8;" x="242.952624" xlink:href="#m44c38132f3" y="307.584"/>
      </g>
     </g>
     <g id="text_4">
      <!-- 0 -->
      <g transform="translate(239.771374 322.182437)scale(0.1 -0.1)">
       <use xlink:href="#DejaVuSans-48"/>
      </g>
     </g>
    </g>
    <g id="xtick_5">
     <g id="line2d_5">
      <g>
       <use style="stroke:#000000;stroke-width:0.8;" x="297.243326" xlink:href="#m44c38132f3" y="307.584"/>
      </g>
     </g>
     <g id="text_5">
      <!-- 20 -->
      <g transform="translate(290.880826 322.182437)scale(0.1 -0.1)">
       <use xlink:href="#DejaVuSans-50"/>
       <use x="63.623047" xlink:href="#DejaVuSans-48"/>
      </g>
     </g>
    </g>
    <g id="xtick_6">
     <g id="line2d_6">
      <g>
       <use style="stroke:#000000;stroke-width:0.8;" x="351.534029" xlink:href="#m44c38132f3" y="307.584"/>
      </g>
     </g>
     <g id="text_6">
      <!-- 40 -->
      <g transform="translate(345.171529 322.182437)scale(0.1 -0.1)">
       <use xlink:href="#DejaVuSans-52"/>
       <use x="63.623047" xlink:href="#DejaVuSans-48"/>
      </g>
     </g>
    </g>
    <g id="xtick_7">
     <g id="line2d_7">
      <g>
       <use style="stroke:#000000;stroke-width:0.8;" x="405.824732" xlink:href="#m44c38132f3" y="307.584"/>
      </g>
     </g>
     <g id="text_7">
      <!-- 60 -->
      <g transform="translate(399.462232 322.182437)scale(0.1 -0.1)">
       <use xlink:href="#DejaVuSans-54"/>
       <use x="63.623047" xlink:href="#DejaVuSans-48"/>
      </g>
     </g>
    </g>
   </g>
   <g id="matplotlib.axis_2">
    <g id="ytick_1">
     <g id="line2d_8">
      <defs>
       <path d="M 0 0 
L -3.5 0 
" id="m4d4bc6f7e5" style="stroke:#000000;stroke-width:0.8;"/>
      </defs>
      <g>
       <use style="stroke:#000000;stroke-width:0.8;" x="57.6" xlink:href="#m4d4bc6f7e5" y="295.488"/>
      </g>
     </g>
     <g id="text_8">
      <!-- 0 -->
      <g transform="translate(44.2375 299.287219)scale(0.1 -0.1)">
       <use xlink:href="#DejaVuSans-48"/>
      </g>
     </g>
    </g>
    <g id="ytick_2">
     <g id="line2d_9">
      <g>
       <use style="stroke:#000000;stroke-width:0.8;" x="57.6" xlink:href="#m4d4bc6f7e5" y="241.197297"/>
      </g>
     </g>
     <g id="text_9">
      <!-- 20 -->
      <g transform="translate(37.875 244.996516)scale(0.1 -0.1)">
       <use xlink:href="#DejaVuSans-50"/>
       <use x="63.623047" xlink:href="#DejaVuSans-48"/>
      </g>
     </g>
    </g>
    <g id="ytick_3">
     <g id="line2d_10">
      <g>
       <use style="stroke:#000000;stroke-width:0.8;" x="57.6" xlink:href="#m4d4bc6f7e5" y="186.906595"/>
      </g>
     </g>
     <g id="text_10">
      <!-- 40 -->
      <g transform="translate(37.875 190.705813)scale(0.1 -0.1)">
       <use xlink:href="#DejaVuSans-52"/>
       <use x="63.623047" xlink:href="#DejaVuSans-48"/>
      </g>
     </g>
    </g>
    <g id="ytick_4">
     <g id="line2d_11">
      <g>
       <use style="stroke:#000000;stroke-width:0.8;" x="57.6" xlink:href="#m4d4bc6f7e5" y="132.615892"/>
      </g>
     </g>
     <g id="text_11">
      <!-- 60 -->
      <g transform="translate(37.875 136.415111)scale(0.1 -0.1)">
       <use xlink:href="#DejaVuSans-54"/>
       <use x="63.623047" xlink:href="#DejaVuSans-48"/>
      </g>
     </g>
    </g>
    <g id="ytick_5">
     <g id="line2d_12">
      <g>
       <use style="stroke:#000000;stroke-width:0.8;" x="57.6" xlink:href="#m4d4bc6f7e5" y="78.325189"/>
      </g>
     </g>
     <g id="text_12">
      <!-- 80 -->
      <defs>
       <path d="M 31.78125 34.625 
Q 24.75 34.625 20.71875 30.859375 
Q 16.703125 27.09375 16.703125 20.515625 
Q 16.703125 13.921875 20.71875 10.15625 
Q 24.75 6.390625 31.78125 6.390625 
Q 38.8125 6.390625 42.859375 10.171875 
Q 46.921875 13.96875 46.921875 20.515625 
Q 46.921875 27.09375 42.890625 30.859375 
Q 38.875 34.625 31.78125 34.625 
z
M 21.921875 38.8125 
Q 15.578125 40.375 12.03125 44.71875 
Q 8.5 49.078125 8.5 55.328125 
Q 8.5 64.0625 14.71875 69.140625 
Q 20.953125 74.21875 31.78125 74.21875 
Q 42.671875 74.21875 48.875 69.140625 
Q 55.078125 64.0625 55.078125 55.328125 
Q 55.078125 49.078125 51.53125 44.71875 
Q 48 40.375 41.703125 38.8125 
Q 48.828125 37.15625 52.796875 32.3125 
Q 56.78125 27.484375 56.78125 20.515625 
Q 56.78125 9.90625 50.3125 4.234375 
Q 43.84375 -1.421875 31.78125 -1.421875 
Q 19.734375 -1.421875 13.25 4.234375 
Q 6.78125 9.90625 6.78125 20.515625 
Q 6.78125 27.484375 10.78125 32.3125 
Q 14.796875 37.15625 21.921875 38.8125 
z
M 18.3125 54.390625 
Q 18.3125 48.734375 21.84375 45.5625 
Q 25.390625 42.390625 31.78125 42.390625 
Q 38.140625 42.390625 41.71875 45.5625 
Q 45.3125 48.734375 45.3125 54.390625 
Q 45.3125 60.0625 41.71875 63.234375 
Q 38.140625 66.40625 31.78125 66.40625 
Q 25.390625 66.40625 21.84375 63.234375 
Q 18.3125 60.0625 18.3125 54.390625 
z
" id="DejaVuSans-56"/>
      </defs>
      <g transform="translate(37.875 82.124408)scale(0.1 -0.1)">
       <use xlink:href="#DejaVuSans-56"/>
       <use x="63.623047" xlink:href="#DejaVuSans-48"/>
      </g>
     </g>
    </g>
   </g>
   <g id="line2d_13">
    <path clip-path="url(#p35a635a380)" d="M 242.952624 295.488 
L 242.825304 293.157044 
L 242.698154 290.829111 
L 242.570844 288.498169 
L 242.443687 286.169955 
L 242.316386 283.839019 
L 242.189243 281.510892 
L 242.061936 279.179677 
L 241.934796 276.85142 
L 241.807533 274.520831 
L 241.680232 272.189452 
L 241.553152 269.862039 
L 241.425885 267.531108 
L 241.298634 265.200381 
L 241.171332 262.871744 
L 241.047349 260.552879 
L 240.9172 258.213466 
L 240.783028 255.855077 
L 240.632608 253.468159 
L 240.489762 251.052684 
L 240.344183 248.610797 
L 240.20663 246.156259 
L 240.058234 243.683508 
L 239.916006 241.204838 
L 239.771623 238.717075 
L 239.629275 236.201407 
L 239.475828 233.666302 
L 239.329151 231.127641 
L 239.190965 228.569952 
L 239.052833 226.0042 
L 238.91599 223.431445 
L 238.777601 220.848401 
L 238.645875 218.246818 
L 238.518802 215.618415 
L 238.389569 212.970494 
L 238.259483 210.312258 
L 238.150676 207.653398 
L 238.023478 204.995406 
L 237.874643 202.324575 
L 237.714168 199.580831 
L 237.540525 196.712816 
L 237.357663 193.887011 
L 237.178935 191.055724 
L 237.005167 188.253943 
L 236.82832 185.444671 
L 236.62792 182.668895 
L 236.438478 179.894857 
L 236.260714 177.153204 
L 236.068875 174.425421 
L 235.894789 171.708389 
L 235.726854 168.995998 
L 235.544891 166.295795 
L 235.34977 163.619779 
L 235.158281 160.966483 
L 234.977496 158.301542 
L 234.802332 155.639343 
L 234.630282 152.988437 
L 234.455626 150.355419 
L 234.28913 147.741158 
L 234.133612 145.125052 
L 233.96501 142.522871 
L 233.80053 139.911162 
L 233.617354 137.301164 
L 233.421041 134.718555 
L 233.236778 132.164367 
L 233.066873 129.653639 
L 232.899658 127.169649 
L 232.702444 124.698173 
L 232.518113 122.259407 
L 232.331728 119.863368 
L 232.153584 117.504817 
L 231.967918 115.184133 
L 231.783826 112.895997 
L 231.605883 110.64638 
L 231.429813 108.429528 
L 231.244777 106.246227 
L 231.057707 104.091565 
L 230.885131 101.984054 
L 230.696837 99.940063 
L 230.519483 97.956932 
L 230.345391 96.022174 
L 230.168537 94.136277 
L 229.988737 92.301034 
L 229.821019 90.520381 
L 229.673419 88.807943 
L 229.549126 87.147136 
L 229.418394 85.534729 
L 229.273978 83.956905 
L 229.128224 82.41152 
L 229.01674 80.905252 
L 228.946241 79.431883 
L 228.882219 77.991171 
L 228.814594 76.602659 
L 228.741465 75.243138 
L 228.704322 73.919856 
L 228.73707 72.632759 
L 228.816766 71.386978 
L 228.936005 70.158596 
L 229.093239 68.947696 
L 229.299706 67.778383 
L 229.557346 66.616345 
L 229.875902 65.488971 
L 230.246053 64.431632 
L 230.685115 63.390581 
L 231.181466 62.43501 
L 231.741352 61.495021 
L 232.355442 60.610435 
L 233.027252 59.833481 
L 233.742027 59.063964 
L 234.49578 58.386823 
L 235.303598 57.710958 
L 236.144198 57.097229 
L 237.027874 56.586815 
L 237.937145 56.098579 
L 238.850812 55.676468 
L 239.78861 55.246079 
L 240.750942 54.867265 
L 241.731022 54.578547 
L 242.755321 54.32881 
L 243.772662 54.08309 
L 244.788586 53.831507 
" style="fill:none;stroke:#008000;stroke-linecap:square;stroke-width:1.5;"/>
   </g>
   <g id="line2d_14">
    <path clip-path="url(#p35a635a380)" d="M 242.952624 295.488 
L 242.954427 293.152317 
L 242.91594 290.819975 
L 242.842024 288.485457 
L 242.777117 286.153537 
L 242.686122 283.819825 
L 242.598738 281.488901 
L 242.497458 279.155526 
L 242.394393 276.825016 
L 242.298554 274.491785 
L 242.187773 272.158348 
L 242.044808 269.830679 
L 241.898632 267.499637 
L 241.799789 265.166365 
L 241.664598 262.836985 
L 241.561323 260.51605 
L 241.425337 258.175618 
L 241.300554 255.815467 
L 241.151452 253.427002 
L 240.988531 251.011478 
L 240.856711 248.567623 
L 240.713558 246.112378 
L 240.555576 243.639153 
L 240.391511 241.160771 
L 240.220129 238.673585 
L 240.058357 236.15802 
L 239.901605 233.621855 
L 239.717246 231.084153 
L 239.531845 228.528353 
L 239.359719 225.963809 
L 239.180946 223.392836 
L 239.026005 220.809776 
L 238.860342 218.209138 
L 238.721541 215.580191 
L 238.57263 212.93238 
L 238.425174 210.274196 
L 238.301303 207.615446 
L 238.13324 204.959071 
L 237.970821 202.288399 
L 237.798266 199.543469 
L 237.613967 196.67104 
L 237.416105 193.842495 
L 237.230555 191.008188 
L 237.057749 188.204182 
L 236.843305 185.395031 
L 236.640891 182.61789 
L 236.442598 179.843138 
L 236.269859 177.100109 
L 236.043194 174.373576 
L 235.875224 171.654578 
L 235.69848 168.941367 
L 235.506101 166.240294 
L 235.305652 163.563174 
L 235.105671 160.90906 
L 234.88956 158.24569 
L 234.688378 155.583621 
L 234.515531 152.93157 
L 234.321515 150.298727 
L 234.113821 147.686412 
L 233.929089 145.071308 
L 233.735126 142.470011 
L 233.555829 139.858576 
L 233.36692 137.248595 
L 233.150796 134.667149 
L 232.93313 132.114919 
L 232.701268 129.608348 
L 232.488312 127.126908 
L 232.251119 124.657886 
L 232.024467 122.221111 
L 231.816831 119.825366 
L 231.596655 117.469153 
L 231.387844 115.149526 
L 231.170341 112.863196 
L 230.968045 110.614783 
L 230.751064 108.400605 
L 230.536252 106.219024 
L 230.321483 104.066213 
L 230.13063 101.959166 
L 229.887425 99.919832 
L 229.695467 97.936888 
L 229.471019 96.006319 
L 229.260577 94.122578 
L 229.040247 92.290009 
L 228.821387 90.513022 
L 228.643668 88.801819 
L 228.474131 87.143355 
L 228.321678 85.530867 
L 228.142959 83.954664 
L 227.977502 82.409559 
L 227.849695 80.903515 
L 227.762584 79.429526 
L 227.686207 77.987996 
L 227.641778 76.597695 
L 227.571267 75.236857 
L 227.531414 73.912515 
L 227.567174 72.624688 
L 227.665472 71.379256 
L 227.786359 70.150082 
L 227.916136 68.935149 
L 228.119565 67.764646 
L 228.369689 66.600419 
L 228.716089 65.48053 
L 229.067749 64.416196 
L 229.527063 63.382881 
L 229.982203 62.406448 
L 230.551113 61.471568 
L 231.146877 60.574062 
L 231.787144 59.770319 
L 232.49011 58.99039 
L 233.228114 58.296708 
L 234.014116 57.595573 
L 234.857423 56.985013 
L 235.716974 56.435198 
L 236.618893 55.93355 
L 237.515716 55.476153 
L 238.4502 55.038629 
L 239.404302 54.638849 
L 240.377692 54.328038 
L 241.402491 54.080099 
L 242.41846 53.828578 
L 243.432395 53.568 
" style="fill:none;stroke:#0000ff;stroke-linecap:square;stroke-width:1.5;"/>
   </g>
   <g id="line2d_15">
    <path clip-path="url(#p35a635a380)" d="M 242.952624 295.488 
L 242.954427 293.152317 
L 242.91594 290.819975 
L 242.842024 288.485457 
L 242.777117 286.153537 
L 242.686122 283.819825 
L 242.598738 281.488901 
L 242.497458 279.155526 
L 242.394393 276.825016 
L 242.298554 274.491785 
L 242.187773 272.158348 
L 242.044809 269.830679 
L 241.898632 267.499637 
L 241.799789 265.166365 
L 241.664598 262.836985 
L 241.561323 260.51605 
L 241.425337 258.175618 
L 241.300554 255.815467 
L 241.151452 253.427002 
L 240.988531 251.011478 
L 240.856711 248.567623 
L 240.713558 246.112378 
L 240.555576 243.639153 
L 240.391512 241.160771 
L 240.220129 238.673585 
L 240.058357 236.15802 
L 239.901605 233.621855 
L 239.717246 231.084153 
L 239.531845 228.528353 
L 239.359719 225.963809 
L 239.180946 223.392836 
L 239.026005 220.809776 
L 238.860342 218.209138 
L 238.721541 215.580191 
L 238.57263 212.93238 
L 238.425174 210.274196 
L 238.301303 207.615446 
L 238.13324 204.959071 
L 237.970821 202.288399 
L 237.798266 199.543469 
L 237.613967 196.67104 
L 237.416105 193.842495 
L 237.230555 191.008188 
L 237.057749 188.204182 
L 236.843305 185.395031 
L 236.640891 182.61789 
L 236.442598 179.843138 
L 236.269859 177.100109 
L 236.043194 174.373576 
L 235.875224 171.654578 
L 235.69848 168.941367 
L 235.506101 166.240294 
L 235.305652 163.563174 
L 235.105671 160.90906 
L 234.88956 158.24569 
L 234.688378 155.583621 
L 234.515531 152.93157 
L 234.321515 150.298727 
L 234.113821 147.686412 
L 233.929089 145.071308 
L 233.735126 142.470011 
L 233.555829 139.858576 
L 233.36692 137.248595 
L 233.150796 134.667149 
L 232.93313 132.114919 
L 232.701268 129.608348 
L 232.488312 127.126908 
L 232.251119 124.657886 
L 232.024467 122.221111 
L 231.816831 119.825366 
L 231.596655 117.469153 
L 231.387844 115.149526 
L 231.170341 112.863196 
L 230.968045 110.614783 
L 230.751064 108.400605 
L 230.536252 106.219024 
L 230.321483 104.066213 
L 230.13063 101.959166 
L 229.887425 99.919832 
L 229.695467 97.936888 
L 229.471019 96.006319 
L 229.260577 94.122578 
L 229.040247 92.290009 
L 228.821387 90.513022 
L 228.643668 88.801819 
L 228.474131 87.143355 
L 228.321678 85.530867 
L 228.142959 83.954664 
L 227.977502 82.409559 
L 227.849695 80.903515 
L 227.762584 79.429526 
L 227.686207 77.987996 
L 227.641778 76.597695 
L 227.571267 75.236857 
L 227.531414 73.912515 
L 227.567174 72.624688 
L 227.665472 71.379256 
L 227.786359 70.150082 
L 227.916136 68.935149 
L 228.119565 67.764646 
L 228.369689 66.600419 
L 228.716089 65.48053 
L 229.067749 64.416196 
L 229.527063 63.382881 
L 229.982203 62.406448 
L 230.551113 61.471568 
L 231.146877 60.574062 
L 231.787144 59.770319 
L 232.49011 58.99039 
L 233.228114 58.296708 
L 234.014116 57.595573 
L 234.857423 56.985013 
L 235.716974 56.435198 
L 236.618892 55.93355 
L 237.515716 55.476153 
L 238.4502 55.038629 
L 239.404302 54.638849 
L 240.377692 54.328038 
L 241.402491 54.080099 
L 242.41846 53.828578 
L 243.432395 53.568 
" style="fill:none;stroke:#ff0000;stroke-linecap:square;stroke-width:1.5;"/>
   </g>
   <g id="patch_3">
    <path d="M 57.6 307.584 
L 57.6 41.472 
" style="fill:none;stroke:#000000;stroke-linecap:square;stroke-linejoin:miter;stroke-width:0.8;"/>
   </g>
   <g id="patch_4">
    <path d="M 414.72 307.584 
L 414.72 41.472 
" style="fill:none;stroke:#000000;stroke-linecap:square;stroke-linejoin:miter;stroke-width:0.8;"/>
   </g>
   <g id="patch_5">
    <path d="M 57.6 307.584 
L 414.72 307.584 
" style="fill:none;stroke:#000000;stroke-linecap:square;stroke-linejoin:miter;stroke-width:0.8;"/>
   </g>
   <g id="patch_6">
    <path d="M 57.6 41.472 
L 414.72 41.472 
" style="fill:none;stroke:#000000;stroke-linecap:square;stroke-linejoin:miter;stroke-width:0.8;"/>
   </g>
  </g>
 </g>
 <defs>
  <clipPath id="p35a635a380">
   <rect height="266.112" width="357.12" x="57.6" y="41.472"/>
  </clipPath>
 </defs>
</svg>
