<?xml version="1.0" encoding="utf-8" standalone="no"?>
<!DOCTYPE svg PUBLIC "-//W3C//DTD SVG 1.1//EN"
  "http://www.w3.org/Graphics/SVG/1.1/DTD/svg11.dtd">
<!-- Created with matplotlib (https://matplotlib.org/) -->
<svg height="345.6pt" version="1.1" viewBox="0 0 460.8 345.6" width="460.8pt" xmlns="http://www.w3.org/2000/svg" xmlns:xlink="http://www.w3.org/1999/xlink">
 <defs>
  <style type="text/css">
*{stroke-linecap:butt;stroke-linejoin:round;}
  </style>
 </defs>
 <g id="figure_1">
  <g id="patch_1">
   <path d="M 0 345.6 
L 460.8 345.6 
L 460.8 0 
L 0 0 
z
" style="fill:#ffffff;"/>
  </g>
  <g id="axes_1">
   <g id="patch_2">
    <path d="M 57.6 307.584 
L 414.72 307.584 
L 414.72 41.472 
L 57.6 41.472 
z
" style="fill:#ffffff;"/>
   </g>
   <g id="matplotlib.axis_1">
    <g id="xtick_1">
     <g id="line2d_1">
      <defs>
       <path d="M 0 0 
L 0 3.5 
" id="m97b86ef349" style="stroke:#000000;stroke-width:0.8;"/>
      </defs>
      <g>
       <use style="stroke:#000000;stroke-width:0.8;" x="69.76078" xlink:href="#m97b86ef349" y="307.584"/>
      </g>
     </g>
     <g id="text_1">
      <!-- −400 -->
      <defs>
       <path d="M 10.59375 35.5 
L 73.1875 35.5 
L 73.1875 27.203125 
L 10.59375 27.203125 
z
" id="DejaVuSans-8722"/>
       <path d="M 37.796875 64.3125 
L 12.890625 25.390625 
L 37.796875 25.390625 
z
M 35.203125 72.90625 
L 47.609375 72.90625 
L 47.609375 25.390625 
L 58.015625 25.390625 
L 58.015625 17.1875 
L 47.609375 17.1875 
L 47.609375 0 
L 37.796875 0 
L 37.796875 17.1875 
L 4.890625 17.1875 
L 4.890625 26.703125 
z
" id="DejaVuSans-52"/>
       <path d="M 31.78125 66.40625 
Q 24.171875 66.40625 20.328125 58.90625 
Q 16.5 51.421875 16.5 36.375 
Q 16.5 21.390625 20.328125 13.890625 
Q 24.171875 6.390625 31.78125 6.390625 
Q 39.453125 6.390625 43.28125 13.890625 
Q 47.125 21.390625 47.125 36.375 
Q 47.125 51.421875 43.28125 58.90625 
Q 39.453125 66.40625 31.78125 66.40625 
z
M 31.78125 74.21875 
Q 44.046875 74.21875 50.515625 64.515625 
Q 56.984375 54.828125 56.984375 36.375 
Q 56.984375 17.96875 50.515625 8.265625 
Q 44.046875 -1.421875 31.78125 -1.421875 
Q 19.53125 -1.421875 13.0625 8.265625 
Q 6.59375 17.96875 6.59375 36.375 
Q 6.59375 54.828125 13.0625 64.515625 
Q 19.53125 74.21875 31.78125 74.21875 
z
" id="DejaVuSans-48"/>
      </defs>
      <g transform="translate(56.027187 322.182437)scale(0.1 -0.1)">
       <use xlink:href="#DejaVuSans-8722"/>
       <use x="83.789062" xlink:href="#DejaVuSans-52"/>
       <use x="147.412109" xlink:href="#DejaVuSans-48"/>
       <use x="211.035156" xlink:href="#DejaVuSans-48"/>
      </g>
     </g>
    </g>
    <g id="xtick_2">
     <g id="line2d_2">
      <g>
       <use style="stroke:#000000;stroke-width:0.8;" x="148.877639" xlink:href="#m97b86ef349" y="307.584"/>
      </g>
     </g>
     <g id="text_2">
      <!-- −200 -->
      <defs>
       <path d="M 19.1875 8.296875 
L 53.609375 8.296875 
L 53.609375 0 
L 7.328125 0 
L 7.328125 8.296875 
Q 12.9375 14.109375 22.625 23.890625 
Q 32.328125 33.6875 34.8125 36.53125 
Q 39.546875 41.84375 41.421875 45.53125 
Q 43.3125 49.21875 43.3125 52.78125 
Q 43.3125 58.59375 39.234375 62.25 
Q 35.15625 65.921875 28.609375 65.921875 
Q 23.96875 65.921875 18.8125 64.3125 
Q 13.671875 62.703125 7.8125 59.421875 
L 7.8125 69.390625 
Q 13.765625 71.78125 18.9375 73 
Q 24.125 74.21875 28.421875 74.21875 
Q 39.75 74.21875 46.484375 68.546875 
Q 53.21875 62.890625 53.21875 53.421875 
Q 53.21875 48.921875 51.53125 44.890625 
Q 49.859375 40.875 45.40625 35.40625 
Q 44.1875 33.984375 37.640625 27.21875 
Q 31.109375 20.453125 19.1875 8.296875 
z
" id="DejaVuSans-50"/>
      </defs>
      <g transform="translate(135.144045 322.182437)scale(0.1 -0.1)">
       <use xlink:href="#DejaVuSans-8722"/>
       <use x="83.789062" xlink:href="#DejaVuSans-50"/>
       <use x="147.412109" xlink:href="#DejaVuSans-48"/>
       <use x="211.035156" xlink:href="#DejaVuSans-48"/>
      </g>
     </g>
    </g>
    <g id="xtick_3">
     <g id="line2d_3">
      <g>
       <use style="stroke:#000000;stroke-width:0.8;" x="227.994497" xlink:href="#m97b86ef349" y="307.584"/>
      </g>
     </g>
     <g id="text_3">
      <!-- 0 -->
      <g transform="translate(224.813247 322.182437)scale(0.1 -0.1)">
       <use xlink:href="#DejaVuSans-48"/>
      </g>
     </g>
    </g>
    <g id="xtick_4">
     <g id="line2d_4">
      <g>
       <use style="stroke:#000000;stroke-width:0.8;" x="307.111356" xlink:href="#m97b86ef349" y="307.584"/>
      </g>
     </g>
     <g id="text_4">
      <!-- 200 -->
      <g transform="translate(297.567606 322.182437)scale(0.1 -0.1)">
       <use xlink:href="#DejaVuSans-50"/>
       <use x="63.623047" xlink:href="#DejaVuSans-48"/>
       <use x="127.246094" xlink:href="#DejaVuSans-48"/>
      </g>
     </g>
    </g>
    <g id="xtick_5">
     <g id="line2d_5">
      <g>
       <use style="stroke:#000000;stroke-width:0.8;" x="386.228214" xlink:href="#m97b86ef349" y="307.584"/>
      </g>
     </g>
     <g id="text_5">
      <!-- 400 -->
      <g transform="translate(376.684464 322.182437)scale(0.1 -0.1)">
       <use xlink:href="#DejaVuSans-52"/>
       <use x="63.623047" xlink:href="#DejaVuSans-48"/>
       <use x="127.246094" xlink:href="#DejaVuSans-48"/>
      </g>
     </g>
    </g>
   </g>
   <g id="matplotlib.axis_2">
    <g id="ytick_1">
     <g id="line2d_6">
      <defs>
       <path d="M 0 0 
L -3.5 0 
" id="mb0b6a435cb" style="stroke:#000000;stroke-width:0.8;"/>
      </defs>
      <g>
       <use style="stroke:#000000;stroke-width:0.8;" x="57.6" xlink:href="#mb0b6a435cb" y="292.641038"/>
      </g>
     </g>
     <g id="text_6">
      <!-- −100 -->
      <defs>
       <path d="M 12.40625 8.296875 
L 28.515625 8.296875 
L 28.515625 63.921875 
L 10.984375 60.40625 
L 10.984375 69.390625 
L 28.421875 72.90625 
L 38.28125 72.90625 
L 38.28125 8.296875 
L 54.390625 8.296875 
L 54.390625 0 
L 12.40625 0 
z
" id="DejaVuSans-49"/>
      </defs>
      <g transform="translate(23.132812 296.440257)scale(0.1 -0.1)">
       <use xlink:href="#DejaVuSans-8722"/>
       <use x="83.789062" xlink:href="#DejaVuSans-49"/>
       <use x="147.412109" xlink:href="#DejaVuSans-48"/>
       <use x="211.035156" xlink:href="#DejaVuSans-48"/>
      </g>
     </g>
    </g>
    <g id="ytick_2">
     <g id="line2d_7">
      <g>
       <use style="stroke:#000000;stroke-width:0.8;" x="57.6" xlink:href="#mb0b6a435cb" y="253.082609"/>
      </g>
     </g>
     <g id="text_7">
      <!-- 0 -->
      <g transform="translate(44.2375 256.881828)scale(0.1 -0.1)">
       <use xlink:href="#DejaVuSans-48"/>
      </g>
     </g>
    </g>
    <g id="ytick_3">
     <g id="line2d_8">
      <g>
       <use style="stroke:#000000;stroke-width:0.8;" x="57.6" xlink:href="#mb0b6a435cb" y="213.52418"/>
      </g>
     </g>
     <g id="text_8">
      <!-- 100 -->
      <g transform="translate(31.5125 217.323399)scale(0.1 -0.1)">
       <use xlink:href="#DejaVuSans-49"/>
       <use x="63.623047" xlink:href="#DejaVuSans-48"/>
       <use x="127.246094" xlink:href="#DejaVuSans-48"/>
      </g>
     </g>
    </g>
    <g id="ytick_4">
     <g id="line2d_9">
      <g>
       <use style="stroke:#000000;stroke-width:0.8;" x="57.6" xlink:href="#mb0b6a435cb" y="173.965751"/>
      </g>
     </g>
     <g id="text_9">
      <!-- 200 -->
      <g transform="translate(31.5125 177.764969)scale(0.1 -0.1)">
       <use xlink:href="#DejaVuSans-50"/>
       <use x="63.623047" xlink:href="#DejaVuSans-48"/>
       <use x="127.246094" xlink:href="#DejaVuSans-48"/>
      </g>
     </g>
    </g>
    <g id="ytick_5">
     <g id="line2d_10">
      <g>
       <use style="stroke:#000000;stroke-width:0.8;" x="57.6" xlink:href="#mb0b6a435cb" y="134.407321"/>
      </g>
     </g>
     <g id="text_10">
      <!-- 300 -->
      <defs>
       <path d="M 40.578125 39.3125 
Q 47.65625 37.796875 51.625 33 
Q 55.609375 28.21875 55.609375 21.1875 
Q 55.609375 10.40625 48.1875 4.484375 
Q 40.765625 -1.421875 27.09375 -1.421875 
Q 22.515625 -1.421875 17.65625 -0.515625 
Q 12.796875 0.390625 7.625 2.203125 
L 7.625 11.71875 
Q 11.71875 9.328125 16.59375 8.109375 
Q 21.484375 6.890625 26.8125 6.890625 
Q 36.078125 6.890625 40.9375 10.546875 
Q 45.796875 14.203125 45.796875 21.1875 
Q 45.796875 27.640625 41.28125 31.265625 
Q 36.765625 34.90625 28.71875 34.90625 
L 20.21875 34.90625 
L 20.21875 43.015625 
L 29.109375 43.015625 
Q 36.375 43.015625 40.234375 45.921875 
Q 44.09375 48.828125 44.09375 54.296875 
Q 44.09375 59.90625 40.109375 62.90625 
Q 36.140625 65.921875 28.71875 65.921875 
Q 24.65625 65.921875 20.015625 65.03125 
Q 15.375 64.15625 9.8125 62.3125 
L 9.8125 71.09375 
Q 15.4375 72.65625 20.34375 73.4375 
Q 25.25 74.21875 29.59375 74.21875 
Q 40.828125 74.21875 47.359375 69.109375 
Q 53.90625 64.015625 53.90625 55.328125 
Q 53.90625 49.265625 50.4375 45.09375 
Q 46.96875 40.921875 40.578125 39.3125 
z
" id="DejaVuSans-51"/>
      </defs>
      <g transform="translate(31.5125 138.20654)scale(0.1 -0.1)">
       <use xlink:href="#DejaVuSans-51"/>
       <use x="63.623047" xlink:href="#DejaVuSans-48"/>
       <use x="127.246094" xlink:href="#DejaVuSans-48"/>
      </g>
     </g>
    </g>
    <g id="ytick_6">
     <g id="line2d_11">
      <g>
       <use style="stroke:#000000;stroke-width:0.8;" x="57.6" xlink:href="#mb0b6a435cb" y="94.848892"/>
      </g>
     </g>
     <g id="text_11">
      <!-- 400 -->
      <g transform="translate(31.5125 98.648111)scale(0.1 -0.1)">
       <use xlink:href="#DejaVuSans-52"/>
       <use x="63.623047" xlink:href="#DejaVuSans-48"/>
       <use x="127.246094" xlink:href="#DejaVuSans-48"/>
      </g>
     </g>
    </g>
    <g id="ytick_7">
     <g id="line2d_12">
      <g>
       <use style="stroke:#000000;stroke-width:0.8;" x="57.6" xlink:href="#mb0b6a435cb" y="55.290463"/>
      </g>
     </g>
     <g id="text_12">
      <!-- 500 -->
      <defs>
       <path d="M 10.796875 72.90625 
L 49.515625 72.90625 
L 49.515625 64.59375 
L 19.828125 64.59375 
L 19.828125 46.734375 
Q 21.96875 47.46875 24.109375 47.828125 
Q 26.265625 48.1875 28.421875 48.1875 
Q 40.625 48.1875 47.75 41.5 
Q 54.890625 34.8125 54.890625 23.390625 
Q 54.890625 11.625 47.5625 5.09375 
Q 40.234375 -1.421875 26.90625 -1.421875 
Q 22.3125 -1.421875 17.546875 -0.640625 
Q 12.796875 0.140625 7.71875 1.703125 
L 7.71875 11.625 
Q 12.109375 9.234375 16.796875 8.0625 
Q 21.484375 6.890625 26.703125 6.890625 
Q 35.15625 6.890625 40.078125 11.328125 
Q 45.015625 15.765625 45.015625 23.390625 
Q 45.015625 31 40.078125 35.4375 
Q 35.15625 39.890625 26.703125 39.890625 
Q 22.75 39.890625 18.8125 39.015625 
Q 14.890625 38.140625 10.796875 36.28125 
z
" id="DejaVuSans-53"/>
      </defs>
      <g transform="translate(31.5125 59.089682)scale(0.1 -0.1)">
       <use xlink:href="#DejaVuSans-53"/>
       <use x="63.623047" xlink:href="#DejaVuSans-48"/>
       <use x="127.246094" xlink:href="#DejaVuSans-48"/>
      </g>
     </g>
    </g>
   </g>
   <g id="line2d_13">
    <path clip-path="url(#p9893b9440e)" d="M 227.994497 253.082609 
L 227.923921 247.605072 
L 227.604921 247.081983 
L 227.130684 246.651235 
L 226.421899 246.241908 
L 225.665589 245.978758 
L 224.199347 245.830153 
L 221.050624 245.959263 
L 216.311876 246.206298 
L 212.801814 246.475805 
L 206.66229 247.191465 
L 203.535584 247.530674 
L 197.913967 247.795617 
L 176.047238 248.321455 
L 164.195691 248.660811 
L 154.583547 248.824294 
L 148.054982 248.973192 
L 143.812261 248.983932 
L 139.271309 249.022759 
L 121.650798 249.38876 
L 103.095165 249.993038 
L 85.994215 250.47586 
L 81.3192 250.557214 
L 79.996287 250.342021 
L 78.900835 249.908008 
L 78.162951 249.396251 
L 77.386024 248.555875 
L 76.891662 247.727122 
L 76.398052 246.495533 
L 75.993488 244.732861 
L 75.754001 242.690934 
L 75.147373 233.498916 
L 75.116913 227.501716 
L 75.332664 226.322004 
L 75.715629 225.264777 
L 76.611707 223.672001 
L 77.585873 222.627286 
L 78.146534 222.230571 
L 79.50509 221.680107 
L 81.104002 221.38857 
L 83.834641 221.179685 
L 87.232631 221.183364 
L 93.236968 221.255578 
L 106.13622 220.741406 
L 117.38462 220.207561 
L 127.973106 220.101231 
L 133.675176 219.63824 
L 136.099435 219.674107 
L 142.794897 219.939085 
L 143.695049 219.597538 
L 144.548167 218.963689 
L 145.16868 218.121087 
L 145.59421 217.139733 
L 145.941968 215.631888 
L 146.037779 213.805401 
L 145.94363 210.608368 
L 145.923811 206.783305 
L 145.982357 199.021348 
L 145.794969 197.453845 
L 145.485701 196.469236 
L 144.976703 195.605319 
L 144.2728 194.844057 
L 143.54184 194.310572 
L 142.883785 193.99897 
L 141.61305 193.672573 
L 139.566613 193.511214 
L 128.977731 193.236718 
L 125.156862 193.473476 
L 118.122582 193.986509 
L 98.848489 194.520587 
L 86.446565 194.919574 
L 80.436967 195.106448 
L 78.856608 194.996317 
L 77.588761 194.727517 
L 76.566096 194.261756 
L 75.719823 193.566873 
L 74.969637 192.552832 
L 74.585524 191.666091 
L 74.27768 190.325455 
L 74.111298 188.456043 
L 73.941157 180.911024 
L 73.860141 174.012825 
L 74.059555 172.70985 
L 74.413841 171.733904 
L 75.122411 170.684814 
L 76.112163 169.835811 
L 77.610201 169.11565 
L 78.759018 168.784546 
L 81.051349 168.417602 
L 85.187381 168.064464 
L 89.25193 167.895984 
L 94.573014 167.898041 
L 103.822724 168.149989 
L 113.44547 167.604716 
L 119.588973 167.419107 
L 133.397357 167.072971 
L 138.577178 166.944446 
L 140.544141 167.072101 
L 141.756884 167.370846 
L 142.565854 167.751675 
L 143.130155 168.199714 
L 143.704346 169.023756 
L 144.045577 170.033682 
L 144.222086 171.337409 
L 144.219555 173.526138 
L 144.269557 178.016771 
L 144.568697 186.342475 
L 145.128766 194.362354 
L 145.533013 197.831074 
L 145.54314 200.051805 
L 145.353457 208.864157 
L 145.789708 219.239562 
L 146.350607 224.388016 
L 146.262787 226.182636 
L 145.857788 230.886268 
L 145.893984 235.334055 
L 146.126627 244.647735 
L 146.387554 245.718839 
L 146.827246 246.555638 
L 147.530002 247.294254 
L 148.356536 247.829906 
L 149.746738 248.395766 
L 151.22017 248.810378 
L 152.404154 248.929077 
L 155.413799 248.86072 
L 159.774483 248.570377 
L 164.537278 248.050207 
L 167.804963 247.751244 
L 170.335634 247.762214 
L 175.137236 247.84709 
L 192.833221 247.693683 
L 214.935469 246.692368 
L 217.367193 246.603979 
L 223.243554 246.302326 
L 223.822673 245.954912 
L 224.425805 245.352433 
L 225.145433 244.228721 
L 225.620073 243.086894 
L 225.920917 241.951488 
L 226.082919 240.60575 
L 226.096082 238.313442 
L 225.885013 234.103816 
L 225.350317 223.306398 
L 225.447534 221.34892 
L 225.727952 220.490237 
L 226.197496 219.753497 
L 226.774876 219.291 
L 227.467154 219.016547 
L 229.48235 218.814969 
L 232.348939 218.662218 
L 235.688192 218.664711 
L 238.240937 218.432609 
L 243.315782 218.392462 
L 249.842111 218.219018 
L 255.21133 218.103072 
L 270.86187 217.843857 
L 271.316753 217.473749 
L 271.734015 216.795527 
L 271.998107 215.913719 
L 272.054597 214.833868 
L 271.940945 212.81909 
L 270.990396 195.121322 
L 271.156699 193.053088 
L 271.301958 192.062585 
L 271.399826 189.44259 
L 271.361414 178.194112 
L 271.304885 173.837819 
L 271.338589 170.55613 
L 271.3878 166.488139 
L 271.231267 162.11895 
L 270.533931 157.097957 
L 270.218927 147.450922 
L 270.128813 143.495277 
L 270.15239 141.590064 
L 270.38084 140.770611 
L 270.804629 140.038741 
L 271.557031 139.074029 
L 271.753794 138.501698 
L 271.702566 137.994875 
L 270.264736 134.637472 
L 270.010296 132.907463 
L 269.707002 128.675028 
L 269.51989 110.494805 
L 269.829633 109.746122 
L 270.388316 109.056381 
L 270.931375 108.611942 
L 272.287754 107.893878 
L 273.946795 107.404817 
L 275.395978 107.24508 
L 278.435292 107.210822 
L 284.924338 107.134356 
L 306.656236 106.376218 
L 316.614121 106.034434 
L 327.525048 105.712824 
L 337.306305 105.398413 
L 344.709071 105.17115 
L 359.607211 104.897129 
L 361.112805 104.611952 
L 362.922682 104.044328 
L 364.996414 103.074791 
L 367.64315 101.504519 
L 370.249497 100.030216 
L 371.926972 99.345261 
L 373.679015 98.889707 
L 375.494272 98.662522 
L 378.144805 98.616516 
L 381.334757 98.839784 
L 388.195613 99.636411 
L 389.49309 99.968069 
L 390.564965 100.428213 
L 391.942192 101.52766 
L 392.798592 103.014899 
L 393.114862 104.514559 
L 393.185276 106.076445 
L 393.293508 122.36447 
L 393.100779 124.719739 
L 392.693011 126.378543 
L 392.100505 127.976268 
L 391.329788 129.483207 
L 389.737561 132.018032 
L 387.984015 134.381529 
L 385.391751 137.901438 
L 383.109981 141.490733 
L 381.133128 144.896951 
L 377.360322 151.455066 
L 376.048525 153.610091 
L 371.992164 160.314295 
L 369.876579 163.875503 
L 367.80352 167.243033 
L 363.921374 173.330561 
L 351.473167 193.902685 
L 348.939054 197.794047 
L 345.418868 203.010222 
L 341.637478 209.101785 
L 335.417192 219.115649 
L 332.231235 224.214355 
L 328.042077 231.161875 
L 327.615281 232.483811 
L 327.326306 234.154292 
L 327.225076 236.39237 
L 327.181364 238.403833 
L 326.896544 239.721888 
L 326.489131 240.682778 
L 325.93923 241.493504 
L 325.23956 242.174178 
L 324.430748 242.674197 
L 323.574981 242.990467 
L 322.51343 243.120732 
L 321.797185 243.010341 
L 321.281027 242.791468 
L 320.588794 242.150044 
L 320.053964 240.968299 
L 319.799999 239.592615 
L 319.645523 237.397759 
L 318.495243 212.167484 
L 318.256745 205.959184 
L 317.356752 180.939902 
L 316.957884 168.269179 
L 316.832721 166.306329 
L 316.614042 164.003158 
L 315.811085 151.625998 
L 315.505615 141.488201 
L 315.572548 139.506166 
L 315.391647 138.366369 
L 315.037204 137.529035 
L 314.222221 136.542962 
L 313.553209 136.009003 
L 312.236546 135.499094 
L 311.263725 135.387263 
L 309.536762 135.402849 
L 303.381154 135.573741 
L 284.407903 136.098207 
L 278.017041 136.344458 
L 274.485185 136.722162 
L 266.88861 137.624331 
L 262.548291 137.77944 
L 231.4729 138.553005 
L 229.323966 138.367397 
L 226.8425 137.9067 
L 225.260206 137.410716 
L 224.490444 136.914732 
L 223.673791 135.871656 
L 223.153483 134.668723 
L 222.780578 133.01621 
L 222.607312 131.290552 
L 222.607312 131.290552 
" style="fill:none;stroke:#008000;stroke-linecap:square;stroke-width:1.5;"/>
   </g>
   <g id="line2d_14">
    <path clip-path="url(#p9893b9440e)" d="M 227.994497 253.082609 
L 227.951256 247.669072 
L 227.703567 247.083363 
L 227.161596 246.404927 
L 226.413566 245.88239 
L 225.627143 245.559204 
L 224.458789 245.379959 
L 222.768408 245.420419 
L 210.376417 246.141195 
L 205.100174 246.518817 
L 200.149027 246.617759 
L 180.714954 246.735753 
L 171.924698 246.830664 
L 138.162262 246.561991 
L 131.985967 246.471739 
L 123.051693 246.538262 
L 113.795472 246.581925 
L 84.776608 246.422886 
L 83.358699 246.242604 
L 82.268016 245.888534 
L 81.666777 245.532858 
L 80.995403 244.888376 
L 80.509168 244.159471 
L 80.000551 242.989632 
L 79.652062 241.667929 
L 79.35885 239.457127 
L 79.194926 234.830901 
L 79.192345 228.887892 
L 79.350889 224.044556 
L 79.637043 222.374012 
L 80.059717 221.21505 
L 80.6526 220.217134 
L 81.310748 219.523299 
L 82.073002 218.99098 
L 83.246567 218.479314 
L 84.530749 218.167061 
L 86.273547 217.994353 
L 89.223406 217.93341 
L 93.207129 218.117212 
L 96.749092 218.260415 
L 111.373214 218.194034 
L 116.754177 218.007907 
L 120.504599 217.975913 
L 126.189054 218.201941 
L 129.985065 218.329881 
L 133.266854 218.183828 
L 138.705146 217.939486 
L 141.367565 218.099812 
L 146.856466 218.476015 
L 147.572956 218.299317 
L 148.368243 217.865245 
L 148.931434 217.243487 
L 149.324579 216.473696 
L 149.692661 215.282645 
L 149.870709 213.953412 
L 149.916771 211.725083 
L 149.918786 208.002728 
L 150.11744 197.311525 
L 149.829032 196.038548 
L 149.323191 195.021784 
L 148.719031 194.270311 
L 148.075025 193.716158 
L 147.195868 193.233113 
L 146.159136 192.928437 
L 144.095737 192.705699 
L 135.45454 192.130426 
L 132.051801 192.143281 
L 120.841552 192.497392 
L 113.658635 192.459253 
L 105.398205 192.43082 
L 93.84725 192.390989 
L 86.415393 192.463955 
L 84.836618 192.324236 
L 83.701249 192.025818 
L 82.946837 191.601441 
L 82.294194 190.968412 
L 81.589572 189.874208 
L 81.280886 188.967612 
L 81.071838 187.649567 
L 80.998616 185.450853 
L 81.264198 171.291344 
L 81.591441 170.200652 
L 82.155957 169.175429 
L 82.866114 168.441573 
L 83.767744 167.855297 
L 85.049612 167.349999 
L 86.469002 167.044022 
L 89.251302 166.740527 
L 94.758776 166.438003 
L 98.886121 166.415178 
L 102.520464 166.573046 
L 109.652572 167.004229 
L 113.980326 166.905656 
L 123.312315 166.618071 
L 130.309521 166.660729 
L 137.735184 166.63792 
L 146.141283 166.637921 
L 147.495648 166.870798 
L 148.421884 167.231654 
L 149.061225 167.718286 
L 149.450795 168.283446 
L 149.674782 169.091351 
L 149.760828 170.186183 
L 149.827159 186.710458 
L 150.280362 196.220888 
L 149.885765 204.588369 
L 150.144748 213.912082 
L 150.515798 218.767293 
L 150.290057 220.714843 
L 149.996441 223.59517 
L 149.889877 227.203174 
L 149.885824 237.656264 
L 150.156177 238.252847 
L 150.616005 238.785089 
L 151.451904 239.34679 
L 152.819842 239.936366 
L 154.19597 240.268642 
L 155.627598 240.369148 
L 158.443093 240.33092 
L 164.434699 239.986342 
L 170.92652 239.456488 
L 173.79764 239.536632 
L 179.971236 239.715541 
L 202.34324 239.919162 
L 215.823889 239.729051 
L 220.346636 239.74855 
L 223.175834 239.754992 
L 223.833767 239.492995 
L 224.492055 238.942121 
L 224.985192 238.087467 
L 225.45105 236.915262 
L 225.978558 234.45131 
L 226.058796 232.152239 
L 226.154534 214.90386 
L 226.53251 214.176383 
L 227.042694 213.675533 
L 227.72962 213.347778 
L 228.712727 213.237519 
L 259.18248 213.120583 
L 270.954125 213.120416 
L 271.77564 212.578549 
L 272.115999 212.111093 
L 272.458692 211.284714 
L 272.594812 210.407746 
L 272.705368 206.566967 
L 272.669735 201.443515 
L 272.570214 193.767718 
L 272.695033 187.373484 
L 272.853439 179.970568 
L 272.872485 168.182974 
L 272.941939 164.822764 
L 272.954322 161.958986 
L 272.655353 155.253333 
L 272.330759 152.364254 
L 272.270841 149.076174 
L 272.32158 135.719419 
L 272.625155 134.761186 
L 273.002992 134.164604 
L 273.730833 133.081596 
L 273.772662 132.485954 
L 273.602415 131.92607 
L 272.73031 130.226125 
L 272.393544 128.893889 
L 272.160997 127.025151 
L 271.960007 122.730472 
L 272.139002 104.536004 
L 272.441106 103.829443 
L 272.892808 103.354889 
L 273.451753 102.970046 
L 274.889727 102.297381 
L 276.058682 102.012335 
L 277.504518 101.875184 
L 281.313105 101.885732 
L 287.098529 101.895323 
L 294.251378 101.855284 
L 310.074558 101.837424 
L 341.481966 101.747196 
L 349.297202 101.763555 
L 359.689193 101.785426 
L 361.783288 101.552697 
L 363.605292 101.092327 
L 365.367493 100.389266 
L 367.71684 99.158104 
L 370.723539 97.5163 
L 372.766427 96.678282 
L 374.524251 96.231892 
L 376.3041 96.00783 
L 378.157805 95.981414 
L 381.129866 96.195105 
L 386.069751 96.79455 
L 389.493125 97.344118 
L 390.79196 97.704783 
L 391.837549 98.197667 
L 392.772622 98.898802 
L 393.318296 99.584119 
L 393.796096 100.588955 
L 394.045224 101.706844 
L 394.099834 103.286502 
L 393.668344 120.124596 
L 393.329774 122.313326 
L 392.811961 123.937913 
L 392.165893 125.313531 
L 391.062339 127.133702 
L 389.58331 129.214826 
L 386.128705 133.868483 
L 382.217381 140.206551 
L 378.746047 146.048466 
L 368.66921 161.02899 
L 362.538251 169.818794 
L 356.516113 179.107842 
L 351.697829 186.405082 
L 327.556287 221.846777 
L 326.789963 223.368771 
L 326.282782 224.905031 
L 326.007809 226.486114 
L 325.834568 229.297842 
L 325.693738 230.618134 
L 325.384416 231.657721 
L 324.953408 232.464786 
L 324.39081 233.044052 
L 323.526178 233.600929 
L 322.502736 234.020668 
L 321.588499 234.15713 
L 320.969734 234.053267 
L 320.512896 233.822188 
L 320.028021 233.314466 
L 319.734042 232.558339 
L 319.54984 231.578449 
L 319.443702 229.532015 
L 319.480891 223.794767 
L 319.578714 216.261498 
L 319.644701 202.976136 
L 319.741734 183.868938 
L 319.754751 176.293316 
L 319.791472 163.477645 
L 320.013989 152.324168 
L 320.023527 139.652531 
L 320.263255 132.801633 
L 320.364835 131.374239 
L 320.253659 130.481452 
L 319.856018 129.54681 
L 319.326349 128.833577 
L 318.70326 128.306237 
L 317.748223 127.812907 
L 316.854838 127.626941 
L 314.922625 127.519511 
L 308.369507 127.316225 
L 300.842039 127.199587 
L 284.184346 127.02672 
L 281.193327 127.181231 
L 273.241023 127.794919 
L 269.329432 127.772301 
L 253.810992 127.492352 
L 236.592811 126.992493 
L 234.234133 126.469825 
L 232.989141 125.986204 
L 232.56109 125.685723 
L 232.524016 125.560931 
L 232.073846 124.892452 
L 231.816848 124.086826 
L 231.539824 122.432119 
L 231.451947 120.989755 
L 231.451947 120.989755 
" style="fill:none;stroke:#0000ff;stroke-linecap:square;stroke-width:1.5;"/>
   </g>
   <g id="line2d_15">
    <path clip-path="url(#p9893b9440e)" d="M 227.994497 253.082609 
L 227.945719 247.670757 
L 227.699224 247.084642 
L 227.157624 246.406117 
L 226.405788 245.890105 
L 225.620043 245.565102 
L 224.703921 245.40092 
L 223.365365 245.396406 
L 211.629975 246.013528 
L 205.092425 246.518423 
L 200.140869 246.599481 
L 180.215788 246.691907 
L 164.11951 246.769175 
L 148.689022 246.704884 
L 141.283687 246.568264 
L 130.544797 246.410333 
L 111.34173 246.529451 
L 96.920222 246.561719 
L 88.315561 246.482014 
L 83.860441 246.352604 
L 82.629522 246.057203 
L 81.783152 245.63849 
L 81.099738 245.031703 
L 80.495986 244.164624 
L 79.986815 242.995102 
L 79.639162 241.673167 
L 79.348716 239.461901 
L 79.183904 234.835548 
L 79.194561 228.141134 
L 79.352814 224.048486 
L 79.639229 222.377763 
L 80.065448 221.220064 
L 80.653554 220.219301 
L 81.308383 219.522297 
L 81.97472 218.903023 
L 82.092278 218.667738 
L 83.289525 218.22915 
L 84.895537 217.952646 
L 87.34763 217.858171 
L 90.072292 217.940734 
L 99.690396 218.437591 
L 106.118407 218.624278 
L 115.133863 218.639853 
L 119.561116 218.631784 
L 125.62601 218.993704 
L 129.772856 219.251414 
L 132.688338 219.197883 
L 138.500946 219.076762 
L 141.158907 219.298185 
L 146.63764 219.80234 
L 147.525045 219.580918 
L 148.241231 219.166451 
L 148.610915 218.755265 
L 149.219384 217.647392 
L 149.616228 216.40556 
L 149.811514 215.063188 
L 149.92478 212.399385 
L 150.101976 208.62375 
L 150.611981 201.51201 
L 150.660251 199.141962 
L 150.505693 197.873475 
L 150.238009 197.019916 
L 149.634 195.96691 
L 148.909513 195.18961 
L 148.10931 194.648742 
L 147.106438 194.257877 
L 145.704077 193.988231 
L 137.022362 192.984221 
L 133.210114 192.796833 
L 128.187219 192.826664 
L 123.845865 192.784423 
L 102.627689 191.732105 
L 94.959556 191.395806 
L 86.209955 191.032276 
L 84.625131 190.635423 
L 83.835985 190.185414 
L 83.244383 189.61977 
L 82.559637 188.538758 
L 82.25915 187.662867 
L 82.069353 186.360466 
L 82.064817 184.220838 
L 82.773837 171.024716 
L 83.0381 169.510986 
L 83.465186 168.442663 
L 83.961865 167.672653 
L 84.719405 166.982101 
L 85.887802 166.304218 
L 87.177736 165.902404 
L 88.68942 165.674693 
L 91.523039 165.506532 
L 96.671854 165.437951 
L 100.79651 165.580494 
L 104.421957 165.874506 
L 111.530659 166.591462 
L 115.858576 166.669568 
L 124.816108 166.751963 
L 137.196722 167.295648 
L 148.841136 167.888446 
L 149.980442 168.283885 
L 150.647129 168.729403 
L 151.109654 169.273172 
L 151.362444 169.92929 
L 151.470885 170.85187 
L 151.402554 172.380366 
L 151.141129 176.388694 
L 150.816169 185.822468 
L 150.878054 191.958892 
L 150.999469 196.041083 
L 150.741735 198.78103 
L 150.165023 204.731855 
L 150.012408 210.067316 
L 150.016303 216.138799 
L 150.175556 218.989625 
L 150.027173 220.794015 
L 149.311286 225.541103 
L 148.973879 230.793314 
L 148.609766 238.580618 
L 148.80523 239.297025 
L 149.160824 239.777357 
L 149.68831 240.292946 
L 150.740914 240.943881 
L 152.189573 241.526001 
L 153.267668 241.752993 
L 155.563567 241.926029 
L 160.65056 241.965186 
L 164.200686 241.868968 
L 168.343025 241.715103 
L 170.825286 241.804396 
L 179.076264 242.510836 
L 185.611351 242.983623 
L 199.008669 243.75704 
L 215.206584 244.335258 
L 219.908221 244.62915 
L 221.7557 244.690476 
L 222.426235 244.461723 
L 222.991436 244.068651 
L 223.427287 243.496173 
L 223.974807 242.445301 
L 224.594614 240.516513 
L 224.865807 238.794914 
L 225.010556 235.9425 
L 225.452717 223.557238 
L 225.688454 220.417712 
L 226.003323 219.611253 
L 226.466409 219.025837 
L 227.102064 218.611654 
L 227.640195 218.480443 
L 228.443092 218.441842 
L 259.407469 219.634565 
L 270.567835 220.12029 
L 271.220889 219.791592 
L 271.701165 219.362325 
L 272.368372 217.610518 
L 272.720131 212.676031 
L 272.880553 207.416652 
L 273.037983 202.447357 
L 273.596897 193.536543 
L 273.880045 189.506295 
L 274.509708 176.685994 
L 274.716306 172.58948 
L 274.909848 169.05262 
L 274.909561 162.339862 
L 274.717724 159.438687 
L 274.805501 156.150977 
L 275.436993 142.808046 
L 275.781133 141.863364 
L 276.184329 141.283424 
L 276.959187 140.233187 
L 277.003483 139.383743 
L 276.805706 138.898951 
L 276.093738 137.336002 
L 275.813136 135.990774 
L 275.659209 134.113887 
L 275.644638 129.814508 
L 276.319027 114.034397 
L 276.317429 112.814947 
L 276.549993 111.485353 
L 276.870288 110.890951 
L 277.480429 110.346776 
L 278.575542 109.771292 
L 279.738413 109.391648 
L 281.305525 109.183105 
L 283.257498 109.192528 
L 307.487715 109.93846 
L 349.870544 111.225062 
L 364.498441 111.722188 
L 366.207719 111.562636 
L 368.041659 111.149819 
L 369.826896 110.505534 
L 372.211844 109.34431 
L 375.26449 107.789252 
L 377.330176 107.008924 
L 379.100609 106.613722 
L 380.886535 106.439363 
L 383.118605 106.492417 
L 386.121279 106.825041 
L 392.680337 107.878036 
L 395.042031 108.457378 
L 396.106514 108.938275 
L 397.136699 109.672076 
L 397.795482 110.513077 
L 398.246615 111.52973 
L 398.461012 112.65464 
L 398.465674 114.235079 
L 397.506776 131.050089 
L 397.099291 133.226857 
L 396.535953 134.836105 
L 395.850379 136.19264 
L 394.68946 137.976723 
L 393.14709 140.011456 
L 389.89848 144.067504 
L 386.824451 148.586887 
L 383.986306 153.113418 
L 381.600467 156.765654 
L 377.761239 162.07786 
L 373.760004 167.643522 
L 370.972188 171.495426 
L 364.335328 180.3964 
L 359.365325 187.531435 
L 356.053797 192.228272 
L 347.917499 203.479738 
L 341.081518 212.894004 
L 328.069167 230.950905 
L 327.283337 232.499369 
L 326.795702 234.007902 
L 326.523779 235.578253 
L 325.958537 239.965784 
L 325.504716 240.94469 
L 324.963148 241.612603 
L 324.167838 242.138748 
L 323.068821 242.599561 
L 322.160627 242.762942 
L 321.507289 242.694763 
L 320.939742 242.446882 
L 320.440521 241.944629 
L 320.185816 241.295314 
L 319.989126 240.303772 
L 319.95911 237.809956 
L 320.189117 232.672483 
L 320.648499 223.635924 
L 322.053238 195.120551 
L 322.862511 183.501894 
L 323.51236 173.87826 
L 324.319062 163.100032 
L 324.734176 155.46275 
L 325.035573 150.798367 
L 325.517688 143.147607 
L 325.915449 139.337091 
L 325.658643 138.485903 
L 325.18383 137.671787 
L 324.301112 136.845888 
L 323.535171 136.398983 
L 322.653734 136.162839 
L 321.03692 135.97911 
L 289.623715 133.799897 
L 286.17516 133.836287 
L 278.24399 133.970068 
L 274.308901 133.69997 
L 242.1841 131.158029 
L 240.23481 130.585599 
L 239.016941 130.036917 
L 238.477952 129.564581 
L 238.093747 128.859955 
L 237.846032 127.771993 
L 237.680658 126.261589 
L 237.654125 125.099683 
L 237.654125 125.099683 
" style="fill:none;stroke:#ff0000;stroke-linecap:square;stroke-width:1.5;"/>
   </g>
   <g id="patch_3">
    <path d="M 57.6 307.584 
L 57.6 41.472 
" style="fill:none;stroke:#000000;stroke-linecap:square;stroke-linejoin:miter;stroke-width:0.8;"/>
   </g>
   <g id="patch_4">
    <path d="M 414.72 307.584 
L 414.72 41.472 
" style="fill:none;stroke:#000000;stroke-linecap:square;stroke-linejoin:miter;stroke-width:0.8;"/>
   </g>
   <g id="patch_5">
    <path d="M 57.6 307.584 
L 414.72 307.584 
" style="fill:none;stroke:#000000;stroke-linecap:square;stroke-linejoin:miter;stroke-width:0.8;"/>
   </g>
   <g id="patch_6">
    <path d="M 57.6 41.472 
L 414.72 41.472 
" style="fill:none;stroke:#000000;stroke-linecap:square;stroke-linejoin:miter;stroke-width:0.8;"/>
   </g>
  </g>
 </g>
 <defs>
  <clipPath id="p9893b9440e">
   <rect height="266.112" width="357.12" x="57.6" y="41.472"/>
  </clipPath>
 </defs>
</svg>
