<?xml version="1.0" encoding="utf-8" standalone="no"?>
<!DOCTYPE svg PUBLIC "-//W3C//DTD SVG 1.1//EN"
  "http://www.w3.org/Graphics/SVG/1.1/DTD/svg11.dtd">
<!-- Created with matplotlib (https://matplotlib.org/) -->
<svg height="345.6pt" version="1.1" viewBox="0 0 460.8 345.6" width="460.8pt" xmlns="http://www.w3.org/2000/svg" xmlns:xlink="http://www.w3.org/1999/xlink">
 <defs>
  <style type="text/css">
*{stroke-linecap:butt;stroke-linejoin:round;}
  </style>
 </defs>
 <g id="figure_1">
  <g id="patch_1">
   <path d="M 0 345.6 
L 460.8 345.6 
L 460.8 0 
L 0 0 
z
" style="fill:#ffffff;"/>
  </g>
  <g id="axes_1">
   <g id="patch_2">
    <path d="M 57.6 307.584 
L 414.72 307.584 
L 414.72 41.472 
L 57.6 41.472 
z
" style="fill:#ffffff;"/>
   </g>
   <g id="matplotlib.axis_1">
    <g id="xtick_1">
     <g id="line2d_1">
      <defs>
       <path d="M 0 0 
L 0 3.5 
" id="m4c60dac2fc" style="stroke:#000000;stroke-width:0.8;"/>
      </defs>
      <g>
       <use style="stroke:#000000;stroke-width:0.8;" x="88.287304" xlink:href="#m4c60dac2fc" y="307.584"/>
      </g>
     </g>
     <g id="text_1">
      <!-- −100 -->
      <defs>
       <path d="M 10.59375 35.5 
L 73.1875 35.5 
L 73.1875 27.203125 
L 10.59375 27.203125 
z
" id="DejaVuSans-8722"/>
       <path d="M 12.40625 8.296875 
L 28.515625 8.296875 
L 28.515625 63.921875 
L 10.984375 60.40625 
L 10.984375 69.390625 
L 28.421875 72.90625 
L 38.28125 72.90625 
L 38.28125 8.296875 
L 54.390625 8.296875 
L 54.390625 0 
L 12.40625 0 
z
" id="DejaVuSans-49"/>
       <path d="M 31.78125 66.40625 
Q 24.171875 66.40625 20.328125 58.90625 
Q 16.5 51.421875 16.5 36.375 
Q 16.5 21.390625 20.328125 13.890625 
Q 24.171875 6.390625 31.78125 6.390625 
Q 39.453125 6.390625 43.28125 13.890625 
Q 47.125 21.390625 47.125 36.375 
Q 47.125 51.421875 43.28125 58.90625 
Q 39.453125 66.40625 31.78125 66.40625 
z
M 31.78125 74.21875 
Q 44.046875 74.21875 50.515625 64.515625 
Q 56.984375 54.828125 56.984375 36.375 
Q 56.984375 17.96875 50.515625 8.265625 
Q 44.046875 -1.421875 31.78125 -1.421875 
Q 19.53125 -1.421875 13.0625 8.265625 
Q 6.59375 17.96875 6.59375 36.375 
Q 6.59375 54.828125 13.0625 64.515625 
Q 19.53125 74.21875 31.78125 74.21875 
z
" id="DejaVuSans-48"/>
      </defs>
      <g transform="translate(74.55371 322.182437)scale(0.1 -0.1)">
       <use xlink:href="#DejaVuSans-8722"/>
       <use x="83.789062" xlink:href="#DejaVuSans-49"/>
       <use x="147.412109" xlink:href="#DejaVuSans-48"/>
       <use x="211.035156" xlink:href="#DejaVuSans-48"/>
      </g>
     </g>
    </g>
    <g id="xtick_2">
     <g id="line2d_2">
      <g>
       <use style="stroke:#000000;stroke-width:0.8;" x="162.596735" xlink:href="#m4c60dac2fc" y="307.584"/>
      </g>
     </g>
     <g id="text_2">
      <!-- −50 -->
      <defs>
       <path d="M 10.796875 72.90625 
L 49.515625 72.90625 
L 49.515625 64.59375 
L 19.828125 64.59375 
L 19.828125 46.734375 
Q 21.96875 47.46875 24.109375 47.828125 
Q 26.265625 48.1875 28.421875 48.1875 
Q 40.625 48.1875 47.75 41.5 
Q 54.890625 34.8125 54.890625 23.390625 
Q 54.890625 11.625 47.5625 5.09375 
Q 40.234375 -1.421875 26.90625 -1.421875 
Q 22.3125 -1.421875 17.546875 -0.640625 
Q 12.796875 0.140625 7.71875 1.703125 
L 7.71875 11.625 
Q 12.109375 9.234375 16.796875 8.0625 
Q 21.484375 6.890625 26.703125 6.890625 
Q 35.15625 6.890625 40.078125 11.328125 
Q 45.015625 15.765625 45.015625 23.390625 
Q 45.015625 31 40.078125 35.4375 
Q 35.15625 39.890625 26.703125 39.890625 
Q 22.75 39.890625 18.8125 39.015625 
Q 14.890625 38.140625 10.796875 36.28125 
z
" id="DejaVuSans-53"/>
      </defs>
      <g transform="translate(152.044391 322.182437)scale(0.1 -0.1)">
       <use xlink:href="#DejaVuSans-8722"/>
       <use x="83.789062" xlink:href="#DejaVuSans-53"/>
       <use x="147.412109" xlink:href="#DejaVuSans-48"/>
      </g>
     </g>
    </g>
    <g id="xtick_3">
     <g id="line2d_3">
      <g>
       <use style="stroke:#000000;stroke-width:0.8;" x="236.906166" xlink:href="#m4c60dac2fc" y="307.584"/>
      </g>
     </g>
     <g id="text_3">
      <!-- 0 -->
      <g transform="translate(233.724916 322.182437)scale(0.1 -0.1)">
       <use xlink:href="#DejaVuSans-48"/>
      </g>
     </g>
    </g>
    <g id="xtick_4">
     <g id="line2d_4">
      <g>
       <use style="stroke:#000000;stroke-width:0.8;" x="311.215597" xlink:href="#m4c60dac2fc" y="307.584"/>
      </g>
     </g>
     <g id="text_4">
      <!-- 50 -->
      <g transform="translate(304.853097 322.182437)scale(0.1 -0.1)">
       <use xlink:href="#DejaVuSans-53"/>
       <use x="63.623047" xlink:href="#DejaVuSans-48"/>
      </g>
     </g>
    </g>
    <g id="xtick_5">
     <g id="line2d_5">
      <g>
       <use style="stroke:#000000;stroke-width:0.8;" x="385.525027" xlink:href="#m4c60dac2fc" y="307.584"/>
      </g>
     </g>
     <g id="text_5">
      <!-- 100 -->
      <g transform="translate(375.981277 322.182437)scale(0.1 -0.1)">
       <use xlink:href="#DejaVuSans-49"/>
       <use x="63.623047" xlink:href="#DejaVuSans-48"/>
       <use x="127.246094" xlink:href="#DejaVuSans-48"/>
      </g>
     </g>
    </g>
   </g>
   <g id="matplotlib.axis_2">
    <g id="ytick_1">
     <g id="line2d_6">
      <defs>
       <path d="M 0 0 
L -3.5 0 
" id="mac04da6ea8" style="stroke:#000000;stroke-width:0.8;"/>
      </defs>
      <g>
       <use style="stroke:#000000;stroke-width:0.8;" x="57.6" xlink:href="#mac04da6ea8" y="295.488"/>
      </g>
     </g>
     <g id="text_6">
      <!-- 0 -->
      <g transform="translate(44.2375 299.287219)scale(0.1 -0.1)">
       <use xlink:href="#DejaVuSans-48"/>
      </g>
     </g>
    </g>
    <g id="ytick_2">
     <g id="line2d_7">
      <g>
       <use style="stroke:#000000;stroke-width:0.8;" x="57.6" xlink:href="#mac04da6ea8" y="265.764228"/>
      </g>
     </g>
     <g id="text_7">
      <!-- 20 -->
      <defs>
       <path d="M 19.1875 8.296875 
L 53.609375 8.296875 
L 53.609375 0 
L 7.328125 0 
L 7.328125 8.296875 
Q 12.9375 14.109375 22.625 23.890625 
Q 32.328125 33.6875 34.8125 36.53125 
Q 39.546875 41.84375 41.421875 45.53125 
Q 43.3125 49.21875 43.3125 52.78125 
Q 43.3125 58.59375 39.234375 62.25 
Q 35.15625 65.921875 28.609375 65.921875 
Q 23.96875 65.921875 18.8125 64.3125 
Q 13.671875 62.703125 7.8125 59.421875 
L 7.8125 69.390625 
Q 13.765625 71.78125 18.9375 73 
Q 24.125 74.21875 28.421875 74.21875 
Q 39.75 74.21875 46.484375 68.546875 
Q 53.21875 62.890625 53.21875 53.421875 
Q 53.21875 48.921875 51.53125 44.890625 
Q 49.859375 40.875 45.40625 35.40625 
Q 44.1875 33.984375 37.640625 27.21875 
Q 31.109375 20.453125 19.1875 8.296875 
z
" id="DejaVuSans-50"/>
      </defs>
      <g transform="translate(37.875 269.563446)scale(0.1 -0.1)">
       <use xlink:href="#DejaVuSans-50"/>
       <use x="63.623047" xlink:href="#DejaVuSans-48"/>
      </g>
     </g>
    </g>
    <g id="ytick_3">
     <g id="line2d_8">
      <g>
       <use style="stroke:#000000;stroke-width:0.8;" x="57.6" xlink:href="#mac04da6ea8" y="236.040455"/>
      </g>
     </g>
     <g id="text_8">
      <!-- 40 -->
      <defs>
       <path d="M 37.796875 64.3125 
L 12.890625 25.390625 
L 37.796875 25.390625 
z
M 35.203125 72.90625 
L 47.609375 72.90625 
L 47.609375 25.390625 
L 58.015625 25.390625 
L 58.015625 17.1875 
L 47.609375 17.1875 
L 47.609375 0 
L 37.796875 0 
L 37.796875 17.1875 
L 4.890625 17.1875 
L 4.890625 26.703125 
z
" id="DejaVuSans-52"/>
      </defs>
      <g transform="translate(37.875 239.839674)scale(0.1 -0.1)">
       <use xlink:href="#DejaVuSans-52"/>
       <use x="63.623047" xlink:href="#DejaVuSans-48"/>
      </g>
     </g>
    </g>
    <g id="ytick_4">
     <g id="line2d_9">
      <g>
       <use style="stroke:#000000;stroke-width:0.8;" x="57.6" xlink:href="#mac04da6ea8" y="206.316683"/>
      </g>
     </g>
     <g id="text_9">
      <!-- 60 -->
      <defs>
       <path d="M 33.015625 40.375 
Q 26.375 40.375 22.484375 35.828125 
Q 18.609375 31.296875 18.609375 23.390625 
Q 18.609375 15.53125 22.484375 10.953125 
Q 26.375 6.390625 33.015625 6.390625 
Q 39.65625 6.390625 43.53125 10.953125 
Q 47.40625 15.53125 47.40625 23.390625 
Q 47.40625 31.296875 43.53125 35.828125 
Q 39.65625 40.375 33.015625 40.375 
z
M 52.59375 71.296875 
L 52.59375 62.3125 
Q 48.875 64.0625 45.09375 64.984375 
Q 41.3125 65.921875 37.59375 65.921875 
Q 27.828125 65.921875 22.671875 59.328125 
Q 17.53125 52.734375 16.796875 39.40625 
Q 19.671875 43.65625 24.015625 45.921875 
Q 28.375 48.1875 33.59375 48.1875 
Q 44.578125 48.1875 50.953125 41.515625 
Q 57.328125 34.859375 57.328125 23.390625 
Q 57.328125 12.15625 50.6875 5.359375 
Q 44.046875 -1.421875 33.015625 -1.421875 
Q 20.359375 -1.421875 13.671875 8.265625 
Q 6.984375 17.96875 6.984375 36.375 
Q 6.984375 53.65625 15.1875 63.9375 
Q 23.390625 74.21875 37.203125 74.21875 
Q 40.921875 74.21875 44.703125 73.484375 
Q 48.484375 72.75 52.59375 71.296875 
z
" id="DejaVuSans-54"/>
      </defs>
      <g transform="translate(37.875 210.115902)scale(0.1 -0.1)">
       <use xlink:href="#DejaVuSans-54"/>
       <use x="63.623047" xlink:href="#DejaVuSans-48"/>
      </g>
     </g>
    </g>
    <g id="ytick_5">
     <g id="line2d_10">
      <g>
       <use style="stroke:#000000;stroke-width:0.8;" x="57.6" xlink:href="#mac04da6ea8" y="176.59291"/>
      </g>
     </g>
     <g id="text_10">
      <!-- 80 -->
      <defs>
       <path d="M 31.78125 34.625 
Q 24.75 34.625 20.71875 30.859375 
Q 16.703125 27.09375 16.703125 20.515625 
Q 16.703125 13.921875 20.71875 10.15625 
Q 24.75 6.390625 31.78125 6.390625 
Q 38.8125 6.390625 42.859375 10.171875 
Q 46.921875 13.96875 46.921875 20.515625 
Q 46.921875 27.09375 42.890625 30.859375 
Q 38.875 34.625 31.78125 34.625 
z
M 21.921875 38.8125 
Q 15.578125 40.375 12.03125 44.71875 
Q 8.5 49.078125 8.5 55.328125 
Q 8.5 64.0625 14.71875 69.140625 
Q 20.953125 74.21875 31.78125 74.21875 
Q 42.671875 74.21875 48.875 69.140625 
Q 55.078125 64.0625 55.078125 55.328125 
Q 55.078125 49.078125 51.53125 44.71875 
Q 48 40.375 41.703125 38.8125 
Q 48.828125 37.15625 52.796875 32.3125 
Q 56.78125 27.484375 56.78125 20.515625 
Q 56.78125 9.90625 50.3125 4.234375 
Q 43.84375 -1.421875 31.78125 -1.421875 
Q 19.734375 -1.421875 13.25 4.234375 
Q 6.78125 9.90625 6.78125 20.515625 
Q 6.78125 27.484375 10.78125 32.3125 
Q 14.796875 37.15625 21.921875 38.8125 
z
M 18.3125 54.390625 
Q 18.3125 48.734375 21.84375 45.5625 
Q 25.390625 42.390625 31.78125 42.390625 
Q 38.140625 42.390625 41.71875 45.5625 
Q 45.3125 48.734375 45.3125 54.390625 
Q 45.3125 60.0625 41.71875 63.234375 
Q 38.140625 66.40625 31.78125 66.40625 
Q 25.390625 66.40625 21.84375 63.234375 
Q 18.3125 60.0625 18.3125 54.390625 
z
" id="DejaVuSans-56"/>
      </defs>
      <g transform="translate(37.875 180.392129)scale(0.1 -0.1)">
       <use xlink:href="#DejaVuSans-56"/>
       <use x="63.623047" xlink:href="#DejaVuSans-48"/>
      </g>
     </g>
    </g>
    <g id="ytick_6">
     <g id="line2d_11">
      <g>
       <use style="stroke:#000000;stroke-width:0.8;" x="57.6" xlink:href="#mac04da6ea8" y="146.869138"/>
      </g>
     </g>
     <g id="text_11">
      <!-- 100 -->
      <g transform="translate(31.5125 150.668357)scale(0.1 -0.1)">
       <use xlink:href="#DejaVuSans-49"/>
       <use x="63.623047" xlink:href="#DejaVuSans-48"/>
       <use x="127.246094" xlink:href="#DejaVuSans-48"/>
      </g>
     </g>
    </g>
    <g id="ytick_7">
     <g id="line2d_12">
      <g>
       <use style="stroke:#000000;stroke-width:0.8;" x="57.6" xlink:href="#mac04da6ea8" y="117.145366"/>
      </g>
     </g>
     <g id="text_12">
      <!-- 120 -->
      <g transform="translate(31.5125 120.944584)scale(0.1 -0.1)">
       <use xlink:href="#DejaVuSans-49"/>
       <use x="63.623047" xlink:href="#DejaVuSans-50"/>
       <use x="127.246094" xlink:href="#DejaVuSans-48"/>
      </g>
     </g>
    </g>
    <g id="ytick_8">
     <g id="line2d_13">
      <g>
       <use style="stroke:#000000;stroke-width:0.8;" x="57.6" xlink:href="#mac04da6ea8" y="87.421593"/>
      </g>
     </g>
     <g id="text_13">
      <!-- 140 -->
      <g transform="translate(31.5125 91.220812)scale(0.1 -0.1)">
       <use xlink:href="#DejaVuSans-49"/>
       <use x="63.623047" xlink:href="#DejaVuSans-52"/>
       <use x="127.246094" xlink:href="#DejaVuSans-48"/>
      </g>
     </g>
    </g>
    <g id="ytick_9">
     <g id="line2d_14">
      <g>
       <use style="stroke:#000000;stroke-width:0.8;" x="57.6" xlink:href="#mac04da6ea8" y="57.697821"/>
      </g>
     </g>
     <g id="text_14">
      <!-- 160 -->
      <g transform="translate(31.5125 61.49704)scale(0.1 -0.1)">
       <use xlink:href="#DejaVuSans-49"/>
       <use x="63.623047" xlink:href="#DejaVuSans-54"/>
       <use x="127.246094" xlink:href="#DejaVuSans-48"/>
      </g>
     </g>
    </g>
   </g>
   <g id="line2d_15">
    <path clip-path="url(#p2f0185855e)" d="M 236.906166 295.488 
L 236.906166 295.488 
L 236.908081 293.540137 
L 236.906827 291.586311 
L 236.909194 289.629846 
L 236.910294 287.669136 
L 236.912345 285.706445 
L 236.917418 283.734069 
L 236.918536 281.75716 
L 236.917651 279.779536 
L 236.916243 277.796024 
L 236.911247 275.807771 
L 236.903398 273.818657 
L 236.897469 271.812034 
L 236.899823 269.803361 
L 236.906883 267.793336 
L 236.913606 265.783994 
L 236.91231 263.770847 
L 236.905028 261.742973 
L 236.895213 259.712319 
L 236.891721 257.666461 
L 236.898644 255.627975 
L 236.909082 253.585328 
L 236.914015 251.541224 
L 236.917964 249.4907 
L 236.916312 247.43163 
L 236.918509 245.376989 
L 236.921285 243.306684 
L 236.924177 241.230389 
L 236.928629 239.152698 
L 236.931384 237.078469 
L 236.935041 234.993629 
L 236.934646 232.903111 
L 236.937887 230.811182 
L 236.945139 228.716206 
L 236.95203 226.616132 
L 236.956815 224.512031 
L 236.95609 222.397794 
L 236.95336 220.283616 
L 236.949203 218.164118 
L 236.94387 216.040577 
L 236.937122 213.919073 
L 236.931146 211.79091 
L 236.925826 209.667295 
L 236.921139 207.544795 
L 236.915862 205.420244 
L 236.910274 203.302767 
L 236.904221 201.186389 
L 236.901895 199.076165 
L 236.897317 196.969448 
L 236.891273 194.868408 
L 236.877386 192.768691 
L 236.866005 190.667117 
L 236.853949 188.571918 
L 236.843528 186.491135 
L 236.836648 184.406621 
L 236.826986 182.322911 
L 236.825042 180.24776 
L 236.827586 178.175761 
L 236.832536 176.10923 
L 236.833592 174.050116 
L 236.834252 171.989872 
L 236.827857 169.929331 
L 236.815924 167.875493 
L 236.794433 165.81782 
L 236.780767 163.768455 
L 236.760322 161.721602 
L 236.741128 159.687158 
L 236.715435 157.656965 
L 236.689984 155.632613 
L 236.653952 153.615305 
L 236.621797 151.604403 
L 236.591047 149.595625 
L 236.557795 147.589746 
L 236.536741 145.59057 
L 236.505783 143.591498 
L 236.479986 141.599262 
L 236.452394 139.60985 
L 236.437428 137.623856 
L 236.40932 135.625675 
L 236.384791 133.632548 
L 236.350664 131.64373 
L 236.320139 129.664127 
L 236.29131 127.689874 
L 236.279041 125.722755 
L 236.267714 123.743895 
L 236.261936 121.762954 
L 236.262029 119.779784 
L 236.266192 117.797357 
L 236.26203 115.801108 
L 236.241403 113.774095 
L 236.228353 111.759121 
L 236.219168 109.738945 
L 236.216376 107.72724 
L 236.206394 105.71286 
L 236.204968 103.695953 
L 236.201296 101.678601 
L 236.207471 99.674178 
L 236.214057 97.661879 
L 236.214935 95.652998 
L 236.213424 93.641887 
L 236.215838 91.641477 
L 236.215723 89.632448 
L 236.216305 87.625796 
L 236.211459 85.618995 
L 236.206977 83.613681 
L 236.200669 81.610744 
L 236.194428 79.607511 
L 236.190725 77.611114 
L 236.186233 75.600746 
L 236.187914 73.595581 
L 236.179719 71.596508 
L 236.166065 69.599665 
L 236.14228 67.59985 
L 236.132841 65.597954 
L 236.135075 63.59368 
L 236.147486 61.587325 
L 236.163659 59.582457 
L 236.176611 57.581007 
L 236.185548 55.574057 
L 236.187368 53.568 
" style="fill:none;stroke:#008000;stroke-linecap:square;stroke-width:1.5;"/>
   </g>
   <g id="line2d_16">
    <path clip-path="url(#p2f0185855e)" d="M 236.906166 295.488 
L 236.906166 295.488 
L 236.895215 293.540171 
L 236.888631 291.586217 
L 236.904939 289.629638 
L 236.918 287.669245 
L 236.908268 285.706648 
L 236.912751 283.734413 
L 236.880883 281.757718 
L 236.887357 279.780158 
L 236.882387 277.796759 
L 236.851815 275.808886 
L 236.840298 273.819767 
L 236.825571 271.813082 
L 236.827377 269.804359 
L 236.817431 267.794416 
L 236.829735 265.78526 
L 236.825677 263.772008 
L 236.810411 261.74402 
L 236.797382 259.713267 
L 236.788801 257.667324 
L 236.800979 255.628782 
L 236.786393 253.585941 
L 236.802769 251.54186 
L 236.812967 249.491168 
L 236.820073 247.431913 
L 236.826692 245.377172 
L 236.81795 243.306683 
L 236.833988 241.230384 
L 236.848783 239.152682 
L 236.833686 237.078355 
L 236.786961 234.994008 
L 236.786735 232.903444 
L 236.76411 230.811509 
L 236.75784 228.716748 
L 236.739283 226.616661 
L 236.738357 224.51274 
L 236.728849 222.398664 
L 236.722426 220.284349 
L 236.692109 218.165033 
L 236.675028 216.041643 
L 236.664213 213.920158 
L 236.635654 211.792111 
L 236.628436 209.668454 
L 236.59986 207.546279 
L 236.588329 205.421912 
L 236.565272 203.304597 
L 236.536213 201.18814 
L 236.511904 199.077956 
L 236.461867 196.971712 
L 236.467762 194.870869 
L 236.48417 192.771082 
L 236.462792 190.669507 
L 236.464086 188.574257 
L 236.437179 186.49359 
L 236.435057 184.409109 
L 236.414667 182.32538 
L 236.406524 180.250369 
L 236.425384 178.178438 
L 236.44229 176.112169 
L 236.384931 174.053705 
L 236.38878 171.99354 
L 236.413814 169.933175 
L 236.423007 167.879378 
L 236.424546 165.821365 
L 236.412249 163.772029 
L 236.394442 161.725072 
L 236.384387 159.690646 
L 236.387867 157.660696 
L 236.376437 155.636292 
L 236.371327 153.618704 
L 236.360867 151.607858 
L 236.34819 149.598862 
L 236.361544 147.592573 
L 236.353343 145.593318 
L 236.353018 143.593972 
L 236.344604 141.601621 
L 236.341027 139.612216 
L 236.321307 137.626401 
L 236.314978 135.62798 
L 236.308623 133.634878 
L 236.303145 131.645805 
L 236.308436 129.665956 
L 236.297053 127.691276 
L 236.300305 125.724259 
L 236.293086 123.745553 
L 236.283709 121.764703 
L 236.281169 119.78163 
L 236.297198 117.799415 
L 236.315363 115.803154 
L 236.314276 113.775811 
L 236.302462 111.760595 
L 236.327292 109.740287 
L 236.336081 107.728523 
L 236.366321 105.713972 
L 236.383742 103.696845 
L 236.397847 101.67905 
L 236.42765 99.674662 
L 236.463882 97.662528 
L 236.49657 95.653674 
L 236.541708 93.642734 
L 236.563311 91.642125 
L 236.615688 89.633571 
L 236.643635 87.626971 
L 236.672136 85.620093 
L 236.716769 83.615247 
L 236.738422 81.612339 
L 236.775949 79.609409 
L 236.793179 77.612903 
L 236.808867 75.602248 
L 236.844145 73.597374 
L 236.864627 71.598291 
L 236.870865 69.601422 
L 236.945229 67.603137 
L 236.993566 65.601908 
L 237.009371 63.597729 
L 237.026297 61.591615 
L 237.037123 59.5869 
L 237.037088 57.585413 
L 237.029486 55.57834 
L 237.033779 53.572279 
" style="fill:none;stroke:#0000ff;stroke-linecap:square;stroke-width:1.5;"/>
   </g>
   <g id="line2d_17">
    <path clip-path="url(#p2f0185855e)" d="M 236.906166 295.488 
L 236.906166 295.488 
L 236.88665 293.540098 
L 236.857483 291.586263 
L 236.855525 289.629843 
L 236.865238 287.669338 
L 236.861617 285.706609 
L 236.858498 283.734106 
L 236.830505 281.757358 
L 236.851495 279.780364 
L 236.826142 277.797521 
L 236.805412 275.809572 
L 236.812538 273.820366 
L 236.811654 271.813587 
L 236.810095 269.804723 
L 236.752569 267.795345 
L 236.739228 265.786499 
L 236.7839 263.774337 
L 236.78914 261.746535 
L 236.813202 259.715704 
L 236.763452 257.670192 
L 236.804564 255.631939 
L 236.851594 253.590059 
L 236.856344 251.546318 
L 236.900125 249.496676 
L 236.912584 247.437673 
L 236.915365 245.382694 
L 236.913767 243.312148 
L 236.937771 241.235808 
L 236.971858 239.158228 
L 236.962393 237.083937 
L 236.948906 234.999333 
L 236.961557 232.908828 
L 236.940431 230.817008 
L 236.926736 228.72234 
L 236.897779 226.622599 
L 236.8851 224.518733 
L 236.822459 222.405491 
L 236.779403 220.291903 
L 236.70603 218.173529 
L 236.603941 216.052343 
L 236.586346 213.930843 
L 236.532328 211.803287 
L 236.507662 209.679625 
L 236.482165 207.557472 
L 236.480805 205.433081 
L 236.496165 203.315591 
L 236.447857 201.199764 
L 236.451839 199.090024 
L 236.49979 196.984848 
L 236.329968 194.893014 
L 236.308423 192.794088 
L 236.346379 190.69298 
L 236.150396 188.615148 
L 236.097509 186.534881 
L 236.119996 184.451077 
L 236.179839 182.369081 
L 236.19981 180.293834 
L 235.907813 178.243035 
L 235.771338 176.180857 
L 235.725907 174.122342 
L 235.744968 172.06205 
L 235.383116 170.035417 
L 235.132976 167.997319 
L 234.924457 165.950239 
L 234.997185 163.904028 
L 234.997454 161.857744 
L 234.712328 159.843315 
L 234.713954 157.813132 
L 234.753035 155.7895 
L 234.444005 153.795953 
L 234.500426 151.786426 
L 234.550247 149.778567 
L 234.60393 147.773226 
L 234.716371 145.777086 
L 234.794975 143.779172 
L 234.857666 141.788707 
L 234.968052 139.805209 
L 234.986009 137.82095 
L 235.044869 135.823525 
L 235.141159 133.832383 
L 235.216863 131.845118 
L 235.311492 129.868081 
L 235.04521 127.913882 
L 235.149307 125.950706 
L 235.239393 123.97458 
L 235.332191 121.995912 
L 235.40779 120.01409 
L 235.490679 118.033949 
L 235.61001 116.042261 
L 235.677737 114.015703 
L 235.761163 112.003347 
L 235.862949 109.986712 
L 235.879764 107.975807 
L 235.987944 105.964902 
L 236.070119 103.949725 
L 236.164466 101.934449 
L 236.253795 99.932401 
L 236.337965 97.922379 
L 236.41159 95.915203 
L 236.473963 93.905447 
L 236.50542 91.905411 
L 236.542243 89.896759 
L 236.579451 87.890743 
L 236.608135 85.884303 
L 236.644755 83.879868 
L 236.68364 81.878071 
L 236.77698 79.878171 
L 236.834466 77.88336 
L 236.875306 75.872937 
L 237.003965 73.872307 
L 237.128865 71.879564 
L 237.234129 69.887652 
L 237.349965 67.892802 
L 237.462271 65.895262 
L 237.569949 63.893926 
L 237.655403 61.889887 
L 237.747081 59.887554 
L 237.819685 57.888374 
L 237.875995 55.882859 
L 237.835636 53.87914 
" style="fill:none;stroke:#ff0000;stroke-linecap:square;stroke-width:1.5;"/>
   </g>
   <g id="patch_3">
    <path d="M 57.6 307.584 
L 57.6 41.472 
" style="fill:none;stroke:#000000;stroke-linecap:square;stroke-linejoin:miter;stroke-width:0.8;"/>
   </g>
   <g id="patch_4">
    <path d="M 414.72 307.584 
L 414.72 41.472 
" style="fill:none;stroke:#000000;stroke-linecap:square;stroke-linejoin:miter;stroke-width:0.8;"/>
   </g>
   <g id="patch_5">
    <path d="M 57.6 307.584 
L 414.72 307.584 
" style="fill:none;stroke:#000000;stroke-linecap:square;stroke-linejoin:miter;stroke-width:0.8;"/>
   </g>
   <g id="patch_6">
    <path d="M 57.6 41.472 
L 414.72 41.472 
" style="fill:none;stroke:#000000;stroke-linecap:square;stroke-linejoin:miter;stroke-width:0.8;"/>
   </g>
  </g>
 </g>
 <defs>
  <clipPath id="p2f0185855e">
   <rect height="266.112" width="357.12" x="57.6" y="41.472"/>
  </clipPath>
 </defs>
</svg>
