<?xml version="1.0" encoding="utf-8" standalone="no"?>
<!DOCTYPE svg PUBLIC "-//W3C//DTD SVG 1.1//EN"
  "http://www.w3.org/Graphics/SVG/1.1/DTD/svg11.dtd">
<!-- Created with matplotlib (https://matplotlib.org/) -->
<svg height="345.6pt" version="1.1" viewBox="0 0 460.8 345.6" width="460.8pt" xmlns="http://www.w3.org/2000/svg" xmlns:xlink="http://www.w3.org/1999/xlink">
 <defs>
  <style type="text/css">
*{stroke-linecap:butt;stroke-linejoin:round;}
  </style>
 </defs>
 <g id="figure_1">
  <g id="patch_1">
   <path d="M 0 345.6 
L 460.8 345.6 
L 460.8 0 
L 0 0 
z
" style="fill:#ffffff;"/>
  </g>
  <g id="axes_1">
   <g id="patch_2">
    <path d="M 57.6 307.584 
L 414.72 307.584 
L 414.72 41.472 
L 57.6 41.472 
z
" style="fill:#ffffff;"/>
   </g>
   <g id="matplotlib.axis_1">
    <g id="xtick_1">
     <g id="line2d_1">
      <defs>
       <path d="M 0 0 
L 0 3.5 
" id="m2f59cb87ef" style="stroke:#000000;stroke-width:0.8;"/>
      </defs>
      <g>
       <use style="stroke:#000000;stroke-width:0.8;" x="106.721696" xlink:href="#m2f59cb87ef" y="307.584"/>
      </g>
     </g>
     <g id="text_1">
      <!-- −40 -->
      <defs>
       <path d="M 10.59375 35.5 
L 73.1875 35.5 
L 73.1875 27.203125 
L 10.59375 27.203125 
z
" id="DejaVuSans-8722"/>
       <path d="M 37.796875 64.3125 
L 12.890625 25.390625 
L 37.796875 25.390625 
z
M 35.203125 72.90625 
L 47.609375 72.90625 
L 47.609375 25.390625 
L 58.015625 25.390625 
L 58.015625 17.1875 
L 47.609375 17.1875 
L 47.609375 0 
L 37.796875 0 
L 37.796875 17.1875 
L 4.890625 17.1875 
L 4.890625 26.703125 
z
" id="DejaVuSans-52"/>
       <path d="M 31.78125 66.40625 
Q 24.171875 66.40625 20.328125 58.90625 
Q 16.5 51.421875 16.5 36.375 
Q 16.5 21.390625 20.328125 13.890625 
Q 24.171875 6.390625 31.78125 6.390625 
Q 39.453125 6.390625 43.28125 13.890625 
Q 47.125 21.390625 47.125 36.375 
Q 47.125 51.421875 43.28125 58.90625 
Q 39.453125 66.40625 31.78125 66.40625 
z
M 31.78125 74.21875 
Q 44.046875 74.21875 50.515625 64.515625 
Q 56.984375 54.828125 56.984375 36.375 
Q 56.984375 17.96875 50.515625 8.265625 
Q 44.046875 -1.421875 31.78125 -1.421875 
Q 19.53125 -1.421875 13.0625 8.265625 
Q 6.59375 17.96875 6.59375 36.375 
Q 6.59375 54.828125 13.0625 64.515625 
Q 19.53125 74.21875 31.78125 74.21875 
z
" id="DejaVuSans-48"/>
      </defs>
      <g transform="translate(96.169352 322.182437)scale(0.1 -0.1)">
       <use xlink:href="#DejaVuSans-8722"/>
       <use x="83.789062" xlink:href="#DejaVuSans-52"/>
       <use x="147.412109" xlink:href="#DejaVuSans-48"/>
      </g>
     </g>
    </g>
    <g id="xtick_2">
     <g id="line2d_2">
      <g>
       <use style="stroke:#000000;stroke-width:0.8;" x="175.343699" xlink:href="#m2f59cb87ef" y="307.584"/>
      </g>
     </g>
     <g id="text_2">
      <!-- −20 -->
      <defs>
       <path d="M 19.1875 8.296875 
L 53.609375 8.296875 
L 53.609375 0 
L 7.328125 0 
L 7.328125 8.296875 
Q 12.9375 14.109375 22.625 23.890625 
Q 32.328125 33.6875 34.8125 36.53125 
Q 39.546875 41.84375 41.421875 45.53125 
Q 43.3125 49.21875 43.3125 52.78125 
Q 43.3125 58.59375 39.234375 62.25 
Q 35.15625 65.921875 28.609375 65.921875 
Q 23.96875 65.921875 18.8125 64.3125 
Q 13.671875 62.703125 7.8125 59.421875 
L 7.8125 69.390625 
Q 13.765625 71.78125 18.9375 73 
Q 24.125 74.21875 28.421875 74.21875 
Q 39.75 74.21875 46.484375 68.546875 
Q 53.21875 62.890625 53.21875 53.421875 
Q 53.21875 48.921875 51.53125 44.890625 
Q 49.859375 40.875 45.40625 35.40625 
Q 44.1875 33.984375 37.640625 27.21875 
Q 31.109375 20.453125 19.1875 8.296875 
z
" id="DejaVuSans-50"/>
      </defs>
      <g transform="translate(164.791355 322.182437)scale(0.1 -0.1)">
       <use xlink:href="#DejaVuSans-8722"/>
       <use x="83.789062" xlink:href="#DejaVuSans-50"/>
       <use x="147.412109" xlink:href="#DejaVuSans-48"/>
      </g>
     </g>
    </g>
    <g id="xtick_3">
     <g id="line2d_3">
      <g>
       <use style="stroke:#000000;stroke-width:0.8;" x="243.965702" xlink:href="#m2f59cb87ef" y="307.584"/>
      </g>
     </g>
     <g id="text_3">
      <!-- 0 -->
      <g transform="translate(240.784452 322.182437)scale(0.1 -0.1)">
       <use xlink:href="#DejaVuSans-48"/>
      </g>
     </g>
    </g>
    <g id="xtick_4">
     <g id="line2d_4">
      <g>
       <use style="stroke:#000000;stroke-width:0.8;" x="312.587706" xlink:href="#m2f59cb87ef" y="307.584"/>
      </g>
     </g>
     <g id="text_4">
      <!-- 20 -->
      <g transform="translate(306.225206 322.182437)scale(0.1 -0.1)">
       <use xlink:href="#DejaVuSans-50"/>
       <use x="63.623047" xlink:href="#DejaVuSans-48"/>
      </g>
     </g>
    </g>
    <g id="xtick_5">
     <g id="line2d_5">
      <g>
       <use style="stroke:#000000;stroke-width:0.8;" x="381.209709" xlink:href="#m2f59cb87ef" y="307.584"/>
      </g>
     </g>
     <g id="text_5">
      <!-- 40 -->
      <g transform="translate(374.847209 322.182437)scale(0.1 -0.1)">
       <use xlink:href="#DejaVuSans-52"/>
       <use x="63.623047" xlink:href="#DejaVuSans-48"/>
      </g>
     </g>
    </g>
   </g>
   <g id="matplotlib.axis_2">
    <g id="ytick_1">
     <g id="line2d_6">
      <defs>
       <path d="M 0 0 
L -3.5 0 
" id="mf98be64e0b" style="stroke:#000000;stroke-width:0.8;"/>
      </defs>
      <g>
       <use style="stroke:#000000;stroke-width:0.8;" x="57.6" xlink:href="#mf98be64e0b" y="295.488"/>
      </g>
     </g>
     <g id="text_6">
      <!-- 0 -->
      <g transform="translate(44.2375 299.287219)scale(0.1 -0.1)">
       <use xlink:href="#DejaVuSans-48"/>
      </g>
     </g>
    </g>
    <g id="ytick_2">
     <g id="line2d_7">
      <g>
       <use style="stroke:#000000;stroke-width:0.8;" x="57.6" xlink:href="#mf98be64e0b" y="261.176998"/>
      </g>
     </g>
     <g id="text_7">
      <!-- 10 -->
      <defs>
       <path d="M 12.40625 8.296875 
L 28.515625 8.296875 
L 28.515625 63.921875 
L 10.984375 60.40625 
L 10.984375 69.390625 
L 28.421875 72.90625 
L 38.28125 72.90625 
L 38.28125 8.296875 
L 54.390625 8.296875 
L 54.390625 0 
L 12.40625 0 
z
" id="DejaVuSans-49"/>
      </defs>
      <g transform="translate(37.875 264.976217)scale(0.1 -0.1)">
       <use xlink:href="#DejaVuSans-49"/>
       <use x="63.623047" xlink:href="#DejaVuSans-48"/>
      </g>
     </g>
    </g>
    <g id="ytick_3">
     <g id="line2d_8">
      <g>
       <use style="stroke:#000000;stroke-width:0.8;" x="57.6" xlink:href="#mf98be64e0b" y="226.865997"/>
      </g>
     </g>
     <g id="text_8">
      <!-- 20 -->
      <g transform="translate(37.875 230.665216)scale(0.1 -0.1)">
       <use xlink:href="#DejaVuSans-50"/>
       <use x="63.623047" xlink:href="#DejaVuSans-48"/>
      </g>
     </g>
    </g>
    <g id="ytick_4">
     <g id="line2d_9">
      <g>
       <use style="stroke:#000000;stroke-width:0.8;" x="57.6" xlink:href="#mf98be64e0b" y="192.554995"/>
      </g>
     </g>
     <g id="text_9">
      <!-- 30 -->
      <defs>
       <path d="M 40.578125 39.3125 
Q 47.65625 37.796875 51.625 33 
Q 55.609375 28.21875 55.609375 21.1875 
Q 55.609375 10.40625 48.1875 4.484375 
Q 40.765625 -1.421875 27.09375 -1.421875 
Q 22.515625 -1.421875 17.65625 -0.515625 
Q 12.796875 0.390625 7.625 2.203125 
L 7.625 11.71875 
Q 11.71875 9.328125 16.59375 8.109375 
Q 21.484375 6.890625 26.8125 6.890625 
Q 36.078125 6.890625 40.9375 10.546875 
Q 45.796875 14.203125 45.796875 21.1875 
Q 45.796875 27.640625 41.28125 31.265625 
Q 36.765625 34.90625 28.71875 34.90625 
L 20.21875 34.90625 
L 20.21875 43.015625 
L 29.109375 43.015625 
Q 36.375 43.015625 40.234375 45.921875 
Q 44.09375 48.828125 44.09375 54.296875 
Q 44.09375 59.90625 40.109375 62.90625 
Q 36.140625 65.921875 28.71875 65.921875 
Q 24.65625 65.921875 20.015625 65.03125 
Q 15.375 64.15625 9.8125 62.3125 
L 9.8125 71.09375 
Q 15.4375 72.65625 20.34375 73.4375 
Q 25.25 74.21875 29.59375 74.21875 
Q 40.828125 74.21875 47.359375 69.109375 
Q 53.90625 64.015625 53.90625 55.328125 
Q 53.90625 49.265625 50.4375 45.09375 
Q 46.96875 40.921875 40.578125 39.3125 
z
" id="DejaVuSans-51"/>
      </defs>
      <g transform="translate(37.875 196.354214)scale(0.1 -0.1)">
       <use xlink:href="#DejaVuSans-51"/>
       <use x="63.623047" xlink:href="#DejaVuSans-48"/>
      </g>
     </g>
    </g>
    <g id="ytick_5">
     <g id="line2d_10">
      <g>
       <use style="stroke:#000000;stroke-width:0.8;" x="57.6" xlink:href="#mf98be64e0b" y="158.243994"/>
      </g>
     </g>
     <g id="text_10">
      <!-- 40 -->
      <g transform="translate(37.875 162.043212)scale(0.1 -0.1)">
       <use xlink:href="#DejaVuSans-52"/>
       <use x="63.623047" xlink:href="#DejaVuSans-48"/>
      </g>
     </g>
    </g>
    <g id="ytick_6">
     <g id="line2d_11">
      <g>
       <use style="stroke:#000000;stroke-width:0.8;" x="57.6" xlink:href="#mf98be64e0b" y="123.932992"/>
      </g>
     </g>
     <g id="text_11">
      <!-- 50 -->
      <defs>
       <path d="M 10.796875 72.90625 
L 49.515625 72.90625 
L 49.515625 64.59375 
L 19.828125 64.59375 
L 19.828125 46.734375 
Q 21.96875 47.46875 24.109375 47.828125 
Q 26.265625 48.1875 28.421875 48.1875 
Q 40.625 48.1875 47.75 41.5 
Q 54.890625 34.8125 54.890625 23.390625 
Q 54.890625 11.625 47.5625 5.09375 
Q 40.234375 -1.421875 26.90625 -1.421875 
Q 22.3125 -1.421875 17.546875 -0.640625 
Q 12.796875 0.140625 7.71875 1.703125 
L 7.71875 11.625 
Q 12.109375 9.234375 16.796875 8.0625 
Q 21.484375 6.890625 26.703125 6.890625 
Q 35.15625 6.890625 40.078125 11.328125 
Q 45.015625 15.765625 45.015625 23.390625 
Q 45.015625 31 40.078125 35.4375 
Q 35.15625 39.890625 26.703125 39.890625 
Q 22.75 39.890625 18.8125 39.015625 
Q 14.890625 38.140625 10.796875 36.28125 
z
" id="DejaVuSans-53"/>
      </defs>
      <g transform="translate(37.875 127.732211)scale(0.1 -0.1)">
       <use xlink:href="#DejaVuSans-53"/>
       <use x="63.623047" xlink:href="#DejaVuSans-48"/>
      </g>
     </g>
    </g>
    <g id="ytick_7">
     <g id="line2d_12">
      <g>
       <use style="stroke:#000000;stroke-width:0.8;" x="57.6" xlink:href="#mf98be64e0b" y="89.62199"/>
      </g>
     </g>
     <g id="text_12">
      <!-- 60 -->
      <defs>
       <path d="M 33.015625 40.375 
Q 26.375 40.375 22.484375 35.828125 
Q 18.609375 31.296875 18.609375 23.390625 
Q 18.609375 15.53125 22.484375 10.953125 
Q 26.375 6.390625 33.015625 6.390625 
Q 39.65625 6.390625 43.53125 10.953125 
Q 47.40625 15.53125 47.40625 23.390625 
Q 47.40625 31.296875 43.53125 35.828125 
Q 39.65625 40.375 33.015625 40.375 
z
M 52.59375 71.296875 
L 52.59375 62.3125 
Q 48.875 64.0625 45.09375 64.984375 
Q 41.3125 65.921875 37.59375 65.921875 
Q 27.828125 65.921875 22.671875 59.328125 
Q 17.53125 52.734375 16.796875 39.40625 
Q 19.671875 43.65625 24.015625 45.921875 
Q 28.375 48.1875 33.59375 48.1875 
Q 44.578125 48.1875 50.953125 41.515625 
Q 57.328125 34.859375 57.328125 23.390625 
Q 57.328125 12.15625 50.6875 5.359375 
Q 44.046875 -1.421875 33.015625 -1.421875 
Q 20.359375 -1.421875 13.671875 8.265625 
Q 6.984375 17.96875 6.984375 36.375 
Q 6.984375 53.65625 15.1875 63.9375 
Q 23.390625 74.21875 37.203125 74.21875 
Q 40.921875 74.21875 44.703125 73.484375 
Q 48.484375 72.75 52.59375 71.296875 
z
" id="DejaVuSans-54"/>
      </defs>
      <g transform="translate(37.875 93.421209)scale(0.1 -0.1)">
       <use xlink:href="#DejaVuSans-54"/>
       <use x="63.623047" xlink:href="#DejaVuSans-48"/>
      </g>
     </g>
    </g>
    <g id="ytick_8">
     <g id="line2d_13">
      <g>
       <use style="stroke:#000000;stroke-width:0.8;" x="57.6" xlink:href="#mf98be64e0b" y="55.310989"/>
      </g>
     </g>
     <g id="text_13">
      <!-- 70 -->
      <defs>
       <path d="M 8.203125 72.90625 
L 55.078125 72.90625 
L 55.078125 68.703125 
L 28.609375 0 
L 18.3125 0 
L 43.21875 64.59375 
L 8.203125 64.59375 
z
" id="DejaVuSans-55"/>
      </defs>
      <g transform="translate(37.875 59.110208)scale(0.1 -0.1)">
       <use xlink:href="#DejaVuSans-55"/>
       <use x="63.623047" xlink:href="#DejaVuSans-48"/>
      </g>
     </g>
    </g>
   </g>
   <g id="line2d_14">
    <path clip-path="url(#p76ec9fe709)" d="M 243.965702 295.488 
L 243.804774 292.541734 
L 243.644059 289.599288 
L 243.483142 286.65304 
L 243.32242 283.71024 
L 243.161515 280.763998 
L 243.00081 277.821308 
L 242.839897 274.874713 
L 242.679195 271.931858 
L 242.518338 268.986056 
L 242.357433 266.039256 
L 242.196808 263.097468 
L 242.035945 260.151233 
L 241.875103 257.205256 
L 241.714197 254.261921 
L 241.557486 251.330937 
L 241.392981 248.373981 
L 241.223392 245.393041 
L 241.033264 242.37604 
L 240.85271 239.322943 
L 240.668702 236.236463 
L 240.494839 233.133993 
L 240.307271 230.008501 
L 240.127499 226.875528 
L 239.945002 223.731062 
L 239.765078 220.551324 
L 239.571125 217.347019 
L 239.385729 214.13822 
L 239.211066 210.905368 
L 239.036471 207.662326 
L 238.863505 204.410432 
L 238.688584 201.145534 
L 238.522087 197.857202 
L 238.36147 194.53497 
L 238.198122 191.188069 
L 238.033697 187.828129 
L 237.896168 184.467401 
L 237.735394 181.10777 
L 237.54727 177.73191 
L 237.344434 174.263891 
L 237.124953 170.638796 
L 236.893821 167.067055 
L 236.667914 163.488383 
L 236.448275 159.947007 
L 236.224746 156.396161 
L 235.971445 152.887655 
L 235.731995 149.381344 
L 235.507306 145.915967 
L 235.264827 142.468123 
L 235.044787 139.033866 
L 234.832522 135.605476 
L 234.602525 132.192492 
L 234.355898 128.810078 
L 234.113861 125.456383 
L 233.885353 122.087969 
L 233.663951 118.72302 
L 233.446484 115.372345 
L 233.225724 112.04428 
L 233.015278 108.739925 
L 232.818706 105.433236 
L 232.605597 102.144148 
L 232.3977 98.843018 
L 232.166169 95.544049 
L 231.918036 92.2797 
L 231.685133 89.051275 
L 231.470377 85.877781 
L 231.259021 82.738084 
L 231.009748 79.614204 
L 230.776759 76.531669 
L 230.541173 73.50314 
L 230.316004 70.521994 
L 230.081327 67.588712 
L 229.84864 64.696569 
L 229.623724 61.853113 
L 229.401176 59.05107 
L 229.167295 56.291436 
L 228.930844 53.568 
" style="fill:none;stroke:#008000;stroke-linecap:square;stroke-width:1.5;"/>
   </g>
   <g id="line2d_15">
    <path clip-path="url(#p76ec9fe709)" d="M 243.965702 295.488 
L 243.94601 293.192454 
L 243.902011 290.726681 
L 243.850658 288.255009 
L 243.801301 285.759951 
L 243.723734 283.281481 
L 243.635547 280.771496 
L 243.51496 278.11536 
L 243.402491 275.472096 
L 243.293747 272.756583 
L 243.141825 269.942513 
L 242.997614 267.195929 
L 242.865015 264.548717 
L 242.745622 261.81221 
L 242.601649 258.944806 
L 242.444414 256.111699 
L 242.273852 253.289047 
L 242.09213 250.352106 
L 241.894493 247.362872 
L 241.699135 244.326489 
L 241.518796 241.334481 
L 241.32635 238.343325 
L 241.124527 235.353965 
L 240.91218 232.219449 
L 240.71616 229.193931 
L 240.503959 226.089629 
L 240.295487 222.967522 
L 240.062402 219.759258 
L 239.858058 216.617837 
L 239.658806 213.386021 
L 239.440937 210.186074 
L 239.224275 206.844026 
L 239.033417 203.602628 
L 238.841149 200.263219 
L 238.660886 197.024183 
L 238.48044 193.678651 
L 238.326031 190.489968 
L 238.124213 187.124378 
L 237.904505 183.876474 
L 237.676041 180.48884 
L 237.48397 177.239537 
L 237.258681 173.881134 
L 237.002978 170.385199 
L 236.77271 167.063522 
L 236.546511 163.756809 
L 236.264566 160.283845 
L 236.027228 157.024668 
L 235.814236 153.780858 
L 235.564547 150.512329 
L 235.335954 147.252083 
L 235.100183 143.87307 
L 234.832485 140.50486 
L 234.571155 137.188224 
L 234.318267 133.888548 
L 234.078809 130.618331 
L 233.805499 127.357089 
L 233.593434 124.13607 
L 233.344529 120.87503 
L 233.118794 117.650317 
L 232.893476 114.439334 
L 232.647123 111.231622 
L 232.413449 107.995734 
L 232.186559 104.782068 
L 231.927593 101.618775 
L 231.660256 98.425361 
L 231.397866 95.289902 
L 231.127414 92.196125 
L 230.838591 89.083035 
L 230.547802 86.009486 
L 230.260595 82.977855 
L 230.011001 80.073529 
L 229.745694 77.212935 
L 229.460758 74.266054 
L 229.229068 71.508321 
L 228.95015 68.632421 
L 228.679883 65.865112 
L 228.409357 63.279877 
" style="fill:none;stroke:#0000ff;stroke-linecap:square;stroke-width:1.5;"/>
   </g>
   <g id="line2d_16">
    <path clip-path="url(#p76ec9fe709)" d="M 243.965702 295.488 
L 243.946081 293.192452 
L 243.902216 290.726658 
L 243.850604 288.254998 
L 243.801015 285.759942 
L 243.723169 283.281474 
L 243.634666 280.771494 
L 243.513845 278.115361 
L 243.40116 275.472098 
L 243.292151 272.756589 
L 243.161595 269.941333 
L 243.016538 267.19479 
L 242.882756 264.547619 
L 242.762229 261.811157 
L 242.61691 258.943817 
L 242.458131 256.110791 
L 242.29394 253.287722 
L 242.110503 250.350884 
L 241.911256 247.361754 
L 241.714414 244.325464 
L 241.532974 241.333537 
L 241.339189 238.342445 
L 241.135509 235.353201 
L 240.9212 232.218807 
L 240.723587 229.193388 
L 240.50993 226.089186 
L 240.299876 222.967184 
L 240.065252 219.759033 
L 239.85938 216.617713 
L 239.65874 213.38597 
L 239.440661 210.186025 
L 239.222511 206.844078 
L 239.030047 203.602778 
L 238.836237 200.263476 
L 238.654664 197.024517 
L 238.472666 193.679074 
L 238.316069 190.490513 
L 238.114037 187.12492 
L 237.89416 183.876994 
L 237.664562 180.489418 
L 237.465031 177.240528 
L 237.230936 173.882758 
L 236.975311 170.386818 
L 236.745294 167.065126 
L 236.511042 163.758994 
L 236.236388 160.285444 
L 235.999391 157.026231 
L 235.786392 153.782424 
L 235.536805 150.513893 
L 235.308292 147.253649 
L 235.072789 143.874622 
L 234.819007 140.505306 
L 234.557277 137.188713 
L 234.304591 133.888995 
L 234.064182 130.618856 
L 233.78984 127.357744 
L 233.578079 124.13665 
L 233.328292 120.875687 
L 233.101237 117.651074 
L 232.874174 114.44022 
L 232.626036 111.232652 
L 232.391269 107.996821 
L 232.161875 104.783335 
L 231.902986 101.620012 
L 231.633426 98.426778 
L 231.369138 95.291479 
L 231.097778 92.197766 
L 230.806905 89.084873 
L 230.515857 86.011347 
L 230.231274 82.979497 
L 229.979892 80.075329 
L 229.711944 77.214971 
L 229.42649 74.268149 
L 229.17975 71.511697 
L 228.898196 68.636072 
L 228.626302 65.868928 
L 228.354298 63.283849 
" style="fill:none;stroke:#ff0000;stroke-linecap:square;stroke-width:1.5;"/>
   </g>
   <g id="patch_3">
    <path d="M 57.6 307.584 
L 57.6 41.472 
" style="fill:none;stroke:#000000;stroke-linecap:square;stroke-linejoin:miter;stroke-width:0.8;"/>
   </g>
   <g id="patch_4">
    <path d="M 414.72 307.584 
L 414.72 41.472 
" style="fill:none;stroke:#000000;stroke-linecap:square;stroke-linejoin:miter;stroke-width:0.8;"/>
   </g>
   <g id="patch_5">
    <path d="M 57.6 307.584 
L 414.72 307.584 
" style="fill:none;stroke:#000000;stroke-linecap:square;stroke-linejoin:miter;stroke-width:0.8;"/>
   </g>
   <g id="patch_6">
    <path d="M 57.6 41.472 
L 414.72 41.472 
" style="fill:none;stroke:#000000;stroke-linecap:square;stroke-linejoin:miter;stroke-width:0.8;"/>
   </g>
  </g>
 </g>
 <defs>
  <clipPath id="p76ec9fe709">
   <rect height="266.112" width="357.12" x="57.6" y="41.472"/>
  </clipPath>
 </defs>
</svg>
