<?xml version="1.0" encoding="utf-8" standalone="no"?>
<!DOCTYPE svg PUBLIC "-//W3C//DTD SVG 1.1//EN"
  "http://www.w3.org/Graphics/SVG/1.1/DTD/svg11.dtd">
<!-- Created with matplotlib (https://matplotlib.org/) -->
<svg height="345.6pt" version="1.1" viewBox="0 0 460.8 345.6" width="460.8pt" xmlns="http://www.w3.org/2000/svg" xmlns:xlink="http://www.w3.org/1999/xlink">
 <defs>
  <style type="text/css">
*{stroke-linecap:butt;stroke-linejoin:round;}
  </style>
 </defs>
 <g id="figure_1">
  <g id="patch_1">
   <path d="M 0 345.6 
L 460.8 345.6 
L 460.8 0 
L 0 0 
z
" style="fill:#ffffff;"/>
  </g>
  <g id="axes_1">
   <g id="patch_2">
    <path d="M 57.6 307.584 
L 414.72 307.584 
L 414.72 41.472 
L 57.6 41.472 
z
" style="fill:#ffffff;"/>
   </g>
   <g id="matplotlib.axis_1">
    <g id="xtick_1">
     <g id="line2d_1">
      <defs>
       <path d="M 0 0 
L 0 3.5 
" id="mba3973957a" style="stroke:#000000;stroke-width:0.8;"/>
      </defs>
      <g>
       <use style="stroke:#000000;stroke-width:0.8;" x="69.705038" xlink:href="#mba3973957a" y="307.584"/>
      </g>
     </g>
     <g id="text_1">
      <!-- −400 -->
      <defs>
       <path d="M 10.59375 35.5 
L 73.1875 35.5 
L 73.1875 27.203125 
L 10.59375 27.203125 
z
" id="DejaVuSans-8722"/>
       <path d="M 37.796875 64.3125 
L 12.890625 25.390625 
L 37.796875 25.390625 
z
M 35.203125 72.90625 
L 47.609375 72.90625 
L 47.609375 25.390625 
L 58.015625 25.390625 
L 58.015625 17.1875 
L 47.609375 17.1875 
L 47.609375 0 
L 37.796875 0 
L 37.796875 17.1875 
L 4.890625 17.1875 
L 4.890625 26.703125 
z
" id="DejaVuSans-52"/>
       <path d="M 31.78125 66.40625 
Q 24.171875 66.40625 20.328125 58.90625 
Q 16.5 51.421875 16.5 36.375 
Q 16.5 21.390625 20.328125 13.890625 
Q 24.171875 6.390625 31.78125 6.390625 
Q 39.453125 6.390625 43.28125 13.890625 
Q 47.125 21.390625 47.125 36.375 
Q 47.125 51.421875 43.28125 58.90625 
Q 39.453125 66.40625 31.78125 66.40625 
z
M 31.78125 74.21875 
Q 44.046875 74.21875 50.515625 64.515625 
Q 56.984375 54.828125 56.984375 36.375 
Q 56.984375 17.96875 50.515625 8.265625 
Q 44.046875 -1.421875 31.78125 -1.421875 
Q 19.53125 -1.421875 13.0625 8.265625 
Q 6.59375 17.96875 6.59375 36.375 
Q 6.59375 54.828125 13.0625 64.515625 
Q 19.53125 74.21875 31.78125 74.21875 
z
" id="DejaVuSans-48"/>
      </defs>
      <g transform="translate(55.971445 322.182437)scale(0.1 -0.1)">
       <use xlink:href="#DejaVuSans-8722"/>
       <use x="83.789062" xlink:href="#DejaVuSans-52"/>
       <use x="147.412109" xlink:href="#DejaVuSans-48"/>
       <use x="211.035156" xlink:href="#DejaVuSans-48"/>
      </g>
     </g>
    </g>
    <g id="xtick_2">
     <g id="line2d_2">
      <g>
       <use style="stroke:#000000;stroke-width:0.8;" x="109.804993" xlink:href="#mba3973957a" y="307.584"/>
      </g>
     </g>
     <g id="text_2">
      <!-- −300 -->
      <defs>
       <path d="M 40.578125 39.3125 
Q 47.65625 37.796875 51.625 33 
Q 55.609375 28.21875 55.609375 21.1875 
Q 55.609375 10.40625 48.1875 4.484375 
Q 40.765625 -1.421875 27.09375 -1.421875 
Q 22.515625 -1.421875 17.65625 -0.515625 
Q 12.796875 0.390625 7.625 2.203125 
L 7.625 11.71875 
Q 11.71875 9.328125 16.59375 8.109375 
Q 21.484375 6.890625 26.8125 6.890625 
Q 36.078125 6.890625 40.9375 10.546875 
Q 45.796875 14.203125 45.796875 21.1875 
Q 45.796875 27.640625 41.28125 31.265625 
Q 36.765625 34.90625 28.71875 34.90625 
L 20.21875 34.90625 
L 20.21875 43.015625 
L 29.109375 43.015625 
Q 36.375 43.015625 40.234375 45.921875 
Q 44.09375 48.828125 44.09375 54.296875 
Q 44.09375 59.90625 40.109375 62.90625 
Q 36.140625 65.921875 28.71875 65.921875 
Q 24.65625 65.921875 20.015625 65.03125 
Q 15.375 64.15625 9.8125 62.3125 
L 9.8125 71.09375 
Q 15.4375 72.65625 20.34375 73.4375 
Q 25.25 74.21875 29.59375 74.21875 
Q 40.828125 74.21875 47.359375 69.109375 
Q 53.90625 64.015625 53.90625 55.328125 
Q 53.90625 49.265625 50.4375 45.09375 
Q 46.96875 40.921875 40.578125 39.3125 
z
" id="DejaVuSans-51"/>
      </defs>
      <g transform="translate(96.0714 322.182437)scale(0.1 -0.1)">
       <use xlink:href="#DejaVuSans-8722"/>
       <use x="83.789062" xlink:href="#DejaVuSans-51"/>
       <use x="147.412109" xlink:href="#DejaVuSans-48"/>
       <use x="211.035156" xlink:href="#DejaVuSans-48"/>
      </g>
     </g>
    </g>
    <g id="xtick_3">
     <g id="line2d_3">
      <g>
       <use style="stroke:#000000;stroke-width:0.8;" x="149.904948" xlink:href="#mba3973957a" y="307.584"/>
      </g>
     </g>
     <g id="text_3">
      <!-- −200 -->
      <defs>
       <path d="M 19.1875 8.296875 
L 53.609375 8.296875 
L 53.609375 0 
L 7.328125 0 
L 7.328125 8.296875 
Q 12.9375 14.109375 22.625 23.890625 
Q 32.328125 33.6875 34.8125 36.53125 
Q 39.546875 41.84375 41.421875 45.53125 
Q 43.3125 49.21875 43.3125 52.78125 
Q 43.3125 58.59375 39.234375 62.25 
Q 35.15625 65.921875 28.609375 65.921875 
Q 23.96875 65.921875 18.8125 64.3125 
Q 13.671875 62.703125 7.8125 59.421875 
L 7.8125 69.390625 
Q 13.765625 71.78125 18.9375 73 
Q 24.125 74.21875 28.421875 74.21875 
Q 39.75 74.21875 46.484375 68.546875 
Q 53.21875 62.890625 53.21875 53.421875 
Q 53.21875 48.921875 51.53125 44.890625 
Q 49.859375 40.875 45.40625 35.40625 
Q 44.1875 33.984375 37.640625 27.21875 
Q 31.109375 20.453125 19.1875 8.296875 
z
" id="DejaVuSans-50"/>
      </defs>
      <g transform="translate(136.171355 322.182437)scale(0.1 -0.1)">
       <use xlink:href="#DejaVuSans-8722"/>
       <use x="83.789062" xlink:href="#DejaVuSans-50"/>
       <use x="147.412109" xlink:href="#DejaVuSans-48"/>
       <use x="211.035156" xlink:href="#DejaVuSans-48"/>
      </g>
     </g>
    </g>
    <g id="xtick_4">
     <g id="line2d_4">
      <g>
       <use style="stroke:#000000;stroke-width:0.8;" x="190.004903" xlink:href="#mba3973957a" y="307.584"/>
      </g>
     </g>
     <g id="text_4">
      <!-- −100 -->
      <defs>
       <path d="M 12.40625 8.296875 
L 28.515625 8.296875 
L 28.515625 63.921875 
L 10.984375 60.40625 
L 10.984375 69.390625 
L 28.421875 72.90625 
L 38.28125 72.90625 
L 38.28125 8.296875 
L 54.390625 8.296875 
L 54.390625 0 
L 12.40625 0 
z
" id="DejaVuSans-49"/>
      </defs>
      <g transform="translate(176.271309 322.182437)scale(0.1 -0.1)">
       <use xlink:href="#DejaVuSans-8722"/>
       <use x="83.789062" xlink:href="#DejaVuSans-49"/>
       <use x="147.412109" xlink:href="#DejaVuSans-48"/>
       <use x="211.035156" xlink:href="#DejaVuSans-48"/>
      </g>
     </g>
    </g>
    <g id="xtick_5">
     <g id="line2d_5">
      <g>
       <use style="stroke:#000000;stroke-width:0.8;" x="230.104858" xlink:href="#mba3973957a" y="307.584"/>
      </g>
     </g>
     <g id="text_5">
      <!-- 0 -->
      <g transform="translate(226.923608 322.182437)scale(0.1 -0.1)">
       <use xlink:href="#DejaVuSans-48"/>
      </g>
     </g>
    </g>
    <g id="xtick_6">
     <g id="line2d_6">
      <g>
       <use style="stroke:#000000;stroke-width:0.8;" x="270.204813" xlink:href="#mba3973957a" y="307.584"/>
      </g>
     </g>
     <g id="text_6">
      <!-- 100 -->
      <g transform="translate(260.661063 322.182437)scale(0.1 -0.1)">
       <use xlink:href="#DejaVuSans-49"/>
       <use x="63.623047" xlink:href="#DejaVuSans-48"/>
       <use x="127.246094" xlink:href="#DejaVuSans-48"/>
      </g>
     </g>
    </g>
    <g id="xtick_7">
     <g id="line2d_7">
      <g>
       <use style="stroke:#000000;stroke-width:0.8;" x="310.304768" xlink:href="#mba3973957a" y="307.584"/>
      </g>
     </g>
     <g id="text_7">
      <!-- 200 -->
      <g transform="translate(300.761018 322.182437)scale(0.1 -0.1)">
       <use xlink:href="#DejaVuSans-50"/>
       <use x="63.623047" xlink:href="#DejaVuSans-48"/>
       <use x="127.246094" xlink:href="#DejaVuSans-48"/>
      </g>
     </g>
    </g>
    <g id="xtick_8">
     <g id="line2d_8">
      <g>
       <use style="stroke:#000000;stroke-width:0.8;" x="350.404723" xlink:href="#mba3973957a" y="307.584"/>
      </g>
     </g>
     <g id="text_8">
      <!-- 300 -->
      <g transform="translate(340.860973 322.182437)scale(0.1 -0.1)">
       <use xlink:href="#DejaVuSans-51"/>
       <use x="63.623047" xlink:href="#DejaVuSans-48"/>
       <use x="127.246094" xlink:href="#DejaVuSans-48"/>
      </g>
     </g>
    </g>
    <g id="xtick_9">
     <g id="line2d_9">
      <g>
       <use style="stroke:#000000;stroke-width:0.8;" x="390.504678" xlink:href="#mba3973957a" y="307.584"/>
      </g>
     </g>
     <g id="text_9">
      <!-- 400 -->
      <g transform="translate(380.960928 322.182437)scale(0.1 -0.1)">
       <use xlink:href="#DejaVuSans-52"/>
       <use x="63.623047" xlink:href="#DejaVuSans-48"/>
       <use x="127.246094" xlink:href="#DejaVuSans-48"/>
      </g>
     </g>
    </g>
   </g>
   <g id="matplotlib.axis_2">
    <g id="ytick_1">
     <g id="line2d_10">
      <defs>
       <path d="M 0 0 
L -3.5 0 
" id="m5cbd9d8d61" style="stroke:#000000;stroke-width:0.8;"/>
      </defs>
      <g>
       <use style="stroke:#000000;stroke-width:0.8;" x="57.6" xlink:href="#m5cbd9d8d61" y="296.80415"/>
      </g>
     </g>
     <g id="text_10">
      <!-- −100 -->
      <g transform="translate(23.132812 300.603368)scale(0.1 -0.1)">
       <use xlink:href="#DejaVuSans-8722"/>
       <use x="83.789062" xlink:href="#DejaVuSans-49"/>
       <use x="147.412109" xlink:href="#DejaVuSans-48"/>
       <use x="211.035156" xlink:href="#DejaVuSans-48"/>
      </g>
     </g>
    </g>
    <g id="ytick_2">
     <g id="line2d_11">
      <g>
       <use style="stroke:#000000;stroke-width:0.8;" x="57.6" xlink:href="#m5cbd9d8d61" y="256.704195"/>
      </g>
     </g>
     <g id="text_11">
      <!-- 0 -->
      <g transform="translate(44.2375 260.503414)scale(0.1 -0.1)">
       <use xlink:href="#DejaVuSans-48"/>
      </g>
     </g>
    </g>
    <g id="ytick_3">
     <g id="line2d_12">
      <g>
       <use style="stroke:#000000;stroke-width:0.8;" x="57.6" xlink:href="#m5cbd9d8d61" y="216.60424"/>
      </g>
     </g>
     <g id="text_12">
      <!-- 100 -->
      <g transform="translate(31.5125 220.403459)scale(0.1 -0.1)">
       <use xlink:href="#DejaVuSans-49"/>
       <use x="63.623047" xlink:href="#DejaVuSans-48"/>
       <use x="127.246094" xlink:href="#DejaVuSans-48"/>
      </g>
     </g>
    </g>
    <g id="ytick_4">
     <g id="line2d_13">
      <g>
       <use style="stroke:#000000;stroke-width:0.8;" x="57.6" xlink:href="#m5cbd9d8d61" y="176.504285"/>
      </g>
     </g>
     <g id="text_13">
      <!-- 200 -->
      <g transform="translate(31.5125 180.303504)scale(0.1 -0.1)">
       <use xlink:href="#DejaVuSans-50"/>
       <use x="63.623047" xlink:href="#DejaVuSans-48"/>
       <use x="127.246094" xlink:href="#DejaVuSans-48"/>
      </g>
     </g>
    </g>
    <g id="ytick_5">
     <g id="line2d_14">
      <g>
       <use style="stroke:#000000;stroke-width:0.8;" x="57.6" xlink:href="#m5cbd9d8d61" y="136.40433"/>
      </g>
     </g>
     <g id="text_14">
      <!-- 300 -->
      <g transform="translate(31.5125 140.203549)scale(0.1 -0.1)">
       <use xlink:href="#DejaVuSans-51"/>
       <use x="63.623047" xlink:href="#DejaVuSans-48"/>
       <use x="127.246094" xlink:href="#DejaVuSans-48"/>
      </g>
     </g>
    </g>
    <g id="ytick_6">
     <g id="line2d_15">
      <g>
       <use style="stroke:#000000;stroke-width:0.8;" x="57.6" xlink:href="#m5cbd9d8d61" y="96.304375"/>
      </g>
     </g>
     <g id="text_15">
      <!-- 400 -->
      <g transform="translate(31.5125 100.103594)scale(0.1 -0.1)">
       <use xlink:href="#DejaVuSans-52"/>
       <use x="63.623047" xlink:href="#DejaVuSans-48"/>
       <use x="127.246094" xlink:href="#DejaVuSans-48"/>
      </g>
     </g>
    </g>
    <g id="ytick_7">
     <g id="line2d_16">
      <g>
       <use style="stroke:#000000;stroke-width:0.8;" x="57.6" xlink:href="#m5cbd9d8d61" y="56.20442"/>
      </g>
     </g>
     <g id="text_16">
      <!-- 500 -->
      <defs>
       <path d="M 10.796875 72.90625 
L 49.515625 72.90625 
L 49.515625 64.59375 
L 19.828125 64.59375 
L 19.828125 46.734375 
Q 21.96875 47.46875 24.109375 47.828125 
Q 26.265625 48.1875 28.421875 48.1875 
Q 40.625 48.1875 47.75 41.5 
Q 54.890625 34.8125 54.890625 23.390625 
Q 54.890625 11.625 47.5625 5.09375 
Q 40.234375 -1.421875 26.90625 -1.421875 
Q 22.3125 -1.421875 17.546875 -0.640625 
Q 12.796875 0.140625 7.71875 1.703125 
L 7.71875 11.625 
Q 12.109375 9.234375 16.796875 8.0625 
Q 21.484375 6.890625 26.703125 6.890625 
Q 35.15625 6.890625 40.078125 11.328125 
Q 45.015625 15.765625 45.015625 23.390625 
Q 45.015625 31 40.078125 35.4375 
Q 35.15625 39.890625 26.703125 39.890625 
Q 22.75 39.890625 18.8125 39.015625 
Q 14.890625 38.140625 10.796875 36.28125 
z
" id="DejaVuSans-53"/>
      </defs>
      <g transform="translate(31.5125 60.003639)scale(0.1 -0.1)">
       <use xlink:href="#DejaVuSans-53"/>
       <use x="63.623047" xlink:href="#DejaVuSans-48"/>
       <use x="127.246094" xlink:href="#DejaVuSans-48"/>
      </g>
     </g>
    </g>
   </g>
   <g id="line2d_17">
    <path clip-path="url(#pcf3fec39ef)" d="M 230.104858 256.704195 
L 230.033316 251.151674 
L 229.709949 250.621425 
L 229.22922 250.18478 
L 228.510732 249.76985 
L 227.744069 249.503097 
L 226.257755 249.352458 
L 223.065929 249.483336 
L 218.262311 249.733752 
L 214.704198 250.006949 
L 208.480629 250.732405 
L 205.31112 251.076258 
L 199.612548 251.344828 
L 177.44648 251.877864 
L 165.432693 252.221866 
L 156.079379 252.383938 
L 128.341679 252.742112 
L 115.377484 253.237061 
L 81.421684 254.144229 
L 80.080661 253.92609 
L 78.970213 253.486136 
L 78.222229 252.967373 
L 77.434666 252.115493 
L 76.933537 251.275395 
L 76.433169 250.026947 
L 76.023067 248.240145 
L 75.780302 246.170265 
L 75.165369 236.852415 
L 75.134492 230.773118 
L 75.353197 229.577257 
L 75.741405 228.505558 
L 76.649749 226.890977 
L 77.637251 225.831961 
L 78.205587 225.429815 
L 79.58274 224.871816 
L 81.20354 224.576287 
L 83.97156 224.364544 
L 87.416066 224.368273 
L 93.502597 224.441475 
L 106.578431 223.920264 
L 117.980813 223.379111 
L 128.714247 223.271327 
L 134.139771 222.813834 
L 136.606921 222.821858 
L 143.89986 223.06411 
L 144.784826 222.678589 
L 145.399919 222.21837 
L 145.848878 221.740651 
L 146.422067 220.700005 
L 146.842595 219.283703 
L 147.005401 217.847423 
L 147.003356 215.508549 
L 146.898735 210.928693 
L 146.915497 201.173697 
L 146.68027 199.902849 
L 146.283241 198.95252 
L 145.690684 198.108938 
L 144.883391 197.373384 
L 143.829043 196.811744 
L 142.540912 196.480879 
L 140.466461 196.317312 
L 129.732626 196.039058 
L 125.859451 196.279056 
L 118.728877 196.799113 
L 99.190936 197.340502 
L 86.61924 197.74495 
L 80.527375 197.934383 
L 78.925381 197.822744 
L 77.640178 197.550265 
L 76.603514 197.078128 
L 75.745656 196.373732 
L 74.9852 195.34581 
L 74.595829 194.44693 
L 74.283772 193.087942 
L 74.115111 191.192939 
L 73.942641 183.544634 
L 73.860517 176.552004 
L 74.06266 175.231192 
L 74.421796 174.241886 
L 75.140066 173.178435 
L 76.143367 172.31781 
L 77.661912 171.58779 
L 78.826455 171.252153 
L 81.150167 170.880186 
L 84.943823 170.550564 
L 89.047051 170.359608 
L 94.856933 170.353513 
L 104.233265 170.60891 
L 113.596564 170.076142 
L 119.529273 169.877888 
L 132.566329 169.59013 
L 139.463481 169.386864 
L 141.457371 169.516266 
L 142.686716 169.819101 
L 143.50676 170.205143 
L 144.078786 170.659316 
L 144.589378 171.364032 
L 144.911622 172.145179 
L 145.149695 173.361651 
L 145.198697 174.886813 
L 145.214096 179.859208 
L 145.517011 188.715323 
L 146.134751 197.39163 
L 146.514537 200.696307 
L 146.524803 202.947438 
L 146.332523 211.880425 
L 146.774746 222.397861 
L 147.343323 227.616794 
L 147.254301 229.435981 
L 146.843758 234.204002 
L 146.880449 238.712676 
L 147.116277 248.153854 
L 147.380776 249.23962 
L 147.826487 250.087875 
L 148.538863 250.836601 
L 149.376712 251.379586 
L 150.785944 251.953192 
L 152.279547 252.37348 
L 153.479739 252.493804 
L 156.530584 252.424511 
L 160.950962 252.130193 
L 165.778957 251.602903 
L 169.091373 251.299848 
L 171.656688 251.310967 
L 176.52402 251.397006 
L 194.46225 251.241498 
L 216.867061 250.226476 
L 219.332073 250.136877 
L 223.673808 250.097539 
L 224.841511 249.98908 
L 225.580881 249.67179 
L 226.183775 249.217445 
L 226.803284 248.433062 
L 227.424479 247.302083 
L 227.867033 246.022866 
L 228.105656 244.762003 
L 228.198984 242.938799 
L 228.114233 240.035734 
L 227.424391 226.23019 
L 227.523029 224.536095 
L 227.807285 223.665657 
L 228.283257 222.918832 
L 228.868541 222.450003 
L 229.570296 222.171794 
L 231.613078 221.967456 
L 234.518909 221.812615 
L 237.903874 221.815141 
L 240.491565 221.579862 
L 245.635879 221.539165 
L 252.25155 221.363347 
L 257.694269 221.245814 
L 273.559054 220.983051 
L 274.020163 220.607876 
L 274.443138 219.92037 
L 274.710845 219.02649 
L 274.768108 217.931857 
L 274.652901 215.889498 
L 273.689339 197.94946 
L 273.857919 195.852914 
L 274.005166 194.848851 
L 274.104373 192.192991 
L 274.065436 180.790529 
L 274.013346 176.643071 
L 274.042299 173.04799 
L 274.092183 168.924311 
L 273.933507 164.495311 
L 273.226625 159.405584 
L 272.907309 149.626488 
L 272.815962 145.616693 
L 272.839861 143.685399 
L 273.071439 142.854729 
L 273.501029 142.112839 
L 274.263731 141.134922 
L 274.463188 140.554756 
L 274.411258 140.040995 
L 272.953745 136.637632 
L 272.695822 134.88394 
L 272.388376 130.593566 
L 272.198703 112.164469 
L 272.512686 111.405537 
L 273.079017 110.706354 
L 273.62951 110.255831 
L 275.004457 109.527937 
L 276.686209 109.032181 
L 278.155231 108.870257 
L 281.23615 108.835531 
L 287.814027 108.758018 
L 309.843418 107.989502 
L 319.937619 107.643038 
L 330.997909 107.317026 
L 340.467112 107.017238 
L 348.857226 106.762123 
L 363.903009 106.438035 
L 365.786584 106.000865 
L 367.590802 105.326464 
L 369.665453 104.268707 
L 374.307223 101.556627 
L 376.007662 100.862296 
L 377.783689 100.400505 
L 379.623796 100.170211 
L 382.310613 100.123575 
L 385.544233 100.349899 
L 392.499009 101.157432 
L 393.814247 101.49363 
L 394.900796 101.960073 
L 396.296876 103.074571 
L 397.165 104.582169 
L 397.485599 106.102358 
L 397.556977 107.685625 
L 397.66669 124.196621 
L 397.471323 126.584132 
L 397.057973 128.265643 
L 396.457356 129.88524 
L 395.676088 131.412808 
L 394.062065 133.982333 
L 392.284514 136.378185 
L 389.656764 139.946279 
L 387.516189 143.303527 
L 385.174431 147.334054 
L 381.335984 153.955318 
L 380.185636 155.869971 
L 376.073747 162.665951 
L 373.929201 166.275909 
L 371.827763 169.689538 
L 367.892474 175.8604 
L 355.27386 196.714141 
L 352.705057 200.658774 
L 349.136682 205.946354 
L 345.303527 212.121306 
L 339.22666 221.921354 
L 335.976158 227.106498 
L 331.522015 234.483382 
L 331.089377 235.823414 
L 330.796446 237.516763 
L 330.693831 239.785478 
L 330.64952 241.824477 
L 330.360801 243.160575 
L 329.947811 244.134619 
L 329.390382 244.956444 
L 328.681134 245.646436 
L 327.86125 246.153299 
L 326.993768 246.473898 
L 325.917685 246.605947 
L 325.191636 246.494045 
L 324.668411 246.272176 
L 323.966702 245.621971 
L 323.424551 244.424049 
L 323.1955 243.245074 
L 323.021145 241.076513 
L 322.16834 222.070557 
L 321.015105 193.007462 
L 320.717523 184.31339 
L 320.081338 168.079164 
L 319.807335 164.31458 
L 319.304361 157.160628 
L 318.953767 150.334172 
L 318.801547 143.787654 
L 318.852996 141.259272 
L 318.656025 140.282517 
L 318.193873 139.34879 
L 317.738538 138.784142 
L 317.127134 138.247925 
L 316.498006 137.847888 
L 315.026738 137.440312 
L 313.970746 137.380203 
L 302.184327 137.747679 
L 294.873944 137.94493 
L 284.029112 138.194352 
L 279.45479 138.484435 
L 274.633532 139.105864 
L 270.389914 139.603264 
L 266.909242 139.772405 
L 232.37909 140.532019 
L 229.928675 140.164783 
L 227.911539 139.666381 
L 226.9637 139.259327 
L 226.464294 138.85167 
L 225.566634 137.595339 
L 225.136851 136.450405 
L 224.819564 134.994175 
L 224.744023 134.435342 
L 224.744023 134.435342 
" style="fill:none;stroke:#008000;stroke-linecap:square;stroke-width:1.5;"/>
   </g>
   <g id="line2d_18">
    <path clip-path="url(#pcf3fec39ef)" d="M 230.104858 256.704195 
L 230.061025 251.21655 
L 229.809945 250.622824 
L 229.260555 249.9351 
L 228.502285 249.40541 
L 227.705097 249.0778 
L 226.520749 248.896101 
L 224.807228 248.937115 
L 212.2456 249.667758 
L 206.897128 250.050549 
L 201.878204 250.150846 
L 182.178093 250.270455 
L 173.267504 250.366666 
L 139.519421 250.10518 
L 130.851005 250.012789 
L 113.84004 250.113648 
L 85.590837 249.980005 
L 83.757318 249.825265 
L 82.539553 249.482963 
L 81.774019 249.051093 
L 81.093455 248.397789 
L 80.600564 247.658905 
L 80.084983 246.473052 
L 79.731724 245.133256 
L 79.434498 242.89219 
L 79.268331 238.202634 
L 79.265714 232.17827 
L 79.426429 227.268633 
L 79.7165 225.57522 
L 80.14496 224.400392 
L 80.745959 223.388816 
L 81.413117 222.685482 
L 82.185806 222.145877 
L 83.375436 221.627206 
L 84.677197 221.310679 
L 86.443853 221.135606 
L 89.434093 221.073829 
L 93.472351 221.260147 
L 97.0628 221.40531 
L 111.887116 221.338021 
L 117.34174 221.149346 
L 121.143502 221.116914 
L 126.905773 221.346036 
L 130.753749 221.475728 
L 133.706804 221.352246 
L 139.242624 221.077252 
L 141.682919 221.190122 
L 147.856107 221.623862 
L 148.582405 221.444745 
L 149.388579 221.004731 
L 149.95948 220.374461 
L 150.358007 219.594133 
L 150.731127 218.386777 
L 150.911613 217.039348 
L 150.958306 214.780515 
L 150.960348 211.007204 
L 151.161722 200.169645 
L 150.869366 198.879243 
L 150.3566 197.84856 
L 149.744169 197.0868 
L 149.091348 196.525061 
L 148.200155 196.035403 
L 147.149231 195.726556 
L 145.057585 195.500769 
L 136.298097 194.917621 
L 132.848778 194.930653 
L 121.485069 195.289611 
L 114.203822 195.25095 
L 105.830313 195.222127 
L 94.121234 195.181751 
L 86.587641 195.255716 
L 84.987253 195.114085 
L 83.836342 194.811581 
L 83.071603 194.381395 
L 82.410025 193.7397 
L 81.695758 192.630518 
L 81.382846 191.711511 
L 81.170936 190.375423 
L 81.096712 188.14661 
L 81.365929 173.793267 
L 81.697652 172.687645 
L 82.269896 171.648387 
L 82.989774 170.904486 
L 83.903747 170.310184 
L 85.203162 169.797969 
L 86.641983 169.487803 
L 89.462371 169.180154 
L 95.045239 168.873489 
L 99.229084 168.850351 
L 102.913178 169.01038 
L 110.14292 169.447465 
L 114.529917 169.347543 
L 123.606081 169.058386 
L 146.013733 169.025063 
L 147.988142 169.185129 
L 149.15903 169.537368 
L 149.853328 169.960289 
L 150.344833 170.491537 
L 150.627715 171.145898 
L 150.778883 172.075023 
L 150.778245 173.625724 
L 150.683975 177.695352 
L 150.755376 187.26084 
L 151.086154 193.472072 
L 151.385113 197.337558 
L 151.261911 200.030023 
L 150.924135 207.141988 
L 151.091619 215.747936 
L 151.321937 218.213119 
L 151.572074 220.873036 
L 151.529427 222.434506 
L 150.963727 228.655209 
L 150.789112 239.920187 
L 150.967522 241.199045 
L 151.292385 241.795584 
L 151.810728 242.331085 
L 152.783282 242.915166 
L 154.400083 243.527479 
L 155.736763 243.763206 
L 158.069884 243.820955 
L 163.221411 243.594255 
L 167.4535 243.243605 
L 171.84 242.900554 
L 174.749546 242.947945 
L 179.589614 243.131582 
L 199.140491 243.385796 
L 221.82635 243.172137 
L 225.332087 243.16781 
L 225.962104 242.879516 
L 226.55447 242.370134 
L 227.054357 241.50378 
L 227.526593 240.315529 
L 228.019697 238.16914 
L 228.136639 236.309246 
L 228.08303 231.616795 
L 228.02326 222.664501 
L 228.149951 218.310615 
L 228.478898 217.480242 
L 229.006094 216.855306 
L 229.72863 216.453248 
L 230.675196 216.311821 
L 236.426785 216.356154 
L 237.810025 216.287012 
L 240.112288 216.156958 
L 244.666944 216.193985 
L 253.156762 216.164364 
L 261.174473 216.190045 
L 267.857987 216.233445 
L 273.718113 216.159612 
L 274.485332 215.645664 
L 274.830351 215.171809 
L 275.177735 214.334118 
L 275.315719 213.445145 
L 275.427788 209.551788 
L 275.391667 204.3582 
L 275.290783 196.577327 
L 275.410498 190.22778 
L 275.540023 185.658453 
L 275.659812 176.103485 
L 275.627369 172.388602 
L 275.631519 168.159566 
L 275.686376 164.51518 
L 275.6674 160.818564 
L 275.543124 158.63225 
L 275.031666 154.282627 
L 274.986413 150.927038 
L 275.099424 137.455861 
L 275.466945 136.527391 
L 276.515228 134.734665 
L 276.431354 134.091925 
L 275.695846 132.692358 
L 275.34836 131.821895 
L 274.978524 129.937475 
L 274.720951 126.889196 
L 274.682635 123.501302 
L 274.773714 115.031595 
L 274.747763 106.967978 
L 274.933498 105.857943 
L 275.257174 105.278064 
L 275.879873 104.716236 
L 277.205123 104.016406 
L 278.315966 103.670022 
L 279.648797 103.465292 
L 281.626419 103.41514 
L 308.553246 103.4085 
L 318.380256 103.375086 
L 345.145887 103.297112 
L 353.068107 103.313695 
L 363.602357 103.335865 
L 365.725118 103.09995 
L 367.572064 102.633278 
L 369.358389 101.920593 
L 371.739897 100.672577 
L 374.787755 99.008298 
L 376.858609 98.158808 
L 378.2869 97.777781 
L 380.080528 97.505234 
L 382.323791 97.4524 
L 385.336537 97.669017 
L 390.344045 98.276668 
L 393.814283 98.833758 
L 395.130898 99.199361 
L 396.190801 99.698992 
L 397.138674 100.409725 
L 397.691818 101.104424 
L 398.176158 102.123015 
L 398.428697 103.256207 
L 398.484054 104.857489 
L 398.046657 121.926085 
L 397.703452 124.144776 
L 397.178551 125.791604 
L 396.523639 127.186052 
L 395.404978 129.031141 
L 393.905703 131.140753 
L 390.403806 135.858115 
L 386.609045 141.988924 
L 382.736749 148.48065 
L 378.238717 155.112314 
L 374.306446 161.058269 
L 370.725668 166.168012 
L 365.775954 173.369988 
L 362.349151 178.636949 
L 356.513613 187.608893 
L 349.882233 197.29884 
L 346.310472 202.530994 
L 342.247606 208.566745 
L 330.541427 225.934357 
L 329.926856 227.46617 
L 329.540294 229.139666 
L 329.35548 231.072928 
L 329.141529 233.932198 
L 328.827973 234.986016 
L 328.391065 235.804129 
L 327.820765 236.391325 
L 326.944297 236.955825 
L 325.906845 237.38131 
L 324.980093 237.51964 
L 324.352857 237.414355 
L 323.889766 237.180113 
L 323.398253 236.66544 
L 323.10025 235.898963 
L 322.913526 234.905659 
L 322.805935 232.831211 
L 322.843634 227.015424 
L 322.942795 219.37903 
L 323.009686 205.911801 
L 323.104957 186.922345 
L 323.127521 170.878832 
L 323.142673 166.932503 
L 323.360609 152.328007 
L 323.364188 145.643839 
L 323.592546 135.061709 
L 323.739678 133.329727 
L 323.626979 132.424718 
L 323.223895 131.477282 
L 322.686976 130.754285 
L 322.055357 130.219726 
L 321.110865 129.727755 
L 320.453211 129.568068 
L 318.802888 129.438897 
L 306.894526 129.131631 
L 285.722796 128.969732 
L 281.895965 129.260993 
L 275.970775 129.701409 
L 272.005638 129.678481 
L 257.141788 129.411712 
L 240.252846 129.042042 
L 238.287073 128.80447 
L 236.016854 128.225964 
L 234.926058 127.714919 
L 234.679879 127.41784 
L 234.270332 126.824647 
L 233.979534 125.942554 
L 233.698718 124.265196 
L 233.671951 123.979409 
L 233.671951 123.979409 
" style="fill:none;stroke:#0000ff;stroke-linecap:square;stroke-width:1.5;"/>
   </g>
   <g id="line2d_19">
    <path clip-path="url(#pcf3fec39ef)" d="M 230.104858 256.704195 
L 230.059833 251.216464 
L 229.807319 250.623348 
L 229.257497 249.936056 
L 228.494036 249.414726 
L 227.705092 249.070596 
L 226.775859 248.906803 
L 225.41892 248.909142 
L 213.098381 249.63074 
L 207.68366 250.094135 
L 201.881066 250.231606 
L 160.05051 250.576226 
L 150.88404 250.60544 
L 144.3767 250.580179 
L 131.83509 250.432313 
L 110.40924 250.70301 
L 84.593373 250.735401 
L 83.216984 250.520833 
L 82.232694 250.162569 
L 81.476109 249.629829 
L 80.83573 248.894956 
L 80.359794 248.033026 
L 79.895302 246.768258 
L 79.584366 245.353067 
L 79.365743 243.369472 
L 79.172762 238.217426 
L 79.160946 231.507838 
L 79.350104 227.480443 
L 79.628031 226.153826 
L 80.088587 225.01043 
L 80.73007 224.008551 
L 81.601433 223.194213 
L 81.797052 223.068434 
L 82.079366 222.650323 
L 83.548926 222.124568 
L 84.910053 221.876706 
L 87.393038 221.724404 
L 90.156293 221.748881 
L 100.272231 222.027974 
L 116.294042 221.854863 
L 120.445157 221.78456 
L 126.214827 222.000043 
L 130.42377 222.161419 
L 133.377261 222.037244 
L 139.265312 221.772068 
L 141.964422 221.933172 
L 147.529236 222.31329 
L 148.423216 222.067389 
L 149.137999 221.628098 
L 149.92175 220.788154 
L 150.38002 219.419385 
L 150.573776 218.104499 
L 150.599969 215.904192 
L 150.524633 210.60635 
L 150.565573 202.050366 
L 150.386896 200.509076 
L 150.057134 199.4353 
L 149.546094 198.520278 
L 148.849966 197.739967 
L 148.114835 197.212878 
L 146.877553 196.690421 
L 144.88999 196.40541 
L 136.756012 195.938058 
L 133.332323 195.934208 
L 129.228797 196.160942 
L 122.350791 196.508612 
L 90.116674 196.915869 
L 85.790968 196.983688 
L 84.188609 196.865239 
L 83.033371 196.579476 
L 82.260435 196.164672 
L 81.587161 195.535708 
L 80.862126 194.433931 
L 80.537778 193.518567 
L 80.308107 192.185167 
L 80.20318 189.95717 
L 80.241524 175.862731 
L 80.473969 174.806077 
L 80.942106 173.801668 
L 81.690177 172.840519 
L 82.764831 172.070793 
L 84.056251 171.538715 
L 85.490641 171.20829 
L 87.93432 170.896778 
L 93.04725 170.514589 
L 98.067734 170.401046 
L 101.753607 170.502318 
L 109.404334 170.832812 
L 113.373692 170.677002 
L 122.44591 170.282 
L 132.083512 170.212129 
L 141.37458 170.007859 
L 145.448502 169.994392 
L 146.961812 170.141207 
L 148.099552 170.494192 
L 148.782252 170.932104 
L 149.20121 171.390477 
L 149.493398 172.040473 
L 149.655374 172.968038 
L 149.671778 174.518817 
L 149.631238 178.590188 
L 149.81773 188.156242 
L 150.215488 194.36419 
L 150.557387 198.226837 
L 150.462658 200.921082 
L 150.202369 208.037317 
L 150.417401 215.337553 
L 150.713232 219.104571 
L 150.998398 221.761484 
L 150.946594 223.596068 
L 150.497919 228.442091 
L 150.451989 233.776962 
L 150.510284 241.617144 
L 150.729249 242.336508 
L 151.120208 242.890916 
L 151.682559 243.384151 
L 152.791163 243.970749 
L 154.299465 244.450215 
L 155.405319 244.605663 
L 157.73941 244.616354 
L 162.566194 244.309442 
L 166.081888 243.987921 
L 171.048661 243.452701 
L 173.583423 243.402088 
L 187.676144 243.514394 
L 206.054496 243.162994 
L 225.224041 242.429342 
L 226.025571 241.884303 
L 226.468851 241.225922 
L 226.942133 240.121829 
L 227.362363 238.429882 
L 227.548882 236.724962 
L 227.50192 233.901572 
L 226.983663 221.610877 
L 226.94937 217.724964 
L 227.155509 217.001402 
L 227.556508 216.338593 
L 228.063831 215.897855 
L 228.587231 215.660923 
L 229.579585 215.516622 
L 261.763261 214.328737 
L 272.214741 214.001327 
L 272.800914 213.679132 
L 273.358762 213.117232 
L 273.908248 211.303337 
L 273.891274 208.125821 
L 273.750177 203.869958 
L 273.062525 189.543088 
L 273.085084 184.415117 
L 272.922519 178.552388 
L 272.143181 157.366772 
L 271.859045 155.542854 
L 271.392408 152.655955 
L 271.196398 149.723895 
L 270.685054 135.343269 
L 270.963785 134.416282 
L 271.402336 133.727329 
L 271.925831 132.934437 
L 272.002677 132.516302 
L 271.910331 131.791481 
L 271.120352 130.422019 
L 270.738362 129.566145 
L 270.293841 127.697997 
L 269.915856 124.66232 
L 269.746366 121.27846 
L 269.497557 112.812471 
L 269.127553 104.362176 
L 269.263504 103.645637 
L 269.571326 103.057206 
L 270.178912 102.479186 
L 271.48418 101.742983 
L 272.846106 101.297449 
L 274.230818 101.092347 
L 276.939379 101.002354 
L 302.331431 100.293021 
L 326.571492 99.584152 
L 336.687223 99.28225 
L 342.158223 99.121559 
L 353.75106 98.898088 
L 357.429915 98.82144 
L 359.563887 98.564566 
L 361.402599 98.086272 
L 363.190524 97.367006 
L 365.211382 96.287367 
L 369.888732 93.640835 
L 371.626204 92.984652 
L 373.413427 92.569817 
L 375.225303 92.377327 
L 377.533393 92.375559 
L 381.031735 92.620545 
L 387.894907 93.401796 
L 389.503006 93.820017 
L 390.503423 94.307291 
L 391.269534 94.86732 
L 391.841946 95.546062 
L 392.358644 96.548373 
L 392.641432 97.674416 
L 392.738858 99.273773 
L 392.75365 116.349345 
L 392.465251 118.57607 
L 391.98878 120.237601 
L 391.371844 121.649403 
L 390.302719 123.523819 
L 388.861449 125.673725 
L 385.621493 130.264689 
L 382.294261 135.920805 
L 377.641879 144.149375 
L 366.184352 161.965247 
L 362.321986 167.902261 
L 357.077655 176.469795 
L 351.005238 186.233002 
L 346.610902 192.984638 
L 341.756639 200.574542 
L 335.178989 210.881773 
L 328.918387 220.616979 
L 328.087917 222.161537 
L 327.511793 223.708043 
L 327.172105 225.391711 
L 327.042504 227.329568 
L 326.909107 230.193777 
L 326.564475 231.462197 
L 326.048392 232.338318 
L 325.403767 232.917267 
L 324.295885 233.547197 
L 323.320233 233.838432 
L 322.544776 233.858704 
L 321.947403 233.678341 
L 321.450679 233.301478 
L 321.125804 232.796442 
L 320.843245 231.900356 
L 320.662405 230.463791 
L 320.525921 224.454593 
L 320.451822 213.386834 
L 320.375283 206.788358 
L 320.343624 203.939961 
L 320.148164 195.181062 
L 319.990571 184.099953 
L 319.827453 173.847942 
L 319.562183 160.56413 
L 319.339352 144.99 
L 319.135074 133.345769 
L 319.302254 131.057667 
L 319.335934 129.470366 
L 319.12723 128.6023 
L 318.711974 127.791755 
L 318.110752 127.09887 
L 317.414542 126.586606 
L 316.440197 126.159649 
L 315.153182 125.994872 
L 312.425634 125.974747 
L 291.845899 126.054568 
L 281.680536 126.223988 
L 277.822815 126.584807 
L 271.502044 127.203829 
L 267.537967 127.267731 
L 233.961573 127.138184 
L 232.084459 126.746997 
L 230.674844 126.246453 
L 230.234319 125.951452 
L 230.185976 125.83317 
L 229.660518 125.211087 
L 229.317675 124.428414 
L 228.862561 122.794839 
L 228.805629 122.514461 
L 228.805629 122.514461 
" style="fill:none;stroke:#ff0000;stroke-linecap:square;stroke-width:1.5;"/>
   </g>
   <g id="patch_3">
    <path d="M 57.6 307.584 
L 57.6 41.472 
" style="fill:none;stroke:#000000;stroke-linecap:square;stroke-linejoin:miter;stroke-width:0.8;"/>
   </g>
   <g id="patch_4">
    <path d="M 414.72 307.584 
L 414.72 41.472 
" style="fill:none;stroke:#000000;stroke-linecap:square;stroke-linejoin:miter;stroke-width:0.8;"/>
   </g>
   <g id="patch_5">
    <path d="M 57.6 307.584 
L 414.72 307.584 
" style="fill:none;stroke:#000000;stroke-linecap:square;stroke-linejoin:miter;stroke-width:0.8;"/>
   </g>
   <g id="patch_6">
    <path d="M 57.6 41.472 
L 414.72 41.472 
" style="fill:none;stroke:#000000;stroke-linecap:square;stroke-linejoin:miter;stroke-width:0.8;"/>
   </g>
  </g>
 </g>
 <defs>
  <clipPath id="pcf3fec39ef">
   <rect height="266.112" width="357.12" x="57.6" y="41.472"/>
  </clipPath>
 </defs>
</svg>
