<?xml version="1.0" encoding="utf-8" standalone="no"?>
<!DOCTYPE svg PUBLIC "-//W3C//DTD SVG 1.1//EN"
  "http://www.w3.org/Graphics/SVG/1.1/DTD/svg11.dtd">
<!-- Created with matplotlib (https://matplotlib.org/) -->
<svg height="345.6pt" version="1.1" viewBox="0 0 460.8 345.6" width="460.8pt" xmlns="http://www.w3.org/2000/svg" xmlns:xlink="http://www.w3.org/1999/xlink">
 <defs>
  <style type="text/css">
*{stroke-linecap:butt;stroke-linejoin:round;}
  </style>
 </defs>
 <g id="figure_1">
  <g id="patch_1">
   <path d="M 0 345.6 
L 460.8 345.6 
L 460.8 0 
L 0 0 
z
" style="fill:#ffffff;"/>
  </g>
  <g id="axes_1">
   <g id="patch_2">
    <path d="M 57.6 307.584 
L 414.72 307.584 
L 414.72 41.472 
L 57.6 41.472 
z
" style="fill:#ffffff;"/>
   </g>
   <g id="matplotlib.axis_1">
    <g id="xtick_1">
     <g id="line2d_1">
      <defs>
       <path d="M 0 0 
L 0 3.5 
" id="mf47ba21f46" style="stroke:#000000;stroke-width:0.8;"/>
      </defs>
      <g>
       <use style="stroke:#000000;stroke-width:0.8;" x="111.411973" xlink:href="#mf47ba21f46" y="307.584"/>
      </g>
     </g>
     <g id="text_1">
      <!-- −200 -->
      <defs>
       <path d="M 10.59375 35.5 
L 73.1875 35.5 
L 73.1875 27.203125 
L 10.59375 27.203125 
z
" id="DejaVuSans-8722"/>
       <path d="M 19.1875 8.296875 
L 53.609375 8.296875 
L 53.609375 0 
L 7.328125 0 
L 7.328125 8.296875 
Q 12.9375 14.109375 22.625 23.890625 
Q 32.328125 33.6875 34.8125 36.53125 
Q 39.546875 41.84375 41.421875 45.53125 
Q 43.3125 49.21875 43.3125 52.78125 
Q 43.3125 58.59375 39.234375 62.25 
Q 35.15625 65.921875 28.609375 65.921875 
Q 23.96875 65.921875 18.8125 64.3125 
Q 13.671875 62.703125 7.8125 59.421875 
L 7.8125 69.390625 
Q 13.765625 71.78125 18.9375 73 
Q 24.125 74.21875 28.421875 74.21875 
Q 39.75 74.21875 46.484375 68.546875 
Q 53.21875 62.890625 53.21875 53.421875 
Q 53.21875 48.921875 51.53125 44.890625 
Q 49.859375 40.875 45.40625 35.40625 
Q 44.1875 33.984375 37.640625 27.21875 
Q 31.109375 20.453125 19.1875 8.296875 
z
" id="DejaVuSans-50"/>
       <path d="M 31.78125 66.40625 
Q 24.171875 66.40625 20.328125 58.90625 
Q 16.5 51.421875 16.5 36.375 
Q 16.5 21.390625 20.328125 13.890625 
Q 24.171875 6.390625 31.78125 6.390625 
Q 39.453125 6.390625 43.28125 13.890625 
Q 47.125 21.390625 47.125 36.375 
Q 47.125 51.421875 43.28125 58.90625 
Q 39.453125 66.40625 31.78125 66.40625 
z
M 31.78125 74.21875 
Q 44.046875 74.21875 50.515625 64.515625 
Q 56.984375 54.828125 56.984375 36.375 
Q 56.984375 17.96875 50.515625 8.265625 
Q 44.046875 -1.421875 31.78125 -1.421875 
Q 19.53125 -1.421875 13.0625 8.265625 
Q 6.59375 17.96875 6.59375 36.375 
Q 6.59375 54.828125 13.0625 64.515625 
Q 19.53125 74.21875 31.78125 74.21875 
z
" id="DejaVuSans-48"/>
      </defs>
      <g transform="translate(97.678379 322.182437)scale(0.1 -0.1)">
       <use xlink:href="#DejaVuSans-8722"/>
       <use x="83.789062" xlink:href="#DejaVuSans-50"/>
       <use x="147.412109" xlink:href="#DejaVuSans-48"/>
       <use x="211.035156" xlink:href="#DejaVuSans-48"/>
      </g>
     </g>
    </g>
    <g id="xtick_2">
     <g id="line2d_2">
      <g>
       <use style="stroke:#000000;stroke-width:0.8;" x="169.191099" xlink:href="#mf47ba21f46" y="307.584"/>
      </g>
     </g>
     <g id="text_2">
      <!-- −150 -->
      <defs>
       <path d="M 12.40625 8.296875 
L 28.515625 8.296875 
L 28.515625 63.921875 
L 10.984375 60.40625 
L 10.984375 69.390625 
L 28.421875 72.90625 
L 38.28125 72.90625 
L 38.28125 8.296875 
L 54.390625 8.296875 
L 54.390625 0 
L 12.40625 0 
z
" id="DejaVuSans-49"/>
       <path d="M 10.796875 72.90625 
L 49.515625 72.90625 
L 49.515625 64.59375 
L 19.828125 64.59375 
L 19.828125 46.734375 
Q 21.96875 47.46875 24.109375 47.828125 
Q 26.265625 48.1875 28.421875 48.1875 
Q 40.625 48.1875 47.75 41.5 
Q 54.890625 34.8125 54.890625 23.390625 
Q 54.890625 11.625 47.5625 5.09375 
Q 40.234375 -1.421875 26.90625 -1.421875 
Q 22.3125 -1.421875 17.546875 -0.640625 
Q 12.796875 0.140625 7.71875 1.703125 
L 7.71875 11.625 
Q 12.109375 9.234375 16.796875 8.0625 
Q 21.484375 6.890625 26.703125 6.890625 
Q 35.15625 6.890625 40.078125 11.328125 
Q 45.015625 15.765625 45.015625 23.390625 
Q 45.015625 31 40.078125 35.4375 
Q 35.15625 39.890625 26.703125 39.890625 
Q 22.75 39.890625 18.8125 39.015625 
Q 14.890625 38.140625 10.796875 36.28125 
z
" id="DejaVuSans-53"/>
      </defs>
      <g transform="translate(155.457505 322.182437)scale(0.1 -0.1)">
       <use xlink:href="#DejaVuSans-8722"/>
       <use x="83.789062" xlink:href="#DejaVuSans-49"/>
       <use x="147.412109" xlink:href="#DejaVuSans-53"/>
       <use x="211.035156" xlink:href="#DejaVuSans-48"/>
      </g>
     </g>
    </g>
    <g id="xtick_3">
     <g id="line2d_3">
      <g>
       <use style="stroke:#000000;stroke-width:0.8;" x="226.970225" xlink:href="#mf47ba21f46" y="307.584"/>
      </g>
     </g>
     <g id="text_3">
      <!-- −100 -->
      <g transform="translate(213.236632 322.182437)scale(0.1 -0.1)">
       <use xlink:href="#DejaVuSans-8722"/>
       <use x="83.789062" xlink:href="#DejaVuSans-49"/>
       <use x="147.412109" xlink:href="#DejaVuSans-48"/>
       <use x="211.035156" xlink:href="#DejaVuSans-48"/>
      </g>
     </g>
    </g>
    <g id="xtick_4">
     <g id="line2d_4">
      <g>
       <use style="stroke:#000000;stroke-width:0.8;" x="284.749352" xlink:href="#mf47ba21f46" y="307.584"/>
      </g>
     </g>
     <g id="text_4">
      <!-- −50 -->
      <g transform="translate(274.197008 322.182437)scale(0.1 -0.1)">
       <use xlink:href="#DejaVuSans-8722"/>
       <use x="83.789062" xlink:href="#DejaVuSans-53"/>
       <use x="147.412109" xlink:href="#DejaVuSans-48"/>
      </g>
     </g>
    </g>
    <g id="xtick_5">
     <g id="line2d_5">
      <g>
       <use style="stroke:#000000;stroke-width:0.8;" x="342.528478" xlink:href="#mf47ba21f46" y="307.584"/>
      </g>
     </g>
     <g id="text_5">
      <!-- 0 -->
      <g transform="translate(339.347228 322.182437)scale(0.1 -0.1)">
       <use xlink:href="#DejaVuSans-48"/>
      </g>
     </g>
    </g>
    <g id="xtick_6">
     <g id="line2d_6">
      <g>
       <use style="stroke:#000000;stroke-width:0.8;" x="400.307604" xlink:href="#mf47ba21f46" y="307.584"/>
      </g>
     </g>
     <g id="text_6">
      <!-- 50 -->
      <g transform="translate(393.945104 322.182437)scale(0.1 -0.1)">
       <use xlink:href="#DejaVuSans-53"/>
       <use x="63.623047" xlink:href="#DejaVuSans-48"/>
      </g>
     </g>
    </g>
   </g>
   <g id="matplotlib.axis_2">
    <g id="ytick_1">
     <g id="line2d_7">
      <defs>
       <path d="M 0 0 
L -3.5 0 
" id="mea4e436449" style="stroke:#000000;stroke-width:0.8;"/>
      </defs>
      <g>
       <use style="stroke:#000000;stroke-width:0.8;" x="57.6" xlink:href="#mea4e436449" y="250.760531"/>
      </g>
     </g>
     <g id="text_7">
      <!-- −50 -->
      <g transform="translate(29.495313 254.55975)scale(0.1 -0.1)">
       <use xlink:href="#DejaVuSans-8722"/>
       <use x="83.789062" xlink:href="#DejaVuSans-53"/>
       <use x="147.412109" xlink:href="#DejaVuSans-48"/>
      </g>
     </g>
    </g>
    <g id="ytick_2">
     <g id="line2d_8">
      <g>
       <use style="stroke:#000000;stroke-width:0.8;" x="57.6" xlink:href="#mea4e436449" y="192.981405"/>
      </g>
     </g>
     <g id="text_8">
      <!-- 0 -->
      <g transform="translate(44.2375 196.780624)scale(0.1 -0.1)">
       <use xlink:href="#DejaVuSans-48"/>
      </g>
     </g>
    </g>
    <g id="ytick_3">
     <g id="line2d_9">
      <g>
       <use style="stroke:#000000;stroke-width:0.8;" x="57.6" xlink:href="#mea4e436449" y="135.202279"/>
      </g>
     </g>
     <g id="text_9">
      <!-- 50 -->
      <g transform="translate(37.875 139.001497)scale(0.1 -0.1)">
       <use xlink:href="#DejaVuSans-53"/>
       <use x="63.623047" xlink:href="#DejaVuSans-48"/>
      </g>
     </g>
    </g>
    <g id="ytick_4">
     <g id="line2d_10">
      <g>
       <use style="stroke:#000000;stroke-width:0.8;" x="57.6" xlink:href="#mea4e436449" y="77.423152"/>
      </g>
     </g>
     <g id="text_10">
      <!-- 100 -->
      <g transform="translate(31.5125 81.222371)scale(0.1 -0.1)">
       <use xlink:href="#DejaVuSans-49"/>
       <use x="63.623047" xlink:href="#DejaVuSans-48"/>
       <use x="127.246094" xlink:href="#DejaVuSans-48"/>
      </g>
     </g>
    </g>
   </g>
   <g id="line2d_11">
    <path clip-path="url(#p6807585f24)" d="M 342.528478 192.981405 
L 342.364924 191.731165 
L 342.023923 190.69424 
L 341.408997 189.571956 
L 340.720631 188.698508 
L 339.737137 187.91719 
L 338.812688 187.406373 
L 337.701459 187.026147 
L 335.940089 186.739302 
L 333.892317 186.728898 
L 330.946051 186.959402 
L 317.608942 188.243266 
L 285.054969 190.969888 
L 267.911971 192.611402 
L 265.177216 192.675615 
L 263.391714 192.500127 
L 261.812818 192.124001 
L 260.402834 191.495619 
L 259.12922 190.65447 
L 258.045515 189.620202 
L 257.115525 188.46161 
L 256.304514 187.023421 
L 255.622235 185.333649 
L 255.060172 183.411921 
L 254.266206 179.790442 
L 253.681955 175.710704 
L 253.012734 168.630438 
L 248.989642 116.066652 
L 248.299667 110.597719 
L 247.23095 104.469908 
L 246.286839 100.210119 
L 245.152369 96.071492 
L 243.762238 91.963836 
L 242.490796 88.729915 
L 241.065443 85.508174 
L 237.630555 78.325027 
L 234.307643 72.085863 
L 230.52853 65.580627 
L 226.23851 58.6974 
L 224.394201 56.246409 
L 223.424436 55.333037 
L 221.956731 54.387539 
L 220.795139 53.932124 
L 219.296233 53.618846 
L 217.756419 53.599316 
L 216.450495 53.774387 
L 215.055592 54.171445 
L 213.561192 54.809789 
L 211.460574 56.106121 
L 208.588143 58.254927 
L 204.04913 61.944471 
L 194.908241 69.665496 
L 173.180748 88.08451 
L 131.493339 123.016314 
L 129.43386 125.031754 
L 128.110718 126.583551 
L 127.064338 128.192423 
L 126.49868 129.279179 
L 125.946081 130.933372 
L 125.569592 133.154217 
L 125.577797 134.273872 
L 125.735996 135.891295 
L 125.988953 136.925576 
L 126.544326 138.380362 
L 127.308975 139.795742 
L 128.525688 141.634829 
L 131.088308 144.876145 
L 138.324796 153.526697 
L 151.380221 169.351568 
L 160.416414 180.936641 
L 162.010656 183.520098 
L 163.328136 186.216334 
L 164.36088 188.96546 
L 165.162392 191.820857 
L 165.962864 195.780626 
L 166.505756 199.918878 
L 167.742114 211.135306 
L 169.55141 228.025843 
L 170.483734 238.729634 
L 172.263215 262.514701 
L 173.077323 272.715698 
L 173.236793 278.473607 
L 173.16353 282.705998 
L 173.067847 286.481297 
L 173.407473 289.029623 
L 173.952677 290.173014 
L 174.823986 291.318624 
L 176.422503 292.739643 
L 177.34096 293.332908 
L 179.002919 294.14497 
L 180.29382 294.585201 
L 181.719231 294.926757 
L 184.083322 295.252157 
L 187.665512 295.453945 
L 191.664868 295.45903 
L 202.171193 295.012732 
L 219.808387 293.574725 
L 242.785204 291.796769 
L 253.214706 290.957019 
L 288.260786 287.926076 
L 311.148715 286.180141 
L 330.997386 284.673238 
L 334.124722 284.203656 
L 336.819515 283.587511 
L 338.646882 283.004462 
L 340.307755 282.293062 
L 341.830878 281.421764 
L 342.721236 280.703893 
L 343.894411 279.514903 
L 344.813343 278.159081 
L 345.562566 276.683182 
L 346.181122 274.541934 
L 346.45166 272.851201 
L 346.715244 269.834114 
L 346.776361 266.434125 
L 346.596497 261.731031 
L 346.075879 252.96447 
L 344.811227 236.609013 
L 343.184785 212.330837 
L 341.95656 193.964412 
L 342.026957 191.257141 
L 342.102557 189.89691 
L 341.926122 187.728357 
L 341.454163 185.710542 
L 340.866049 183.448561 
L 340.639139 182.112606 
L 340.63202 182.150749 
" style="fill:none;stroke:#008000;stroke-linecap:square;stroke-width:1.5;"/>
   </g>
   <g id="line2d_12">
    <path clip-path="url(#p6807585f24)" d="M 342.528478 192.981405 
L 342.531767 192.997889 
L 342.370637 191.987003 
L 341.938157 190.778229 
L 341.289774 189.586268 
L 340.609806 188.677575 
L 339.556588 187.795223 
L 338.617404 187.244515 
L 337.439754 186.883702 
L 336.174707 186.686065 
L 334.330412 186.679149 
L 331.56912 186.907887 
L 326.699953 187.448785 
L 314.420662 188.581424 
L 302.739862 189.630123 
L 295.970348 190.211735 
L 286.479424 191.023248 
L 274.754458 192.233234 
L 268.294053 192.848923 
L 265.525921 192.928776 
L 263.894927 192.79202 
L 262.560209 192.4789 
L 261.358921 191.958567 
L 260.194932 191.218272 
L 259.121112 190.203379 
L 258.452729 189.25706 
L 257.60309 187.590474 
L 256.927181 185.795872 
L 256.003781 182.297503 
L 255.400793 179.222939 
L 254.924795 175.868089 
L 253.89154 165.361307 
L 250.313987 120.793903 
L 249.330514 112.505804 
L 248.153187 105.416984 
L 247.430545 102.000643 
L 246.530279 98.640673 
L 245.182125 94.5176 
L 243.597149 90.394351 
L 241.427106 85.446584 
L 239.532761 81.396742 
L 236.288354 75.041219 
L 233.729989 70.446613 
L 227.329617 60.042257 
L 226.54492 59.121652 
L 225.635354 58.366777 
L 224.631639 57.772895 
L 223.570417 57.378411 
L 222.074434 57.096254 
L 220.432809 57.114163 
L 219.101999 57.353439 
L 217.578104 57.850536 
L 216.450138 58.368657 
L 214.893914 59.356358 
L 211.078005 62.253893 
L 203.993387 68.159078 
L 185.133224 84.265228 
L 170.417169 96.885583 
L 162.276378 103.862811 
L 138.597171 124.259889 
L 137.226357 125.781016 
L 136.239119 127.147878 
L 135.352049 128.759441 
L 134.80112 130.446155 
L 134.429346 132.302333 
L 134.357399 133.946671 
L 134.603295 135.996108 
L 135.129873 137.58477 
L 135.799761 138.971972 
L 137.246273 141.171042 
L 139.126425 143.492782 
L 142.91349 148.050114 
L 161.606656 170.723325 
L 167.050772 177.580009 
L 168.256743 179.389087 
L 169.33877 181.404718 
L 170.385758 183.925525 
L 171.235895 186.539451 
L 171.867905 189.232436 
L 172.369255 191.981399 
L 172.849404 196.071024 
L 173.744775 203.720868 
L 175.081002 215.400914 
L 176.035036 224.918672 
L 177.143867 237.893827 
L 177.729736 246.288182 
L 178.377272 254.901701 
L 179.19448 264.324936 
L 179.34866 268.811992 
L 179.304795 271.50508 
L 179.113959 274.156009 
L 179.964321 274.314993 
L 180.057646 276.806293 
L 180.816998 278.187776 
L 181.842478 279.357959 
L 183.041925 280.32599 
L 184.668899 281.293664 
L 185.921521 281.847945 
L 187.418144 282.32879 
L 189.238483 282.689431 
L 192.442631 283.027988 
L 196.391134 283.234383 
L 202.744109 283.222137 
L 214.561939 282.914869 
L 237.999254 282.191168 
L 259.309877 281.533216 
L 271.831717 280.959313 
L 281.287418 280.698614 
L 307.563068 279.943675 
L 322.312828 279.56947 
L 328.981667 279.381672 
L 332.66619 279.089529 
L 335.574704 278.634393 
L 337.436255 278.143449 
L 338.862329 277.543655 
L 339.496846 277.149008 
L 340.889123 275.992365 
L 341.713435 274.895937 
L 342.564488 273.359812 
L 343.044235 271.958271 
L 343.444881 270.325457 
L 343.937906 266.684972 
L 344.14613 263.118139 
L 344.22239 254.881823 
L 343.9788 245.225166 
L 342.280218 198.346195 
L 342.084755 195.68371 
L 342.023821 192.889266 
L 342.060805 184.735763 
L 341.742722 182.964032 
L 340.796598 178.505076 
L 340.75515 178.179856 
L 340.75515 178.179856 
" style="fill:none;stroke:#0000ff;stroke-linecap:square;stroke-width:1.5;"/>
   </g>
   <g id="line2d_13">
    <path clip-path="url(#p6807585f24)" d="M 342.528478 192.981405 
L 342.535035 192.996609 
L 342.449389 192.367767 
L 342.226988 191.500309 
L 341.545145 190.002001 
L 340.792536 188.887038 
L 340.046718 188.183018 
L 338.960779 187.413329 
L 337.843539 186.982694 
L 336.643572 186.763912 
L 335.249387 186.691501 
L 333.364694 186.772315 
L 327.448951 187.394124 
L 318.142918 188.311044 
L 304.682876 189.510269 
L 272.203137 192.620539 
L 268.298486 192.958539 
L 265.53064 193.029839 
L 263.899718 192.888852 
L 262.561488 192.592496 
L 260.516498 191.777351 
L 259.416142 190.876807 
L 258.854676 190.254372 
L 258.094372 189.027832 
L 257.293384 187.248662 
L 256.722007 185.399699 
L 255.855081 181.804456 
L 255.317979 178.638531 
L 254.645748 172.580601 
L 253.900569 162.982449 
L 252.319938 140.743659 
L 251.385397 126.737477 
L 250.879357 120.067471 
L 249.952028 111.779808 
L 248.979035 105.58598 
L 248.103953 101.314764 
L 246.967652 97.139212 
L 245.576812 93.000578 
L 243.950899 88.83423 
L 241.781643 83.905409 
L 238.269491 76.649565 
L 235.400167 71.20119 
L 229.033798 60.472573 
L 227.912267 59.04562 
L 227.0118 58.279925 
L 226.015126 57.674313 
L 224.958524 57.267623 
L 223.465905 56.968242 
L 221.824243 56.966873 
L 220.4872 57.171899 
L 219.96729 57.297323 
L 218.91889 57.424462 
L 217.797563 57.957673 
L 216.248057 58.957309 
L 212.46099 61.893901 
L 205.433784 67.86997 
L 191.750077 79.771851 
L 176.316304 93.348042 
L 141.534473 123.634412 
L 139.639155 125.591126 
L 138.54498 127.011301 
L 137.618072 128.56313 
L 137.103067 129.781249 
L 136.814676 130.809769 
L 136.45798 132.66886 
L 136.399161 134.313686 
L 136.655084 136.361805 
L 137.19381 137.946398 
L 137.876221 139.327413 
L 139.342508 141.513401 
L 141.243155 143.818392 
L 144.580925 147.756767 
L 151.468923 155.85769 
L 169.782457 178.043345 
L 171.366599 180.544645 
L 172.581103 183.177344 
L 173.494837 185.661735 
L 174.205666 188.288434 
L 174.927782 191.993251 
L 175.44902 196.077844 
L 176.556244 204.850895 
L 179.84119 233.344663 
L 180.782551 244.288172 
L 181.571436 253.871833 
L 182.708943 266.881159 
L 182.764171 270.148736 
L 182.632561 274.092616 
L 183.48507 274.239779 
L 183.502894 275.432395 
L 183.620577 275.639683 
L 183.626836 275.894044 
L 183.617914 275.77207 
L 183.50681 275.731997 
L 183.523739 275.838102 
L 183.464449 276.398059 
L 183.406382 276.419457 
L 183.446666 276.468432 
L 183.428816 276.481214 
L 183.587338 276.788279 
L 184.149345 277.69449 
L 184.925566 278.606855 
L 186.120676 279.535544 
L 187.473657 280.378004 
L 188.68576 280.8785 
L 190.017736 281.173856 
L 192.627476 281.532214 
L 195.830109 281.5255 
L 199.531472 281.316129 
L 202.743917 280.983375 
L 217.356163 278.977482 
L 227.468228 277.437079 
L 258.384555 272.834052 
L 276.06446 269.913824 
L 298.251597 266.630964 
L 333.696906 261.321927 
L 336.906598 260.547846 
L 339.418351 259.653739 
L 340.864296 258.90876 
L 341.688205 258.285763 
L 342.918814 256.958359 
L 343.848312 255.950036 
L 344.341999 255.880257 
L 344.853211 254.3411 
L 345.132098 252.154213 
L 345.130156 249.753351 
L 344.931333 246.49766 
L 344.339425 241.984878 
L 342.804974 232.762575 
L 341.077954 224.151394 
L 338.537844 211.275422 
L 336.350905 200.025499 
L 334.231312 189.848845 
L 332.158027 179.967522 
L 331.320885 175.829615 
L 330.630277 171.040914 
L 330.429315 169.175588 
L 329.73973 166.565697 
L 328.697688 164.102718 
L 328.105906 162.575298 
L 327.699178 161.187514 
L 327.699178 161.187514 
" style="fill:none;stroke:#ff0000;stroke-linecap:square;stroke-width:1.5;"/>
   </g>
   <g id="patch_3">
    <path d="M 57.6 307.584 
L 57.6 41.472 
" style="fill:none;stroke:#000000;stroke-linecap:square;stroke-linejoin:miter;stroke-width:0.8;"/>
   </g>
   <g id="patch_4">
    <path d="M 414.72 307.584 
L 414.72 41.472 
" style="fill:none;stroke:#000000;stroke-linecap:square;stroke-linejoin:miter;stroke-width:0.8;"/>
   </g>
   <g id="patch_5">
    <path d="M 57.6 307.584 
L 414.72 307.584 
" style="fill:none;stroke:#000000;stroke-linecap:square;stroke-linejoin:miter;stroke-width:0.8;"/>
   </g>
   <g id="patch_6">
    <path d="M 57.6 41.472 
L 414.72 41.472 
" style="fill:none;stroke:#000000;stroke-linecap:square;stroke-linejoin:miter;stroke-width:0.8;"/>
   </g>
  </g>
 </g>
 <defs>
  <clipPath id="p6807585f24">
   <rect height="266.112" width="357.12" x="57.6" y="41.472"/>
  </clipPath>
 </defs>
</svg>
