<?xml version="1.0" encoding="utf-8" standalone="no"?>
<!DOCTYPE svg PUBLIC "-//W3C//DTD SVG 1.1//EN"
  "http://www.w3.org/Graphics/SVG/1.1/DTD/svg11.dtd">
<!-- Created with matplotlib (https://matplotlib.org/) -->
<svg height="345.6pt" version="1.1" viewBox="0 0 460.8 345.6" width="460.8pt" xmlns="http://www.w3.org/2000/svg" xmlns:xlink="http://www.w3.org/1999/xlink">
 <defs>
  <style type="text/css">
*{stroke-linecap:butt;stroke-linejoin:round;}
  </style>
 </defs>
 <g id="figure_1">
  <g id="patch_1">
   <path d="M 0 345.6 
L 460.8 345.6 
L 460.8 0 
L 0 0 
z
" style="fill:#ffffff;"/>
  </g>
  <g id="axes_1">
   <g id="patch_2">
    <path d="M 57.6 307.584 
L 414.72 307.584 
L 414.72 41.472 
L 57.6 41.472 
z
" style="fill:#ffffff;"/>
   </g>
   <g id="matplotlib.axis_1">
    <g id="xtick_1">
     <g id="line2d_1">
      <defs>
       <path d="M 0 0 
L 0 3.5 
" id="m19409274e3" style="stroke:#000000;stroke-width:0.8;"/>
      </defs>
      <g>
       <use style="stroke:#000000;stroke-width:0.8;" x="79.535329" xlink:href="#m19409274e3" y="307.584"/>
      </g>
     </g>
     <g id="text_1">
      <!-- −100 -->
      <defs>
       <path d="M 10.59375 35.5 
L 73.1875 35.5 
L 73.1875 27.203125 
L 10.59375 27.203125 
z
" id="DejaVuSans-8722"/>
       <path d="M 12.40625 8.296875 
L 28.515625 8.296875 
L 28.515625 63.921875 
L 10.984375 60.40625 
L 10.984375 69.390625 
L 28.421875 72.90625 
L 38.28125 72.90625 
L 38.28125 8.296875 
L 54.390625 8.296875 
L 54.390625 0 
L 12.40625 0 
z
" id="DejaVuSans-49"/>
       <path d="M 31.78125 66.40625 
Q 24.171875 66.40625 20.328125 58.90625 
Q 16.5 51.421875 16.5 36.375 
Q 16.5 21.390625 20.328125 13.890625 
Q 24.171875 6.390625 31.78125 6.390625 
Q 39.453125 6.390625 43.28125 13.890625 
Q 47.125 21.390625 47.125 36.375 
Q 47.125 51.421875 43.28125 58.90625 
Q 39.453125 66.40625 31.78125 66.40625 
z
M 31.78125 74.21875 
Q 44.046875 74.21875 50.515625 64.515625 
Q 56.984375 54.828125 56.984375 36.375 
Q 56.984375 17.96875 50.515625 8.265625 
Q 44.046875 -1.421875 31.78125 -1.421875 
Q 19.53125 -1.421875 13.0625 8.265625 
Q 6.59375 17.96875 6.59375 36.375 
Q 6.59375 54.828125 13.0625 64.515625 
Q 19.53125 74.21875 31.78125 74.21875 
z
" id="DejaVuSans-48"/>
      </defs>
      <g transform="translate(65.801735 322.182437)scale(0.1 -0.1)">
       <use xlink:href="#DejaVuSans-8722"/>
       <use x="83.789062" xlink:href="#DejaVuSans-49"/>
       <use x="147.412109" xlink:href="#DejaVuSans-48"/>
       <use x="211.035156" xlink:href="#DejaVuSans-48"/>
      </g>
     </g>
    </g>
    <g id="xtick_2">
     <g id="line2d_2">
      <g>
       <use style="stroke:#000000;stroke-width:0.8;" x="138.045162" xlink:href="#m19409274e3" y="307.584"/>
      </g>
     </g>
     <g id="text_2">
      <!-- −50 -->
      <defs>
       <path d="M 10.796875 72.90625 
L 49.515625 72.90625 
L 49.515625 64.59375 
L 19.828125 64.59375 
L 19.828125 46.734375 
Q 21.96875 47.46875 24.109375 47.828125 
Q 26.265625 48.1875 28.421875 48.1875 
Q 40.625 48.1875 47.75 41.5 
Q 54.890625 34.8125 54.890625 23.390625 
Q 54.890625 11.625 47.5625 5.09375 
Q 40.234375 -1.421875 26.90625 -1.421875 
Q 22.3125 -1.421875 17.546875 -0.640625 
Q 12.796875 0.140625 7.71875 1.703125 
L 7.71875 11.625 
Q 12.109375 9.234375 16.796875 8.0625 
Q 21.484375 6.890625 26.703125 6.890625 
Q 35.15625 6.890625 40.078125 11.328125 
Q 45.015625 15.765625 45.015625 23.390625 
Q 45.015625 31 40.078125 35.4375 
Q 35.15625 39.890625 26.703125 39.890625 
Q 22.75 39.890625 18.8125 39.015625 
Q 14.890625 38.140625 10.796875 36.28125 
z
" id="DejaVuSans-53"/>
      </defs>
      <g transform="translate(127.492818 322.182437)scale(0.1 -0.1)">
       <use xlink:href="#DejaVuSans-8722"/>
       <use x="83.789062" xlink:href="#DejaVuSans-53"/>
       <use x="147.412109" xlink:href="#DejaVuSans-48"/>
      </g>
     </g>
    </g>
    <g id="xtick_3">
     <g id="line2d_3">
      <g>
       <use style="stroke:#000000;stroke-width:0.8;" x="196.554995" xlink:href="#m19409274e3" y="307.584"/>
      </g>
     </g>
     <g id="text_3">
      <!-- 0 -->
      <g transform="translate(193.373745 322.182437)scale(0.1 -0.1)">
       <use xlink:href="#DejaVuSans-48"/>
      </g>
     </g>
    </g>
    <g id="xtick_4">
     <g id="line2d_4">
      <g>
       <use style="stroke:#000000;stroke-width:0.8;" x="255.064828" xlink:href="#m19409274e3" y="307.584"/>
      </g>
     </g>
     <g id="text_4">
      <!-- 50 -->
      <g transform="translate(248.702328 322.182437)scale(0.1 -0.1)">
       <use xlink:href="#DejaVuSans-53"/>
       <use x="63.623047" xlink:href="#DejaVuSans-48"/>
      </g>
     </g>
    </g>
    <g id="xtick_5">
     <g id="line2d_5">
      <g>
       <use style="stroke:#000000;stroke-width:0.8;" x="313.574661" xlink:href="#m19409274e3" y="307.584"/>
      </g>
     </g>
     <g id="text_5">
      <!-- 100 -->
      <g transform="translate(304.030911 322.182437)scale(0.1 -0.1)">
       <use xlink:href="#DejaVuSans-49"/>
       <use x="63.623047" xlink:href="#DejaVuSans-48"/>
       <use x="127.246094" xlink:href="#DejaVuSans-48"/>
      </g>
     </g>
    </g>
    <g id="xtick_6">
     <g id="line2d_6">
      <g>
       <use style="stroke:#000000;stroke-width:0.8;" x="372.084494" xlink:href="#m19409274e3" y="307.584"/>
      </g>
     </g>
     <g id="text_6">
      <!-- 150 -->
      <g transform="translate(362.540744 322.182437)scale(0.1 -0.1)">
       <use xlink:href="#DejaVuSans-49"/>
       <use x="63.623047" xlink:href="#DejaVuSans-53"/>
       <use x="127.246094" xlink:href="#DejaVuSans-48"/>
      </g>
     </g>
    </g>
   </g>
   <g id="matplotlib.axis_2">
    <g id="ytick_1">
     <g id="line2d_7">
      <defs>
       <path d="M 0 0 
L -3.5 0 
" id="m579ad55407" style="stroke:#000000;stroke-width:0.8;"/>
      </defs>
      <g>
       <use style="stroke:#000000;stroke-width:0.8;" x="57.6" xlink:href="#m579ad55407" y="295.488"/>
      </g>
     </g>
     <g id="text_7">
      <!-- 0 -->
      <g transform="translate(44.2375 299.287219)scale(0.1 -0.1)">
       <use xlink:href="#DejaVuSans-48"/>
      </g>
     </g>
    </g>
    <g id="ytick_2">
     <g id="line2d_8">
      <g>
       <use style="stroke:#000000;stroke-width:0.8;" x="57.6" xlink:href="#m579ad55407" y="236.978167"/>
      </g>
     </g>
     <g id="text_8">
      <!-- 50 -->
      <g transform="translate(37.875 240.777386)scale(0.1 -0.1)">
       <use xlink:href="#DejaVuSans-53"/>
       <use x="63.623047" xlink:href="#DejaVuSans-48"/>
      </g>
     </g>
    </g>
    <g id="ytick_3">
     <g id="line2d_9">
      <g>
       <use style="stroke:#000000;stroke-width:0.8;" x="57.6" xlink:href="#m579ad55407" y="178.468334"/>
      </g>
     </g>
     <g id="text_9">
      <!-- 100 -->
      <g transform="translate(31.5125 182.267553)scale(0.1 -0.1)">
       <use xlink:href="#DejaVuSans-49"/>
       <use x="63.623047" xlink:href="#DejaVuSans-48"/>
       <use x="127.246094" xlink:href="#DejaVuSans-48"/>
      </g>
     </g>
    </g>
    <g id="ytick_4">
     <g id="line2d_10">
      <g>
       <use style="stroke:#000000;stroke-width:0.8;" x="57.6" xlink:href="#m579ad55407" y="119.958501"/>
      </g>
     </g>
     <g id="text_10">
      <!-- 150 -->
      <g transform="translate(31.5125 123.75772)scale(0.1 -0.1)">
       <use xlink:href="#DejaVuSans-49"/>
       <use x="63.623047" xlink:href="#DejaVuSans-53"/>
       <use x="127.246094" xlink:href="#DejaVuSans-48"/>
      </g>
     </g>
    </g>
    <g id="ytick_5">
     <g id="line2d_11">
      <g>
       <use style="stroke:#000000;stroke-width:0.8;" x="57.6" xlink:href="#m579ad55407" y="61.448668"/>
      </g>
     </g>
     <g id="text_11">
      <!-- 200 -->
      <defs>
       <path d="M 19.1875 8.296875 
L 53.609375 8.296875 
L 53.609375 0 
L 7.328125 0 
L 7.328125 8.296875 
Q 12.9375 14.109375 22.625 23.890625 
Q 32.328125 33.6875 34.8125 36.53125 
Q 39.546875 41.84375 41.421875 45.53125 
Q 43.3125 49.21875 43.3125 52.78125 
Q 43.3125 58.59375 39.234375 62.25 
Q 35.15625 65.921875 28.609375 65.921875 
Q 23.96875 65.921875 18.8125 64.3125 
Q 13.671875 62.703125 7.8125 59.421875 
L 7.8125 69.390625 
Q 13.765625 71.78125 18.9375 73 
Q 24.125 74.21875 28.421875 74.21875 
Q 39.75 74.21875 46.484375 68.546875 
Q 53.21875 62.890625 53.21875 53.421875 
Q 53.21875 48.921875 51.53125 44.890625 
Q 49.859375 40.875 45.40625 35.40625 
Q 44.1875 33.984375 37.640625 27.21875 
Q 31.109375 20.453125 19.1875 8.296875 
z
" id="DejaVuSans-50"/>
      </defs>
      <g transform="translate(31.5125 65.247887)scale(0.1 -0.1)">
       <use xlink:href="#DejaVuSans-50"/>
       <use x="63.623047" xlink:href="#DejaVuSans-48"/>
       <use x="127.246094" xlink:href="#DejaVuSans-48"/>
      </g>
     </g>
    </g>
   </g>
   <g id="line2d_12">
    <path clip-path="url(#pf6d053895f)" d="M 196.554995 295.488 
L 193.67021 244.475589 
L 191.043961 208.688198 
L 190.517047 202.349347 
L 190.461232 198.881305 
L 190.66942 197.325692 
L 191.077377 195.882957 
L 191.721978 194.617026 
L 192.58444 193.569033 
L 193.619981 192.721202 
L 195.191035 191.923198 
L 196.469941 191.527777 
L 199.177105 190.954907 
L 203.546419 190.613783 
L 209.881627 190.496248 
L 215.013302 190.398174 
L 226.369698 189.743168 
L 232.997306 189.465141 
L 237.641056 189.550531 
L 242.123026 189.87581 
L 247.194822 190.493276 
L 253.062375 191.161681 
L 254.940506 191.188151 
L 256.769558 191.04108 
L 257.948274 190.81281 
L 259.616249 190.234347 
L 261.071669 189.396825 
L 261.894013 188.68283 
L 262.931404 187.413283 
L 263.689236 185.945154 
L 264.206895 184.340838 
L 265.241712 179.722422 
L 266.531351 174.372868 
L 268.959907 164.813062 
L 271.086341 155.45535 
L 272.459216 149.53626 
L 275.116686 138.836683 
L 276.895256 131.348945 
L 278.622642 122.954772 
L 279.70003 115.447492 
L 280.070023 111.607959 
L 280.41715 105.851878 
L 280.709067 98.097921 
L 280.746081 92.225639 
L 280.527488 87.254175 
L 280.167465 80.267749 
L 279.799099 73.318887 
L 278.862731 58.942434 
L 278.618172 54.809884 
L 278.618172 54.809884 
" style="fill:none;stroke:#008000;stroke-linecap:square;stroke-width:1.5;"/>
   </g>
   <g id="line2d_13">
    <path clip-path="url(#pf6d053895f)" d="M 196.554995 295.488 
L 196.479336 291.464049 
L 195.955225 280.4121 
L 194.253577 252.889444 
L 192.135784 223.979692 
L 191.02762 212.060531 
L 190.044342 202.983746 
L 189.922551 199.414864 
L 190.160679 197.319771 
L 190.569427 195.876302 
L 191.208883 194.606916 
L 192.044757 193.537316 
L 193.065271 192.672828 
L 194.211223 192.02238 
L 195.444979 191.527444 
L 198.590352 190.829503 
L 202.957122 190.447336 
L 222.908513 189.405548 
L 230.508211 188.878818 
L 235.188644 188.816657 
L 238.854406 188.940647 
L 244.947327 189.470539 
L 251.821889 190.184938 
L 254.359715 190.236328 
L 256.188544 190.070933 
L 257.942901 189.651302 
L 259.538558 188.954432 
L 260.451589 188.332378 
L 261.631211 187.183853 
L 262.29014 186.319734 
L 263.065185 184.858217 
L 263.589214 183.254434 
L 264.401422 179.858229 
L 265.034054 176.729228 
L 266.64627 170.29806 
L 267.839655 165.413227 
L 271.18082 150.38191 
L 275.517476 132.016863 
L 277.538147 121.726238 
L 278.538629 114.205601 
L 278.897505 110.363577 
L 279.59098 98.800614 
L 279.604152 89.984787 
L 278.516792 71.093518 
L 277.325918 53.568 
L 277.325918 53.568 
" style="fill:none;stroke:#0000ff;stroke-linecap:square;stroke-width:1.5;"/>
   </g>
   <g id="line2d_14">
    <path clip-path="url(#pf6d053895f)" d="M 196.554995 295.488 
L 195.829855 294.806346 
L 195.100309 281.768539 
L 195.236071 268.062769 
L 195.478918 259.080238 
L 195.750339 258.006784 
L 196.086439 253.384728 
L 196.346847 237.940416 
L 196.519514 235.655225 
L 196.93348 216.249726 
L 197.21089 215.418856 
L 197.213224 205.590175 
L 197.347839 204.919675 
L 197.622321 199.494661 
L 197.994875 197.445299 
L 198.485937 196.056482 
L 199.844645 194.211094 
L 200.802066 193.283225 
L 201.902971 192.570535 
L 203.121896 192.059767 
L 204.428501 191.732679 
L 206.266002 191.501001 
L 208.315032 191.45959 
L 210.00603 191.516685 
L 210.559545 191.730782 
L 218.526894 192.256097 
L 219.381035 192.192066 
L 219.930976 191.582921 
L 220.824401 191.514096 
L 222.050298 190.260652 
L 223.871925 190.237074 
L 229.510004 190.611239 
L 231.310267 190.774082 
L 239.681529 191.398432 
L 246.766691 192.141988 
L 248.452257 192.339689 
L 249.254431 192.597421 
L 253.845516 193.133625 
L 254.487956 193.008969 
L 258.349682 193.188453 
L 260.151031 193.107653 
L 261.897949 192.795249 
L 263.515541 192.220276 
L 264.485734 191.720934 
L 265.781965 190.758729 
L 266.755232 189.461066 
L 267.434136 187.955136 
L 267.877672 186.333738 
L 268.358349 183.446201 
L 269.114822 178.235606 
L 269.691811 176.085238 
L 269.626914 175.332361 
L 270.032511 172.212767 
L 270.772974 166.175072 
L 270.910245 164.326199 
L 271.025672 163.385541 
L 270.805109 162.45208 
L 270.92768 161.489599 
L 271.266754 160.652808 
L 271.683801 157.843878 
L 272.178911 155.904249 
L 272.308731 154.9073 
L 272.628413 154.073196 
L 273.593197 147.04316 
L 274.344159 139.287361 
L 275.830681 125.053069 
L 275.855485 124.104005 
L 275.698564 123.207078 
L 275.805845 122.283949 
L 275.717593 121.360264 
L 275.787457 120.409351 
L 275.321498 118.560427 
L 275.303718 116.669029 
L 275.480113 112.81848 
L 275.956762 107.084974 
L 276.472164 103.259083 
L 276.279844 102.340389 
L 276.81898 98.485316 
L 276.818192 97.507767 
L 277.09264 95.590101 
L 276.956986 94.644717 
L 277.75535 88.783992 
L 277.946431 86.825645 
L 278.250361 84.843317 
L 278.569794 83.966637 
L 278.526143 83.023891 
L 279.156511 78.106527 
L 279.399303 76.185132 
L 280.103908 71.356722 
L 281.158986 64.490147 
L 282.012707 59.638097 
L 282.412865 58.066717 
L 282.412865 58.066717 
" style="fill:none;stroke:#ff0000;stroke-linecap:square;stroke-width:1.5;"/>
   </g>
   <g id="patch_3">
    <path d="M 57.6 307.584 
L 57.6 41.472 
" style="fill:none;stroke:#000000;stroke-linecap:square;stroke-linejoin:miter;stroke-width:0.8;"/>
   </g>
   <g id="patch_4">
    <path d="M 414.72 307.584 
L 414.72 41.472 
" style="fill:none;stroke:#000000;stroke-linecap:square;stroke-linejoin:miter;stroke-width:0.8;"/>
   </g>
   <g id="patch_5">
    <path d="M 57.6 307.584 
L 414.72 307.584 
" style="fill:none;stroke:#000000;stroke-linecap:square;stroke-linejoin:miter;stroke-width:0.8;"/>
   </g>
   <g id="patch_6">
    <path d="M 57.6 41.472 
L 414.72 41.472 
" style="fill:none;stroke:#000000;stroke-linecap:square;stroke-linejoin:miter;stroke-width:0.8;"/>
   </g>
  </g>
 </g>
 <defs>
  <clipPath id="pf6d053895f">
   <rect height="266.112" width="357.12" x="57.6" y="41.472"/>
  </clipPath>
 </defs>
</svg>
