<?xml version="1.0" encoding="utf-8" standalone="no"?>
<!DOCTYPE svg PUBLIC "-//W3C//DTD SVG 1.1//EN"
  "http://www.w3.org/Graphics/SVG/1.1/DTD/svg11.dtd">
<!-- Created with matplotlib (https://matplotlib.org/) -->
<svg height="345.6pt" version="1.1" viewBox="0 0 460.8 345.6" width="460.8pt" xmlns="http://www.w3.org/2000/svg" xmlns:xlink="http://www.w3.org/1999/xlink">
 <defs>
  <style type="text/css">
*{stroke-linecap:butt;stroke-linejoin:round;}
  </style>
 </defs>
 <g id="figure_1">
  <g id="patch_1">
   <path d="M 0 345.6 
L 460.8 345.6 
L 460.8 0 
L 0 0 
z
" style="fill:#ffffff;"/>
  </g>
  <g id="axes_1">
   <g id="patch_2">
    <path d="M 57.6 307.584 
L 414.72 307.584 
L 414.72 41.472 
L 57.6 41.472 
z
" style="fill:#ffffff;"/>
   </g>
   <g id="matplotlib.axis_1">
    <g id="xtick_1">
     <g id="line2d_1">
      <defs>
       <path d="M 0 0 
L 0 3.5 
" id="ma5946c520c" style="stroke:#000000;stroke-width:0.8;"/>
      </defs>
      <g>
       <use style="stroke:#000000;stroke-width:0.8;" x="89.765478" xlink:href="#ma5946c520c" y="307.584"/>
      </g>
     </g>
     <g id="text_1">
      <!-- −300 -->
      <defs>
       <path d="M 10.59375 35.5 
L 73.1875 35.5 
L 73.1875 27.203125 
L 10.59375 27.203125 
z
" id="DejaVuSans-8722"/>
       <path d="M 40.578125 39.3125 
Q 47.65625 37.796875 51.625 33 
Q 55.609375 28.21875 55.609375 21.1875 
Q 55.609375 10.40625 48.1875 4.484375 
Q 40.765625 -1.421875 27.09375 -1.421875 
Q 22.515625 -1.421875 17.65625 -0.515625 
Q 12.796875 0.390625 7.625 2.203125 
L 7.625 11.71875 
Q 11.71875 9.328125 16.59375 8.109375 
Q 21.484375 6.890625 26.8125 6.890625 
Q 36.078125 6.890625 40.9375 10.546875 
Q 45.796875 14.203125 45.796875 21.1875 
Q 45.796875 27.640625 41.28125 31.265625 
Q 36.765625 34.90625 28.71875 34.90625 
L 20.21875 34.90625 
L 20.21875 43.015625 
L 29.109375 43.015625 
Q 36.375 43.015625 40.234375 45.921875 
Q 44.09375 48.828125 44.09375 54.296875 
Q 44.09375 59.90625 40.109375 62.90625 
Q 36.140625 65.921875 28.71875 65.921875 
Q 24.65625 65.921875 20.015625 65.03125 
Q 15.375 64.15625 9.8125 62.3125 
L 9.8125 71.09375 
Q 15.4375 72.65625 20.34375 73.4375 
Q 25.25 74.21875 29.59375 74.21875 
Q 40.828125 74.21875 47.359375 69.109375 
Q 53.90625 64.015625 53.90625 55.328125 
Q 53.90625 49.265625 50.4375 45.09375 
Q 46.96875 40.921875 40.578125 39.3125 
z
" id="DejaVuSans-51"/>
       <path d="M 31.78125 66.40625 
Q 24.171875 66.40625 20.328125 58.90625 
Q 16.5 51.421875 16.5 36.375 
Q 16.5 21.390625 20.328125 13.890625 
Q 24.171875 6.390625 31.78125 6.390625 
Q 39.453125 6.390625 43.28125 13.890625 
Q 47.125 21.390625 47.125 36.375 
Q 47.125 51.421875 43.28125 58.90625 
Q 39.453125 66.40625 31.78125 66.40625 
z
M 31.78125 74.21875 
Q 44.046875 74.21875 50.515625 64.515625 
Q 56.984375 54.828125 56.984375 36.375 
Q 56.984375 17.96875 50.515625 8.265625 
Q 44.046875 -1.421875 31.78125 -1.421875 
Q 19.53125 -1.421875 13.0625 8.265625 
Q 6.59375 17.96875 6.59375 36.375 
Q 6.59375 54.828125 13.0625 64.515625 
Q 19.53125 74.21875 31.78125 74.21875 
z
" id="DejaVuSans-48"/>
      </defs>
      <g transform="translate(76.031884 322.182437)scale(0.1 -0.1)">
       <use xlink:href="#DejaVuSans-8722"/>
       <use x="83.789062" xlink:href="#DejaVuSans-51"/>
       <use x="147.412109" xlink:href="#DejaVuSans-48"/>
       <use x="211.035156" xlink:href="#DejaVuSans-48"/>
      </g>
     </g>
    </g>
    <g id="xtick_2">
     <g id="line2d_2">
      <g>
       <use style="stroke:#000000;stroke-width:0.8;" x="141.180649" xlink:href="#ma5946c520c" y="307.584"/>
      </g>
     </g>
     <g id="text_2">
      <!-- −200 -->
      <defs>
       <path d="M 19.1875 8.296875 
L 53.609375 8.296875 
L 53.609375 0 
L 7.328125 0 
L 7.328125 8.296875 
Q 12.9375 14.109375 22.625 23.890625 
Q 32.328125 33.6875 34.8125 36.53125 
Q 39.546875 41.84375 41.421875 45.53125 
Q 43.3125 49.21875 43.3125 52.78125 
Q 43.3125 58.59375 39.234375 62.25 
Q 35.15625 65.921875 28.609375 65.921875 
Q 23.96875 65.921875 18.8125 64.3125 
Q 13.671875 62.703125 7.8125 59.421875 
L 7.8125 69.390625 
Q 13.765625 71.78125 18.9375 73 
Q 24.125 74.21875 28.421875 74.21875 
Q 39.75 74.21875 46.484375 68.546875 
Q 53.21875 62.890625 53.21875 53.421875 
Q 53.21875 48.921875 51.53125 44.890625 
Q 49.859375 40.875 45.40625 35.40625 
Q 44.1875 33.984375 37.640625 27.21875 
Q 31.109375 20.453125 19.1875 8.296875 
z
" id="DejaVuSans-50"/>
      </defs>
      <g transform="translate(127.447055 322.182437)scale(0.1 -0.1)">
       <use xlink:href="#DejaVuSans-8722"/>
       <use x="83.789062" xlink:href="#DejaVuSans-50"/>
       <use x="147.412109" xlink:href="#DejaVuSans-48"/>
       <use x="211.035156" xlink:href="#DejaVuSans-48"/>
      </g>
     </g>
    </g>
    <g id="xtick_3">
     <g id="line2d_3">
      <g>
       <use style="stroke:#000000;stroke-width:0.8;" x="192.59582" xlink:href="#ma5946c520c" y="307.584"/>
      </g>
     </g>
     <g id="text_3">
      <!-- −100 -->
      <defs>
       <path d="M 12.40625 8.296875 
L 28.515625 8.296875 
L 28.515625 63.921875 
L 10.984375 60.40625 
L 10.984375 69.390625 
L 28.421875 72.90625 
L 38.28125 72.90625 
L 38.28125 8.296875 
L 54.390625 8.296875 
L 54.390625 0 
L 12.40625 0 
z
" id="DejaVuSans-49"/>
      </defs>
      <g transform="translate(178.862227 322.182437)scale(0.1 -0.1)">
       <use xlink:href="#DejaVuSans-8722"/>
       <use x="83.789062" xlink:href="#DejaVuSans-49"/>
       <use x="147.412109" xlink:href="#DejaVuSans-48"/>
       <use x="211.035156" xlink:href="#DejaVuSans-48"/>
      </g>
     </g>
    </g>
    <g id="xtick_4">
     <g id="line2d_4">
      <g>
       <use style="stroke:#000000;stroke-width:0.8;" x="244.010992" xlink:href="#ma5946c520c" y="307.584"/>
      </g>
     </g>
     <g id="text_4">
      <!-- 0 -->
      <g transform="translate(240.829742 322.182437)scale(0.1 -0.1)">
       <use xlink:href="#DejaVuSans-48"/>
      </g>
     </g>
    </g>
    <g id="xtick_5">
     <g id="line2d_5">
      <g>
       <use style="stroke:#000000;stroke-width:0.8;" x="295.426163" xlink:href="#ma5946c520c" y="307.584"/>
      </g>
     </g>
     <g id="text_5">
      <!-- 100 -->
      <g transform="translate(285.882413 322.182437)scale(0.1 -0.1)">
       <use xlink:href="#DejaVuSans-49"/>
       <use x="63.623047" xlink:href="#DejaVuSans-48"/>
       <use x="127.246094" xlink:href="#DejaVuSans-48"/>
      </g>
     </g>
    </g>
    <g id="xtick_6">
     <g id="line2d_6">
      <g>
       <use style="stroke:#000000;stroke-width:0.8;" x="346.841335" xlink:href="#ma5946c520c" y="307.584"/>
      </g>
     </g>
     <g id="text_6">
      <!-- 200 -->
      <g transform="translate(337.297585 322.182437)scale(0.1 -0.1)">
       <use xlink:href="#DejaVuSans-50"/>
       <use x="63.623047" xlink:href="#DejaVuSans-48"/>
       <use x="127.246094" xlink:href="#DejaVuSans-48"/>
      </g>
     </g>
    </g>
    <g id="xtick_7">
     <g id="line2d_7">
      <g>
       <use style="stroke:#000000;stroke-width:0.8;" x="398.256506" xlink:href="#ma5946c520c" y="307.584"/>
      </g>
     </g>
     <g id="text_7">
      <!-- 300 -->
      <g transform="translate(388.712756 322.182437)scale(0.1 -0.1)">
       <use xlink:href="#DejaVuSans-51"/>
       <use x="63.623047" xlink:href="#DejaVuSans-48"/>
       <use x="127.246094" xlink:href="#DejaVuSans-48"/>
      </g>
     </g>
    </g>
   </g>
   <g id="matplotlib.axis_2">
    <g id="ytick_1">
     <g id="line2d_8">
      <defs>
       <path d="M 0 0 
L -3.5 0 
" id="m8e13933ade" style="stroke:#000000;stroke-width:0.8;"/>
      </defs>
      <g>
       <use style="stroke:#000000;stroke-width:0.8;" x="57.6" xlink:href="#m8e13933ade" y="259.397893"/>
      </g>
     </g>
     <g id="text_8">
      <!-- −100 -->
      <g transform="translate(23.132812 263.197112)scale(0.1 -0.1)">
       <use xlink:href="#DejaVuSans-8722"/>
       <use x="83.789062" xlink:href="#DejaVuSans-49"/>
       <use x="147.412109" xlink:href="#DejaVuSans-48"/>
       <use x="211.035156" xlink:href="#DejaVuSans-48"/>
      </g>
     </g>
    </g>
    <g id="ytick_2">
     <g id="line2d_9">
      <g>
       <use style="stroke:#000000;stroke-width:0.8;" x="57.6" xlink:href="#m8e13933ade" y="207.982722"/>
      </g>
     </g>
     <g id="text_9">
      <!-- 0 -->
      <g transform="translate(44.2375 211.78194)scale(0.1 -0.1)">
       <use xlink:href="#DejaVuSans-48"/>
      </g>
     </g>
    </g>
    <g id="ytick_3">
     <g id="line2d_10">
      <g>
       <use style="stroke:#000000;stroke-width:0.8;" x="57.6" xlink:href="#m8e13933ade" y="156.56755"/>
      </g>
     </g>
     <g id="text_10">
      <!-- 100 -->
      <g transform="translate(31.5125 160.366769)scale(0.1 -0.1)">
       <use xlink:href="#DejaVuSans-49"/>
       <use x="63.623047" xlink:href="#DejaVuSans-48"/>
       <use x="127.246094" xlink:href="#DejaVuSans-48"/>
      </g>
     </g>
    </g>
    <g id="ytick_4">
     <g id="line2d_11">
      <g>
       <use style="stroke:#000000;stroke-width:0.8;" x="57.6" xlink:href="#m8e13933ade" y="105.152379"/>
      </g>
     </g>
     <g id="text_11">
      <!-- 200 -->
      <g transform="translate(31.5125 108.951598)scale(0.1 -0.1)">
       <use xlink:href="#DejaVuSans-50"/>
       <use x="63.623047" xlink:href="#DejaVuSans-48"/>
       <use x="127.246094" xlink:href="#DejaVuSans-48"/>
      </g>
     </g>
    </g>
    <g id="ytick_5">
     <g id="line2d_12">
      <g>
       <use style="stroke:#000000;stroke-width:0.8;" x="57.6" xlink:href="#m8e13933ade" y="53.737207"/>
      </g>
     </g>
     <g id="text_12">
      <!-- 300 -->
      <g transform="translate(31.5125 57.536426)scale(0.1 -0.1)">
       <use xlink:href="#DejaVuSans-51"/>
       <use x="63.623047" xlink:href="#DejaVuSans-48"/>
       <use x="127.246094" xlink:href="#DejaVuSans-48"/>
      </g>
     </g>
    </g>
   </g>
   <g id="line2d_13">
    <path clip-path="url(#p54daa79c82)" d="M 244.010992 207.982722 
L 243.632648 184.642481 
L 243.324265 165.617068 
L 243.493694 159.085547 
L 243.890644 148.03983 
L 243.798455 139.0885 
L 243.35274 113.073709 
L 243.15957 101.188578 
L 243.001596 92.250667 
L 242.703302 82.860868 
L 242.776086 74.165226 
L 243.046604 68.527244 
L 243.284965 62.072686 
L 243.189811 58.555786 
L 242.947728 57.095698 
L 242.602529 56.068011 
L 241.970345 54.989989 
L 241.301246 54.318507 
L 240.718163 53.938138 
L 239.883779 53.644094 
L 238.570604 53.619312 
L 237.399104 54.02832 
L 236.238992 54.867518 
L 235.319812 55.857261 
L 234.49644 57.156522 
L 233.965228 58.323749 
L 233.413035 60.129296 
L 233.153861 61.639873 
L 233.016588 63.860238 
L 233.106225 66.26256 
L 233.858598 76.964577 
L 233.977923 83.957811 
L 234.198946 98.462802 
L 234.493674 117.106046 
L 234.387537 127.075911 
L 234.228695 144.746637 
L 234.39072 150.361482 
L 235.283976 168.275926 
L 235.46432 180.354682 
L 236.061754 227.348544 
L 236.44636 269.127597 
L 236.559895 284.897093 
L 236.898515 286.10828 
L 237.441557 287.097457 
L 238.191746 287.846422 
L 238.858971 288.232858 
L 239.567675 288.467466 
L 240.298067 288.545308 
L 241.305568 288.392759 
L 242.037505 288.091569 
L 242.735602 287.619989 
L 243.5491 286.720378 
L 244.043027 285.868274 
L 244.395825 284.873956 
L 244.661422 283.340293 
L 244.763428 281.608065 
L 244.737579 269.933736 
L 244.612588 259.401801 
L 244.359454 240.13032 
L 243.362449 170.384252 
L 243.292571 163.942933 
L 243.23575 154.578709 
L 243.005241 148.249192 
L 243.15444 143.988366 
L 243.595448 134.038707 
L 243.508914 126.031206 
L 243.133857 103.625451 
L 242.910904 89.51466 
L 242.732841 82.355766 
L 242.812171 72.996919 
L 243.074571 60.752345 
L 243.079331 54.444526 
L 243.079331 54.444526 
" style="fill:none;stroke:#008000;stroke-linecap:square;stroke-width:1.5;"/>
   </g>
   <g id="line2d_14">
    <path clip-path="url(#p54daa79c82)" d="M 244.010992 207.982722 
L 243.901984 190.349994 
L 243.750175 179.777704 
L 243.737657 162.260916 
L 244.17983 148.183501 
L 243.990915 125.784102 
L 243.705116 106.923622 
L 243.559989 96.840998 
L 243.32698 88.904903 
L 243.387264 81.793498 
L 243.551137 76.927009 
L 244.010793 67.944618 
L 243.968313 64.107665 
L 243.691557 62.504283 
L 243.298284 61.486768 
L 242.615069 60.441959 
L 241.956363 59.821922 
L 241.082479 59.308588 
L 240.491799 59.206921 
L 239.756081 59.278856 
L 239.213359 59.447603 
L 237.906453 60.301618 
L 237.250744 60.941716 
L 231.186862 68.12726 
L 230.422256 69.666804 
L 229.955078 71.014072 
L 229.621303 72.517926 
L 229.374422 74.736309 
L 229.381568 77.16016 
L 229.983498 89.236387 
L 229.926218 103.46324 
L 229.704595 133.328434 
L 229.125565 150.915856 
L 229.110896 152.729514 
L 229.169567 159.842417 
L 229.583722 173.654029 
L 229.589061 181.877116 
L 228.806689 233.559643 
L 228.4721 255.30256 
L 227.607205 289.607243 
L 227.554906 292.113555 
L 227.741274 293.273532 
L 228.052329 293.981544 
L 228.613851 294.649738 
L 229.421456 295.224594 
L 230.121408 295.418798 
L 231.284434 295.473927 
L 232.11608 295.280773 
L 233.126724 294.786951 
L 233.781377 294.251252 
L 234.567325 293.229596 
L 234.980502 292.346172 
L 235.313076 291.073891 
L 235.544966 289.306058 
L 235.853367 282.744223 
L 236.690072 258.923134 
L 237.084683 248.336919 
L 237.496727 234.326801 
L 237.841078 225.63743 
L 239.183493 191.729884 
L 240.32541 158.266541 
L 241.334694 147.764779 
L 241.667216 139.151787 
L 242.829108 101.307276 
L 243.140889 93.998443 
L 243.617484 86.951389 
L 244.134389 79.61107 
L 244.609653 70.565216 
L 244.609653 70.565216 
" style="fill:none;stroke:#0000ff;stroke-linecap:square;stroke-width:1.5;"/>
   </g>
   <g id="line2d_15">
    <path clip-path="url(#p54daa79c82)" d="M 244.010992 207.982722 
L 243.904471 190.953424 
L 243.644496 165.76734 
L 243.871811 159.090914 
L 244.154041 149.941679 
L 243.933036 123.492043 
L 243.384001 93.346014 
L 243.295872 87.41234 
L 243.491829 76.925477 
L 243.954262 67.942778 
L 243.90813 64.105455 
L 243.631928 62.502046 
L 243.240963 61.483663 
L 242.562695 60.435662 
L 241.901374 59.818815 
L 240.970359 59.292278 
L 240.14139 59.302131 
L 239.34459 59.430084 
L 238.264232 60.076267 
L 237.326057 60.859812 
L 231.34011 68.125989 
L 230.575829 69.666517 
L 230.116626 71.016454 
L 229.700972 73.060004 
L 229.529423 75.327207 
L 229.596148 77.787272 
L 230.166137 87.102413 
L 230.228894 91.984325 
L 230.127244 131.123995 
L 229.579153 149.713168 
L 229.587509 151.512961 
L 229.579523 157.117566 
L 229.803887 163.649794 
L 230.116557 174.188369 
L 230.108628 183.218432 
L 229.589519 234.772784 
L 229.123585 268.830995 
L 228.668523 285.485701 
L 228.482321 291.700213 
L 228.672545 292.85566 
L 228.974003 293.564701 
L 229.847669 294.711941 
L 230.707464 295.072809 
L 231.857496 295.166729 
L 232.568083 295.067593 
L 233.96329 294.570155 
L 234.621288 294.045522 
L 235.387155 293.010109 
L 236.157643 291.165856 
L 236.359232 289.622665 
L 236.443348 286.844053 
L 236.637698 273.718548 
L 236.794289 250.413515 
L 236.935306 226.240018 
L 237.087567 217.026972 
L 237.411556 184.629752 
L 237.442684 170.980791 
L 237.540623 163.234856 
L 237.513982 159.927761 
L 237.771141 155.791273 
L 238.243923 149.481758 
L 238.359526 133.820609 
L 238.536733 114.138087 
L 238.559636 106.279197 
L 238.486143 97.710662 
L 238.863184 86.361939 
L 239.191663 78.982138 
L 239.394048 70.419632 
L 239.394048 70.419632 
" style="fill:none;stroke:#ff0000;stroke-linecap:square;stroke-width:1.5;"/>
   </g>
   <g id="patch_3">
    <path d="M 57.6 307.584 
L 57.6 41.472 
" style="fill:none;stroke:#000000;stroke-linecap:square;stroke-linejoin:miter;stroke-width:0.8;"/>
   </g>
   <g id="patch_4">
    <path d="M 414.72 307.584 
L 414.72 41.472 
" style="fill:none;stroke:#000000;stroke-linecap:square;stroke-linejoin:miter;stroke-width:0.8;"/>
   </g>
   <g id="patch_5">
    <path d="M 57.6 307.584 
L 414.72 307.584 
" style="fill:none;stroke:#000000;stroke-linecap:square;stroke-linejoin:miter;stroke-width:0.8;"/>
   </g>
   <g id="patch_6">
    <path d="M 57.6 41.472 
L 414.72 41.472 
" style="fill:none;stroke:#000000;stroke-linecap:square;stroke-linejoin:miter;stroke-width:0.8;"/>
   </g>
  </g>
 </g>
 <defs>
  <clipPath id="p54daa79c82">
   <rect height="266.112" width="357.12" x="57.6" y="41.472"/>
  </clipPath>
 </defs>
</svg>
