<?xml version="1.0" encoding="utf-8" standalone="no"?>
<!DOCTYPE svg PUBLIC "-//W3C//DTD SVG 1.1//EN"
  "http://www.w3.org/Graphics/SVG/1.1/DTD/svg11.dtd">
<!-- Created with matplotlib (https://matplotlib.org/) -->
<svg height="345.6pt" version="1.1" viewBox="0 0 460.8 345.6" width="460.8pt" xmlns="http://www.w3.org/2000/svg" xmlns:xlink="http://www.w3.org/1999/xlink">
 <defs>
  <style type="text/css">
*{stroke-linecap:butt;stroke-linejoin:round;}
  </style>
 </defs>
 <g id="figure_1">
  <g id="patch_1">
   <path d="M 0 345.6 
L 460.8 345.6 
L 460.8 0 
L 0 0 
z
" style="fill:#ffffff;"/>
  </g>
  <g id="axes_1">
   <g id="patch_2">
    <path d="M 57.6 307.584 
L 414.72 307.584 
L 414.72 41.472 
L 57.6 41.472 
z
" style="fill:#ffffff;"/>
   </g>
   <g id="matplotlib.axis_1">
    <g id="xtick_1">
     <g id="line2d_1">
      <defs>
       <path d="M 0 0 
L 0 3.5 
" id="mfd60762d0e" style="stroke:#000000;stroke-width:0.8;"/>
      </defs>
      <g>
       <use style="stroke:#000000;stroke-width:0.8;" x="81.46252" xlink:href="#mfd60762d0e" y="307.584"/>
      </g>
     </g>
     <g id="text_1">
      <!-- −300 -->
      <defs>
       <path d="M 10.59375 35.5 
L 73.1875 35.5 
L 73.1875 27.203125 
L 10.59375 27.203125 
z
" id="DejaVuSans-8722"/>
       <path d="M 40.578125 39.3125 
Q 47.65625 37.796875 51.625 33 
Q 55.609375 28.21875 55.609375 21.1875 
Q 55.609375 10.40625 48.1875 4.484375 
Q 40.765625 -1.421875 27.09375 -1.421875 
Q 22.515625 -1.421875 17.65625 -0.515625 
Q 12.796875 0.390625 7.625 2.203125 
L 7.625 11.71875 
Q 11.71875 9.328125 16.59375 8.109375 
Q 21.484375 6.890625 26.8125 6.890625 
Q 36.078125 6.890625 40.9375 10.546875 
Q 45.796875 14.203125 45.796875 21.1875 
Q 45.796875 27.640625 41.28125 31.265625 
Q 36.765625 34.90625 28.71875 34.90625 
L 20.21875 34.90625 
L 20.21875 43.015625 
L 29.109375 43.015625 
Q 36.375 43.015625 40.234375 45.921875 
Q 44.09375 48.828125 44.09375 54.296875 
Q 44.09375 59.90625 40.109375 62.90625 
Q 36.140625 65.921875 28.71875 65.921875 
Q 24.65625 65.921875 20.015625 65.03125 
Q 15.375 64.15625 9.8125 62.3125 
L 9.8125 71.09375 
Q 15.4375 72.65625 20.34375 73.4375 
Q 25.25 74.21875 29.59375 74.21875 
Q 40.828125 74.21875 47.359375 69.109375 
Q 53.90625 64.015625 53.90625 55.328125 
Q 53.90625 49.265625 50.4375 45.09375 
Q 46.96875 40.921875 40.578125 39.3125 
z
" id="DejaVuSans-51"/>
       <path d="M 31.78125 66.40625 
Q 24.171875 66.40625 20.328125 58.90625 
Q 16.5 51.421875 16.5 36.375 
Q 16.5 21.390625 20.328125 13.890625 
Q 24.171875 6.390625 31.78125 6.390625 
Q 39.453125 6.390625 43.28125 13.890625 
Q 47.125 21.390625 47.125 36.375 
Q 47.125 51.421875 43.28125 58.90625 
Q 39.453125 66.40625 31.78125 66.40625 
z
M 31.78125 74.21875 
Q 44.046875 74.21875 50.515625 64.515625 
Q 56.984375 54.828125 56.984375 36.375 
Q 56.984375 17.96875 50.515625 8.265625 
Q 44.046875 -1.421875 31.78125 -1.421875 
Q 19.53125 -1.421875 13.0625 8.265625 
Q 6.59375 17.96875 6.59375 36.375 
Q 6.59375 54.828125 13.0625 64.515625 
Q 19.53125 74.21875 31.78125 74.21875 
z
" id="DejaVuSans-48"/>
      </defs>
      <g transform="translate(67.728926 322.182437)scale(0.1 -0.1)">
       <use xlink:href="#DejaVuSans-8722"/>
       <use x="83.789062" xlink:href="#DejaVuSans-51"/>
       <use x="147.412109" xlink:href="#DejaVuSans-48"/>
       <use x="211.035156" xlink:href="#DejaVuSans-48"/>
      </g>
     </g>
    </g>
    <g id="xtick_2">
     <g id="line2d_2">
      <g>
       <use style="stroke:#000000;stroke-width:0.8;" x="130.217402" xlink:href="#mfd60762d0e" y="307.584"/>
      </g>
     </g>
     <g id="text_2">
      <!-- −200 -->
      <defs>
       <path d="M 19.1875 8.296875 
L 53.609375 8.296875 
L 53.609375 0 
L 7.328125 0 
L 7.328125 8.296875 
Q 12.9375 14.109375 22.625 23.890625 
Q 32.328125 33.6875 34.8125 36.53125 
Q 39.546875 41.84375 41.421875 45.53125 
Q 43.3125 49.21875 43.3125 52.78125 
Q 43.3125 58.59375 39.234375 62.25 
Q 35.15625 65.921875 28.609375 65.921875 
Q 23.96875 65.921875 18.8125 64.3125 
Q 13.671875 62.703125 7.8125 59.421875 
L 7.8125 69.390625 
Q 13.765625 71.78125 18.9375 73 
Q 24.125 74.21875 28.421875 74.21875 
Q 39.75 74.21875 46.484375 68.546875 
Q 53.21875 62.890625 53.21875 53.421875 
Q 53.21875 48.921875 51.53125 44.890625 
Q 49.859375 40.875 45.40625 35.40625 
Q 44.1875 33.984375 37.640625 27.21875 
Q 31.109375 20.453125 19.1875 8.296875 
z
" id="DejaVuSans-50"/>
      </defs>
      <g transform="translate(116.483808 322.182437)scale(0.1 -0.1)">
       <use xlink:href="#DejaVuSans-8722"/>
       <use x="83.789062" xlink:href="#DejaVuSans-50"/>
       <use x="147.412109" xlink:href="#DejaVuSans-48"/>
       <use x="211.035156" xlink:href="#DejaVuSans-48"/>
      </g>
     </g>
    </g>
    <g id="xtick_3">
     <g id="line2d_3">
      <g>
       <use style="stroke:#000000;stroke-width:0.8;" x="178.972284" xlink:href="#mfd60762d0e" y="307.584"/>
      </g>
     </g>
     <g id="text_3">
      <!-- −100 -->
      <defs>
       <path d="M 12.40625 8.296875 
L 28.515625 8.296875 
L 28.515625 63.921875 
L 10.984375 60.40625 
L 10.984375 69.390625 
L 28.421875 72.90625 
L 38.28125 72.90625 
L 38.28125 8.296875 
L 54.390625 8.296875 
L 54.390625 0 
L 12.40625 0 
z
" id="DejaVuSans-49"/>
      </defs>
      <g transform="translate(165.238691 322.182437)scale(0.1 -0.1)">
       <use xlink:href="#DejaVuSans-8722"/>
       <use x="83.789062" xlink:href="#DejaVuSans-49"/>
       <use x="147.412109" xlink:href="#DejaVuSans-48"/>
       <use x="211.035156" xlink:href="#DejaVuSans-48"/>
      </g>
     </g>
    </g>
    <g id="xtick_4">
     <g id="line2d_4">
      <g>
       <use style="stroke:#000000;stroke-width:0.8;" x="227.727167" xlink:href="#mfd60762d0e" y="307.584"/>
      </g>
     </g>
     <g id="text_4">
      <!-- 0 -->
      <g transform="translate(224.545917 322.182437)scale(0.1 -0.1)">
       <use xlink:href="#DejaVuSans-48"/>
      </g>
     </g>
    </g>
    <g id="xtick_5">
     <g id="line2d_5">
      <g>
       <use style="stroke:#000000;stroke-width:0.8;" x="276.482049" xlink:href="#mfd60762d0e" y="307.584"/>
      </g>
     </g>
     <g id="text_5">
      <!-- 100 -->
      <g transform="translate(266.938299 322.182437)scale(0.1 -0.1)">
       <use xlink:href="#DejaVuSans-49"/>
       <use x="63.623047" xlink:href="#DejaVuSans-48"/>
       <use x="127.246094" xlink:href="#DejaVuSans-48"/>
      </g>
     </g>
    </g>
    <g id="xtick_6">
     <g id="line2d_6">
      <g>
       <use style="stroke:#000000;stroke-width:0.8;" x="325.236931" xlink:href="#mfd60762d0e" y="307.584"/>
      </g>
     </g>
     <g id="text_6">
      <!-- 200 -->
      <g transform="translate(315.693181 322.182437)scale(0.1 -0.1)">
       <use xlink:href="#DejaVuSans-50"/>
       <use x="63.623047" xlink:href="#DejaVuSans-48"/>
       <use x="127.246094" xlink:href="#DejaVuSans-48"/>
      </g>
     </g>
    </g>
    <g id="xtick_7">
     <g id="line2d_7">
      <g>
       <use style="stroke:#000000;stroke-width:0.8;" x="373.991814" xlink:href="#mfd60762d0e" y="307.584"/>
      </g>
     </g>
     <g id="text_7">
      <!-- 300 -->
      <g transform="translate(364.448064 322.182437)scale(0.1 -0.1)">
       <use xlink:href="#DejaVuSans-51"/>
       <use x="63.623047" xlink:href="#DejaVuSans-48"/>
       <use x="127.246094" xlink:href="#DejaVuSans-48"/>
      </g>
     </g>
    </g>
   </g>
   <g id="matplotlib.axis_2">
    <g id="ytick_1">
     <g id="line2d_8">
      <defs>
       <path d="M 0 0 
L -3.5 0 
" id="m4de324d1e2" style="stroke:#000000;stroke-width:0.8;"/>
      </defs>
      <g>
       <use style="stroke:#000000;stroke-width:0.8;" x="57.6" xlink:href="#m4de324d1e2" y="286.904746"/>
      </g>
     </g>
     <g id="text_8">
      <!-- 0 -->
      <g transform="translate(44.2375 290.703965)scale(0.1 -0.1)">
       <use xlink:href="#DejaVuSans-48"/>
      </g>
     </g>
    </g>
    <g id="ytick_2">
     <g id="line2d_9">
      <g>
       <use style="stroke:#000000;stroke-width:0.8;" x="57.6" xlink:href="#m4de324d1e2" y="238.149864"/>
      </g>
     </g>
     <g id="text_9">
      <!-- 100 -->
      <g transform="translate(31.5125 241.949082)scale(0.1 -0.1)">
       <use xlink:href="#DejaVuSans-49"/>
       <use x="63.623047" xlink:href="#DejaVuSans-48"/>
       <use x="127.246094" xlink:href="#DejaVuSans-48"/>
      </g>
     </g>
    </g>
    <g id="ytick_3">
     <g id="line2d_10">
      <g>
       <use style="stroke:#000000;stroke-width:0.8;" x="57.6" xlink:href="#m4de324d1e2" y="189.394981"/>
      </g>
     </g>
     <g id="text_10">
      <!-- 200 -->
      <g transform="translate(31.5125 193.1942)scale(0.1 -0.1)">
       <use xlink:href="#DejaVuSans-50"/>
       <use x="63.623047" xlink:href="#DejaVuSans-48"/>
       <use x="127.246094" xlink:href="#DejaVuSans-48"/>
      </g>
     </g>
    </g>
    <g id="ytick_4">
     <g id="line2d_11">
      <g>
       <use style="stroke:#000000;stroke-width:0.8;" x="57.6" xlink:href="#m4de324d1e2" y="140.640099"/>
      </g>
     </g>
     <g id="text_11">
      <!-- 300 -->
      <g transform="translate(31.5125 144.439318)scale(0.1 -0.1)">
       <use xlink:href="#DejaVuSans-51"/>
       <use x="63.623047" xlink:href="#DejaVuSans-48"/>
       <use x="127.246094" xlink:href="#DejaVuSans-48"/>
      </g>
     </g>
    </g>
    <g id="ytick_5">
     <g id="line2d_12">
      <g>
       <use style="stroke:#000000;stroke-width:0.8;" x="57.6" xlink:href="#m4de324d1e2" y="91.885217"/>
      </g>
     </g>
     <g id="text_12">
      <!-- 400 -->
      <defs>
       <path d="M 37.796875 64.3125 
L 12.890625 25.390625 
L 37.796875 25.390625 
z
M 35.203125 72.90625 
L 47.609375 72.90625 
L 47.609375 25.390625 
L 58.015625 25.390625 
L 58.015625 17.1875 
L 47.609375 17.1875 
L 47.609375 0 
L 37.796875 0 
L 37.796875 17.1875 
L 4.890625 17.1875 
L 4.890625 26.703125 
z
" id="DejaVuSans-52"/>
      </defs>
      <g transform="translate(31.5125 95.684435)scale(0.1 -0.1)">
       <use xlink:href="#DejaVuSans-52"/>
       <use x="63.623047" xlink:href="#DejaVuSans-48"/>
       <use x="127.246094" xlink:href="#DejaVuSans-48"/>
      </g>
     </g>
    </g>
    <g id="ytick_6">
     <g id="line2d_13">
      <g>
       <use style="stroke:#000000;stroke-width:0.8;" x="57.6" xlink:href="#m4de324d1e2" y="43.130334"/>
      </g>
     </g>
     <g id="text_13">
      <!-- 500 -->
      <defs>
       <path d="M 10.796875 72.90625 
L 49.515625 72.90625 
L 49.515625 64.59375 
L 19.828125 64.59375 
L 19.828125 46.734375 
Q 21.96875 47.46875 24.109375 47.828125 
Q 26.265625 48.1875 28.421875 48.1875 
Q 40.625 48.1875 47.75 41.5 
Q 54.890625 34.8125 54.890625 23.390625 
Q 54.890625 11.625 47.5625 5.09375 
Q 40.234375 -1.421875 26.90625 -1.421875 
Q 22.3125 -1.421875 17.546875 -0.640625 
Q 12.796875 0.140625 7.71875 1.703125 
L 7.71875 11.625 
Q 12.109375 9.234375 16.796875 8.0625 
Q 21.484375 6.890625 26.703125 6.890625 
Q 35.15625 6.890625 40.078125 11.328125 
Q 45.015625 15.765625 45.015625 23.390625 
Q 45.015625 31 40.078125 35.4375 
Q 35.15625 39.890625 26.703125 39.890625 
Q 22.75 39.890625 18.8125 39.015625 
Q 14.890625 38.140625 10.796875 36.28125 
z
" id="DejaVuSans-53"/>
      </defs>
      <g transform="translate(31.5125 46.929553)scale(0.1 -0.1)">
       <use xlink:href="#DejaVuSans-53"/>
       <use x="63.623047" xlink:href="#DejaVuSans-48"/>
       <use x="127.246094" xlink:href="#DejaVuSans-48"/>
      </g>
     </g>
    </g>
   </g>
   <g id="line2d_14">
    <path clip-path="url(#pc0fce36908)" d="M 227.727167 286.904746 
L 226.143213 259.898546 
L 225.462823 251.079338 
L 225.173957 246.878441 
L 225.321285 245.797853 
L 225.612987 245.046857 
L 226.072881 244.441394 
L 226.826353 243.908791 
L 227.874451 243.546796 
L 229.233577 243.308618 
L 230.898488 243.201713 
L 241.334615 242.781953 
L 244.075981 242.739395 
L 247.074874 242.939398 
L 252.30777 243.440534 
L 253.305962 243.293046 
L 254.216445 242.945297 
L 254.781977 242.566271 
L 255.382126 241.876673 
L 255.780687 241.045314 
L 256.191861 239.427066 
L 256.962808 236.139012 
L 258.24784 230.956026 
L 260.655951 220.861425 
L 261.459641 217.351121 
L 262.04076 214.243875 
L 262.458526 211.09938 
L 262.721179 206.671851 
L 262.804403 202.217848 
L 262.533209 196.410312 
L 261.870362 182.763381 
L 261.521614 170.419521 
L 261.196297 169.547296 
L 260.54811 168.677655 
L 259.896842 168.142131 
L 258.798882 167.663992 
L 257.925775 167.511633 
L 256.436767 167.49023 
L 234.222585 168.656495 
L 227.810213 169.210692 
L 225.082956 169.21703 
L 223.439991 169.005385 
L 222.638556 168.681263 
L 221.960532 168.154905 
L 221.502899 167.567116 
L 221.160089 166.752617 
L 220.904599 165.510391 
L 220.772434 163.357424 
L 220.006899 143.060033 
L 218.552614 115.365015 
L 218.240276 108.975784 
L 218.07489 107.392664 
L 217.774784 106.38139 
L 217.251044 105.47845 
L 216.262866 104.599204 
L 215.621954 104.274253 
L 214.897914 104.074992 
L 214.090928 104.021264 
L 212.339395 104.176841 
L 207.896562 104.614659 
L 203.678114 104.849658 
L 195.684488 105.277043 
L 188.373274 105.673811 
L 178.964094 105.891647 
L 168.773933 106.834664 
L 152.172457 107.368921 
L 143.75673 107.858566 
L 140.481134 108.120282 
L 139.213458 108.40974 
L 138.100628 108.987095 
L 137.546285 109.484785 
L 137.091548 110.097439 
L 136.555732 111.63195 
L 136.455102 113.447777 
L 136.540715 115.778115 
L 137.025534 120.466092 
L 137.579633 126.286987 
L 138.028471 133.200089 
L 139.308628 157.799123 
L 140.230777 172.906264 
L 140.458121 178.355744 
L 140.728565 179.146938 
L 141.293683 180.038567 
L 141.941147 180.663654 
L 142.833752 181.189622 
L 143.925227 181.531735 
L 145.2087 181.717003 
L 148.377036 181.81739 
L 154.908922 181.800374 
L 160.174498 181.51389 
L 167.769241 180.914449 
L 174.665912 180.548007 
L 175.681574 180.158163 
L 176.776608 179.422744 
L 177.640886 178.425024 
L 178.131897 177.525204 
L 178.481372 176.274983 
L 179.094142 173.338476 
L 179.461642 172.545331 
L 180.04125 171.804355 
L 181.110927 171.25201 
L 181.807342 171.026665 
L 184.075926 170.727603 
L 189.142548 170.426444 
L 198.809793 169.916127 
L 208.742089 169.217957 
L 214.462748 168.696718 
L 216.203068 168.738257 
L 217.701135 169.067694 
L 218.416067 169.405127 
L 219.040241 169.89287 
L 219.531115 170.477393 
L 219.93599 171.267076 
L 220.20345 172.250657 
L 220.396466 173.769664 
L 220.49459 176.33656 
L 220.729145 184.908888 
L 221.17708 192.12388 
L 221.600175 199.757725 
L 222.92861 225.573097 
L 223.478381 236.362163 
L 223.681724 238.379251 
L 224.012767 239.493709 
L 224.529339 240.457364 
L 225.212231 241.26005 
L 226.045081 241.880212 
L 227.014456 242.28086 
L 228.024717 242.493056 
L 230.172809 242.665337 
L 236.378691 242.851843 
L 243.876919 242.516005 
L 248.471375 242.883978 
L 253.264623 243.340202 
L 255.348958 243.844561 
L 258.193703 244.826002 
L 263.182185 246.788284 
L 266.588318 248.505845 
L 270.811457 250.795429 
L 272.749375 252.084439 
L 274.884152 253.788871 
L 279.119006 257.261263 
L 282.721406 260.226593 
L 285.033851 262.053029 
L 290.551148 266.10066 
L 305.542738 277.412126 
L 306.715342 278.293404 
L 307.734904 278.767536 
L 308.807511 279.04344 
L 310.25714 279.146473 
L 314.104827 279.166297 
L 320.27071 279.6114 
L 342.141029 281.504655 
L 351.345854 282.268952 
L 355.001397 282.630654 
L 360.55921 283.576525 
L 361.284829 283.37605 
L 362.026439 282.87542 
L 363.408201 279.599738 
L 363.663872 277.668888 
L 363.850262 274.532564 
L 365.16367 256.192122 
L 365.437526 252.700501 
L 366.303803 241.389494 
L 366.794228 237.523115 
L 369.220173 223.123066 
L 370.199464 218.873298 
L 370.153634 217.830333 
L 367.360857 214.271568 
L 366.154564 213.663107 
L 362.381814 211.835432 
L 357.192393 209.02208 
L 354.749773 207.551828 
L 352.05748 205.653995 
L 348.890948 203.483623 
L 345.561769 201.480772 
L 340.473417 198.77902 
L 327.059096 191.539065 
L 326.463458 190.96093 
L 323.897586 188.836436 
L 322.289894 187.761244 
L 310.374152 181.039115 
L 305.756918 178.616339 
L 304.684555 178.249166 
L 303.336092 178.016897 
L 301.633523 178.039373 
L 290.480063 178.764944 
L 274.620368 179.695138 
L 267.205282 180.094733 
L 265.809805 179.889231 
L 264.761648 179.549556 
L 264.051231 179.140454 
L 263.077991 178.148877 
L 262.480412 177.136384 
L 262.14884 176.266889 
L 261.872429 175.003309 
L 261.680062 172.557471 
L 261.414177 164.458797 
L 260.54771 149.309142 
L 259.551775 135.748848 
L 259.04821 131.882146 
L 258.479596 127.52424 
L 258.245256 124.584076 
L 257.749078 110.341018 
L 257.684809 105.041362 
L 256.903809 98.064782 
L 256.856854 93.244971 
L 256.648997 86.988988 
L 255.885023 74.054511 
L 255.413831 70.804608 
L 255.10238 68.838713 
L 255.093082 68.598547 
L 256.830853 65.852184 
L 258.469611 65.490715 
L 260.654352 65.401347 
L 268.194909 64.953339 
L 275.152859 64.581339 
L 290.309324 63.675229 
L 293.288978 63.212009 
L 296.591293 62.472934 
L 299.365202 61.639762 
L 302.787112 60.318358 
L 305.329777 59.164866 
L 308.058246 57.690372 
L 310.508277 56.142063 
L 313.695968 54.039947 
L 314.715043 53.658197 
L 316.11894 53.614902 
L 317.466622 54.097673 
L 318.081665 54.51365 
L 318.936533 55.315668 
L 320.586788 57.237634 
L 333.185001 73.033925 
L 342.88498 84.650167 
L 344.144172 86.274777 
L 346.672503 90.367409 
L 346.689762 91.476046 
L 346.502251 92.234282 
L 346.147949 92.943812 
L 345.466161 93.812527 
L 344.595496 94.613813 
L 343.288329 95.487842 
L 341.698822 96.205465 
L 339.828439 96.769023 
L 337.71628 97.226929 
L 333.359349 97.807015 
L 326.413192 98.516349 
L 318.79451 99.051824 
L 307.501612 99.529232 
L 300.11003 99.795824 
L 299.099732 100.092936 
L 298.101378 100.80232 
L 297.678722 101.368608 
L 297.391019 102.0189 
L 297.135495 103.253618 
L 297.022384 105.88804 
L 297.075185 109.937962 
L 297.478095 118.075689 
L 298.076367 127.933537 
L 300.780849 174.466274 
L 300.566473 175.474427 
L 300.132409 176.378441 
L 299.590498 177.036875 
L 298.878872 177.587854 
L 297.967351 178.029915 
L 296.625909 178.391627 
L 294.728564 178.587817 
L 290.800529 178.717066 
L 282.152827 178.905943 
L 276.471323 179.270288 
L 266.245342 179.757496 
L 265.168284 179.527226 
L 263.992331 178.947482 
L 263.115264 178.149608 
L 262.549756 177.308196 
L 262.043578 176.115944 
L 261.717398 174.653883 
L 261.552739 172.0375 
L 261.357656 170.454771 
L 260.986202 169.264371 
L 260.454062 168.512717 
L 259.759997 167.890263 
L 258.939102 167.461854 
L 257.750789 167.223833 
L 255.899166 167.230025 
L 250.500411 167.462342 
L 245.306744 167.69383 
L 232.927553 168.518958 
L 225.47552 169.096606 
L 223.93664 169.018939 
L 223.07748 168.794472 
L 222.412577 168.436854 
L 221.708728 167.806356 
L 221.132143 166.856806 
L 220.82721 165.828419 
L 220.67881 164.606427 
L 220.434665 156.860933 
L 220.041208 146.45742 
L 219.335623 129.824641 
L 218.679075 115.228208 
L 218.449995 108.401988 
L 218.284706 106.143076 
L 217.996019 105.176755 
L 217.466097 104.389412 
L 216.938794 103.901424 
L 216.290715 103.538395 
L 215.815096 103.328359 
L 213.940866 103.332016 
L 206.682161 104.394482 
L 200.752007 104.811483 
L 188.121455 105.478108 
L 182.964944 105.543976 
L 180.006273 105.64602 
L 175.199827 106.177644 
L 171.204852 106.493917 
L 167.310897 106.657002 
L 155.342743 106.951042 
L 146.622981 107.564769 
L 138.274683 108.178642 
L 130.158311 108.372832 
L 121.92444 108.226909 
L 117.493841 107.918291 
L 113.431974 107.485445 
L 111.289392 106.971812 
L 108.748385 106.381683 
L 107.172091 106.326492 
L 104.48243 106.326931 
L 102.625795 106.104121 
L 101.382595 105.985354 
L 100.377171 106.146245 
L 99.626785 106.437848 
L 99.051087 106.796831 
L 98.491089 107.303345 
L 97.979845 107.960659 
L 97.547828 108.772622 
L 96.897926 110.774742 
L 96.551717 112.774521 
L 96.050907 118.664892 
L 95.596902 125.479557 
L 95.46463 131.259937 
L 95.586468 136.336978 
L 95.923267 141.335329 
L 96.507448 146.957694 
L 97.330138 152.707553 
L 98.183641 157.382561 
L 99.404999 162.72873 
L 100.699441 167.436745 
L 102.342139 172.676531 
L 104.199164 177.837821 
L 107.109441 185.096692 
L 109.318671 189.998703 
L 111.426198 194.222095 
L 114.502924 199.850798 
L 118.608621 206.594428 
L 121.695975 211.083583 
L 125.591685 216.321954 
L 128.961281 220.439939 
L 132.547203 224.487033 
L 136.396157 228.463823 
L 140.500099 232.356949 
L 208.047649 292.852213 
L 209.969069 294.219788 
L 211.2759 294.902147 
L 212.626868 295.329815 
L 213.996125 295.488 
L 215.321424 295.357366 
L 216.564546 294.950151 
L 217.681394 294.330798 
L 222.083896 291.520283 
L 225.611224 289.481547 
L 226.348363 288.590179 
L 226.937679 287.478657 
L 227.331187 286.213819 
L 227.488141 284.614511 
L 227.448904 281.970815 
L 226.967401 272.599082 
L 226.160842 260.66468 
L 225.386526 246.859217 
L 225.004728 239.631261 
L 225.004728 239.631261 
" style="fill:none;stroke:#008000;stroke-linecap:square;stroke-width:1.5;"/>
   </g>
   <g id="line2d_15">
    <path clip-path="url(#pc0fce36908)" d="M 227.727167 286.904746 
L 227.589604 282.884529 
L 227.026304 273.848116 
L 226.32227 263.477271 
L 225.119526 248.202119 
L 225.334332 247.434344 
L 225.722776 246.858464 
L 226.25674 246.461873 
L 226.962083 246.205183 
L 228.538098 245.906177 
L 230.478229 245.771838 
L 238.606548 245.349407 
L 243.74725 245.080587 
L 246.841178 245.216764 
L 252.171756 245.620503 
L 253.273434 245.418638 
L 254.195656 244.966558 
L 254.779831 244.344247 
L 255.206834 243.554787 
L 255.569731 242.123749 
L 256.340034 238.602878 
L 257.453486 233.901085 
L 260.658731 219.538916 
L 261.24746 215.786975 
L 261.55559 211.859262 
L 261.705348 206.178296 
L 261.578848 203.222721 
L 260.763206 186.465122 
L 260.671404 180.159715 
L 260.419291 175.117458 
L 260.138188 174.1559 
L 259.605913 173.296323 
L 259.040732 172.72479 
L 258.224259 172.334694 
L 257.401585 172.200958 
L 255.502432 172.252417 
L 250.803907 172.460054 
L 244.593933 172.758609 
L 240.407206 173.007704 
L 234.208435 173.428396 
L 229.071572 173.781136 
L 227.453269 173.680494 
L 226.729621 173.411857 
L 226.208972 172.993381 
L 225.810555 172.36978 
L 225.460835 171.39478 
L 225.233656 170.065376 
L 225.127603 167.906124 
L 224.599387 153.629447 
L 224.157985 145.776373 
L 223.402315 131.563047 
L 222.995921 123.202747 
L 222.351159 113.861892 
L 222.025072 112.993378 
L 221.545427 112.199432 
L 220.625274 111.319076 
L 220.339037 111.136069 
L 218.145026 110.115062 
L 217.19972 109.924374 
L 215.50953 109.967183 
L 211.851488 110.31324 
L 206.716268 110.624605 
L 198.11343 111.113322 
L 191.162856 111.482386 
L 187.201342 111.441595 
L 184.077603 111.549776 
L 174.297174 112.359767 
L 164.309659 112.515037 
L 159.358069 112.779672 
L 152.828437 113.15532 
L 147.611601 113.483859 
L 146.227819 113.801759 
L 145.207706 114.280246 
L 144.421906 114.945979 
L 143.854354 115.766754 
L 143.448741 116.903174 
L 143.308401 118.04142 
L 143.276127 120.615462 
L 143.525353 124.280121 
L 144.181167 132.375925 
L 144.724273 145.381402 
L 144.945974 151.655155 
L 146.448302 184.033823 
L 146.839276 184.870308 
L 147.438573 185.688833 
L 148.057078 186.170116 
L 149.112528 186.623552 
L 150.34949 186.867677 
L 152.391295 186.995855 
L 158.98664 187.064641 
L 163.73871 186.937495 
L 174.045306 186.333456 
L 180.038376 186.206746 
L 181.097375 185.846516 
L 181.876819 185.417381 
L 182.639197 184.659171 
L 183.235359 183.713559 
L 183.647501 182.580295 
L 184.475726 179.478705 
L 185.040325 178.650692 
L 185.546829 178.282067 
L 186.472764 177.946586 
L 188.0733 177.74709 
L 191.843872 177.572703 
L 198.443484 177.456019 
L 203.824765 177.327765 
L 210.977358 177.017789 
L 218.772943 176.632929 
L 220.884439 176.778567 
L 221.879132 177.044515 
L 222.472946 177.383837 
L 223.131356 178.054883 
L 223.497755 178.912916 
L 223.693149 180.046858 
L 223.780803 182.360716 
L 223.800955 192.330275 
L 224.263094 207.333716 
L 224.715227 230.567957 
L 224.93616 239.869251 
L 225.098415 243.718996 
L 225.407732 244.882105 
L 225.887032 245.863118 
L 226.442656 246.499991 
L 227.331279 247.198166 
L 228.302916 247.619201 
L 229.375528 247.846975 
L 231.801825 248.044995 
L 237.728202 248.292258 
L 245.351451 248.168801 
L 251.225551 248.753958 
L 254.931748 249.222721 
L 256.955423 249.749755 
L 260.084281 250.925277 
L 264.59773 252.84195 
L 268.786127 255.136259 
L 272.037077 257.042802 
L 274.331801 258.695481 
L 276.613468 260.689935 
L 279.998844 263.602377 
L 283.453925 266.621389 
L 285.701641 268.519616 
L 291.158442 272.803544 
L 305.712291 284.542511 
L 306.865637 285.444242 
L 307.908438 285.948818 
L 309.032915 286.275503 
L 310.510621 286.445211 
L 315.141999 286.724805 
L 323.968359 287.733359 
L 334.887409 289.076958 
L 357.005742 291.895522 
L 360.078226 292.586777 
L 360.719077 292.441334 
L 361.455312 292.057259 
L 361.91352 291.57553 
L 362.347629 290.855483 
L 362.844277 289.455028 
L 363.197267 287.962383 
L 363.544229 285.042893 
L 364.158872 278.87911 
L 368.019144 247.68765 
L 370.722495 234.078831 
L 371.970763 229.184225 
L 371.907527 228.170309 
L 371.584816 227.079612 
L 370.984527 226.05014 
L 370.134434 225.162627 
L 369.043832 224.393182 
L 359.566291 218.818878 
L 357.326674 217.300754 
L 354.427441 215.016856 
L 351.070759 212.552313 
L 347.828714 210.462393 
L 331.737463 200.781578 
L 327.524559 197.288524 
L 324.150262 195.159159 
L 318.850422 191.876524 
L 313.397957 188.534628 
L 311.90607 187.792599 
L 310.634844 187.420204 
L 309.314579 187.286162 
L 306.297858 187.342083 
L 300.399167 187.384781 
L 294.310899 187.32205 
L 282.876233 187.367813 
L 275.326118 187.282855 
L 274.45421 186.975892 
L 273.792772 186.501684 
L 273.139231 185.652049 
L 272.72984 184.817869 
L 272.353984 183.564808 
L 272.19624 182.167414 
L 272.210874 179.635306 
L 272.336413 172.551675 
L 272.337865 150.832078 
L 272.260935 144.497004 
L 271.952423 139.893078 
L 271.675323 135.205178 
L 271.632883 131.318734 
L 271.696552 124.945141 
L 271.896998 119.234446 
L 272.101035 114.861013 
L 271.858085 112.044587 
L 271.657624 108.421803 
L 271.728454 105.196535 
L 271.945607 98.633177 
L 271.976312 84.988165 
L 271.785429 81.41774 
L 271.489897 77.952874 
L 271.685573 77.241824 
L 272.210623 76.509337 
L 272.693061 76.148431 
L 273.489159 75.837746 
L 274.321086 75.721267 
L 275.538842 75.689923 
L 280.389762 75.692912 
L 307.936503 75.271918 
L 311.340184 74.816413 
L 314.649484 74.131418 
L 317.414821 73.339557 
L 320.487985 72.256811 
L 322.660753 71.343272 
L 326.029137 69.595972 
L 328.47068 68.103104 
L 330.195256 67.191435 
L 330.892474 67.044581 
L 331.738863 67.089872 
L 332.534872 67.335333 
L 333.413913 67.844252 
L 334.243859 68.600268 
L 335.510812 70.128038 
L 337.684337 73.183242 
L 345.623521 84.329901 
L 354.785184 96.666294 
L 359.179592 102.539417 
L 359.982371 103.944714 
L 360.317738 104.963537 
L 360.36198 105.757299 
L 360.202927 106.455418 
L 359.698958 107.241128 
L 358.981134 108.002914 
L 357.887366 108.818519 
L 356.688026 109.439322 
L 354.986935 110.031497 
L 352.336455 110.585689 
L 350.160404 110.847061 
L 343.763284 111.262851 
L 336.784996 111.459484 
L 329.082419 111.506714 
L 322.970974 111.459657 
L 315.970304 111.424849 
L 314.937143 111.780703 
L 314.261851 112.203762 
L 313.71578 112.777283 
L 313.336139 113.398728 
L 312.996054 114.375622 
L 312.756488 115.8907 
L 312.559561 118.491503 
L 312.444197 122.027797 
L 312.389747 134.662856 
L 312.312761 142.604105 
L 312.241903 154.221865 
L 312.177884 169.634733 
L 312.194392 179.885874 
L 312.156211 182.606257 
L 311.894598 183.5455 
L 311.395505 184.402917 
L 310.670248 185.115347 
L 309.721429 185.634034 
L 308.914338 185.860591 
L 307.644266 186.010475 
L 304.529411 186.053741 
L 295.035472 185.890027 
L 289.620967 185.905174 
L 284.033381 185.938107 
L 281.04568 185.914509 
L 280.029536 185.697274 
L 279.280299 185.294622 
L 278.669942 184.658747 
L 278.265119 183.863371 
L 277.883538 182.629906 
L 277.713232 181.158618 
L 277.470855 176.632912 
L 277.012418 175.758536 
L 276.567741 175.236386 
L 275.834482 174.907689 
L 274.846487 174.741162 
L 270.632144 174.624101 
L 257.909454 174.456407 
L 244.039116 174.599547 
L 243.228183 174.35092 
L 242.599928 173.931014 
L 242.323029 173.610062 
L 241.845594 172.683303 
L 241.57828 171.544541 
L 241.518701 170.312594 
L 242.019452 143.784574 
L 242.348354 113.168107 
L 241.963571 112.17141 
L 241.421939 111.49015 
L 240.815078 110.967653 
L 240.291338 110.743131 
L 239.150236 110.711896 
L 235.000058 111.101079 
L 232.326786 111.165895 
L 220.536975 110.984651 
L 210.034628 110.656736 
L 206.442618 110.529638 
L 197.356481 110.690566 
L 193.458112 110.49074 
L 185.230014 110.049269 
L 170.953872 109.946256 
L 167.317668 109.896859 
L 158.8986 109.434776 
L 153.323565 108.949831 
L 148.521702 108.341756 
L 143.370121 107.449781 
L 141.280716 106.861621 
L 138.449459 105.953573 
L 137.116989 105.799392 
L 135.274862 105.650349 
L 132.122748 105.178767 
L 131.173385 105.361586 
L 130.324134 105.724551 
L 129.401583 106.383977 
L 129.126132 106.713881 
L 128.915605 107.044465 
L 127.109516 110.31033 
L 126.538405 111.96677 
L 126.171108 113.619998 
L 125.117744 120.259376 
L 124.327598 126.264213 
L 123.898713 131.507518 
L 123.752399 136.596797 
L 123.822543 142.316145 
L 124.160921 148.36657 
L 124.710713 153.689048 
L 125.670006 159.524097 
L 126.827775 164.835079 
L 128.284896 170.368998 
L 130.802728 178.678022 
L 132.12883 182.48666 
L 133.891003 187.02901 
L 135.760788 191.394112 
L 137.675476 195.487904 
L 140.743657 201.374231 
L 143.080273 205.374842 
L 146.289787 210.492602 
L 149.224709 214.689901 
L 151.830566 218.147406 
L 154.927679 221.902394 
L 158.133494 225.504281 
L 164.621139 232.28507 
L 170.11919 238.092101 
L 188.336868 257.38683 
L 219.382738 289.582333 
L 220.769171 290.638315 
L 221.518982 291.020627 
L 222.595656 291.300968 
L 223.991139 291.360444 
L 224.94513 291.173257 
L 226.167327 290.631727 
L 230.527075 288.32204 
L 233.641781 286.889748 
L 234.426829 286.174479 
L 235.149121 285.221201 
L 235.708239 284.100972 
L 236.055147 283.020281 
L 236.343227 281.098851 
L 236.689312 274.921949 
L 236.826744 270.026291 
L 237.310141 252.697275 
L 237.848724 238.436008 
L 237.848724 238.436008 
" style="fill:none;stroke:#0000ff;stroke-linecap:square;stroke-width:1.5;"/>
   </g>
   <g id="line2d_16">
    <path clip-path="url(#pc0fce36908)" d="M 227.727167 286.904746 
L 227.591903 282.884412 
L 226.999155 273.373621 
L 226.349918 263.942394 
L 225.499047 253.910084 
L 225.05578 248.57624 
L 225.248483 247.577305 
L 225.606776 246.954966 
L 226.118716 246.518783 
L 226.692046 246.24042 
L 228.279305 245.921855 
L 230.440397 245.762993 
L 236.57612 245.506806 
L 244.105223 245.135456 
L 247.163158 245.31633 
L 251.646574 245.73149 
L 252.851912 245.618074 
L 253.449594 245.41542 
L 253.724457 245.249668 
L 254.056199 245.26456 
L 254.169078 245.228273 
L 254.38936 245.280966 
L 255.080516 244.241546 
L 255.427164 242.965484 
L 260.617904 218.574804 
L 261.031988 215.1098 
L 261.250506 210.755544 
L 261.291687 207.100782 
L 261.122967 203.735153 
L 260.11738 187.026336 
L 259.939636 180.384464 
L 259.694434 175.97252 
L 259.447082 174.97356 
L 258.968876 174.093519 
L 258.250076 173.328388 
L 257.429775 172.945534 
L 256.606288 172.818618 
L 254.709068 172.887675 
L 249.539692 173.165436 
L 243.813447 173.498906 
L 238.460876 173.858747 
L 233.110344 174.319819 
L 229.064589 174.667051 
L 226.891769 174.658453 
L 226.134395 174.450359 
L 225.57011 174.104436 
L 225.146784 173.555824 
L 224.731107 172.622991 
L 224.440803 171.312453 
L 224.292745 169.22978 
L 223.225739 149.245801 
L 222.11153 132.629711 
L 221.568666 123.843712 
L 220.827626 114.973739 
L 220.490457 114.110476 
L 219.864196 113.165602 
L 218.838652 112.211828 
L 216.615735 111.255006 
L 215.708079 110.980469 
L 215.123312 111.245468 
L 215.219572 110.983888 
L 209.508009 111.72204 
L 204.490799 112.166511 
L 198.039949 112.767991 
L 192.08913 113.375982 
L 187.679396 113.549805 
L 183.8946 113.720601 
L 178.80199 114.439448 
L 174.700486 114.897787 
L 171.638208 115.035201 
L 164.842333 115.372597 
L 157.642887 116.020437 
L 152.058747 116.541987 
L 146.857153 117.059188 
L 145.486533 117.427882 
L 144.486718 117.946384 
L 143.899175 118.453441 
L 143.130945 119.412834 
L 142.781632 120.566141 
L 142.70277 121.707982 
L 142.809867 124.276665 
L 143.311333 128.314233 
L 144.236021 135.109539 
L 144.952638 142.235949 
L 147.026904 165.267558 
L 148.698706 181.5884 
L 149.022145 186.448041 
L 149.343625 187.557423 
L 149.992963 188.614776 
L 150.646314 189.232881 
L 150.983475 189.44865 
L 152.061099 189.846761 
L 153.310275 190.020254 
L 155.356436 190.031643 
L 161.946705 189.729555 
L 166.68524 189.339765 
L 177.245645 188.136104 
L 182.650459 187.77662 
L 183.7111 187.406737 
L 184.723462 186.843656 
L 185.45232 186.054467 
L 186.014444 185.088853 
L 186.363937 183.936277 
L 187.024104 180.798431 
L 187.542431 179.942178 
L 188.027293 179.546208 
L 188.932609 179.15855 
L 190.520105 178.874239 
L 194.276101 178.5007 
L 200.860283 178.034991 
L 206.97792 177.565924 
L 216.910052 176.561764 
L 221.120651 176.17473 
L 223.237065 176.209002 
L 224.244616 176.422171 
L 224.855685 176.72966 
L 225.480511 177.287926 
L 225.89876 178.061386 
L 226.173303 179.095645 
L 226.386833 180.919131 
L 226.622904 185.789553 
L 227.019707 191.580471 
L 229.009287 215.835891 
L 231.173539 242.138542 
L 231.458121 243.384029 
L 231.928051 244.452639 
L 232.558346 245.27627 
L 233.484019 245.991936 
L 234.457615 246.423983 
L 235.526712 246.636273 
L 237.669999 246.72686 
L 243.75673 246.674618 
L 247.604352 246.291597 
L 250.505345 246.108692 
L 253.402246 246.175655 
L 262.201081 246.753073 
L 264.229906 247.254984 
L 267.879608 248.455256 
L 271.240991 249.69363 
L 274.70486 251.328346 
L 278.914766 253.454843 
L 281.300227 254.975061 
L 283.696754 256.831335 
L 286.956461 259.329707 
L 290.065021 261.701627 
L 293.233639 264.111718 
L 299.324171 268.340054 
L 315.899252 280.014865 
L 317.262868 280.422546 
L 318.434752 280.546579 
L 321.710849 280.523281 
L 325.088356 280.646397 
L 330.286282 280.95848 
L 336.594338 281.416998 
L 364.922166 283.341538 
L 367.559097 283.88216 
L 368.662261 284.02268 
L 369.516395 283.838879 
L 370.14242 283.492931 
L 370.660242 282.90999 
L 371.053456 282.168433 
L 371.463183 280.741527 
L 371.723705 279.231416 
L 371.889298 276.298662 
L 372.096296 270.608158 
L 373.834048 240.667397 
L 374.360479 236.417796 
L 376.361309 223.013027 
L 376.82837 220.817361 
L 376.838323 219.847312 
L 376.651886 218.825502 
L 376.201624 217.771645 
L 375.460198 216.789674 
L 374.508818 216.004187 
L 373.337845 215.350435 
L 367.108181 212.307891 
L 362.58684 209.882223 
L 360.309914 208.442289 
L 355.339202 205.136601 
L 351.526746 203.012758 
L 334.757806 194.389042 
L 330.125222 191.099802 
L 324.341655 188.011119 
L 314.408849 182.917821 
L 313.11258 182.586245 
L 311.807091 182.493808 
L 309.12678 182.70769 
L 301.755802 183.246042 
L 295.098638 183.666724 
L 288.034573 184.175206 
L 278.008708 184.765548 
L 277.084049 184.600359 
L 276.275042 184.23581 
L 275.288346 183.334506 
L 274.83606 182.523129 
L 274.395805 181.291851 
L 274.16068 179.906824 
L 274.036266 177.380728 
L 273.779482 170.308918 
L 273.136852 158.011591 
L 272.390762 145.24653 
L 271.873637 139.620377 
L 270.949313 131.17294 
L 270.436804 119.372094 
L 270.47151 114.906686 
L 270.408508 112.777787 
L 270.015013 109.98122 
L 269.620985 106.37782 
L 269.528873 103.15719 
L 269.431098 97.621631 
L 269.063436 90.012982 
L 268.256507 79.084652 
L 267.8219 76.194033 
L 267.984018 75.274595 
L 268.528251 74.187457 
L 269.160244 73.861878 
L 269.950867 73.651463 
L 271.606632 73.580939 
L 276.455302 73.592648 
L 303.986546 73.182823 
L 307.387891 72.728592 
L 310.694631 72.043419 
L 313.457353 71.252301 
L 316.888259 70.029272 
L 319.405013 68.915511 
L 322.05954 67.512029 
L 324.496248 66.019991 
L 326.217743 65.109161 
L 326.914705 64.963745 
L 328.130035 64.954683 
L 329.243225 65.37808 
L 330.058836 66.09605 
L 331.259681 67.586947 
L 333.547864 70.998547 
L 340.042726 80.82191 
L 352.190657 98.273305 
L 354.245512 101.348092 
L 354.927287 102.738575 
L 355.14463 103.704606 
L 354.808754 105.186241 
L 354.216552 105.975359 
L 353.665047 106.507526 
L 352.553698 107.293855 
L 351.341181 107.8816 
L 349.629232 108.431613 
L 347.355543 108.869893 
L 344.790449 109.128476 
L 338.390092 109.398537 
L 331.413867 109.422809 
L 321.175444 109.206084 
L 313.799962 108.813904 
L 311.797624 108.755681 
L 310.367069 108.906059 
L 309.577188 109.170805 
L 308.69261 109.726624 
L 308.05886 110.517897 
L 307.692898 111.290356 
L 307.389465 112.458384 
L 307.031026 115.198175 
L 306.720747 119.320469 
L 306.167523 132.439345 
L 305.820715 140.362599 
L 305.370627 150.460801 
L 304.729669 166.385372 
L 304.326153 176.781363 
L 304.200448 179.625989 
L 304.100129 180.58532 
L 303.916522 181.102328 
L 303.101946 182.087487 
L 302.257573 182.584746 
L 301.217953 182.86564 
L 299.98479 182.943711 
L 296.961621 182.746142 
L 279.688318 181.049204 
L 272.954293 180.50221 
L 272.009898 180.148627 
L 271.334315 179.630799 
L 270.967692 179.148176 
L 270.630691 178.322073 
L 270.33977 177.064518 
L 270.280258 175.58574 
L 270.392927 171.057078 
L 270.002595 170.150629 
L 269.620402 169.583523 
L 268.9133 169.202185 
L 267.605396 168.862231 
L 262.654109 168.393601 
L 257.945489 167.991202 
L 248.667404 167.346381 
L 237.432236 166.606455 
L 236.796433 166.292409 
L 236.21289 165.778219 
L 235.881656 165.129733 
L 235.316472 163.575641 
L 235.349461 162.343568 
L 238.079469 132.913412 
L 240.06748 110.628019 
L 240.460911 106.526056 
L 240.356093 105.218991 
L 239.959416 104.088989 
L 239.21088 103.222209 
L 238.037339 102.517324 
L 229.867471 101.684152 
L 212.686754 98.624838 
L 204.201928 96.965536 
L 199.708449 96.386016 
L 193.845998 95.277248 
L 180.394745 92.547001 
L 165.580823 90.111288 
L 158.505889 88.579482 
L 151.524784 86.799338 
L 148.048996 85.726248 
L 143.467218 84.122032 
L 141.701053 83.230149 
L 139.514171 82.140379 
L 138.231105 81.77931 
L 136.125844 81.241191 
L 134.649784 80.671043 
L 133.757759 80.419832 
L 132.672438 80.384147 
L 131.071374 80.696195 
L 130.215831 81.26892 
L 129.95066 81.553443 
L 127.610363 84.428611 
L 126.772166 85.95975 
L 125.987926 87.938363 
L 122.38124 99.088329 
L 120.999519 104.192334 
L 119.889974 109.228194 
L 118.683149 115.921907 
L 117.985194 120.872861 
L 117.457697 126.17095 
L 117.167203 132.554864 
L 117.259935 137.989363 
L 117.636769 144.287047 
L 118.373705 151.826473 
L 119.101041 157.086022 
L 120.011068 162.225734 
L 121.467536 168.93117 
L 123.211592 175.137683 
L 124.963394 180.326101 
L 127.117479 186.017406 
L 129.626461 191.768755 
L 131.992795 196.554267 
L 134.806422 201.618007 
L 138.217 207.209745 
L 152.534721 230.108027 
L 165.998896 251.562756 
L 183.443499 278.899518 
L 184.514203 280.020068 
L 185.224428 280.493729 
L 186.208156 280.905593 
L 187.559461 281.174105 
L 188.826879 281.112497 
L 190.771593 280.490944 
L 193.730333 279.581151 
L 197.719454 278.486487 
L 198.842211 277.615119 
L 199.580154 276.753824 
L 200.2846 275.598659 
L 200.839575 274.154389 
L 201.481248 271.650618 
L 203.095855 264.683989 
L 206.362766 249.086098 
L 210.19722 231.8895 
L 210.19722 231.8895 
" style="fill:none;stroke:#ff0000;stroke-linecap:square;stroke-width:1.5;"/>
   </g>
   <g id="patch_3">
    <path d="M 57.6 307.584 
L 57.6 41.472 
" style="fill:none;stroke:#000000;stroke-linecap:square;stroke-linejoin:miter;stroke-width:0.8;"/>
   </g>
   <g id="patch_4">
    <path d="M 414.72 307.584 
L 414.72 41.472 
" style="fill:none;stroke:#000000;stroke-linecap:square;stroke-linejoin:miter;stroke-width:0.8;"/>
   </g>
   <g id="patch_5">
    <path d="M 57.6 307.584 
L 414.72 307.584 
" style="fill:none;stroke:#000000;stroke-linecap:square;stroke-linejoin:miter;stroke-width:0.8;"/>
   </g>
   <g id="patch_6">
    <path d="M 57.6 41.472 
L 414.72 41.472 
" style="fill:none;stroke:#000000;stroke-linecap:square;stroke-linejoin:miter;stroke-width:0.8;"/>
   </g>
  </g>
 </g>
 <defs>
  <clipPath id="pc0fce36908">
   <rect height="266.112" width="357.12" x="57.6" y="41.472"/>
  </clipPath>
 </defs>
</svg>
