<?xml version="1.0" encoding="utf-8" standalone="no"?>
<!DOCTYPE svg PUBLIC "-//W3C//DTD SVG 1.1//EN"
  "http://www.w3.org/Graphics/SVG/1.1/DTD/svg11.dtd">
<!-- Created with matplotlib (https://matplotlib.org/) -->
<svg height="345.6pt" version="1.1" viewBox="0 0 460.8 345.6" width="460.8pt" xmlns="http://www.w3.org/2000/svg" xmlns:xlink="http://www.w3.org/1999/xlink">
 <defs>
  <style type="text/css">
*{stroke-linecap:butt;stroke-linejoin:round;}
  </style>
 </defs>
 <g id="figure_1">
  <g id="patch_1">
   <path d="M 0 345.6 
L 460.8 345.6 
L 460.8 0 
L 0 0 
z
" style="fill:#ffffff;"/>
  </g>
  <g id="axes_1">
   <g id="patch_2">
    <path d="M 57.6 307.584 
L 414.72 307.584 
L 414.72 41.472 
L 57.6 41.472 
z
" style="fill:#ffffff;"/>
   </g>
   <g id="matplotlib.axis_1">
    <g id="xtick_1">
     <g id="line2d_1">
      <defs>
       <path d="M 0 0 
L 0 3.5 
" id="m06e84e76e4" style="stroke:#000000;stroke-width:0.8;"/>
      </defs>
      <g>
       <use style="stroke:#000000;stroke-width:0.8;" x="59.875135" xlink:href="#m06e84e76e4" y="307.584"/>
      </g>
     </g>
     <g id="text_1">
      <!-- −25 -->
      <defs>
       <path d="M 10.59375 35.5 
L 73.1875 35.5 
L 73.1875 27.203125 
L 10.59375 27.203125 
z
" id="DejaVuSans-8722"/>
       <path d="M 19.1875 8.296875 
L 53.609375 8.296875 
L 53.609375 0 
L 7.328125 0 
L 7.328125 8.296875 
Q 12.9375 14.109375 22.625 23.890625 
Q 32.328125 33.6875 34.8125 36.53125 
Q 39.546875 41.84375 41.421875 45.53125 
Q 43.3125 49.21875 43.3125 52.78125 
Q 43.3125 58.59375 39.234375 62.25 
Q 35.15625 65.921875 28.609375 65.921875 
Q 23.96875 65.921875 18.8125 64.3125 
Q 13.671875 62.703125 7.8125 59.421875 
L 7.8125 69.390625 
Q 13.765625 71.78125 18.9375 73 
Q 24.125 74.21875 28.421875 74.21875 
Q 39.75 74.21875 46.484375 68.546875 
Q 53.21875 62.890625 53.21875 53.421875 
Q 53.21875 48.921875 51.53125 44.890625 
Q 49.859375 40.875 45.40625 35.40625 
Q 44.1875 33.984375 37.640625 27.21875 
Q 31.109375 20.453125 19.1875 8.296875 
z
" id="DejaVuSans-50"/>
       <path d="M 10.796875 72.90625 
L 49.515625 72.90625 
L 49.515625 64.59375 
L 19.828125 64.59375 
L 19.828125 46.734375 
Q 21.96875 47.46875 24.109375 47.828125 
Q 26.265625 48.1875 28.421875 48.1875 
Q 40.625 48.1875 47.75 41.5 
Q 54.890625 34.8125 54.890625 23.390625 
Q 54.890625 11.625 47.5625 5.09375 
Q 40.234375 -1.421875 26.90625 -1.421875 
Q 22.3125 -1.421875 17.546875 -0.640625 
Q 12.796875 0.140625 7.71875 1.703125 
L 7.71875 11.625 
Q 12.109375 9.234375 16.796875 8.0625 
Q 21.484375 6.890625 26.703125 6.890625 
Q 35.15625 6.890625 40.078125 11.328125 
Q 45.015625 15.765625 45.015625 23.390625 
Q 45.015625 31 40.078125 35.4375 
Q 35.15625 39.890625 26.703125 39.890625 
Q 22.75 39.890625 18.8125 39.015625 
Q 14.890625 38.140625 10.796875 36.28125 
z
" id="DejaVuSans-53"/>
      </defs>
      <g transform="translate(49.322791 322.182437)scale(0.1 -0.1)">
       <use xlink:href="#DejaVuSans-8722"/>
       <use x="83.789062" xlink:href="#DejaVuSans-50"/>
       <use x="147.412109" xlink:href="#DejaVuSans-53"/>
      </g>
     </g>
    </g>
    <g id="xtick_2">
     <g id="line2d_2">
      <g>
       <use style="stroke:#000000;stroke-width:0.8;" x="127.597563" xlink:href="#m06e84e76e4" y="307.584"/>
      </g>
     </g>
     <g id="text_2">
      <!-- −20 -->
      <defs>
       <path d="M 31.78125 66.40625 
Q 24.171875 66.40625 20.328125 58.90625 
Q 16.5 51.421875 16.5 36.375 
Q 16.5 21.390625 20.328125 13.890625 
Q 24.171875 6.390625 31.78125 6.390625 
Q 39.453125 6.390625 43.28125 13.890625 
Q 47.125 21.390625 47.125 36.375 
Q 47.125 51.421875 43.28125 58.90625 
Q 39.453125 66.40625 31.78125 66.40625 
z
M 31.78125 74.21875 
Q 44.046875 74.21875 50.515625 64.515625 
Q 56.984375 54.828125 56.984375 36.375 
Q 56.984375 17.96875 50.515625 8.265625 
Q 44.046875 -1.421875 31.78125 -1.421875 
Q 19.53125 -1.421875 13.0625 8.265625 
Q 6.59375 17.96875 6.59375 36.375 
Q 6.59375 54.828125 13.0625 64.515625 
Q 19.53125 74.21875 31.78125 74.21875 
z
" id="DejaVuSans-48"/>
      </defs>
      <g transform="translate(117.045219 322.182437)scale(0.1 -0.1)">
       <use xlink:href="#DejaVuSans-8722"/>
       <use x="83.789062" xlink:href="#DejaVuSans-50"/>
       <use x="147.412109" xlink:href="#DejaVuSans-48"/>
      </g>
     </g>
    </g>
    <g id="xtick_3">
     <g id="line2d_3">
      <g>
       <use style="stroke:#000000;stroke-width:0.8;" x="195.31999" xlink:href="#m06e84e76e4" y="307.584"/>
      </g>
     </g>
     <g id="text_3">
      <!-- −15 -->
      <defs>
       <path d="M 12.40625 8.296875 
L 28.515625 8.296875 
L 28.515625 63.921875 
L 10.984375 60.40625 
L 10.984375 69.390625 
L 28.421875 72.90625 
L 38.28125 72.90625 
L 38.28125 8.296875 
L 54.390625 8.296875 
L 54.390625 0 
L 12.40625 0 
z
" id="DejaVuSans-49"/>
      </defs>
      <g transform="translate(184.767646 322.182437)scale(0.1 -0.1)">
       <use xlink:href="#DejaVuSans-8722"/>
       <use x="83.789062" xlink:href="#DejaVuSans-49"/>
       <use x="147.412109" xlink:href="#DejaVuSans-53"/>
      </g>
     </g>
    </g>
    <g id="xtick_4">
     <g id="line2d_4">
      <g>
       <use style="stroke:#000000;stroke-width:0.8;" x="263.042418" xlink:href="#m06e84e76e4" y="307.584"/>
      </g>
     </g>
     <g id="text_4">
      <!-- −10 -->
      <g transform="translate(252.490074 322.182437)scale(0.1 -0.1)">
       <use xlink:href="#DejaVuSans-8722"/>
       <use x="83.789062" xlink:href="#DejaVuSans-49"/>
       <use x="147.412109" xlink:href="#DejaVuSans-48"/>
      </g>
     </g>
    </g>
    <g id="xtick_5">
     <g id="line2d_5">
      <g>
       <use style="stroke:#000000;stroke-width:0.8;" x="330.764845" xlink:href="#m06e84e76e4" y="307.584"/>
      </g>
     </g>
     <g id="text_5">
      <!-- −5 -->
      <g transform="translate(323.393751 322.182437)scale(0.1 -0.1)">
       <use xlink:href="#DejaVuSans-8722"/>
       <use x="83.789062" xlink:href="#DejaVuSans-53"/>
      </g>
     </g>
    </g>
    <g id="xtick_6">
     <g id="line2d_6">
      <g>
       <use style="stroke:#000000;stroke-width:0.8;" x="398.487273" xlink:href="#m06e84e76e4" y="307.584"/>
      </g>
     </g>
     <g id="text_6">
      <!-- 0 -->
      <g transform="translate(395.306023 322.182437)scale(0.1 -0.1)">
       <use xlink:href="#DejaVuSans-48"/>
      </g>
     </g>
    </g>
   </g>
   <g id="matplotlib.axis_2">
    <g id="ytick_1">
     <g id="line2d_7">
      <defs>
       <path d="M 0 0 
L -3.5 0 
" id="m73598ca3b3" style="stroke:#000000;stroke-width:0.8;"/>
      </defs>
      <g>
       <use style="stroke:#000000;stroke-width:0.8;" x="57.6" xlink:href="#m73598ca3b3" y="280.122522"/>
      </g>
     </g>
     <g id="text_7">
      <!-- −5.0 -->
      <defs>
       <path d="M 10.6875 12.40625 
L 21 12.40625 
L 21 0 
L 10.6875 0 
z
" id="DejaVuSans-46"/>
      </defs>
      <g transform="translate(26.317187 283.921741)scale(0.1 -0.1)">
       <use xlink:href="#DejaVuSans-8722"/>
       <use x="83.789062" xlink:href="#DejaVuSans-53"/>
       <use x="147.412109" xlink:href="#DejaVuSans-46"/>
       <use x="179.199219" xlink:href="#DejaVuSans-48"/>
      </g>
     </g>
    </g>
    <g id="ytick_2">
     <g id="line2d_8">
      <g>
       <use style="stroke:#000000;stroke-width:0.8;" x="57.6" xlink:href="#m73598ca3b3" y="246.261308"/>
      </g>
     </g>
     <g id="text_8">
      <!-- −2.5 -->
      <g transform="translate(26.317187 250.060527)scale(0.1 -0.1)">
       <use xlink:href="#DejaVuSans-8722"/>
       <use x="83.789062" xlink:href="#DejaVuSans-50"/>
       <use x="147.412109" xlink:href="#DejaVuSans-46"/>
       <use x="179.199219" xlink:href="#DejaVuSans-53"/>
      </g>
     </g>
    </g>
    <g id="ytick_3">
     <g id="line2d_9">
      <g>
       <use style="stroke:#000000;stroke-width:0.8;" x="57.6" xlink:href="#m73598ca3b3" y="212.400094"/>
      </g>
     </g>
     <g id="text_9">
      <!-- 0.0 -->
      <g transform="translate(34.696875 216.199313)scale(0.1 -0.1)">
       <use xlink:href="#DejaVuSans-48"/>
       <use x="63.623047" xlink:href="#DejaVuSans-46"/>
       <use x="95.410156" xlink:href="#DejaVuSans-48"/>
      </g>
     </g>
    </g>
    <g id="ytick_4">
     <g id="line2d_10">
      <g>
       <use style="stroke:#000000;stroke-width:0.8;" x="57.6" xlink:href="#m73598ca3b3" y="178.53888"/>
      </g>
     </g>
     <g id="text_10">
      <!-- 2.5 -->
      <g transform="translate(34.696875 182.338099)scale(0.1 -0.1)">
       <use xlink:href="#DejaVuSans-50"/>
       <use x="63.623047" xlink:href="#DejaVuSans-46"/>
       <use x="95.410156" xlink:href="#DejaVuSans-53"/>
      </g>
     </g>
    </g>
    <g id="ytick_5">
     <g id="line2d_11">
      <g>
       <use style="stroke:#000000;stroke-width:0.8;" x="57.6" xlink:href="#m73598ca3b3" y="144.677667"/>
      </g>
     </g>
     <g id="text_11">
      <!-- 5.0 -->
      <g transform="translate(34.696875 148.476885)scale(0.1 -0.1)">
       <use xlink:href="#DejaVuSans-53"/>
       <use x="63.623047" xlink:href="#DejaVuSans-46"/>
       <use x="95.410156" xlink:href="#DejaVuSans-48"/>
      </g>
     </g>
    </g>
    <g id="ytick_6">
     <g id="line2d_12">
      <g>
       <use style="stroke:#000000;stroke-width:0.8;" x="57.6" xlink:href="#m73598ca3b3" y="110.816453"/>
      </g>
     </g>
     <g id="text_12">
      <!-- 7.5 -->
      <defs>
       <path d="M 8.203125 72.90625 
L 55.078125 72.90625 
L 55.078125 68.703125 
L 28.609375 0 
L 18.3125 0 
L 43.21875 64.59375 
L 8.203125 64.59375 
z
" id="DejaVuSans-55"/>
      </defs>
      <g transform="translate(34.696875 114.615672)scale(0.1 -0.1)">
       <use xlink:href="#DejaVuSans-55"/>
       <use x="63.623047" xlink:href="#DejaVuSans-46"/>
       <use x="95.410156" xlink:href="#DejaVuSans-53"/>
      </g>
     </g>
    </g>
    <g id="ytick_7">
     <g id="line2d_13">
      <g>
       <use style="stroke:#000000;stroke-width:0.8;" x="57.6" xlink:href="#m73598ca3b3" y="76.955239"/>
      </g>
     </g>
     <g id="text_13">
      <!-- 10.0 -->
      <g transform="translate(28.334375 80.754458)scale(0.1 -0.1)">
       <use xlink:href="#DejaVuSans-49"/>
       <use x="63.623047" xlink:href="#DejaVuSans-48"/>
       <use x="127.246094" xlink:href="#DejaVuSans-46"/>
       <use x="159.033203" xlink:href="#DejaVuSans-48"/>
      </g>
     </g>
    </g>
    <g id="ytick_8">
     <g id="line2d_14">
      <g>
       <use style="stroke:#000000;stroke-width:0.8;" x="57.6" xlink:href="#m73598ca3b3" y="43.094025"/>
      </g>
     </g>
     <g id="text_14">
      <!-- 12.5 -->
      <g transform="translate(28.334375 46.893244)scale(0.1 -0.1)">
       <use xlink:href="#DejaVuSans-49"/>
       <use x="63.623047" xlink:href="#DejaVuSans-50"/>
       <use x="127.246094" xlink:href="#DejaVuSans-46"/>
       <use x="159.033203" xlink:href="#DejaVuSans-53"/>
      </g>
     </g>
    </g>
   </g>
   <g id="line2d_15">
    <path clip-path="url(#p623a4055a4)" d="M 398.487273 212.400094 
L 398.425013 211.160195 
L 398.351677 209.884378 
L 398.249788 208.560677 
L 398.099468 207.15418 
L 397.908422 205.612416 
L 397.674602 203.895026 
L 397.366373 202.012292 
L 397.010251 199.950267 
L 396.570274 197.746139 
L 396.027517 195.450823 
L 395.337309 193.090493 
L 394.512522 190.672843 
L 393.588893 188.173886 
L 392.573421 185.592429 
L 391.410389 182.967656 
L 390.088419 180.316716 
L 388.669617 177.649157 
L 387.116767 175.040543 
L 385.365929 172.438227 
L 383.539132 169.842169 
L 381.654674 167.254902 
L 379.626915 164.682493 
L 377.297657 162.200615 
L 374.62774 159.837969 
L 371.813291 157.551727 
L 368.854173 155.298114 
L 365.770202 153.042863 
L 362.41633 150.897647 
L 358.813917 148.90788 
L 354.934817 147.055618 
L 350.839953 145.379569 
L 346.517691 143.90196 
L 341.910196 142.599022 
L 337.072038 141.511047 
L 331.969289 140.581123 
L 326.710588 139.788879 
L 321.265325 139.236928 
L 315.5667 138.97151 
L 309.649074 138.885042 
L 303.552741 138.934575 
L 297.263563 139.114987 
L 290.803046 139.405042 
L 284.109348 139.887741 
L 277.223399 140.469002 
L 270.080444 141.103697 
L 262.730624 141.816706 
L 255.197316 142.604345 
L 247.429147 143.480876 
L 239.483004 144.327135 
L 231.292518 145.153877 
L 222.892906 146.007573 
L 214.280238 146.903283 
L 205.456141 147.830484 
L 196.492807 148.776729 
L 187.278358 149.68914 
L 177.83433 150.592516 
L 168.166276 151.522643 
L 158.299931 152.444996 
L 148.295839 153.356309 
L 138.104426 154.280924 
L 127.755627 155.200079 
L 117.126321 156.028907 
L 106.407486 156.864764 
L 95.575825 157.735079 
L 84.740779 158.614685 
L 73.832727 159.455107 
" style="fill:none;stroke:#008000;stroke-linecap:square;stroke-width:1.5;"/>
   </g>
   <g id="line2d_16">
    <path clip-path="url(#p623a4055a4)" d="M 398.487273 212.400094 
L 398.37304 211.163773 
L 398.26672 209.890038 
L 398.172506 208.565466 
L 397.964235 207.166497 
L 397.746066 205.628378 
L 397.462031 203.918746 
L 397.132896 202.03952 
L 396.739519 199.984207 
L 396.298389 197.780518 
L 395.739323 195.489082 
L 394.970273 193.151882 
L 394.072376 190.758881 
L 393.068494 188.291392 
L 391.991513 185.734618 
L 390.815381 183.117391 
L 389.511446 180.457223 
L 388.094807 177.788724 
L 386.540678 175.180868 
L 384.807119 172.566702 
L 383.046449 169.924848 
L 381.194465 167.313759 
L 379.209445 164.709135 
L 376.991836 162.127778 
L 374.396844 159.683497 
L 371.663013 157.303645 
L 368.705409 155.047869 
L 365.737251 152.642255 
L 362.452406 150.393059 
L 358.954957 148.224358 
L 355.112222 146.297687 
L 351.103344 144.427227 
L 346.812889 142.861006 
L 342.238588 141.443939 
L 337.430171 140.229157 
L 332.350199 139.181865 
L 327.106709 138.29563 
L 321.677518 137.602405 
L 315.981144 137.285569 
L 310.064165 137.115321 
L 303.96791 137.0466 
L 297.676355 137.125449 
L 291.210396 137.270164 
L 284.509505 137.64918 
L 277.616189 138.147205 
L 270.461506 138.640681 
L 263.098057 139.196406 
L 255.55176 139.850332 
L 247.764483 140.537852 
L 239.80917 141.296028 
L 231.599858 141.925489 
L 223.18561 142.62405 
L 214.552152 143.294955 
L 205.715427 144.097143 
L 196.73185 144.838063 
L 187.495292 145.500431 
L 178.036616 146.251906 
L 168.349609 146.965362 
L 158.465075 147.680868 
L 148.448546 148.457557 
L 138.251484 149.334643 
L 127.889813 150.115063 
L 117.244849 150.739951 
L 106.509222 151.345685 
L 95.660926 152.000339 
L 84.805708 152.592929 
L 73.883088 153.226912 
" style="fill:none;stroke:#0000ff;stroke-linecap:square;stroke-width:1.5;"/>
   </g>
   <g id="line2d_17">
    <path clip-path="url(#p623a4055a4)" d="M 398.487273 212.400094 
L 398.373037 211.163773 
L 398.266638 209.890044 
L 398.172241 208.565484 
L 397.963493 207.166592 
L 397.743566 205.628733 
L 397.458056 203.919361 
L 397.127526 202.040377 
L 396.732444 199.985397 
L 396.289776 197.782038 
L 395.727807 195.491387 
L 394.959919 193.15394 
L 394.058693 190.762451 
L 393.097156 188.278483 
L 392.078214 185.698054 
L 390.927076 183.069383 
L 389.62127 180.410154 
L 388.203142 177.742488 
L 386.64689 175.135936 
L 384.909776 172.524131 
L 383.145139 169.88489 
L 381.289435 167.276455 
L 379.276708 164.692618 
L 377.006492 162.157403 
L 374.383457 159.743812 
L 371.665422 157.344802 
L 368.763093 155.018736 
L 365.811566 152.592892 
L 362.526768 150.343334 
L 359.092451 148.077651 
L 355.305297 146.045253 
L 351.282701 144.202473 
L 347.015788 142.573146 
L 342.452296 141.123352 
L 337.653642 139.870698 
L 332.58615 138.763487 
L 327.345991 137.8561 
L 321.914008 137.184131 
L 316.217419 136.869995 
L 310.301012 136.693465 
L 304.203606 136.655906 
L 297.91199 136.762533 
L 291.44694 136.943776 
L 284.74799 137.356955 
L 277.856987 137.884955 
L 270.70478 138.417044 
L 263.344538 139.02098 
L 255.803296 139.731278 
L 248.021025 140.473332 
L 240.069498 141.271159 
L 231.863705 141.943786 
L 223.452306 142.681529 
L 214.822785 143.402123 
L 205.990725 144.25536 
L 197.01142 145.047984 
L 187.778477 145.765166 
L 178.323979 146.571496 
L 168.641373 147.348764 
L 158.760852 148.122016 
L 148.744329 148.907402 
L 138.546043 149.777284 
L 128.187545 150.605444 
L 117.546016 151.296172 
L 106.814365 151.97545 
L 95.974346 152.755052 
L 85.125595 153.461394 
L 74.205981 154.149968 
" style="fill:none;stroke:#ff0000;stroke-linecap:square;stroke-width:1.5;"/>
   </g>
   <g id="patch_3">
    <path d="M 57.6 307.584 
L 57.6 41.472 
" style="fill:none;stroke:#000000;stroke-linecap:square;stroke-linejoin:miter;stroke-width:0.8;"/>
   </g>
   <g id="patch_4">
    <path d="M 414.72 307.584 
L 414.72 41.472 
" style="fill:none;stroke:#000000;stroke-linecap:square;stroke-linejoin:miter;stroke-width:0.8;"/>
   </g>
   <g id="patch_5">
    <path d="M 57.6 307.584 
L 414.72 307.584 
" style="fill:none;stroke:#000000;stroke-linecap:square;stroke-linejoin:miter;stroke-width:0.8;"/>
   </g>
   <g id="patch_6">
    <path d="M 57.6 41.472 
L 414.72 41.472 
" style="fill:none;stroke:#000000;stroke-linecap:square;stroke-linejoin:miter;stroke-width:0.8;"/>
   </g>
  </g>
 </g>
 <defs>
  <clipPath id="p623a4055a4">
   <rect height="266.112" width="357.12" x="57.6" y="41.472"/>
  </clipPath>
 </defs>
</svg>
