<?xml version="1.0" encoding="utf-8" standalone="no"?>
<!DOCTYPE svg PUBLIC "-//W3C//DTD SVG 1.1//EN"
  "http://www.w3.org/Graphics/SVG/1.1/DTD/svg11.dtd">
<!-- Created with matplotlib (https://matplotlib.org/) -->
<svg height="345.6pt" version="1.1" viewBox="0 0 460.8 345.6" width="460.8pt" xmlns="http://www.w3.org/2000/svg" xmlns:xlink="http://www.w3.org/1999/xlink">
 <defs>
  <style type="text/css">
*{stroke-linecap:butt;stroke-linejoin:round;}
  </style>
 </defs>
 <g id="figure_1">
  <g id="patch_1">
   <path d="M 0 345.6 
L 460.8 345.6 
L 460.8 0 
L 0 0 
z
" style="fill:#ffffff;"/>
  </g>
  <g id="axes_1">
   <g id="patch_2">
    <path d="M 57.6 307.584 
L 414.72 307.584 
L 414.72 41.472 
L 57.6 41.472 
z
" style="fill:#ffffff;"/>
   </g>
   <g id="matplotlib.axis_1">
    <g id="xtick_1">
     <g id="line2d_1">
      <defs>
       <path d="M 0 0 
L 0 3.5 
" id="m2000deef06" style="stroke:#000000;stroke-width:0.8;"/>
      </defs>
      <g>
       <use style="stroke:#000000;stroke-width:0.8;" x="67.115672" xlink:href="#m2000deef06" y="307.584"/>
      </g>
     </g>
     <g id="text_1">
      <!-- −50 -->
      <defs>
       <path d="M 10.59375 35.5 
L 73.1875 35.5 
L 73.1875 27.203125 
L 10.59375 27.203125 
z
" id="DejaVuSans-8722"/>
       <path d="M 10.796875 72.90625 
L 49.515625 72.90625 
L 49.515625 64.59375 
L 19.828125 64.59375 
L 19.828125 46.734375 
Q 21.96875 47.46875 24.109375 47.828125 
Q 26.265625 48.1875 28.421875 48.1875 
Q 40.625 48.1875 47.75 41.5 
Q 54.890625 34.8125 54.890625 23.390625 
Q 54.890625 11.625 47.5625 5.09375 
Q 40.234375 -1.421875 26.90625 -1.421875 
Q 22.3125 -1.421875 17.546875 -0.640625 
Q 12.796875 0.140625 7.71875 1.703125 
L 7.71875 11.625 
Q 12.109375 9.234375 16.796875 8.0625 
Q 21.484375 6.890625 26.703125 6.890625 
Q 35.15625 6.890625 40.078125 11.328125 
Q 45.015625 15.765625 45.015625 23.390625 
Q 45.015625 31 40.078125 35.4375 
Q 35.15625 39.890625 26.703125 39.890625 
Q 22.75 39.890625 18.8125 39.015625 
Q 14.890625 38.140625 10.796875 36.28125 
z
" id="DejaVuSans-53"/>
       <path d="M 31.78125 66.40625 
Q 24.171875 66.40625 20.328125 58.90625 
Q 16.5 51.421875 16.5 36.375 
Q 16.5 21.390625 20.328125 13.890625 
Q 24.171875 6.390625 31.78125 6.390625 
Q 39.453125 6.390625 43.28125 13.890625 
Q 47.125 21.390625 47.125 36.375 
Q 47.125 51.421875 43.28125 58.90625 
Q 39.453125 66.40625 31.78125 66.40625 
z
M 31.78125 74.21875 
Q 44.046875 74.21875 50.515625 64.515625 
Q 56.984375 54.828125 56.984375 36.375 
Q 56.984375 17.96875 50.515625 8.265625 
Q 44.046875 -1.421875 31.78125 -1.421875 
Q 19.53125 -1.421875 13.0625 8.265625 
Q 6.59375 17.96875 6.59375 36.375 
Q 6.59375 54.828125 13.0625 64.515625 
Q 19.53125 74.21875 31.78125 74.21875 
z
" id="DejaVuSans-48"/>
      </defs>
      <g transform="translate(56.563328 322.182437)scale(0.1 -0.1)">
       <use xlink:href="#DejaVuSans-8722"/>
       <use x="83.789062" xlink:href="#DejaVuSans-53"/>
       <use x="147.412109" xlink:href="#DejaVuSans-48"/>
      </g>
     </g>
    </g>
    <g id="xtick_2">
     <g id="line2d_2">
      <g>
       <use style="stroke:#000000;stroke-width:0.8;" x="133.389992" xlink:href="#m2000deef06" y="307.584"/>
      </g>
     </g>
     <g id="text_2">
      <!-- −40 -->
      <defs>
       <path d="M 37.796875 64.3125 
L 12.890625 25.390625 
L 37.796875 25.390625 
z
M 35.203125 72.90625 
L 47.609375 72.90625 
L 47.609375 25.390625 
L 58.015625 25.390625 
L 58.015625 17.1875 
L 47.609375 17.1875 
L 47.609375 0 
L 37.796875 0 
L 37.796875 17.1875 
L 4.890625 17.1875 
L 4.890625 26.703125 
z
" id="DejaVuSans-52"/>
      </defs>
      <g transform="translate(122.837649 322.182437)scale(0.1 -0.1)">
       <use xlink:href="#DejaVuSans-8722"/>
       <use x="83.789062" xlink:href="#DejaVuSans-52"/>
       <use x="147.412109" xlink:href="#DejaVuSans-48"/>
      </g>
     </g>
    </g>
    <g id="xtick_3">
     <g id="line2d_3">
      <g>
       <use style="stroke:#000000;stroke-width:0.8;" x="199.664312" xlink:href="#m2000deef06" y="307.584"/>
      </g>
     </g>
     <g id="text_3">
      <!-- −30 -->
      <defs>
       <path d="M 40.578125 39.3125 
Q 47.65625 37.796875 51.625 33 
Q 55.609375 28.21875 55.609375 21.1875 
Q 55.609375 10.40625 48.1875 4.484375 
Q 40.765625 -1.421875 27.09375 -1.421875 
Q 22.515625 -1.421875 17.65625 -0.515625 
Q 12.796875 0.390625 7.625 2.203125 
L 7.625 11.71875 
Q 11.71875 9.328125 16.59375 8.109375 
Q 21.484375 6.890625 26.8125 6.890625 
Q 36.078125 6.890625 40.9375 10.546875 
Q 45.796875 14.203125 45.796875 21.1875 
Q 45.796875 27.640625 41.28125 31.265625 
Q 36.765625 34.90625 28.71875 34.90625 
L 20.21875 34.90625 
L 20.21875 43.015625 
L 29.109375 43.015625 
Q 36.375 43.015625 40.234375 45.921875 
Q 44.09375 48.828125 44.09375 54.296875 
Q 44.09375 59.90625 40.109375 62.90625 
Q 36.140625 65.921875 28.71875 65.921875 
Q 24.65625 65.921875 20.015625 65.03125 
Q 15.375 64.15625 9.8125 62.3125 
L 9.8125 71.09375 
Q 15.4375 72.65625 20.34375 73.4375 
Q 25.25 74.21875 29.59375 74.21875 
Q 40.828125 74.21875 47.359375 69.109375 
Q 53.90625 64.015625 53.90625 55.328125 
Q 53.90625 49.265625 50.4375 45.09375 
Q 46.96875 40.921875 40.578125 39.3125 
z
" id="DejaVuSans-51"/>
      </defs>
      <g transform="translate(189.111969 322.182437)scale(0.1 -0.1)">
       <use xlink:href="#DejaVuSans-8722"/>
       <use x="83.789062" xlink:href="#DejaVuSans-51"/>
       <use x="147.412109" xlink:href="#DejaVuSans-48"/>
      </g>
     </g>
    </g>
    <g id="xtick_4">
     <g id="line2d_4">
      <g>
       <use style="stroke:#000000;stroke-width:0.8;" x="265.938633" xlink:href="#m2000deef06" y="307.584"/>
      </g>
     </g>
     <g id="text_4">
      <!-- −20 -->
      <defs>
       <path d="M 19.1875 8.296875 
L 53.609375 8.296875 
L 53.609375 0 
L 7.328125 0 
L 7.328125 8.296875 
Q 12.9375 14.109375 22.625 23.890625 
Q 32.328125 33.6875 34.8125 36.53125 
Q 39.546875 41.84375 41.421875 45.53125 
Q 43.3125 49.21875 43.3125 52.78125 
Q 43.3125 58.59375 39.234375 62.25 
Q 35.15625 65.921875 28.609375 65.921875 
Q 23.96875 65.921875 18.8125 64.3125 
Q 13.671875 62.703125 7.8125 59.421875 
L 7.8125 69.390625 
Q 13.765625 71.78125 18.9375 73 
Q 24.125 74.21875 28.421875 74.21875 
Q 39.75 74.21875 46.484375 68.546875 
Q 53.21875 62.890625 53.21875 53.421875 
Q 53.21875 48.921875 51.53125 44.890625 
Q 49.859375 40.875 45.40625 35.40625 
Q 44.1875 33.984375 37.640625 27.21875 
Q 31.109375 20.453125 19.1875 8.296875 
z
" id="DejaVuSans-50"/>
      </defs>
      <g transform="translate(255.386289 322.182437)scale(0.1 -0.1)">
       <use xlink:href="#DejaVuSans-8722"/>
       <use x="83.789062" xlink:href="#DejaVuSans-50"/>
       <use x="147.412109" xlink:href="#DejaVuSans-48"/>
      </g>
     </g>
    </g>
    <g id="xtick_5">
     <g id="line2d_5">
      <g>
       <use style="stroke:#000000;stroke-width:0.8;" x="332.212953" xlink:href="#m2000deef06" y="307.584"/>
      </g>
     </g>
     <g id="text_5">
      <!-- −10 -->
      <defs>
       <path d="M 12.40625 8.296875 
L 28.515625 8.296875 
L 28.515625 63.921875 
L 10.984375 60.40625 
L 10.984375 69.390625 
L 28.421875 72.90625 
L 38.28125 72.90625 
L 38.28125 8.296875 
L 54.390625 8.296875 
L 54.390625 0 
L 12.40625 0 
z
" id="DejaVuSans-49"/>
      </defs>
      <g transform="translate(321.660609 322.182437)scale(0.1 -0.1)">
       <use xlink:href="#DejaVuSans-8722"/>
       <use x="83.789062" xlink:href="#DejaVuSans-49"/>
       <use x="147.412109" xlink:href="#DejaVuSans-48"/>
      </g>
     </g>
    </g>
    <g id="xtick_6">
     <g id="line2d_6">
      <g>
       <use style="stroke:#000000;stroke-width:0.8;" x="398.487273" xlink:href="#m2000deef06" y="307.584"/>
      </g>
     </g>
     <g id="text_6">
      <!-- 0 -->
      <g transform="translate(395.306023 322.182437)scale(0.1 -0.1)">
       <use xlink:href="#DejaVuSans-48"/>
      </g>
     </g>
    </g>
   </g>
   <g id="matplotlib.axis_2">
    <g id="ytick_1">
     <g id="line2d_7">
      <defs>
       <path d="M 0 0 
L -3.5 0 
" id="mcabce93803" style="stroke:#000000;stroke-width:0.8;"/>
      </defs>
      <g>
       <use style="stroke:#000000;stroke-width:0.8;" x="57.6" xlink:href="#mcabce93803" y="292.386857"/>
      </g>
     </g>
     <g id="text_7">
      <!-- −15 -->
      <g transform="translate(29.495313 296.186076)scale(0.1 -0.1)">
       <use xlink:href="#DejaVuSans-8722"/>
       <use x="83.789062" xlink:href="#DejaVuSans-49"/>
       <use x="147.412109" xlink:href="#DejaVuSans-53"/>
      </g>
     </g>
    </g>
    <g id="ytick_2">
     <g id="line2d_8">
      <g>
       <use style="stroke:#000000;stroke-width:0.8;" x="57.6" xlink:href="#mcabce93803" y="259.249697"/>
      </g>
     </g>
     <g id="text_8">
      <!-- −10 -->
      <g transform="translate(29.495313 263.048916)scale(0.1 -0.1)">
       <use xlink:href="#DejaVuSans-8722"/>
       <use x="83.789062" xlink:href="#DejaVuSans-49"/>
       <use x="147.412109" xlink:href="#DejaVuSans-48"/>
      </g>
     </g>
    </g>
    <g id="ytick_3">
     <g id="line2d_9">
      <g>
       <use style="stroke:#000000;stroke-width:0.8;" x="57.6" xlink:href="#mcabce93803" y="226.112537"/>
      </g>
     </g>
     <g id="text_9">
      <!-- −5 -->
      <g transform="translate(35.857813 229.911756)scale(0.1 -0.1)">
       <use xlink:href="#DejaVuSans-8722"/>
       <use x="83.789062" xlink:href="#DejaVuSans-53"/>
      </g>
     </g>
    </g>
    <g id="ytick_4">
     <g id="line2d_10">
      <g>
       <use style="stroke:#000000;stroke-width:0.8;" x="57.6" xlink:href="#mcabce93803" y="192.975377"/>
      </g>
     </g>
     <g id="text_10">
      <!-- 0 -->
      <g transform="translate(44.2375 196.774596)scale(0.1 -0.1)">
       <use xlink:href="#DejaVuSans-48"/>
      </g>
     </g>
    </g>
    <g id="ytick_5">
     <g id="line2d_11">
      <g>
       <use style="stroke:#000000;stroke-width:0.8;" x="57.6" xlink:href="#mcabce93803" y="159.838217"/>
      </g>
     </g>
     <g id="text_11">
      <!-- 5 -->
      <g transform="translate(44.2375 163.637436)scale(0.1 -0.1)">
       <use xlink:href="#DejaVuSans-53"/>
      </g>
     </g>
    </g>
    <g id="ytick_6">
     <g id="line2d_12">
      <g>
       <use style="stroke:#000000;stroke-width:0.8;" x="57.6" xlink:href="#mcabce93803" y="126.701057"/>
      </g>
     </g>
     <g id="text_12">
      <!-- 10 -->
      <g transform="translate(37.875 130.500275)scale(0.1 -0.1)">
       <use xlink:href="#DejaVuSans-49"/>
       <use x="63.623047" xlink:href="#DejaVuSans-48"/>
      </g>
     </g>
    </g>
    <g id="ytick_7">
     <g id="line2d_13">
      <g>
       <use style="stroke:#000000;stroke-width:0.8;" x="57.6" xlink:href="#mcabce93803" y="93.563897"/>
      </g>
     </g>
     <g id="text_13">
      <!-- 15 -->
      <g transform="translate(37.875 97.363115)scale(0.1 -0.1)">
       <use xlink:href="#DejaVuSans-49"/>
       <use x="63.623047" xlink:href="#DejaVuSans-53"/>
      </g>
     </g>
    </g>
    <g id="ytick_8">
     <g id="line2d_14">
      <g>
       <use style="stroke:#000000;stroke-width:0.8;" x="57.6" xlink:href="#mcabce93803" y="60.426737"/>
      </g>
     </g>
     <g id="text_14">
      <!-- 20 -->
      <g transform="translate(37.875 64.225955)scale(0.1 -0.1)">
       <use xlink:href="#DejaVuSans-50"/>
       <use x="63.623047" xlink:href="#DejaVuSans-48"/>
      </g>
     </g>
    </g>
   </g>
   <g id="line2d_15">
    <path clip-path="url(#pee440614c2)" d="M 398.487273 192.975377 
L 398.456808 192.368684 
L 398.420924 191.744415 
L 398.371069 191.096717 
L 398.297517 190.408506 
L 398.204036 189.654108 
L 398.089626 188.813774 
L 397.938807 187.892537 
L 397.764553 186.883571 
L 397.549269 185.805072 
L 397.283693 184.681954 
L 396.945969 183.527025 
L 396.542393 182.344048 
L 396.090454 181.121287 
L 395.593575 179.858158 
L 395.024493 178.573835 
L 394.377642 177.276707 
L 393.68341 175.971447 
L 392.923587 174.695031 
L 392.066888 173.421695 
L 391.17302 172.151422 
L 390.250939 170.88545 
L 389.258739 169.626748 
L 388.119013 168.412344 
L 386.812601 167.256282 
L 385.435467 166.137604 
L 383.987545 165.034892 
L 382.478532 163.931378 
L 380.837454 162.881706 
L 379.074762 161.908096 
L 377.176686 161.001769 
L 375.173034 160.181664 
L 373.058114 159.458657 
L 370.803628 158.821118 
L 368.436276 158.288763 
L 365.939457 157.833743 
L 363.36633 157.446092 
L 360.701917 157.176017 
L 357.913531 157.046146 
L 355.017986 157.003836 
L 352.034999 157.028073 
L 348.95765 157.11635 
L 345.796464 157.258277 
L 342.521181 157.494465 
L 339.151828 157.778881 
L 335.656719 158.089443 
L 332.060389 158.438324 
L 328.374278 158.823723 
L 324.573247 159.252617 
L 320.685131 159.666699 
L 316.677457 160.071231 
L 312.567455 160.488951 
L 308.353203 160.92723 
L 304.035498 161.380917 
L 299.649662 161.843923 
L 295.140954 162.290373 
L 290.51991 162.732403 
L 285.789249 163.187522 
L 280.961563 163.638837 
L 276.066475 164.08475 
L 271.07973 164.537172 
L 266.015975 164.986923 
L 260.814965 165.392475 
L 255.570148 165.801467 
L 250.270124 166.22732 
L 244.968444 166.657718 
L 239.631041 167.068944 
L 234.196746 167.466046 
L 228.70002 167.883396 
L 223.116408 168.345566 
L 217.508342 168.820031 
L 211.906041 169.318487 
L 206.307518 169.826433 
L 200.743192 170.319766 
L 195.195833 170.799684 
L 189.618053 171.290486 
L 184.060554 171.775408 
L 178.48854 172.273758 
L 172.980548 172.753352 
L 167.454728 173.223257 
L 161.911875 173.685434 
L 156.364317 174.13268 
L 150.795286 174.583789 
L 145.221549 175.035018 
L 139.691487 175.486545 
L 134.174216 175.927918 
L 128.673183 176.374945 
L 123.194351 176.829932 
L 117.71479 177.314278 
L 112.239007 177.797199 
L 106.779594 178.238069 
L 101.320976 178.654106 
L 95.870708 179.080177 
L 90.422031 179.533268 
L 84.960431 179.991429 
L 79.553175 180.446263 
L 74.186214 180.911495 
" style="fill:none;stroke:#008000;stroke-linecap:square;stroke-width:1.5;"/>
   </g>
   <g id="line2d_16">
    <path clip-path="url(#pee440614c2)" d="M 398.487273 192.975377 
L 398.431378 192.370434 
L 398.379355 191.747185 
L 398.333255 191.099061 
L 398.231346 190.414533 
L 398.124594 189.661918 
L 397.985613 188.825381 
L 397.824565 187.90586 
L 397.632082 186.900178 
L 397.416233 185.821894 
L 397.142678 184.700674 
L 396.766375 183.557063 
L 396.327026 182.386147 
L 395.835818 181.178784 
L 395.308842 179.927732 
L 394.733351 178.647101 
L 394.095324 177.345458 
L 393.402151 176.039739 
L 392.641702 174.763693 
L 391.793457 173.484559 
L 390.931946 172.191877 
L 390.025755 170.914249 
L 389.054468 169.639785 
L 387.969373 168.376705 
L 386.699621 167.180697 
L 385.361934 166.016215 
L 383.914754 164.912445 
L 382.462409 163.735358 
L 380.855106 162.634807 
L 379.143774 161.573643 
L 377.263491 160.630906 
L 375.301913 159.715675 
L 373.202557 158.949309 
L 370.964313 158.255926 
L 368.611513 157.661523 
L 366.12584 157.149074 
L 363.560155 156.715432 
L 360.903606 156.376231 
L 358.116322 156.2212 
L 355.221094 156.137897 
L 352.238144 156.104271 
L 349.159633 156.142853 
L 345.995784 156.213662 
L 342.716981 156.399119 
L 339.344023 156.642806 
L 335.843176 156.884269 
L 332.240178 157.156189 
L 328.54771 157.476161 
L 324.737329 157.81257 
L 320.844727 158.183552 
L 316.827841 158.491553 
L 312.710677 158.833365 
L 308.486253 159.161644 
L 304.162368 159.554161 
L 299.766627 159.9167 
L 295.247101 160.240803 
L 290.61889 160.608505 
L 285.878956 160.957606 
L 281.042369 161.307709 
L 276.141196 161.687749 
L 271.151687 162.116915 
L 266.081633 162.498781 
L 260.872962 162.804544 
L 255.619928 163.100935 
L 250.311764 163.421263 
L 245.000214 163.711222 
L 239.655683 164.021435 
L 234.218344 164.38294 
L 228.712609 164.660912 
L 223.118382 164.974109 
L 217.501829 165.337161 
L 211.887251 165.67308 
L 206.277579 166.040535 
L 200.704442 166.432848 
L 195.145947 166.769135 
L 189.559434 167.160055 
L 183.990454 167.489893 
L 178.409889 167.88481 
L 172.890913 168.223387 
L 167.356989 168.587348 
L 161.810108 168.997924 
L 156.254584 169.33475 
L 150.674569 169.623193 
L 145.092671 169.970651 
L 139.555624 170.334735 
L 134.03048 170.673082 
L 128.521606 171.009861 
L 123.034849 171.363959 
L 117.54981 171.787957 
L 112.062171 172.119983 
L 106.591078 172.387767 
L 101.123098 172.6584 
L 95.666031 172.994144 
L 90.209596 173.344744 
L 84.736077 173.630875 
L 79.323046 174.016778 
L 73.948239 174.385715 
" style="fill:none;stroke:#0000ff;stroke-linecap:square;stroke-width:1.5;"/>
   </g>
   <g id="line2d_17">
    <path clip-path="url(#pee440614c2)" d="M 398.487273 192.975377 
L 398.428844 192.370676 
L 398.443175 191.745352 
L 398.444841 191.095531 
L 398.3445 190.410758 
L 398.236439 189.658328 
L 398.094516 188.82227 
L 397.912078 187.9068 
L 397.704538 186.904122 
L 397.477223 185.828157 
L 397.18631 184.71133 
L 396.807282 183.568994 
L 396.365488 182.399038 
L 395.881029 181.188741 
L 395.354189 179.937687 
L 394.773242 178.659046 
L 394.122135 177.363952 
L 393.412053 176.067286 
L 392.640753 174.797694 
L 391.796955 173.515633 
L 390.92084 172.232744 
L 390.010172 170.958291 
L 389.030352 169.690184 
L 387.923804 168.446338 
L 386.637908 167.268088 
L 385.282623 166.12375 
L 383.849656 165.001661 
L 382.387008 163.837392 
L 380.783341 162.731407 
L 379.057685 161.693573 
L 377.174615 160.756416 
L 375.203172 159.861553 
L 373.108712 159.080981 
L 370.872702 158.380299 
L 368.523871 157.770304 
L 366.044643 157.226985 
L 363.484673 156.760176 
L 360.827981 156.421819 
L 358.042515 156.235216 
L 355.148209 156.130409 
L 352.165343 156.080623 
L 349.08649 156.085504 
L 345.922299 156.138098 
L 342.643176 156.31785 
L 339.268614 156.537686 
L 335.767961 156.783929 
L 332.165298 157.062003 
L 328.470193 157.350189 
L 324.659339 157.681014 
L 320.76561 158.040315 
L 316.749662 158.357913 
L 312.629458 158.662022 
L 308.405574 158.99646 
L 304.079767 159.367893 
L 299.682718 159.713749 
L 295.16351 160.044842 
L 290.533302 160.385574 
L 285.794387 160.751947 
L 280.957169 161.094704 
L 276.056683 161.483914 
L 271.064618 161.882157 
L 265.991709 162.22529 
L 260.785148 162.564755 
L 255.532683 162.871374 
L 250.224454 163.190691 
L 244.911673 163.459703 
L 239.565048 163.733049 
L 234.122918 164.008785 
L 228.616388 164.271153 
L 223.022213 164.585911 
L 217.402862 164.904478 
L 211.787487 165.232619 
L 206.176747 165.585587 
L 200.601352 165.942002 
L 195.043168 166.286302 
L 189.453918 166.631374 
L 183.886137 166.984067 
L 178.303204 167.347519 
L 172.784204 167.686071 
L 167.250213 168.050332 
L 161.698712 168.394336 
L 156.143664 168.736817 
L 150.563883 169.03311 
L 144.98098 169.35697 
L 139.441278 169.681678 
L 133.917194 170.034226 
L 128.406857 170.352386 
L 122.91962 170.698159 
L 117.432125 171.087783 
L 111.944987 171.427866 
L 106.47523 171.72016 
L 101.00924 172.028779 
L 95.550499 172.333478 
L 90.095035 172.697426 
L 84.621997 172.992473 
L 79.207286 173.350928 
L 73.832727 173.722106 
" style="fill:none;stroke:#ff0000;stroke-linecap:square;stroke-width:1.5;"/>
   </g>
   <g id="patch_3">
    <path d="M 57.6 307.584 
L 57.6 41.472 
" style="fill:none;stroke:#000000;stroke-linecap:square;stroke-linejoin:miter;stroke-width:0.8;"/>
   </g>
   <g id="patch_4">
    <path d="M 414.72 307.584 
L 414.72 41.472 
" style="fill:none;stroke:#000000;stroke-linecap:square;stroke-linejoin:miter;stroke-width:0.8;"/>
   </g>
   <g id="patch_5">
    <path d="M 57.6 307.584 
L 414.72 307.584 
" style="fill:none;stroke:#000000;stroke-linecap:square;stroke-linejoin:miter;stroke-width:0.8;"/>
   </g>
   <g id="patch_6">
    <path d="M 57.6 41.472 
L 414.72 41.472 
" style="fill:none;stroke:#000000;stroke-linecap:square;stroke-linejoin:miter;stroke-width:0.8;"/>
   </g>
  </g>
 </g>
 <defs>
  <clipPath id="pee440614c2">
   <rect height="266.112" width="357.12" x="57.6" y="41.472"/>
  </clipPath>
 </defs>
</svg>
