<?xml version="1.0" encoding="utf-8" standalone="no"?>
<!DOCTYPE svg PUBLIC "-//W3C//DTD SVG 1.1//EN"
  "http://www.w3.org/Graphics/SVG/1.1/DTD/svg11.dtd">
<!-- Created with matplotlib (https://matplotlib.org/) -->
<svg height="345.6pt" version="1.1" viewBox="0 0 460.8 345.6" width="460.8pt" xmlns="http://www.w3.org/2000/svg" xmlns:xlink="http://www.w3.org/1999/xlink">
 <defs>
  <style type="text/css">
*{stroke-linecap:butt;stroke-linejoin:round;}
  </style>
 </defs>
 <g id="figure_1">
  <g id="patch_1">
   <path d="M 0 345.6 
L 460.8 345.6 
L 460.8 0 
L 0 0 
z
" style="fill:#ffffff;"/>
  </g>
  <g id="axes_1">
   <g id="patch_2">
    <path d="M 57.6 307.584 
L 414.72 307.584 
L 414.72 41.472 
L 57.6 41.472 
z
" style="fill:#ffffff;"/>
   </g>
   <g id="matplotlib.axis_1">
    <g id="xtick_1">
     <g id="line2d_1">
      <defs>
       <path d="M 0 0 
L 0 3.5 
" id="mc6d6066531" style="stroke:#000000;stroke-width:0.8;"/>
      </defs>
      <g>
       <use style="stroke:#000000;stroke-width:0.8;" x="107.133136" xlink:href="#mc6d6066531" y="307.584"/>
      </g>
     </g>
     <g id="text_1">
      <!-- −400 -->
      <defs>
       <path d="M 10.59375 35.5 
L 73.1875 35.5 
L 73.1875 27.203125 
L 10.59375 27.203125 
z
" id="DejaVuSans-8722"/>
       <path d="M 37.796875 64.3125 
L 12.890625 25.390625 
L 37.796875 25.390625 
z
M 35.203125 72.90625 
L 47.609375 72.90625 
L 47.609375 25.390625 
L 58.015625 25.390625 
L 58.015625 17.1875 
L 47.609375 17.1875 
L 47.609375 0 
L 37.796875 0 
L 37.796875 17.1875 
L 4.890625 17.1875 
L 4.890625 26.703125 
z
" id="DejaVuSans-52"/>
       <path d="M 31.78125 66.40625 
Q 24.171875 66.40625 20.328125 58.90625 
Q 16.5 51.421875 16.5 36.375 
Q 16.5 21.390625 20.328125 13.890625 
Q 24.171875 6.390625 31.78125 6.390625 
Q 39.453125 6.390625 43.28125 13.890625 
Q 47.125 21.390625 47.125 36.375 
Q 47.125 51.421875 43.28125 58.90625 
Q 39.453125 66.40625 31.78125 66.40625 
z
M 31.78125 74.21875 
Q 44.046875 74.21875 50.515625 64.515625 
Q 56.984375 54.828125 56.984375 36.375 
Q 56.984375 17.96875 50.515625 8.265625 
Q 44.046875 -1.421875 31.78125 -1.421875 
Q 19.53125 -1.421875 13.0625 8.265625 
Q 6.59375 17.96875 6.59375 36.375 
Q 6.59375 54.828125 13.0625 64.515625 
Q 19.53125 74.21875 31.78125 74.21875 
z
" id="DejaVuSans-48"/>
      </defs>
      <g transform="translate(93.399543 322.182437)scale(0.1 -0.1)">
       <use xlink:href="#DejaVuSans-8722"/>
       <use x="83.789062" xlink:href="#DejaVuSans-52"/>
       <use x="147.412109" xlink:href="#DejaVuSans-48"/>
       <use x="211.035156" xlink:href="#DejaVuSans-48"/>
      </g>
     </g>
    </g>
    <g id="xtick_2">
     <g id="line2d_2">
      <g>
       <use style="stroke:#000000;stroke-width:0.8;" x="158.271644" xlink:href="#mc6d6066531" y="307.584"/>
      </g>
     </g>
     <g id="text_2">
      <!-- −200 -->
      <defs>
       <path d="M 19.1875 8.296875 
L 53.609375 8.296875 
L 53.609375 0 
L 7.328125 0 
L 7.328125 8.296875 
Q 12.9375 14.109375 22.625 23.890625 
Q 32.328125 33.6875 34.8125 36.53125 
Q 39.546875 41.84375 41.421875 45.53125 
Q 43.3125 49.21875 43.3125 52.78125 
Q 43.3125 58.59375 39.234375 62.25 
Q 35.15625 65.921875 28.609375 65.921875 
Q 23.96875 65.921875 18.8125 64.3125 
Q 13.671875 62.703125 7.8125 59.421875 
L 7.8125 69.390625 
Q 13.765625 71.78125 18.9375 73 
Q 24.125 74.21875 28.421875 74.21875 
Q 39.75 74.21875 46.484375 68.546875 
Q 53.21875 62.890625 53.21875 53.421875 
Q 53.21875 48.921875 51.53125 44.890625 
Q 49.859375 40.875 45.40625 35.40625 
Q 44.1875 33.984375 37.640625 27.21875 
Q 31.109375 20.453125 19.1875 8.296875 
z
" id="DejaVuSans-50"/>
      </defs>
      <g transform="translate(144.53805 322.182437)scale(0.1 -0.1)">
       <use xlink:href="#DejaVuSans-8722"/>
       <use x="83.789062" xlink:href="#DejaVuSans-50"/>
       <use x="147.412109" xlink:href="#DejaVuSans-48"/>
       <use x="211.035156" xlink:href="#DejaVuSans-48"/>
      </g>
     </g>
    </g>
    <g id="xtick_3">
     <g id="line2d_3">
      <g>
       <use style="stroke:#000000;stroke-width:0.8;" x="209.410151" xlink:href="#mc6d6066531" y="307.584"/>
      </g>
     </g>
     <g id="text_3">
      <!-- 0 -->
      <g transform="translate(206.228901 322.182437)scale(0.1 -0.1)">
       <use xlink:href="#DejaVuSans-48"/>
      </g>
     </g>
    </g>
    <g id="xtick_4">
     <g id="line2d_4">
      <g>
       <use style="stroke:#000000;stroke-width:0.8;" x="260.548658" xlink:href="#mc6d6066531" y="307.584"/>
      </g>
     </g>
     <g id="text_4">
      <!-- 200 -->
      <g transform="translate(251.004908 322.182437)scale(0.1 -0.1)">
       <use xlink:href="#DejaVuSans-50"/>
       <use x="63.623047" xlink:href="#DejaVuSans-48"/>
       <use x="127.246094" xlink:href="#DejaVuSans-48"/>
      </g>
     </g>
    </g>
    <g id="xtick_5">
     <g id="line2d_5">
      <g>
       <use style="stroke:#000000;stroke-width:0.8;" x="311.687165" xlink:href="#mc6d6066531" y="307.584"/>
      </g>
     </g>
     <g id="text_5">
      <!-- 400 -->
      <g transform="translate(302.143415 322.182437)scale(0.1 -0.1)">
       <use xlink:href="#DejaVuSans-52"/>
       <use x="63.623047" xlink:href="#DejaVuSans-48"/>
       <use x="127.246094" xlink:href="#DejaVuSans-48"/>
      </g>
     </g>
    </g>
    <g id="xtick_6">
     <g id="line2d_6">
      <g>
       <use style="stroke:#000000;stroke-width:0.8;" x="362.825673" xlink:href="#mc6d6066531" y="307.584"/>
      </g>
     </g>
     <g id="text_6">
      <!-- 600 -->
      <defs>
       <path d="M 33.015625 40.375 
Q 26.375 40.375 22.484375 35.828125 
Q 18.609375 31.296875 18.609375 23.390625 
Q 18.609375 15.53125 22.484375 10.953125 
Q 26.375 6.390625 33.015625 6.390625 
Q 39.65625 6.390625 43.53125 10.953125 
Q 47.40625 15.53125 47.40625 23.390625 
Q 47.40625 31.296875 43.53125 35.828125 
Q 39.65625 40.375 33.015625 40.375 
z
M 52.59375 71.296875 
L 52.59375 62.3125 
Q 48.875 64.0625 45.09375 64.984375 
Q 41.3125 65.921875 37.59375 65.921875 
Q 27.828125 65.921875 22.671875 59.328125 
Q 17.53125 52.734375 16.796875 39.40625 
Q 19.671875 43.65625 24.015625 45.921875 
Q 28.375 48.1875 33.59375 48.1875 
Q 44.578125 48.1875 50.953125 41.515625 
Q 57.328125 34.859375 57.328125 23.390625 
Q 57.328125 12.15625 50.6875 5.359375 
Q 44.046875 -1.421875 33.015625 -1.421875 
Q 20.359375 -1.421875 13.671875 8.265625 
Q 6.984375 17.96875 6.984375 36.375 
Q 6.984375 53.65625 15.1875 63.9375 
Q 23.390625 74.21875 37.203125 74.21875 
Q 40.921875 74.21875 44.703125 73.484375 
Q 48.484375 72.75 52.59375 71.296875 
z
" id="DejaVuSans-54"/>
      </defs>
      <g transform="translate(353.281923 322.182437)scale(0.1 -0.1)">
       <use xlink:href="#DejaVuSans-54"/>
       <use x="63.623047" xlink:href="#DejaVuSans-48"/>
       <use x="127.246094" xlink:href="#DejaVuSans-48"/>
      </g>
     </g>
    </g>
    <g id="xtick_7">
     <g id="line2d_7">
      <g>
       <use style="stroke:#000000;stroke-width:0.8;" x="413.96418" xlink:href="#mc6d6066531" y="307.584"/>
      </g>
     </g>
     <g id="text_7">
      <!-- 800 -->
      <defs>
       <path d="M 31.78125 34.625 
Q 24.75 34.625 20.71875 30.859375 
Q 16.703125 27.09375 16.703125 20.515625 
Q 16.703125 13.921875 20.71875 10.15625 
Q 24.75 6.390625 31.78125 6.390625 
Q 38.8125 6.390625 42.859375 10.171875 
Q 46.921875 13.96875 46.921875 20.515625 
Q 46.921875 27.09375 42.890625 30.859375 
Q 38.875 34.625 31.78125 34.625 
z
M 21.921875 38.8125 
Q 15.578125 40.375 12.03125 44.71875 
Q 8.5 49.078125 8.5 55.328125 
Q 8.5 64.0625 14.71875 69.140625 
Q 20.953125 74.21875 31.78125 74.21875 
Q 42.671875 74.21875 48.875 69.140625 
Q 55.078125 64.0625 55.078125 55.328125 
Q 55.078125 49.078125 51.53125 44.71875 
Q 48 40.375 41.703125 38.8125 
Q 48.828125 37.15625 52.796875 32.3125 
Q 56.78125 27.484375 56.78125 20.515625 
Q 56.78125 9.90625 50.3125 4.234375 
Q 43.84375 -1.421875 31.78125 -1.421875 
Q 19.734375 -1.421875 13.25 4.234375 
Q 6.78125 9.90625 6.78125 20.515625 
Q 6.78125 27.484375 10.78125 32.3125 
Q 14.796875 37.15625 21.921875 38.8125 
z
M 18.3125 54.390625 
Q 18.3125 48.734375 21.84375 45.5625 
Q 25.390625 42.390625 31.78125 42.390625 
Q 38.140625 42.390625 41.71875 45.5625 
Q 45.3125 48.734375 45.3125 54.390625 
Q 45.3125 60.0625 41.71875 63.234375 
Q 38.140625 66.40625 31.78125 66.40625 
Q 25.390625 66.40625 21.84375 63.234375 
Q 18.3125 60.0625 18.3125 54.390625 
z
" id="DejaVuSans-56"/>
      </defs>
      <g transform="translate(404.42043 322.182437)scale(0.1 -0.1)">
       <use xlink:href="#DejaVuSans-56"/>
       <use x="63.623047" xlink:href="#DejaVuSans-48"/>
       <use x="127.246094" xlink:href="#DejaVuSans-48"/>
      </g>
     </g>
    </g>
   </g>
   <g id="matplotlib.axis_2">
    <g id="ytick_1">
     <g id="line2d_8">
      <defs>
       <path d="M 0 0 
L -3.5 0 
" id="m5b923d71b9" style="stroke:#000000;stroke-width:0.8;"/>
      </defs>
      <g>
       <use style="stroke:#000000;stroke-width:0.8;" x="57.6" xlink:href="#m5b923d71b9" y="288.83157"/>
      </g>
     </g>
     <g id="text_8">
      <!-- 0 -->
      <g transform="translate(44.2375 292.630789)scale(0.1 -0.1)">
       <use xlink:href="#DejaVuSans-48"/>
      </g>
     </g>
    </g>
    <g id="ytick_2">
     <g id="line2d_9">
      <g>
       <use style="stroke:#000000;stroke-width:0.8;" x="57.6" xlink:href="#m5b923d71b9" y="237.693063"/>
      </g>
     </g>
     <g id="text_9">
      <!-- 200 -->
      <g transform="translate(31.5125 241.492281)scale(0.1 -0.1)">
       <use xlink:href="#DejaVuSans-50"/>
       <use x="63.623047" xlink:href="#DejaVuSans-48"/>
       <use x="127.246094" xlink:href="#DejaVuSans-48"/>
      </g>
     </g>
    </g>
    <g id="ytick_3">
     <g id="line2d_10">
      <g>
       <use style="stroke:#000000;stroke-width:0.8;" x="57.6" xlink:href="#m5b923d71b9" y="186.554555"/>
      </g>
     </g>
     <g id="text_10">
      <!-- 400 -->
      <g transform="translate(31.5125 190.353774)scale(0.1 -0.1)">
       <use xlink:href="#DejaVuSans-52"/>
       <use x="63.623047" xlink:href="#DejaVuSans-48"/>
       <use x="127.246094" xlink:href="#DejaVuSans-48"/>
      </g>
     </g>
    </g>
    <g id="ytick_4">
     <g id="line2d_11">
      <g>
       <use style="stroke:#000000;stroke-width:0.8;" x="57.6" xlink:href="#m5b923d71b9" y="135.416048"/>
      </g>
     </g>
     <g id="text_11">
      <!-- 600 -->
      <g transform="translate(31.5125 139.215267)scale(0.1 -0.1)">
       <use xlink:href="#DejaVuSans-54"/>
       <use x="63.623047" xlink:href="#DejaVuSans-48"/>
       <use x="127.246094" xlink:href="#DejaVuSans-48"/>
      </g>
     </g>
    </g>
    <g id="ytick_5">
     <g id="line2d_12">
      <g>
       <use style="stroke:#000000;stroke-width:0.8;" x="57.6" xlink:href="#m5b923d71b9" y="84.277541"/>
      </g>
     </g>
     <g id="text_12">
      <!-- 800 -->
      <g transform="translate(31.5125 88.07676)scale(0.1 -0.1)">
       <use xlink:href="#DejaVuSans-56"/>
       <use x="63.623047" xlink:href="#DejaVuSans-48"/>
       <use x="127.246094" xlink:href="#DejaVuSans-48"/>
      </g>
     </g>
    </g>
   </g>
   <g id="line2d_13">
    <path clip-path="url(#p3a99c36c0a)" d="M 209.410151 288.83157 
L 209.326107 282.346953 
L 209.266947 274.696604 
L 209.44631 273.012283 
L 209.849801 271.481242 
L 210.475307 270.13221 
L 211.162403 269.158106 
L 211.995041 268.355306 
L 213.16138 267.58281 
L 214.269191 267.129999 
L 215.471115 266.903954 
L 216.963083 266.877801 
L 220.027308 267.138585 
L 226.005361 267.872008 
L 232.793934 268.705484 
L 239.720302 269.573673 
L 241.818131 270.153742 
L 243.808161 270.950657 
L 245.710079 271.9784 
L 247.261723 273.070506 
L 248.706974 274.357295 
L 250.002798 275.861212 
L 250.921578 277.235058 
L 251.944272 279.303833 
L 252.870083 281.778996 
L 254.633825 287.018611 
L 255.607604 289.080071 
L 256.600944 290.719778 
L 257.765828 292.190253 
L 258.877656 293.228643 
L 260.092017 294.100307 
L 261.430363 294.76445 
L 262.569805 295.125297 
L 264.033926 295.332423 
L 265.513363 295.274897 
L 266.982573 294.985734 
L 268.410564 294.471815 
L 269.75676 293.739389 
L 271.009986 292.816475 
L 272.393308 291.521105 
L 273.629581 290.046322 
L 274.91413 288.130291 
L 276.940161 284.59411 
L 281.611356 275.752701 
L 285.251242 268.658115 
L 286.146907 267.433053 
L 287.173896 266.362911 
L 288.328348 265.5009 
L 289.582418 264.872072 
L 290.907314 264.481686 
L 292.283324 264.320288 
L 293.645628 264.406883 
L 295.004813 264.752516 
L 296.211579 265.309061 
L 297.318472 266.070739 
L 298.108 266.851647 
L 298.765334 267.782577 
L 299.273395 268.783376 
L 299.76008 270.359342 
L 300.308975 273.375185 
L 300.889167 277.34102 
L 301.27199 278.287092 
L 301.863254 279.036701 
L 302.632607 279.54893 
L 303.42308 279.785666 
L 304.541914 279.867835 
L 305.729043 279.726074 
L 306.905561 279.386366 
L 308.033907 278.865459 
L 309.053916 278.148553 
L 309.918182 277.241862 
L 310.905309 275.809572 
L 311.666326 274.2732 
L 312.100876 272.868673 
L 312.284284 271.636176 
L 312.302975 269.807054 
L 311.986121 263.917178 
L 311.466937 259.113267 
L 310.614407 253.778216 
L 309.929944 249.161738 
L 308.847649 240.332444 
L 308.665417 236.778266 
L 308.717706 233.206062 
L 308.97079 229.939769 
L 309.474811 226.31842 
L 310.27426 222.315707 
L 311.181329 219.400249 
L 313.094344 214.501486 
L 317.21511 204.766836 
L 318.864813 201.847159 
L 326.752902 189.097945 
L 329.583521 184.993823 
L 332.855516 180.579675 
L 336.173561 176.212011 
L 336.42864 175.406759 
L 336.423756 174.537966 
L 336.238891 173.760763 
L 335.820092 172.820096 
L 331.90122 165.698905 
L 328.209506 159.087743 
L 325.868743 155.156803 
L 325.47651 154.891701 
L 324.429526 154.664978 
L 323.350248 154.896738 
L 322.188509 155.456807 
L 320.508788 156.578786 
L 319.124545 157.749858 
L 317.929847 159.047548 
L 316.82477 160.604128 
L 315.774564 162.503924 
L 314.342737 165.748969 
L 312.919808 169.602103 
L 310.985136 174.821018 
L 308.517013 180.467349 
L 306.27418 184.792977 
L 304.345287 188.098903 
L 301.476928 192.464137 
L 297.257183 198.081933 
L 296.379416 198.975297 
L 295.665906 199.420662 
L 294.999008 199.597269 
L 294.415748 199.586863 
L 293.586972 199.296396 
L 292.921737 198.87031 
L 290.162277 196.836582 
L 289.007825 196.336243 
L 287.754958 196.014301 
L 286.425152 195.877684 
L 284.573503 195.933885 
L 277.533521 196.389018 
L 275.698671 196.165261 
L 274.112099 195.780393 
L 272.553295 195.18174 
L 271.053351 194.351046 
L 269.8641 193.462361 
L 268.619235 192.26214 
L 267.530164 190.907097 
L 266.652167 189.399048 
L 266.074251 187.98448 
L 265.620754 186.192229 
L 265.421237 184.523835 
L 265.407507 182.797092 
L 265.657293 180.170464 
L 266.346282 176.021955 
L 268.347101 165.69824 
L 270.328642 156.458457 
L 271.3273 151.419063 
L 272.350607 146.324133 
L 273.261614 142.861417 
L 274.330281 139.8602 
L 276.00788 135.10823 
L 276.844787 132.917431 
L 277.690951 131.320605 
L 278.756549 129.821019 
L 280.009877 128.451172 
L 281.415803 127.274194 
L 282.993809 126.291848 
L 284.995754 125.327171 
L 288.591711 123.904421 
L 293.618934 121.931037 
L 296.782822 120.333138 
L 302.596094 117.092183 
L 302.827214 116.609231 
L 302.933582 115.783344 
L 302.658406 114.494296 
L 302.19908 113.418188 
L 299.761819 109.109564 
L 290.418916 92.482132 
L 288.194851 88.67983 
L 286.585855 86.401405 
L 284.765503 84.258062 
L 282.316659 81.693466 
L 280.185564 79.824583 
L 277.965615 78.188534 
L 274.680989 76.104436 
L 272.795103 75.082023 
L 269.997571 73.769783 
L 266.535929 72.142198 
L 265.959112 72.041813 
L 264.91425 72.244833 
L 264.384839 72.548494 
L 263.614309 73.425161 
L 263.038208 74.569488 
L 262.452545 76.376288 
L 260.507134 83.722847 
L 258.473867 91.00336 
L 256.729455 96.578711 
L 255.758003 100.81009 
L 254.760316 106.142968 
L 253.722025 112.801125 
L 250.625103 133.492355 
L 249.168704 142.505953 
L 246.929476 158.106267 
L 244.114429 179.826251 
L 243.852958 184.75291 
L 243.855055 189.735795 
L 244.092491 194.525837 
L 244.373216 196.554349 
L 244.868083 198.455704 
L 245.617134 200.507995 
L 246.443558 202.18204 
L 247.371825 203.528773 
L 248.362122 204.603269 
L 249.522199 205.538721 
L 250.84482 206.294727 
L 252.319705 206.824138 
L 254.180278 207.226164 
L 263.840418 208.975331 
L 266.114599 209.72001 
L 267.92728 210.555741 
L 269.568647 211.55803 
L 271.178641 212.801898 
L 272.422048 214.019992 
L 273.23988 215.143607 
L 273.603884 216.076783 
L 273.666631 216.913102 
L 273.478876 217.623442 
L 273.04246 218.326264 
L 272.368225 218.974802 
L 268.378398 222.246644 
L 266.377144 224.328493 
L 264.093273 227.077597 
L 262.374712 229.242163 
L 261.558516 229.837722 
L 260.783588 230.11704 
L 259.947602 230.163244 
L 259.115169 229.958434 
L 258.153688 229.416698 
L 256.154633 228.196712 
L 254.5844 227.456559 
L 252.776525 226.862534 
L 250.325713 226.261018 
L 246.385439 225.518793 
L 240.406939 224.40001 
L 238.398321 223.781158 
L 236.94389 223.107433 
L 235.350491 222.099953 
L 233.90064 220.876158 
L 232.566838 219.448831 
L 231.397305 217.816796 
L 230.401145 216.001532 
L 229.705841 214.329047 
L 228.972571 211.972789 
L 228.534692 209.851794 
L 228.272996 207.369249 
L 228.274361 205.187962 
L 228.388643 202.402396 
L 228.535983 197.449605 
L 228.473497 194.39996 
L 228.197531 190.718089 
L 227.558287 186.187626 
L 226.293987 179.908814 
L 225.615455 175.975189 
L 225.30909 172.593655 
L 225.180116 167.710157 
L 225.331279 161.554486 
L 225.56838 155.428629 
L 225.916996 148.646614 
L 226.196299 142.980288 
L 226.493621 136.433612 
L 226.78643 130.051859 
L 227.242655 125.639628 
L 228.028769 118.653596 
L 228.489989 114.800513 
L 229.47101 109.015188 
L 230.942825 100.87051 
L 231.926152 96.491085 
L 233.1532 91.865734 
L 234.812573 86.44495 
L 236.244648 82.372815 
L 238.200082 77.352676 
L 239.555125 74.295999 
L 240.66974 72.400422 
L 243.981955 68.075229 
L 247.074531 64.789452 
L 248.692962 63.963692 
L 249.272259 63.956533 
L 249.931818 64.108005 
L 250.79657 64.464134 
L 253.593693 65.946307 
L 261.750873 70.114326 
L 262.399386 70.182494 
L 263.336116 69.983488 
L 264.200766 69.422371 
L 264.697806 68.887257 
L 265.476262 67.677601 
L 266.2146 65.982411 
L 267.980259 61.404133 
L 269.243841 58.116489 
L 269.936998 56.891185 
L 270.783059 55.824103 
L 271.610301 55.073646 
L 272.549178 54.462719 
L 273.581435 54.01045 
L 274.69876 53.704156 
L 276.402823 53.57071 
L 279.394119 53.649975 
L 281.725983 53.922594 
L 284.700403 54.489311 
L 287.058374 55.125884 
L 291.957929 56.775126 
L 300.774182 60.005955 
L 319.676995 67.59243 
L 322.950217 69.238528 
L 327.282032 71.442214 
L 336.635751 75.668991 
L 343.733929 78.755482 
L 348.758415 80.98957 
L 349.946286 81.889505 
L 350.861052 83.076916 
L 351.260418 83.894544 
L 351.753265 85.798866 
L 354.183853 97.073476 
L 357.145054 110.882613 
L 357.79124 115.543479 
L 358.223667 120.228943 
L 358.44433 125.825337 
L 358.60043 131.523446 
L 359.095604 142.730911 
L 359.565209 145.258253 
L 361.75138 156.033982 
L 362.259978 158.943788 
L 362.190174 159.784122 
L 361.96583 160.581346 
L 361.546443 161.341034 
L 360.911482 162.033424 
L 360.079049 162.586078 
L 358.667728 163.215184 
L 355.410308 164.654043 
L 350.382983 167.195754 
L 343.059719 171.089569 
L 338.79689 173.418314 
L 337.993862 173.519696 
L 337.348468 173.469581 
L 336.428589 173.10642 
L 335.59769 172.396643 
L 335.246727 171.930976 
L 334.622044 170.781127 
L 332.586706 166.89575 
L 328.157396 159.043432 
L 304.484971 117.544708 
L 292.224463 96.192564 
L 288.145119 89.157029 
L 286.368311 86.576555 
L 284.593192 84.382354 
L 283.094705 82.825826 
L 280.222204 80.210909 
L 278.324736 78.716105 
L 275.480744 76.828736 
L 272.004144 74.850033 
L 263.65274 70.468972 
L 255.700625 66.382723 
L 251.339585 63.923498 
L 249.405884 62.56935 
L 247.322732 60.803921 
L 240.465902 54.560675 
L 240.465902 54.560675 
" style="fill:none;stroke:#008000;stroke-linecap:square;stroke-width:1.5;"/>
   </g>
   <g id="line2d_14">
    <path clip-path="url(#p3a99c36c0a)" d="M 209.410151 288.83157 
L 209.333 283.593374 
L 209.23792 276.95703 
L 209.361409 274.870288 
L 209.675254 273.379272 
L 210.209871 271.975762 
L 211.040265 270.698326 
L 211.836078 269.927862 
L 212.672331 269.357404 
L 213.673755 268.891532 
L 214.894364 268.560075 
L 216.368386 268.457833 
L 218.602338 268.61397 
L 223.774583 269.156475 
L 240.391052 271.233849 
L 242.427098 271.806275 
L 244.346615 272.592937 
L 246.205607 273.618909 
L 247.705057 274.707476 
L 249.120115 276.0065 
L 250.138454 277.24696 
L 251.142992 278.863777 
L 252.113832 280.940449 
L 253.425713 284.617902 
L 254.742215 288.206905 
L 255.690325 290.202581 
L 256.745593 291.903645 
L 257.705804 292.990014 
L 258.888192 293.991193 
L 260.038266 294.744097 
L 261.764701 295.327879 
L 263.001674 295.479367 
L 264.52937 295.419271 
L 265.969453 295.122806 
L 267.371138 294.619627 
L 268.682664 293.892468 
L 270.107084 292.765485 
L 271.338174 291.51709 
L 272.47326 290.024513 
L 273.63805 288.122393 
L 275.606704 284.346893 
L 283.449644 268.264361 
L 284.538375 266.882555 
L 285.609072 265.902702 
L 286.790316 265.155177 
L 288.019836 264.646313 
L 289.256729 264.365819 
L 290.559347 264.320336 
L 291.880845 264.517295 
L 293.110229 264.943884 
L 294.277109 265.597446 
L 295.194639 266.363309 
L 296.157172 267.496952 
L 296.844321 268.691634 
L 297.290057 269.932143 
L 297.823287 272.270538 
L 298.84206 277.390795 
L 299.1782 278.007308 
L 299.784568 278.653183 
L 300.371531 278.92794 
L 301.127063 278.989318 
L 302.295442 278.818287 
L 303.491219 278.433027 
L 304.659897 277.8468 
L 305.659772 277.047543 
L 306.494847 276.084467 
L 307.432115 274.62482 
L 308.14923 273.028363 
L 308.540944 271.583473 
L 308.693205 270.08558 
L 308.606986 267.964854 
L 308.24592 263.931444 
L 307.586592 258.664117 
L 306.541811 252.658256 
L 305.161477 243.707355 
L 304.601694 239.031032 
L 304.420929 235.223779 
L 304.483625 231.363961 
L 304.760529 228.094128 
L 305.294532 224.544316 
L 305.962051 221.667294 
L 306.997736 218.216793 
L 308.948136 212.901245 
L 311.645341 206.084106 
L 312.960221 203.486005 
L 315.908908 198.4892 
L 323.694457 185.898083 
L 327.533451 180.463475 
L 330.125251 176.960553 
L 330.439359 176.187006 
L 330.529752 175.305939 
L 330.35547 174.350719 
L 329.842293 173.276816 
L 326.656392 167.742935 
L 322.420241 160.440906 
L 319.739415 156.199857 
L 319.169525 155.883885 
L 318.477239 155.739072 
L 317.726335 155.812085 
L 316.937123 156.095567 
L 315.791024 156.744513 
L 314.206483 157.882929 
L 312.916555 159.090309 
L 311.804409 160.40377 
L 310.757519 161.987572 
L 309.672916 164.069678 
L 308.355933 167.14712 
L 303.95194 178.581591 
L 302.267343 182.090433 
L 300.196085 185.936488 
L 298.344913 189.005457 
L 295.596801 193.114814 
L 292.180255 197.686699 
L 291.383615 198.383718 
L 290.718565 198.669492 
L 290.050878 198.722459 
L 289.302468 198.532723 
L 288.406507 197.932794 
L 286.411726 196.455741 
L 285.099892 195.858345 
L 283.871572 195.527454 
L 282.503679 195.370319 
L 280.744263 195.413917 
L 277.250446 195.775495 
L 274.245323 195.992621 
L 272.41002 195.876431 
L 270.599972 195.540761 
L 269.008989 195.020452 
L 267.57889 194.325865 
L 266.121531 193.316146 
L 264.887928 192.253046 
L 263.7418 190.974127 
L 262.835748 189.638364 
L 262.136647 188.144549 
L 261.617917 186.432918 
L 261.324835 184.537449 
L 261.289347 182.603183 
L 261.493656 180.326553 
L 262.116864 176.208935 
L 263.963686 165.720046 
L 267.527462 146.89847 
L 268.445875 143.236653 
L 269.54934 140.018019 
L 271.32887 134.61053 
L 271.988189 132.970909 
L 272.869523 131.398972 
L 274.007076 129.855565 
L 275.281895 128.510361 
L 276.487304 127.518402 
L 278.057682 126.53573 
L 280.027698 125.560116 
L 283.980972 123.908419 
L 287.183702 122.587983 
L 290.14499 121.085448 
L 296.257264 117.566593 
L 296.5258 116.990354 
L 296.552564 116.330227 
L 296.355895 115.403874 
L 295.890628 114.233967 
L 294.454271 111.714417 
L 283.945338 93.754746 
L 281.522017 89.847561 
L 280.089162 87.976901 
L 278.083882 85.78602 
L 275.758378 83.557324 
L 273.625334 81.854133 
L 271.512383 80.442965 
L 267.904574 78.347477 
L 262.282215 75.535564 
L 261.46023 75.387161 
L 260.778922 75.467809 
L 260.252241 75.762128 
L 259.670438 76.345368 
L 259.134643 77.223817 
L 258.676906 78.446441 
L 258.101726 80.568267 
L 255.750198 89.914549 
L 254.579978 94.078777 
L 252.953554 99.51756 
L 252.012105 103.963005 
L 250.685904 111.901261 
L 248.810731 125.994015 
L 248.019989 132.023186 
L 246.258993 145.041897 
L 245.686343 149.24748 
L 241.853645 180.283853 
L 241.629574 185.07357 
L 241.724508 190.733196 
L 242.084154 195.965542 
L 242.475994 197.954681 
L 243.351319 200.569417 
L 244.206886 202.412122 
L 245.249538 203.995571 
L 246.203593 205.063186 
L 247.339044 206.00818 
L 248.505717 206.70763 
L 249.90431 207.245098 
L 251.697919 207.627429 
L 255.846711 208.20777 
L 259.489701 208.800747 
L 262.09917 209.43365 
L 264.070285 210.114858 
L 265.854605 210.959804 
L 267.480293 211.971308 
L 268.877418 213.050819 
L 270.122614 214.265643 
L 270.947609 215.393311 
L 271.26815 216.149181 
L 271.37294 216.94284 
L 271.25491 217.591888 
L 270.896644 218.264451 
L 270.259783 218.91668 
L 266.456001 222.154967 
L 264.660656 224.086902 
L 262.788752 226.416017 
L 261.295648 228.275469 
L 260.596321 228.742495 
L 259.841819 228.967524 
L 258.998015 228.976599 
L 258.213976 228.749901 
L 257.241699 228.189765 
L 255.188873 227.074381 
L 253.563162 226.408455 
L 250.969388 225.693975 
L 247.158 224.96033 
L 239.971883 223.684344 
L 238.072986 223.095023 
L 236.651021 222.449733 
L 235.104752 221.476932 
L 233.681653 220.292997 
L 232.381846 218.896879 
L 231.220176 217.283202 
L 230.234891 215.529298 
L 229.539771 213.864848 
L 228.904442 211.942508 
L 228.397187 209.617204 
L 228.127942 207.197181 
L 227.999816 203.863799 
L 227.762316 192.817903 
L 227.391369 189.585161 
L 226.747937 186.040555 
L 224.820655 176.602435 
L 224.484882 173.265212 
L 224.250282 168.364409 
L 224.271952 160.077202 
L 224.483954 155.94527 
L 224.655183 150.861727 
L 224.956244 140.410963 
L 225.334998 129.320103 
L 226.077177 121.603209 
L 226.473578 116.453021 
L 227.941139 106.026344 
L 228.748391 101.631148 
L 230.015006 96.112333 
L 231.692963 90.106009 
L 233.505763 84.623948 
L 236.101844 77.741942 
L 237.073191 75.75852 
L 238.507556 73.428793 
L 240.210043 71.173219 
L 242.959539 68.008788 
L 244.132463 66.887783 
L 244.713299 66.658725 
L 245.239794 66.664323 
L 246.239665 66.928855 
L 247.62243 67.599906 
L 256.266826 72.017705 
L 257.324176 72.354422 
L 258.18191 72.378695 
L 258.967185 72.169103 
L 259.711167 71.693193 
L 260.329392 71.011816 
L 261.061767 69.813502 
L 261.671019 68.364685 
L 263.148593 64.431307 
L 264.552294 60.563898 
L 265.216659 59.356496 
L 266.027486 58.308824 
L 267.008096 57.397108 
L 268.198177 56.652462 
L 269.496316 56.154654 
L 270.71298 55.928698 
L 272.451678 55.849616 
L 275.061074 56.014773 
L 278.232819 56.439278 
L 280.871173 56.97886 
L 283.731255 57.775096 
L 293.591461 61.086175 
L 301.112899 63.997136 
L 307.902002 66.641998 
L 314.068338 69.022393 
L 317.416509 70.617108 
L 322.086492 72.94303 
L 335.842504 78.954134 
L 343.205659 82.161328 
L 344.197006 82.918967 
L 344.949696 83.796317 
L 345.497494 84.753547 
L 345.867514 85.858281 
L 346.507207 88.79699 
L 347.892843 94.929138 
L 351.330316 109.838472 
L 352.098819 114.720165 
L 352.711435 120.355019 
L 352.967801 125.209971 
L 353.16654 131.019015 
L 353.669882 140.265492 
L 354.041951 142.975163 
L 355.033324 147.441184 
L 356.211402 152.860733 
L 357.066517 157.064164 
L 357.285331 158.503334 
L 357.243227 159.488414 
L 357.006789 160.325018 
L 356.553577 161.071005 
L 355.8788 161.686785 
L 354.878048 162.24691 
L 350.156243 164.452429 
L 342.906844 168.356418 
L 338.109949 171.120647 
L 336.140716 172.244208 
L 335.537311 172.402988 
L 334.360651 172.469936 
L 333.565851 172.259093 
L 332.790385 171.790246 
L 332.163974 171.125934 
L 331.496981 170.035422 
L 328.165119 164.135393 
L 318.578971 147.782346 
L 314.616194 140.991012 
L 292.925048 104.430451 
L 288.59016 97.029025 
L 285.313628 91.686025 
L 283.496541 89.061171 
L 281.613515 86.71827 
L 279.496401 84.506285 
L 277.576779 82.849198 
L 275.830005 81.573863 
L 273.271007 79.990455 
L 269.728444 78.108151 
L 262.309619 74.42285 
L 255.717899 71.185689 
L 251.232331 68.832346 
L 249.180356 67.585197 
L 246.840378 65.876803 
L 244.907071 64.24313 
L 239.296389 59.163653 
L 239.296389 59.163653 
" style="fill:none;stroke:#0000ff;stroke-linecap:square;stroke-width:1.5;"/>
   </g>
   <g id="line2d_15">
    <path clip-path="url(#p3a99c36c0a)" d="M 209.410151 288.83157 
L 209.336468 283.593303 
L 209.255519 276.38424 
L 209.401795 274.617854 
L 209.751757 273.138013 
L 210.217097 271.977275 
L 211.045841 270.698772 
L 211.841225 269.92773 
L 212.676319 269.355552 
L 213.677031 268.888154 
L 214.896939 268.55426 
L 216.370805 268.451814 
L 218.60533 268.598074 
L 222.996619 269.039248 
L 240.70505 271.25105 
L 242.723844 271.854131 
L 244.622988 272.671476 
L 246.213132 273.565883 
L 247.716186 274.649152 
L 249.134695 275.943971 
L 250.16121 277.177664 
L 251.169567 278.791546 
L 252.152104 280.862065 
L 253.476435 284.534331 
L 254.800532 288.11981 
L 255.762903 290.107962 
L 257.174048 292.480463 
L 258.418385 293.478931 
L 259.835325 294.308679 
L 260.76204 294.637532 
L 262.428555 293.965483 
L 263.696165 293.161721 
L 264.772543 292.195319 
L 265.859724 290.842807 
L 266.549803 289.562445 
L 267.020658 288.226341 
L 267.414797 286.281681 
L 267.504449 284.542064 
L 267.372421 282.426104 
L 266.782334 278.439971 
L 264.710994 267.156431 
L 263.868111 263.099467 
L 263.70636 261.100164 
L 263.832053 259.43775 
L 264.181098 258.089991 
L 264.735143 256.891682 
L 265.473765 255.842428 
L 266.352966 254.977071 
L 267.403159 254.262608 
L 268.602428 253.732036 
L 269.897428 253.412936 
L 271.528525 253.321359 
L 273.012275 253.584851 
L 274.084568 253.974283 
L 275.4776 254.78207 
L 276.910863 255.96158 
L 278.852787 257.830686 
L 280.958595 259.859551 
L 281.904449 260.460413 
L 282.818956 260.714532 
L 283.463085 260.653945 
L 284.068838 260.442397 
L 285.033359 259.704887 
L 285.688071 258.984781 
L 286.521069 257.714709 
L 286.929287 256.574188 
L 287.099913 255.356704 
L 287.066912 253.703836 
L 286.847732 252.31434 
L 286.412716 250.943249 
L 285.754614 249.673267 
L 284.71466 248.286091 
L 282.002416 245.205539 
L 278.067824 241.097878 
L 273.971404 237.273262 
L 267.526519 231.069195 
L 264.386819 227.836198 
L 262.062953 225.046234 
L 259.905358 222.08282 
L 258.255486 219.441372 
L 256.65712 216.435923 
L 255.552931 213.86164 
L 254.61046 211.207256 
L 253.501736 207.427337 
L 251.322249 198.955265 
L 250.85055 195.89584 
L 250.484347 191.594155 
L 249.557203 175.513578 
L 249.623039 169.010725 
L 249.710554 165.590716 
L 249.561531 164.791999 
L 249.175836 164.046725 
L 248.549132 163.389211 
L 247.667701 162.856838 
L 238.41254 158.719438 
L 229.608252 154.927942 
L 229.005437 154.891099 
L 228.340967 155.041518 
L 227.71682 155.390918 
L 227.168229 155.958796 
L 226.63744 156.854717 
L 225.902219 158.657715 
L 225.445598 160.416896 
L 225.22685 162.102567 
L 225.206234 163.729136 
L 225.414699 165.738728 
L 225.970881 168.591779 
L 226.727388 171.403383 
L 228.480063 177.603088 
L 229.566989 182.582645 
L 230.147884 186.29735 
L 230.585755 190.30682 
L 230.805055 194.402517 
L 230.843411 197.856172 
L 230.656779 202.690037 
L 230.418366 203.425548 
L 229.999653 203.998022 
L 229.447641 204.38366 
L 228.741823 204.604538 
L 227.778129 204.63295 
L 225.299884 204.62938 
L 223.886924 204.916674 
L 222.47905 205.462508 
L 221.132195 206.254896 
L 219.571815 207.477634 
L 214.397411 211.711562 
L 212.763261 212.588556 
L 210.985817 213.278026 
L 209.356324 213.6581 
L 207.843204 213.799589 
L 205.354143 213.687169 
L 203.685899 213.355998 
L 202.182617 212.835762 
L 200.755213 212.080506 
L 199.351955 211.04932 
L 198.030859 209.745837 
L 196.897389 208.26693 
L 195.631765 206.148027 
L 193.656692 202.31109 
L 189.819933 194.439801 
L 181.328759 176.221451 
L 180.154465 173.097153 
L 178.817888 168.521621 
L 177.344313 163.324724 
L 177.205984 161.58967 
L 177.272955 159.991337 
L 177.558436 158.218017 
L 177.986896 156.761181 
L 178.718869 155.101948 
L 179.929569 152.987071 
L 182.096896 149.685064 
L 184.120277 146.595601 
L 185.796514 143.547175 
L 188.601603 137.811596 
L 188.499202 137.169691 
L 187.940783 136.31006 
L 186.9414 135.623297 
L 185.728112 135.04466 
L 162.971254 125.680201 
L 159.514519 124.426879 
L 157.307046 123.863322 
L 153.988423 123.283769 
L 151.176856 122.971438 
L 148.717652 122.911152 
L 145.5944 123.059283 
L 140.775219 123.5913 
L 136.06534 124.346717 
L 135.321167 124.728522 
L 134.839269 125.193747 
L 134.615683 125.888342 
L 134.591162 126.663659 
L 134.782645 127.673028 
L 135.39537 129.317748 
L 137.652413 134.394191 
L 141.175619 142.408351 
L 143.683443 148.6232 
L 145.398169 151.993013 
L 148.715768 157.961179 
L 151.6285 162.800648 
L 162.459901 180.710237 
L 162.942338 181.567504 
L 167.267678 188.59165 
L 172.044225 196.250357 
L 175.823335 202.268191 
L 176.455355 203.403043 
L 181.37253 211.605425 
L 183.865851 215.523663 
L 186.772682 219.617311 
L 190.453796 224.141046 
L 193.921446 227.921532 
L 195.439181 229.173094 
L 197.519306 230.509445 
L 199.306827 231.406272 
L 201.085978 231.985693 
L 202.72438 232.235733 
L 204.445989 232.199269 
L 205.781191 231.925644 
L 207.221228 231.369264 
L 209.332386 230.219374 
L 216.234986 226.2347 
L 218.40362 225.268454 
L 220.328908 224.632525 
L 222.227476 224.242776 
L 224.315204 224.059417 
L 226.124139 224.114831 
L 227.600798 224.373516 
L 228.536077 224.750799 
L 229.139985 225.222251 
L 229.554107 225.849676 
L 229.70981 226.531866 
L 229.663687 227.256846 
L 229.198375 228.955755 
L 228.60886 231.545861 
L 228.257194 234.272738 
L 228.108036 237.237714 
L 228.054181 239.759706 
L 227.80492 240.576148 
L 227.386299 241.21062 
L 226.750998 241.757699 
L 225.996142 242.10839 
L 224.924617 242.295889 
L 222.756812 242.667416 
L 220.532211 243.346858 
L 218.084255 244.424341 
L 214.640758 246.236794 
L 208.930869 249.343421 
L 206.783285 250.216327 
L 205.338846 250.612283 
L 203.566159 250.842388 
L 201.973692 250.854955 
L 200.385654 250.697155 
L 198.510567 250.281034 
L 196.664933 249.629288 
L 195.081807 248.885002 
L 192.864184 247.515647 
L 191.069494 246.094741 
L 189.381907 244.436232 
L 187.254714 241.979325 
L 180.439514 233.700989 
L 177.799206 231.066376 
L 174.684953 228.401754 
L 168.163181 222.936663 
L 165.894494 220.597147 
L 162.960743 217.231449 
L 160.393741 213.974892 
L 155.547754 207.431914 
L 152.113417 202.734116 
L 148.255044 197.497263 
L 140.370512 186.672437 
L 136.354504 180.363941 
L 133.596221 176.211475 
L 128.536305 167.390578 
L 126.686524 163.828652 
L 124.496922 159.131388 
L 122.206849 153.526454 
L 120.442643 148.519947 
L 118.096241 140.845791 
L 117.666156 138.712151 
L 117.377707 136.004991 
L 117.351846 133.188364 
L 117.532887 129.944902 
L 117.785926 127.639249 
L 118.128944 126.959653 
L 118.595091 126.605108 
L 119.553051 126.211532 
L 121.24618 125.868126 
L 131.367218 123.910193 
L 132.111384 123.507442 
L 132.708045 122.931744 
L 133.02604 122.365993 
L 133.246622 121.521724 
L 133.257159 120.414879 
L 133.06842 119.221799 
L 132.087237 115.716567 
L 130.334993 109.685275 
L 130.302366 108.201521 
L 130.506632 106.927642 
L 130.87975 105.836903 
L 131.547927 104.638188 
L 132.312552 103.724297 
L 133.590769 102.585264 
L 135.486019 101.262049 
L 138.148919 99.668401 
L 140.820321 98.304293 
L 143.292863 97.243411 
L 148.140006 95.466866 
L 155.214194 93.133643 
L 175.583445 87.019734 
L 179.156844 86.252593 
L 183.916541 85.255339 
L 205.775509 79.979909 
L 207.047864 79.887866 
L 208.352962 80.030242 
L 209.425082 80.405316 
L 210.354916 80.966346 
L 212.209772 82.454762 
L 217.894109 87.058292 
L 229.130451 95.992515 
L 232.924364 99.487159 
L 236.812265 103.424422 
L 240.111823 107.183447 
L 247.610911 115.868687 
L 250.616243 119.095973 
L 252.660141 120.856433 
L 260.227556 127.056516 
L 263.504924 129.898634 
L 264.069683 130.677321 
L 264.040431 130.967568 
L 264.115945 131.945292 
L 263.910035 132.810245 
L 263.407853 133.818253 
L 260.422057 138.955537 
L 255.713666 148.20768 
L 253.470609 152.707178 
L 252.596504 153.4674 
L 251.853349 153.804028 
L 250.966649 153.93632 
L 250.077169 153.823455 
L 248.942577 153.390789 
L 240.030943 149.431626 
L 216.251467 139.183046 
L 207.307311 135.3392 
L 177.176856 122.408777 
L 166.774081 117.901105 
L 163.773749 116.81336 
L 160.886434 115.986501 
L 158.226608 115.448986 
L 155.856305 115.159243 
L 153.449834 115.058872 
L 150.352661 115.183392 
L 146.554211 115.579747 
L 138.238987 116.727843 
L 130.324911 117.893935 
L 127.993059 118.147051 
L 126.664632 118.219207 
L 123.210103 118.586 
L 121.384275 118.667005 
L 118.00337 118.612391 
L 110.057771 118.046125 
L 110.057771 118.046125 
" style="fill:none;stroke:#ff0000;stroke-linecap:square;stroke-width:1.5;"/>
   </g>
   <g id="patch_3">
    <path d="M 57.6 307.584 
L 57.6 41.472 
" style="fill:none;stroke:#000000;stroke-linecap:square;stroke-linejoin:miter;stroke-width:0.8;"/>
   </g>
   <g id="patch_4">
    <path d="M 414.72 307.584 
L 414.72 41.472 
" style="fill:none;stroke:#000000;stroke-linecap:square;stroke-linejoin:miter;stroke-width:0.8;"/>
   </g>
   <g id="patch_5">
    <path d="M 57.6 307.584 
L 414.72 307.584 
" style="fill:none;stroke:#000000;stroke-linecap:square;stroke-linejoin:miter;stroke-width:0.8;"/>
   </g>
   <g id="patch_6">
    <path d="M 57.6 41.472 
L 414.72 41.472 
" style="fill:none;stroke:#000000;stroke-linecap:square;stroke-linejoin:miter;stroke-width:0.8;"/>
   </g>
  </g>
 </g>
 <defs>
  <clipPath id="p3a99c36c0a">
   <rect height="266.112" width="357.12" x="57.6" y="41.472"/>
  </clipPath>
 </defs>
</svg>
