<?xml version="1.0" encoding="utf-8" standalone="no"?>
<!DOCTYPE svg PUBLIC "-//W3C//DTD SVG 1.1//EN"
  "http://www.w3.org/Graphics/SVG/1.1/DTD/svg11.dtd">
<!-- Created with matplotlib (https://matplotlib.org/) -->
<svg height="345.6pt" version="1.1" viewBox="0 0 460.8 345.6" width="460.8pt" xmlns="http://www.w3.org/2000/svg" xmlns:xlink="http://www.w3.org/1999/xlink">
 <defs>
  <style type="text/css">
*{stroke-linecap:butt;stroke-linejoin:round;}
  </style>
 </defs>
 <g id="figure_1">
  <g id="patch_1">
   <path d="M 0 345.6 
L 460.8 345.6 
L 460.8 0 
L 0 0 
z
" style="fill:#ffffff;"/>
  </g>
  <g id="axes_1">
   <g id="patch_2">
    <path d="M 57.6 307.584 
L 414.72 307.584 
L 414.72 41.472 
L 57.6 41.472 
z
" style="fill:#ffffff;"/>
   </g>
   <g id="matplotlib.axis_1">
    <g id="xtick_1">
     <g id="line2d_1">
      <defs>
       <path d="M 0 0 
L 0 3.5 
" id="m45609bcdb7" style="stroke:#000000;stroke-width:0.8;"/>
      </defs>
      <g>
       <use style="stroke:#000000;stroke-width:0.8;" x="73.832727" xlink:href="#m45609bcdb7" y="307.584"/>
      </g>
     </g>
     <g id="text_1">
      <!-- 0 -->
      <defs>
       <path d="M 31.78125 66.40625 
Q 24.171875 66.40625 20.328125 58.90625 
Q 16.5 51.421875 16.5 36.375 
Q 16.5 21.390625 20.328125 13.890625 
Q 24.171875 6.390625 31.78125 6.390625 
Q 39.453125 6.390625 43.28125 13.890625 
Q 47.125 21.390625 47.125 36.375 
Q 47.125 51.421875 43.28125 58.90625 
Q 39.453125 66.40625 31.78125 66.40625 
z
M 31.78125 74.21875 
Q 44.046875 74.21875 50.515625 64.515625 
Q 56.984375 54.828125 56.984375 36.375 
Q 56.984375 17.96875 50.515625 8.265625 
Q 44.046875 -1.421875 31.78125 -1.421875 
Q 19.53125 -1.421875 13.0625 8.265625 
Q 6.59375 17.96875 6.59375 36.375 
Q 6.59375 54.828125 13.0625 64.515625 
Q 19.53125 74.21875 31.78125 74.21875 
z
" id="DejaVuSans-48"/>
      </defs>
      <g transform="translate(70.651477 322.182437)scale(0.1 -0.1)">
       <use xlink:href="#DejaVuSans-48"/>
      </g>
     </g>
    </g>
    <g id="xtick_2">
     <g id="line2d_2">
      <g>
       <use style="stroke:#000000;stroke-width:0.8;" x="122.732257" xlink:href="#m45609bcdb7" y="307.584"/>
      </g>
     </g>
     <g id="text_2">
      <!-- 10 -->
      <defs>
       <path d="M 12.40625 8.296875 
L 28.515625 8.296875 
L 28.515625 63.921875 
L 10.984375 60.40625 
L 10.984375 69.390625 
L 28.421875 72.90625 
L 38.28125 72.90625 
L 38.28125 8.296875 
L 54.390625 8.296875 
L 54.390625 0 
L 12.40625 0 
z
" id="DejaVuSans-49"/>
      </defs>
      <g transform="translate(116.369757 322.182437)scale(0.1 -0.1)">
       <use xlink:href="#DejaVuSans-49"/>
       <use x="63.623047" xlink:href="#DejaVuSans-48"/>
      </g>
     </g>
    </g>
    <g id="xtick_3">
     <g id="line2d_3">
      <g>
       <use style="stroke:#000000;stroke-width:0.8;" x="171.631788" xlink:href="#m45609bcdb7" y="307.584"/>
      </g>
     </g>
     <g id="text_3">
      <!-- 20 -->
      <defs>
       <path d="M 19.1875 8.296875 
L 53.609375 8.296875 
L 53.609375 0 
L 7.328125 0 
L 7.328125 8.296875 
Q 12.9375 14.109375 22.625 23.890625 
Q 32.328125 33.6875 34.8125 36.53125 
Q 39.546875 41.84375 41.421875 45.53125 
Q 43.3125 49.21875 43.3125 52.78125 
Q 43.3125 58.59375 39.234375 62.25 
Q 35.15625 65.921875 28.609375 65.921875 
Q 23.96875 65.921875 18.8125 64.3125 
Q 13.671875 62.703125 7.8125 59.421875 
L 7.8125 69.390625 
Q 13.765625 71.78125 18.9375 73 
Q 24.125 74.21875 28.421875 74.21875 
Q 39.75 74.21875 46.484375 68.546875 
Q 53.21875 62.890625 53.21875 53.421875 
Q 53.21875 48.921875 51.53125 44.890625 
Q 49.859375 40.875 45.40625 35.40625 
Q 44.1875 33.984375 37.640625 27.21875 
Q 31.109375 20.453125 19.1875 8.296875 
z
" id="DejaVuSans-50"/>
      </defs>
      <g transform="translate(165.269288 322.182437)scale(0.1 -0.1)">
       <use xlink:href="#DejaVuSans-50"/>
       <use x="63.623047" xlink:href="#DejaVuSans-48"/>
      </g>
     </g>
    </g>
    <g id="xtick_4">
     <g id="line2d_4">
      <g>
       <use style="stroke:#000000;stroke-width:0.8;" x="220.531318" xlink:href="#m45609bcdb7" y="307.584"/>
      </g>
     </g>
     <g id="text_4">
      <!-- 30 -->
      <defs>
       <path d="M 40.578125 39.3125 
Q 47.65625 37.796875 51.625 33 
Q 55.609375 28.21875 55.609375 21.1875 
Q 55.609375 10.40625 48.1875 4.484375 
Q 40.765625 -1.421875 27.09375 -1.421875 
Q 22.515625 -1.421875 17.65625 -0.515625 
Q 12.796875 0.390625 7.625 2.203125 
L 7.625 11.71875 
Q 11.71875 9.328125 16.59375 8.109375 
Q 21.484375 6.890625 26.8125 6.890625 
Q 36.078125 6.890625 40.9375 10.546875 
Q 45.796875 14.203125 45.796875 21.1875 
Q 45.796875 27.640625 41.28125 31.265625 
Q 36.765625 34.90625 28.71875 34.90625 
L 20.21875 34.90625 
L 20.21875 43.015625 
L 29.109375 43.015625 
Q 36.375 43.015625 40.234375 45.921875 
Q 44.09375 48.828125 44.09375 54.296875 
Q 44.09375 59.90625 40.109375 62.90625 
Q 36.140625 65.921875 28.71875 65.921875 
Q 24.65625 65.921875 20.015625 65.03125 
Q 15.375 64.15625 9.8125 62.3125 
L 9.8125 71.09375 
Q 15.4375 72.65625 20.34375 73.4375 
Q 25.25 74.21875 29.59375 74.21875 
Q 40.828125 74.21875 47.359375 69.109375 
Q 53.90625 64.015625 53.90625 55.328125 
Q 53.90625 49.265625 50.4375 45.09375 
Q 46.96875 40.921875 40.578125 39.3125 
z
" id="DejaVuSans-51"/>
      </defs>
      <g transform="translate(214.168818 322.182437)scale(0.1 -0.1)">
       <use xlink:href="#DejaVuSans-51"/>
       <use x="63.623047" xlink:href="#DejaVuSans-48"/>
      </g>
     </g>
    </g>
    <g id="xtick_5">
     <g id="line2d_5">
      <g>
       <use style="stroke:#000000;stroke-width:0.8;" x="269.430848" xlink:href="#m45609bcdb7" y="307.584"/>
      </g>
     </g>
     <g id="text_5">
      <!-- 40 -->
      <defs>
       <path d="M 37.796875 64.3125 
L 12.890625 25.390625 
L 37.796875 25.390625 
z
M 35.203125 72.90625 
L 47.609375 72.90625 
L 47.609375 25.390625 
L 58.015625 25.390625 
L 58.015625 17.1875 
L 47.609375 17.1875 
L 47.609375 0 
L 37.796875 0 
L 37.796875 17.1875 
L 4.890625 17.1875 
L 4.890625 26.703125 
z
" id="DejaVuSans-52"/>
      </defs>
      <g transform="translate(263.068348 322.182437)scale(0.1 -0.1)">
       <use xlink:href="#DejaVuSans-52"/>
       <use x="63.623047" xlink:href="#DejaVuSans-48"/>
      </g>
     </g>
    </g>
    <g id="xtick_6">
     <g id="line2d_6">
      <g>
       <use style="stroke:#000000;stroke-width:0.8;" x="318.330378" xlink:href="#m45609bcdb7" y="307.584"/>
      </g>
     </g>
     <g id="text_6">
      <!-- 50 -->
      <defs>
       <path d="M 10.796875 72.90625 
L 49.515625 72.90625 
L 49.515625 64.59375 
L 19.828125 64.59375 
L 19.828125 46.734375 
Q 21.96875 47.46875 24.109375 47.828125 
Q 26.265625 48.1875 28.421875 48.1875 
Q 40.625 48.1875 47.75 41.5 
Q 54.890625 34.8125 54.890625 23.390625 
Q 54.890625 11.625 47.5625 5.09375 
Q 40.234375 -1.421875 26.90625 -1.421875 
Q 22.3125 -1.421875 17.546875 -0.640625 
Q 12.796875 0.140625 7.71875 1.703125 
L 7.71875 11.625 
Q 12.109375 9.234375 16.796875 8.0625 
Q 21.484375 6.890625 26.703125 6.890625 
Q 35.15625 6.890625 40.078125 11.328125 
Q 45.015625 15.765625 45.015625 23.390625 
Q 45.015625 31 40.078125 35.4375 
Q 35.15625 39.890625 26.703125 39.890625 
Q 22.75 39.890625 18.8125 39.015625 
Q 14.890625 38.140625 10.796875 36.28125 
z
" id="DejaVuSans-53"/>
      </defs>
      <g transform="translate(311.967878 322.182437)scale(0.1 -0.1)">
       <use xlink:href="#DejaVuSans-53"/>
       <use x="63.623047" xlink:href="#DejaVuSans-48"/>
      </g>
     </g>
    </g>
    <g id="xtick_7">
     <g id="line2d_7">
      <g>
       <use style="stroke:#000000;stroke-width:0.8;" x="367.229908" xlink:href="#m45609bcdb7" y="307.584"/>
      </g>
     </g>
     <g id="text_7">
      <!-- 60 -->
      <defs>
       <path d="M 33.015625 40.375 
Q 26.375 40.375 22.484375 35.828125 
Q 18.609375 31.296875 18.609375 23.390625 
Q 18.609375 15.53125 22.484375 10.953125 
Q 26.375 6.390625 33.015625 6.390625 
Q 39.65625 6.390625 43.53125 10.953125 
Q 47.40625 15.53125 47.40625 23.390625 
Q 47.40625 31.296875 43.53125 35.828125 
Q 39.65625 40.375 33.015625 40.375 
z
M 52.59375 71.296875 
L 52.59375 62.3125 
Q 48.875 64.0625 45.09375 64.984375 
Q 41.3125 65.921875 37.59375 65.921875 
Q 27.828125 65.921875 22.671875 59.328125 
Q 17.53125 52.734375 16.796875 39.40625 
Q 19.671875 43.65625 24.015625 45.921875 
Q 28.375 48.1875 33.59375 48.1875 
Q 44.578125 48.1875 50.953125 41.515625 
Q 57.328125 34.859375 57.328125 23.390625 
Q 57.328125 12.15625 50.6875 5.359375 
Q 44.046875 -1.421875 33.015625 -1.421875 
Q 20.359375 -1.421875 13.671875 8.265625 
Q 6.984375 17.96875 6.984375 36.375 
Q 6.984375 53.65625 15.1875 63.9375 
Q 23.390625 74.21875 37.203125 74.21875 
Q 40.921875 74.21875 44.703125 73.484375 
Q 48.484375 72.75 52.59375 71.296875 
z
" id="DejaVuSans-54"/>
      </defs>
      <g transform="translate(360.867408 322.182437)scale(0.1 -0.1)">
       <use xlink:href="#DejaVuSans-54"/>
       <use x="63.623047" xlink:href="#DejaVuSans-48"/>
      </g>
     </g>
    </g>
   </g>
   <g id="matplotlib.axis_2">
    <g id="ytick_1">
     <g id="line2d_8">
      <defs>
       <path d="M 0 0 
L -3.5 0 
" id="mb1fb27bc51" style="stroke:#000000;stroke-width:0.8;"/>
      </defs>
      <g>
       <use style="stroke:#000000;stroke-width:0.8;" x="57.6" xlink:href="#mb1fb27bc51" y="275.823269"/>
      </g>
     </g>
     <g id="text_8">
      <!-- −10 -->
      <defs>
       <path d="M 10.59375 35.5 
L 73.1875 35.5 
L 73.1875 27.203125 
L 10.59375 27.203125 
z
" id="DejaVuSans-8722"/>
      </defs>
      <g transform="translate(29.495313 279.622488)scale(0.1 -0.1)">
       <use xlink:href="#DejaVuSans-8722"/>
       <use x="83.789062" xlink:href="#DejaVuSans-49"/>
       <use x="147.412109" xlink:href="#DejaVuSans-48"/>
      </g>
     </g>
    </g>
    <g id="ytick_2">
     <g id="line2d_9">
      <g>
       <use style="stroke:#000000;stroke-width:0.8;" x="57.6" xlink:href="#mb1fb27bc51" y="226.923739"/>
      </g>
     </g>
     <g id="text_9">
      <!-- 0 -->
      <g transform="translate(44.2375 230.722958)scale(0.1 -0.1)">
       <use xlink:href="#DejaVuSans-48"/>
      </g>
     </g>
    </g>
    <g id="ytick_3">
     <g id="line2d_10">
      <g>
       <use style="stroke:#000000;stroke-width:0.8;" x="57.6" xlink:href="#mb1fb27bc51" y="178.024209"/>
      </g>
     </g>
     <g id="text_10">
      <!-- 10 -->
      <g transform="translate(37.875 181.823428)scale(0.1 -0.1)">
       <use xlink:href="#DejaVuSans-49"/>
       <use x="63.623047" xlink:href="#DejaVuSans-48"/>
      </g>
     </g>
    </g>
    <g id="ytick_4">
     <g id="line2d_11">
      <g>
       <use style="stroke:#000000;stroke-width:0.8;" x="57.6" xlink:href="#mb1fb27bc51" y="129.124679"/>
      </g>
     </g>
     <g id="text_11">
      <!-- 20 -->
      <g transform="translate(37.875 132.923897)scale(0.1 -0.1)">
       <use xlink:href="#DejaVuSans-50"/>
       <use x="63.623047" xlink:href="#DejaVuSans-48"/>
      </g>
     </g>
    </g>
    <g id="ytick_5">
     <g id="line2d_12">
      <g>
       <use style="stroke:#000000;stroke-width:0.8;" x="57.6" xlink:href="#mb1fb27bc51" y="80.225148"/>
      </g>
     </g>
     <g id="text_12">
      <!-- 30 -->
      <g transform="translate(37.875 84.024367)scale(0.1 -0.1)">
       <use xlink:href="#DejaVuSans-51"/>
       <use x="63.623047" xlink:href="#DejaVuSans-48"/>
      </g>
     </g>
    </g>
   </g>
   <g id="line2d_13">
    <path clip-path="url(#pd33510830e)" d="M 73.832727 226.923739 
L 74.084788 222.03024 
L 74.548925 217.165059 
L 75.240645 212.318959 
L 76.110224 207.540721 
L 77.241829 202.793584 
L 78.583654 198.133399 
L 80.131373 193.543929 
L 81.907658 189.056174 
L 83.859566 184.644027 
L 86.00228 180.335235 
L 88.337756 176.14563 
L 90.864766 172.079976 
L 93.571952 168.152464 
L 96.480246 164.38094 
L 99.515367 160.759832 
L 102.749274 157.303955 
L 106.119341 154.00397 
L 109.60754 150.861343 
L 113.244057 147.92654 
L 116.986303 145.155208 
L 120.861846 142.580109 
L 124.862908 140.196404 
L 128.959075 137.982282 
L 133.189129 135.944149 
L 137.518791 134.088656 
L 141.914663 132.37507 
L 146.427356 130.808867 
L 151.036235 129.37611 
L 155.720321 128.099783 
L 160.43849 126.958908 
L 165.229568 125.968497 
L 170.124019 125.132071 
L 175.097395 124.435692 
L 180.147983 123.870414 
L 185.278473 123.446553 
L 190.475955 123.18494 
L 195.744733 123.057752 
L 201.086322 123.059806 
L 206.483607 123.180246 
L 211.937176 123.404939 
L 217.451723 123.709485 
L 222.990524 124.089973 
L 228.560425 124.528895 
L 234.158737 125.031973 
L 239.809077 125.610797 
L 245.542107 126.262432 
L 251.382618 126.987857 
L 257.337016 127.760861 
L 263.403149 128.582617 
L 269.548353 129.454594 
L 275.814682 130.36437 
L 282.177928 131.321969 
L 288.661957 132.313603 
L 295.256499 133.342107 
L 301.9417 134.394523 
L 308.724505 135.484347 
L 315.601833 136.590748 
L 322.59075 137.73128 
L 329.657172 138.876654 
L 336.834645 140.037969 
L 344.127863 141.209455 
L 351.518 142.379035 
L 359.01332 143.564799 
L 366.59441 144.745381 
L 374.317015 145.945669 
L 382.122945 147.144979 
L 390.024229 148.363946 
L 398.001062 149.592596 
" style="fill:none;stroke:#008000;stroke-linecap:square;stroke-width:1.5;"/>
   </g>
   <g id="line2d_14">
    <path clip-path="url(#pd33510830e)" d="M 73.832727 226.923739 
L 74.012304 222.032592 
L 74.307264 217.153318 
L 74.949237 212.301594 
L 75.49608 207.475428 
L 76.618296 202.724892 
L 77.93242 198.054391 
L 79.507798 193.472187 
L 81.334344 189.00499 
L 83.320008 184.608117 
L 85.462394 180.297204 
L 87.772385 176.093484 
L 90.287077 172.018843 
L 93.022951 168.111211 
L 95.917503 164.328009 
L 98.917818 160.677997 
L 102.150015 157.218914 
L 105.445778 153.842703 
L 108.992316 150.768514 
L 112.525687 147.711183 
L 116.207521 144.861525 
L 120.034544 142.213989 
L 124.050841 139.855238 
L 128.125967 137.602548 
L 132.363107 135.579274 
L 136.678807 133.694076 
L 141.083253 131.999688 
L 145.593961 130.427506 
L 150.176664 128.91528 
L 154.85403 127.612468 
L 159.555222 126.404436 
L 164.330443 125.340304 
L 169.204536 124.393476 
L 174.168893 123.635735 
L 179.210584 122.997865 
L 184.334685 122.505738 
L 189.531822 122.238071 
L 194.801278 122.144523 
L 200.142672 122.132261 
L 205.540222 122.233799 
L 210.995107 122.418781 
L 216.510993 122.698414 
L 222.056758 122.954846 
L 227.630374 123.344977 
L 233.23268 123.802467 
L 238.89546 124.245568 
L 244.641545 124.772283 
L 250.502545 125.310206 
L 256.475426 125.926416 
L 262.548823 126.693722 
L 268.711373 127.434998 
L 274.994701 128.220151 
L 281.379087 129.025757 
L 287.880739 129.895024 
L 294.487593 130.842314 
L 301.183552 131.824881 
L 307.986813 132.781596 
L 314.884687 133.753734 
L 321.893731 134.765177 
L 328.979991 135.781814 
L 336.169823 136.865153 
L 343.487948 137.86977 
L 350.907688 138.834625 
L 358.416749 139.931151 
L 366.029563 140.887307 
L 373.772765 141.946801 
L 381.59472 143.035597 
L 389.516879 144.111217 
L 397.513626 145.203496 
" style="fill:none;stroke:#0000ff;stroke-linecap:square;stroke-width:1.5;"/>
   </g>
   <g id="line2d_15">
    <path clip-path="url(#pd33510830e)" d="M 73.832727 226.923739 
L 74.016716 222.02656 
L 73.983039 217.140895 
L 74.640819 212.292243 
L 75.440145 207.501659 
L 76.638466 202.770117 
L 78.006598 198.116141 
L 79.647416 193.556677 
L 81.46661 189.087325 
L 83.49297 184.707882 
L 85.698197 180.429129 
L 88.079513 176.265028 
L 90.662198 172.23233 
L 93.451444 168.362754 
L 96.401461 164.622799 
L 99.472734 161.032501 
L 102.757609 157.623985 
L 106.145499 154.341196 
L 109.706072 151.282444 
L 113.307088 148.305332 
L 116.99968 145.469127 
L 120.870253 142.883008 
L 124.896773 140.543207 
L 128.990302 138.325026 
L 133.258567 136.367431 
L 137.615944 134.579182 
L 142.034674 132.92398 
L 146.550765 131.370453 
L 151.179002 130.003282 
L 155.85903 128.712673 
L 160.573106 127.557271 
L 165.350185 126.503617 
L 170.232653 125.602384 
L 175.194993 124.835945 
L 180.236475 124.200027 
L 185.360398 123.710456 
L 190.553397 123.374555 
L 195.821411 123.221537 
L 201.162311 123.188014 
L 206.560294 123.271276 
L 212.014769 123.462582 
L 217.532374 123.705147 
L 223.074349 124.036258 
L 228.647903 124.427373 
L 234.248359 124.907433 
L 239.905029 125.422435 
L 245.643562 126.025999 
L 251.499421 126.617517 
L 257.465757 127.294088 
L 263.541779 128.039918 
L 269.703698 128.786436 
L 275.981908 129.61106 
L 282.365199 130.425357 
L 288.863181 131.321647 
L 295.467108 132.288348 
L 302.169366 133.227578 
L 308.971759 134.190324 
L 315.871952 135.145718 
L 322.878245 136.174988 
L 329.959261 137.227264 
L 337.148555 138.313814 
L 344.463267 139.343736 
L 351.877309 140.351582 
L 359.391222 141.414254 
L 366.996612 142.42755 
L 374.743652 143.4582 
L 382.570711 144.510558 
L 390.488027 145.620822 
L 398.487273 146.69271 
" style="fill:none;stroke:#ff0000;stroke-linecap:square;stroke-width:1.5;"/>
   </g>
   <g id="patch_3">
    <path d="M 57.6 307.584 
L 57.6 41.472 
" style="fill:none;stroke:#000000;stroke-linecap:square;stroke-linejoin:miter;stroke-width:0.8;"/>
   </g>
   <g id="patch_4">
    <path d="M 414.72 307.584 
L 414.72 41.472 
" style="fill:none;stroke:#000000;stroke-linecap:square;stroke-linejoin:miter;stroke-width:0.8;"/>
   </g>
   <g id="patch_5">
    <path d="M 57.6 307.584 
L 414.72 307.584 
" style="fill:none;stroke:#000000;stroke-linecap:square;stroke-linejoin:miter;stroke-width:0.8;"/>
   </g>
   <g id="patch_6">
    <path d="M 57.6 41.472 
L 414.72 41.472 
" style="fill:none;stroke:#000000;stroke-linecap:square;stroke-linejoin:miter;stroke-width:0.8;"/>
   </g>
  </g>
 </g>
 <defs>
  <clipPath id="pd33510830e">
   <rect height="266.112" width="357.12" x="57.6" y="41.472"/>
  </clipPath>
 </defs>
</svg>
