<?xml version="1.0" encoding="utf-8" standalone="no"?>
<!DOCTYPE svg PUBLIC "-//W3C//DTD SVG 1.1//EN"
  "http://www.w3.org/Graphics/SVG/1.1/DTD/svg11.dtd">
<!-- Created with matplotlib (https://matplotlib.org/) -->
<svg height="345.6pt" version="1.1" viewBox="0 0 460.8 345.6" width="460.8pt" xmlns="http://www.w3.org/2000/svg" xmlns:xlink="http://www.w3.org/1999/xlink">
 <defs>
  <style type="text/css">
*{stroke-linecap:butt;stroke-linejoin:round;}
  </style>
 </defs>
 <g id="figure_1">
  <g id="patch_1">
   <path d="M 0 345.6 
L 460.8 345.6 
L 460.8 0 
L 0 0 
z
" style="fill:#ffffff;"/>
  </g>
  <g id="axes_1">
   <g id="patch_2">
    <path d="M 57.6 307.584 
L 414.72 307.584 
L 414.72 41.472 
L 57.6 41.472 
z
" style="fill:#ffffff;"/>
   </g>
   <g id="matplotlib.axis_1">
    <g id="xtick_1">
     <g id="line2d_1">
      <defs>
       <path d="M 0 0 
L 0 3.5 
" id="m28a94d683c" style="stroke:#000000;stroke-width:0.8;"/>
      </defs>
      <g>
       <use style="stroke:#000000;stroke-width:0.8;" x="74.635629" xlink:href="#m28a94d683c" y="307.584"/>
      </g>
     </g>
     <g id="text_1">
      <!-- 0 -->
      <defs>
       <path d="M 31.78125 66.40625 
Q 24.171875 66.40625 20.328125 58.90625 
Q 16.5 51.421875 16.5 36.375 
Q 16.5 21.390625 20.328125 13.890625 
Q 24.171875 6.390625 31.78125 6.390625 
Q 39.453125 6.390625 43.28125 13.890625 
Q 47.125 21.390625 47.125 36.375 
Q 47.125 51.421875 43.28125 58.90625 
Q 39.453125 66.40625 31.78125 66.40625 
z
M 31.78125 74.21875 
Q 44.046875 74.21875 50.515625 64.515625 
Q 56.984375 54.828125 56.984375 36.375 
Q 56.984375 17.96875 50.515625 8.265625 
Q 44.046875 -1.421875 31.78125 -1.421875 
Q 19.53125 -1.421875 13.0625 8.265625 
Q 6.59375 17.96875 6.59375 36.375 
Q 6.59375 54.828125 13.0625 64.515625 
Q 19.53125 74.21875 31.78125 74.21875 
z
" id="DejaVuSans-48"/>
      </defs>
      <g transform="translate(71.454379 322.182437)scale(0.1 -0.1)">
       <use xlink:href="#DejaVuSans-48"/>
      </g>
     </g>
    </g>
    <g id="xtick_2">
     <g id="line2d_2">
      <g>
       <use style="stroke:#000000;stroke-width:0.8;" x="143.535821" xlink:href="#m28a94d683c" y="307.584"/>
      </g>
     </g>
     <g id="text_2">
      <!-- 100 -->
      <defs>
       <path d="M 12.40625 8.296875 
L 28.515625 8.296875 
L 28.515625 63.921875 
L 10.984375 60.40625 
L 10.984375 69.390625 
L 28.421875 72.90625 
L 38.28125 72.90625 
L 38.28125 8.296875 
L 54.390625 8.296875 
L 54.390625 0 
L 12.40625 0 
z
" id="DejaVuSans-49"/>
      </defs>
      <g transform="translate(133.992071 322.182437)scale(0.1 -0.1)">
       <use xlink:href="#DejaVuSans-49"/>
       <use x="63.623047" xlink:href="#DejaVuSans-48"/>
       <use x="127.246094" xlink:href="#DejaVuSans-48"/>
      </g>
     </g>
    </g>
    <g id="xtick_3">
     <g id="line2d_3">
      <g>
       <use style="stroke:#000000;stroke-width:0.8;" x="212.436014" xlink:href="#m28a94d683c" y="307.584"/>
      </g>
     </g>
     <g id="text_3">
      <!-- 200 -->
      <defs>
       <path d="M 19.1875 8.296875 
L 53.609375 8.296875 
L 53.609375 0 
L 7.328125 0 
L 7.328125 8.296875 
Q 12.9375 14.109375 22.625 23.890625 
Q 32.328125 33.6875 34.8125 36.53125 
Q 39.546875 41.84375 41.421875 45.53125 
Q 43.3125 49.21875 43.3125 52.78125 
Q 43.3125 58.59375 39.234375 62.25 
Q 35.15625 65.921875 28.609375 65.921875 
Q 23.96875 65.921875 18.8125 64.3125 
Q 13.671875 62.703125 7.8125 59.421875 
L 7.8125 69.390625 
Q 13.765625 71.78125 18.9375 73 
Q 24.125 74.21875 28.421875 74.21875 
Q 39.75 74.21875 46.484375 68.546875 
Q 53.21875 62.890625 53.21875 53.421875 
Q 53.21875 48.921875 51.53125 44.890625 
Q 49.859375 40.875 45.40625 35.40625 
Q 44.1875 33.984375 37.640625 27.21875 
Q 31.109375 20.453125 19.1875 8.296875 
z
" id="DejaVuSans-50"/>
      </defs>
      <g transform="translate(202.892264 322.182437)scale(0.1 -0.1)">
       <use xlink:href="#DejaVuSans-50"/>
       <use x="63.623047" xlink:href="#DejaVuSans-48"/>
       <use x="127.246094" xlink:href="#DejaVuSans-48"/>
      </g>
     </g>
    </g>
    <g id="xtick_4">
     <g id="line2d_4">
      <g>
       <use style="stroke:#000000;stroke-width:0.8;" x="281.336206" xlink:href="#m28a94d683c" y="307.584"/>
      </g>
     </g>
     <g id="text_4">
      <!-- 300 -->
      <defs>
       <path d="M 40.578125 39.3125 
Q 47.65625 37.796875 51.625 33 
Q 55.609375 28.21875 55.609375 21.1875 
Q 55.609375 10.40625 48.1875 4.484375 
Q 40.765625 -1.421875 27.09375 -1.421875 
Q 22.515625 -1.421875 17.65625 -0.515625 
Q 12.796875 0.390625 7.625 2.203125 
L 7.625 11.71875 
Q 11.71875 9.328125 16.59375 8.109375 
Q 21.484375 6.890625 26.8125 6.890625 
Q 36.078125 6.890625 40.9375 10.546875 
Q 45.796875 14.203125 45.796875 21.1875 
Q 45.796875 27.640625 41.28125 31.265625 
Q 36.765625 34.90625 28.71875 34.90625 
L 20.21875 34.90625 
L 20.21875 43.015625 
L 29.109375 43.015625 
Q 36.375 43.015625 40.234375 45.921875 
Q 44.09375 48.828125 44.09375 54.296875 
Q 44.09375 59.90625 40.109375 62.90625 
Q 36.140625 65.921875 28.71875 65.921875 
Q 24.65625 65.921875 20.015625 65.03125 
Q 15.375 64.15625 9.8125 62.3125 
L 9.8125 71.09375 
Q 15.4375 72.65625 20.34375 73.4375 
Q 25.25 74.21875 29.59375 74.21875 
Q 40.828125 74.21875 47.359375 69.109375 
Q 53.90625 64.015625 53.90625 55.328125 
Q 53.90625 49.265625 50.4375 45.09375 
Q 46.96875 40.921875 40.578125 39.3125 
z
" id="DejaVuSans-51"/>
      </defs>
      <g transform="translate(271.792456 322.182437)scale(0.1 -0.1)">
       <use xlink:href="#DejaVuSans-51"/>
       <use x="63.623047" xlink:href="#DejaVuSans-48"/>
       <use x="127.246094" xlink:href="#DejaVuSans-48"/>
      </g>
     </g>
    </g>
    <g id="xtick_5">
     <g id="line2d_5">
      <g>
       <use style="stroke:#000000;stroke-width:0.8;" x="350.236399" xlink:href="#m28a94d683c" y="307.584"/>
      </g>
     </g>
     <g id="text_5">
      <!-- 400 -->
      <defs>
       <path d="M 37.796875 64.3125 
L 12.890625 25.390625 
L 37.796875 25.390625 
z
M 35.203125 72.90625 
L 47.609375 72.90625 
L 47.609375 25.390625 
L 58.015625 25.390625 
L 58.015625 17.1875 
L 47.609375 17.1875 
L 47.609375 0 
L 37.796875 0 
L 37.796875 17.1875 
L 4.890625 17.1875 
L 4.890625 26.703125 
z
" id="DejaVuSans-52"/>
      </defs>
      <g transform="translate(340.692649 322.182437)scale(0.1 -0.1)">
       <use xlink:href="#DejaVuSans-52"/>
       <use x="63.623047" xlink:href="#DejaVuSans-48"/>
       <use x="127.246094" xlink:href="#DejaVuSans-48"/>
      </g>
     </g>
    </g>
   </g>
   <g id="matplotlib.axis_2">
    <g id="ytick_1">
     <g id="line2d_6">
      <defs>
       <path d="M 0 0 
L -3.5 0 
" id="mc7a5cadf3c" style="stroke:#000000;stroke-width:0.8;"/>
      </defs>
      <g>
       <use style="stroke:#000000;stroke-width:0.8;" x="57.6" xlink:href="#mc7a5cadf3c" y="277.373361"/>
      </g>
     </g>
     <g id="text_6">
      <!-- −50 -->
      <defs>
       <path d="M 10.59375 35.5 
L 73.1875 35.5 
L 73.1875 27.203125 
L 10.59375 27.203125 
z
" id="DejaVuSans-8722"/>
       <path d="M 10.796875 72.90625 
L 49.515625 72.90625 
L 49.515625 64.59375 
L 19.828125 64.59375 
L 19.828125 46.734375 
Q 21.96875 47.46875 24.109375 47.828125 
Q 26.265625 48.1875 28.421875 48.1875 
Q 40.625 48.1875 47.75 41.5 
Q 54.890625 34.8125 54.890625 23.390625 
Q 54.890625 11.625 47.5625 5.09375 
Q 40.234375 -1.421875 26.90625 -1.421875 
Q 22.3125 -1.421875 17.546875 -0.640625 
Q 12.796875 0.140625 7.71875 1.703125 
L 7.71875 11.625 
Q 12.109375 9.234375 16.796875 8.0625 
Q 21.484375 6.890625 26.703125 6.890625 
Q 35.15625 6.890625 40.078125 11.328125 
Q 45.015625 15.765625 45.015625 23.390625 
Q 45.015625 31 40.078125 35.4375 
Q 35.15625 39.890625 26.703125 39.890625 
Q 22.75 39.890625 18.8125 39.015625 
Q 14.890625 38.140625 10.796875 36.28125 
z
" id="DejaVuSans-53"/>
      </defs>
      <g transform="translate(29.495313 281.172579)scale(0.1 -0.1)">
       <use xlink:href="#DejaVuSans-8722"/>
       <use x="83.789062" xlink:href="#DejaVuSans-53"/>
       <use x="147.412109" xlink:href="#DejaVuSans-48"/>
      </g>
     </g>
    </g>
    <g id="ytick_2">
     <g id="line2d_7">
      <g>
       <use style="stroke:#000000;stroke-width:0.8;" x="57.6" xlink:href="#mc7a5cadf3c" y="242.923264"/>
      </g>
     </g>
     <g id="text_7">
      <!-- 0 -->
      <g transform="translate(44.2375 246.722483)scale(0.1 -0.1)">
       <use xlink:href="#DejaVuSans-48"/>
      </g>
     </g>
    </g>
    <g id="ytick_3">
     <g id="line2d_8">
      <g>
       <use style="stroke:#000000;stroke-width:0.8;" x="57.6" xlink:href="#mc7a5cadf3c" y="208.473168"/>
      </g>
     </g>
     <g id="text_8">
      <!-- 50 -->
      <g transform="translate(37.875 212.272387)scale(0.1 -0.1)">
       <use xlink:href="#DejaVuSans-53"/>
       <use x="63.623047" xlink:href="#DejaVuSans-48"/>
      </g>
     </g>
    </g>
    <g id="ytick_4">
     <g id="line2d_9">
      <g>
       <use style="stroke:#000000;stroke-width:0.8;" x="57.6" xlink:href="#mc7a5cadf3c" y="174.023072"/>
      </g>
     </g>
     <g id="text_9">
      <!-- 100 -->
      <g transform="translate(31.5125 177.82229)scale(0.1 -0.1)">
       <use xlink:href="#DejaVuSans-49"/>
       <use x="63.623047" xlink:href="#DejaVuSans-48"/>
       <use x="127.246094" xlink:href="#DejaVuSans-48"/>
      </g>
     </g>
    </g>
    <g id="ytick_5">
     <g id="line2d_10">
      <g>
       <use style="stroke:#000000;stroke-width:0.8;" x="57.6" xlink:href="#mc7a5cadf3c" y="139.572975"/>
      </g>
     </g>
     <g id="text_10">
      <!-- 150 -->
      <g transform="translate(31.5125 143.372194)scale(0.1 -0.1)">
       <use xlink:href="#DejaVuSans-49"/>
       <use x="63.623047" xlink:href="#DejaVuSans-53"/>
       <use x="127.246094" xlink:href="#DejaVuSans-48"/>
      </g>
     </g>
    </g>
    <g id="ytick_6">
     <g id="line2d_11">
      <g>
       <use style="stroke:#000000;stroke-width:0.8;" x="57.6" xlink:href="#mc7a5cadf3c" y="105.122879"/>
      </g>
     </g>
     <g id="text_11">
      <!-- 200 -->
      <g transform="translate(31.5125 108.922098)scale(0.1 -0.1)">
       <use xlink:href="#DejaVuSans-50"/>
       <use x="63.623047" xlink:href="#DejaVuSans-48"/>
       <use x="127.246094" xlink:href="#DejaVuSans-48"/>
      </g>
     </g>
    </g>
    <g id="ytick_7">
     <g id="line2d_12">
      <g>
       <use style="stroke:#000000;stroke-width:0.8;" x="57.6" xlink:href="#mc7a5cadf3c" y="70.672783"/>
      </g>
     </g>
     <g id="text_12">
      <!-- 250 -->
      <g transform="translate(31.5125 74.472002)scale(0.1 -0.1)">
       <use xlink:href="#DejaVuSans-50"/>
       <use x="63.623047" xlink:href="#DejaVuSans-53"/>
       <use x="127.246094" xlink:href="#DejaVuSans-48"/>
      </g>
     </g>
    </g>
   </g>
   <g id="line2d_13">
    <path clip-path="url(#pae3cf4c57d)" d="M 74.635629 242.923264 
L 74.312434 224.264835 
L 73.990934 216.664544 
L 73.840582 211.219561 
L 74.01708 209.002049 
L 74.298761 207.821851 
L 74.725855 206.84991 
L 75.443341 205.927461 
L 76.199476 205.313959 
L 77.23051 204.797056 
L 78.484074 204.475389 
L 80.292045 204.358892 
L 84.056407 204.419559 
L 93.958088 204.685252 
L 100.094891 204.485882 
L 105.443468 204.102198 
L 109.331575 203.621922 
L 114.691913 202.676198 
L 130.068176 199.392222 
L 133.10529 198.388001 
L 136.502793 197.036117 
L 139.375145 195.670936 
L 145.220224 192.603823 
L 149.397781 190.19235 
L 152.572839 188.059648 
L 154.925092 186.294941 
L 159.643102 182.306102 
L 163.22853 178.955782 
L 165.878225 176.267833 
L 176.880965 164.625491 
L 180.112178 161.747943 
L 183.07337 159.348494 
L 186.228999 157.085467 
L 191.899002 153.434514 
L 199.614584 148.834806 
L 203.273873 146.906427 
L 206.817548 145.3231 
L 210.900986 143.821627 
L 216.052929 142.210534 
L 220.966616 140.871872 
L 229.255998 138.868943 
L 234.959142 137.653543 
L 241.270744 136.542597 
L 246.245201 135.881155 
L 252.342937 135.338979 
L 257.723766 135.18981 
L 268.396888 135.104925 
L 274.135654 134.721289 
L 289.351297 133.552052 
L 300.07637 132.984935 
L 306.318658 132.457159 
L 324.313184 130.687389 
L 328.00024 130.029736 
L 332.818293 128.830666 
L 337.008802 127.613613 
L 342.138215 125.891866 
L 350.37792 123.123732 
L 384.377202 111.956801 
L 392.139016 109.036535 
L 395.117571 107.499371 
L 397.983612 106.476617 
L 398.487273 106.132736 
L 398.487273 106.132736 
" style="fill:none;stroke:#008000;stroke-linecap:square;stroke-width:1.5;"/>
   </g>
   <g id="line2d_14">
    <path clip-path="url(#pae3cf4c57d)" d="M 74.635629 242.923264 
L 74.307322 222.926132 
L 73.921695 210.778854 
L 74.229651 209.258379 
L 74.599832 208.460192 
L 75.149224 207.815606 
L 75.77118 207.365777 
L 76.72301 206.931887 
L 77.665502 206.685077 
L 79.527624 206.509557 
L 82.793972 206.533102 
L 90.620126 206.670346 
L 95.676114 206.579855 
L 100.918955 206.281489 
L 106.823913 205.706657 
L 110.643996 205.109049 
L 116.117096 203.976647 
L 124.645445 202.166446 
L 127.29525 201.593308 
L 130.148383 200.752558 
L 134.312313 199.182005 
L 137.325461 197.83003 
L 144.023096 194.407649 
L 148.075837 192.095605 
L 151.101202 189.990282 
L 153.766459 187.906383 
L 158.343806 183.907817 
L 162.709871 179.698113 
L 165.700898 176.487656 
L 173.33317 168.193465 
L 176.415911 165.217708 
L 179.67616 162.301586 
L 182.669459 159.958021 
L 186.333905 157.399709 
L 190.279475 154.87999 
L 197.287292 150.735053 
L 200.934018 148.84086 
L 204.513755 147.270787 
L 208.635934 145.749302 
L 214.224658 143.978458 
L 219.853698 142.43265 
L 228.796787 140.259095 
L 235.106635 138.986014 
L 240.786861 138.024523 
L 245.101868 137.470788 
L 250.530798 136.967245 
L 255.300006 136.810884 
L 265.94034 136.657879 
L 271.273115 136.285888 
L 281.224432 135.31948 
L 299.460712 134.145182 
L 314.316474 132.682793 
L 319.165841 132.068912 
L 324.031355 131.217831 
L 328.178849 130.225649 
L 334.086791 128.538418 
L 339.205836 126.827901 
L 344.009038 125.223671 
L 382.274934 112.251967 
L 385.265852 111.202138 
L 386.686809 110.595599 
L 389.094742 109.308482 
L 390.749774 108.742596 
L 391.424407 108.297915 
L 391.622355 108.115083 
L 391.622355 108.115083 
" style="fill:none;stroke:#0000ff;stroke-linecap:square;stroke-width:1.5;"/>
   </g>
   <g id="line2d_15">
    <path clip-path="url(#pae3cf4c57d)" d="M 74.635629 242.923264 
L 74.309215 222.926071 
L 73.933456 210.641946 
L 74.222171 209.257944 
L 74.591865 208.459546 
L 75.139432 207.813387 
L 75.760654 207.362735 
L 76.985111 206.824026 
L 78.025088 206.614814 
L 79.893787 206.483972 
L 83.669356 206.527319 
L 91.107351 206.639695 
L 98.29092 206.417053 
L 105.158137 205.868113 
L 109.015941 205.348221 
L 113.679164 204.472483 
L 129.284661 200.983826 
L 132.351896 199.913956 
L 136.29601 198.271491 
L 140.509956 196.20175 
L 146.416753 193.032584 
L 148.681285 191.630861 
L 151.073967 189.942868 
L 153.738039 187.857965 
L 158.313485 183.858441 
L 162.677561 179.64775 
L 165.67035 176.439886 
L 173.305112 168.149945 
L 176.388095 165.175245 
L 179.647863 162.259202 
L 182.63601 159.910108 
L 186.298906 157.350597 
L 190.245196 154.832671 
L 197.245286 150.676927 
L 200.890791 148.781138 
L 204.469191 147.209052 
L 208.590463 145.685972 
L 214.177735 143.911314 
L 219.80757 142.369447 
L 228.748283 140.187312 
L 235.057235 138.909358 
L 240.736316 137.94094 
L 245.050219 137.377437 
L 249.875924 136.895641 
L 255.247144 136.700486 
L 265.377856 136.556736 
L 270.815158 136.19765 
L 285.296048 134.896336 
L 300.033743 133.986393 
L 316.093036 132.402129 
L 320.360224 131.815271 
L 324.562834 131.034942 
L 328.140407 130.168535 
L 334.04977 128.486243 
L 339.745454 126.575322 
L 379.992676 113.104793 
L 387.183226 110.342317 
L 388.851683 109.428532 
L 391.133226 108.564512 
L 391.624735 108.165829 
L 391.624735 108.165829 
" style="fill:none;stroke:#ff0000;stroke-linecap:square;stroke-width:1.5;"/>
   </g>
   <g id="patch_3">
    <path d="M 57.6 307.584 
L 57.6 41.472 
" style="fill:none;stroke:#000000;stroke-linecap:square;stroke-linejoin:miter;stroke-width:0.8;"/>
   </g>
   <g id="patch_4">
    <path d="M 414.72 307.584 
L 414.72 41.472 
" style="fill:none;stroke:#000000;stroke-linecap:square;stroke-linejoin:miter;stroke-width:0.8;"/>
   </g>
   <g id="patch_5">
    <path d="M 57.6 307.584 
L 414.72 307.584 
" style="fill:none;stroke:#000000;stroke-linecap:square;stroke-linejoin:miter;stroke-width:0.8;"/>
   </g>
   <g id="patch_6">
    <path d="M 57.6 41.472 
L 414.72 41.472 
" style="fill:none;stroke:#000000;stroke-linecap:square;stroke-linejoin:miter;stroke-width:0.8;"/>
   </g>
  </g>
 </g>
 <defs>
  <clipPath id="pae3cf4c57d">
   <rect height="266.112" width="357.12" x="57.6" y="41.472"/>
  </clipPath>
 </defs>
</svg>
