<?xml version="1.0" encoding="utf-8" standalone="no"?>
<!DOCTYPE svg PUBLIC "-//W3C//DTD SVG 1.1//EN"
  "http://www.w3.org/Graphics/SVG/1.1/DTD/svg11.dtd">
<!-- Created with matplotlib (https://matplotlib.org/) -->
<svg height="345.6pt" version="1.1" viewBox="0 0 460.8 345.6" width="460.8pt" xmlns="http://www.w3.org/2000/svg" xmlns:xlink="http://www.w3.org/1999/xlink">
 <defs>
  <style type="text/css">
*{stroke-linecap:butt;stroke-linejoin:round;}
  </style>
 </defs>
 <g id="figure_1">
  <g id="patch_1">
   <path d="M 0 345.6 
L 460.8 345.6 
L 460.8 0 
L 0 0 
z
" style="fill:#ffffff;"/>
  </g>
  <g id="axes_1">
   <g id="patch_2">
    <path d="M 57.6 307.584 
L 414.72 307.584 
L 414.72 41.472 
L 57.6 41.472 
z
" style="fill:#ffffff;"/>
   </g>
   <g id="matplotlib.axis_1">
    <g id="xtick_1">
     <g id="line2d_1">
      <defs>
       <path d="M 0 0 
L 0 3.5 
" id="mcce58cfc1e" style="stroke:#000000;stroke-width:0.8;"/>
      </defs>
      <g>
       <use style="stroke:#000000;stroke-width:0.8;" x="73.832727" xlink:href="#mcce58cfc1e" y="307.584"/>
      </g>
     </g>
     <g id="text_1">
      <!-- 0 -->
      <defs>
       <path d="M 31.78125 66.40625 
Q 24.171875 66.40625 20.328125 58.90625 
Q 16.5 51.421875 16.5 36.375 
Q 16.5 21.390625 20.328125 13.890625 
Q 24.171875 6.390625 31.78125 6.390625 
Q 39.453125 6.390625 43.28125 13.890625 
Q 47.125 21.390625 47.125 36.375 
Q 47.125 51.421875 43.28125 58.90625 
Q 39.453125 66.40625 31.78125 66.40625 
z
M 31.78125 74.21875 
Q 44.046875 74.21875 50.515625 64.515625 
Q 56.984375 54.828125 56.984375 36.375 
Q 56.984375 17.96875 50.515625 8.265625 
Q 44.046875 -1.421875 31.78125 -1.421875 
Q 19.53125 -1.421875 13.0625 8.265625 
Q 6.59375 17.96875 6.59375 36.375 
Q 6.59375 54.828125 13.0625 64.515625 
Q 19.53125 74.21875 31.78125 74.21875 
z
" id="DejaVuSans-48"/>
      </defs>
      <g transform="translate(70.651477 322.182437)scale(0.1 -0.1)">
       <use xlink:href="#DejaVuSans-48"/>
      </g>
     </g>
    </g>
    <g id="xtick_2">
     <g id="line2d_2">
      <g>
       <use style="stroke:#000000;stroke-width:0.8;" x="122.226967" xlink:href="#mcce58cfc1e" y="307.584"/>
      </g>
     </g>
     <g id="text_2">
      <!-- 100 -->
      <defs>
       <path d="M 12.40625 8.296875 
L 28.515625 8.296875 
L 28.515625 63.921875 
L 10.984375 60.40625 
L 10.984375 69.390625 
L 28.421875 72.90625 
L 38.28125 72.90625 
L 38.28125 8.296875 
L 54.390625 8.296875 
L 54.390625 0 
L 12.40625 0 
z
" id="DejaVuSans-49"/>
      </defs>
      <g transform="translate(112.683217 322.182437)scale(0.1 -0.1)">
       <use xlink:href="#DejaVuSans-49"/>
       <use x="63.623047" xlink:href="#DejaVuSans-48"/>
       <use x="127.246094" xlink:href="#DejaVuSans-48"/>
      </g>
     </g>
    </g>
    <g id="xtick_3">
     <g id="line2d_3">
      <g>
       <use style="stroke:#000000;stroke-width:0.8;" x="170.621206" xlink:href="#mcce58cfc1e" y="307.584"/>
      </g>
     </g>
     <g id="text_3">
      <!-- 200 -->
      <defs>
       <path d="M 19.1875 8.296875 
L 53.609375 8.296875 
L 53.609375 0 
L 7.328125 0 
L 7.328125 8.296875 
Q 12.9375 14.109375 22.625 23.890625 
Q 32.328125 33.6875 34.8125 36.53125 
Q 39.546875 41.84375 41.421875 45.53125 
Q 43.3125 49.21875 43.3125 52.78125 
Q 43.3125 58.59375 39.234375 62.25 
Q 35.15625 65.921875 28.609375 65.921875 
Q 23.96875 65.921875 18.8125 64.3125 
Q 13.671875 62.703125 7.8125 59.421875 
L 7.8125 69.390625 
Q 13.765625 71.78125 18.9375 73 
Q 24.125 74.21875 28.421875 74.21875 
Q 39.75 74.21875 46.484375 68.546875 
Q 53.21875 62.890625 53.21875 53.421875 
Q 53.21875 48.921875 51.53125 44.890625 
Q 49.859375 40.875 45.40625 35.40625 
Q 44.1875 33.984375 37.640625 27.21875 
Q 31.109375 20.453125 19.1875 8.296875 
z
" id="DejaVuSans-50"/>
      </defs>
      <g transform="translate(161.077456 322.182437)scale(0.1 -0.1)">
       <use xlink:href="#DejaVuSans-50"/>
       <use x="63.623047" xlink:href="#DejaVuSans-48"/>
       <use x="127.246094" xlink:href="#DejaVuSans-48"/>
      </g>
     </g>
    </g>
    <g id="xtick_4">
     <g id="line2d_4">
      <g>
       <use style="stroke:#000000;stroke-width:0.8;" x="219.015445" xlink:href="#mcce58cfc1e" y="307.584"/>
      </g>
     </g>
     <g id="text_4">
      <!-- 300 -->
      <defs>
       <path d="M 40.578125 39.3125 
Q 47.65625 37.796875 51.625 33 
Q 55.609375 28.21875 55.609375 21.1875 
Q 55.609375 10.40625 48.1875 4.484375 
Q 40.765625 -1.421875 27.09375 -1.421875 
Q 22.515625 -1.421875 17.65625 -0.515625 
Q 12.796875 0.390625 7.625 2.203125 
L 7.625 11.71875 
Q 11.71875 9.328125 16.59375 8.109375 
Q 21.484375 6.890625 26.8125 6.890625 
Q 36.078125 6.890625 40.9375 10.546875 
Q 45.796875 14.203125 45.796875 21.1875 
Q 45.796875 27.640625 41.28125 31.265625 
Q 36.765625 34.90625 28.71875 34.90625 
L 20.21875 34.90625 
L 20.21875 43.015625 
L 29.109375 43.015625 
Q 36.375 43.015625 40.234375 45.921875 
Q 44.09375 48.828125 44.09375 54.296875 
Q 44.09375 59.90625 40.109375 62.90625 
Q 36.140625 65.921875 28.71875 65.921875 
Q 24.65625 65.921875 20.015625 65.03125 
Q 15.375 64.15625 9.8125 62.3125 
L 9.8125 71.09375 
Q 15.4375 72.65625 20.34375 73.4375 
Q 25.25 74.21875 29.59375 74.21875 
Q 40.828125 74.21875 47.359375 69.109375 
Q 53.90625 64.015625 53.90625 55.328125 
Q 53.90625 49.265625 50.4375 45.09375 
Q 46.96875 40.921875 40.578125 39.3125 
z
" id="DejaVuSans-51"/>
      </defs>
      <g transform="translate(209.471695 322.182437)scale(0.1 -0.1)">
       <use xlink:href="#DejaVuSans-51"/>
       <use x="63.623047" xlink:href="#DejaVuSans-48"/>
       <use x="127.246094" xlink:href="#DejaVuSans-48"/>
      </g>
     </g>
    </g>
    <g id="xtick_5">
     <g id="line2d_5">
      <g>
       <use style="stroke:#000000;stroke-width:0.8;" x="267.409685" xlink:href="#mcce58cfc1e" y="307.584"/>
      </g>
     </g>
     <g id="text_5">
      <!-- 400 -->
      <defs>
       <path d="M 37.796875 64.3125 
L 12.890625 25.390625 
L 37.796875 25.390625 
z
M 35.203125 72.90625 
L 47.609375 72.90625 
L 47.609375 25.390625 
L 58.015625 25.390625 
L 58.015625 17.1875 
L 47.609375 17.1875 
L 47.609375 0 
L 37.796875 0 
L 37.796875 17.1875 
L 4.890625 17.1875 
L 4.890625 26.703125 
z
" id="DejaVuSans-52"/>
      </defs>
      <g transform="translate(257.865935 322.182437)scale(0.1 -0.1)">
       <use xlink:href="#DejaVuSans-52"/>
       <use x="63.623047" xlink:href="#DejaVuSans-48"/>
       <use x="127.246094" xlink:href="#DejaVuSans-48"/>
      </g>
     </g>
    </g>
    <g id="xtick_6">
     <g id="line2d_6">
      <g>
       <use style="stroke:#000000;stroke-width:0.8;" x="315.803924" xlink:href="#mcce58cfc1e" y="307.584"/>
      </g>
     </g>
     <g id="text_6">
      <!-- 500 -->
      <defs>
       <path d="M 10.796875 72.90625 
L 49.515625 72.90625 
L 49.515625 64.59375 
L 19.828125 64.59375 
L 19.828125 46.734375 
Q 21.96875 47.46875 24.109375 47.828125 
Q 26.265625 48.1875 28.421875 48.1875 
Q 40.625 48.1875 47.75 41.5 
Q 54.890625 34.8125 54.890625 23.390625 
Q 54.890625 11.625 47.5625 5.09375 
Q 40.234375 -1.421875 26.90625 -1.421875 
Q 22.3125 -1.421875 17.546875 -0.640625 
Q 12.796875 0.140625 7.71875 1.703125 
L 7.71875 11.625 
Q 12.109375 9.234375 16.796875 8.0625 
Q 21.484375 6.890625 26.703125 6.890625 
Q 35.15625 6.890625 40.078125 11.328125 
Q 45.015625 15.765625 45.015625 23.390625 
Q 45.015625 31 40.078125 35.4375 
Q 35.15625 39.890625 26.703125 39.890625 
Q 22.75 39.890625 18.8125 39.015625 
Q 14.890625 38.140625 10.796875 36.28125 
z
" id="DejaVuSans-53"/>
      </defs>
      <g transform="translate(306.260174 322.182437)scale(0.1 -0.1)">
       <use xlink:href="#DejaVuSans-53"/>
       <use x="63.623047" xlink:href="#DejaVuSans-48"/>
       <use x="127.246094" xlink:href="#DejaVuSans-48"/>
      </g>
     </g>
    </g>
    <g id="xtick_7">
     <g id="line2d_7">
      <g>
       <use style="stroke:#000000;stroke-width:0.8;" x="364.198164" xlink:href="#mcce58cfc1e" y="307.584"/>
      </g>
     </g>
     <g id="text_7">
      <!-- 600 -->
      <defs>
       <path d="M 33.015625 40.375 
Q 26.375 40.375 22.484375 35.828125 
Q 18.609375 31.296875 18.609375 23.390625 
Q 18.609375 15.53125 22.484375 10.953125 
Q 26.375 6.390625 33.015625 6.390625 
Q 39.65625 6.390625 43.53125 10.953125 
Q 47.40625 15.53125 47.40625 23.390625 
Q 47.40625 31.296875 43.53125 35.828125 
Q 39.65625 40.375 33.015625 40.375 
z
M 52.59375 71.296875 
L 52.59375 62.3125 
Q 48.875 64.0625 45.09375 64.984375 
Q 41.3125 65.921875 37.59375 65.921875 
Q 27.828125 65.921875 22.671875 59.328125 
Q 17.53125 52.734375 16.796875 39.40625 
Q 19.671875 43.65625 24.015625 45.921875 
Q 28.375 48.1875 33.59375 48.1875 
Q 44.578125 48.1875 50.953125 41.515625 
Q 57.328125 34.859375 57.328125 23.390625 
Q 57.328125 12.15625 50.6875 5.359375 
Q 44.046875 -1.421875 33.015625 -1.421875 
Q 20.359375 -1.421875 13.671875 8.265625 
Q 6.984375 17.96875 6.984375 36.375 
Q 6.984375 53.65625 15.1875 63.9375 
Q 23.390625 74.21875 37.203125 74.21875 
Q 40.921875 74.21875 44.703125 73.484375 
Q 48.484375 72.75 52.59375 71.296875 
z
" id="DejaVuSans-54"/>
      </defs>
      <g transform="translate(354.654414 322.182437)scale(0.1 -0.1)">
       <use xlink:href="#DejaVuSans-54"/>
       <use x="63.623047" xlink:href="#DejaVuSans-48"/>
       <use x="127.246094" xlink:href="#DejaVuSans-48"/>
      </g>
     </g>
    </g>
    <g id="xtick_8">
     <g id="line2d_8">
      <g>
       <use style="stroke:#000000;stroke-width:0.8;" x="412.592403" xlink:href="#mcce58cfc1e" y="307.584"/>
      </g>
     </g>
     <g id="text_8">
      <!-- 700 -->
      <defs>
       <path d="M 8.203125 72.90625 
L 55.078125 72.90625 
L 55.078125 68.703125 
L 28.609375 0 
L 18.3125 0 
L 43.21875 64.59375 
L 8.203125 64.59375 
z
" id="DejaVuSans-55"/>
      </defs>
      <g transform="translate(403.048653 322.182437)scale(0.1 -0.1)">
       <use xlink:href="#DejaVuSans-55"/>
       <use x="63.623047" xlink:href="#DejaVuSans-48"/>
       <use x="127.246094" xlink:href="#DejaVuSans-48"/>
      </g>
     </g>
    </g>
   </g>
   <g id="matplotlib.axis_2">
    <g id="ytick_1">
     <g id="line2d_9">
      <defs>
       <path d="M 0 0 
L -3.5 0 
" id="m677d7fc367" style="stroke:#000000;stroke-width:0.8;"/>
      </defs>
      <g>
       <use style="stroke:#000000;stroke-width:0.8;" x="57.6" xlink:href="#m677d7fc367" y="294.10212"/>
      </g>
     </g>
     <g id="text_9">
      <!-- −200 -->
      <defs>
       <path d="M 10.59375 35.5 
L 73.1875 35.5 
L 73.1875 27.203125 
L 10.59375 27.203125 
z
" id="DejaVuSans-8722"/>
      </defs>
      <g transform="translate(23.132812 297.901339)scale(0.1 -0.1)">
       <use xlink:href="#DejaVuSans-8722"/>
       <use x="83.789062" xlink:href="#DejaVuSans-50"/>
       <use x="147.412109" xlink:href="#DejaVuSans-48"/>
       <use x="211.035156" xlink:href="#DejaVuSans-48"/>
      </g>
     </g>
    </g>
    <g id="ytick_2">
     <g id="line2d_10">
      <g>
       <use style="stroke:#000000;stroke-width:0.8;" x="57.6" xlink:href="#m677d7fc367" y="245.707881"/>
      </g>
     </g>
     <g id="text_10">
      <!-- −100 -->
      <g transform="translate(23.132812 249.507099)scale(0.1 -0.1)">
       <use xlink:href="#DejaVuSans-8722"/>
       <use x="83.789062" xlink:href="#DejaVuSans-49"/>
       <use x="147.412109" xlink:href="#DejaVuSans-48"/>
       <use x="211.035156" xlink:href="#DejaVuSans-48"/>
      </g>
     </g>
    </g>
    <g id="ytick_3">
     <g id="line2d_11">
      <g>
       <use style="stroke:#000000;stroke-width:0.8;" x="57.6" xlink:href="#m677d7fc367" y="197.313641"/>
      </g>
     </g>
     <g id="text_11">
      <!-- 0 -->
      <g transform="translate(44.2375 201.11286)scale(0.1 -0.1)">
       <use xlink:href="#DejaVuSans-48"/>
      </g>
     </g>
    </g>
    <g id="ytick_4">
     <g id="line2d_12">
      <g>
       <use style="stroke:#000000;stroke-width:0.8;" x="57.6" xlink:href="#m677d7fc367" y="148.919402"/>
      </g>
     </g>
     <g id="text_12">
      <!-- 100 -->
      <g transform="translate(31.5125 152.718621)scale(0.1 -0.1)">
       <use xlink:href="#DejaVuSans-49"/>
       <use x="63.623047" xlink:href="#DejaVuSans-48"/>
       <use x="127.246094" xlink:href="#DejaVuSans-48"/>
      </g>
     </g>
    </g>
    <g id="ytick_5">
     <g id="line2d_13">
      <g>
       <use style="stroke:#000000;stroke-width:0.8;" x="57.6" xlink:href="#m677d7fc367" y="100.525162"/>
      </g>
     </g>
     <g id="text_13">
      <!-- 200 -->
      <g transform="translate(31.5125 104.324381)scale(0.1 -0.1)">
       <use xlink:href="#DejaVuSans-50"/>
       <use x="63.623047" xlink:href="#DejaVuSans-48"/>
       <use x="127.246094" xlink:href="#DejaVuSans-48"/>
      </g>
     </g>
    </g>
    <g id="ytick_6">
     <g id="line2d_14">
      <g>
       <use style="stroke:#000000;stroke-width:0.8;" x="57.6" xlink:href="#m677d7fc367" y="52.130923"/>
      </g>
     </g>
     <g id="text_14">
      <!-- 300 -->
      <g transform="translate(31.5125 55.930142)scale(0.1 -0.1)">
       <use xlink:href="#DejaVuSans-51"/>
       <use x="63.623047" xlink:href="#DejaVuSans-48"/>
       <use x="127.246094" xlink:href="#DejaVuSans-48"/>
      </g>
     </g>
    </g>
   </g>
   <g id="line2d_15">
    <path clip-path="url(#pc299eba7c5)" d="M 73.832727 197.313641 
L 73.988583 196.73995 
L 74.316235 196.206911 
L 74.88102 195.682884 
L 75.72463 195.183265 
L 76.895959 194.733878 
L 79.790765 193.925677 
L 82.474482 193.418748 
L 84.071143 193.291574 
L 85.691653 193.381671 
L 87.291944 193.694462 
L 89.213888 194.333673 
L 91.028217 195.201779 
L 93.712336 196.8139 
L 96.70067 198.597401 
L 106.888974 204.470883 
L 116.615834 210.466029 
L 119.037317 211.539167 
L 123.142247 213.026762 
L 126.882734 214.13724 
L 130.25349 214.932943 
L 134.895659 215.851509 
L 141.732458 217.064414 
L 144.404788 217.322162 
L 146.974184 217.304067 
L 150.955868 217.214824 
L 155.391587 217.143326 
L 157.270978 216.849626 
L 159.897478 216.186519 
L 164.299563 214.782795 
L 167.039306 213.56298 
L 173.324266 210.838292 
L 176.398414 209.790813 
L 181.715392 207.90277 
L 185.938709 206.096997 
L 190.471071 203.935652 
L 197.08216 200.481324 
L 200.137675 198.678439 
L 202.368021 197.032199 
L 204.31918 195.698683 
L 208.790904 193.101505 
L 212.762813 190.808483 
L 215.294848 189.119064 
L 219.298648 186.171187 
L 221.856332 184.040248 
L 225.240348 180.822902 
L 228.666805 177.119417 
L 232.777654 172.746156 
L 235.217401 170.504592 
L 239.325927 167.083541 
L 243.600445 163.810677 
L 260.98564 151.016726 
L 264.22244 149.274141 
L 267.324608 147.816207 
L 269.964949 146.802009 
L 271.621097 146.38064 
L 274.487197 145.987388 
L 284.714594 145.043459 
L 286.438106 145.209064 
L 288.932055 145.536886 
L 290.107938 145.515545 
L 291.497192 145.204854 
L 292.783849 144.639415 
L 296.075287 142.938261 
L 301.279361 139.771052 
L 310.635419 134.001152 
L 313.06239 132.920557 
L 315.084689 132.267041 
L 317.173868 131.879209 
L 319.323298 131.722073 
L 322.050217 131.780001 
L 328.844817 132.23089 
L 337.485511 133.001423 
L 344.114457 133.856114 
L 365.473255 137.143196 
L 380.407136 139.331438 
L 395.433741 141.570688 
L 396.516272 141.995928 
L 397.367333 142.607777 
L 398.147013 143.831619 
L 398.364593 144.544901 
L 398.422231 145.052025 
L 398.487273 145.577392 
L 398.019058 147.223184 
L 397.558249 148.042643 
L 396.746677 149.127894 
L 395.238519 150.774339 
L 393.740621 152.057725 
L 392.034869 153.163199 
L 385.06484 157.396698 
L 381.372021 159.788593 
L 376.143943 163.387774 
L 369.687958 168.17967 
L 366.812517 170.599987 
L 365.104781 172.325358 
L 361.619331 176.060735 
L 337.743065 202.604821 
L 337.743065 202.604821 
" style="fill:none;stroke:#008000;stroke-linecap:square;stroke-width:1.5;"/>
   </g>
   <g id="line2d_16">
    <path clip-path="url(#pc299eba7c5)" d="M 73.832727 197.313641 
L 74.005089 196.765508 
L 74.379385 196.344436 
L 75.285799 195.797187 
L 76.532018 195.312194 
L 79.416851 194.496157 
L 82.091442 193.979902 
L 83.619199 193.862966 
L 85.228809 193.946517 
L 86.813948 194.255768 
L 88.562893 194.828805 
L 90.3667 195.671894 
L 92.7149 197.038392 
L 96.058079 199.013794 
L 105.498756 204.36296 
L 111.971335 208.439941 
L 114.569751 209.976524 
L 117.057896 211.154676 
L 120.758624 212.547928 
L 123.987832 213.557773 
L 127.403797 214.380996 
L 138.148524 216.301551 
L 140.828337 216.576972 
L 143.818279 216.562063 
L 147.475507 216.492536 
L 152.40776 216.444566 
L 154.188615 216.16561 
L 157.100106 215.428406 
L 161.155518 214.143807 
L 163.569269 213.079401 
L 170.917838 209.894503 
L 180.009371 206.673018 
L 183.544416 205.128996 
L 188.365076 202.797052 
L 197.382138 197.838986 
L 202.632932 194.269882 
L 211.904994 188.792384 
L 214.76095 186.700236 
L 217.910741 184.018997 
L 221.169255 180.96494 
L 224.330093 177.646777 
L 229.579639 172.043286 
L 231.673391 170.118763 
L 235.415105 166.999415 
L 240.513878 163.099914 
L 256.985519 150.948543 
L 259.516126 149.565875 
L 262.275607 148.205467 
L 265.566361 146.826712 
L 267.926474 146.081183 
L 269.972449 145.732078 
L 273.204885 145.388141 
L 278.975305 144.850163 
L 281.399625 144.686221 
L 283.309546 144.857517 
L 286.804866 145.336951 
L 288.026818 145.157224 
L 289.494685 144.703412 
L 291.307843 143.899272 
L 294.911833 141.811486 
L 307.911665 134.034974 
L 310.117072 133.128786 
L 312.226587 132.558616 
L 314.426198 132.233934 
L 316.284096 132.153133 
L 319.533496 132.300853 
L 325.259197 132.764216 
L 336.160293 133.871955 
L 343.724728 134.958445 
L 376.669577 140.11903 
L 391.001892 142.190579 
L 391.911128 142.563828 
L 392.653613 143.10518 
L 393.183566 143.805362 
L 393.488218 144.472724 
L 393.66298 145.380027 
L 393.579839 146.063136 
L 393.285928 146.7839 
L 392.672284 147.711915 
L 391.212918 149.345001 
L 389.619192 150.745229 
L 388.047985 151.773315 
L 383.617297 154.457503 
L 377.593816 158.348116 
L 371.33852 162.70684 
L 364.885891 167.626102 
L 362.754111 169.795279 
L 358.783033 174.066982 
L 336.486553 198.997495 
L 336.486553 198.997495 
" style="fill:none;stroke:#0000ff;stroke-linecap:square;stroke-width:1.5;"/>
   </g>
   <g id="line2d_17">
    <path clip-path="url(#pc299eba7c5)" d="M 73.832727 197.313641 
L 74.005479 196.765711 
L 74.380272 196.344913 
L 75.28506 195.794651 
L 76.531381 195.309903 
L 79.416798 194.495398 
L 82.090956 193.975757 
L 83.618257 193.853312 
L 85.227933 193.937169 
L 86.812785 194.247855 
L 88.559994 194.825739 
L 90.361234 195.674193 
L 92.706403 197.045552 
L 96.042702 199.032271 
L 106.272447 204.898889 
L 115.904875 210.729042 
L 118.088309 211.64883 
L 122.709209 213.265669 
L 126.179341 214.235273 
L 131.969137 215.386454 
L 139.21459 216.601518 
L 141.526173 216.768236 
L 144.851327 216.711769 
L 148.097718 216.692071 
L 152.012292 216.698137 
L 153.878121 216.459257 
L 156.775165 215.734032 
L 161.70138 214.194142 
L 171.952773 209.969023 
L 180.049041 207.191016 
L 183.608893 205.705584 
L 188.463654 203.442729 
L 197.221944 198.832356 
L 199.494927 197.215147 
L 201.493723 195.90371 
L 205.99839 193.400749 
L 210.39813 190.920069 
L 213.634374 188.76989 
L 216.144578 186.851898 
L 219.20776 184.242969 
L 222.883393 180.759365 
L 225.689912 177.794133 
L 230.099513 173.244526 
L 232.576719 171.045595 
L 236.445899 167.923052 
L 240.355778 164.990782 
L 257.103156 152.80163 
L 259.290294 151.553323 
L 263.036407 149.713694 
L 266.337493 148.355276 
L 268.70319 147.624896 
L 270.747969 147.276467 
L 273.984755 146.955602 
L 278.78125 146.561406 
L 282.187367 146.325731 
L 284.095988 146.509583 
L 287.587398 147.01202 
L 288.810433 146.840708 
L 290.281011 146.396123 
L 292.098053 145.601293 
L 295.39392 143.726028 
L 303.997366 138.480783 
L 307.226573 136.580564 
L 309.29083 135.601143 
L 311.470502 134.791697 
L 313.629771 134.272209 
L 315.812163 134.024237 
L 317.683379 134.0086 
L 320.918682 134.211215 
L 329.708964 135.018226 
L 336.988966 135.882511 
L 344.537562 137.049895 
L 367.892661 141.044893 
L 391.718707 144.549079 
L 392.6269 144.921764 
L 393.357657 145.477325 
L 393.75131 145.969094 
L 393.951957 146.088255 
L 394.314486 146.988783 
L 394.403099 147.83209 
L 394.222723 148.733136 
L 393.829869 149.44271 
L 392.907158 150.59664 
L 391.339308 152.147218 
L 389.76069 153.358673 
L 387.556452 154.613671 
L 378.097938 160.231311 
L 370.861655 164.866091 
L 365.46802 168.604129 
L 363.911453 169.98095 
L 358.644397 175.183339 
L 335.336507 199.305796 
L 335.336507 199.305796 
" style="fill:none;stroke:#ff0000;stroke-linecap:square;stroke-width:1.5;"/>
   </g>
   <g id="patch_3">
    <path d="M 57.6 307.584 
L 57.6 41.472 
" style="fill:none;stroke:#000000;stroke-linecap:square;stroke-linejoin:miter;stroke-width:0.8;"/>
   </g>
   <g id="patch_4">
    <path d="M 414.72 307.584 
L 414.72 41.472 
" style="fill:none;stroke:#000000;stroke-linecap:square;stroke-linejoin:miter;stroke-width:0.8;"/>
   </g>
   <g id="patch_5">
    <path d="M 57.6 307.584 
L 414.72 307.584 
" style="fill:none;stroke:#000000;stroke-linecap:square;stroke-linejoin:miter;stroke-width:0.8;"/>
   </g>
   <g id="patch_6">
    <path d="M 57.6 41.472 
L 414.72 41.472 
" style="fill:none;stroke:#000000;stroke-linecap:square;stroke-linejoin:miter;stroke-width:0.8;"/>
   </g>
  </g>
 </g>
 <defs>
  <clipPath id="pc299eba7c5">
   <rect height="266.112" width="357.12" x="57.6" y="41.472"/>
  </clipPath>
 </defs>
</svg>
