<?xml version="1.0" encoding="utf-8" standalone="no"?>
<!DOCTYPE svg PUBLIC "-//W3C//DTD SVG 1.1//EN"
  "http://www.w3.org/Graphics/SVG/1.1/DTD/svg11.dtd">
<!-- Created with matplotlib (https://matplotlib.org/) -->
<svg height="345.6pt" version="1.1" viewBox="0 0 460.8 345.6" width="460.8pt" xmlns="http://www.w3.org/2000/svg" xmlns:xlink="http://www.w3.org/1999/xlink">
 <defs>
  <style type="text/css">
*{stroke-linecap:butt;stroke-linejoin:round;}
  </style>
 </defs>
 <g id="figure_1">
  <g id="patch_1">
   <path d="M 0 345.6 
L 460.8 345.6 
L 460.8 0 
L 0 0 
z
" style="fill:#ffffff;"/>
  </g>
  <g id="axes_1">
   <g id="patch_2">
    <path d="M 57.6 307.584 
L 414.72 307.584 
L 414.72 41.472 
L 57.6 41.472 
z
" style="fill:#ffffff;"/>
   </g>
   <g id="matplotlib.axis_1">
    <g id="xtick_1">
     <g id="line2d_1">
      <defs>
       <path d="M 0 0 
L 0 3.5 
" id="mfbcee71cd9" style="stroke:#000000;stroke-width:0.8;"/>
      </defs>
      <g>
       <use style="stroke:#000000;stroke-width:0.8;" x="87.417258" xlink:href="#mfbcee71cd9" y="307.584"/>
      </g>
     </g>
     <g id="text_1">
      <!-- −60 -->
      <defs>
       <path d="M 10.59375 35.5 
L 73.1875 35.5 
L 73.1875 27.203125 
L 10.59375 27.203125 
z
" id="DejaVuSans-8722"/>
       <path d="M 33.015625 40.375 
Q 26.375 40.375 22.484375 35.828125 
Q 18.609375 31.296875 18.609375 23.390625 
Q 18.609375 15.53125 22.484375 10.953125 
Q 26.375 6.390625 33.015625 6.390625 
Q 39.65625 6.390625 43.53125 10.953125 
Q 47.40625 15.53125 47.40625 23.390625 
Q 47.40625 31.296875 43.53125 35.828125 
Q 39.65625 40.375 33.015625 40.375 
z
M 52.59375 71.296875 
L 52.59375 62.3125 
Q 48.875 64.0625 45.09375 64.984375 
Q 41.3125 65.921875 37.59375 65.921875 
Q 27.828125 65.921875 22.671875 59.328125 
Q 17.53125 52.734375 16.796875 39.40625 
Q 19.671875 43.65625 24.015625 45.921875 
Q 28.375 48.1875 33.59375 48.1875 
Q 44.578125 48.1875 50.953125 41.515625 
Q 57.328125 34.859375 57.328125 23.390625 
Q 57.328125 12.15625 50.6875 5.359375 
Q 44.046875 -1.421875 33.015625 -1.421875 
Q 20.359375 -1.421875 13.671875 8.265625 
Q 6.984375 17.96875 6.984375 36.375 
Q 6.984375 53.65625 15.1875 63.9375 
Q 23.390625 74.21875 37.203125 74.21875 
Q 40.921875 74.21875 44.703125 73.484375 
Q 48.484375 72.75 52.59375 71.296875 
z
" id="DejaVuSans-54"/>
       <path d="M 31.78125 66.40625 
Q 24.171875 66.40625 20.328125 58.90625 
Q 16.5 51.421875 16.5 36.375 
Q 16.5 21.390625 20.328125 13.890625 
Q 24.171875 6.390625 31.78125 6.390625 
Q 39.453125 6.390625 43.28125 13.890625 
Q 47.125 21.390625 47.125 36.375 
Q 47.125 51.421875 43.28125 58.90625 
Q 39.453125 66.40625 31.78125 66.40625 
z
M 31.78125 74.21875 
Q 44.046875 74.21875 50.515625 64.515625 
Q 56.984375 54.828125 56.984375 36.375 
Q 56.984375 17.96875 50.515625 8.265625 
Q 44.046875 -1.421875 31.78125 -1.421875 
Q 19.53125 -1.421875 13.0625 8.265625 
Q 6.59375 17.96875 6.59375 36.375 
Q 6.59375 54.828125 13.0625 64.515625 
Q 19.53125 74.21875 31.78125 74.21875 
z
" id="DejaVuSans-48"/>
      </defs>
      <g transform="translate(76.864915 322.182437)scale(0.1 -0.1)">
       <use xlink:href="#DejaVuSans-8722"/>
       <use x="83.789062" xlink:href="#DejaVuSans-54"/>
       <use x="147.412109" xlink:href="#DejaVuSans-48"/>
      </g>
     </g>
    </g>
    <g id="xtick_2">
     <g id="line2d_2">
      <g>
       <use style="stroke:#000000;stroke-width:0.8;" x="139.262261" xlink:href="#mfbcee71cd9" y="307.584"/>
      </g>
     </g>
     <g id="text_2">
      <!-- −50 -->
      <defs>
       <path d="M 10.796875 72.90625 
L 49.515625 72.90625 
L 49.515625 64.59375 
L 19.828125 64.59375 
L 19.828125 46.734375 
Q 21.96875 47.46875 24.109375 47.828125 
Q 26.265625 48.1875 28.421875 48.1875 
Q 40.625 48.1875 47.75 41.5 
Q 54.890625 34.8125 54.890625 23.390625 
Q 54.890625 11.625 47.5625 5.09375 
Q 40.234375 -1.421875 26.90625 -1.421875 
Q 22.3125 -1.421875 17.546875 -0.640625 
Q 12.796875 0.140625 7.71875 1.703125 
L 7.71875 11.625 
Q 12.109375 9.234375 16.796875 8.0625 
Q 21.484375 6.890625 26.703125 6.890625 
Q 35.15625 6.890625 40.078125 11.328125 
Q 45.015625 15.765625 45.015625 23.390625 
Q 45.015625 31 40.078125 35.4375 
Q 35.15625 39.890625 26.703125 39.890625 
Q 22.75 39.890625 18.8125 39.015625 
Q 14.890625 38.140625 10.796875 36.28125 
z
" id="DejaVuSans-53"/>
      </defs>
      <g transform="translate(128.709917 322.182437)scale(0.1 -0.1)">
       <use xlink:href="#DejaVuSans-8722"/>
       <use x="83.789062" xlink:href="#DejaVuSans-53"/>
       <use x="147.412109" xlink:href="#DejaVuSans-48"/>
      </g>
     </g>
    </g>
    <g id="xtick_3">
     <g id="line2d_3">
      <g>
       <use style="stroke:#000000;stroke-width:0.8;" x="191.107263" xlink:href="#mfbcee71cd9" y="307.584"/>
      </g>
     </g>
     <g id="text_3">
      <!-- −40 -->
      <defs>
       <path d="M 37.796875 64.3125 
L 12.890625 25.390625 
L 37.796875 25.390625 
z
M 35.203125 72.90625 
L 47.609375 72.90625 
L 47.609375 25.390625 
L 58.015625 25.390625 
L 58.015625 17.1875 
L 47.609375 17.1875 
L 47.609375 0 
L 37.796875 0 
L 37.796875 17.1875 
L 4.890625 17.1875 
L 4.890625 26.703125 
z
" id="DejaVuSans-52"/>
      </defs>
      <g transform="translate(180.554919 322.182437)scale(0.1 -0.1)">
       <use xlink:href="#DejaVuSans-8722"/>
       <use x="83.789062" xlink:href="#DejaVuSans-52"/>
       <use x="147.412109" xlink:href="#DejaVuSans-48"/>
      </g>
     </g>
    </g>
    <g id="xtick_4">
     <g id="line2d_4">
      <g>
       <use style="stroke:#000000;stroke-width:0.8;" x="242.952266" xlink:href="#mfbcee71cd9" y="307.584"/>
      </g>
     </g>
     <g id="text_4">
      <!-- −30 -->
      <defs>
       <path d="M 40.578125 39.3125 
Q 47.65625 37.796875 51.625 33 
Q 55.609375 28.21875 55.609375 21.1875 
Q 55.609375 10.40625 48.1875 4.484375 
Q 40.765625 -1.421875 27.09375 -1.421875 
Q 22.515625 -1.421875 17.65625 -0.515625 
Q 12.796875 0.390625 7.625 2.203125 
L 7.625 11.71875 
Q 11.71875 9.328125 16.59375 8.109375 
Q 21.484375 6.890625 26.8125 6.890625 
Q 36.078125 6.890625 40.9375 10.546875 
Q 45.796875 14.203125 45.796875 21.1875 
Q 45.796875 27.640625 41.28125 31.265625 
Q 36.765625 34.90625 28.71875 34.90625 
L 20.21875 34.90625 
L 20.21875 43.015625 
L 29.109375 43.015625 
Q 36.375 43.015625 40.234375 45.921875 
Q 44.09375 48.828125 44.09375 54.296875 
Q 44.09375 59.90625 40.109375 62.90625 
Q 36.140625 65.921875 28.71875 65.921875 
Q 24.65625 65.921875 20.015625 65.03125 
Q 15.375 64.15625 9.8125 62.3125 
L 9.8125 71.09375 
Q 15.4375 72.65625 20.34375 73.4375 
Q 25.25 74.21875 29.59375 74.21875 
Q 40.828125 74.21875 47.359375 69.109375 
Q 53.90625 64.015625 53.90625 55.328125 
Q 53.90625 49.265625 50.4375 45.09375 
Q 46.96875 40.921875 40.578125 39.3125 
z
" id="DejaVuSans-51"/>
      </defs>
      <g transform="translate(232.399922 322.182437)scale(0.1 -0.1)">
       <use xlink:href="#DejaVuSans-8722"/>
       <use x="83.789062" xlink:href="#DejaVuSans-51"/>
       <use x="147.412109" xlink:href="#DejaVuSans-48"/>
      </g>
     </g>
    </g>
    <g id="xtick_5">
     <g id="line2d_5">
      <g>
       <use style="stroke:#000000;stroke-width:0.8;" x="294.797268" xlink:href="#mfbcee71cd9" y="307.584"/>
      </g>
     </g>
     <g id="text_5">
      <!-- −20 -->
      <defs>
       <path d="M 19.1875 8.296875 
L 53.609375 8.296875 
L 53.609375 0 
L 7.328125 0 
L 7.328125 8.296875 
Q 12.9375 14.109375 22.625 23.890625 
Q 32.328125 33.6875 34.8125 36.53125 
Q 39.546875 41.84375 41.421875 45.53125 
Q 43.3125 49.21875 43.3125 52.78125 
Q 43.3125 58.59375 39.234375 62.25 
Q 35.15625 65.921875 28.609375 65.921875 
Q 23.96875 65.921875 18.8125 64.3125 
Q 13.671875 62.703125 7.8125 59.421875 
L 7.8125 69.390625 
Q 13.765625 71.78125 18.9375 73 
Q 24.125 74.21875 28.421875 74.21875 
Q 39.75 74.21875 46.484375 68.546875 
Q 53.21875 62.890625 53.21875 53.421875 
Q 53.21875 48.921875 51.53125 44.890625 
Q 49.859375 40.875 45.40625 35.40625 
Q 44.1875 33.984375 37.640625 27.21875 
Q 31.109375 20.453125 19.1875 8.296875 
z
" id="DejaVuSans-50"/>
      </defs>
      <g transform="translate(284.244924 322.182437)scale(0.1 -0.1)">
       <use xlink:href="#DejaVuSans-8722"/>
       <use x="83.789062" xlink:href="#DejaVuSans-50"/>
       <use x="147.412109" xlink:href="#DejaVuSans-48"/>
      </g>
     </g>
    </g>
    <g id="xtick_6">
     <g id="line2d_6">
      <g>
       <use style="stroke:#000000;stroke-width:0.8;" x="346.64227" xlink:href="#mfbcee71cd9" y="307.584"/>
      </g>
     </g>
     <g id="text_6">
      <!-- −10 -->
      <defs>
       <path d="M 12.40625 8.296875 
L 28.515625 8.296875 
L 28.515625 63.921875 
L 10.984375 60.40625 
L 10.984375 69.390625 
L 28.421875 72.90625 
L 38.28125 72.90625 
L 38.28125 8.296875 
L 54.390625 8.296875 
L 54.390625 0 
L 12.40625 0 
z
" id="DejaVuSans-49"/>
      </defs>
      <g transform="translate(336.089927 322.182437)scale(0.1 -0.1)">
       <use xlink:href="#DejaVuSans-8722"/>
       <use x="83.789062" xlink:href="#DejaVuSans-49"/>
       <use x="147.412109" xlink:href="#DejaVuSans-48"/>
      </g>
     </g>
    </g>
    <g id="xtick_7">
     <g id="line2d_7">
      <g>
       <use style="stroke:#000000;stroke-width:0.8;" x="398.487273" xlink:href="#mfbcee71cd9" y="307.584"/>
      </g>
     </g>
     <g id="text_7">
      <!-- 0 -->
      <g transform="translate(395.306023 322.182437)scale(0.1 -0.1)">
       <use xlink:href="#DejaVuSans-48"/>
      </g>
     </g>
    </g>
   </g>
   <g id="matplotlib.axis_2">
    <g id="ytick_1">
     <g id="line2d_8">
      <defs>
       <path d="M 0 0 
L -3.5 0 
" id="m7a2c5bbb0b" style="stroke:#000000;stroke-width:0.8;"/>
      </defs>
      <g>
       <use style="stroke:#000000;stroke-width:0.8;" x="57.6" xlink:href="#m7a2c5bbb0b" y="292.287893"/>
      </g>
     </g>
     <g id="text_8">
      <!-- −20 -->
      <g transform="translate(29.495313 296.087112)scale(0.1 -0.1)">
       <use xlink:href="#DejaVuSans-8722"/>
       <use x="83.789062" xlink:href="#DejaVuSans-50"/>
       <use x="147.412109" xlink:href="#DejaVuSans-48"/>
      </g>
     </g>
    </g>
    <g id="ytick_2">
     <g id="line2d_9">
      <g>
       <use style="stroke:#000000;stroke-width:0.8;" x="57.6" xlink:href="#m7a2c5bbb0b" y="240.442891"/>
      </g>
     </g>
     <g id="text_9">
      <!-- −10 -->
      <g transform="translate(29.495313 244.24211)scale(0.1 -0.1)">
       <use xlink:href="#DejaVuSans-8722"/>
       <use x="83.789062" xlink:href="#DejaVuSans-49"/>
       <use x="147.412109" xlink:href="#DejaVuSans-48"/>
      </g>
     </g>
    </g>
    <g id="ytick_3">
     <g id="line2d_10">
      <g>
       <use style="stroke:#000000;stroke-width:0.8;" x="57.6" xlink:href="#m7a2c5bbb0b" y="188.597889"/>
      </g>
     </g>
     <g id="text_10">
      <!-- 0 -->
      <g transform="translate(44.2375 192.397107)scale(0.1 -0.1)">
       <use xlink:href="#DejaVuSans-48"/>
      </g>
     </g>
    </g>
    <g id="ytick_4">
     <g id="line2d_11">
      <g>
       <use style="stroke:#000000;stroke-width:0.8;" x="57.6" xlink:href="#m7a2c5bbb0b" y="136.752886"/>
      </g>
     </g>
     <g id="text_11">
      <!-- 10 -->
      <g transform="translate(37.875 140.552105)scale(0.1 -0.1)">
       <use xlink:href="#DejaVuSans-49"/>
       <use x="63.623047" xlink:href="#DejaVuSans-48"/>
      </g>
     </g>
    </g>
    <g id="ytick_5">
     <g id="line2d_12">
      <g>
       <use style="stroke:#000000;stroke-width:0.8;" x="57.6" xlink:href="#m7a2c5bbb0b" y="84.907884"/>
      </g>
     </g>
     <g id="text_12">
      <!-- 20 -->
      <g transform="translate(37.875 88.707103)scale(0.1 -0.1)">
       <use xlink:href="#DejaVuSans-50"/>
       <use x="63.623047" xlink:href="#DejaVuSans-48"/>
      </g>
     </g>
    </g>
   </g>
   <g id="line2d_13">
    <path clip-path="url(#p1009408bbe)" d="M 398.487273 188.597889 
L 398.463441 188.123285 
L 398.43537 187.634933 
L 398.396369 187.128253 
L 398.338831 186.58988 
L 398.265703 185.99973 
L 398.176202 185.342355 
L 398.058219 184.62169 
L 397.921905 183.832397 
L 397.753492 182.98871 
L 397.545738 182.110119 
L 397.281543 181.206642 
L 396.965834 180.281224 
L 396.612292 179.324684 
L 396.223594 178.336565 
L 395.778413 177.331866 
L 395.272395 176.31715 
L 394.729313 175.296073 
L 394.134919 174.297559 
L 393.464741 173.301456 
L 392.765487 172.307748 
L 392.044162 171.317405 
L 391.267986 170.332749 
L 390.376402 169.382746 
L 389.354423 168.478383 
L 388.27712 167.603265 
L 387.144442 166.740637 
L 385.963972 165.877381 
L 384.680192 165.056245 
L 383.301275 164.29461 
L 381.81645 163.585609 
L 380.249036 162.944059 
L 378.594579 162.378466 
L 376.830941 161.879733 
L 374.979012 161.463282 
L 373.025803 161.10733 
L 371.0129 160.804078 
L 368.928586 160.592805 
L 366.74729 160.491209 
L 364.482167 160.458111 
L 362.148639 160.477071 
L 359.741294 160.546129 
L 357.268365 160.657155 
L 354.70618 160.84192 
L 352.070406 161.064413 
L 349.336256 161.307358 
L 346.522923 161.580281 
L 343.639356 161.88177 
L 340.66589 162.217285 
L 337.624299 162.541213 
L 334.48918 162.857669 
L 331.274012 163.184443 
L 327.977292 163.527299 
L 324.599642 163.882209 
L 321.168695 164.244409 
L 317.641628 164.593658 
L 314.026683 164.939448 
L 310.325987 165.295478 
L 306.549389 165.648532 
L 302.720066 165.997361 
L 298.81904 166.351281 
L 294.857771 166.703112 
L 290.789131 167.020367 
L 286.686221 167.340313 
L 282.540124 167.673448 
L 278.392732 168.01014 
L 274.217394 168.331833 
L 269.96626 168.642478 
L 265.666287 168.968961 
L 261.298346 169.330507 
L 256.911273 169.701671 
L 252.528712 170.091602 
L 248.149105 170.488958 
L 243.79625 170.874882 
L 239.456668 171.250312 
L 235.093289 171.634256 
L 230.745775 172.0136 
L 226.386906 172.403449 
L 222.07812 172.778625 
L 217.755387 173.146222 
L 213.41933 173.507773 
L 209.079593 173.857644 
L 204.723057 174.210537 
L 200.36284 174.563524 
L 196.03679 174.916744 
L 191.720745 175.262022 
L 187.417403 175.611721 
L 183.131428 175.967648 
L 178.844883 176.346541 
L 174.561294 176.72432 
L 170.29051 177.069203 
L 166.020348 177.39466 
L 161.756719 177.727967 
L 157.494334 178.08241 
L 153.221839 178.44082 
L 148.991857 178.796627 
L 144.793397 179.160569 
L 140.633406 179.573255 
L 136.501411 179.994905 
L 132.373564 180.430725 
L 128.256811 180.853531 
L 124.144777 181.252452 
L 120.069448 181.663728 
L 116.014962 182.070634 
L 111.976081 182.455801 
L 107.957834 182.839174 
L 103.951978 183.244182 
L 99.991745 183.638712 
L 96.073352 184.019648 
L 92.199493 184.398405 
L 88.40024 184.782261 
L 84.635359 185.163849 
L 80.960067 185.528935 
L 77.357617 185.882456 
L 73.832727 186.204112 
" style="fill:none;stroke:#008000;stroke-linecap:square;stroke-width:1.5;"/>
   </g>
   <g id="line2d_14">
    <path clip-path="url(#p1009408bbe)" d="M 398.487273 188.597889 
L 398.443547 188.124655 
L 398.403342 187.642985 
L 398.367442 187.138268 
L 398.280183 186.552143 
L 398.20018 185.988113 
L 398.095066 185.355417 
L 397.972381 184.654941 
L 397.829404 183.907912 
L 397.669126 183.107238 
L 397.464712 182.269409 
L 397.203824 181.476551 
L 396.915229 180.70741 
L 396.580219 179.883974 
L 396.228725 179.04952 
L 395.828704 178.159361 
L 395.389315 177.262959 
L 394.932036 176.401591 
L 394.4305 175.560004 
L 393.85523 174.69251 
L 393.262623 173.803315 
L 392.658954 172.952209 
L 392.011512 172.102675 
L 391.314944 171.29185 
L 390.458288 170.484947 
L 389.565557 169.707808 
L 388.614994 168.98281 
L 387.62778 168.182699 
L 386.59478 167.475384 
L 385.480154 166.784226 
L 384.25777 166.171346 
L 382.984032 165.577047 
L 381.604766 165.073549 
L 380.133984 164.617917 
L 378.552055 164.218264 
L 376.944173 163.886781 
L 375.126061 163.579491 
L 373.235761 163.338128 
L 371.163989 163.222895 
L 369.130714 163.164392 
L 366.977523 163.14012 
L 364.742087 163.168136 
L 362.033893 163.228747 
L 359.022238 163.399093 
L 355.801142 163.631809 
L 352.942651 163.828967 
L 350.452126 164.016928 
L 347.955673 164.233259 
L 345.420948 164.457044 
L 342.881995 164.699017 
L 340.263874 164.899765 
L 337.55954 165.124282 
L 334.785634 165.339842 
L 331.895736 165.602184 
L 328.914259 165.848081 
L 326.021635 166.055516 
L 322.966304 166.298256 
L 319.672952 166.540814 
L 314.579367 166.909521 
L 310.862985 167.197691 
L 304.449223 167.749362 
L 300.944479 168.013333 
L 297.179768 168.234331 
L 293.258894 168.455558 
L 289.059688 168.708964 
L 285.101745 168.92503 
L 281.160169 169.153811 
L 277.346573 169.40736 
L 273.795789 169.586631 
L 270.109774 169.792995 
L 266.414881 170.031832 
L 262.653981 170.256846 
L 258.805207 170.508955 
L 254.827102 170.788989 
L 251.10865 171.013953 
L 247.03317 171.299138 
L 242.669904 171.557564 
L 237.289816 171.938294 
L 231.976617 172.264247 
L 228.19894 172.512701 
L 222.802211 172.912163 
L 217.196775 173.252015 
L 213.488661 173.443696 
L 209.362467 173.70054 
L 205.21245 173.973421 
L 201.168569 174.221059 
L 197.118859 174.468633 
L 193.242049 174.71883 
L 189.317174 175.022227 
L 185.663474 175.243291 
L 181.888246 175.428071 
L 178.184705 175.611374 
L 174.60752 175.831459 
L 171.125292 176.055208 
L 167.454426 176.247105 
L 163.744319 176.511603 
L 159.946232 176.772312 
L 156.141261 177.077012 
L 152.684552 177.340194 
L 148.236272 177.710162 
L 143.894465 178.084798 
L 137.245674 178.575163 
L 129.977632 179.163874 
L 123.314402 179.661251 
L 116.499038 180.223677 
L 112.603573 180.549379 
L 108.605807 180.880937 
L 104.67662 181.192689 
L 100.241646 181.538356 
L 93.663187 181.979757 
L 89.307328 182.349609 
L 85.905642 182.664584 
L 82.264213 182.930421 
L 79.002894 183.224105 
L 75.546218 183.455252 
" style="fill:none;stroke:#0000ff;stroke-linecap:square;stroke-width:1.5;"/>
   </g>
   <g id="line2d_15">
    <path clip-path="url(#p1009408bbe)" d="M 398.487273 188.597889 
L 398.443547 188.124655 
L 398.403342 187.642985 
L 398.367442 187.138268 
L 398.280182 186.552143 
L 398.200179 185.988113 
L 398.095064 185.355418 
L 397.972379 184.654941 
L 397.829401 183.907913 
L 397.669123 183.107238 
L 397.464708 182.26941 
L 397.203819 181.476552 
L 396.915223 180.707412 
L 396.580212 179.883976 
L 396.228717 179.049522 
L 395.828696 178.159363 
L 395.389306 177.262961 
L 394.932027 176.401593 
L 394.430491 175.560007 
L 393.85522 174.692514 
L 393.262613 173.803318 
L 392.658944 172.952213 
L 392.011501 172.102679 
L 391.314932 171.291855 
L 390.458276 170.484953 
L 389.565586 169.707762 
L 388.615078 168.982691 
L 387.627827 168.182628 
L 386.593883 167.476747 
L 385.517521 166.728018 
L 384.320847 166.066871 
L 383.038914 165.490319 
L 381.695845 164.899559 
L 380.251204 164.36821 
L 378.666394 163.9801 
L 377.056118 163.660329 
L 375.235791 163.366276 
L 373.343765 163.138688 
L 371.27118 163.038526 
L 369.237505 162.994809 
L 367.084132 162.986127 
L 364.848912 163.030361 
L 362.141217 163.110707 
L 359.130857 163.302973 
L 355.911506 163.559112 
L 353.054471 163.777007 
L 350.565341 163.983053 
L 348.070526 164.217584 
L 345.537511 164.459886 
L 343.000356 164.720311 
L 340.383739 164.940101 
L 337.681067 165.184253 
L 334.908793 165.420023 
L 332.02086 165.703398 
L 329.041224 165.970984 
L 326.150131 166.199526 
L 323.096566 166.464262 
L 319.804998 166.730729 
L 314.714216 167.137166 
L 310.999975 167.45278 
L 304.590291 168.051775 
L 301.087513 168.341635 
L 297.324456 168.590459 
L 293.405251 168.840688 
L 289.208001 169.125766 
L 285.251789 169.372601 
L 281.312079 169.632315 
L 277.50046 169.91522 
L 273.950992 170.121133 
L 270.266603 170.355551 
L 266.57356 170.622443 
L 262.814376 170.875979 
L 258.967532 171.157285 
L 254.991603 171.467537 
L 251.27487 171.720705 
L 247.201587 172.036822 
L 242.840305 172.328356 
L 237.463145 172.749915 
L 232.152469 173.116212 
L 228.376709 173.39349 
L 222.983028 173.83362 
L 217.380246 174.215357 
L 213.673599 174.434756 
L 209.549366 174.722448 
L 205.401405 175.026322 
L 201.35936 175.303743 
L 197.311383 175.580221 
L 193.436353 175.857779 
L 189.513641 176.188903 
L 185.861529 176.435795 
L 182.087681 176.647341 
L 178.385509 176.85742 
L 174.809969 177.103284 
L 171.329372 177.351757 
L 167.659954 177.570251 
L 163.951847 177.861456 
L 160.155578 178.147726 
L 156.352639 178.47741 
L 152.897694 178.763305 
L 148.451909 179.162534 
L 144.112539 179.565249 
L 137.4676 180.10496 
L 130.204072 180.747562 
L 123.544331 181.290043 
L 116.732828 181.898469 
L 112.839591 182.250447 
L 108.844184 182.60931 
L 104.917475 182.949633 
L 100.485112 183.326573 
L 93.909674 183.812181 
L 89.556336 184.211296 
L 86.156796 184.549125 
L 82.517223 184.839509 
L 79.257949 185.155194 
L 75.802879 185.409621 
" style="fill:none;stroke:#ff0000;stroke-linecap:square;stroke-width:1.5;"/>
   </g>
   <g id="patch_3">
    <path d="M 57.6 307.584 
L 57.6 41.472 
" style="fill:none;stroke:#000000;stroke-linecap:square;stroke-linejoin:miter;stroke-width:0.8;"/>
   </g>
   <g id="patch_4">
    <path d="M 414.72 307.584 
L 414.72 41.472 
" style="fill:none;stroke:#000000;stroke-linecap:square;stroke-linejoin:miter;stroke-width:0.8;"/>
   </g>
   <g id="patch_5">
    <path d="M 57.6 307.584 
L 414.72 307.584 
" style="fill:none;stroke:#000000;stroke-linecap:square;stroke-linejoin:miter;stroke-width:0.8;"/>
   </g>
   <g id="patch_6">
    <path d="M 57.6 41.472 
L 414.72 41.472 
" style="fill:none;stroke:#000000;stroke-linecap:square;stroke-linejoin:miter;stroke-width:0.8;"/>
   </g>
  </g>
 </g>
 <defs>
  <clipPath id="p1009408bbe">
   <rect height="266.112" width="357.12" x="57.6" y="41.472"/>
  </clipPath>
 </defs>
</svg>
