<?xml version="1.0" encoding="utf-8" standalone="no"?>
<!DOCTYPE svg PUBLIC "-//W3C//DTD SVG 1.1//EN"
  "http://www.w3.org/Graphics/SVG/1.1/DTD/svg11.dtd">
<!-- Created with matplotlib (https://matplotlib.org/) -->
<svg height="345.6pt" version="1.1" viewBox="0 0 460.8 345.6" width="460.8pt" xmlns="http://www.w3.org/2000/svg" xmlns:xlink="http://www.w3.org/1999/xlink">
 <defs>
  <style type="text/css">
*{stroke-linecap:butt;stroke-linejoin:round;}
  </style>
 </defs>
 <g id="figure_1">
  <g id="patch_1">
   <path d="M 0 345.6 
L 460.8 345.6 
L 460.8 0 
L 0 0 
z
" style="fill:#ffffff;"/>
  </g>
  <g id="axes_1">
   <g id="patch_2">
    <path d="M 57.6 307.584 
L 414.72 307.584 
L 414.72 41.472 
L 57.6 41.472 
z
" style="fill:#ffffff;"/>
   </g>
   <g id="matplotlib.axis_1">
    <g id="xtick_1">
     <g id="line2d_1">
      <defs>
       <path d="M 0 0 
L 0 3.5 
" id="md070c34e6c" style="stroke:#000000;stroke-width:0.8;"/>
      </defs>
      <g>
       <use style="stroke:#000000;stroke-width:0.8;" x="73.832727" xlink:href="#md070c34e6c" y="307.584"/>
      </g>
     </g>
     <g id="text_1">
      <!-- 0 -->
      <defs>
       <path d="M 31.78125 66.40625 
Q 24.171875 66.40625 20.328125 58.90625 
Q 16.5 51.421875 16.5 36.375 
Q 16.5 21.390625 20.328125 13.890625 
Q 24.171875 6.390625 31.78125 6.390625 
Q 39.453125 6.390625 43.28125 13.890625 
Q 47.125 21.390625 47.125 36.375 
Q 47.125 51.421875 43.28125 58.90625 
Q 39.453125 66.40625 31.78125 66.40625 
z
M 31.78125 74.21875 
Q 44.046875 74.21875 50.515625 64.515625 
Q 56.984375 54.828125 56.984375 36.375 
Q 56.984375 17.96875 50.515625 8.265625 
Q 44.046875 -1.421875 31.78125 -1.421875 
Q 19.53125 -1.421875 13.0625 8.265625 
Q 6.59375 17.96875 6.59375 36.375 
Q 6.59375 54.828125 13.0625 64.515625 
Q 19.53125 74.21875 31.78125 74.21875 
z
" id="DejaVuSans-48"/>
      </defs>
      <g transform="translate(70.651477 322.182437)scale(0.1 -0.1)">
       <use xlink:href="#DejaVuSans-48"/>
      </g>
     </g>
    </g>
    <g id="xtick_2">
     <g id="line2d_2">
      <g>
       <use style="stroke:#000000;stroke-width:0.8;" x="123.026286" xlink:href="#md070c34e6c" y="307.584"/>
      </g>
     </g>
     <g id="text_2">
      <!-- 25 -->
      <defs>
       <path d="M 19.1875 8.296875 
L 53.609375 8.296875 
L 53.609375 0 
L 7.328125 0 
L 7.328125 8.296875 
Q 12.9375 14.109375 22.625 23.890625 
Q 32.328125 33.6875 34.8125 36.53125 
Q 39.546875 41.84375 41.421875 45.53125 
Q 43.3125 49.21875 43.3125 52.78125 
Q 43.3125 58.59375 39.234375 62.25 
Q 35.15625 65.921875 28.609375 65.921875 
Q 23.96875 65.921875 18.8125 64.3125 
Q 13.671875 62.703125 7.8125 59.421875 
L 7.8125 69.390625 
Q 13.765625 71.78125 18.9375 73 
Q 24.125 74.21875 28.421875 74.21875 
Q 39.75 74.21875 46.484375 68.546875 
Q 53.21875 62.890625 53.21875 53.421875 
Q 53.21875 48.921875 51.53125 44.890625 
Q 49.859375 40.875 45.40625 35.40625 
Q 44.1875 33.984375 37.640625 27.21875 
Q 31.109375 20.453125 19.1875 8.296875 
z
" id="DejaVuSans-50"/>
       <path d="M 10.796875 72.90625 
L 49.515625 72.90625 
L 49.515625 64.59375 
L 19.828125 64.59375 
L 19.828125 46.734375 
Q 21.96875 47.46875 24.109375 47.828125 
Q 26.265625 48.1875 28.421875 48.1875 
Q 40.625 48.1875 47.75 41.5 
Q 54.890625 34.8125 54.890625 23.390625 
Q 54.890625 11.625 47.5625 5.09375 
Q 40.234375 -1.421875 26.90625 -1.421875 
Q 22.3125 -1.421875 17.546875 -0.640625 
Q 12.796875 0.140625 7.71875 1.703125 
L 7.71875 11.625 
Q 12.109375 9.234375 16.796875 8.0625 
Q 21.484375 6.890625 26.703125 6.890625 
Q 35.15625 6.890625 40.078125 11.328125 
Q 45.015625 15.765625 45.015625 23.390625 
Q 45.015625 31 40.078125 35.4375 
Q 35.15625 39.890625 26.703125 39.890625 
Q 22.75 39.890625 18.8125 39.015625 
Q 14.890625 38.140625 10.796875 36.28125 
z
" id="DejaVuSans-53"/>
      </defs>
      <g transform="translate(116.663786 322.182437)scale(0.1 -0.1)">
       <use xlink:href="#DejaVuSans-50"/>
       <use x="63.623047" xlink:href="#DejaVuSans-53"/>
      </g>
     </g>
    </g>
    <g id="xtick_3">
     <g id="line2d_3">
      <g>
       <use style="stroke:#000000;stroke-width:0.8;" x="172.219845" xlink:href="#md070c34e6c" y="307.584"/>
      </g>
     </g>
     <g id="text_3">
      <!-- 50 -->
      <g transform="translate(165.857345 322.182437)scale(0.1 -0.1)">
       <use xlink:href="#DejaVuSans-53"/>
       <use x="63.623047" xlink:href="#DejaVuSans-48"/>
      </g>
     </g>
    </g>
    <g id="xtick_4">
     <g id="line2d_4">
      <g>
       <use style="stroke:#000000;stroke-width:0.8;" x="221.413403" xlink:href="#md070c34e6c" y="307.584"/>
      </g>
     </g>
     <g id="text_4">
      <!-- 75 -->
      <defs>
       <path d="M 8.203125 72.90625 
L 55.078125 72.90625 
L 55.078125 68.703125 
L 28.609375 0 
L 18.3125 0 
L 43.21875 64.59375 
L 8.203125 64.59375 
z
" id="DejaVuSans-55"/>
      </defs>
      <g transform="translate(215.050903 322.182437)scale(0.1 -0.1)">
       <use xlink:href="#DejaVuSans-55"/>
       <use x="63.623047" xlink:href="#DejaVuSans-53"/>
      </g>
     </g>
    </g>
    <g id="xtick_5">
     <g id="line2d_5">
      <g>
       <use style="stroke:#000000;stroke-width:0.8;" x="270.606962" xlink:href="#md070c34e6c" y="307.584"/>
      </g>
     </g>
     <g id="text_5">
      <!-- 100 -->
      <defs>
       <path d="M 12.40625 8.296875 
L 28.515625 8.296875 
L 28.515625 63.921875 
L 10.984375 60.40625 
L 10.984375 69.390625 
L 28.421875 72.90625 
L 38.28125 72.90625 
L 38.28125 8.296875 
L 54.390625 8.296875 
L 54.390625 0 
L 12.40625 0 
z
" id="DejaVuSans-49"/>
      </defs>
      <g transform="translate(261.063212 322.182437)scale(0.1 -0.1)">
       <use xlink:href="#DejaVuSans-49"/>
       <use x="63.623047" xlink:href="#DejaVuSans-48"/>
       <use x="127.246094" xlink:href="#DejaVuSans-48"/>
      </g>
     </g>
    </g>
    <g id="xtick_6">
     <g id="line2d_6">
      <g>
       <use style="stroke:#000000;stroke-width:0.8;" x="319.800521" xlink:href="#md070c34e6c" y="307.584"/>
      </g>
     </g>
     <g id="text_6">
      <!-- 125 -->
      <g transform="translate(310.256771 322.182437)scale(0.1 -0.1)">
       <use xlink:href="#DejaVuSans-49"/>
       <use x="63.623047" xlink:href="#DejaVuSans-50"/>
       <use x="127.246094" xlink:href="#DejaVuSans-53"/>
      </g>
     </g>
    </g>
    <g id="xtick_7">
     <g id="line2d_7">
      <g>
       <use style="stroke:#000000;stroke-width:0.8;" x="368.994079" xlink:href="#md070c34e6c" y="307.584"/>
      </g>
     </g>
     <g id="text_7">
      <!-- 150 -->
      <g transform="translate(359.450329 322.182437)scale(0.1 -0.1)">
       <use xlink:href="#DejaVuSans-49"/>
       <use x="63.623047" xlink:href="#DejaVuSans-53"/>
       <use x="127.246094" xlink:href="#DejaVuSans-48"/>
      </g>
     </g>
    </g>
   </g>
   <g id="matplotlib.axis_2">
    <g id="ytick_1">
     <g id="line2d_8">
      <defs>
       <path d="M 0 0 
L -3.5 0 
" id="me9be17af35" style="stroke:#000000;stroke-width:0.8;"/>
      </defs>
      <g>
       <use style="stroke:#000000;stroke-width:0.8;" x="57.6" xlink:href="#me9be17af35" y="268.601738"/>
      </g>
     </g>
     <g id="text_8">
      <!-- −40 -->
      <defs>
       <path d="M 10.59375 35.5 
L 73.1875 35.5 
L 73.1875 27.203125 
L 10.59375 27.203125 
z
" id="DejaVuSans-8722"/>
       <path d="M 37.796875 64.3125 
L 12.890625 25.390625 
L 37.796875 25.390625 
z
M 35.203125 72.90625 
L 47.609375 72.90625 
L 47.609375 25.390625 
L 58.015625 25.390625 
L 58.015625 17.1875 
L 47.609375 17.1875 
L 47.609375 0 
L 37.796875 0 
L 37.796875 17.1875 
L 4.890625 17.1875 
L 4.890625 26.703125 
z
" id="DejaVuSans-52"/>
      </defs>
      <g transform="translate(29.495313 272.400957)scale(0.1 -0.1)">
       <use xlink:href="#DejaVuSans-8722"/>
       <use x="83.789062" xlink:href="#DejaVuSans-52"/>
       <use x="147.412109" xlink:href="#DejaVuSans-48"/>
      </g>
     </g>
    </g>
    <g id="ytick_2">
     <g id="line2d_9">
      <g>
       <use style="stroke:#000000;stroke-width:0.8;" x="57.6" xlink:href="#me9be17af35" y="229.246891"/>
      </g>
     </g>
     <g id="text_9">
      <!-- −20 -->
      <g transform="translate(29.495313 233.04611)scale(0.1 -0.1)">
       <use xlink:href="#DejaVuSans-8722"/>
       <use x="83.789062" xlink:href="#DejaVuSans-50"/>
       <use x="147.412109" xlink:href="#DejaVuSans-48"/>
      </g>
     </g>
    </g>
    <g id="ytick_3">
     <g id="line2d_10">
      <g>
       <use style="stroke:#000000;stroke-width:0.8;" x="57.6" xlink:href="#me9be17af35" y="189.892044"/>
      </g>
     </g>
     <g id="text_10">
      <!-- 0 -->
      <g transform="translate(44.2375 193.691263)scale(0.1 -0.1)">
       <use xlink:href="#DejaVuSans-48"/>
      </g>
     </g>
    </g>
    <g id="ytick_4">
     <g id="line2d_11">
      <g>
       <use style="stroke:#000000;stroke-width:0.8;" x="57.6" xlink:href="#me9be17af35" y="150.537197"/>
      </g>
     </g>
     <g id="text_11">
      <!-- 20 -->
      <g transform="translate(37.875 154.336416)scale(0.1 -0.1)">
       <use xlink:href="#DejaVuSans-50"/>
       <use x="63.623047" xlink:href="#DejaVuSans-48"/>
      </g>
     </g>
    </g>
    <g id="ytick_5">
     <g id="line2d_12">
      <g>
       <use style="stroke:#000000;stroke-width:0.8;" x="57.6" xlink:href="#me9be17af35" y="111.18235"/>
      </g>
     </g>
     <g id="text_12">
      <!-- 40 -->
      <g transform="translate(37.875 114.981569)scale(0.1 -0.1)">
       <use xlink:href="#DejaVuSans-52"/>
       <use x="63.623047" xlink:href="#DejaVuSans-48"/>
      </g>
     </g>
    </g>
    <g id="ytick_6">
     <g id="line2d_13">
      <g>
       <use style="stroke:#000000;stroke-width:0.8;" x="57.6" xlink:href="#me9be17af35" y="71.827503"/>
      </g>
     </g>
     <g id="text_13">
      <!-- 60 -->
      <defs>
       <path d="M 33.015625 40.375 
Q 26.375 40.375 22.484375 35.828125 
Q 18.609375 31.296875 18.609375 23.390625 
Q 18.609375 15.53125 22.484375 10.953125 
Q 26.375 6.390625 33.015625 6.390625 
Q 39.65625 6.390625 43.53125 10.953125 
Q 47.40625 15.53125 47.40625 23.390625 
Q 47.40625 31.296875 43.53125 35.828125 
Q 39.65625 40.375 33.015625 40.375 
z
M 52.59375 71.296875 
L 52.59375 62.3125 
Q 48.875 64.0625 45.09375 64.984375 
Q 41.3125 65.921875 37.59375 65.921875 
Q 27.828125 65.921875 22.671875 59.328125 
Q 17.53125 52.734375 16.796875 39.40625 
Q 19.671875 43.65625 24.015625 45.921875 
Q 28.375 48.1875 33.59375 48.1875 
Q 44.578125 48.1875 50.953125 41.515625 
Q 57.328125 34.859375 57.328125 23.390625 
Q 57.328125 12.15625 50.6875 5.359375 
Q 44.046875 -1.421875 33.015625 -1.421875 
Q 20.359375 -1.421875 13.671875 8.265625 
Q 6.984375 17.96875 6.984375 36.375 
Q 6.984375 53.65625 15.1875 63.9375 
Q 23.390625 74.21875 37.203125 74.21875 
Q 40.921875 74.21875 44.703125 73.484375 
Q 48.484375 72.75 52.59375 71.296875 
z
" id="DejaVuSans-54"/>
      </defs>
      <g transform="translate(37.875 75.626722)scale(0.1 -0.1)">
       <use xlink:href="#DejaVuSans-54"/>
       <use x="63.623047" xlink:href="#DejaVuSans-48"/>
      </g>
     </g>
    </g>
   </g>
   <g id="line2d_14">
    <path clip-path="url(#p46aee896d5)" d="M 73.832727 189.892044 
L 73.832727 189.892044 
L 73.934158 187.922875 
L 74.120929 185.965101 
L 74.39928 184.015005 
L 74.749204 182.092218 
L 75.204567 180.181945 
L 75.744525 178.306663 
L 76.367335 176.459836 
L 77.082121 174.65394 
L 77.867579 172.87847 
L 78.729818 171.144589 
L 79.669626 169.458671 
L 80.686508 167.822631 
L 81.775893 166.242179 
L 82.946206 164.724499 
L 84.167554 163.267346 
L 85.468895 161.876683 
L 86.825028 160.548752 
L 88.228697 159.284143 
L 89.69205 158.103163 
L 91.197949 156.987965 
L 92.757487 155.951732 
L 94.367535 154.992516 
L 96.015854 154.101542 
L 97.71805 153.281387 
L 99.460328 152.534727 
L 101.22925 151.845171 
L 103.045181 151.214923 
L 104.899817 150.638375 
L 106.784718 150.124774 
L 108.683333 149.66568 
L 110.611288 149.267133 
L 112.580841 148.930551 
L 114.582153 148.650325 
L 116.614535 148.422854 
L 118.679071 148.25229 
L 120.770565 148.147016 
L 122.890748 148.095835 
L 125.040231 148.096661 
L 127.212127 148.145127 
L 129.406671 148.235544 
L 131.625753 148.358095 
L 133.854595 148.511205 
L 136.095952 148.68783 
L 138.348741 148.890271 
L 140.622468 149.123193 
L 142.929469 149.385414 
L 145.27972 149.677329 
L 147.675801 149.98839 
L 150.116844 150.319069 
L 152.589706 150.669957 
L 155.111309 151.036055 
L 157.671912 151.421398 
L 160.281119 151.820437 
L 162.934797 152.234312 
L 165.624956 152.65781 
L 168.354392 153.09636 
L 171.121864 153.541582 
L 173.93424 154.000538 
L 176.777805 154.461442 
L 179.666057 154.928762 
L 182.600886 155.400174 
L 185.574715 155.870818 
L 188.590871 156.347976 
L 191.64154 156.823048 
L 194.749156 157.30605 
L 197.890303 157.788659 
L 201.06982 158.279178 
L 204.279739 158.773593 
L 207.508509 159.265528 
L 210.77079 159.764627 
L 214.060895 160.256897 
L 217.378685 160.755523 
L 220.738055 161.253873 
L 224.120682 161.761531 
L 227.537155 162.269563 
L 230.984837 162.784206 
L 234.452766 163.298574 
L 237.948637 163.820833 
L 241.472116 164.350746 
L 245.036898 164.887723 
L 248.622302 165.436094 
L 252.241255 165.986707 
L 255.880634 166.552118 
L 259.556456 167.126542 
L 263.255024 167.720485 
L 266.974254 168.327534 
L 270.710662 168.9555 
L 274.454489 169.604796 
L 278.221731 170.28127 
L 282.002158 170.978854 
L 285.807378 171.697545 
L 289.631685 172.435049 
L 293.473309 173.192543 
L 297.331855 173.979066 
L 301.201027 174.791208 
L 305.078266 175.631954 
L 308.970657 176.495106 
L 312.886071 177.39447 
L 316.812898 178.315327 
L 320.743856 179.25929 
L 324.698035 180.228435 
L 328.656148 181.229492 
L 332.636694 182.256992 
L 336.621963 183.303731 
L 340.626515 184.368695 
L 344.643268 185.448903 
L 348.686388 186.548267 
L 352.721637 187.66426 
L 356.779712 188.806662 
L 360.851168 189.973454 
L 364.921837 191.161102 
L 369.00746 192.37358 
L 373.120042 193.615678 
L 377.221604 194.876694 
L 381.342253 196.164525 
L 385.470773 197.47073 
L 389.603622 198.796701 
L 393.763036 200.147867 
L 397.927173 201.518612 
" style="fill:none;stroke:#008000;stroke-linecap:square;stroke-width:1.5;"/>
   </g>
   <g id="line2d_15">
    <path clip-path="url(#p46aee896d5)" d="M 73.832727 189.892044 
L 73.832727 189.892044 
L 73.894054 187.921414 
L 74.091159 185.964294 
L 74.4012 184.018795 
L 74.813375 182.108897 
L 75.26832 180.198395 
L 75.792451 178.318226 
L 76.421621 176.472949 
L 77.090494 174.649275 
L 77.870127 172.870973 
L 78.723022 171.131343 
L 79.651813 169.438281 
L 80.67236 167.803442 
L 81.723143 166.197507 
L 82.883708 164.67153 
L 84.111885 163.220452 
L 85.391513 161.80957 
L 86.753789 160.488089 
L 88.199826 159.27234 
L 89.703845 158.145508 
L 91.184858 156.997958 
L 92.697912 155.893986 
L 94.315318 154.946722 
L 95.951787 154.034168 
L 97.613405 153.134812 
L 99.364378 152.407814 
L 101.136108 151.72667 
L 102.944042 151.073202 
L 104.790833 150.47167 
L 106.665963 149.924184 
L 108.555354 149.428486 
L 110.476393 148.997883 
L 112.443561 148.647323 
L 114.431483 148.283898 
L 116.455394 147.9906 
L 118.51776 147.799508 
L 120.606246 147.645769 
L 122.726329 147.597002 
L 124.874934 147.539683 
L 127.047348 147.537388 
L 129.243091 147.590979 
L 131.463791 147.67778 
L 133.694865 147.794332 
L 135.939383 147.925265 
L 138.193271 148.115495 
L 140.471571 148.299172 
L 142.783107 148.51852 
L 145.136951 148.780536 
L 147.541136 149.021959 
L 149.987909 149.307842 
L 152.466743 149.614083 
L 154.992357 149.951682 
L 157.558329 150.299536 
L 160.175667 150.641419 
L 162.834839 151.018571 
L 165.537207 151.356427 
L 168.271177 151.766183 
L 171.049298 152.140099 
L 173.870497 152.542391 
L 176.723264 152.943104 
L 179.619388 153.359359 
L 182.565089 153.75769 
L 185.548892 154.160104 
L 188.578537 154.542892 
L 191.639701 154.945317 
L 194.75376 155.385031 
L 197.903605 155.807237 
L 201.086933 156.272205 
L 204.306763 156.697623 
L 207.546985 157.106633 
L 210.820889 157.522878 
L 214.122848 157.927655 
L 217.450288 158.357282 
L 220.823106 158.754687 
L 224.219961 159.156604 
L 227.652143 159.544653 
L 231.103248 160.035998 
L 234.584138 160.453875 
L 238.094018 160.870525 
L 241.626467 161.336641 
L 245.199972 161.812054 
L 248.798537 162.265983 
L 252.421297 162.790816 
L 256.071411 163.282366 
L 259.75587 163.798635 
L 263.461648 164.34597 
L 267.19599 164.851031 
L 270.940576 165.428239 
L 274.681758 166.092221 
L 278.452464 166.749114 
L 282.247354 167.362298 
L 286.057844 168.05211 
L 289.894792 168.719298 
L 293.739106 169.462792 
L 297.637914 170.016004 
L 301.531769 170.700081 
L 305.436111 171.404101 
L 309.326369 172.275886 
L 313.2586 173.098218 
L 317.208354 173.915157 
L 321.170086 174.720083 
L 325.145707 175.59659 
L 329.157019 176.356348 
L 333.168672 177.254657 
L 337.172364 178.228511 
L 341.199137 179.206185 
L 345.234232 180.215633 
L 349.28509 181.286223 
L 353.207916 182.748119 
L 357.286774 183.813896 
L 361.304205 185.155002 
L 365.358692 186.396814 
L 369.462103 187.547682 
L 373.590942 188.734319 
L 377.691875 189.997413 
L 381.823719 191.24894 
L 385.985687 192.444272 
L 390.09414 193.84407 
L 394.29439 195.062027 
L 398.487273 196.342156 
" style="fill:none;stroke:#0000ff;stroke-linecap:square;stroke-width:1.5;"/>
   </g>
   <g id="line2d_16">
    <path clip-path="url(#p46aee896d5)" d="M 73.832727 189.892044 
L 73.832727 189.892044 
L 73.894072 187.921414 
L 74.091189 185.964297 
L 74.401257 184.018805 
L 74.813456 182.108915 
L 75.268374 180.198407 
L 75.792341 178.318195 
L 76.421778 176.473004 
L 77.090597 174.649311 
L 77.870173 172.870985 
L 78.722984 171.131315 
L 79.651819 169.438285 
L 80.676716 167.806181 
L 81.727085 166.199985 
L 82.887952 164.674248 
L 84.116402 163.223415 
L 85.39457 161.81157 
L 86.761607 160.495123 
L 88.219342 159.29352 
L 89.72454 158.168583 
L 91.217514 157.036871 
L 92.73268 155.935889 
L 94.350078 154.988853 
L 95.988496 154.081061 
L 97.659109 153.198537 
L 99.41082 152.473759 
L 101.188323 151.807825 
L 102.998517 151.160581 
L 104.847447 150.565572 
L 106.724529 150.024673 
L 108.615677 149.535627 
L 110.538249 149.111811 
L 112.506669 148.76824 
L 114.495867 148.411779 
L 116.521053 148.126789 
L 118.584832 147.948689 
L 120.674344 147.810377 
L 122.794882 147.785432 
L 124.943627 147.729338 
L 127.116008 147.744055 
L 129.311209 147.811588 
L 131.531643 147.906503 
L 133.762135 148.03277 
L 136.005936 148.168215 
L 138.255514 148.403628 
L 140.532504 148.602621 
L 142.841702 148.844429 
L 145.194141 149.110175 
L 147.585521 149.45028 
L 150.028876 149.759021 
L 152.505723 150.078825 
L 155.018586 150.499276 
L 157.579177 150.842278 
L 160.18956 151.230979 
L 162.838012 151.630824 
L 165.555157 151.815346 
L 168.260236 152.372091 
L 171.059826 152.514205 
L 173.881483 152.911605 
L 176.670255 153.630484 
L 179.583512 153.901834 
L 182.553736 154.011139 
L 185.531984 154.444933 
L 188.561927 154.823606 
L 191.623067 155.224863 
L 194.742415 155.623396 
L 197.910295 155.876376 
L 201.086575 156.385421 
L 204.308218 156.796311 
L 207.558864 156.85524 
L 210.841495 157.195796 
L 214.14777 157.554191 
L 217.467328 158.036728 
L 220.846026 158.316731 
L 224.193992 157.838669 
L 227.646265 157.805036 
L 231.088148 158.349843 
L 234.579083 158.672906 
L 238.081132 159.142893 
L 241.595681 159.721482 
L 245.171679 160.177263 
L 248.768783 160.639095 
L 252.39389 161.14451 
L 255.985101 161.950034 
L 259.652483 162.562766 
L 263.389357 162.365486 
L 267.117788 162.91299 
L 270.837342 163.621337 
L 274.567519 164.342744 
L 278.339913 164.987949 
L 282.030402 166.062536 
L 285.839657 166.755852 
L 289.68447 167.376916 
L 293.539028 168.060907 
L 296.891882 170.126089 
L 300.809365 170.658015 
L 304.74147 171.185564 
L 308.66752 171.879735 
L 312.619398 172.60207 
L 316.594768 173.282615 
L 320.526972 174.2167 
L 324.444075 173.162743 
L 328.457218 173.910093 
L 332.53697 174.415498 
L 336.627298 174.912895 
L 340.52574 176.316724 
L 344.538044 177.411608 
L 344.164901 181.489502 
L 348.168192 182.706734 
L 352.332394 183.36417 
L 356.546079 183.790903 
L 360.693915 184.670618 
L 364.888161 185.423416 
L 369.126041 186.128133 
L 373.364825 186.794778 
L 377.628582 187.305621 
L 381.894371 188.049913 
L 386.07225 189.206878 
L 390.287391 190.370127 
L 394.618423 191.047522 
" style="fill:none;stroke:#ff0000;stroke-linecap:square;stroke-width:1.5;"/>
   </g>
   <g id="patch_3">
    <path d="M 57.6 307.584 
L 57.6 41.472 
" style="fill:none;stroke:#000000;stroke-linecap:square;stroke-linejoin:miter;stroke-width:0.8;"/>
   </g>
   <g id="patch_4">
    <path d="M 414.72 307.584 
L 414.72 41.472 
" style="fill:none;stroke:#000000;stroke-linecap:square;stroke-linejoin:miter;stroke-width:0.8;"/>
   </g>
   <g id="patch_5">
    <path d="M 57.6 307.584 
L 414.72 307.584 
" style="fill:none;stroke:#000000;stroke-linecap:square;stroke-linejoin:miter;stroke-width:0.8;"/>
   </g>
   <g id="patch_6">
    <path d="M 57.6 41.472 
L 414.72 41.472 
" style="fill:none;stroke:#000000;stroke-linecap:square;stroke-linejoin:miter;stroke-width:0.8;"/>
   </g>
  </g>
 </g>
 <defs>
  <clipPath id="p46aee896d5">
   <rect height="266.112" width="357.12" x="57.6" y="41.472"/>
  </clipPath>
 </defs>
</svg>
